<?xml version="1.0" encoding="UTF-8"?><svg id="Layer_1" xmlns="http://www.w3.org/2000/svg" viewBox="0 0 185.73 176.12"><defs><style>.cls-1{fill:#7f00ff;}.cls-2{fill:#00f4ff;}.cls-3{stroke:#000;stroke-miterlimit:10;stroke-width:40px;}.cls-4{fill:red;}.cls-5{fill:#fff800;}</style></defs><rect class="cls-3" x="20" y="75.55" width="11.2" height="11.17"/><rect class="cls-3" x="20" y="61.67" width="11.2" height="11.17"/><rect class="cls-3" x="20" y="89.43" width="11.2" height="11.17"/><rect class="cls-3" x="20" y="47.79" width="11.2" height="11.17"/><rect class="cls-3" x="20" y="103.31" width="11.2" height="11.17"/><rect class="cls-3" x="20" y="33.91" width="11.2" height="11.17"/><rect class="cls-3" x="20" y="117.19" width="11.2" height="11.17"/><rect class="cls-3" x="20" y="20.03" width="11.2" height="11.17"/><rect class="cls-3" x="20" y="131.07" width="11.2" height="11.17"/><rect class="cls-3" x="20" y="144.95" width="11.2" height="11.17"/><rect class="cls-3" x="154.53" y="20" width="11.2" height="11.17"/><rect class="cls-3" x="154.53" y="33.88" width="11.2" height="11.17"/><rect class="cls-3" x="154.53" y="47.76" width="11.2" height="11.17"/><rect class="cls-3" x="154.53" y="61.64" width="11.2" height="11.17"/><rect class="cls-3" x="154.53" y="75.52" width="11.2" height="11.17"/><rect class="cls-3" x="154.53" y="89.4" width="11.2" height="11.17"/><rect class="cls-3" x="154.53" y="103.28" width="11.2" height="11.17"/><rect class="cls-3" x="154.53" y="117.16" width="11.2" height="11.17"/><rect class="cls-3" x="154.53" y="131.04" width="11.2" height="11.17"/><rect class="cls-3" x="154.53" y="144.92" width="11.2" height="11.17"/><rect class="cls-3" x="108.86" y="47.76" width="11.2" height="11.17"/><rect class="cls-3" x="108.86" y="61.64" width="11.2" height="11.17"/><rect class="cls-3" x="108.86" y="75.52" width="11.2" height="11.17"/><rect class="cls-3" x="108.86" y="89.4" width="11.2" height="11.17"/><rect class="cls-3" x="108.86" y="103.28" width="11.2" height="11.17"/><rect class="cls-3" x="108.86" y="117.16" width="11.2" height="11.17"/><rect class="cls-3" x="108.86" y="131.04" width="11.2" height="11.17"/><rect class="cls-3" x="108.86" y="144.92" width="11.2" height="11.17"/><rect class="cls-3" x="63.18" y="89.4" width="11.2" height="11.17"/><rect class="cls-3" x="63.18" y="75.52" width="11.2" height="11.17"/><rect class="cls-3" x="63.18" y="103.28" width="11.2" height="11.17"/><rect class="cls-3" x="63.18" y="117.16" width="11.2" height="11.17"/><rect class="cls-3" x="63.18" y="131.04" width="11.2" height="11.17"/><rect class="cls-3" x="63.18" y="144.88" width="11.2" height="11.2"/><rect class="cls-4" x="20.16" y="75.72" width="10.88" height="10.88"/><rect class="cls-4" x="20.16" y="61.84" width="10.88" height="10.88"/><rect class="cls-4" x="20.16" y="89.6" width="10.88" height="10.88"/><rect class="cls-4" x="20.16" y="47.96" width="10.88" height="10.88"/><rect class="cls-4" x="20.16" y="103.48" width="10.88" height="10.88"/><rect class="cls-4" x="20.16" y="34.08" width="10.88" height="10.88"/><rect class="cls-4" x="20.16" y="117.36" width="10.88" height="10.88"/><rect class="cls-4" x="20.16" y="20.2" width="10.88" height="10.88"/><rect class="cls-4" x="20.16" y="131.24" width="10.88" height="10.88"/><rect class="cls-4" x="20.16" y="145.12" width="10.88" height="10.88"/><rect class="cls-1" x="154.69" y="20.12" width="10.88" height="10.88"/><rect class="cls-1" x="154.69" y="34" width="10.88" height="10.88"/><rect class="cls-1" x="154.69" y="47.88" width="10.88" height="10.88"/><rect class="cls-1" x="154.69" y="61.76" width="10.88" height="10.88"/><rect class="cls-1" x="154.69" y="75.64" width="10.88" height="10.88"/><rect class="cls-1" x="154.69" y="89.52" width="10.88" height="10.88"/><rect class="cls-1" x="154.69" y="103.4" width="10.88" height="10.88"/><rect class="cls-1" x="154.69" y="117.28" width="10.88" height="10.88"/><rect class="cls-1" x="154.69" y="131.16" width="10.88" height="10.88"/><rect class="cls-1" x="154.69" y="145.04" width="10.88" height="10.88"/><rect class="cls-2" x="109.02" y="47.88" width="10.88" height="10.88"/><rect class="cls-2" x="109.02" y="61.76" width="10.88" height="10.88"/><rect class="cls-2" x="109.02" y="75.64" width="10.88" height="10.88"/><rect class="cls-2" x="109.02" y="89.52" width="10.88" height="10.88"/><rect class="cls-2" x="109.02" y="103.4" width="10.88" height="10.88"/><rect class="cls-2" x="109.02" y="117.28" width="10.88" height="10.88"/><rect class="cls-2" x="109.02" y="131.16" width="10.88" height="10.88"/><rect class="cls-2" x="109.02" y="145.04" width="10.88" height="10.88"/><rect class="cls-5" x="63.34" y="89.52" width="10.88" height="10.88"/><rect class="cls-5" x="63.34" y="75.64" width="10.88" height="10.88"/><rect class="cls-5" x="63.34" y="103.4" width="10.88" height="10.88"/><rect class="cls-5" x="63.34" y="117.28" width="10.88" height="10.88"/><rect class="cls-5" x="63.34" y="131.16" width="10.88" height="10.88"/><rect class="cls-5" x="63.34" y="145.04" width="10.88" height="10.88"/></svg>