<?xml version="1.0" encoding="UTF-8"?><svg id="Layer_1" xmlns="http://www.w3.org/2000/svg" viewBox="0 0 169.73 160.12"><defs><style>.cls-1{fill:#7f00ff;}.cls-2{stroke:#000;stroke-miterlimit:10;stroke-width:24px;}.cls-3{fill:#00f4ff;}.cls-4{fill:red;}.cls-5{fill:#fff800;}</style></defs><rect class="cls-2" x="12" y="67.55" width="11.2" height="11.17"/><rect class="cls-2" x="12" y="53.67" width="11.2" height="11.17"/><rect class="cls-2" x="12" y="81.43" width="11.2" height="11.17"/><rect class="cls-2" x="12" y="39.79" width="11.2" height="11.17"/><rect class="cls-2" x="12" y="95.31" width="11.2" height="11.17"/><rect class="cls-2" x="12" y="25.91" width="11.2" height="11.17"/><rect class="cls-2" x="12" y="109.19" width="11.2" height="11.17"/><rect class="cls-2" x="12" y="12.03" width="11.2" height="11.17"/><rect class="cls-2" x="12" y="123.07" width="11.2" height="11.17"/><rect class="cls-2" x="12" y="136.95" width="11.2" height="11.17"/><rect class="cls-2" x="146.53" y="12" width="11.2" height="11.17"/><rect class="cls-2" x="146.53" y="25.88" width="11.2" height="11.17"/><rect class="cls-2" x="146.53" y="39.76" width="11.2" height="11.17"/><rect class="cls-2" x="146.53" y="53.64" width="11.2" height="11.17"/><rect class="cls-2" x="146.53" y="67.52" width="11.2" height="11.17"/><rect class="cls-2" x="146.53" y="81.4" width="11.2" height="11.17"/><rect class="cls-2" x="146.53" y="95.28" width="11.2" height="11.17"/><rect class="cls-2" x="146.53" y="109.16" width="11.2" height="11.17"/><rect class="cls-2" x="146.53" y="123.04" width="11.2" height="11.17"/><rect class="cls-2" x="146.53" y="136.92" width="11.2" height="11.17"/><rect class="cls-2" x="100.86" y="39.76" width="11.2" height="11.17"/><rect class="cls-2" x="100.86" y="53.64" width="11.2" height="11.17"/><rect class="cls-2" x="100.86" y="67.52" width="11.2" height="11.17"/><rect class="cls-2" x="100.86" y="81.4" width="11.2" height="11.17"/><rect class="cls-2" x="100.86" y="95.28" width="11.2" height="11.17"/><rect class="cls-2" x="100.86" y="109.16" width="11.2" height="11.17"/><rect class="cls-2" x="100.86" y="123.04" width="11.2" height="11.17"/><rect class="cls-2" x="100.86" y="136.92" width="11.2" height="11.17"/><rect class="cls-2" x="55.18" y="81.4" width="11.2" height="11.17"/><rect class="cls-2" x="55.18" y="67.52" width="11.2" height="11.17"/><rect class="cls-2" x="55.18" y="95.28" width="11.2" height="11.17"/><rect class="cls-2" x="55.18" y="109.16" width="11.2" height="11.17"/><rect class="cls-2" x="55.18" y="123.04" width="11.2" height="11.17"/><rect class="cls-2" x="55.18" y="136.88" width="11.2" height="11.2"/><rect class="cls-4" x="12.16" y="67.72" width="10.88" height="10.88"/><rect class="cls-4" x="12.16" y="53.84" width="10.88" height="10.88"/><rect class="cls-4" x="12.16" y="81.6" width="10.88" height="10.88"/><rect class="cls-4" x="12.16" y="39.96" width="10.88" height="10.88"/><rect class="cls-4" x="12.16" y="95.48" width="10.88" height="10.88"/><rect class="cls-4" x="12.16" y="26.08" width="10.88" height="10.88"/><rect class="cls-4" x="12.16" y="109.36" width="10.88" height="10.88"/><rect class="cls-4" x="12.16" y="12.2" width="10.88" height="10.88"/><rect class="cls-4" x="12.16" y="123.24" width="10.88" height="10.88"/><rect class="cls-4" x="12.16" y="137.12" width="10.88" height="10.88"/><rect class="cls-1" x="146.69" y="12.12" width="10.88" height="10.88"/><rect class="cls-1" x="146.69" y="26" width="10.88" height="10.88"/><rect class="cls-1" x="146.69" y="39.88" width="10.88" height="10.88"/><rect class="cls-1" x="146.69" y="53.76" width="10.88" height="10.88"/><rect class="cls-1" x="146.69" y="67.64" width="10.88" height="10.88"/><rect class="cls-1" x="146.69" y="81.52" width="10.88" height="10.88"/><rect class="cls-1" x="146.69" y="95.4" width="10.88" height="10.88"/><rect class="cls-1" x="146.69" y="109.28" width="10.88" height="10.88"/><rect class="cls-1" x="146.69" y="123.16" width="10.88" height="10.88"/><rect class="cls-1" x="146.69" y="137.04" width="10.88" height="10.88"/><rect class="cls-3" x="101.02" y="39.88" width="10.88" height="10.88"/><rect class="cls-3" x="101.02" y="53.76" width="10.88" height="10.88"/><rect class="cls-3" x="101.02" y="67.64" width="10.88" height="10.88"/><rect class="cls-3" x="101.02" y="81.52" width="10.88" height="10.88"/><rect class="cls-3" x="101.02" y="95.4" width="10.88" height="10.88"/><rect class="cls-3" x="101.02" y="109.28" width="10.88" height="10.88"/><rect class="cls-3" x="101.02" y="123.16" width="10.88" height="10.88"/><rect class="cls-3" x="101.02" y="137.04" width="10.88" height="10.88"/><rect class="cls-5" x="55.34" y="81.52" width="10.88" height="10.88"/><rect class="cls-5" x="55.34" y="67.64" width="10.88" height="10.88"/><rect class="cls-5" x="55.34" y="95.4" width="10.88" height="10.88"/><rect class="cls-5" x="55.34" y="109.28" width="10.88" height="10.88"/><rect class="cls-5" x="55.34" y="123.16" width="10.88" height="10.88"/><rect class="cls-5" x="55.34" y="137.04" width="10.88" height="10.88"/></svg>