<?xml version="1.0" encoding="UTF-8"?><svg id="Layer_1" xmlns="http://www.w3.org/2000/svg" viewBox="0 0 161.73 152.12"><defs><style>.cls-1{fill:#7f00ff;}.cls-2{fill:#00f4ff;}.cls-3{fill:red;}.cls-4{fill:#fff800;}.cls-5{stroke:#000;stroke-miterlimit:10;stroke-width:16px;}</style></defs><rect class="cls-5" x="8" y="63.55" width="11.2" height="11.17"/><rect class="cls-5" x="8" y="49.67" width="11.2" height="11.17"/><rect class="cls-5" x="8" y="77.43" width="11.2" height="11.17"/><rect class="cls-5" x="8" y="35.79" width="11.2" height="11.17"/><rect class="cls-5" x="8" y="91.31" width="11.2" height="11.17"/><rect class="cls-5" x="8" y="21.91" width="11.2" height="11.17"/><rect class="cls-5" x="8" y="105.19" width="11.2" height="11.17"/><rect class="cls-5" x="8" y="8.03" width="11.2" height="11.17"/><rect class="cls-5" x="8" y="119.07" width="11.2" height="11.17"/><rect class="cls-5" x="8" y="132.95" width="11.2" height="11.17"/><rect class="cls-5" x="142.53" y="8" width="11.2" height="11.17"/><rect class="cls-5" x="142.53" y="21.88" width="11.2" height="11.17"/><rect class="cls-5" x="142.53" y="35.76" width="11.2" height="11.17"/><rect class="cls-5" x="142.53" y="49.64" width="11.2" height="11.17"/><rect class="cls-5" x="142.53" y="63.52" width="11.2" height="11.17"/><rect class="cls-5" x="142.53" y="77.4" width="11.2" height="11.17"/><rect class="cls-5" x="142.53" y="91.28" width="11.2" height="11.17"/><rect class="cls-5" x="142.53" y="105.16" width="11.2" height="11.17"/><rect class="cls-5" x="142.53" y="119.04" width="11.2" height="11.17"/><rect class="cls-5" x="142.53" y="132.92" width="11.2" height="11.17"/><rect class="cls-5" x="96.86" y="35.76" width="11.2" height="11.17"/><rect class="cls-5" x="96.86" y="49.64" width="11.2" height="11.17"/><rect class="cls-5" x="96.86" y="63.52" width="11.2" height="11.17"/><rect class="cls-5" x="96.86" y="77.4" width="11.2" height="11.17"/><rect class="cls-5" x="96.86" y="91.28" width="11.2" height="11.17"/><rect class="cls-5" x="96.86" y="105.16" width="11.2" height="11.17"/><rect class="cls-5" x="96.86" y="119.04" width="11.2" height="11.17"/><rect class="cls-5" x="96.86" y="132.92" width="11.2" height="11.17"/><rect class="cls-5" x="51.18" y="77.4" width="11.2" height="11.17"/><rect class="cls-5" x="51.18" y="63.52" width="11.2" height="11.17"/><rect class="cls-5" x="51.18" y="91.28" width="11.2" height="11.17"/><rect class="cls-5" x="51.18" y="105.16" width="11.2" height="11.17"/><rect class="cls-5" x="51.18" y="119.04" width="11.2" height="11.17"/><rect class="cls-5" x="51.18" y="132.88" width="11.2" height="11.2"/><rect class="cls-3" x="8.16" y="63.72" width="10.88" height="10.88"/><rect class="cls-3" x="8.16" y="49.84" width="10.88" height="10.88"/><rect class="cls-3" x="8.16" y="77.6" width="10.88" height="10.88"/><rect class="cls-3" x="8.16" y="35.96" width="10.88" height="10.88"/><rect class="cls-3" x="8.16" y="91.48" width="10.88" height="10.88"/><rect class="cls-3" x="8.16" y="22.08" width="10.88" height="10.88"/><rect class="cls-3" x="8.16" y="105.36" width="10.88" height="10.88"/><rect class="cls-3" x="8.16" y="8.2" width="10.88" height="10.88"/><rect class="cls-3" x="8.16" y="119.24" width="10.88" height="10.88"/><rect class="cls-3" x="8.16" y="133.12" width="10.88" height="10.88"/><rect class="cls-1" x="142.69" y="8.12" width="10.88" height="10.88"/><rect class="cls-1" x="142.69" y="22" width="10.88" height="10.88"/><rect class="cls-1" x="142.69" y="35.88" width="10.88" height="10.88"/><rect class="cls-1" x="142.69" y="49.76" width="10.88" height="10.88"/><rect class="cls-1" x="142.69" y="63.64" width="10.88" height="10.88"/><rect class="cls-1" x="142.69" y="77.52" width="10.88" height="10.88"/><rect class="cls-1" x="142.69" y="91.4" width="10.88" height="10.88"/><rect class="cls-1" x="142.69" y="105.28" width="10.88" height="10.88"/><rect class="cls-1" x="142.69" y="119.16" width="10.88" height="10.88"/><rect class="cls-1" x="142.69" y="133.04" width="10.88" height="10.88"/><rect class="cls-2" x="97.02" y="35.88" width="10.88" height="10.88"/><rect class="cls-2" x="97.02" y="49.76" width="10.88" height="10.88"/><rect class="cls-2" x="97.02" y="63.64" width="10.88" height="10.88"/><rect class="cls-2" x="97.02" y="77.52" width="10.88" height="10.88"/><rect class="cls-2" x="97.02" y="91.4" width="10.88" height="10.88"/><rect class="cls-2" x="97.02" y="105.28" width="10.88" height="10.88"/><rect class="cls-2" x="97.02" y="119.16" width="10.88" height="10.88"/><rect class="cls-2" x="97.02" y="133.04" width="10.88" height="10.88"/><rect class="cls-4" x="51.34" y="77.52" width="10.88" height="10.88"/><rect class="cls-4" x="51.34" y="63.64" width="10.88" height="10.88"/><rect class="cls-4" x="51.34" y="91.4" width="10.88" height="10.88"/><rect class="cls-4" x="51.34" y="105.28" width="10.88" height="10.88"/><rect class="cls-4" x="51.34" y="119.16" width="10.88" height="10.88"/><rect class="cls-4" x="51.34" y="133.04" width="10.88" height="10.88"/></svg>