<?xml version="1.0" encoding="UTF-8"?><svg id="Layer_1" xmlns="http://www.w3.org/2000/svg" viewBox="0 0 155.73 146.12"><defs><style>.cls-1{fill:#7f00ff;}.cls-2{fill:#00f4ff;}.cls-3{fill:red;}.cls-4{fill:#fff800;}.cls-5{stroke:#000;stroke-miterlimit:10;stroke-width:10px;}</style></defs><rect class="cls-5" x="5" y="60.55" width="11.2" height="11.17"/><rect class="cls-5" x="5" y="46.67" width="11.2" height="11.17"/><rect class="cls-5" x="5" y="74.43" width="11.2" height="11.17"/><rect class="cls-5" x="5" y="32.79" width="11.2" height="11.17"/><rect class="cls-5" x="5" y="88.31" width="11.2" height="11.17"/><rect class="cls-5" x="5" y="18.91" width="11.2" height="11.17"/><rect class="cls-5" x="5" y="102.19" width="11.2" height="11.17"/><rect class="cls-5" x="5" y="5.03" width="11.2" height="11.17"/><rect class="cls-5" x="5" y="116.07" width="11.2" height="11.17"/><rect class="cls-5" x="5" y="129.95" width="11.2" height="11.17"/><rect class="cls-5" x="139.53" y="5" width="11.2" height="11.17"/><rect class="cls-5" x="139.53" y="18.88" width="11.2" height="11.17"/><rect class="cls-5" x="139.53" y="32.76" width="11.2" height="11.17"/><rect class="cls-5" x="139.53" y="46.64" width="11.2" height="11.17"/><rect class="cls-5" x="139.53" y="60.52" width="11.2" height="11.17"/><rect class="cls-5" x="139.53" y="74.4" width="11.2" height="11.17"/><rect class="cls-5" x="139.53" y="88.28" width="11.2" height="11.17"/><rect class="cls-5" x="139.53" y="102.16" width="11.2" height="11.17"/><rect class="cls-5" x="139.53" y="116.04" width="11.2" height="11.17"/><rect class="cls-5" x="139.53" y="129.92" width="11.2" height="11.17"/><rect class="cls-5" x="93.86" y="32.76" width="11.2" height="11.17"/><rect class="cls-5" x="93.86" y="46.64" width="11.2" height="11.17"/><rect class="cls-5" x="93.86" y="60.52" width="11.2" height="11.17"/><rect class="cls-5" x="93.86" y="74.4" width="11.2" height="11.17"/><rect class="cls-5" x="93.86" y="88.28" width="11.2" height="11.17"/><rect class="cls-5" x="93.86" y="102.16" width="11.2" height="11.17"/><rect class="cls-5" x="93.86" y="116.04" width="11.2" height="11.17"/><rect class="cls-5" x="93.86" y="129.92" width="11.2" height="11.17"/><rect class="cls-5" x="48.18" y="74.4" width="11.2" height="11.17"/><rect class="cls-5" x="48.18" y="60.52" width="11.2" height="11.17"/><rect class="cls-5" x="48.18" y="88.28" width="11.2" height="11.17"/><rect class="cls-5" x="48.18" y="102.16" width="11.2" height="11.17"/><rect class="cls-5" x="48.18" y="116.04" width="11.2" height="11.17"/><rect class="cls-5" x="48.18" y="129.88" width="11.2" height="11.2"/><rect class="cls-3" x="5.16" y="60.72" width="10.88" height="10.88"/><rect class="cls-3" x="5.16" y="46.84" width="10.88" height="10.88"/><rect class="cls-3" x="5.16" y="74.6" width="10.88" height="10.88"/><rect class="cls-3" x="5.16" y="32.96" width="10.88" height="10.88"/><rect class="cls-3" x="5.16" y="88.48" width="10.88" height="10.88"/><rect class="cls-3" x="5.16" y="19.08" width="10.88" height="10.88"/><rect class="cls-3" x="5.16" y="102.36" width="10.88" height="10.88"/><rect class="cls-3" x="5.16" y="5.2" width="10.88" height="10.88"/><rect class="cls-3" x="5.16" y="116.24" width="10.88" height="10.88"/><rect class="cls-3" x="5.16" y="130.12" width="10.88" height="10.88"/><rect class="cls-1" x="139.69" y="5.12" width="10.88" height="10.88"/><rect class="cls-1" x="139.69" y="19" width="10.88" height="10.88"/><rect class="cls-1" x="139.69" y="32.88" width="10.88" height="10.88"/><rect class="cls-1" x="139.69" y="46.76" width="10.88" height="10.88"/><rect class="cls-1" x="139.69" y="60.64" width="10.88" height="10.88"/><rect class="cls-1" x="139.69" y="74.52" width="10.88" height="10.88"/><rect class="cls-1" x="139.69" y="88.4" width="10.88" height="10.88"/><rect class="cls-1" x="139.69" y="102.28" width="10.88" height="10.88"/><rect class="cls-1" x="139.69" y="116.16" width="10.88" height="10.88"/><rect class="cls-1" x="139.69" y="130.04" width="10.88" height="10.88"/><rect class="cls-2" x="94.02" y="32.88" width="10.88" height="10.88"/><rect class="cls-2" x="94.02" y="46.76" width="10.88" height="10.88"/><rect class="cls-2" x="94.02" y="60.64" width="10.88" height="10.88"/><rect class="cls-2" x="94.02" y="74.52" width="10.88" height="10.88"/><rect class="cls-2" x="94.02" y="88.4" width="10.88" height="10.88"/><rect class="cls-2" x="94.02" y="102.28" width="10.88" height="10.88"/><rect class="cls-2" x="94.02" y="116.16" width="10.88" height="10.88"/><rect class="cls-2" x="94.02" y="130.04" width="10.88" height="10.88"/><rect class="cls-4" x="48.34" y="74.52" width="10.88" height="10.88"/><rect class="cls-4" x="48.34" y="60.64" width="10.88" height="10.88"/><rect class="cls-4" x="48.34" y="88.4" width="10.88" height="10.88"/><rect class="cls-4" x="48.34" y="102.28" width="10.88" height="10.88"/><rect class="cls-4" x="48.34" y="116.16" width="10.88" height="10.88"/><rect class="cls-4" x="48.34" y="130.04" width="10.88" height="10.88"/></svg>