<?xml version="1.0" encoding="UTF-8"?><svg id="Layer_1" xmlns="http://www.w3.org/2000/svg" viewBox="0 0 151.73 142.12"><defs><style>.cls-1{fill:#7f00ff;}.cls-2{fill:#00f4ff;}.cls-3{fill:red;}.cls-4{fill:#fff800;}.cls-5{stroke:#000;stroke-miterlimit:10;stroke-width:6px;}</style></defs><rect class="cls-5" x="3" y="58.55" width="11.2" height="11.17"/><rect class="cls-5" x="3" y="44.67" width="11.2" height="11.17"/><rect class="cls-5" x="3" y="72.43" width="11.2" height="11.17"/><rect class="cls-5" x="3" y="30.79" width="11.2" height="11.17"/><rect class="cls-5" x="3" y="86.31" width="11.2" height="11.17"/><rect class="cls-5" x="3" y="16.91" width="11.2" height="11.17"/><rect class="cls-5" x="3" y="100.19" width="11.2" height="11.17"/><rect class="cls-5" x="3" y="3.03" width="11.2" height="11.17"/><rect class="cls-5" x="3" y="114.07" width="11.2" height="11.17"/><rect class="cls-5" x="3" y="127.95" width="11.2" height="11.17"/><rect class="cls-5" x="137.53" y="3" width="11.2" height="11.17"/><rect class="cls-5" x="137.53" y="16.88" width="11.2" height="11.17"/><rect class="cls-5" x="137.53" y="30.76" width="11.2" height="11.17"/><rect class="cls-5" x="137.53" y="44.64" width="11.2" height="11.17"/><rect class="cls-5" x="137.53" y="58.52" width="11.2" height="11.17"/><rect class="cls-5" x="137.53" y="72.4" width="11.2" height="11.17"/><rect class="cls-5" x="137.53" y="86.28" width="11.2" height="11.17"/><rect class="cls-5" x="137.53" y="100.16" width="11.2" height="11.17"/><rect class="cls-5" x="137.53" y="114.04" width="11.2" height="11.17"/><rect class="cls-5" x="137.53" y="127.92" width="11.2" height="11.17"/><rect class="cls-5" x="91.86" y="30.76" width="11.2" height="11.17"/><rect class="cls-5" x="91.86" y="44.64" width="11.2" height="11.17"/><rect class="cls-5" x="91.86" y="58.52" width="11.2" height="11.17"/><rect class="cls-5" x="91.86" y="72.4" width="11.2" height="11.17"/><rect class="cls-5" x="91.86" y="86.28" width="11.2" height="11.17"/><rect class="cls-5" x="91.86" y="100.16" width="11.2" height="11.17"/><rect class="cls-5" x="91.86" y="114.04" width="11.2" height="11.17"/><rect class="cls-5" x="91.86" y="127.92" width="11.2" height="11.17"/><rect class="cls-5" x="46.18" y="72.4" width="11.2" height="11.17"/><rect class="cls-5" x="46.18" y="58.52" width="11.2" height="11.17"/><rect class="cls-5" x="46.18" y="86.28" width="11.2" height="11.17"/><rect class="cls-5" x="46.18" y="100.16" width="11.2" height="11.17"/><rect class="cls-5" x="46.18" y="114.04" width="11.2" height="11.17"/><rect class="cls-5" x="46.18" y="127.88" width="11.2" height="11.2"/><rect class="cls-3" x="3.16" y="58.72" width="10.88" height="10.88"/><rect class="cls-3" x="3.16" y="44.84" width="10.88" height="10.88"/><rect class="cls-3" x="3.16" y="72.6" width="10.88" height="10.88"/><rect class="cls-3" x="3.16" y="30.96" width="10.88" height="10.88"/><rect class="cls-3" x="3.16" y="86.48" width="10.88" height="10.88"/><rect class="cls-3" x="3.16" y="17.08" width="10.88" height="10.88"/><rect class="cls-3" x="3.16" y="100.36" width="10.88" height="10.88"/><rect class="cls-3" x="3.16" y="3.2" width="10.88" height="10.88"/><rect class="cls-3" x="3.16" y="114.24" width="10.88" height="10.88"/><rect class="cls-3" x="3.16" y="128.12" width="10.88" height="10.88"/><rect class="cls-1" x="137.69" y="3.12" width="10.88" height="10.88"/><rect class="cls-1" x="137.69" y="17" width="10.88" height="10.88"/><rect class="cls-1" x="137.69" y="30.88" width="10.88" height="10.88"/><rect class="cls-1" x="137.69" y="44.76" width="10.88" height="10.88"/><rect class="cls-1" x="137.69" y="58.64" width="10.88" height="10.88"/><rect class="cls-1" x="137.69" y="72.52" width="10.88" height="10.88"/><rect class="cls-1" x="137.69" y="86.4" width="10.88" height="10.88"/><rect class="cls-1" x="137.69" y="100.28" width="10.88" height="10.88"/><rect class="cls-1" x="137.69" y="114.16" width="10.88" height="10.88"/><rect class="cls-1" x="137.69" y="128.04" width="10.88" height="10.88"/><rect class="cls-2" x="92.02" y="30.88" width="10.88" height="10.88"/><rect class="cls-2" x="92.02" y="44.76" width="10.88" height="10.88"/><rect class="cls-2" x="92.02" y="58.64" width="10.88" height="10.88"/><rect class="cls-2" x="92.02" y="72.52" width="10.88" height="10.88"/><rect class="cls-2" x="92.02" y="86.4" width="10.88" height="10.88"/><rect class="cls-2" x="92.02" y="100.28" width="10.88" height="10.88"/><rect class="cls-2" x="92.02" y="114.16" width="10.88" height="10.88"/><rect class="cls-2" x="92.02" y="128.04" width="10.88" height="10.88"/><rect class="cls-4" x="46.34" y="72.52" width="10.88" height="10.88"/><rect class="cls-4" x="46.34" y="58.64" width="10.88" height="10.88"/><rect class="cls-4" x="46.34" y="86.4" width="10.88" height="10.88"/><rect class="cls-4" x="46.34" y="100.28" width="10.88" height="10.88"/><rect class="cls-4" x="46.34" y="114.16" width="10.88" height="10.88"/><rect class="cls-4" x="46.34" y="128.04" width="10.88" height="10.88"/></svg>