<svg width="800" height="800" viewBox="0 0 800 800" xmlns="http://www.w3.org/2000/svg"><g transform="translate(352.47, 371.16) scale(1.29004)"><polyline points="104.61,0.00 150.01,0.00 198.15,48.15" fill="none" stroke="#000000" stroke-width="22" stroke-linejoin="round" stroke-linecap="round"/><polyline points="104.61,7.84 207.44,15.55 324.68,-85.35" fill="none" stroke="#000000" stroke-width="22" stroke-linejoin="round" stroke-linecap="round"/><polyline points="104.61,15.77 212.73,32.06 310.11,164.02" fill="none" stroke="#000000" stroke-width="22" stroke-linejoin="round" stroke-linecap="round"/><polyline points="104.61,23.88 172.03,39.26 259.86,-15.92" fill="none" stroke="#000000" stroke-width="22" stroke-linejoin="round" stroke-linecap="round"/><polyline points="104.61,32.27 170.75,52.67 219.25,144.45" fill="none" stroke="#000000" stroke-width="22" stroke-linejoin="round" stroke-linecap="round"/><polyline points="104.61,41.06 151.19,59.34 219.98,29.32" fill="none" stroke="#000000" stroke-width="22" stroke-linejoin="round" stroke-linecap="round"/><polyline points="104.61,50.38 152.30,73.34 178.51,148.27" fill="none" stroke="#000000" stroke-width="22" stroke-linejoin="round" stroke-linecap="round"/><polyline points="104.61,60.40 153.69,88.73 235.79,66.73" fill="none" stroke="#000000" stroke-width="22" stroke-linejoin="round" stroke-linecap="round"/><polyline points="104.61,71.32 182.43,124.38 208.69,263.19" fill="none" stroke="#000000" stroke-width="22" stroke-linejoin="round" stroke-linecap="round"/><polyline points="104.61,83.43 157.25,125.41 257.61,114.10" fill="none" stroke="#000000" stroke-width="22" stroke-linejoin="round" stroke-linecap="round"/><polyline points="104.61,97.07 174.99,162.37 180.38,306.28" fill="none" stroke="#000000" stroke-width="22" stroke-linejoin="round" stroke-linecap="round"/><polyline points="97.07,104.61 151.75,163.55 272.27,168.06" fill="none" stroke="#000000" stroke-width="22" stroke-linejoin="round" stroke-linecap="round"/><polyline points="83.43,104.61 109.33,137.09 102.35,199.02" fill="none" stroke="#000000" stroke-width="22" stroke-linejoin="round" stroke-linecap="round"/><polyline points="71.32,104.61 96.99,142.25 164.13,154.96" fill="none" stroke="#000000" stroke-width="22" stroke-linejoin="round" stroke-linecap="round"/><polyline points="60.40,104.61 89.45,154.93 66.89,239.12" fill="none" stroke="#000000" stroke-width="22" stroke-linejoin="round" stroke-linecap="round"/><polyline points="50.38,104.61 69.97,145.30 133.91,167.67" fill="none" stroke="#000000" stroke-width="22" stroke-linejoin="round" stroke-linecap="round"/><polyline points="41.06,104.61 57.45,146.39 30.53,208.09" fill="none" stroke="#000000" stroke-width="22" stroke-linejoin="round" stroke-linecap="round"/><polyline points="32.27,104.61 57.39,186.04 170.39,245.76" fill="none" stroke="#000000" stroke-width="22" stroke-linejoin="round" stroke-linecap="round"/><polyline points="23.88,104.61 42.89,187.90 -25.29,296.41" fill="none" stroke="#000000" stroke-width="22" stroke-linejoin="round" stroke-linecap="round"/><polyline points="15.77,104.61 20.05,133.05 54.77,158.67" fill="none" stroke="#000000" stroke-width="22" stroke-linejoin="round" stroke-linecap="round"/><polyline points="7.84,104.61 9.23,123.20 -9.00,144.39" fill="none" stroke="#000000" stroke-width="22" stroke-linejoin="round" stroke-linecap="round"/><polyline points="0.00,104.61 0.00,166.45 65.59,232.04" fill="none" stroke="#000000" stroke-width="22" stroke-linejoin="round" stroke-linecap="round"/><polyline points="-7.84,104.61 -13.50,180.09 -99.55,254.14" fill="none" stroke="#000000" stroke-width="22" stroke-linejoin="round" stroke-linecap="round"/><polyline points="-15.77,104.61 -21.73,144.19 13.92,192.50" fill="none" stroke="#000000" stroke-width="22" stroke-linejoin="round" stroke-linecap="round"/><polyline points="-23.88,104.61 -27.77,121.69 -50.01,135.66" fill="none" stroke="#000000" stroke-width="22" stroke-linejoin="round" stroke-linecap="round"/><polyline points="-32.27,104.61 -45.77,148.39 -13.66,209.15" fill="none" stroke="#000000" stroke-width="22" stroke-linejoin="round" stroke-linecap="round"/><polyline points="-41.06,104.61 -58.78,149.77 -125.47,178.87" fill="none" stroke="#000000" stroke-width="22" stroke-linejoin="round" stroke-linecap="round"/><polyline points="-50.38,104.61 -61.50,127.70 -48.80,163.98" fill="none" stroke="#000000" stroke-width="22" stroke-linejoin="round" stroke-linecap="round"/><polyline points="-60.40,104.61 -73.32,126.99 -110.75,137.02" fill="none" stroke="#000000" stroke-width="22" stroke-linejoin="round" stroke-linecap="round"/><polyline points="-71.32,104.61 -85.45,125.34 -78.46,162.30" fill="none" stroke="#000000" stroke-width="22" stroke-linejoin="round" stroke-linecap="round"/><polyline points="-83.43,104.61 -107.54,134.85 -165.18,141.34" fill="none" stroke="#000000" stroke-width="22" stroke-linejoin="round" stroke-linecap="round"/><polyline points="-97.07,104.61 -132.53,142.83 -129.61,220.99" fill="none" stroke="#000000" stroke-width="22" stroke-linejoin="round" stroke-linecap="round"/><polyline points="-104.61,97.07 -145.11,134.65 -227.93,131.55" fill="none" stroke="#000000" stroke-width="22" stroke-linejoin="round" stroke-linecap="round"/><polyline points="-104.61,83.43 -133.49,106.45 -139.69,161.50" fill="none" stroke="#000000" stroke-width="22" stroke-linejoin="round" stroke-linecap="round"/><polyline points="-104.61,71.32 -125.93,85.86 -163.96,78.66" fill="none" stroke="#000000" stroke-width="22" stroke-linejoin="round" stroke-linecap="round"/><polyline points="-104.61,60.40 -125.70,72.57 -135.15,107.85" fill="none" stroke="#000000" stroke-width="22" stroke-linejoin="round" stroke-linecap="round"/><polyline points="-104.61,50.38 -127.39,61.35 -163.17,48.82" fill="none" stroke="#000000" stroke-width="22" stroke-linejoin="round" stroke-linecap="round"/><polyline points="-104.61,41.06 -148.99,58.47 -177.58,124.01" fill="none" stroke="#000000" stroke-width="22" stroke-linejoin="round" stroke-linecap="round"/><polyline points="-104.61,32.27 -145.41,44.85 -202.03,14.93" fill="none" stroke="#000000" stroke-width="22" stroke-linejoin="round" stroke-linecap="round"/><polyline points="-104.61,23.88 -130.79,29.85 -152.23,63.96" fill="none" stroke="#000000" stroke-width="22" stroke-linejoin="round" stroke-linecap="round"/><polyline points="-104.61,15.77 -130.39,19.65 -161.86,-3.57" fill="none" stroke="#000000" stroke-width="22" stroke-linejoin="round" stroke-linecap="round"/><polyline points="-104.61,7.84 -154.98,11.61 -204.39,69.03" fill="none" stroke="#000000" stroke-width="22" stroke-linejoin="round" stroke-linecap="round"/><polyline points="-104.61,0.00 -156.30,0.00 -211.12,-54.82" fill="none" stroke="#000000" stroke-width="22" stroke-linejoin="round" stroke-linecap="round"/><polyline points="-104.61,-7.84 -150.05,-11.24 -201.86,33.34" fill="none" stroke="#000000" stroke-width="22" stroke-linejoin="round" stroke-linecap="round"/><polyline points="-104.61,-15.77 -143.71,-21.66 -178.93,-69.38" fill="none" stroke="#000000" stroke-width="22" stroke-linejoin="round" stroke-linecap="round"/><polyline points="-104.61,-23.88 -161.74,-36.92 -236.16,9.84" fill="none" stroke="#000000" stroke-width="22" stroke-linejoin="round" stroke-linecap="round"/><polyline points="-104.61,-32.27 -147.73,-45.57 -179.35,-105.40" fill="none" stroke="#000000" stroke-width="22" stroke-linejoin="round" stroke-linecap="round"/><polyline points="-104.61,-41.06 -151.94,-59.63 -221.83,-29.14" fill="none" stroke="#000000" stroke-width="22" stroke-linejoin="round" stroke-linecap="round"/><polyline points="-104.61,-50.38 -162.87,-78.43 -194.90,-169.97" fill="none" stroke="#000000" stroke-width="22" stroke-linejoin="round" stroke-linecap="round"/><polyline points="-104.61,-60.40 -145.51,-84.01 -213.93,-65.68" fill="none" stroke="#000000" stroke-width="22" stroke-linejoin="round" stroke-linecap="round"/><polyline points="-104.61,-71.32 -170.01,-115.91 -192.08,-232.57" fill="none" stroke="#000000" stroke-width="22" stroke-linejoin="round" stroke-linecap="round"/><polyline points="-104.61,-83.43 -146.59,-116.90 -226.61,-107.88" fill="none" stroke="#000000" stroke-width="22" stroke-linejoin="round" stroke-linecap="round"/><polyline points="-104.61,-97.07 -146.62,-136.04 -149.83,-221.94" fill="none" stroke="#000000" stroke-width="22" stroke-linejoin="round" stroke-linecap="round"/><polyline points="-97.07,-104.61 -145.48,-156.79 -252.17,-160.78" fill="none" stroke="#000000" stroke-width="22" stroke-linejoin="round" stroke-linecap="round"/><polyline points="-83.43,-104.61 -117.36,-147.17 -108.22,-228.29" fill="none" stroke="#000000" stroke-width="22" stroke-linejoin="round" stroke-linecap="round"/><polyline points="-71.32,-104.61 -110.68,-162.33 -213.63,-181.81" fill="none" stroke="#000000" stroke-width="22" stroke-linejoin="round" stroke-linecap="round"/><polyline points="-60.40,-104.61 -90.38,-156.55 -67.10,-243.45" fill="none" stroke="#000000" stroke-width="22" stroke-linejoin="round" stroke-linecap="round"/><polyline points="-50.38,-104.61 -76.73,-159.34 -162.73,-189.43" fill="none" stroke="#000000" stroke-width="22" stroke-linejoin="round" stroke-linecap="round"/><polyline points="-41.06,-104.61 -66.09,-168.40 -24.99,-262.61" fill="none" stroke="#000000" stroke-width="22" stroke-linejoin="round" stroke-linecap="round"/><polyline points="-32.27,-104.61 -50.75,-164.52 -133.89,-208.47" fill="none" stroke="#000000" stroke-width="22" stroke-linejoin="round" stroke-linecap="round"/><polyline points="-23.88,-104.61 -39.46,-172.88 16.42,-261.80" fill="none" stroke="#000000" stroke-width="22" stroke-linejoin="round" stroke-linecap="round"/><polyline points="-15.77,-104.61 -23.57,-156.37 -86.74,-202.99" fill="none" stroke="#000000" stroke-width="22" stroke-linejoin="round" stroke-linecap="round"/><polyline points="-7.84,-104.61 -11.12,-148.33 31.78,-198.18" fill="none" stroke="#000000" stroke-width="22" stroke-linejoin="round" stroke-linecap="round"/><polyline points="-0.00,-104.61 -0.00,-137.41 -34.79,-172.20" fill="none" stroke="#000000" stroke-width="22" stroke-linejoin="round" stroke-linecap="round"/><polyline points="7.84,-104.61 9.84,-131.31 40.28,-157.51" fill="none" stroke="#000000" stroke-width="22" stroke-linejoin="round" stroke-linecap="round"/><polyline points="15.77,-104.61 20.14,-133.64 -6.01,-169.07" fill="none" stroke="#000000" stroke-width="22" stroke-linejoin="round" stroke-linecap="round"/><polyline points="23.88,-104.61 30.45,-133.42 67.98,-157.01" fill="none" stroke="#000000" stroke-width="22" stroke-linejoin="round" stroke-linecap="round"/><polyline points="32.27,-104.61 40.98,-132.85 20.27,-172.03" fill="none" stroke="#000000" stroke-width="22" stroke-linejoin="round" stroke-linecap="round"/><polyline points="41.06,-104.61 53.28,-135.76 99.28,-155.83" fill="none" stroke="#000000" stroke-width="22" stroke-linejoin="round" stroke-linecap="round"/><polyline points="50.38,-104.61 68.73,-142.73 47.78,-202.62" fill="none" stroke="#000000" stroke-width="22" stroke-linejoin="round" stroke-linecap="round"/><polyline points="60.40,-104.61 82.20,-142.37 145.37,-159.30" fill="none" stroke="#000000" stroke-width="22" stroke-linejoin="round" stroke-linecap="round"/><polyline points="71.32,-104.61 97.49,-143.00 84.54,-211.47" fill="none" stroke="#000000" stroke-width="22" stroke-linejoin="round" stroke-linecap="round"/><polyline points="83.43,-104.61 115.02,-144.23 190.56,-152.74" fill="none" stroke="#000000" stroke-width="22" stroke-linejoin="round" stroke-linecap="round"/><polyline points="97.07,-104.61 127.33,-137.23 124.84,-203.93" fill="none" stroke="#000000" stroke-width="22" stroke-linejoin="round" stroke-linecap="round"/><polyline points="104.61,-97.07 147.57,-136.93 235.42,-133.64" fill="none" stroke="#000000" stroke-width="22" stroke-linejoin="round" stroke-linecap="round"/><polyline points="104.61,-83.43 168.37,-134.27 182.06,-255.82" fill="none" stroke="#000000" stroke-width="22" stroke-linejoin="round" stroke-linecap="round"/><polyline points="104.61,-71.32 166.21,-113.32 276.08,-92.53" fill="none" stroke="#000000" stroke-width="22" stroke-linejoin="round" stroke-linecap="round"/><polyline points="104.61,-60.40 184.68,-106.62 220.57,-240.58" fill="none" stroke="#000000" stroke-width="22" stroke-linejoin="round" stroke-linecap="round"/><polyline points="104.61,-50.38 168.10,-80.95 267.87,-46.04" fill="none" stroke="#000000" stroke-width="22" stroke-linejoin="round" stroke-linecap="round"/><polyline points="104.61,-41.06 158.03,-62.02 192.45,-140.92" fill="none" stroke="#000000" stroke-width="22" stroke-linejoin="round" stroke-linecap="round"/><polyline points="104.61,-32.27 150.64,-46.47 214.52,-12.71" fill="none" stroke="#000000" stroke-width="22" stroke-linejoin="round" stroke-linecap="round"/><polyline points="104.61,-23.88 154.35,-35.23 195.07,-100.03" fill="none" stroke="#000000" stroke-width="22" stroke-linejoin="round" stroke-linecap="round"/><polyline points="104.61,-15.77 159.02,-23.97 225.43,25.04" fill="none" stroke="#000000" stroke-width="22" stroke-linejoin="round" stroke-linecap="round"/><polyline points="104.61,-7.84 167.02,-12.52 228.25,-83.67" fill="none" stroke="#000000" stroke-width="22" stroke-linejoin="round" stroke-linecap="round"/><rect x="-112.61" y="-112.61" width="225.23" height="225.23" rx="20.00" fill="#000000"/><circle cx="198.15" cy="48.15" r="19.76" fill="#000000"/><circle cx="324.68" cy="-85.35" r="22.23" fill="#000000"/><circle cx="310.11" cy="164.02" r="22.43" fill="#000000"/><circle cx="259.86" cy="-15.92" r="20.97" fill="#000000"/><circle cx="219.25" cy="144.45" r="20.97" fill="#000000"/><circle cx="219.98" cy="29.32" r="20.03" fill="#000000"/><circle cx="178.51" cy="148.27" r="20.19" fill="#000000"/><circle cx="235.79" cy="66.73" r="20.39" fill="#000000"/><circle cx="208.69" cy="263.19" r="21.93" fill="#000000"/><circle cx="257.61" cy="114.10" r="20.89" fill="#000000"/><circle cx="180.38" cy="306.28" r="21.99" fill="#000000"/><circle cx="272.27" cy="168.06" r="21.43" fill="#000000"/><circle cx="102.35" cy="199.02" r="19.52" fill="#000000"/><circle cx="164.13" cy="154.96" r="19.77" fill="#000000"/><circle cx="66.89" cy="239.12" r="20.46" fill="#000000"/><circle cx="133.91" cy="167.67" r="19.75" fill="#000000"/><circle cx="30.53" cy="208.09" r="19.73" fill="#000000"/><circle cx="170.39" cy="245.76" r="21.61" fill="#000000"/><circle cx="-25.29" cy="296.41" r="21.62" fill="#000000"/><circle cx="54.77" cy="158.67" r="18.52" fill="#000000"/><circle cx="-9.00" cy="144.39" r="17.22" fill="#000000"/><circle cx="65.59" cy="232.04" r="20.64" fill="#000000"/><circle cx="-99.55" cy="254.14" r="21.24" fill="#000000"/><circle cx="13.92" cy="192.50" r="19.42" fill="#000000"/><circle cx="-50.01" cy="135.66" r="16.98" fill="#000000"/><circle cx="-13.66" cy="209.15" r="19.79" fill="#000000"/><circle cx="-125.47" cy="178.87" r="19.95" fill="#000000"/><circle cx="-48.80" cy="163.98" r="18.20" fill="#000000"/><circle cx="-110.75" cy="137.02" r="18.22" fill="#000000"/><circle cx="-78.46" cy="162.30" r="18.14" fill="#000000"/><circle cx="-165.18" cy="141.34" r="19.33" fill="#000000"/><circle cx="-129.61" cy="220.99" r="20.15" fill="#000000"/><circle cx="-227.93" cy="131.55" r="20.31" fill="#000000"/><circle cx="-139.69" cy="161.50" r="19.20" fill="#000000"/><circle cx="-163.96" cy="78.66" r="18.22" fill="#000000"/><circle cx="-135.15" cy="107.85" r="18.06" fill="#000000"/><circle cx="-163.17" cy="48.82" r="18.16" fill="#000000"/><circle cx="-177.58" cy="124.01" r="19.90" fill="#000000"/><circle cx="-202.03" cy="14.93" r="19.60" fill="#000000"/><circle cx="-152.23" cy="63.96" r="18.33" fill="#000000"/><circle cx="-161.86" cy="-3.57" r="18.25" fill="#000000"/><circle cx="-204.39" cy="69.03" r="20.06" fill="#000000"/><circle cx="-211.12" cy="-54.82" r="20.13" fill="#000000"/><circle cx="-201.86" cy="33.34" r="19.77" fill="#000000"/><circle cx="-178.93" cy="-69.38" r="19.39" fill="#000000"/><circle cx="-236.16" cy="9.84" r="20.48" fill="#000000"/><circle cx="-179.35" cy="-105.40" r="19.75" fill="#000000"/><circle cx="-221.83" cy="-29.14" r="20.08" fill="#000000"/><circle cx="-194.90" cy="-169.97" r="20.77" fill="#000000"/><circle cx="-213.93" cy="-65.68" r="19.87" fill="#000000"/><circle cx="-192.08" cy="-232.57" r="21.38" fill="#000000"/><circle cx="-226.61" cy="-107.88" r="20.23" fill="#000000"/><circle cx="-149.83" cy="-221.94" r="20.42" fill="#000000"/><circle cx="-252.17" cy="-160.78" r="21.06" fill="#000000"/><circle cx="-108.22" cy="-228.29" r="20.27" fill="#000000"/><circle cx="-213.63" cy="-181.81" r="21.00" fill="#000000"/><circle cx="-67.10" cy="-243.45" r="20.55" fill="#000000"/><circle cx="-162.73" cy="-189.43" r="20.59" fill="#000000"/><circle cx="-24.99" cy="-262.61" r="20.94" fill="#000000"/><circle cx="-133.89" cy="-208.47" r="20.68" fill="#000000"/><circle cx="16.42" cy="-261.80" r="21.01" fill="#000000"/><circle cx="-86.74" cy="-202.99" r="20.16" fill="#000000"/><circle cx="31.78" cy="-198.18" r="19.67" fill="#000000"/><circle cx="-34.79" cy="-172.20" r="18.88" fill="#000000"/><circle cx="40.28" cy="-157.51" r="18.32" fill="#000000"/><circle cx="-6.01" cy="-169.07" r="18.58" fill="#000000"/><circle cx="67.98" cy="-157.01" r="18.60" fill="#000000"/><circle cx="20.27" cy="-172.03" r="18.60" fill="#000000"/><circle cx="99.28" cy="-155.83" r="18.93" fill="#000000"/><circle cx="47.78" cy="-202.62" r="19.57" fill="#000000"/><circle cx="145.37" cy="-159.30" r="19.65" fill="#000000"/><circle cx="84.54" cy="-211.47" r="19.83" fill="#000000"/><circle cx="190.56" cy="-152.74" r="20.07" fill="#000000"/><circle cx="124.84" cy="-203.93" r="19.71" fill="#000000"/><circle cx="235.42" cy="-133.64" r="20.48" fill="#000000"/><circle cx="182.06" cy="-255.82" r="21.47" fill="#000000"/><circle cx="276.08" cy="-92.53" r="21.20" fill="#000000"/><circle cx="220.57" cy="-240.58" r="21.87" fill="#000000"/><circle cx="267.87" cy="-46.04" r="21.02" fill="#000000"/><circle cx="192.45" cy="-140.92" r="20.42" fill="#000000"/><circle cx="214.52" cy="-12.71" r="19.93" fill="#000000"/><circle cx="195.07" cy="-100.03" r="20.09" fill="#000000"/><circle cx="225.43" cy="25.04" r="20.30" fill="#000000"/><circle cx="228.25" cy="-83.67" r="20.67" fill="#000000"/><polyline points="104.61,0.00 150.01,0.00 198.15,48.15" fill="none" stroke="#ff2626" stroke-width="6.00" stroke-linejoin="round" stroke-linecap="round"/><polyline points="104.61,7.84 207.44,15.55 324.68,-85.35" fill="none" stroke="#ff3526" stroke-width="6.00" stroke-linejoin="round" stroke-linecap="round"/><polyline points="104.61,15.77 212.73,32.06 310.11,164.02" fill="none" stroke="#ff4526" stroke-width="6.00" stroke-linejoin="round" stroke-linecap="round"/><polyline points="104.61,23.88 172.03,39.26 259.86,-15.92" fill="none" stroke="#ff5426" stroke-width="6.00" stroke-linejoin="round" stroke-linecap="round"/><polyline points="104.61,32.27 170.75,52.67 219.25,144.45" fill="none" stroke="#ff6426" stroke-width="6.00" stroke-linejoin="round" stroke-linecap="round"/><polyline points="104.61,41.06 151.19,59.34 219.98,29.32" fill="none" stroke="#ff7326" stroke-width="6.00" stroke-linejoin="round" stroke-linecap="round"/><polyline points="104.61,50.38 152.30,73.34 178.51,148.27" fill="none" stroke="#ff8326" stroke-width="6.00" stroke-linejoin="round" stroke-linecap="round"/><polyline points="104.61,60.40 153.69,88.73 235.79,66.73" fill="none" stroke="#ff9226" stroke-width="6.00" stroke-linejoin="round" stroke-linecap="round"/><polyline points="104.61,71.32 182.43,124.38 208.69,263.19" fill="none" stroke="#ffa226" stroke-width="6.00" stroke-linejoin="round" stroke-linecap="round"/><polyline points="104.61,83.43 157.25,125.41 257.61,114.10" fill="none" stroke="#ffb126" stroke-width="6.00" stroke-linejoin="round" stroke-linecap="round"/><polyline points="104.61,97.07 174.99,162.37 180.38,306.28" fill="none" stroke="#ffc126" stroke-width="6.00" stroke-linejoin="round" stroke-linecap="round"/><polyline points="97.07,104.61 151.75,163.55 272.27,168.06" fill="none" stroke="#ffd026" stroke-width="6.00" stroke-linejoin="round" stroke-linecap="round"/><polyline points="83.43,104.61 109.33,137.09 102.35,199.02" fill="none" stroke="#ffe026" stroke-width="6.00" stroke-linejoin="round" stroke-linecap="round"/><polyline points="71.32,104.61 96.99,142.25 164.13,154.96" fill="none" stroke="#ffef26" stroke-width="6.00" stroke-linejoin="round" stroke-linecap="round"/><polyline points="60.40,104.61 89.45,154.93 66.89,239.12" fill="none" stroke="#ffff26" stroke-width="6.00" stroke-linejoin="round" stroke-linecap="round"/><polyline points="50.38,104.61 69.97,145.30 133.91,167.67" fill="none" stroke="#efff26" stroke-width="6.00" stroke-linejoin="round" stroke-linecap="round"/><polyline points="41.06,104.61 57.45,146.39 30.53,208.09" fill="none" stroke="#e0ff26" stroke-width="6.00" stroke-linejoin="round" stroke-linecap="round"/><polyline points="32.27,104.61 57.39,186.04 170.39,245.76" fill="none" stroke="#d0ff26" stroke-width="6.00" stroke-linejoin="round" stroke-linecap="round"/><polyline points="23.88,104.61 42.89,187.90 -25.29,296.41" fill="none" stroke="#c1ff26" stroke-width="6.00" stroke-linejoin="round" stroke-linecap="round"/><polyline points="15.77,104.61 20.05,133.05 54.77,158.67" fill="none" stroke="#b1ff26" stroke-width="6.00" stroke-linejoin="round" stroke-linecap="round"/><polyline points="7.84,104.61 9.23,123.20 -9.00,144.39" fill="none" stroke="#a2ff26" stroke-width="6.00" stroke-linejoin="round" stroke-linecap="round"/><polyline points="0.00,104.61 0.00,166.45 65.59,232.04" fill="none" stroke="#92ff26" stroke-width="6.00" stroke-linejoin="round" stroke-linecap="round"/><polyline points="-7.84,104.61 -13.50,180.09 -99.55,254.14" fill="none" stroke="#83ff26" stroke-width="6.00" stroke-linejoin="round" stroke-linecap="round"/><polyline points="-15.77,104.61 -21.73,144.19 13.92,192.50" fill="none" stroke="#73ff26" stroke-width="6.00" stroke-linejoin="round" stroke-linecap="round"/><polyline points="-23.88,104.61 -27.77,121.69 -50.01,135.66" fill="none" stroke="#64ff26" stroke-width="6.00" stroke-linejoin="round" stroke-linecap="round"/><polyline points="-32.27,104.61 -45.77,148.39 -13.66,209.15" fill="none" stroke="#54ff26" stroke-width="6.00" stroke-linejoin="round" stroke-linecap="round"/><polyline points="-41.06,104.61 -58.78,149.77 -125.47,178.87" fill="none" stroke="#45ff26" stroke-width="6.00" stroke-linejoin="round" stroke-linecap="round"/><polyline points="-50.38,104.61 -61.50,127.70 -48.80,163.98" fill="none" stroke="#35ff26" stroke-width="6.00" stroke-linejoin="round" stroke-linecap="round"/><polyline points="-60.40,104.61 -73.32,126.99 -110.75,137.02" fill="none" stroke="#26ff26" stroke-width="6.00" stroke-linejoin="round" stroke-linecap="round"/><polyline points="-71.32,104.61 -85.45,125.34 -78.46,162.30" fill="none" stroke="#26ff35" stroke-width="6.00" stroke-linejoin="round" stroke-linecap="round"/><polyline points="-83.43,104.61 -107.54,134.85 -165.18,141.34" fill="none" stroke="#26ff45" stroke-width="6.00" stroke-linejoin="round" stroke-linecap="round"/><polyline points="-97.07,104.61 -132.53,142.83 -129.61,220.99" fill="none" stroke="#26ff54" stroke-width="6.00" stroke-linejoin="round" stroke-linecap="round"/><polyline points="-104.61,97.07 -145.11,134.65 -227.93,131.55" fill="none" stroke="#26ff64" stroke-width="6.00" stroke-linejoin="round" stroke-linecap="round"/><polyline points="-104.61,83.43 -133.49,106.45 -139.69,161.50" fill="none" stroke="#26ff73" stroke-width="6.00" stroke-linejoin="round" stroke-linecap="round"/><polyline points="-104.61,71.32 -125.93,85.86 -163.96,78.66" fill="none" stroke="#26ff83" stroke-width="6.00" stroke-linejoin="round" stroke-linecap="round"/><polyline points="-104.61,60.40 -125.70,72.57 -135.15,107.85" fill="none" stroke="#26ff92" stroke-width="6.00" stroke-linejoin="round" stroke-linecap="round"/><polyline points="-104.61,50.38 -127.39,61.35 -163.17,48.82" fill="none" stroke="#26ffa2" stroke-width="6.00" stroke-linejoin="round" stroke-linecap="round"/><polyline points="-104.61,41.06 -148.99,58.47 -177.58,124.01" fill="none" stroke="#26ffb1" stroke-width="6.00" stroke-linejoin="round" stroke-linecap="round"/><polyline points="-104.61,32.27 -145.41,44.85 -202.03,14.93" fill="none" stroke="#26ffc1" stroke-width="6.00" stroke-linejoin="round" stroke-linecap="round"/><polyline points="-104.61,23.88 -130.79,29.85 -152.23,63.96" fill="none" stroke="#26ffd0" stroke-width="6.00" stroke-linejoin="round" stroke-linecap="round"/><polyline points="-104.61,15.77 -130.39,19.65 -161.86,-3.57" fill="none" stroke="#26ffe0" stroke-width="6.00" stroke-linejoin="round" stroke-linecap="round"/><polyline points="-104.61,7.84 -154.98,11.61 -204.39,69.03" fill="none" stroke="#26ffef" stroke-width="6.00" stroke-linejoin="round" stroke-linecap="round"/><polyline points="-104.61,0.00 -156.30,0.00 -211.12,-54.82" fill="none" stroke="#26ffff" stroke-width="6.00" stroke-linejoin="round" stroke-linecap="round"/><polyline points="-104.61,-7.84 -150.05,-11.24 -201.86,33.34" fill="none" stroke="#26efff" stroke-width="6.00" stroke-linejoin="round" stroke-linecap="round"/><polyline points="-104.61,-15.77 -143.71,-21.66 -178.93,-69.38" fill="none" stroke="#26e0ff" stroke-width="6.00" stroke-linejoin="round" stroke-linecap="round"/><polyline points="-104.61,-23.88 -161.74,-36.92 -236.16,9.84" fill="none" stroke="#26d0ff" stroke-width="6.00" stroke-linejoin="round" stroke-linecap="round"/><polyline points="-104.61,-32.27 -147.73,-45.57 -179.35,-105.40" fill="none" stroke="#26c1ff" stroke-width="6.00" stroke-linejoin="round" stroke-linecap="round"/><polyline points="-104.61,-41.06 -151.94,-59.63 -221.83,-29.14" fill="none" stroke="#26b1ff" stroke-width="6.00" stroke-linejoin="round" stroke-linecap="round"/><polyline points="-104.61,-50.38 -162.87,-78.43 -194.90,-169.97" fill="none" stroke="#26a2ff" stroke-width="6.00" stroke-linejoin="round" stroke-linecap="round"/><polyline points="-104.61,-60.40 -145.51,-84.01 -213.93,-65.68" fill="none" stroke="#2692ff" stroke-width="6.00" stroke-linejoin="round" stroke-linecap="round"/><polyline points="-104.61,-71.32 -170.01,-115.91 -192.08,-232.57" fill="none" stroke="#2683ff" stroke-width="6.00" stroke-linejoin="round" stroke-linecap="round"/><polyline points="-104.61,-83.43 -146.59,-116.90 -226.61,-107.88" fill="none" stroke="#2673ff" stroke-width="6.00" stroke-linejoin="round" stroke-linecap="round"/><polyline points="-104.61,-97.07 -146.62,-136.04 -149.83,-221.94" fill="none" stroke="#2664ff" stroke-width="6.00" stroke-linejoin="round" stroke-linecap="round"/><polyline points="-97.07,-104.61 -145.48,-156.79 -252.17,-160.78" fill="none" stroke="#2654ff" stroke-width="6.00" stroke-linejoin="round" stroke-linecap="round"/><polyline points="-83.43,-104.61 -117.36,-147.17 -108.22,-228.29" fill="none" stroke="#2645ff" stroke-width="6.00" stroke-linejoin="round" stroke-linecap="round"/><polyline points="-71.32,-104.61 -110.68,-162.33 -213.63,-181.81" fill="none" stroke="#2635ff" stroke-width="6.00" stroke-linejoin="round" stroke-linecap="round"/><polyline points="-60.40,-104.61 -90.38,-156.55 -67.10,-243.45" fill="none" stroke="#2626ff" stroke-width="6.00" stroke-linejoin="round" stroke-linecap="round"/><polyline points="-50.38,-104.61 -76.73,-159.34 -162.73,-189.43" fill="none" stroke="#3526ff" stroke-width="6.00" stroke-linejoin="round" stroke-linecap="round"/><polyline points="-41.06,-104.61 -66.09,-168.40 -24.99,-262.61" fill="none" stroke="#4526ff" stroke-width="6.00" stroke-linejoin="round" stroke-linecap="round"/><polyline points="-32.27,-104.61 -50.75,-164.52 -133.89,-208.47" fill="none" stroke="#5426ff" stroke-width="6.00" stroke-linejoin="round" stroke-linecap="round"/><polyline points="-23.88,-104.61 -39.46,-172.88 16.42,-261.80" fill="none" stroke="#6426ff" stroke-width="6.00" stroke-linejoin="round" stroke-linecap="round"/><polyline points="-15.77,-104.61 -23.57,-156.37 -86.74,-202.99" fill="none" stroke="#7326ff" stroke-width="6.00" stroke-linejoin="round" stroke-linecap="round"/><polyline points="-7.84,-104.61 -11.12,-148.33 31.78,-198.18" fill="none" stroke="#8326ff" stroke-width="6.00" stroke-linejoin="round" stroke-linecap="round"/><polyline points="-0.00,-104.61 -0.00,-137.41 -34.79,-172.20" fill="none" stroke="#9226ff" stroke-width="6.00" stroke-linejoin="round" stroke-linecap="round"/><polyline points="7.84,-104.61 9.84,-131.31 40.28,-157.51" fill="none" stroke="#a226ff" stroke-width="6.00" stroke-linejoin="round" stroke-linecap="round"/><polyline points="15.77,-104.61 20.14,-133.64 -6.01,-169.07" fill="none" stroke="#b126ff" stroke-width="6.00" stroke-linejoin="round" stroke-linecap="round"/><polyline points="23.88,-104.61 30.45,-133.42 67.98,-157.01" fill="none" stroke="#c126ff" stroke-width="6.00" stroke-linejoin="round" stroke-linecap="round"/><polyline points="32.27,-104.61 40.98,-132.85 20.27,-172.03" fill="none" stroke="#d026ff" stroke-width="6.00" stroke-linejoin="round" stroke-linecap="round"/><polyline points="41.06,-104.61 53.28,-135.76 99.28,-155.83" fill="none" stroke="#e026ff" stroke-width="6.00" stroke-linejoin="round" stroke-linecap="round"/><polyline points="50.38,-104.61 68.73,-142.73 47.78,-202.62" fill="none" stroke="#ef26ff" stroke-width="6.00" stroke-linejoin="round" stroke-linecap="round"/><polyline points="60.40,-104.61 82.20,-142.37 145.37,-159.30" fill="none" stroke="#ff26ff" stroke-width="6.00" stroke-linejoin="round" stroke-linecap="round"/><polyline points="71.32,-104.61 97.49,-143.00 84.54,-211.47" fill="none" stroke="#ff26ef" stroke-width="6.00" stroke-linejoin="round" stroke-linecap="round"/><polyline points="83.43,-104.61 115.02,-144.23 190.56,-152.74" fill="none" stroke="#ff26e0" stroke-width="6.00" stroke-linejoin="round" stroke-linecap="round"/><polyline points="97.07,-104.61 127.33,-137.23 124.84,-203.93" fill="none" stroke="#ff26d0" stroke-width="6.00" stroke-linejoin="round" stroke-linecap="round"/><polyline points="104.61,-97.07 147.57,-136.93 235.42,-133.64" fill="none" stroke="#ff26c1" stroke-width="6.00" stroke-linejoin="round" stroke-linecap="round"/><polyline points="104.61,-83.43 168.37,-134.27 182.06,-255.82" fill="none" stroke="#ff26b1" stroke-width="6.00" stroke-linejoin="round" stroke-linecap="round"/><polyline points="104.61,-71.32 166.21,-113.32 276.08,-92.53" fill="none" stroke="#ff26a2" stroke-width="6.00" stroke-linejoin="round" stroke-linecap="round"/><polyline points="104.61,-60.40 184.68,-106.62 220.57,-240.58" fill="none" stroke="#ff2692" stroke-width="6.00" stroke-linejoin="round" stroke-linecap="round"/><polyline points="104.61,-50.38 168.10,-80.95 267.87,-46.04" fill="none" stroke="#ff2683" stroke-width="6.00" stroke-linejoin="round" stroke-linecap="round"/><polyline points="104.61,-41.06 158.03,-62.02 192.45,-140.92" fill="none" stroke="#ff2673" stroke-width="6.00" stroke-linejoin="round" stroke-linecap="round"/><polyline points="104.61,-32.27 150.64,-46.47 214.52,-12.71" fill="none" stroke="#ff2664" stroke-width="6.00" stroke-linejoin="round" stroke-linecap="round"/><polyline points="104.61,-23.88 154.35,-35.23 195.07,-100.03" fill="none" stroke="#ff2654" stroke-width="6.00" stroke-linejoin="round" stroke-linecap="round"/><polyline points="104.61,-15.77 159.02,-23.97 225.43,25.04" fill="none" stroke="#ff2645" stroke-width="6.00" stroke-linejoin="round" stroke-linecap="round"/><polyline points="104.61,-7.84 167.02,-12.52 228.25,-83.67" fill="none" stroke="#ff2635" stroke-width="6.00" stroke-linejoin="round" stroke-linecap="round"/><defs><pattern id="pg" patternUnits="userSpaceOnUse" x="-104.61" y="-104.61" width="209.23" height="209.23"><g transform="translate(104.61,104.61)"><polygon points="0,0 313.84,0.00 312.52,28.72" fill="#ff2626" stroke="#ff2626" stroke-width="0.5"/><polygon points="0,0 312.64,27.35 308.83,55.85" fill="#ff3826" stroke="#ff3826" stroke-width="0.5"/><polygon points="0,0 309.07,54.50 302.79,82.55" fill="#ff4a26" stroke="#ff4a26" stroke-width="0.5"/><polygon points="0,0 303.14,81.23 294.44,108.62" fill="#ff5c26" stroke="#ff5c26" stroke-width="0.5"/><polygon points="0,0 294.91,107.34 283.85,133.87" fill="#ff6e26" stroke="#ff6e26" stroke-width="0.5"/><polygon points="0,0 284.43,132.63 271.10,158.10" fill="#ff8026" stroke="#ff8026" stroke-width="0.5"/><polygon points="0,0 271.79,156.92 256.29,181.13" fill="#ff9226" stroke="#ff9226" stroke-width="0.5"/><polygon points="0,0 257.08,180.01 239.53,202.78" fill="#ffa426" stroke="#ffa426" stroke-width="0.5"/><polygon points="0,0 240.41,201.73 220.95,222.88" fill="#ffb626" stroke="#ffb626" stroke-width="0.5"/><polygon points="0,0 221.92,221.92 200.68,241.29" fill="#ffc826" stroke="#ffc826" stroke-width="0.5"/><polygon points="0,0 201.73,240.41 178.89,257.86" fill="#ffda26" stroke="#ffda26" stroke-width="0.5"/><polygon points="0,0 180.01,257.08 155.73,272.47" fill="#ffec26" stroke="#ffec26" stroke-width="0.5"/><polygon points="0,0 156.92,271.79 131.39,285.01" fill="#ffff26" stroke="#ffff26" stroke-width="0.5"/><polygon points="0,0 132.63,284.43 106.05,295.38" fill="#ecff26" stroke="#ecff26" stroke-width="0.5"/><polygon points="0,0 107.34,294.91 79.90,303.50" fill="#daff26" stroke="#daff26" stroke-width="0.5"/><polygon points="0,0 81.23,303.14 53.15,309.31" fill="#c8ff26" stroke="#c8ff26" stroke-width="0.5"/><polygon points="0,0 54.50,309.07 25.99,312.76" fill="#b6ff26" stroke="#b6ff26" stroke-width="0.5"/><polygon points="0,0 27.35,312.64 -1.37,313.84" fill="#a4ff26" stroke="#a4ff26" stroke-width="0.5"/><polygon points="0,0 0.00,313.84 -28.72,312.52" fill="#92ff26" stroke="#92ff26" stroke-width="0.5"/><polygon points="0,0 -27.35,312.64 -55.85,308.83" fill="#80ff26" stroke="#80ff26" stroke-width="0.5"/><polygon points="0,0 -54.50,309.07 -82.55,302.79" fill="#6eff26" stroke="#6eff26" stroke-width="0.5"/><polygon points="0,0 -81.23,303.14 -108.62,294.44" fill="#5cff26" stroke="#5cff26" stroke-width="0.5"/><polygon points="0,0 -107.34,294.91 -133.87,283.85" fill="#4aff26" stroke="#4aff26" stroke-width="0.5"/><polygon points="0,0 -132.63,284.43 -158.10,271.10" fill="#38ff26" stroke="#38ff26" stroke-width="0.5"/><polygon points="0,0 -156.92,271.79 -181.13,256.29" fill="#26ff26" stroke="#26ff26" stroke-width="0.5"/><polygon points="0,0 -180.01,257.08 -202.78,239.53" fill="#26ff38" stroke="#26ff38" stroke-width="0.5"/><polygon points="0,0 -201.73,240.41 -222.88,220.95" fill="#26ff4a" stroke="#26ff4a" stroke-width="0.5"/><polygon points="0,0 -221.92,221.92 -241.29,200.68" fill="#26ff5c" stroke="#26ff5c" stroke-width="0.5"/><polygon points="0,0 -240.41,201.73 -257.86,178.89" fill="#26ff6e" stroke="#26ff6e" stroke-width="0.5"/><polygon points="0,0 -257.08,180.01 -272.47,155.73" fill="#26ff80" stroke="#26ff80" stroke-width="0.5"/><polygon points="0,0 -271.79,156.92 -285.01,131.39" fill="#26ff92" stroke="#26ff92" stroke-width="0.5"/><polygon points="0,0 -284.43,132.63 -295.38,106.05" fill="#26ffa4" stroke="#26ffa4" stroke-width="0.5"/><polygon points="0,0 -294.91,107.34 -303.50,79.90" fill="#26ffb6" stroke="#26ffb6" stroke-width="0.5"/><polygon points="0,0 -303.14,81.23 -309.31,53.15" fill="#26ffc8" stroke="#26ffc8" stroke-width="0.5"/><polygon points="0,0 -309.07,54.50 -312.76,25.99" fill="#26ffda" stroke="#26ffda" stroke-width="0.5"/><polygon points="0,0 -312.64,27.35 -313.84,-1.37" fill="#26ffec" stroke="#26ffec" stroke-width="0.5"/><polygon points="0,0 -313.84,0.00 -312.52,-28.72" fill="#26ffff" stroke="#26ffff" stroke-width="0.5"/><polygon points="0,0 -312.64,-27.35 -308.83,-55.85" fill="#26ecff" stroke="#26ecff" stroke-width="0.5"/><polygon points="0,0 -309.07,-54.50 -302.79,-82.55" fill="#26daff" stroke="#26daff" stroke-width="0.5"/><polygon points="0,0 -303.14,-81.23 -294.44,-108.62" fill="#26c8ff" stroke="#26c8ff" stroke-width="0.5"/><polygon points="0,0 -294.91,-107.34 -283.85,-133.87" fill="#26b6ff" stroke="#26b6ff" stroke-width="0.5"/><polygon points="0,0 -284.43,-132.63 -271.10,-158.10" fill="#26a4ff" stroke="#26a4ff" stroke-width="0.5"/><polygon points="0,0 -271.79,-156.92 -256.29,-181.13" fill="#2692ff" stroke="#2692ff" stroke-width="0.5"/><polygon points="0,0 -257.08,-180.01 -239.53,-202.78" fill="#2680ff" stroke="#2680ff" stroke-width="0.5"/><polygon points="0,0 -240.41,-201.73 -220.95,-222.88" fill="#266eff" stroke="#266eff" stroke-width="0.5"/><polygon points="0,0 -221.92,-221.92 -200.68,-241.29" fill="#265cff" stroke="#265cff" stroke-width="0.5"/><polygon points="0,0 -201.73,-240.41 -178.89,-257.86" fill="#264aff" stroke="#264aff" stroke-width="0.5"/><polygon points="0,0 -180.01,-257.08 -155.73,-272.47" fill="#2638ff" stroke="#2638ff" stroke-width="0.5"/><polygon points="0,0 -156.92,-271.79 -131.39,-285.01" fill="#2626ff" stroke="#2626ff" stroke-width="0.5"/><polygon points="0,0 -132.63,-284.43 -106.05,-295.38" fill="#3826ff" stroke="#3826ff" stroke-width="0.5"/><polygon points="0,0 -107.34,-294.91 -79.90,-303.50" fill="#4a26ff" stroke="#4a26ff" stroke-width="0.5"/><polygon points="0,0 -81.23,-303.14 -53.15,-309.31" fill="#5c26ff" stroke="#5c26ff" stroke-width="0.5"/><polygon points="0,0 -54.50,-309.07 -25.99,-312.76" fill="#6e26ff" stroke="#6e26ff" stroke-width="0.5"/><polygon points="0,0 -27.35,-312.64 1.37,-313.84" fill="#8026ff" stroke="#8026ff" stroke-width="0.5"/><polygon points="0,0 -0.00,-313.84 28.72,-312.52" fill="#9226ff" stroke="#9226ff" stroke-width="0.5"/><polygon points="0,0 27.35,-312.64 55.85,-308.83" fill="#a426ff" stroke="#a426ff" stroke-width="0.5"/><polygon points="0,0 54.50,-309.07 82.55,-302.79" fill="#b626ff" stroke="#b626ff" stroke-width="0.5"/><polygon points="0,0 81.23,-303.14 108.62,-294.44" fill="#c826ff" stroke="#c826ff" stroke-width="0.5"/><polygon points="0,0 107.34,-294.91 133.87,-283.85" fill="#da26ff" stroke="#da26ff" stroke-width="0.5"/><polygon points="0,0 132.63,-284.43 158.10,-271.10" fill="#ec26ff" stroke="#ec26ff" stroke-width="0.5"/><polygon points="0,0 156.92,-271.79 181.13,-256.29" fill="#ff26ff" stroke="#ff26ff" stroke-width="0.5"/><polygon points="0,0 180.01,-257.08 202.78,-239.53" fill="#ff26ec" stroke="#ff26ec" stroke-width="0.5"/><polygon points="0,0 201.73,-240.41 222.88,-220.95" fill="#ff26da" stroke="#ff26da" stroke-width="0.5"/><polygon points="0,0 221.92,-221.92 241.29,-200.68" fill="#ff26c8" stroke="#ff26c8" stroke-width="0.5"/><polygon points="0,0 240.41,-201.73 257.86,-178.89" fill="#ff26b6" stroke="#ff26b6" stroke-width="0.5"/><polygon points="0,0 257.08,-180.01 272.47,-155.73" fill="#ff26a4" stroke="#ff26a4" stroke-width="0.5"/><polygon points="0,0 271.79,-156.92 285.01,-131.39" fill="#ff2692" stroke="#ff2692" stroke-width="0.5"/><polygon points="0,0 284.43,-132.63 295.38,-106.05" fill="#ff2680" stroke="#ff2680" stroke-width="0.5"/><polygon points="0,0 294.91,-107.34 303.50,-79.90" fill="#ff266e" stroke="#ff266e" stroke-width="0.5"/><polygon points="0,0 303.14,-81.23 309.31,-53.15" fill="#ff265c" stroke="#ff265c" stroke-width="0.5"/><polygon points="0,0 309.07,-54.50 312.76,-25.99" fill="#ff264a" stroke="#ff264a" stroke-width="0.5"/><polygon points="0,0 312.64,-27.35 313.84,1.37" fill="#ff2638" stroke="#ff2638" stroke-width="0.5"/></g></pattern></defs><rect x="-104.61" y="-104.61" width="209.23" height="209.23" rx="12.00" fill="url(#pg)"/><rect x="-52.31" y="-52.31" width="104.61" height="104.61" rx="13.00" fill="#000000"/><circle cx="198.15" cy="48.15" r="11.76" fill="#ff2626"/><circle cx="324.68" cy="-85.35" r="14.23" fill="#ff3526"/><circle cx="310.11" cy="164.02" r="14.43" fill="#ff4526"/><circle cx="259.86" cy="-15.92" r="12.97" fill="#ff5426"/><circle cx="219.25" cy="144.45" r="12.97" fill="#ff6426"/><circle cx="219.98" cy="29.32" r="12.03" fill="#ff7326"/><circle cx="178.51" cy="148.27" r="12.19" fill="#ff8326"/><circle cx="235.79" cy="66.73" r="12.39" fill="#ff9226"/><circle cx="208.69" cy="263.19" r="13.93" fill="#ffa226"/><circle cx="257.61" cy="114.10" r="12.89" fill="#ffb126"/><circle cx="180.38" cy="306.28" r="13.99" fill="#ffc126"/><circle cx="272.27" cy="168.06" r="13.43" fill="#ffd026"/><circle cx="102.35" cy="199.02" r="11.52" fill="#ffe026"/><circle cx="164.13" cy="154.96" r="11.77" fill="#ffef26"/><circle cx="66.89" cy="239.12" r="12.46" fill="#ffff26"/><circle cx="133.91" cy="167.67" r="11.75" fill="#efff26"/><circle cx="30.53" cy="208.09" r="11.73" fill="#e0ff26"/><circle cx="170.39" cy="245.76" r="13.61" fill="#d0ff26"/><circle cx="-25.29" cy="296.41" r="13.62" fill="#c1ff26"/><circle cx="54.77" cy="158.67" r="10.52" fill="#b1ff26"/><circle cx="-9.00" cy="144.39" r="9.22" fill="#a2ff26"/><circle cx="65.59" cy="232.04" r="12.64" fill="#92ff26"/><circle cx="-99.55" cy="254.14" r="13.24" fill="#83ff26"/><circle cx="13.92" cy="192.50" r="11.42" fill="#73ff26"/><circle cx="-50.01" cy="135.66" r="8.98" fill="#64ff26"/><circle cx="-13.66" cy="209.15" r="11.79" fill="#54ff26"/><circle cx="-125.47" cy="178.87" r="11.95" fill="#45ff26"/><circle cx="-48.80" cy="163.98" r="10.20" fill="#35ff26"/><circle cx="-110.75" cy="137.02" r="10.22" fill="#26ff26"/><circle cx="-78.46" cy="162.30" r="10.14" fill="#26ff35"/><circle cx="-165.18" cy="141.34" r="11.33" fill="#26ff45"/><circle cx="-129.61" cy="220.99" r="12.15" fill="#26ff54"/><circle cx="-227.93" cy="131.55" r="12.31" fill="#26ff64"/><circle cx="-139.69" cy="161.50" r="11.20" fill="#26ff73"/><circle cx="-163.96" cy="78.66" r="10.22" fill="#26ff83"/><circle cx="-135.15" cy="107.85" r="10.06" fill="#26ff92"/><circle cx="-163.17" cy="48.82" r="10.16" fill="#26ffa2"/><circle cx="-177.58" cy="124.01" r="11.90" fill="#26ffb1"/><circle cx="-202.03" cy="14.93" r="11.60" fill="#26ffc1"/><circle cx="-152.23" cy="63.96" r="10.33" fill="#26ffd0"/><circle cx="-161.86" cy="-3.57" r="10.25" fill="#26ffe0"/><circle cx="-204.39" cy="69.03" r="12.06" fill="#26ffef"/><circle cx="-211.12" cy="-54.82" r="12.13" fill="#26ffff"/><circle cx="-201.86" cy="33.34" r="11.77" fill="#26efff"/><circle cx="-178.93" cy="-69.38" r="11.39" fill="#26e0ff"/><circle cx="-236.16" cy="9.84" r="12.48" fill="#26d0ff"/><circle cx="-179.35" cy="-105.40" r="11.75" fill="#26c1ff"/><circle cx="-221.83" cy="-29.14" r="12.08" fill="#26b1ff"/><circle cx="-194.90" cy="-169.97" r="12.77" fill="#26a2ff"/><circle cx="-213.93" cy="-65.68" r="11.87" fill="#2692ff"/><circle cx="-192.08" cy="-232.57" r="13.38" fill="#2683ff"/><circle cx="-226.61" cy="-107.88" r="12.23" fill="#2673ff"/><circle cx="-149.83" cy="-221.94" r="12.42" fill="#2664ff"/><circle cx="-252.17" cy="-160.78" r="13.06" fill="#2654ff"/><circle cx="-108.22" cy="-228.29" r="12.27" fill="#2645ff"/><circle cx="-213.63" cy="-181.81" r="13.00" fill="#2635ff"/><circle cx="-67.10" cy="-243.45" r="12.55" fill="#2626ff"/><circle cx="-162.73" cy="-189.43" r="12.59" fill="#3526ff"/><circle cx="-24.99" cy="-262.61" r="12.94" fill="#4526ff"/><circle cx="-133.89" cy="-208.47" r="12.68" fill="#5426ff"/><circle cx="16.42" cy="-261.80" r="13.01" fill="#6426ff"/><circle cx="-86.74" cy="-202.99" r="12.16" fill="#7326ff"/><circle cx="31.78" cy="-198.18" r="11.67" fill="#8326ff"/><circle cx="-34.79" cy="-172.20" r="10.88" fill="#9226ff"/><circle cx="40.28" cy="-157.51" r="10.32" fill="#a226ff"/><circle cx="-6.01" cy="-169.07" r="10.58" fill="#b126ff"/><circle cx="67.98" cy="-157.01" r="10.60" fill="#c126ff"/><circle cx="20.27" cy="-172.03" r="10.60" fill="#d026ff"/><circle cx="99.28" cy="-155.83" r="10.93" fill="#e026ff"/><circle cx="47.78" cy="-202.62" r="11.57" fill="#ef26ff"/><circle cx="145.37" cy="-159.30" r="11.65" fill="#ff26ff"/><circle cx="84.54" cy="-211.47" r="11.83" fill="#ff26ef"/><circle cx="190.56" cy="-152.74" r="12.07" fill="#ff26e0"/><circle cx="124.84" cy="-203.93" r="11.71" fill="#ff26d0"/><circle cx="235.42" cy="-133.64" r="12.48" fill="#ff26c1"/><circle cx="182.06" cy="-255.82" r="13.47" fill="#ff26b1"/><circle cx="276.08" cy="-92.53" r="13.20" fill="#ff26a2"/><circle cx="220.57" cy="-240.58" r="13.87" fill="#ff2692"/><circle cx="267.87" cy="-46.04" r="13.02" fill="#ff2683"/><circle cx="192.45" cy="-140.92" r="12.42" fill="#ff2673"/><circle cx="214.52" cy="-12.71" r="11.93" fill="#ff2664"/><circle cx="195.07" cy="-100.03" r="12.09" fill="#ff2654"/><circle cx="225.43" cy="25.04" r="12.30" fill="#ff2645"/><circle cx="228.25" cy="-83.67" r="12.67" fill="#ff2635"/></g></svg>