<svg width="800" height="800" viewBox="0 0 711.0 711.0" xmlns="http://www.w3.org/2000/svg"><path d="M 396.04,216.32 L 422.30,102.81 L 408.15,218.45 Z" fill="#000000" stroke="#000000" stroke-width="6" stroke-linejoin="round"/><path d="M 410.27,218.92 L 453.06,82.94 L 422.14,222.10 Z" fill="#000000" stroke="#000000" stroke-width="6" stroke-linejoin="round"/><path d="M 424.21,222.76 L 473.49,105.31 L 435.76,226.96 Z" fill="#000000" stroke="#000000" stroke-width="6" stroke-linejoin="round"/><path d="M 437.76,227.79 L 506.37,95.19 L 448.90,232.99 Z" fill="#000000" stroke="#000000" stroke-width="6" stroke-linejoin="round"/><path d="M 450.82,233.99 L 523.16,120.98 L 461.47,240.13 Z" fill="#000000" stroke="#000000" stroke-width="6" stroke-linejoin="round"/><path d="M 463.30,241.30 L 597.84,59.86 L 473.36,248.35 Z" fill="#000000" stroke="#000000" stroke-width="6" stroke-linejoin="round"/><path d="M 475.09,249.67 L 568.43,147.98 L 484.50,257.57 Z" fill="#000000" stroke="#000000" stroke-width="6" stroke-linejoin="round"/><path d="M 486.10,259.03 L 526.05,227.78 L 494.79,267.72 Z" fill="#000000" stroke="#000000" stroke-width="6" stroke-linejoin="round"/><path d="M 496.26,269.32 L 553.84,229.02 L 504.16,278.74 Z" fill="#000000" stroke="#000000" stroke-width="6" stroke-linejoin="round"/><path d="M 505.48,280.46 L 573.90,240.05 L 512.53,290.53 Z" fill="#000000" stroke="#000000" stroke-width="6" stroke-linejoin="round"/><path d="M 513.69,292.36 L 607.14,245.50 L 519.84,303.00 Z" fill="#000000" stroke="#000000" stroke-width="6" stroke-linejoin="round"/><path d="M 520.84,304.93 L 676.95,238.91 L 526.03,316.06 Z" fill="#000000" stroke="#000000" stroke-width="6" stroke-linejoin="round"/><path d="M 526.86,318.07 L 664.35,274.57 L 531.07,329.62 Z" fill="#000000" stroke="#000000" stroke-width="6" stroke-linejoin="round"/><path d="M 531.72,331.69 L 564.75,329.20 L 534.90,343.56 Z" fill="#000000" stroke="#000000" stroke-width="6" stroke-linejoin="round"/><path d="M 535.37,345.68 L 595.12,341.38 L 537.50,357.78 Z" fill="#000000" stroke="#000000" stroke-width="6" stroke-linejoin="round"/><path d="M 537.79,359.93 L 603.06,360.39 L 538.86,372.18 Z" fill="#000000" stroke="#000000" stroke-width="6" stroke-linejoin="round"/><path d="M 538.95,374.34 L 643.68,380.49 L 538.95,386.63 Z" fill="#000000" stroke="#000000" stroke-width="6" stroke-linejoin="round"/><path d="M 538.86,388.80 L 707.96,409.76 L 537.79,401.04 Z" fill="#000000" stroke="#000000" stroke-width="6" stroke-linejoin="round"/><path d="M 537.50,403.20 L 680.39,434.63 L 535.37,415.30 Z" fill="#000000" stroke="#000000" stroke-width="6" stroke-linejoin="round"/><path d="M 534.90,417.42 L 608.70,443.55 L 531.72,429.29 Z" fill="#000000" stroke="#000000" stroke-width="6" stroke-linejoin="round"/><path d="M 531.07,431.36 L 603.26,464.17 L 526.86,442.91 Z" fill="#000000" stroke="#000000" stroke-width="6" stroke-linejoin="round"/><path d="M 526.03,444.91 L 590.90,481.94 L 520.84,456.05 Z" fill="#000000" stroke="#000000" stroke-width="6" stroke-linejoin="round"/><path d="M 519.84,457.97 L 607.18,515.50 L 513.69,468.62 Z" fill="#000000" stroke="#000000" stroke-width="6" stroke-linejoin="round"/><path d="M 512.53,470.45 L 613.12,548.38 L 505.48,480.52 Z" fill="#000000" stroke="#000000" stroke-width="6" stroke-linejoin="round"/><path d="M 504.16,482.24 L 567.03,543.02 L 496.26,491.65 Z" fill="#000000" stroke="#000000" stroke-width="6" stroke-linejoin="round"/><path d="M 494.79,493.25 L 540.51,547.66 L 486.10,501.94 Z" fill="#000000" stroke="#000000" stroke-width="6" stroke-linejoin="round"/><path d="M 484.50,503.41 L 551.50,592.81 L 475.09,511.31 Z" fill="#000000" stroke="#000000" stroke-width="6" stroke-linejoin="round"/><path d="M 473.36,512.63 L 543.03,622.84 L 463.30,519.68 Z" fill="#000000" stroke="#000000" stroke-width="6" stroke-linejoin="round"/><path d="M 461.47,520.84 L 519.86,634.27 L 450.82,526.99 Z" fill="#000000" stroke="#000000" stroke-width="6" stroke-linejoin="round"/><path d="M 448.90,527.99 L 485.78,621.62 L 437.76,533.19 Z" fill="#000000" stroke="#000000" stroke-width="6" stroke-linejoin="round"/><path d="M 435.76,534.02 L 460.70,620.52 L 424.21,538.22 Z" fill="#000000" stroke="#000000" stroke-width="6" stroke-linejoin="round"/><path d="M 422.14,538.87 L 435.54,612.62 L 410.27,542.05 Z" fill="#000000" stroke="#000000" stroke-width="6" stroke-linejoin="round"/><path d="M 408.15,542.52 L 409.29,584.40 L 396.04,544.66 Z" fill="#000000" stroke="#000000" stroke-width="6" stroke-linejoin="round"/><path d="M 393.89,544.94 L 392.60,600.63 L 381.65,546.01 Z" fill="#000000" stroke="#000000" stroke-width="6" stroke-linejoin="round"/><path d="M 379.48,546.11 L 373.34,618.94 L 367.19,546.11 Z" fill="#000000" stroke="#000000" stroke-width="6" stroke-linejoin="round"/><path d="M 365.02,546.01 L 353.64,605.59 L 352.78,544.94 Z" fill="#000000" stroke="#000000" stroke-width="6" stroke-linejoin="round"/><path d="M 350.63,544.66 L 333.51,606.33 L 338.53,542.52 Z" fill="#000000" stroke="#000000" stroke-width="6" stroke-linejoin="round"/><path d="M 336.41,542.05 L 314.90,598.58 L 324.54,538.87 Z" fill="#000000" stroke="#000000" stroke-width="6" stroke-linejoin="round"/><path d="M 322.47,538.22 L 298.03,587.40 L 310.92,534.02 Z" fill="#000000" stroke="#000000" stroke-width="6" stroke-linejoin="round"/><path d="M 308.91,533.19 L 273.72,594.11 L 297.77,527.99 Z" fill="#000000" stroke="#000000" stroke-width="6" stroke-linejoin="round"/><path d="M 295.85,526.99 L 246.06,600.93 L 285.21,520.84 Z" fill="#000000" stroke="#000000" stroke-width="6" stroke-linejoin="round"/><path d="M 283.38,519.68 L 202.15,624.96 L 273.31,512.63 Z" fill="#000000" stroke="#000000" stroke-width="6" stroke-linejoin="round"/><path d="M 271.59,511.31 L 146.27,651.10 L 262.17,503.41 Z" fill="#000000" stroke="#000000" stroke-width="6" stroke-linejoin="round"/><path d="M 260.57,501.94 L 160.56,593.26 L 251.88,493.25 Z" fill="#000000" stroke="#000000" stroke-width="6" stroke-linejoin="round"/><path d="M 250.42,491.65 L 153.31,565.11 L 242.52,482.24 Z" fill="#000000" stroke="#000000" stroke-width="6" stroke-linejoin="round"/><path d="M 241.20,480.52 L 149.30,537.36 L 234.15,470.45 Z" fill="#000000" stroke="#000000" stroke-width="6" stroke-linejoin="round"/><path d="M 232.98,468.62 L 108.63,533.32 L 226.84,457.97 Z" fill="#000000" stroke="#000000" stroke-width="6" stroke-linejoin="round"/><path d="M 225.83,456.05 L 87.14,513.94 L 220.64,444.91 Z" fill="#000000" stroke="#000000" stroke-width="6" stroke-linejoin="round"/><path d="M 219.81,442.91 L 66.23,492.27 L 215.61,431.36 Z" fill="#000000" stroke="#000000" stroke-width="6" stroke-linejoin="round"/><path d="M 214.95,429.29 L 66.36,462.74 L 211.77,417.42 Z" fill="#000000" stroke="#000000" stroke-width="6" stroke-linejoin="round"/><path d="M 211.30,415.30 L 3.00,445.79 L 209.17,403.20 Z" fill="#000000" stroke="#000000" stroke-width="6" stroke-linejoin="round"/><path d="M 208.89,401.04 L 19.53,411.44 L 207.81,388.80 Z" fill="#000000" stroke="#000000" stroke-width="6" stroke-linejoin="round"/><path d="M 207.72,386.63 L 62.99,380.49 L 207.72,374.34 Z" fill="#000000" stroke="#000000" stroke-width="6" stroke-linejoin="round"/><path d="M 207.81,372.18 L 97.26,356.33 L 208.89,359.93 Z" fill="#000000" stroke="#000000" stroke-width="6" stroke-linejoin="round"/><path d="M 209.17,357.78 L 125.46,336.78 L 211.30,345.68 Z" fill="#000000" stroke="#000000" stroke-width="6" stroke-linejoin="round"/><path d="M 211.77,343.56 L 130.15,315.33 L 214.95,331.69 Z" fill="#000000" stroke="#000000" stroke-width="6" stroke-linejoin="round"/><path d="M 215.61,329.62 L 145.31,297.49 L 219.81,318.07 Z" fill="#000000" stroke="#000000" stroke-width="6" stroke-linejoin="round"/><path d="M 220.64,316.06 L 154.39,278.39 L 225.83,304.93 Z" fill="#000000" stroke="#000000" stroke-width="6" stroke-linejoin="round"/><path d="M 226.84,303.00 L 171.70,264.07 L 232.98,292.36 Z" fill="#000000" stroke="#000000" stroke-width="6" stroke-linejoin="round"/><path d="M 234.15,290.53 L 173.99,240.90 L 241.20,280.46 Z" fill="#000000" stroke="#000000" stroke-width="6" stroke-linejoin="round"/><path d="M 242.52,278.74 L 173.42,212.73 L 250.42,269.32 Z" fill="#000000" stroke="#000000" stroke-width="6" stroke-linejoin="round"/><path d="M 251.88,267.72 L 139.82,146.97 L 260.57,259.03 Z" fill="#000000" stroke="#000000" stroke-width="6" stroke-linejoin="round"/><path d="M 262.17,257.57 L 173.37,142.17 L 271.59,249.67 Z" fill="#000000" stroke="#000000" stroke-width="6" stroke-linejoin="round"/><path d="M 273.31,248.35 L 205.64,140.99 L 283.38,241.30 Z" fill="#000000" stroke="#000000" stroke-width="6" stroke-linejoin="round"/><path d="M 285.21,240.13 L 228.96,130.42 L 295.85,233.99 Z" fill="#000000" stroke="#000000" stroke-width="6" stroke-linejoin="round"/><path d="M 297.77,232.99 L 260.79,139.14 L 308.91,227.79 Z" fill="#000000" stroke="#000000" stroke-width="6" stroke-linejoin="round"/><path d="M 310.92,226.96 L 285.76,139.88 L 322.47,222.76 Z" fill="#000000" stroke="#000000" stroke-width="6" stroke-linejoin="round"/><path d="M 324.54,222.10 L 305.29,126.53 L 336.41,218.92 Z" fill="#000000" stroke="#000000" stroke-width="6" stroke-linejoin="round"/><path d="M 338.53,218.45 L 329.89,134.08 L 350.63,216.32 Z" fill="#000000" stroke="#000000" stroke-width="6" stroke-linejoin="round"/><path d="M 352.78,216.04 L 353.45,153.20 L 365.02,214.97 Z" fill="#000000" stroke="#000000" stroke-width="6" stroke-linejoin="round"/><path d="M 367.19,214.87 L 373.34,164.79 L 379.48,214.87 Z" fill="#000000" stroke="#000000" stroke-width="6" stroke-linejoin="round"/><path d="M 381.65,214.97 L 390.80,180.91 L 393.89,216.04 Z" fill="#000000" stroke="#000000" stroke-width="6" stroke-linejoin="round"/><circle cx="373.34" cy="380.49" r="167.73" fill="#000000" stroke="#000000" stroke-width="6"/><circle cx="373.34" cy="380.49" r="35.94" fill="none" stroke="#000000" stroke-width="18"/><circle cx="373.34" cy="380.49" r="11.98" fill="none" stroke="#000000" stroke-width="14"/><path d="M 396.04,216.32 L 422.30,102.81 L 408.15,218.45 Z" fill="#ff2626"/><path d="M 410.27,218.92 L 453.06,82.94 L 422.14,222.10 Z" fill="#ff3826"/><path d="M 424.21,222.76 L 473.49,105.31 L 435.76,226.96 Z" fill="#ff4a26"/><path d="M 437.76,227.79 L 506.37,95.19 L 448.90,232.99 Z" fill="#ff5c26"/><path d="M 450.82,233.99 L 523.16,120.98 L 461.47,240.13 Z" fill="#ff6e26"/><path d="M 463.30,241.30 L 597.84,59.86 L 473.36,248.35 Z" fill="#ff8026"/><path d="M 475.09,249.67 L 568.43,147.98 L 484.50,257.57 Z" fill="#ff9226"/><path d="M 486.10,259.03 L 526.05,227.78 L 494.79,267.72 Z" fill="#ffa426"/><path d="M 496.26,269.32 L 553.84,229.02 L 504.16,278.74 Z" fill="#ffb626"/><path d="M 505.48,280.46 L 573.90,240.05 L 512.53,290.53 Z" fill="#ffc826"/><path d="M 513.69,292.36 L 607.14,245.50 L 519.84,303.00 Z" fill="#ffda26"/><path d="M 520.84,304.93 L 676.95,238.91 L 526.03,316.06 Z" fill="#ffec26"/><path d="M 526.86,318.07 L 664.35,274.57 L 531.07,329.62 Z" fill="#ffff26"/><path d="M 531.72,331.69 L 564.75,329.20 L 534.90,343.56 Z" fill="#ecff26"/><path d="M 535.37,345.68 L 595.12,341.38 L 537.50,357.78 Z" fill="#daff26"/><path d="M 537.79,359.93 L 603.06,360.39 L 538.86,372.18 Z" fill="#c8ff26"/><path d="M 538.95,374.34 L 643.68,380.49 L 538.95,386.63 Z" fill="#b6ff26"/><path d="M 538.86,388.80 L 707.96,409.76 L 537.79,401.04 Z" fill="#a4ff26"/><path d="M 537.50,403.20 L 680.39,434.63 L 535.37,415.30 Z" fill="#92ff26"/><path d="M 534.90,417.42 L 608.70,443.55 L 531.72,429.29 Z" fill="#80ff26"/><path d="M 531.07,431.36 L 603.26,464.17 L 526.86,442.91 Z" fill="#6eff26"/><path d="M 526.03,444.91 L 590.90,481.94 L 520.84,456.05 Z" fill="#5cff26"/><path d="M 519.84,457.97 L 607.18,515.50 L 513.69,468.62 Z" fill="#4aff26"/><path d="M 512.53,470.45 L 613.12,548.38 L 505.48,480.52 Z" fill="#38ff26"/><path d="M 504.16,482.24 L 567.03,543.02 L 496.26,491.65 Z" fill="#26ff26"/><path d="M 494.79,493.25 L 540.51,547.66 L 486.10,501.94 Z" fill="#26ff38"/><path d="M 484.50,503.41 L 551.50,592.81 L 475.09,511.31 Z" fill="#26ff4a"/><path d="M 473.36,512.63 L 543.03,622.84 L 463.30,519.68 Z" fill="#26ff5c"/><path d="M 461.47,520.84 L 519.86,634.27 L 450.82,526.99 Z" fill="#26ff6e"/><path d="M 448.90,527.99 L 485.78,621.62 L 437.76,533.19 Z" fill="#26ff80"/><path d="M 435.76,534.02 L 460.70,620.52 L 424.21,538.22 Z" fill="#26ff92"/><path d="M 422.14,538.87 L 435.54,612.62 L 410.27,542.05 Z" fill="#26ffa4"/><path d="M 408.15,542.52 L 409.29,584.40 L 396.04,544.66 Z" fill="#26ffb6"/><path d="M 393.89,544.94 L 392.60,600.63 L 381.65,546.01 Z" fill="#26ffc8"/><path d="M 379.48,546.11 L 373.34,618.94 L 367.19,546.11 Z" fill="#26ffda"/><path d="M 365.02,546.01 L 353.64,605.59 L 352.78,544.94 Z" fill="#26ffec"/><path d="M 350.63,544.66 L 333.51,606.33 L 338.53,542.52 Z" fill="#26ffff"/><path d="M 336.41,542.05 L 314.90,598.58 L 324.54,538.87 Z" fill="#26ecff"/><path d="M 322.47,538.22 L 298.03,587.40 L 310.92,534.02 Z" fill="#26daff"/><path d="M 308.91,533.19 L 273.72,594.11 L 297.77,527.99 Z" fill="#26c8ff"/><path d="M 295.85,526.99 L 246.06,600.93 L 285.21,520.84 Z" fill="#26b6ff"/><path d="M 283.38,519.68 L 202.15,624.96 L 273.31,512.63 Z" fill="#26a4ff"/><path d="M 271.59,511.31 L 146.27,651.10 L 262.17,503.41 Z" fill="#2692ff"/><path d="M 260.57,501.94 L 160.56,593.26 L 251.88,493.25 Z" fill="#2680ff"/><path d="M 250.42,491.65 L 153.31,565.11 L 242.52,482.24 Z" fill="#266eff"/><path d="M 241.20,480.52 L 149.30,537.36 L 234.15,470.45 Z" fill="#265cff"/><path d="M 232.98,468.62 L 108.63,533.32 L 226.84,457.97 Z" fill="#264aff"/><path d="M 225.83,456.05 L 87.14,513.94 L 220.64,444.91 Z" fill="#2638ff"/><path d="M 219.81,442.91 L 66.23,492.27 L 215.61,431.36 Z" fill="#2626ff"/><path d="M 214.95,429.29 L 66.36,462.74 L 211.77,417.42 Z" fill="#3826ff"/><path d="M 211.30,415.30 L 3.00,445.79 L 209.17,403.20 Z" fill="#4a26ff"/><path d="M 208.89,401.04 L 19.53,411.44 L 207.81,388.80 Z" fill="#5c26ff"/><path d="M 207.72,386.63 L 62.99,380.49 L 207.72,374.34 Z" fill="#6e26ff"/><path d="M 207.81,372.18 L 97.26,356.33 L 208.89,359.93 Z" fill="#8026ff"/><path d="M 209.17,357.78 L 125.46,336.78 L 211.30,345.68 Z" fill="#9226ff"/><path d="M 211.77,343.56 L 130.15,315.33 L 214.95,331.69 Z" fill="#a426ff"/><path d="M 215.61,329.62 L 145.31,297.49 L 219.81,318.07 Z" fill="#b626ff"/><path d="M 220.64,316.06 L 154.39,278.39 L 225.83,304.93 Z" fill="#c826ff"/><path d="M 226.84,303.00 L 171.70,264.07 L 232.98,292.36 Z" fill="#da26ff"/><path d="M 234.15,290.53 L 173.99,240.90 L 241.20,280.46 Z" fill="#ec26ff"/><path d="M 242.52,278.74 L 173.42,212.73 L 250.42,269.32 Z" fill="#ff26ff"/><path d="M 251.88,267.72 L 139.82,146.97 L 260.57,259.03 Z" fill="#ff26ec"/><path d="M 262.17,257.57 L 173.37,142.17 L 271.59,249.67 Z" fill="#ff26da"/><path d="M 273.31,248.35 L 205.64,140.99 L 283.38,241.30 Z" fill="#ff26c8"/><path d="M 285.21,240.13 L 228.96,130.42 L 295.85,233.99 Z" fill="#ff26b6"/><path d="M 297.77,232.99 L 260.79,139.14 L 308.91,227.79 Z" fill="#ff26a4"/><path d="M 310.92,226.96 L 285.76,139.88 L 322.47,222.76 Z" fill="#ff2692"/><path d="M 324.54,222.10 L 305.29,126.53 L 336.41,218.92 Z" fill="#ff2680"/><path d="M 338.53,218.45 L 329.89,134.08 L 350.63,216.32 Z" fill="#ff266e"/><path d="M 352.78,216.04 L 353.45,153.20 L 365.02,214.97 Z" fill="#ff265c"/><path d="M 367.19,214.87 L 373.34,164.79 L 379.48,214.87 Z" fill="#ff264a"/><path d="M 381.65,214.97 L 390.80,180.91 L 393.89,216.04 Z" fill="#ff2638"/><path d="M 373.34,380.49 L 402.46,215.31 A 167.73,167.73 0 0,1 412.78,217.46 Z" fill="#ff2626"/><path d="M 373.34,380.49 L 411.07,217.06 A 167.73,167.73 0 0,1 421.25,219.75 Z" fill="#ff3126"/><path d="M 373.34,380.49 L 419.57,219.25 A 167.73,167.73 0 0,1 429.60,222.48 Z" fill="#ff3b26"/><path d="M 373.34,380.49 L 427.94,221.90 A 167.73,167.73 0 0,1 437.79,225.64 Z" fill="#ff4626"/><path d="M 373.34,380.49 L 436.17,224.97 A 167.73,167.73 0 0,1 445.81,229.22 Z" fill="#ff5126"/><path d="M 373.34,380.49 L 444.22,228.47 A 167.73,167.73 0 0,1 453.63,233.22 Z" fill="#ff5c26"/><path d="M 373.34,380.49 L 452.08,232.39 A 167.73,167.73 0 0,1 461.22,237.63 Z" fill="#ff6726"/><path d="M 373.34,380.49 L 459.72,236.71 A 167.73,167.73 0 0,1 468.58,242.42 Z" fill="#ff7226"/><path d="M 373.34,380.49 L 467.13,241.43 A 167.73,167.73 0 0,1 475.68,247.60 Z" fill="#ff7c26"/><path d="M 373.34,380.49 L 474.28,246.53 A 167.73,167.73 0 0,1 482.49,253.13 Z" fill="#ff8726"/><path d="M 373.34,380.49 L 481.15,252.00 A 167.73,167.73 0 0,1 489.01,259.02 Z" fill="#ff9226"/><path d="M 373.34,380.49 L 487.73,257.82 A 167.73,167.73 0 0,1 495.21,265.24 Z" fill="#ff9d26"/><path d="M 373.34,380.49 L 493.99,263.97 A 167.73,167.73 0 0,1 501.07,271.78 Z" fill="#ffa826"/><path d="M 373.34,380.49 L 499.92,270.45 A 167.73,167.73 0 0,1 506.58,278.61 Z" fill="#ffb326"/><path d="M 373.34,380.49 L 505.51,277.22 A 167.73,167.73 0 0,1 511.73,285.73 Z" fill="#ffbd26"/><path d="M 373.34,380.49 L 510.73,284.28 A 167.73,167.73 0 0,1 516.50,293.10 Z" fill="#ffc826"/><path d="M 373.34,380.49 L 515.58,291.60 A 167.73,167.73 0 0,1 520.88,300.71 Z" fill="#ffd326"/><path d="M 373.34,380.49 L 520.04,299.17 A 167.73,167.73 0 0,1 524.85,308.54 Z" fill="#ffde26"/><path d="M 373.34,380.49 L 524.09,306.96 A 167.73,167.73 0 0,1 528.41,316.57 Z" fill="#ffe926"/><path d="M 373.34,380.49 L 527.73,314.95 A 167.73,167.73 0 0,1 531.54,324.77 Z" fill="#fff426"/><path d="M 373.34,380.49 L 530.95,323.12 A 167.73,167.73 0 0,1 534.24,333.13 Z" fill="#ffff26"/><path d="M 373.34,380.49 L 533.74,331.45 A 167.73,167.73 0 0,1 536.50,341.62 Z" fill="#f4ff26"/><path d="M 373.34,380.49 L 536.08,339.91 A 167.73,167.73 0 0,1 538.31,350.21 Z" fill="#e9ff26"/><path d="M 373.34,380.49 L 537.99,348.48 A 167.73,167.73 0 0,1 539.67,358.89 Z" fill="#deff26"/><path d="M 373.34,380.49 L 539.43,357.14 A 167.73,167.73 0 0,1 540.57,367.62 Z" fill="#d3ff26"/><path d="M 373.34,380.49 L 540.43,365.87 A 167.73,167.73 0 0,1 541.02,376.39 Z" fill="#c8ff26"/><path d="M 373.34,380.49 L 540.96,374.63 A 167.73,167.73 0 0,1 541.00,385.17 Z" fill="#bdff26"/><path d="M 373.34,380.49 L 541.04,383.42 A 167.73,167.73 0 0,1 540.53,393.94 Z" fill="#b3ff26"/><path d="M 373.34,380.49 L 540.66,392.19 A 167.73,167.73 0 0,1 539.59,402.67 Z" fill="#a8ff26"/><path d="M 373.34,380.49 L 539.82,400.93 A 167.73,167.73 0 0,1 538.20,411.34 Z" fill="#9dff26"/><path d="M 373.34,380.49 L 538.52,409.61 A 167.73,167.73 0 0,1 536.36,419.93 Z" fill="#92ff26"/><path d="M 373.34,380.49 L 536.77,418.22 A 167.73,167.73 0 0,1 534.08,428.41 Z" fill="#87ff26"/><path d="M 373.34,380.49 L 534.57,426.72 A 167.73,167.73 0 0,1 531.35,436.75 Z" fill="#7cff26"/><path d="M 373.34,380.49 L 531.93,435.10 A 167.73,167.73 0 0,1 528.19,444.95 Z" fill="#72ff26"/><path d="M 373.34,380.49 L 528.85,443.32 A 167.73,167.73 0 0,1 524.60,452.96 Z" fill="#67ff26"/><path d="M 373.34,380.49 L 525.35,451.37 A 167.73,167.73 0 0,1 520.60,460.78 Z" fill="#5cff26"/><path d="M 373.34,380.49 L 521.43,459.23 A 167.73,167.73 0 0,1 516.20,468.38 Z" fill="#51ff26"/><path d="M 373.34,380.49 L 517.11,466.88 A 167.73,167.73 0 0,1 511.40,475.73 Z" fill="#46ff26"/><path d="M 373.34,380.49 L 512.39,474.28 A 167.73,167.73 0 0,1 506.23,482.83 Z" fill="#3bff26"/><path d="M 373.34,380.49 L 507.29,481.43 A 167.73,167.73 0 0,1 500.69,489.64 Z" fill="#31ff26"/><path d="M 373.34,380.49 L 501.83,488.30 A 167.73,167.73 0 0,1 494.80,496.16 Z" fill="#26ff26"/><path d="M 373.34,380.49 L 496.01,494.88 A 167.73,167.73 0 0,1 488.58,502.36 Z" fill="#26ff31"/><path d="M 373.34,380.49 L 489.85,501.14 A 167.73,167.73 0 0,1 482.05,508.22 Z" fill="#26ff3b"/><path d="M 373.34,380.49 L 483.38,507.08 A 167.73,167.73 0 0,1 475.21,513.74 Z" fill="#26ff46"/><path d="M 373.34,380.49 L 476.60,512.66 A 167.73,167.73 0 0,1 468.10,518.89 Z" fill="#26ff51"/><path d="M 373.34,380.49 L 469.54,517.89 A 167.73,167.73 0 0,1 460.73,523.65 Z" fill="#26ff5c"/><path d="M 373.34,380.49 L 462.22,522.73 A 167.73,167.73 0 0,1 453.11,528.03 Z" fill="#26ff67"/><path d="M 373.34,380.49 L 454.65,527.19 A 167.73,167.73 0 0,1 445.28,532.01 Z" fill="#26ff72"/><path d="M 373.34,380.49 L 446.86,531.24 A 167.73,167.73 0 0,1 437.25,535.56 Z" fill="#26ff7c"/><path d="M 373.34,380.49 L 438.87,534.89 A 167.73,167.73 0 0,1 429.05,538.70 Z" fill="#26ff87"/><path d="M 373.34,380.49 L 430.70,538.10 A 167.73,167.73 0 0,1 420.69,541.39 Z" fill="#26ff92"/><path d="M 373.34,380.49 L 422.38,540.89 A 167.73,167.73 0 0,1 412.21,543.65 Z" fill="#26ff9d"/><path d="M 373.34,380.49 L 413.91,543.24 A 167.73,167.73 0 0,1 403.61,545.46 Z" fill="#26ffa8"/><path d="M 373.34,380.49 L 405.34,545.14 A 167.73,167.73 0 0,1 394.94,546.82 Z" fill="#26ffb3"/><path d="M 373.34,380.49 L 396.68,546.59 A 167.73,167.73 0 0,1 386.20,547.72 Z" fill="#26ffbd"/><path d="M 373.34,380.49 L 387.95,547.58 A 167.73,167.73 0 0,1 377.43,548.17 Z" fill="#26ffc8"/><path d="M 373.34,380.49 L 379.19,548.12 A 167.73,167.73 0 0,1 368.65,548.15 Z" fill="#26ffd3"/><path d="M 373.34,380.49 L 370.41,548.19 A 167.73,167.73 0 0,1 359.88,547.68 Z" fill="#26ffde"/><path d="M 373.34,380.49 L 361.64,547.81 A 167.73,167.73 0 0,1 351.15,546.75 Z" fill="#26ffe9"/><path d="M 373.34,380.49 L 352.89,546.97 A 167.73,167.73 0 0,1 342.48,545.36 Z" fill="#26fff4"/><path d="M 373.34,380.49 L 344.21,545.67 A 167.73,167.73 0 0,1 333.90,543.52 Z" fill="#26ffff"/><path d="M 373.34,380.49 L 335.60,543.92 A 167.73,167.73 0 0,1 325.42,541.23 Z" fill="#26f4ff"/><path d="M 373.34,380.49 L 327.10,541.72 A 167.73,167.73 0 0,1 317.07,538.50 Z" fill="#26e9ff"/><path d="M 373.34,380.49 L 318.73,539.08 A 167.73,167.73 0 0,1 308.88,535.34 Z" fill="#26deff"/><path d="M 373.34,380.49 L 310.50,536.01 A 167.73,167.73 0 0,1 300.86,531.75 Z" fill="#26d3ff"/><path d="M 373.34,380.49 L 302.45,532.50 A 167.73,167.73 0 0,1 293.04,527.75 Z" fill="#26c8ff"/><path d="M 373.34,380.49 L 294.59,528.59 A 167.73,167.73 0 0,1 285.45,523.35 Z" fill="#26bdff"/><path d="M 373.34,380.49 L 286.95,524.26 A 167.73,167.73 0 0,1 278.09,518.55 Z" fill="#26b3ff"/><path d="M 373.34,380.49 L 279.54,519.54 A 167.73,167.73 0 0,1 271.00,513.38 Z" fill="#26a8ff"/><path d="M 373.34,380.49 L 272.39,514.44 A 167.73,167.73 0 0,1 264.18,507.84 Z" fill="#269dff"/><path d="M 373.34,380.49 L 265.52,508.98 A 167.73,167.73 0 0,1 257.67,501.95 Z" fill="#2692ff"/><path d="M 373.34,380.49 L 258.94,503.16 A 167.73,167.73 0 0,1 251.47,495.73 Z" fill="#2687ff"/><path d="M 373.34,380.49 L 252.68,497.00 A 167.73,167.73 0 0,1 245.60,489.20 Z" fill="#267cff"/><path d="M 373.34,380.49 L 246.75,490.53 A 167.73,167.73 0 0,1 240.09,482.36 Z" fill="#2672ff"/><path d="M 373.34,380.49 L 241.16,483.75 A 167.73,167.73 0 0,1 234.94,475.25 Z" fill="#2667ff"/><path d="M 373.34,380.49 L 235.94,476.69 A 167.73,167.73 0 0,1 230.17,467.88 Z" fill="#265cff"/><path d="M 373.34,380.49 L 231.09,469.37 A 167.73,167.73 0 0,1 225.79,460.26 Z" fill="#2651ff"/><path d="M 373.34,380.49 L 226.64,461.81 A 167.73,167.73 0 0,1 221.82,452.43 Z" fill="#2646ff"/><path d="M 373.34,380.49 L 222.58,454.02 A 167.73,167.73 0 0,1 218.26,444.41 Z" fill="#263bff"/><path d="M 373.34,380.49 L 218.94,446.03 A 167.73,167.73 0 0,1 215.13,436.20 Z" fill="#2631ff"/><path d="M 373.34,380.49 L 215.72,437.86 A 167.73,167.73 0 0,1 212.43,427.85 Z" fill="#2626ff"/><path d="M 373.34,380.49 L 212.93,429.53 A 167.73,167.73 0 0,1 210.17,419.36 Z" fill="#3126ff"/><path d="M 373.34,380.49 L 210.59,421.07 A 167.73,167.73 0 0,1 208.36,410.77 Z" fill="#3b26ff"/><path d="M 373.34,380.49 L 208.69,412.49 A 167.73,167.73 0 0,1 207.00,402.09 Z" fill="#4626ff"/><path d="M 373.34,380.49 L 207.24,403.83 A 167.73,167.73 0 0,1 206.10,393.36 Z" fill="#5126ff"/><path d="M 373.34,380.49 L 206.24,395.11 A 167.73,167.73 0 0,1 205.66,384.59 Z" fill="#5c26ff"/><path d="M 373.34,380.49 L 205.71,386.34 A 167.73,167.73 0 0,1 205.67,375.80 Z" fill="#6726ff"/><path d="M 373.34,380.49 L 205.63,377.56 A 167.73,167.73 0 0,1 206.15,367.04 Z" fill="#7226ff"/><path d="M 373.34,380.49 L 206.01,368.79 A 167.73,167.73 0 0,1 207.08,358.30 Z" fill="#7c26ff"/><path d="M 373.34,380.49 L 206.86,360.05 A 167.73,167.73 0 0,1 208.47,349.63 Z" fill="#8726ff"/><path d="M 373.34,380.49 L 208.15,351.36 A 167.73,167.73 0 0,1 210.31,341.05 Z" fill="#9226ff"/><path d="M 373.34,380.49 L 209.90,342.76 A 167.73,167.73 0 0,1 212.60,332.57 Z" fill="#9d26ff"/><path d="M 373.34,380.49 L 212.10,334.26 A 167.73,167.73 0 0,1 215.32,324.22 Z" fill="#a826ff"/><path d="M 373.34,380.49 L 214.74,325.88 A 167.73,167.73 0 0,1 218.49,316.03 Z" fill="#b326ff"/><path d="M 373.34,380.49 L 217.82,317.65 A 167.73,167.73 0 0,1 222.07,308.01 Z" fill="#bd26ff"/><path d="M 373.34,380.49 L 221.32,309.60 A 167.73,167.73 0 0,1 226.07,300.20 Z" fill="#c826ff"/><path d="M 373.34,380.49 L 225.24,301.74 A 167.73,167.73 0 0,1 230.48,292.60 Z" fill="#d326ff"/><path d="M 373.34,380.49 L 229.56,294.10 A 167.73,167.73 0 0,1 235.27,285.24 Z" fill="#de26ff"/><path d="M 373.34,380.49 L 234.28,286.69 A 167.73,167.73 0 0,1 240.44,278.15 Z" fill="#e926ff"/><path d="M 373.34,380.49 L 239.38,279.55 A 167.73,167.73 0 0,1 245.98,271.33 Z" fill="#f426ff"/><path d="M 373.34,380.49 L 244.85,272.67 A 167.73,167.73 0 0,1 251.87,264.82 Z" fill="#ff26ff"/><path d="M 373.34,380.49 L 250.67,266.10 A 167.73,167.73 0 0,1 258.09,258.62 Z" fill="#ff26f4"/><path d="M 373.34,380.49 L 256.82,259.83 A 167.73,167.73 0 0,1 264.63,252.75 Z" fill="#ff26e9"/><path d="M 373.34,380.49 L 263.29,253.90 A 167.73,167.73 0 0,1 271.46,247.24 Z" fill="#ff26de"/><path d="M 373.34,380.49 L 270.07,248.31 A 167.73,167.73 0 0,1 278.57,242.09 Z" fill="#ff26d3"/><path d="M 373.34,380.49 L 277.13,243.09 A 167.73,167.73 0 0,1 285.95,237.32 Z" fill="#ff26c8"/><path d="M 373.34,380.49 L 284.45,238.24 A 167.73,167.73 0 0,1 293.56,232.94 Z" fill="#ff26bd"/><path d="M 373.34,380.49 L 292.02,233.79 A 167.73,167.73 0 0,1 301.39,228.97 Z" fill="#ff26b3"/><path d="M 373.34,380.49 L 299.81,229.73 A 167.73,167.73 0 0,1 309.42,225.41 Z" fill="#ff26a8"/><path d="M 373.34,380.49 L 307.80,226.09 A 167.73,167.73 0 0,1 317.62,222.28 Z" fill="#ff269d"/><path d="M 373.34,380.49 L 315.97,222.87 A 167.73,167.73 0 0,1 325.98,219.58 Z" fill="#ff2692"/><path d="M 373.34,380.49 L 324.30,220.09 A 167.73,167.73 0 0,1 334.46,217.32 Z" fill="#ff2687"/><path d="M 373.34,380.49 L 332.76,217.74 A 167.73,167.73 0 0,1 343.06,215.51 Z" fill="#ff267c"/><path d="M 373.34,380.49 L 341.33,215.84 A 167.73,167.73 0 0,1 351.73,214.15 Z" fill="#ff2672"/><path d="M 373.34,380.49 L 349.99,214.39 A 167.73,167.73 0 0,1 360.47,213.25 Z" fill="#ff2667"/><path d="M 373.34,380.49 L 358.72,213.40 A 167.73,167.73 0 0,1 369.24,212.81 Z" fill="#ff265c"/><path d="M 373.34,380.49 L 367.48,212.86 A 167.73,167.73 0 0,1 378.02,212.82 Z" fill="#ff2651"/><path d="M 373.34,380.49 L 376.26,212.78 A 167.73,167.73 0 0,1 386.79,213.30 Z" fill="#ff2646"/><path d="M 373.34,380.49 L 385.04,213.17 A 167.73,167.73 0 0,1 395.52,214.23 Z" fill="#ff263b"/><path d="M 373.34,380.49 L 393.78,214.01 A 167.73,167.73 0 0,1 404.19,215.62 Z" fill="#ff2631"/><circle cx="373.34" cy="380.49" r="50.32" fill="#000000"/><path d="M 370.20,344.68 A 35.94,35.94 0 0,1 372.46,344.56" fill="none" stroke="#ff2626" stroke-width="12"/><path d="M 372.08,344.57 A 35.94,35.94 0 0,1 374.34,344.56" fill="none" stroke="#ff3126" stroke-width="12"/><path d="M 373.96,344.55 A 35.94,35.94 0 0,1 376.22,344.66" fill="none" stroke="#ff3b26" stroke-width="12"/><path d="M 375.84,344.63 A 35.94,35.94 0 0,1 378.09,344.86" fill="none" stroke="#ff4626" stroke-width="12"/><path d="M 377.72,344.81 A 35.94,35.94 0 0,1 379.95,345.16" fill="none" stroke="#ff5126" stroke-width="12"/><path d="M 379.58,345.09 A 35.94,35.94 0 0,1 381.79,345.55" fill="none" stroke="#ff5c26" stroke-width="12"/><path d="M 381.42,345.47 A 35.94,35.94 0 0,1 383.60,346.04" fill="none" stroke="#ff6726" stroke-width="12"/><path d="M 383.24,345.94 A 35.94,35.94 0 0,1 385.39,346.63" fill="none" stroke="#ff7226" stroke-width="12"/><path d="M 385.04,346.50 A 35.94,35.94 0 0,1 387.15,347.31" fill="none" stroke="#ff7c26" stroke-width="12"/><path d="M 386.80,347.16 A 35.94,35.94 0 0,1 388.87,348.07" fill="none" stroke="#ff8726" stroke-width="12"/><path d="M 388.53,347.91 A 35.94,35.94 0 0,1 390.54,348.93" fill="none" stroke="#ff9226" stroke-width="12"/><path d="M 390.21,348.75 A 35.94,35.94 0 0,1 392.17,349.88" fill="none" stroke="#ff9d26" stroke-width="12"/><path d="M 391.85,349.68 A 35.94,35.94 0 0,1 393.75,350.90" fill="none" stroke="#ffa826" stroke-width="12"/><path d="M 393.43,350.69 A 35.94,35.94 0 0,1 395.27,352.01" fill="none" stroke="#ffb326" stroke-width="12"/><path d="M 394.97,351.78 A 35.94,35.94 0 0,1 396.73,353.20" fill="none" stroke="#ffbd26" stroke-width="12"/><path d="M 396.44,352.95 A 35.94,35.94 0 0,1 398.12,354.46" fill="none" stroke="#ffc826" stroke-width="12"/><path d="M 397.85,354.20 A 35.94,35.94 0 0,1 399.45,355.79" fill="none" stroke="#ffd326" stroke-width="12"/><path d="M 399.19,355.52 A 35.94,35.94 0 0,1 400.71,357.19" fill="none" stroke="#ffde26" stroke-width="12"/><path d="M 400.46,356.91 A 35.94,35.94 0 0,1 401.89,358.66" fill="none" stroke="#ffe926" stroke-width="12"/><path d="M 401.66,358.36 A 35.94,35.94 0 0,1 402.99,360.18" fill="none" stroke="#fff426" stroke-width="12"/><path d="M 402.78,359.87 A 35.94,35.94 0 0,1 404.01,361.76" fill="none" stroke="#ffff26" stroke-width="12"/><path d="M 403.82,361.44 A 35.94,35.94 0 0,1 404.95,363.39" fill="none" stroke="#f4ff26" stroke-width="12"/><path d="M 404.77,363.06 A 35.94,35.94 0 0,1 405.80,365.07" fill="none" stroke="#e9ff26" stroke-width="12"/><path d="M 405.64,364.73 A 35.94,35.94 0 0,1 406.57,366.79" fill="none" stroke="#deff26" stroke-width="12"/><path d="M 406.42,366.44 A 35.94,35.94 0 0,1 407.24,368.55" fill="none" stroke="#d3ff26" stroke-width="12"/><path d="M 407.11,368.20 A 35.94,35.94 0 0,1 407.82,370.34" fill="none" stroke="#c8ff26" stroke-width="12"/><path d="M 407.71,369.98 A 35.94,35.94 0 0,1 408.30,372.16" fill="none" stroke="#bdff26" stroke-width="12"/><path d="M 408.21,371.79 A 35.94,35.94 0 0,1 408.69,374.00" fill="none" stroke="#b3ff26" stroke-width="12"/><path d="M 408.62,373.63 A 35.94,35.94 0 0,1 408.98,375.86" fill="none" stroke="#a8ff26" stroke-width="12"/><path d="M 408.93,375.49 A 35.94,35.94 0 0,1 409.17,377.73" fill="none" stroke="#9dff26" stroke-width="12"/><path d="M 409.14,377.36 A 35.94,35.94 0 0,1 409.27,379.61" fill="none" stroke="#92ff26" stroke-width="12"/><path d="M 409.26,379.23 A 35.94,35.94 0 0,1 409.26,381.49" fill="none" stroke="#87ff26" stroke-width="12"/><path d="M 409.27,381.12 A 35.94,35.94 0 0,1 409.16,383.37" fill="none" stroke="#7cff26" stroke-width="12"/><path d="M 409.19,383.00 A 35.94,35.94 0 0,1 408.96,385.24" fill="none" stroke="#72ff26" stroke-width="12"/><path d="M 409.01,384.87 A 35.94,35.94 0 0,1 408.67,387.10" fill="none" stroke="#67ff26" stroke-width="12"/><path d="M 408.73,386.73 A 35.94,35.94 0 0,1 408.27,388.94" fill="none" stroke="#5cff26" stroke-width="12"/><path d="M 408.36,388.57 A 35.94,35.94 0 0,1 407.78,390.76" fill="none" stroke="#51ff26" stroke-width="12"/><path d="M 407.89,390.40 A 35.94,35.94 0 0,1 407.20,392.55" fill="none" stroke="#46ff26" stroke-width="12"/><path d="M 407.32,392.19 A 35.94,35.94 0 0,1 406.52,394.30" fill="none" stroke="#3bff26" stroke-width="12"/><path d="M 406.66,393.95 A 35.94,35.94 0 0,1 405.75,396.02" fill="none" stroke="#31ff26" stroke-width="12"/><path d="M 405.91,395.68 A 35.94,35.94 0 0,1 404.89,397.69" fill="none" stroke="#26ff26" stroke-width="12"/><path d="M 405.07,397.36 A 35.94,35.94 0 0,1 403.95,399.32" fill="none" stroke="#26ff31" stroke-width="12"/><path d="M 404.14,399.00 A 35.94,35.94 0 0,1 402.92,400.90" fill="none" stroke="#26ff3b" stroke-width="12"/><path d="M 403.13,400.59 A 35.94,35.94 0 0,1 401.81,402.42" fill="none" stroke="#26ff46" stroke-width="12"/><path d="M 402.04,402.12 A 35.94,35.94 0 0,1 400.63,403.88" fill="none" stroke="#26ff51" stroke-width="12"/><path d="M 400.87,403.59 A 35.94,35.94 0 0,1 399.36,405.27" fill="none" stroke="#26ff5c" stroke-width="12"/><path d="M 399.62,405.00 A 35.94,35.94 0 0,1 398.03,406.60" fill="none" stroke="#26ff67" stroke-width="12"/><path d="M 398.30,406.34 A 35.94,35.94 0 0,1 396.63,407.86" fill="none" stroke="#26ff72" stroke-width="12"/><path d="M 396.92,407.61 A 35.94,35.94 0 0,1 395.17,409.04" fill="none" stroke="#26ff7c" stroke-width="12"/><path d="M 395.46,408.81 A 35.94,35.94 0 0,1 393.64,410.14" fill="none" stroke="#26ff87" stroke-width="12"/><path d="M 393.95,409.93 A 35.94,35.94 0 0,1 392.06,411.17" fill="none" stroke="#26ff92" stroke-width="12"/><path d="M 392.38,410.97 A 35.94,35.94 0 0,1 390.43,412.10" fill="none" stroke="#26ff9d" stroke-width="12"/><path d="M 390.76,411.92 A 35.94,35.94 0 0,1 388.75,412.96" fill="none" stroke="#26ffa8" stroke-width="12"/><path d="M 389.09,412.79 A 35.94,35.94 0 0,1 387.03,413.72" fill="none" stroke="#26ffb3" stroke-width="12"/><path d="M 387.38,413.57 A 35.94,35.94 0 0,1 385.27,414.39" fill="none" stroke="#26ffbd" stroke-width="12"/><path d="M 385.63,414.26 A 35.94,35.94 0 0,1 383.48,414.97" fill="none" stroke="#26ffc8" stroke-width="12"/><path d="M 383.84,414.86 A 35.94,35.94 0 0,1 381.67,415.45" fill="none" stroke="#26ffd3" stroke-width="12"/><path d="M 382.03,415.36 A 35.94,35.94 0 0,1 379.82,415.84" fill="none" stroke="#26ffde" stroke-width="12"/><path d="M 380.19,415.77 A 35.94,35.94 0 0,1 377.97,416.13" fill="none" stroke="#26ffe9" stroke-width="12"/><path d="M 378.34,416.08 A 35.94,35.94 0 0,1 376.09,416.32" fill="none" stroke="#26fff4" stroke-width="12"/><path d="M 376.47,416.29 A 35.94,35.94 0 0,1 374.21,416.42" fill="none" stroke="#26ffff" stroke-width="12"/><path d="M 374.59,416.41 A 35.94,35.94 0 0,1 372.33,416.42" fill="none" stroke="#26f4ff" stroke-width="12"/><path d="M 372.71,416.42 A 35.94,35.94 0 0,1 370.45,416.31" fill="none" stroke="#26e9ff" stroke-width="12"/><path d="M 370.83,416.34 A 35.94,35.94 0 0,1 368.58,416.11" fill="none" stroke="#26deff" stroke-width="12"/><path d="M 368.96,416.16 A 35.94,35.94 0 0,1 366.72,415.82" fill="none" stroke="#26d3ff" stroke-width="12"/><path d="M 367.09,415.88 A 35.94,35.94 0 0,1 364.88,415.42" fill="none" stroke="#26c8ff" stroke-width="12"/><path d="M 365.25,415.51 A 35.94,35.94 0 0,1 363.07,414.93" fill="none" stroke="#26bdff" stroke-width="12"/><path d="M 363.43,415.04 A 35.94,35.94 0 0,1 361.28,414.35" fill="none" stroke="#26b3ff" stroke-width="12"/><path d="M 361.63,414.47 A 35.94,35.94 0 0,1 359.52,413.67" fill="none" stroke="#26a8ff" stroke-width="12"/><path d="M 359.87,413.81 A 35.94,35.94 0 0,1 357.81,412.90" fill="none" stroke="#269dff" stroke-width="12"/><path d="M 358.15,413.06 A 35.94,35.94 0 0,1 356.13,412.04" fill="none" stroke="#2692ff" stroke-width="12"/><path d="M 356.46,412.22 A 35.94,35.94 0 0,1 354.50,411.10" fill="none" stroke="#2687ff" stroke-width="12"/><path d="M 354.82,411.30 A 35.94,35.94 0 0,1 352.93,410.07" fill="none" stroke="#267cff" stroke-width="12"/><path d="M 353.24,410.29 A 35.94,35.94 0 0,1 351.41,408.96" fill="none" stroke="#2672ff" stroke-width="12"/><path d="M 351.71,409.19 A 35.94,35.94 0 0,1 349.95,407.78" fill="none" stroke="#2667ff" stroke-width="12"/><path d="M 350.23,408.02 A 35.94,35.94 0 0,1 348.55,406.52" fill="none" stroke="#265cff" stroke-width="12"/><path d="M 348.82,406.77 A 35.94,35.94 0 0,1 347.22,405.18" fill="none" stroke="#2651ff" stroke-width="12"/><path d="M 347.48,405.46 A 35.94,35.94 0 0,1 345.96,403.78" fill="none" stroke="#2646ff" stroke-width="12"/><path d="M 346.21,404.07 A 35.94,35.94 0 0,1 344.78,402.32" fill="none" stroke="#263bff" stroke-width="12"/><path d="M 345.01,402.62 A 35.94,35.94 0 0,1 343.68,400.79" fill="none" stroke="#2631ff" stroke-width="12"/><path d="M 343.89,401.10 A 35.94,35.94 0 0,1 342.66,399.21" fill="none" stroke="#2626ff" stroke-width="12"/><path d="M 342.86,399.53 A 35.94,35.94 0 0,1 341.72,397.58" fill="none" stroke="#3126ff" stroke-width="12"/><path d="M 341.90,397.91 A 35.94,35.94 0 0,1 340.87,395.91" fill="none" stroke="#3b26ff" stroke-width="12"/><path d="M 341.03,396.24 A 35.94,35.94 0 0,1 340.11,394.18" fill="none" stroke="#4626ff" stroke-width="12"/><path d="M 340.25,394.53 A 35.94,35.94 0 0,1 339.43,392.43" fill="none" stroke="#5126ff" stroke-width="12"/><path d="M 339.56,392.78 A 35.94,35.94 0 0,1 338.86,390.64" fill="none" stroke="#5c26ff" stroke-width="12"/><path d="M 338.96,391.00 A 35.94,35.94 0 0,1 338.37,388.82" fill="none" stroke="#6726ff" stroke-width="12"/><path d="M 338.46,389.18 A 35.94,35.94 0 0,1 337.98,386.98" fill="none" stroke="#7226ff" stroke-width="12"/><path d="M 338.05,387.35 A 35.94,35.94 0 0,1 337.69,385.12" fill="none" stroke="#7c26ff" stroke-width="12"/><path d="M 337.74,385.49 A 35.94,35.94 0 0,1 337.50,383.25" fill="none" stroke="#8726ff" stroke-width="12"/><path d="M 337.53,383.62 A 35.94,35.94 0 0,1 337.40,381.37" fill="none" stroke="#9226ff" stroke-width="12"/><path d="M 337.42,381.74 A 35.94,35.94 0 0,1 337.41,379.48" fill="none" stroke="#9d26ff" stroke-width="12"/><path d="M 337.40,379.86 A 35.94,35.94 0 0,1 337.51,377.61" fill="none" stroke="#a826ff" stroke-width="12"/><path d="M 337.48,377.98 A 35.94,35.94 0 0,1 337.71,375.73" fill="none" stroke="#b326ff" stroke-width="12"/><path d="M 337.66,376.11 A 35.94,35.94 0 0,1 338.01,373.88" fill="none" stroke="#bd26ff" stroke-width="12"/><path d="M 337.94,374.25 A 35.94,35.94 0 0,1 338.40,372.04" fill="none" stroke="#c826ff" stroke-width="12"/><path d="M 338.32,372.40 A 35.94,35.94 0 0,1 338.89,370.22" fill="none" stroke="#d326ff" stroke-width="12"/><path d="M 338.79,370.58 A 35.94,35.94 0 0,1 339.48,368.43" fill="none" stroke="#de26ff" stroke-width="12"/><path d="M 339.35,368.79 A 35.94,35.94 0 0,1 340.15,366.68" fill="none" stroke="#e926ff" stroke-width="12"/><path d="M 340.01,367.02 A 35.94,35.94 0 0,1 340.92,364.96" fill="none" stroke="#f426ff" stroke-width="12"/><path d="M 340.76,365.30 A 35.94,35.94 0 0,1 341.78,363.28" fill="none" stroke="#ff26ff" stroke-width="12"/><path d="M 341.60,363.61 A 35.94,35.94 0 0,1 342.72,361.65" fill="none" stroke="#ff26f4" stroke-width="12"/><path d="M 342.53,361.98 A 35.94,35.94 0 0,1 343.75,360.08" fill="none" stroke="#ff26e9" stroke-width="12"/><path d="M 343.54,360.39 A 35.94,35.94 0 0,1 344.86,358.56" fill="none" stroke="#ff26de" stroke-width="12"/><path d="M 344.63,358.86 A 35.94,35.94 0 0,1 346.05,357.10" fill="none" stroke="#ff26d3" stroke-width="12"/><path d="M 345.80,357.38 A 35.94,35.94 0 0,1 347.31,355.70" fill="none" stroke="#ff26c8" stroke-width="12"/><path d="M 347.05,355.98 A 35.94,35.94 0 0,1 348.64,354.37" fill="none" stroke="#ff26bd" stroke-width="12"/><path d="M 348.37,354.63 A 35.94,35.94 0 0,1 350.04,353.12" fill="none" stroke="#ff26b3" stroke-width="12"/><path d="M 349.76,353.36 A 35.94,35.94 0 0,1 351.51,351.93" fill="none" stroke="#ff26a8" stroke-width="12"/><path d="M 351.21,352.17 A 35.94,35.94 0 0,1 353.03,350.83" fill="none" stroke="#ff269d" stroke-width="12"/><path d="M 352.72,351.05 A 35.94,35.94 0 0,1 354.61,349.81" fill="none" stroke="#ff2692" stroke-width="12"/><path d="M 354.29,350.01 A 35.94,35.94 0 0,1 356.24,348.87" fill="none" stroke="#ff2687" stroke-width="12"/><path d="M 355.91,349.05 A 35.94,35.94 0 0,1 357.92,348.02" fill="none" stroke="#ff267c" stroke-width="12"/><path d="M 357.58,348.18 A 35.94,35.94 0 0,1 359.64,347.26" fill="none" stroke="#ff2672" stroke-width="12"/><path d="M 359.29,347.40 A 35.94,35.94 0 0,1 361.40,346.59" fill="none" stroke="#ff2667" stroke-width="12"/><path d="M 361.04,346.71 A 35.94,35.94 0 0,1 363.19,346.01" fill="none" stroke="#ff265c" stroke-width="12"/><path d="M 362.83,346.12 A 35.94,35.94 0 0,1 365.01,345.52" fill="none" stroke="#ff2651" stroke-width="12"/><path d="M 364.64,345.61 A 35.94,35.94 0 0,1 366.85,345.14" fill="none" stroke="#ff2646" stroke-width="12"/><path d="M 366.48,345.21 A 35.94,35.94 0 0,1 368.71,344.85" fill="none" stroke="#ff263b" stroke-width="12"/><path d="M 368.33,344.90 A 35.94,35.94 0 0,1 370.58,344.65" fill="none" stroke="#ff2631" stroke-width="12"/><path d="M 366.46,370.67 A 11.98,11.98 0 0,1 367.09,370.26" fill="none" stroke="#ff2626" stroke-width="8"/><path d="M 366.99,370.33 A 11.98,11.98 0 0,1 367.64,369.95" fill="none" stroke="#ff3126" stroke-width="8"/><path d="M 367.53,370.01 A 11.98,11.98 0 0,1 368.20,369.67" fill="none" stroke="#ff3b26" stroke-width="8"/><path d="M 368.08,369.72 A 11.98,11.98 0 0,1 368.77,369.41" fill="none" stroke="#ff4626" stroke-width="8"/><path d="M 368.65,369.46 A 11.98,11.98 0 0,1 369.36,369.19" fill="none" stroke="#ff5126" stroke-width="8"/><path d="M 369.24,369.23 A 11.98,11.98 0 0,1 369.95,368.99" fill="none" stroke="#ff5c26" stroke-width="8"/><path d="M 369.83,369.03 A 11.98,11.98 0 0,1 370.56,368.83" fill="none" stroke="#ff6726" stroke-width="8"/><path d="M 370.44,368.86 A 11.98,11.98 0 0,1 371.17,368.70" fill="none" stroke="#ff7226" stroke-width="8"/><path d="M 371.05,368.73 A 11.98,11.98 0 0,1 371.79,368.61" fill="none" stroke="#ff7c26" stroke-width="8"/><path d="M 371.67,368.62 A 11.98,11.98 0 0,1 372.42,368.54" fill="none" stroke="#ff8726" stroke-width="8"/><path d="M 372.29,368.55 A 11.98,11.98 0 0,1 373.04,368.51" fill="none" stroke="#ff9226" stroke-width="8"/><path d="M 372.92,368.51 A 11.98,11.98 0 0,1 373.67,368.51" fill="none" stroke="#ff9d26" stroke-width="8"/><path d="M 373.55,368.51 A 11.98,11.98 0 0,1 374.30,368.55" fill="none" stroke="#ffa826" stroke-width="8"/><path d="M 374.17,368.54 A 11.98,11.98 0 0,1 374.92,368.61" fill="none" stroke="#ffb326" stroke-width="8"/><path d="M 374.80,368.60 A 11.98,11.98 0 0,1 375.54,368.71" fill="none" stroke="#ffbd26" stroke-width="8"/><path d="M 375.42,368.69 A 11.98,11.98 0 0,1 376.15,368.84" fill="none" stroke="#ffc826" stroke-width="8"/><path d="M 376.03,368.81 A 11.98,11.98 0 0,1 376.76,369.01" fill="none" stroke="#ffd326" stroke-width="8"/><path d="M 376.64,368.97 A 11.98,11.98 0 0,1 377.36,369.20" fill="none" stroke="#ffde26" stroke-width="8"/><path d="M 377.24,369.16 A 11.98,11.98 0 0,1 377.94,369.43" fill="none" stroke="#ffe926" stroke-width="8"/><path d="M 377.82,369.38 A 11.98,11.98 0 0,1 378.51,369.68" fill="none" stroke="#fff426" stroke-width="8"/><path d="M 378.40,369.63 A 11.98,11.98 0 0,1 379.07,369.97" fill="none" stroke="#ffff26" stroke-width="8"/><path d="M 378.96,369.91 A 11.98,11.98 0 0,1 379.61,370.28" fill="none" stroke="#f4ff26" stroke-width="8"/><path d="M 379.51,370.22 A 11.98,11.98 0 0,1 380.14,370.63" fill="none" stroke="#e9ff26" stroke-width="8"/><path d="M 380.04,370.56 A 11.98,11.98 0 0,1 380.65,371.00" fill="none" stroke="#deff26" stroke-width="8"/><path d="M 380.55,370.92 A 11.98,11.98 0 0,1 381.13,371.39" fill="none" stroke="#d3ff26" stroke-width="8"/><path d="M 381.04,371.31 A 11.98,11.98 0 0,1 381.60,371.81" fill="none" stroke="#c8ff26" stroke-width="8"/><path d="M 381.51,371.73 A 11.98,11.98 0 0,1 382.04,372.26" fill="none" stroke="#bdff26" stroke-width="8"/><path d="M 381.95,372.17 A 11.98,11.98 0 0,1 382.46,372.72" fill="none" stroke="#b3ff26" stroke-width="8"/><path d="M 382.38,372.63 A 11.98,11.98 0 0,1 382.85,373.21" fill="none" stroke="#a8ff26" stroke-width="8"/><path d="M 382.78,373.11 A 11.98,11.98 0 0,1 383.22,373.72" fill="none" stroke="#9dff26" stroke-width="8"/><path d="M 383.15,373.62 A 11.98,11.98 0 0,1 383.56,374.25" fill="none" stroke="#92ff26" stroke-width="8"/><path d="M 383.50,374.14 A 11.98,11.98 0 0,1 383.88,374.79" fill="none" stroke="#87ff26" stroke-width="8"/><path d="M 383.81,374.68 A 11.98,11.98 0 0,1 384.16,375.35" fill="none" stroke="#7cff26" stroke-width="8"/><path d="M 384.10,375.24 A 11.98,11.98 0 0,1 384.41,375.92" fill="none" stroke="#72ff26" stroke-width="8"/><path d="M 384.36,375.81 A 11.98,11.98 0 0,1 384.64,376.51" fill="none" stroke="#67ff26" stroke-width="8"/><path d="M 384.59,376.39 A 11.98,11.98 0 0,1 384.83,377.11" fill="none" stroke="#5cff26" stroke-width="8"/><path d="M 384.79,376.99 A 11.98,11.98 0 0,1 384.99,377.71" fill="none" stroke="#51ff26" stroke-width="8"/><path d="M 384.96,377.59 A 11.98,11.98 0 0,1 385.12,378.33" fill="none" stroke="#46ff26" stroke-width="8"/><path d="M 385.10,378.20 A 11.98,11.98 0 0,1 385.22,378.95" fill="none" stroke="#3bff26" stroke-width="8"/><path d="M 385.20,378.82 A 11.98,11.98 0 0,1 385.28,379.57" fill="none" stroke="#31ff26" stroke-width="8"/><path d="M 385.27,379.44 A 11.98,11.98 0 0,1 385.31,380.20" fill="none" stroke="#26ff26" stroke-width="8"/><path d="M 385.31,380.07 A 11.98,11.98 0 0,1 385.31,380.82" fill="none" stroke="#26ff31" stroke-width="8"/><path d="M 385.32,380.70 A 11.98,11.98 0 0,1 385.28,381.45" fill="none" stroke="#26ff3b" stroke-width="8"/><path d="M 385.29,381.32 A 11.98,11.98 0 0,1 385.21,382.07" fill="none" stroke="#26ff46" stroke-width="8"/><path d="M 385.23,381.95 A 11.98,11.98 0 0,1 385.11,382.69" fill="none" stroke="#26ff51" stroke-width="8"/><path d="M 385.13,382.57 A 11.98,11.98 0 0,1 384.98,383.31" fill="none" stroke="#26ff5c" stroke-width="8"/><path d="M 385.01,383.18 A 11.98,11.98 0 0,1 384.82,383.91" fill="none" stroke="#26ff67" stroke-width="8"/><path d="M 384.85,383.79 A 11.98,11.98 0 0,1 384.62,384.51" fill="none" stroke="#26ff72" stroke-width="8"/><path d="M 384.66,384.39 A 11.98,11.98 0 0,1 384.40,385.09" fill="none" stroke="#26ff7c" stroke-width="8"/><path d="M 384.44,384.98 A 11.98,11.98 0 0,1 384.14,385.66" fill="none" stroke="#26ff87" stroke-width="8"/><path d="M 384.19,385.55 A 11.98,11.98 0 0,1 383.86,386.22" fill="none" stroke="#26ff92" stroke-width="8"/><path d="M 383.91,386.11 A 11.98,11.98 0 0,1 383.54,386.77" fill="none" stroke="#26ff9d" stroke-width="8"/><path d="M 383.61,386.66 A 11.98,11.98 0 0,1 383.20,387.29" fill="none" stroke="#26ffa8" stroke-width="8"/><path d="M 383.27,387.19 A 11.98,11.98 0 0,1 382.83,387.80" fill="none" stroke="#26ffb3" stroke-width="8"/><path d="M 382.90,387.70 A 11.98,11.98 0 0,1 382.43,388.28" fill="none" stroke="#26ffbd" stroke-width="8"/><path d="M 382.51,388.19 A 11.98,11.98 0 0,1 382.01,388.75" fill="none" stroke="#26ffc8" stroke-width="8"/><path d="M 382.10,388.66 A 11.98,11.98 0 0,1 381.57,389.19" fill="none" stroke="#26ffd3" stroke-width="8"/><path d="M 381.66,389.11 A 11.98,11.98 0 0,1 381.10,389.61" fill="none" stroke="#26ffde" stroke-width="8"/><path d="M 381.20,389.53 A 11.98,11.98 0 0,1 380.61,390.01" fill="none" stroke="#26ffe9" stroke-width="8"/><path d="M 380.71,389.93 A 11.98,11.98 0 0,1 380.10,390.37" fill="none" stroke="#26fff4" stroke-width="8"/><path d="M 380.21,390.30 A 11.98,11.98 0 0,1 379.58,390.71" fill="none" stroke="#26ffff" stroke-width="8"/><path d="M 379.69,390.65 A 11.98,11.98 0 0,1 379.03,391.03" fill="none" stroke="#26f4ff" stroke-width="8"/><path d="M 379.14,390.97 A 11.98,11.98 0 0,1 378.48,391.31" fill="none" stroke="#26e9ff" stroke-width="8"/><path d="M 378.59,391.26 A 11.98,11.98 0 0,1 377.90,391.56" fill="none" stroke="#26deff" stroke-width="8"/><path d="M 378.02,391.52 A 11.98,11.98 0 0,1 377.32,391.79" fill="none" stroke="#26d3ff" stroke-width="8"/><path d="M 377.43,391.75 A 11.98,11.98 0 0,1 376.72,391.98" fill="none" stroke="#26c8ff" stroke-width="8"/><path d="M 376.84,391.95 A 11.98,11.98 0 0,1 376.11,392.14" fill="none" stroke="#26bdff" stroke-width="8"/><path d="M 376.23,392.11 A 11.98,11.98 0 0,1 375.50,392.27" fill="none" stroke="#26b3ff" stroke-width="8"/><path d="M 375.62,392.25 A 11.98,11.98 0 0,1 374.88,392.37" fill="none" stroke="#26a8ff" stroke-width="8"/><path d="M 375.00,392.35 A 11.98,11.98 0 0,1 374.26,392.43" fill="none" stroke="#269dff" stroke-width="8"/><path d="M 374.38,392.42 A 11.98,11.98 0 0,1 373.63,392.47" fill="none" stroke="#2692ff" stroke-width="8"/><path d="M 373.75,392.46 A 11.98,11.98 0 0,1 373.00,392.46" fill="none" stroke="#2687ff" stroke-width="8"/><path d="M 373.13,392.47 A 11.98,11.98 0 0,1 372.38,392.43" fill="none" stroke="#267cff" stroke-width="8"/><path d="M 372.50,392.44 A 11.98,11.98 0 0,1 371.75,392.36" fill="none" stroke="#2672ff" stroke-width="8"/><path d="M 371.88,392.38 A 11.98,11.98 0 0,1 371.13,392.26" fill="none" stroke="#2667ff" stroke-width="8"/><path d="M 371.26,392.29 A 11.98,11.98 0 0,1 370.52,392.13" fill="none" stroke="#265cff" stroke-width="8"/><path d="M 370.64,392.16 A 11.98,11.98 0 0,1 369.91,391.97" fill="none" stroke="#2651ff" stroke-width="8"/><path d="M 370.03,392.00 A 11.98,11.98 0 0,1 369.32,391.77" fill="none" stroke="#2646ff" stroke-width="8"/><path d="M 369.44,391.82 A 11.98,11.98 0 0,1 368.73,391.55" fill="none" stroke="#263bff" stroke-width="8"/><path d="M 368.85,391.60 A 11.98,11.98 0 0,1 368.16,391.29" fill="none" stroke="#2631ff" stroke-width="8"/><path d="M 368.27,391.35 A 11.98,11.98 0 0,1 367.60,391.01" fill="none" stroke="#2626ff" stroke-width="8"/><path d="M 367.71,391.07 A 11.98,11.98 0 0,1 367.06,390.69" fill="none" stroke="#3126ff" stroke-width="8"/><path d="M 367.17,390.76 A 11.98,11.98 0 0,1 366.53,390.35" fill="none" stroke="#3b26ff" stroke-width="8"/><path d="M 366.64,390.42 A 11.98,11.98 0 0,1 366.03,389.98" fill="none" stroke="#4626ff" stroke-width="8"/><path d="M 366.13,390.06 A 11.98,11.98 0 0,1 365.54,389.58" fill="none" stroke="#5126ff" stroke-width="8"/><path d="M 365.64,389.67 A 11.98,11.98 0 0,1 365.07,389.16" fill="none" stroke="#5c26ff" stroke-width="8"/><path d="M 365.17,389.25 A 11.98,11.98 0 0,1 364.63,388.72" fill="none" stroke="#6726ff" stroke-width="8"/><path d="M 364.72,388.81 A 11.98,11.98 0 0,1 364.21,388.25" fill="none" stroke="#7226ff" stroke-width="8"/><path d="M 364.29,388.35 A 11.98,11.98 0 0,1 363.82,387.76" fill="none" stroke="#7c26ff" stroke-width="8"/><path d="M 363.90,387.86 A 11.98,11.98 0 0,1 363.45,387.26" fill="none" stroke="#8726ff" stroke-width="8"/><path d="M 363.52,387.36 A 11.98,11.98 0 0,1 363.11,386.73" fill="none" stroke="#9226ff" stroke-width="8"/><path d="M 363.18,386.84 A 11.98,11.98 0 0,1 362.80,386.19" fill="none" stroke="#9d26ff" stroke-width="8"/><path d="M 362.86,386.30 A 11.98,11.98 0 0,1 362.51,385.63" fill="none" stroke="#a826ff" stroke-width="8"/><path d="M 362.57,385.74 A 11.98,11.98 0 0,1 362.26,385.05" fill="none" stroke="#b326ff" stroke-width="8"/><path d="M 362.31,385.17 A 11.98,11.98 0 0,1 362.04,384.47" fill="none" stroke="#bd26ff" stroke-width="8"/><path d="M 362.08,384.59 A 11.98,11.98 0 0,1 361.84,383.87" fill="none" stroke="#c826ff" stroke-width="8"/><path d="M 361.88,383.99 A 11.98,11.98 0 0,1 361.68,383.26" fill="none" stroke="#d326ff" stroke-width="8"/><path d="M 361.71,383.39 A 11.98,11.98 0 0,1 361.55,382.65" fill="none" stroke="#de26ff" stroke-width="8"/><path d="M 361.58,382.77 A 11.98,11.98 0 0,1 361.46,382.03" fill="none" stroke="#e926ff" stroke-width="8"/><path d="M 361.47,382.16 A 11.98,11.98 0 0,1 361.39,381.41" fill="none" stroke="#f426ff" stroke-width="8"/><path d="M 361.40,381.53 A 11.98,11.98 0 0,1 361.36,380.78" fill="none" stroke="#ff26ff" stroke-width="8"/><path d="M 361.36,380.91 A 11.98,11.98 0 0,1 361.36,380.15" fill="none" stroke="#ff26f4" stroke-width="8"/><path d="M 361.36,380.28 A 11.98,11.98 0 0,1 361.39,379.53" fill="none" stroke="#ff26e9" stroke-width="8"/><path d="M 361.38,379.65 A 11.98,11.98 0 0,1 361.46,378.90" fill="none" stroke="#ff26de" stroke-width="8"/><path d="M 361.44,379.03 A 11.98,11.98 0 0,1 361.56,378.28" fill="none" stroke="#ff26d3" stroke-width="8"/><path d="M 361.54,378.41 A 11.98,11.98 0 0,1 361.69,377.67" fill="none" stroke="#ff26c8" stroke-width="8"/><path d="M 361.66,377.79 A 11.98,11.98 0 0,1 361.85,377.07" fill="none" stroke="#ff26bd" stroke-width="8"/><path d="M 361.82,377.19 A 11.98,11.98 0 0,1 362.05,376.47" fill="none" stroke="#ff26b3" stroke-width="8"/><path d="M 362.01,376.59 A 11.98,11.98 0 0,1 362.28,375.88" fill="none" stroke="#ff26a8" stroke-width="8"/><path d="M 362.23,376.00 A 11.98,11.98 0 0,1 362.53,375.31" fill="none" stroke="#ff269d" stroke-width="8"/><path d="M 362.48,375.42 A 11.98,11.98 0 0,1 362.82,374.75" fill="none" stroke="#ff2692" stroke-width="8"/><path d="M 362.76,374.86 A 11.98,11.98 0 0,1 363.13,374.21" fill="none" stroke="#ff2687" stroke-width="8"/><path d="M 363.07,374.32 A 11.98,11.98 0 0,1 363.47,373.68" fill="none" stroke="#ff267c" stroke-width="8"/><path d="M 363.40,373.79 A 11.98,11.98 0 0,1 363.84,373.18" fill="none" stroke="#ff2672" stroke-width="8"/><path d="M 363.77,373.28 A 11.98,11.98 0 0,1 364.24,372.69" fill="none" stroke="#ff2667" stroke-width="8"/><path d="M 364.16,372.79 A 11.98,11.98 0 0,1 364.66,372.23" fill="none" stroke="#ff265c" stroke-width="8"/><path d="M 364.57,372.32 A 11.98,11.98 0 0,1 365.10,371.78" fill="none" stroke="#ff2651" stroke-width="8"/><path d="M 365.01,371.87 A 11.98,11.98 0 0,1 365.57,371.36" fill="none" stroke="#ff2646" stroke-width="8"/><path d="M 365.48,371.45 A 11.98,11.98 0 0,1 366.06,370.97" fill="none" stroke="#ff263b" stroke-width="8"/><path d="M 365.96,371.05 A 11.98,11.98 0 0,1 366.57,370.60" fill="none" stroke="#ff2631" stroke-width="8"/></svg>