<svg width="800" height="800" viewBox="0 0 1603.7 1603.7" xmlns="http://www.w3.org/2000/svg"><line x1="14.67" y1="670.54" x2="14.67" y2="933.21" stroke="#000000" stroke-width="10.00" stroke-linecap="round"/><line x1="41.36" y1="657.14" x2="41.36" y2="946.60" stroke="#000000" stroke-width="10.00" stroke-linecap="round"/><line x1="68.04" y1="645.26" x2="68.04" y2="958.48" stroke="#000000" stroke-width="10.00" stroke-linecap="round"/><line x1="94.73" y1="635.42" x2="94.73" y2="968.32" stroke="#000000" stroke-width="10.00" stroke-linecap="round"/><line x1="121.41" y1="628.05" x2="121.41" y2="975.69" stroke="#000000" stroke-width="10.00" stroke-linecap="round"/><line x1="148.10" y1="623.47" x2="148.10" y2="980.28" stroke="#000000" stroke-width="10.00" stroke-linecap="round"/><line x1="174.78" y1="621.87" x2="174.78" y2="981.87" stroke="#000000" stroke-width="10.00" stroke-linecap="round"/><line x1="201.47" y1="623.34" x2="201.47" y2="980.41" stroke="#000000" stroke-width="10.00" stroke-linecap="round"/><line x1="228.15" y1="627.80" x2="228.15" y2="975.95" stroke="#000000" stroke-width="10.00" stroke-linecap="round"/><line x1="254.84" y1="635.06" x2="254.84" y2="968.69" stroke="#000000" stroke-width="10.00" stroke-linecap="round"/><line x1="281.52" y1="644.80" x2="281.52" y2="958.94" stroke="#000000" stroke-width="10.00" stroke-linecap="round"/><line x1="308.20" y1="656.60" x2="308.20" y2="947.14" stroke="#000000" stroke-width="10.00" stroke-linecap="round"/><line x1="334.89" y1="669.95" x2="334.89" y2="933.80" stroke="#000000" stroke-width="10.00" stroke-linecap="round"/><line x1="361.57" y1="684.25" x2="361.57" y2="919.50" stroke="#000000" stroke-width="10.00" stroke-linecap="round"/><line x1="388.26" y1="698.88" x2="388.26" y2="904.86" stroke="#000000" stroke-width="10.00" stroke-linecap="round"/><line x1="414.94" y1="713.21" x2="414.94" y2="890.54" stroke="#000000" stroke-width="10.00" stroke-linecap="round"/><line x1="441.63" y1="726.60" x2="441.63" y2="877.14" stroke="#000000" stroke-width="10.00" stroke-linecap="round"/><line x1="468.31" y1="738.48" x2="468.31" y2="865.26" stroke="#000000" stroke-width="10.00" stroke-linecap="round"/><line x1="495.00" y1="748.32" x2="495.00" y2="855.42" stroke="#000000" stroke-width="10.00" stroke-linecap="round"/><line x1="521.68" y1="755.69" x2="521.68" y2="848.05" stroke="#000000" stroke-width="10.00" stroke-linecap="round"/><line x1="548.37" y1="760.28" x2="548.37" y2="843.47" stroke="#000000" stroke-width="10.00" stroke-linecap="round"/><line x1="575.05" y1="761.87" x2="575.05" y2="841.87" stroke="#000000" stroke-width="10.00" stroke-linecap="round"/><line x1="601.74" y1="760.41" x2="601.74" y2="843.34" stroke="#000000" stroke-width="10.00" stroke-linecap="round"/><line x1="628.42" y1="755.95" x2="628.42" y2="847.80" stroke="#000000" stroke-width="10.00" stroke-linecap="round"/><line x1="655.11" y1="748.69" x2="655.11" y2="855.06" stroke="#000000" stroke-width="10.00" stroke-linecap="round"/><line x1="681.79" y1="738.94" x2="681.79" y2="864.80" stroke="#000000" stroke-width="10.00" stroke-linecap="round"/><line x1="708.48" y1="727.14" x2="708.48" y2="876.60" stroke="#000000" stroke-width="10.00" stroke-linecap="round"/><line x1="735.16" y1="713.80" x2="735.16" y2="889.95" stroke="#000000" stroke-width="10.00" stroke-linecap="round"/><line x1="761.85" y1="699.50" x2="761.85" y2="904.25" stroke="#000000" stroke-width="10.00" stroke-linecap="round"/><line x1="788.53" y1="684.86" x2="788.53" y2="918.88" stroke="#000000" stroke-width="10.00" stroke-linecap="round"/><line x1="815.21" y1="670.54" x2="815.21" y2="933.21" stroke="#000000" stroke-width="10.00" stroke-linecap="round"/><line x1="841.90" y1="657.14" x2="841.90" y2="946.60" stroke="#000000" stroke-width="10.00" stroke-linecap="round"/><line x1="868.58" y1="645.26" x2="868.58" y2="958.48" stroke="#000000" stroke-width="10.00" stroke-linecap="round"/><line x1="895.27" y1="635.42" x2="895.27" y2="968.32" stroke="#000000" stroke-width="10.00" stroke-linecap="round"/><line x1="921.95" y1="628.05" x2="921.95" y2="975.69" stroke="#000000" stroke-width="10.00" stroke-linecap="round"/><line x1="948.64" y1="623.47" x2="948.64" y2="980.28" stroke="#000000" stroke-width="10.00" stroke-linecap="round"/><line x1="975.32" y1="621.87" x2="975.32" y2="981.87" stroke="#000000" stroke-width="10.00" stroke-linecap="round"/><line x1="1002.01" y1="623.34" x2="1002.01" y2="980.41" stroke="#000000" stroke-width="10.00" stroke-linecap="round"/><line x1="1028.69" y1="627.80" x2="1028.69" y2="975.95" stroke="#000000" stroke-width="10.00" stroke-linecap="round"/><line x1="1055.38" y1="635.06" x2="1055.38" y2="968.69" stroke="#000000" stroke-width="10.00" stroke-linecap="round"/><line x1="1082.06" y1="644.80" x2="1082.06" y2="958.94" stroke="#000000" stroke-width="10.00" stroke-linecap="round"/><line x1="1108.75" y1="656.60" x2="1108.75" y2="947.14" stroke="#000000" stroke-width="10.00" stroke-linecap="round"/><line x1="1135.43" y1="669.95" x2="1135.43" y2="933.80" stroke="#000000" stroke-width="10.00" stroke-linecap="round"/><line x1="1162.12" y1="684.25" x2="1162.12" y2="919.50" stroke="#000000" stroke-width="10.00" stroke-linecap="round"/><line x1="1188.80" y1="698.88" x2="1188.80" y2="904.86" stroke="#000000" stroke-width="10.00" stroke-linecap="round"/><line x1="1215.49" y1="713.21" x2="1215.49" y2="890.54" stroke="#000000" stroke-width="10.00" stroke-linecap="round"/><line x1="1242.17" y1="726.60" x2="1242.17" y2="877.14" stroke="#000000" stroke-width="10.00" stroke-linecap="round"/><line x1="1268.86" y1="738.48" x2="1268.86" y2="865.26" stroke="#000000" stroke-width="10.00" stroke-linecap="round"/><line x1="1295.54" y1="748.32" x2="1295.54" y2="855.42" stroke="#000000" stroke-width="10.00" stroke-linecap="round"/><line x1="1322.23" y1="755.69" x2="1322.23" y2="848.05" stroke="#000000" stroke-width="10.00" stroke-linecap="round"/><line x1="1348.91" y1="760.28" x2="1348.91" y2="843.47" stroke="#000000" stroke-width="10.00" stroke-linecap="round"/><line x1="1375.59" y1="761.87" x2="1375.59" y2="841.87" stroke="#000000" stroke-width="10.00" stroke-linecap="round"/><line x1="1402.28" y1="760.41" x2="1402.28" y2="843.34" stroke="#000000" stroke-width="10.00" stroke-linecap="round"/><line x1="1428.96" y1="755.95" x2="1428.96" y2="847.80" stroke="#000000" stroke-width="10.00" stroke-linecap="round"/><line x1="1455.65" y1="748.69" x2="1455.65" y2="855.06" stroke="#000000" stroke-width="10.00" stroke-linecap="round"/><line x1="1482.33" y1="738.94" x2="1482.33" y2="864.80" stroke="#000000" stroke-width="10.00" stroke-linecap="round"/><line x1="1509.02" y1="727.14" x2="1509.02" y2="876.60" stroke="#000000" stroke-width="10.00" stroke-linecap="round"/><line x1="1535.70" y1="713.80" x2="1535.70" y2="889.95" stroke="#000000" stroke-width="10.00" stroke-linecap="round"/><line x1="1562.39" y1="699.50" x2="1562.39" y2="904.25" stroke="#000000" stroke-width="10.00" stroke-linecap="round"/><line x1="1589.07" y1="684.86" x2="1589.07" y2="918.88" stroke="#000000" stroke-width="10.00" stroke-linecap="round"/><line x1="14.67" y1="670.54" x2="14.67" y2="609.65" stroke="#000000" stroke-width="23.35" stroke-linecap="round"/><line x1="41.36" y1="657.14" x2="41.36" y2="582.57" stroke="#000000" stroke-width="23.35" stroke-linecap="round"/><line x1="68.04" y1="645.26" x2="68.04" y2="588.49" stroke="#000000" stroke-width="23.35" stroke-linecap="round"/><line x1="94.73" y1="635.42" x2="94.73" y2="571.59" stroke="#000000" stroke-width="23.35" stroke-linecap="round"/><line x1="121.41" y1="628.05" x2="121.41" y2="588.22" stroke="#000000" stroke-width="23.35" stroke-linecap="round"/><line x1="148.10" y1="623.47" x2="148.10" y2="594.74" stroke="#000000" stroke-width="23.35" stroke-linecap="round"/><line x1="174.78" y1="621.87" x2="174.78" y2="553.16" stroke="#000000" stroke-width="23.35" stroke-linecap="round"/><line x1="201.47" y1="623.34" x2="201.47" y2="554.15" stroke="#000000" stroke-width="23.35" stroke-linecap="round"/><line x1="228.15" y1="627.80" x2="228.15" y2="578.74" stroke="#000000" stroke-width="23.35" stroke-linecap="round"/><line x1="254.84" y1="635.06" x2="254.84" y2="618.70" stroke="#000000" stroke-width="23.35" stroke-linecap="round"/><line x1="281.52" y1="644.80" x2="281.52" y2="619.76" stroke="#000000" stroke-width="23.35" stroke-linecap="round"/><line x1="308.20" y1="656.60" x2="308.20" y2="643.04" stroke="#000000" stroke-width="23.35" stroke-linecap="round"/><line x1="334.89" y1="669.95" x2="334.89" y2="648.68" stroke="#000000" stroke-width="23.35" stroke-linecap="round"/><line x1="361.57" y1="684.25" x2="361.57" y2="561.45" stroke="#000000" stroke-width="23.35" stroke-linecap="round"/><line x1="388.26" y1="698.88" x2="388.26" y2="573.88" stroke="#000000" stroke-width="23.35" stroke-linecap="round"/><line x1="414.94" y1="713.21" x2="414.94" y2="683.67" stroke="#000000" stroke-width="23.35" stroke-linecap="round"/><line x1="441.63" y1="726.60" x2="441.63" y2="691.08" stroke="#000000" stroke-width="23.35" stroke-linecap="round"/><line x1="468.31" y1="738.48" x2="468.31" y2="712.21" stroke="#000000" stroke-width="23.35" stroke-linecap="round"/><line x1="495.00" y1="748.32" x2="495.00" y2="729.35" stroke="#000000" stroke-width="23.35" stroke-linecap="round"/><line x1="521.68" y1="755.69" x2="521.68" y2="681.96" stroke="#000000" stroke-width="23.35" stroke-linecap="round"/><line x1="548.37" y1="760.28" x2="548.37" y2="625.85" stroke="#000000" stroke-width="23.35" stroke-linecap="round"/><line x1="575.05" y1="761.87" x2="575.05" y2="680.70" stroke="#000000" stroke-width="23.35" stroke-linecap="round"/><line x1="601.74" y1="760.41" x2="601.74" y2="736.48" stroke="#000000" stroke-width="23.35" stroke-linecap="round"/><line x1="628.42" y1="755.95" x2="628.42" y2="728.49" stroke="#000000" stroke-width="23.35" stroke-linecap="round"/><line x1="655.11" y1="748.69" x2="655.11" y2="643.21" stroke="#000000" stroke-width="23.35" stroke-linecap="round"/><line x1="681.79" y1="738.94" x2="681.79" y2="591.77" stroke="#000000" stroke-width="23.35" stroke-linecap="round"/><line x1="708.48" y1="727.14" x2="708.48" y2="711.26" stroke="#000000" stroke-width="23.35" stroke-linecap="round"/><line x1="735.16" y1="713.80" x2="735.16" y2="699.80" stroke="#000000" stroke-width="23.35" stroke-linecap="round"/><line x1="761.85" y1="699.50" x2="761.85" y2="642.46" stroke="#000000" stroke-width="23.35" stroke-linecap="round"/><line x1="788.53" y1="684.86" x2="788.53" y2="650.74" stroke="#000000" stroke-width="23.35" stroke-linecap="round"/><line x1="815.21" y1="670.54" x2="815.21" y2="659.38" stroke="#000000" stroke-width="23.35" stroke-linecap="round"/><line x1="841.90" y1="657.14" x2="841.90" y2="639.53" stroke="#000000" stroke-width="23.35" stroke-linecap="round"/><line x1="868.58" y1="645.26" x2="868.58" y2="631.14" stroke="#000000" stroke-width="23.35" stroke-linecap="round"/><line x1="895.27" y1="635.42" x2="895.27" y2="608.02" stroke="#000000" stroke-width="23.35" stroke-linecap="round"/><line x1="921.95" y1="628.05" x2="921.95" y2="586.43" stroke="#000000" stroke-width="23.35" stroke-linecap="round"/><line x1="948.64" y1="623.47" x2="948.64" y2="557.01" stroke="#000000" stroke-width="23.35" stroke-linecap="round"/><line x1="975.32" y1="621.87" x2="975.32" y2="512.27" stroke="#000000" stroke-width="23.35" stroke-linecap="round"/><line x1="1002.01" y1="623.34" x2="1002.01" y2="502.32" stroke="#000000" stroke-width="23.35" stroke-linecap="round"/><line x1="1028.69" y1="627.80" x2="1028.69" y2="468.88" stroke="#000000" stroke-width="23.35" stroke-linecap="round"/><line x1="1055.38" y1="635.06" x2="1055.38" y2="479.56" stroke="#000000" stroke-width="23.35" stroke-linecap="round"/><line x1="1082.06" y1="644.80" x2="1082.06" y2="520.98" stroke="#000000" stroke-width="23.35" stroke-linecap="round"/><line x1="1108.75" y1="656.60" x2="1108.75" y2="597.79" stroke="#000000" stroke-width="23.35" stroke-linecap="round"/><line x1="1135.43" y1="669.95" x2="1135.43" y2="609.14" stroke="#000000" stroke-width="23.35" stroke-linecap="round"/><line x1="1162.12" y1="684.25" x2="1162.12" y2="649.96" stroke="#000000" stroke-width="23.35" stroke-linecap="round"/><line x1="1188.80" y1="698.88" x2="1188.80" y2="682.72" stroke="#000000" stroke-width="23.35" stroke-linecap="round"/><line x1="1215.49" y1="713.21" x2="1215.49" y2="698.28" stroke="#000000" stroke-width="23.35" stroke-linecap="round"/><line x1="1242.17" y1="726.60" x2="1242.17" y2="710.45" stroke="#000000" stroke-width="23.35" stroke-linecap="round"/><line x1="1268.86" y1="738.48" x2="1268.86" y2="719.09" stroke="#000000" stroke-width="23.35" stroke-linecap="round"/><line x1="1295.54" y1="748.32" x2="1295.54" y2="736.22" stroke="#000000" stroke-width="23.35" stroke-linecap="round"/><line x1="1322.23" y1="755.69" x2="1322.23" y2="735.26" stroke="#000000" stroke-width="23.35" stroke-linecap="round"/><line x1="1348.91" y1="760.28" x2="1348.91" y2="719.82" stroke="#000000" stroke-width="23.35" stroke-linecap="round"/><line x1="1375.59" y1="761.87" x2="1375.59" y2="684.58" stroke="#000000" stroke-width="23.35" stroke-linecap="round"/><line x1="1402.28" y1="760.41" x2="1402.28" y2="674.29" stroke="#000000" stroke-width="23.35" stroke-linecap="round"/><line x1="1428.96" y1="755.95" x2="1428.96" y2="673.67" stroke="#000000" stroke-width="23.35" stroke-linecap="round"/><line x1="1455.65" y1="748.69" x2="1455.65" y2="689.25" stroke="#000000" stroke-width="23.35" stroke-linecap="round"/><line x1="1482.33" y1="738.94" x2="1482.33" y2="707.74" stroke="#000000" stroke-width="23.35" stroke-linecap="round"/><line x1="1509.02" y1="727.14" x2="1509.02" y2="702.99" stroke="#000000" stroke-width="23.35" stroke-linecap="round"/><line x1="1535.70" y1="713.80" x2="1535.70" y2="686.10" stroke="#000000" stroke-width="23.35" stroke-linecap="round"/><line x1="1562.39" y1="699.50" x2="1562.39" y2="683.65" stroke="#000000" stroke-width="23.35" stroke-linecap="round"/><line x1="1589.07" y1="684.86" x2="1589.07" y2="676.09" stroke="#000000" stroke-width="23.35" stroke-linecap="round"/><line x1="14.67" y1="933.21" x2="14.67" y2="994.09" stroke="#000000" stroke-width="23.35" stroke-linecap="round"/><line x1="41.36" y1="946.60" x2="41.36" y2="1021.18" stroke="#000000" stroke-width="23.35" stroke-linecap="round"/><line x1="68.04" y1="958.48" x2="68.04" y2="1015.26" stroke="#000000" stroke-width="23.35" stroke-linecap="round"/><line x1="94.73" y1="968.32" x2="94.73" y2="1032.16" stroke="#000000" stroke-width="23.35" stroke-linecap="round"/><line x1="121.41" y1="975.69" x2="121.41" y2="1015.52" stroke="#000000" stroke-width="23.35" stroke-linecap="round"/><line x1="148.10" y1="980.28" x2="148.10" y2="1009.01" stroke="#000000" stroke-width="23.35" stroke-linecap="round"/><line x1="174.78" y1="981.87" x2="174.78" y2="1050.59" stroke="#000000" stroke-width="23.35" stroke-linecap="round"/><line x1="201.47" y1="980.41" x2="201.47" y2="1049.59" stroke="#000000" stroke-width="23.35" stroke-linecap="round"/><line x1="228.15" y1="975.95" x2="228.15" y2="1025.01" stroke="#000000" stroke-width="23.35" stroke-linecap="round"/><line x1="254.84" y1="968.69" x2="254.84" y2="985.04" stroke="#000000" stroke-width="23.35" stroke-linecap="round"/><line x1="281.52" y1="958.94" x2="281.52" y2="983.99" stroke="#000000" stroke-width="23.35" stroke-linecap="round"/><line x1="308.20" y1="947.14" x2="308.20" y2="960.71" stroke="#000000" stroke-width="23.35" stroke-linecap="round"/><line x1="334.89" y1="933.80" x2="334.89" y2="955.06" stroke="#000000" stroke-width="23.35" stroke-linecap="round"/><line x1="361.57" y1="919.50" x2="361.57" y2="1042.29" stroke="#000000" stroke-width="23.35" stroke-linecap="round"/><line x1="388.26" y1="904.86" x2="388.26" y2="1029.86" stroke="#000000" stroke-width="23.35" stroke-linecap="round"/><line x1="414.94" y1="890.54" x2="414.94" y2="920.08" stroke="#000000" stroke-width="23.35" stroke-linecap="round"/><line x1="441.63" y1="877.14" x2="441.63" y2="912.67" stroke="#000000" stroke-width="23.35" stroke-linecap="round"/><line x1="468.31" y1="865.26" x2="468.31" y2="891.54" stroke="#000000" stroke-width="23.35" stroke-linecap="round"/><line x1="495.00" y1="855.42" x2="495.00" y2="874.40" stroke="#000000" stroke-width="23.35" stroke-linecap="round"/><line x1="521.68" y1="848.05" x2="521.68" y2="921.79" stroke="#000000" stroke-width="23.35" stroke-linecap="round"/><line x1="548.37" y1="843.47" x2="548.37" y2="977.90" stroke="#000000" stroke-width="23.35" stroke-linecap="round"/><line x1="575.05" y1="841.87" x2="575.05" y2="923.04" stroke="#000000" stroke-width="23.35" stroke-linecap="round"/><line x1="601.74" y1="843.34" x2="601.74" y2="867.26" stroke="#000000" stroke-width="23.35" stroke-linecap="round"/><line x1="628.42" y1="847.80" x2="628.42" y2="875.26" stroke="#000000" stroke-width="23.35" stroke-linecap="round"/><line x1="655.11" y1="855.06" x2="655.11" y2="960.53" stroke="#000000" stroke-width="23.35" stroke-linecap="round"/><line x1="681.79" y1="864.80" x2="681.79" y2="1011.97" stroke="#000000" stroke-width="23.35" stroke-linecap="round"/><line x1="708.48" y1="876.60" x2="708.48" y2="892.49" stroke="#000000" stroke-width="23.35" stroke-linecap="round"/><line x1="735.16" y1="889.95" x2="735.16" y2="903.94" stroke="#000000" stroke-width="23.35" stroke-linecap="round"/><line x1="761.85" y1="904.25" x2="761.85" y2="961.29" stroke="#000000" stroke-width="23.35" stroke-linecap="round"/><line x1="788.53" y1="918.88" x2="788.53" y2="953.01" stroke="#000000" stroke-width="23.35" stroke-linecap="round"/><line x1="815.21" y1="933.21" x2="815.21" y2="944.36" stroke="#000000" stroke-width="23.35" stroke-linecap="round"/><line x1="841.90" y1="946.60" x2="841.90" y2="964.22" stroke="#000000" stroke-width="23.35" stroke-linecap="round"/><line x1="868.58" y1="958.48" x2="868.58" y2="972.61" stroke="#000000" stroke-width="23.35" stroke-linecap="round"/><line x1="895.27" y1="968.32" x2="895.27" y2="995.73" stroke="#000000" stroke-width="23.35" stroke-linecap="round"/><line x1="921.95" y1="975.69" x2="921.95" y2="1017.31" stroke="#000000" stroke-width="23.35" stroke-linecap="round"/><line x1="948.64" y1="980.28" x2="948.64" y2="1046.74" stroke="#000000" stroke-width="23.35" stroke-linecap="round"/><line x1="975.32" y1="981.87" x2="975.32" y2="1091.48" stroke="#000000" stroke-width="23.35" stroke-linecap="round"/><line x1="1002.01" y1="980.41" x2="1002.01" y2="1101.42" stroke="#000000" stroke-width="23.35" stroke-linecap="round"/><line x1="1028.69" y1="975.95" x2="1028.69" y2="1134.86" stroke="#000000" stroke-width="23.35" stroke-linecap="round"/><line x1="1055.38" y1="968.69" x2="1055.38" y2="1124.18" stroke="#000000" stroke-width="23.35" stroke-linecap="round"/><line x1="1082.06" y1="958.94" x2="1082.06" y2="1082.77" stroke="#000000" stroke-width="23.35" stroke-linecap="round"/><line x1="1108.75" y1="947.14" x2="1108.75" y2="1005.96" stroke="#000000" stroke-width="23.35" stroke-linecap="round"/><line x1="1135.43" y1="933.80" x2="1135.43" y2="994.60" stroke="#000000" stroke-width="23.35" stroke-linecap="round"/><line x1="1162.12" y1="919.50" x2="1162.12" y2="953.79" stroke="#000000" stroke-width="23.35" stroke-linecap="round"/><line x1="1188.80" y1="904.86" x2="1188.80" y2="921.03" stroke="#000000" stroke-width="23.35" stroke-linecap="round"/><line x1="1215.49" y1="890.54" x2="1215.49" y2="905.47" stroke="#000000" stroke-width="23.35" stroke-linecap="round"/><line x1="1242.17" y1="877.14" x2="1242.17" y2="893.30" stroke="#000000" stroke-width="23.35" stroke-linecap="round"/><line x1="1268.86" y1="865.26" x2="1268.86" y2="884.66" stroke="#000000" stroke-width="23.35" stroke-linecap="round"/><line x1="1295.54" y1="855.42" x2="1295.54" y2="867.53" stroke="#000000" stroke-width="23.35" stroke-linecap="round"/><line x1="1322.23" y1="848.05" x2="1322.23" y2="868.48" stroke="#000000" stroke-width="23.35" stroke-linecap="round"/><line x1="1348.91" y1="843.47" x2="1348.91" y2="883.92" stroke="#000000" stroke-width="23.35" stroke-linecap="round"/><line x1="1375.59" y1="841.87" x2="1375.59" y2="919.17" stroke="#000000" stroke-width="23.35" stroke-linecap="round"/><line x1="1402.28" y1="843.34" x2="1402.28" y2="929.45" stroke="#000000" stroke-width="23.35" stroke-linecap="round"/><line x1="1428.96" y1="847.80" x2="1428.96" y2="930.08" stroke="#000000" stroke-width="23.35" stroke-linecap="round"/><line x1="1455.65" y1="855.06" x2="1455.65" y2="914.49" stroke="#000000" stroke-width="23.35" stroke-linecap="round"/><line x1="1482.33" y1="864.80" x2="1482.33" y2="896.00" stroke="#000000" stroke-width="23.35" stroke-linecap="round"/><line x1="1509.02" y1="876.60" x2="1509.02" y2="900.76" stroke="#000000" stroke-width="23.35" stroke-linecap="round"/><line x1="1535.70" y1="889.95" x2="1535.70" y2="917.64" stroke="#000000" stroke-width="23.35" stroke-linecap="round"/><line x1="1562.39" y1="904.25" x2="1562.39" y2="920.09" stroke="#000000" stroke-width="23.35" stroke-linecap="round"/><line x1="1589.07" y1="918.88" x2="1589.07" y2="927.65" stroke="#000000" stroke-width="23.35" stroke-linecap="round"/><line x1="14.67" y1="670.54" x2="14.67" y2="933.21" stroke="#ff3232" stroke-width="4.00" stroke-linecap="round"/><line x1="41.36" y1="657.14" x2="41.36" y2="946.60" stroke="#ff4732" stroke-width="4.00" stroke-linecap="round"/><line x1="68.04" y1="645.26" x2="68.04" y2="958.48" stroke="#ff5b32" stroke-width="4.00" stroke-linecap="round"/><line x1="94.73" y1="635.42" x2="94.73" y2="968.32" stroke="#ff7032" stroke-width="4.00" stroke-linecap="round"/><line x1="121.41" y1="628.05" x2="121.41" y2="975.69" stroke="#ff8432" stroke-width="4.00" stroke-linecap="round"/><line x1="148.10" y1="623.47" x2="148.10" y2="980.28" stroke="#ff9932" stroke-width="4.00" stroke-linecap="round"/><line x1="174.78" y1="621.87" x2="174.78" y2="981.87" stroke="#ffad32" stroke-width="4.00" stroke-linecap="round"/><line x1="201.47" y1="623.34" x2="201.47" y2="980.41" stroke="#ffc132" stroke-width="4.00" stroke-linecap="round"/><line x1="228.15" y1="627.80" x2="228.15" y2="975.95" stroke="#ffd632" stroke-width="4.00" stroke-linecap="round"/><line x1="254.84" y1="635.06" x2="254.84" y2="968.69" stroke="#ffea32" stroke-width="4.00" stroke-linecap="round"/><line x1="281.52" y1="644.80" x2="281.52" y2="958.94" stroke="#ffff32" stroke-width="4.00" stroke-linecap="round"/><line x1="308.20" y1="656.60" x2="308.20" y2="947.14" stroke="#eaff32" stroke-width="4.00" stroke-linecap="round"/><line x1="334.89" y1="669.95" x2="334.89" y2="933.80" stroke="#d6ff32" stroke-width="4.00" stroke-linecap="round"/><line x1="361.57" y1="684.25" x2="361.57" y2="919.50" stroke="#c1ff32" stroke-width="4.00" stroke-linecap="round"/><line x1="388.26" y1="698.88" x2="388.26" y2="904.86" stroke="#adff32" stroke-width="4.00" stroke-linecap="round"/><line x1="414.94" y1="713.21" x2="414.94" y2="890.54" stroke="#99ff32" stroke-width="4.00" stroke-linecap="round"/><line x1="441.63" y1="726.60" x2="441.63" y2="877.14" stroke="#84ff32" stroke-width="4.00" stroke-linecap="round"/><line x1="468.31" y1="738.48" x2="468.31" y2="865.26" stroke="#70ff32" stroke-width="4.00" stroke-linecap="round"/><line x1="495.00" y1="748.32" x2="495.00" y2="855.42" stroke="#5bff32" stroke-width="4.00" stroke-linecap="round"/><line x1="521.68" y1="755.69" x2="521.68" y2="848.05" stroke="#47ff32" stroke-width="4.00" stroke-linecap="round"/><line x1="548.37" y1="760.28" x2="548.37" y2="843.47" stroke="#32ff32" stroke-width="4.00" stroke-linecap="round"/><line x1="575.05" y1="761.87" x2="575.05" y2="841.87" stroke="#32ff47" stroke-width="4.00" stroke-linecap="round"/><line x1="601.74" y1="760.41" x2="601.74" y2="843.34" stroke="#32ff5b" stroke-width="4.00" stroke-linecap="round"/><line x1="628.42" y1="755.95" x2="628.42" y2="847.80" stroke="#32ff70" stroke-width="4.00" stroke-linecap="round"/><line x1="655.11" y1="748.69" x2="655.11" y2="855.06" stroke="#32ff84" stroke-width="4.00" stroke-linecap="round"/><line x1="681.79" y1="738.94" x2="681.79" y2="864.80" stroke="#32ff99" stroke-width="4.00" stroke-linecap="round"/><line x1="708.48" y1="727.14" x2="708.48" y2="876.60" stroke="#32ffad" stroke-width="4.00" stroke-linecap="round"/><line x1="735.16" y1="713.80" x2="735.16" y2="889.95" stroke="#32ffc1" stroke-width="4.00" stroke-linecap="round"/><line x1="761.85" y1="699.50" x2="761.85" y2="904.25" stroke="#32ffd6" stroke-width="4.00" stroke-linecap="round"/><line x1="788.53" y1="684.86" x2="788.53" y2="918.88" stroke="#32ffea" stroke-width="4.00" stroke-linecap="round"/><line x1="815.21" y1="670.54" x2="815.21" y2="933.21" stroke="#32ffff" stroke-width="4.00" stroke-linecap="round"/><line x1="841.90" y1="657.14" x2="841.90" y2="946.60" stroke="#32eaff" stroke-width="4.00" stroke-linecap="round"/><line x1="868.58" y1="645.26" x2="868.58" y2="958.48" stroke="#32d6ff" stroke-width="4.00" stroke-linecap="round"/><line x1="895.27" y1="635.42" x2="895.27" y2="968.32" stroke="#32c1ff" stroke-width="4.00" stroke-linecap="round"/><line x1="921.95" y1="628.05" x2="921.95" y2="975.69" stroke="#32adff" stroke-width="4.00" stroke-linecap="round"/><line x1="948.64" y1="623.47" x2="948.64" y2="980.28" stroke="#3299ff" stroke-width="4.00" stroke-linecap="round"/><line x1="975.32" y1="621.87" x2="975.32" y2="981.87" stroke="#3284ff" stroke-width="4.00" stroke-linecap="round"/><line x1="1002.01" y1="623.34" x2="1002.01" y2="980.41" stroke="#3270ff" stroke-width="4.00" stroke-linecap="round"/><line x1="1028.69" y1="627.80" x2="1028.69" y2="975.95" stroke="#325bff" stroke-width="4.00" stroke-linecap="round"/><line x1="1055.38" y1="635.06" x2="1055.38" y2="968.69" stroke="#3247ff" stroke-width="4.00" stroke-linecap="round"/><line x1="1082.06" y1="644.80" x2="1082.06" y2="958.94" stroke="#3232ff" stroke-width="4.00" stroke-linecap="round"/><line x1="1108.75" y1="656.60" x2="1108.75" y2="947.14" stroke="#4732ff" stroke-width="4.00" stroke-linecap="round"/><line x1="1135.43" y1="669.95" x2="1135.43" y2="933.80" stroke="#5b32ff" stroke-width="4.00" stroke-linecap="round"/><line x1="1162.12" y1="684.25" x2="1162.12" y2="919.50" stroke="#7032ff" stroke-width="4.00" stroke-linecap="round"/><line x1="1188.80" y1="698.88" x2="1188.80" y2="904.86" stroke="#8432ff" stroke-width="4.00" stroke-linecap="round"/><line x1="1215.49" y1="713.21" x2="1215.49" y2="890.54" stroke="#9932ff" stroke-width="4.00" stroke-linecap="round"/><line x1="1242.17" y1="726.60" x2="1242.17" y2="877.14" stroke="#ad32ff" stroke-width="4.00" stroke-linecap="round"/><line x1="1268.86" y1="738.48" x2="1268.86" y2="865.26" stroke="#c132ff" stroke-width="4.00" stroke-linecap="round"/><line x1="1295.54" y1="748.32" x2="1295.54" y2="855.42" stroke="#d632ff" stroke-width="4.00" stroke-linecap="round"/><line x1="1322.23" y1="755.69" x2="1322.23" y2="848.05" stroke="#ea32ff" stroke-width="4.00" stroke-linecap="round"/><line x1="1348.91" y1="760.28" x2="1348.91" y2="843.47" stroke="#ff32ff" stroke-width="4.00" stroke-linecap="round"/><line x1="1375.59" y1="761.87" x2="1375.59" y2="841.87" stroke="#ff32ea" stroke-width="4.00" stroke-linecap="round"/><line x1="1402.28" y1="760.41" x2="1402.28" y2="843.34" stroke="#ff32d6" stroke-width="4.00" stroke-linecap="round"/><line x1="1428.96" y1="755.95" x2="1428.96" y2="847.80" stroke="#ff32c1" stroke-width="4.00" stroke-linecap="round"/><line x1="1455.65" y1="748.69" x2="1455.65" y2="855.06" stroke="#ff32ad" stroke-width="4.00" stroke-linecap="round"/><line x1="1482.33" y1="738.94" x2="1482.33" y2="864.80" stroke="#ff3299" stroke-width="4.00" stroke-linecap="round"/><line x1="1509.02" y1="727.14" x2="1509.02" y2="876.60" stroke="#ff3284" stroke-width="4.00" stroke-linecap="round"/><line x1="1535.70" y1="713.80" x2="1535.70" y2="889.95" stroke="#ff3270" stroke-width="4.00" stroke-linecap="round"/><line x1="1562.39" y1="699.50" x2="1562.39" y2="904.25" stroke="#ff325b" stroke-width="4.00" stroke-linecap="round"/><line x1="1589.07" y1="684.86" x2="1589.07" y2="918.88" stroke="#ff3247" stroke-width="4.00" stroke-linecap="round"/><line x1="14.67" y1="670.54" x2="14.67" y2="609.65" stroke="#ff3232" stroke-width="17.35" stroke-linecap="round"/><line x1="41.36" y1="657.14" x2="41.36" y2="582.57" stroke="#ff4732" stroke-width="17.35" stroke-linecap="round"/><line x1="68.04" y1="645.26" x2="68.04" y2="588.49" stroke="#ff5b32" stroke-width="17.35" stroke-linecap="round"/><line x1="94.73" y1="635.42" x2="94.73" y2="571.59" stroke="#ff7032" stroke-width="17.35" stroke-linecap="round"/><line x1="121.41" y1="628.05" x2="121.41" y2="588.22" stroke="#ff8432" stroke-width="17.35" stroke-linecap="round"/><line x1="148.10" y1="623.47" x2="148.10" y2="594.74" stroke="#ff9932" stroke-width="17.35" stroke-linecap="round"/><line x1="174.78" y1="621.87" x2="174.78" y2="553.16" stroke="#ffad32" stroke-width="17.35" stroke-linecap="round"/><line x1="201.47" y1="623.34" x2="201.47" y2="554.15" stroke="#ffc132" stroke-width="17.35" stroke-linecap="round"/><line x1="228.15" y1="627.80" x2="228.15" y2="578.74" stroke="#ffd632" stroke-width="17.35" stroke-linecap="round"/><line x1="254.84" y1="635.06" x2="254.84" y2="618.70" stroke="#ffea32" stroke-width="17.35" stroke-linecap="round"/><line x1="281.52" y1="644.80" x2="281.52" y2="619.76" stroke="#ffff32" stroke-width="17.35" stroke-linecap="round"/><line x1="308.20" y1="656.60" x2="308.20" y2="643.04" stroke="#eaff32" stroke-width="17.35" stroke-linecap="round"/><line x1="334.89" y1="669.95" x2="334.89" y2="648.68" stroke="#d6ff32" stroke-width="17.35" stroke-linecap="round"/><line x1="361.57" y1="684.25" x2="361.57" y2="561.45" stroke="#c1ff32" stroke-width="17.35" stroke-linecap="round"/><line x1="388.26" y1="698.88" x2="388.26" y2="573.88" stroke="#adff32" stroke-width="17.35" stroke-linecap="round"/><line x1="414.94" y1="713.21" x2="414.94" y2="683.67" stroke="#99ff32" stroke-width="17.35" stroke-linecap="round"/><line x1="441.63" y1="726.60" x2="441.63" y2="691.08" stroke="#84ff32" stroke-width="17.35" stroke-linecap="round"/><line x1="468.31" y1="738.48" x2="468.31" y2="712.21" stroke="#70ff32" stroke-width="17.35" stroke-linecap="round"/><line x1="495.00" y1="748.32" x2="495.00" y2="729.35" stroke="#5bff32" stroke-width="17.35" stroke-linecap="round"/><line x1="521.68" y1="755.69" x2="521.68" y2="681.96" stroke="#47ff32" stroke-width="17.35" stroke-linecap="round"/><line x1="548.37" y1="760.28" x2="548.37" y2="625.85" stroke="#32ff32" stroke-width="17.35" stroke-linecap="round"/><line x1="575.05" y1="761.87" x2="575.05" y2="680.70" stroke="#32ff47" stroke-width="17.35" stroke-linecap="round"/><line x1="601.74" y1="760.41" x2="601.74" y2="736.48" stroke="#32ff5b" stroke-width="17.35" stroke-linecap="round"/><line x1="628.42" y1="755.95" x2="628.42" y2="728.49" stroke="#32ff70" stroke-width="17.35" stroke-linecap="round"/><line x1="655.11" y1="748.69" x2="655.11" y2="643.21" stroke="#32ff84" stroke-width="17.35" stroke-linecap="round"/><line x1="681.79" y1="738.94" x2="681.79" y2="591.77" stroke="#32ff99" stroke-width="17.35" stroke-linecap="round"/><line x1="708.48" y1="727.14" x2="708.48" y2="711.26" stroke="#32ffad" stroke-width="17.35" stroke-linecap="round"/><line x1="735.16" y1="713.80" x2="735.16" y2="699.80" stroke="#32ffc1" stroke-width="17.35" stroke-linecap="round"/><line x1="761.85" y1="699.50" x2="761.85" y2="642.46" stroke="#32ffd6" stroke-width="17.35" stroke-linecap="round"/><line x1="788.53" y1="684.86" x2="788.53" y2="650.74" stroke="#32ffea" stroke-width="17.35" stroke-linecap="round"/><line x1="815.21" y1="670.54" x2="815.21" y2="659.38" stroke="#32ffff" stroke-width="17.35" stroke-linecap="round"/><line x1="841.90" y1="657.14" x2="841.90" y2="639.53" stroke="#32eaff" stroke-width="17.35" stroke-linecap="round"/><line x1="868.58" y1="645.26" x2="868.58" y2="631.14" stroke="#32d6ff" stroke-width="17.35" stroke-linecap="round"/><line x1="895.27" y1="635.42" x2="895.27" y2="608.02" stroke="#32c1ff" stroke-width="17.35" stroke-linecap="round"/><line x1="921.95" y1="628.05" x2="921.95" y2="586.43" stroke="#32adff" stroke-width="17.35" stroke-linecap="round"/><line x1="948.64" y1="623.47" x2="948.64" y2="557.01" stroke="#3299ff" stroke-width="17.35" stroke-linecap="round"/><line x1="975.32" y1="621.87" x2="975.32" y2="512.27" stroke="#3284ff" stroke-width="17.35" stroke-linecap="round"/><line x1="1002.01" y1="623.34" x2="1002.01" y2="502.32" stroke="#3270ff" stroke-width="17.35" stroke-linecap="round"/><line x1="1028.69" y1="627.80" x2="1028.69" y2="468.88" stroke="#325bff" stroke-width="17.35" stroke-linecap="round"/><line x1="1055.38" y1="635.06" x2="1055.38" y2="479.56" stroke="#3247ff" stroke-width="17.35" stroke-linecap="round"/><line x1="1082.06" y1="644.80" x2="1082.06" y2="520.98" stroke="#3232ff" stroke-width="17.35" stroke-linecap="round"/><line x1="1108.75" y1="656.60" x2="1108.75" y2="597.79" stroke="#4732ff" stroke-width="17.35" stroke-linecap="round"/><line x1="1135.43" y1="669.95" x2="1135.43" y2="609.14" stroke="#5b32ff" stroke-width="17.35" stroke-linecap="round"/><line x1="1162.12" y1="684.25" x2="1162.12" y2="649.96" stroke="#7032ff" stroke-width="17.35" stroke-linecap="round"/><line x1="1188.80" y1="698.88" x2="1188.80" y2="682.72" stroke="#8432ff" stroke-width="17.35" stroke-linecap="round"/><line x1="1215.49" y1="713.21" x2="1215.49" y2="698.28" stroke="#9932ff" stroke-width="17.35" stroke-linecap="round"/><line x1="1242.17" y1="726.60" x2="1242.17" y2="710.45" stroke="#ad32ff" stroke-width="17.35" stroke-linecap="round"/><line x1="1268.86" y1="738.48" x2="1268.86" y2="719.09" stroke="#c132ff" stroke-width="17.35" stroke-linecap="round"/><line x1="1295.54" y1="748.32" x2="1295.54" y2="736.22" stroke="#d632ff" stroke-width="17.35" stroke-linecap="round"/><line x1="1322.23" y1="755.69" x2="1322.23" y2="735.26" stroke="#ea32ff" stroke-width="17.35" stroke-linecap="round"/><line x1="1348.91" y1="760.28" x2="1348.91" y2="719.82" stroke="#ff32ff" stroke-width="17.35" stroke-linecap="round"/><line x1="1375.59" y1="761.87" x2="1375.59" y2="684.58" stroke="#ff32ea" stroke-width="17.35" stroke-linecap="round"/><line x1="1402.28" y1="760.41" x2="1402.28" y2="674.29" stroke="#ff32d6" stroke-width="17.35" stroke-linecap="round"/><line x1="1428.96" y1="755.95" x2="1428.96" y2="673.67" stroke="#ff32c1" stroke-width="17.35" stroke-linecap="round"/><line x1="1455.65" y1="748.69" x2="1455.65" y2="689.25" stroke="#ff32ad" stroke-width="17.35" stroke-linecap="round"/><line x1="1482.33" y1="738.94" x2="1482.33" y2="707.74" stroke="#ff3299" stroke-width="17.35" stroke-linecap="round"/><line x1="1509.02" y1="727.14" x2="1509.02" y2="702.99" stroke="#ff3284" stroke-width="17.35" stroke-linecap="round"/><line x1="1535.70" y1="713.80" x2="1535.70" y2="686.10" stroke="#ff3270" stroke-width="17.35" stroke-linecap="round"/><line x1="1562.39" y1="699.50" x2="1562.39" y2="683.65" stroke="#ff325b" stroke-width="17.35" stroke-linecap="round"/><line x1="1589.07" y1="684.86" x2="1589.07" y2="676.09" stroke="#ff3247" stroke-width="17.35" stroke-linecap="round"/><line x1="14.67" y1="933.21" x2="14.67" y2="994.09" stroke="#ff3232" stroke-width="17.35" stroke-linecap="round"/><line x1="41.36" y1="946.60" x2="41.36" y2="1021.18" stroke="#ff4732" stroke-width="17.35" stroke-linecap="round"/><line x1="68.04" y1="958.48" x2="68.04" y2="1015.26" stroke="#ff5b32" stroke-width="17.35" stroke-linecap="round"/><line x1="94.73" y1="968.32" x2="94.73" y2="1032.16" stroke="#ff7032" stroke-width="17.35" stroke-linecap="round"/><line x1="121.41" y1="975.69" x2="121.41" y2="1015.52" stroke="#ff8432" stroke-width="17.35" stroke-linecap="round"/><line x1="148.10" y1="980.28" x2="148.10" y2="1009.01" stroke="#ff9932" stroke-width="17.35" stroke-linecap="round"/><line x1="174.78" y1="981.87" x2="174.78" y2="1050.59" stroke="#ffad32" stroke-width="17.35" stroke-linecap="round"/><line x1="201.47" y1="980.41" x2="201.47" y2="1049.59" stroke="#ffc132" stroke-width="17.35" stroke-linecap="round"/><line x1="228.15" y1="975.95" x2="228.15" y2="1025.01" stroke="#ffd632" stroke-width="17.35" stroke-linecap="round"/><line x1="254.84" y1="968.69" x2="254.84" y2="985.04" stroke="#ffea32" stroke-width="17.35" stroke-linecap="round"/><line x1="281.52" y1="958.94" x2="281.52" y2="983.99" stroke="#ffff32" stroke-width="17.35" stroke-linecap="round"/><line x1="308.20" y1="947.14" x2="308.20" y2="960.71" stroke="#eaff32" stroke-width="17.35" stroke-linecap="round"/><line x1="334.89" y1="933.80" x2="334.89" y2="955.06" stroke="#d6ff32" stroke-width="17.35" stroke-linecap="round"/><line x1="361.57" y1="919.50" x2="361.57" y2="1042.29" stroke="#c1ff32" stroke-width="17.35" stroke-linecap="round"/><line x1="388.26" y1="904.86" x2="388.26" y2="1029.86" stroke="#adff32" stroke-width="17.35" stroke-linecap="round"/><line x1="414.94" y1="890.54" x2="414.94" y2="920.08" stroke="#99ff32" stroke-width="17.35" stroke-linecap="round"/><line x1="441.63" y1="877.14" x2="441.63" y2="912.67" stroke="#84ff32" stroke-width="17.35" stroke-linecap="round"/><line x1="468.31" y1="865.26" x2="468.31" y2="891.54" stroke="#70ff32" stroke-width="17.35" stroke-linecap="round"/><line x1="495.00" y1="855.42" x2="495.00" y2="874.40" stroke="#5bff32" stroke-width="17.35" stroke-linecap="round"/><line x1="521.68" y1="848.05" x2="521.68" y2="921.79" stroke="#47ff32" stroke-width="17.35" stroke-linecap="round"/><line x1="548.37" y1="843.47" x2="548.37" y2="977.90" stroke="#32ff32" stroke-width="17.35" stroke-linecap="round"/><line x1="575.05" y1="841.87" x2="575.05" y2="923.04" stroke="#32ff47" stroke-width="17.35" stroke-linecap="round"/><line x1="601.74" y1="843.34" x2="601.74" y2="867.26" stroke="#32ff5b" stroke-width="17.35" stroke-linecap="round"/><line x1="628.42" y1="847.80" x2="628.42" y2="875.26" stroke="#32ff70" stroke-width="17.35" stroke-linecap="round"/><line x1="655.11" y1="855.06" x2="655.11" y2="960.53" stroke="#32ff84" stroke-width="17.35" stroke-linecap="round"/><line x1="681.79" y1="864.80" x2="681.79" y2="1011.97" stroke="#32ff99" stroke-width="17.35" stroke-linecap="round"/><line x1="708.48" y1="876.60" x2="708.48" y2="892.49" stroke="#32ffad" stroke-width="17.35" stroke-linecap="round"/><line x1="735.16" y1="889.95" x2="735.16" y2="903.94" stroke="#32ffc1" stroke-width="17.35" stroke-linecap="round"/><line x1="761.85" y1="904.25" x2="761.85" y2="961.29" stroke="#32ffd6" stroke-width="17.35" stroke-linecap="round"/><line x1="788.53" y1="918.88" x2="788.53" y2="953.01" stroke="#32ffea" stroke-width="17.35" stroke-linecap="round"/><line x1="815.21" y1="933.21" x2="815.21" y2="944.36" stroke="#32ffff" stroke-width="17.35" stroke-linecap="round"/><line x1="841.90" y1="946.60" x2="841.90" y2="964.22" stroke="#32eaff" stroke-width="17.35" stroke-linecap="round"/><line x1="868.58" y1="958.48" x2="868.58" y2="972.61" stroke="#32d6ff" stroke-width="17.35" stroke-linecap="round"/><line x1="895.27" y1="968.32" x2="895.27" y2="995.73" stroke="#32c1ff" stroke-width="17.35" stroke-linecap="round"/><line x1="921.95" y1="975.69" x2="921.95" y2="1017.31" stroke="#32adff" stroke-width="17.35" stroke-linecap="round"/><line x1="948.64" y1="980.28" x2="948.64" y2="1046.74" stroke="#3299ff" stroke-width="17.35" stroke-linecap="round"/><line x1="975.32" y1="981.87" x2="975.32" y2="1091.48" stroke="#3284ff" stroke-width="17.35" stroke-linecap="round"/><line x1="1002.01" y1="980.41" x2="1002.01" y2="1101.42" stroke="#3270ff" stroke-width="17.35" stroke-linecap="round"/><line x1="1028.69" y1="975.95" x2="1028.69" y2="1134.86" stroke="#325bff" stroke-width="17.35" stroke-linecap="round"/><line x1="1055.38" y1="968.69" x2="1055.38" y2="1124.18" stroke="#3247ff" stroke-width="17.35" stroke-linecap="round"/><line x1="1082.06" y1="958.94" x2="1082.06" y2="1082.77" stroke="#3232ff" stroke-width="17.35" stroke-linecap="round"/><line x1="1108.75" y1="947.14" x2="1108.75" y2="1005.96" stroke="#4732ff" stroke-width="17.35" stroke-linecap="round"/><line x1="1135.43" y1="933.80" x2="1135.43" y2="994.60" stroke="#5b32ff" stroke-width="17.35" stroke-linecap="round"/><line x1="1162.12" y1="919.50" x2="1162.12" y2="953.79" stroke="#7032ff" stroke-width="17.35" stroke-linecap="round"/><line x1="1188.80" y1="904.86" x2="1188.80" y2="921.03" stroke="#8432ff" stroke-width="17.35" stroke-linecap="round"/><line x1="1215.49" y1="890.54" x2="1215.49" y2="905.47" stroke="#9932ff" stroke-width="17.35" stroke-linecap="round"/><line x1="1242.17" y1="877.14" x2="1242.17" y2="893.30" stroke="#ad32ff" stroke-width="17.35" stroke-linecap="round"/><line x1="1268.86" y1="865.26" x2="1268.86" y2="884.66" stroke="#c132ff" stroke-width="17.35" stroke-linecap="round"/><line x1="1295.54" y1="855.42" x2="1295.54" y2="867.53" stroke="#d632ff" stroke-width="17.35" stroke-linecap="round"/><line x1="1322.23" y1="848.05" x2="1322.23" y2="868.48" stroke="#ea32ff" stroke-width="17.35" stroke-linecap="round"/><line x1="1348.91" y1="843.47" x2="1348.91" y2="883.92" stroke="#ff32ff" stroke-width="17.35" stroke-linecap="round"/><line x1="1375.59" y1="841.87" x2="1375.59" y2="919.17" stroke="#ff32ea" stroke-width="17.35" stroke-linecap="round"/><line x1="1402.28" y1="843.34" x2="1402.28" y2="929.45" stroke="#ff32d6" stroke-width="17.35" stroke-linecap="round"/><line x1="1428.96" y1="847.80" x2="1428.96" y2="930.08" stroke="#ff32c1" stroke-width="17.35" stroke-linecap="round"/><line x1="1455.65" y1="855.06" x2="1455.65" y2="914.49" stroke="#ff32ad" stroke-width="17.35" stroke-linecap="round"/><line x1="1482.33" y1="864.80" x2="1482.33" y2="896.00" stroke="#ff3299" stroke-width="17.35" stroke-linecap="round"/><line x1="1509.02" y1="876.60" x2="1509.02" y2="900.76" stroke="#ff3284" stroke-width="17.35" stroke-linecap="round"/><line x1="1535.70" y1="889.95" x2="1535.70" y2="917.64" stroke="#ff3270" stroke-width="17.35" stroke-linecap="round"/><line x1="1562.39" y1="904.25" x2="1562.39" y2="920.09" stroke="#ff325b" stroke-width="17.35" stroke-linecap="round"/><line x1="1589.07" y1="918.88" x2="1589.07" y2="927.65" stroke="#ff3247" stroke-width="17.35" stroke-linecap="round"/></svg>