<svg width="800" height="800" viewBox="0 0 1716.1 1716.1" xmlns="http://www.w3.org/2000/svg"><defs><linearGradient id="gradBase" x1="0%" y1="0%" x2="100%" y2="0%"><stop offset="0.0%" stop-color="#ff2626"/><stop offset="8.3%" stop-color="#ff9226"/><stop offset="16.7%" stop-color="#ffff26"/><stop offset="25.0%" stop-color="#92ff26"/><stop offset="33.3%" stop-color="#26ff26"/><stop offset="41.7%" stop-color="#26ff92"/><stop offset="50.0%" stop-color="#26ffff"/><stop offset="58.3%" stop-color="#2692ff"/><stop offset="66.7%" stop-color="#2626ff"/><stop offset="75.0%" stop-color="#9226ff"/><stop offset="83.3%" stop-color="#ff26ff"/><stop offset="91.7%" stop-color="#ff2692"/><stop offset="100.0%" stop-color="#ff2626"/></linearGradient></defs><rect x="12.03" y="926.44" width="1692.00" height="20.00" rx="10.00" ry="10.00" fill="#000000" stroke="#000000" stroke-width="6" stroke-linejoin="round"/><path d="M 3.00,926.44 C 3.00,926.44 3.00,745.24 42.03,745.24 C 81.06,745.24 81.06,926.44 81.06,926.44 L 81.06,946.44 C 81.06,946.44 81.06,1066.58 42.03,1066.58 C 3.00,1066.58 3.00,946.44 3.00,946.44 Z" fill="#000000" stroke="#000000" stroke-width="6" stroke-linejoin="round"/><path d="M 73.96,926.44 C 73.96,926.44 73.96,790.26 112.99,790.26 C 152.01,790.26 152.01,926.44 152.01,926.44 L 152.01,946.44 C 152.01,946.44 152.01,1036.56 112.99,1036.56 C 73.96,1036.56 73.96,946.44 73.96,946.44 Z" fill="#000000" stroke="#000000" stroke-width="6" stroke-linejoin="round"/><path d="M 144.92,926.44 C 144.92,926.44 144.92,705.90 183.94,705.90 C 222.97,705.90 222.97,926.44 222.97,926.44 L 222.97,946.44 C 222.97,946.44 222.97,1092.80 183.94,1092.80 C 144.92,1092.80 144.92,946.44 144.92,946.44 Z" fill="#000000" stroke="#000000" stroke-width="6" stroke-linejoin="round"/><path d="M 215.87,926.44 C 215.87,926.44 215.87,710.27 254.90,710.27 C 293.93,710.27 293.93,926.44 293.93,926.44 L 293.93,946.44 C 293.93,946.44 293.93,1089.89 254.90,1089.89 C 215.87,1089.89 215.87,946.44 215.87,946.44 Z" fill="#000000" stroke="#000000" stroke-width="6" stroke-linejoin="round"/><path d="M 286.83,926.44 C 286.83,926.44 286.83,825.93 325.86,825.93 C 364.88,825.93 364.88,926.44 364.88,926.44 L 364.88,946.44 C 364.88,946.44 364.88,1012.78 325.86,1012.78 C 286.83,1012.78 286.83,946.44 286.83,946.44 Z" fill="#000000" stroke="#000000" stroke-width="6" stroke-linejoin="round"/><path d="M 357.79,926.44 C 357.79,926.44 357.79,687.23 396.81,687.23 C 435.84,687.23 435.84,926.44 435.84,926.44 L 435.84,946.44 C 435.84,946.44 435.84,1105.25 396.81,1105.25 C 357.79,1105.25 357.79,946.44 357.79,946.44 Z" fill="#000000" stroke="#000000" stroke-width="6" stroke-linejoin="round"/><path d="M 428.74,926.44 C 428.74,926.44 428.74,457.94 467.77,457.94 C 506.80,457.94 506.80,926.44 506.80,926.44 L 506.80,946.44 C 506.80,946.44 506.80,1258.11 467.77,1258.11 C 428.74,1258.11 428.74,946.44 428.74,946.44 Z" fill="#000000" stroke="#000000" stroke-width="6" stroke-linejoin="round"/><path d="M 499.70,926.44 C 499.70,926.44 499.70,696.64 538.73,696.64 C 577.75,696.64 577.75,926.44 577.75,926.44 L 577.75,946.44 C 577.75,946.44 577.75,1098.97 538.73,1098.97 C 499.70,1098.97 499.70,946.44 499.70,946.44 Z" fill="#000000" stroke="#000000" stroke-width="6" stroke-linejoin="round"/><path d="M 570.66,926.44 C 570.66,926.44 570.66,679.02 609.68,679.02 C 648.71,679.02 648.71,926.44 648.71,926.44 L 648.71,946.44 C 648.71,946.44 648.71,1110.72 609.68,1110.72 C 570.66,1110.72 570.66,946.44 570.66,946.44 Z" fill="#000000" stroke="#000000" stroke-width="6" stroke-linejoin="round"/><path d="M 641.61,926.44 C 641.61,926.44 641.61,627.56 680.64,627.56 C 719.66,627.56 719.66,926.44 719.66,926.44 L 719.66,946.44 C 719.66,946.44 719.66,1145.03 680.64,1145.03 C 641.61,1145.03 641.61,946.44 641.61,946.44 Z" fill="#000000" stroke="#000000" stroke-width="6" stroke-linejoin="round"/><path d="M 712.57,926.44 C 712.57,926.44 712.57,823.85 751.60,823.85 C 790.62,823.85 790.62,926.44 790.62,926.44 L 790.62,946.44 C 790.62,946.44 790.62,1014.17 751.60,1014.17 C 712.57,1014.17 712.57,946.44 712.57,946.44 Z" fill="#000000" stroke="#000000" stroke-width="6" stroke-linejoin="round"/><path d="M 783.53,926.44 C 783.53,926.44 783.53,826.32 822.55,826.32 C 861.58,826.32 861.58,926.44 861.58,926.44 L 861.58,946.44 C 861.58,946.44 861.58,1012.52 822.55,1012.52 C 783.53,1012.52 783.53,946.44 783.53,946.44 Z" fill="#000000" stroke="#000000" stroke-width="6" stroke-linejoin="round"/><path d="M 854.48,926.44 C 854.48,926.44 854.48,819.97 893.51,819.97 C 932.53,819.97 932.53,926.44 932.53,926.44 L 932.53,946.44 C 932.53,946.44 932.53,1016.76 893.51,1016.76 C 854.48,1016.76 854.48,946.44 854.48,946.44 Z" fill="#000000" stroke="#000000" stroke-width="6" stroke-linejoin="round"/><path d="M 925.44,926.44 C 925.44,926.44 925.44,687.42 964.46,687.42 C 1003.49,687.42 1003.49,926.44 1003.49,926.44 L 1003.49,946.44 C 1003.49,946.44 1003.49,1105.12 964.46,1105.12 C 925.44,1105.12 925.44,946.44 925.44,946.44 Z" fill="#000000" stroke="#000000" stroke-width="6" stroke-linejoin="round"/><path d="M 996.40,926.44 C 996.40,926.44 996.40,679.92 1035.42,679.92 C 1074.45,679.92 1074.45,926.44 1074.45,926.44 L 1074.45,946.44 C 1074.45,946.44 1074.45,1110.12 1035.42,1110.12 C 996.40,1110.12 996.40,946.44 996.40,946.44 Z" fill="#000000" stroke="#000000" stroke-width="6" stroke-linejoin="round"/><path d="M 1067.35,926.44 C 1067.35,926.44 1067.35,713.33 1106.38,713.33 C 1145.40,713.33 1145.40,926.44 1145.40,926.44 L 1145.40,946.44 C 1145.40,946.44 1145.40,1087.85 1106.38,1087.85 C 1067.35,1087.85 1067.35,946.44 1067.35,946.44 Z" fill="#000000" stroke="#000000" stroke-width="6" stroke-linejoin="round"/><path d="M 1138.31,926.44 C 1138.31,926.44 1138.31,825.10 1177.33,825.10 C 1216.36,825.10 1216.36,926.44 1216.36,926.44 L 1216.36,946.44 C 1216.36,946.44 1216.36,1013.33 1177.33,1013.33 C 1138.31,1013.33 1138.31,946.44 1138.31,946.44 Z" fill="#000000" stroke="#000000" stroke-width="6" stroke-linejoin="round"/><path d="M 1209.26,926.44 C 1209.26,926.44 1209.26,876.47 1248.29,876.47 C 1287.32,876.47 1287.32,926.44 1287.32,926.44 L 1287.32,946.44 C 1287.32,946.44 1287.32,979.09 1248.29,979.09 C 1209.26,979.09 1209.26,946.44 1209.26,946.44 Z" fill="#000000" stroke="#000000" stroke-width="6" stroke-linejoin="round"/><path d="M 1280.22,926.44 C 1280.22,926.44 1280.22,842.12 1319.25,842.12 C 1358.27,842.12 1358.27,926.44 1358.27,926.44 L 1358.27,946.44 C 1358.27,946.44 1358.27,1001.99 1319.25,1001.99 C 1280.22,1001.99 1280.22,946.44 1280.22,946.44 Z" fill="#000000" stroke="#000000" stroke-width="6" stroke-linejoin="round"/><path d="M 1351.18,926.44 C 1351.18,926.44 1351.18,801.89 1390.20,801.89 C 1429.23,801.89 1429.23,926.44 1429.23,926.44 L 1429.23,946.44 C 1429.23,946.44 1429.23,1028.81 1390.20,1028.81 C 1351.18,1028.81 1351.18,946.44 1351.18,946.44 Z" fill="#000000" stroke="#000000" stroke-width="6" stroke-linejoin="round"/><path d="M 1422.13,926.44 C 1422.13,926.44 1422.13,757.76 1461.16,757.76 C 1500.19,757.76 1500.19,926.44 1500.19,926.44 L 1500.19,946.44 C 1500.19,946.44 1500.19,1058.23 1461.16,1058.23 C 1422.13,1058.23 1422.13,946.44 1422.13,946.44 Z" fill="#000000" stroke="#000000" stroke-width="6" stroke-linejoin="round"/><path d="M 1493.09,926.44 C 1493.09,926.44 1493.09,834.85 1532.12,834.85 C 1571.14,834.85 1571.14,926.44 1571.14,926.44 L 1571.14,946.44 C 1571.14,946.44 1571.14,1006.84 1532.12,1006.84 C 1493.09,1006.84 1493.09,946.44 1493.09,946.44 Z" fill="#000000" stroke="#000000" stroke-width="6" stroke-linejoin="round"/><path d="M 1564.05,926.44 C 1564.05,926.44 1564.05,815.57 1603.07,815.57 C 1642.10,815.57 1642.10,926.44 1642.10,926.44 L 1642.10,946.44 C 1642.10,946.44 1642.10,1019.68 1603.07,1019.68 C 1564.05,1019.68 1564.05,946.44 1564.05,946.44 Z" fill="#000000" stroke="#000000" stroke-width="6" stroke-linejoin="round"/><path d="M 1635.00,926.44 C 1635.00,926.44 1635.00,797.09 1674.03,797.09 C 1713.06,797.09 1713.06,926.44 1713.06,926.44 L 1713.06,946.44 C 1713.06,946.44 1713.06,1032.01 1674.03,1032.01 C 1635.00,1032.01 1635.00,946.44 1635.00,946.44 Z" fill="#000000" stroke="#000000" stroke-width="6" stroke-linejoin="round"/><rect x="12.03" y="926.44" width="1692.00" height="20.00" rx="10.00" ry="10.00" fill="url(#gradBase)"/><path d="M 3.00,926.44 C 3.00,926.44 3.00,745.24 42.03,745.24 C 81.06,745.24 81.06,926.44 81.06,926.44 L 81.06,946.44 C 81.06,946.44 81.06,1066.58 42.03,1066.58 C 3.00,1066.58 3.00,946.44 3.00,946.44 Z" fill="#ff2626"/><path d="M 73.96,926.44 C 73.96,926.44 73.96,790.26 112.99,790.26 C 152.01,790.26 152.01,926.44 152.01,926.44 L 152.01,946.44 C 152.01,946.44 152.01,1036.56 112.99,1036.56 C 73.96,1036.56 73.96,946.44 73.96,946.44 Z" fill="#ff5c26"/><path d="M 144.92,926.44 C 144.92,926.44 144.92,705.90 183.94,705.90 C 222.97,705.90 222.97,926.44 222.97,926.44 L 222.97,946.44 C 222.97,946.44 222.97,1092.80 183.94,1092.80 C 144.92,1092.80 144.92,946.44 144.92,946.44 Z" fill="#ff9226"/><path d="M 215.87,926.44 C 215.87,926.44 215.87,710.27 254.90,710.27 C 293.93,710.27 293.93,926.44 293.93,926.44 L 293.93,946.44 C 293.93,946.44 293.93,1089.89 254.90,1089.89 C 215.87,1089.89 215.87,946.44 215.87,946.44 Z" fill="#ffc826"/><path d="M 286.83,926.44 C 286.83,926.44 286.83,825.93 325.86,825.93 C 364.88,825.93 364.88,926.44 364.88,926.44 L 364.88,946.44 C 364.88,946.44 364.88,1012.78 325.86,1012.78 C 286.83,1012.78 286.83,946.44 286.83,946.44 Z" fill="#ffff26"/><path d="M 357.79,926.44 C 357.79,926.44 357.79,687.23 396.81,687.23 C 435.84,687.23 435.84,926.44 435.84,926.44 L 435.84,946.44 C 435.84,946.44 435.84,1105.25 396.81,1105.25 C 357.79,1105.25 357.79,946.44 357.79,946.44 Z" fill="#c8ff26"/><path d="M 428.74,926.44 C 428.74,926.44 428.74,457.94 467.77,457.94 C 506.80,457.94 506.80,926.44 506.80,926.44 L 506.80,946.44 C 506.80,946.44 506.80,1258.11 467.77,1258.11 C 428.74,1258.11 428.74,946.44 428.74,946.44 Z" fill="#92ff26"/><path d="M 499.70,926.44 C 499.70,926.44 499.70,696.64 538.73,696.64 C 577.75,696.64 577.75,926.44 577.75,926.44 L 577.75,946.44 C 577.75,946.44 577.75,1098.97 538.73,1098.97 C 499.70,1098.97 499.70,946.44 499.70,946.44 Z" fill="#5cff26"/><path d="M 570.66,926.44 C 570.66,926.44 570.66,679.02 609.68,679.02 C 648.71,679.02 648.71,926.44 648.71,926.44 L 648.71,946.44 C 648.71,946.44 648.71,1110.72 609.68,1110.72 C 570.66,1110.72 570.66,946.44 570.66,946.44 Z" fill="#26ff26"/><path d="M 641.61,926.44 C 641.61,926.44 641.61,627.56 680.64,627.56 C 719.66,627.56 719.66,926.44 719.66,926.44 L 719.66,946.44 C 719.66,946.44 719.66,1145.03 680.64,1145.03 C 641.61,1145.03 641.61,946.44 641.61,946.44 Z" fill="#26ff5c"/><path d="M 712.57,926.44 C 712.57,926.44 712.57,823.85 751.60,823.85 C 790.62,823.85 790.62,926.44 790.62,926.44 L 790.62,946.44 C 790.62,946.44 790.62,1014.17 751.60,1014.17 C 712.57,1014.17 712.57,946.44 712.57,946.44 Z" fill="#26ff92"/><path d="M 783.53,926.44 C 783.53,926.44 783.53,826.32 822.55,826.32 C 861.58,826.32 861.58,926.44 861.58,926.44 L 861.58,946.44 C 861.58,946.44 861.58,1012.52 822.55,1012.52 C 783.53,1012.52 783.53,946.44 783.53,946.44 Z" fill="#26ffc8"/><path d="M 854.48,926.44 C 854.48,926.44 854.48,819.97 893.51,819.97 C 932.53,819.97 932.53,926.44 932.53,926.44 L 932.53,946.44 C 932.53,946.44 932.53,1016.76 893.51,1016.76 C 854.48,1016.76 854.48,946.44 854.48,946.44 Z" fill="#26ffff"/><path d="M 925.44,926.44 C 925.44,926.44 925.44,687.42 964.46,687.42 C 1003.49,687.42 1003.49,926.44 1003.49,926.44 L 1003.49,946.44 C 1003.49,946.44 1003.49,1105.12 964.46,1105.12 C 925.44,1105.12 925.44,946.44 925.44,946.44 Z" fill="#26c8ff"/><path d="M 996.40,926.44 C 996.40,926.44 996.40,679.92 1035.42,679.92 C 1074.45,679.92 1074.45,926.44 1074.45,926.44 L 1074.45,946.44 C 1074.45,946.44 1074.45,1110.12 1035.42,1110.12 C 996.40,1110.12 996.40,946.44 996.40,946.44 Z" fill="#2692ff"/><path d="M 1067.35,926.44 C 1067.35,926.44 1067.35,713.33 1106.38,713.33 C 1145.40,713.33 1145.40,926.44 1145.40,926.44 L 1145.40,946.44 C 1145.40,946.44 1145.40,1087.85 1106.38,1087.85 C 1067.35,1087.85 1067.35,946.44 1067.35,946.44 Z" fill="#265cff"/><path d="M 1138.31,926.44 C 1138.31,926.44 1138.31,825.10 1177.33,825.10 C 1216.36,825.10 1216.36,926.44 1216.36,926.44 L 1216.36,946.44 C 1216.36,946.44 1216.36,1013.33 1177.33,1013.33 C 1138.31,1013.33 1138.31,946.44 1138.31,946.44 Z" fill="#2626ff"/><path d="M 1209.26,926.44 C 1209.26,926.44 1209.26,876.47 1248.29,876.47 C 1287.32,876.47 1287.32,926.44 1287.32,926.44 L 1287.32,946.44 C 1287.32,946.44 1287.32,979.09 1248.29,979.09 C 1209.26,979.09 1209.26,946.44 1209.26,946.44 Z" fill="#5c26ff"/><path d="M 1280.22,926.44 C 1280.22,926.44 1280.22,842.12 1319.25,842.12 C 1358.27,842.12 1358.27,926.44 1358.27,926.44 L 1358.27,946.44 C 1358.27,946.44 1358.27,1001.99 1319.25,1001.99 C 1280.22,1001.99 1280.22,946.44 1280.22,946.44 Z" fill="#9226ff"/><path d="M 1351.18,926.44 C 1351.18,926.44 1351.18,801.89 1390.20,801.89 C 1429.23,801.89 1429.23,926.44 1429.23,926.44 L 1429.23,946.44 C 1429.23,946.44 1429.23,1028.81 1390.20,1028.81 C 1351.18,1028.81 1351.18,946.44 1351.18,946.44 Z" fill="#c826ff"/><path d="M 1422.13,926.44 C 1422.13,926.44 1422.13,757.76 1461.16,757.76 C 1500.19,757.76 1500.19,926.44 1500.19,926.44 L 1500.19,946.44 C 1500.19,946.44 1500.19,1058.23 1461.16,1058.23 C 1422.13,1058.23 1422.13,946.44 1422.13,946.44 Z" fill="#ff26ff"/><path d="M 1493.09,926.44 C 1493.09,926.44 1493.09,834.85 1532.12,834.85 C 1571.14,834.85 1571.14,926.44 1571.14,926.44 L 1571.14,946.44 C 1571.14,946.44 1571.14,1006.84 1532.12,1006.84 C 1493.09,1006.84 1493.09,946.44 1493.09,946.44 Z" fill="#ff26c8"/><path d="M 1564.05,926.44 C 1564.05,926.44 1564.05,815.57 1603.07,815.57 C 1642.10,815.57 1642.10,926.44 1642.10,926.44 L 1642.10,946.44 C 1642.10,946.44 1642.10,1019.68 1603.07,1019.68 C 1564.05,1019.68 1564.05,946.44 1564.05,946.44 Z" fill="#ff2692"/><path d="M 1635.00,926.44 C 1635.00,926.44 1635.00,797.09 1674.03,797.09 C 1713.06,797.09 1713.06,926.44 1713.06,926.44 L 1713.06,946.44 C 1713.06,946.44 1713.06,1032.01 1674.03,1032.01 C 1635.00,1032.01 1635.00,946.44 1635.00,946.44 Z" fill="#ff265c"/></svg>