<svg width="800" height="800" viewBox="0 0 1660.0 1660.0" xmlns="http://www.w3.org/2000/svg"><defs><linearGradient id="gradLine" x1="0%" y1="0%" x2="100%" y2="0%"><stop offset="0.0%" stop-color="#ff2626"/><stop offset="8.3%" stop-color="#ff9226"/><stop offset="16.7%" stop-color="#ffff26"/><stop offset="25.0%" stop-color="#92ff26"/><stop offset="33.3%" stop-color="#26ff26"/><stop offset="41.7%" stop-color="#26ff92"/><stop offset="50.0%" stop-color="#26ffff"/><stop offset="58.3%" stop-color="#2692ff"/><stop offset="66.7%" stop-color="#2626ff"/><stop offset="75.0%" stop-color="#9226ff"/><stop offset="83.3%" stop-color="#ff26ff"/><stop offset="91.7%" stop-color="#ff2692"/><stop offset="100.0%" stop-color="#ff2626"/></linearGradient></defs><path d="M 14.00,690.70 C 32.83,690.70 37.02,678.77 55.85,678.77 C 74.68,678.77 78.86,669.53 97.69,669.53 C 116.52,669.53 120.71,667.20 139.54,667.20 C 158.37,667.20 162.55,659.33 181.38,659.33 C 200.22,659.33 204.40,638.18 223.23,638.18 C 242.06,638.18 246.25,643.98 265.08,643.98 C 283.91,643.98 288.09,580.36 306.92,580.36 C 325.75,580.36 329.94,555.50 348.77,555.50 C 367.60,555.50 371.78,666.37 390.62,666.37 C 409.45,666.37 413.63,652.12 432.46,652.12 C 451.29,652.12 455.48,616.45 474.31,616.45 C 493.14,616.45 497.32,585.73 516.15,585.73 C 534.98,585.73 539.17,632.32 558.00,632.32 C 576.83,632.32 581.02,594.18 599.85,594.18 C 618.68,594.18 622.86,551.74 641.69,551.74 C 660.52,551.74 664.71,620.29 683.54,620.29 C 702.37,620.29 706.55,615.67 725.38,615.67 C 744.22,615.67 748.40,636.16 767.23,636.16 C 786.06,636.16 790.25,612.91 809.08,612.91 C 827.91,612.91 832.09,617.24 850.92,617.24 C 869.75,617.24 873.94,548.27 892.77,548.27 C 911.60,548.27 915.78,472.00 934.62,472.00 C 953.45,472.00 957.63,512.58 976.46,512.58 C 995.29,512.58 999.48,541.79 1018.31,541.79 C 1037.14,541.79 1041.32,541.50 1060.15,541.50 C 1078.98,541.50 1083.17,646.13 1102.00,646.13 C 1120.83,646.13 1125.02,655.18 1143.85,655.18 C 1162.68,655.18 1166.86,662.61 1185.69,662.61 C 1204.52,662.61 1208.71,666.82 1227.54,666.82 C 1246.37,666.82 1250.55,671.13 1269.38,671.13 C 1288.22,671.13 1292.40,654.03 1311.23,654.03 C 1330.06,654.03 1334.25,655.08 1353.08,655.08 C 1371.91,655.08 1376.09,653.52 1394.92,653.52 C 1413.75,653.52 1417.94,676.08 1436.77,676.08 C 1455.60,676.08 1459.78,680.16 1478.62,680.16 C 1497.45,680.16 1501.63,682.61 1520.46,682.61 C 1539.29,682.61 1543.48,683.09 1562.31,683.09 C 1581.14,683.09 1585.32,685.65 1604.15,685.65 C 1622.98,685.65 1627.17,690.70 1646.00,690.70" fill="none" stroke="#000000" stroke-width="12.4" stroke-linecap="round" stroke-linejoin="round" stroke-opacity="1.00"/><path d="M 14.00,969.30 C 32.83,969.30 37.02,981.23 55.85,981.23 C 74.68,981.23 78.86,990.47 97.69,990.47 C 116.52,990.47 120.71,992.80 139.54,992.80 C 158.37,992.80 162.55,1000.67 181.38,1000.67 C 200.22,1000.67 204.40,1021.82 223.23,1021.82 C 242.06,1021.82 246.25,1016.02 265.08,1016.02 C 283.91,1016.02 288.09,1079.64 306.92,1079.64 C 325.75,1079.64 329.94,1104.50 348.77,1104.50 C 367.60,1104.50 371.78,993.63 390.62,993.63 C 409.45,993.63 413.63,1007.88 432.46,1007.88 C 451.29,1007.88 455.48,1043.55 474.31,1043.55 C 493.14,1043.55 497.32,1074.27 516.15,1074.27 C 534.98,1074.27 539.17,1027.68 558.00,1027.68 C 576.83,1027.68 581.02,1065.82 599.85,1065.82 C 618.68,1065.82 622.86,1108.26 641.69,1108.26 C 660.52,1108.26 664.71,1039.71 683.54,1039.71 C 702.37,1039.71 706.55,1044.33 725.38,1044.33 C 744.22,1044.33 748.40,1023.84 767.23,1023.84 C 786.06,1023.84 790.25,1047.09 809.08,1047.09 C 827.91,1047.09 832.09,1042.76 850.92,1042.76 C 869.75,1042.76 873.94,1111.73 892.77,1111.73 C 911.60,1111.73 915.78,1188.00 934.62,1188.00 C 953.45,1188.00 957.63,1147.42 976.46,1147.42 C 995.29,1147.42 999.48,1118.21 1018.31,1118.21 C 1037.14,1118.21 1041.32,1118.50 1060.15,1118.50 C 1078.98,1118.50 1083.17,1013.87 1102.00,1013.87 C 1120.83,1013.87 1125.02,1004.82 1143.85,1004.82 C 1162.68,1004.82 1166.86,997.39 1185.69,997.39 C 1204.52,997.39 1208.71,993.18 1227.54,993.18 C 1246.37,993.18 1250.55,988.87 1269.38,988.87 C 1288.22,988.87 1292.40,1005.97 1311.23,1005.97 C 1330.06,1005.97 1334.25,1004.92 1353.08,1004.92 C 1371.91,1004.92 1376.09,1006.48 1394.92,1006.48 C 1413.75,1006.48 1417.94,983.92 1436.77,983.92 C 1455.60,983.92 1459.78,979.84 1478.62,979.84 C 1497.45,979.84 1501.63,977.39 1520.46,977.39 C 1539.29,977.39 1543.48,976.91 1562.31,976.91 C 1581.14,976.91 1585.32,974.35 1604.15,974.35 C 1622.98,974.35 1627.17,969.30 1646.00,969.30" fill="none" stroke="#000000" stroke-width="12.4" stroke-linecap="round" stroke-linejoin="round" stroke-opacity="1.00"/><path d="M 14.00,718.70 C 32.83,718.70 37.02,706.77 55.85,706.77 C 74.68,706.77 78.86,697.53 97.69,697.53 C 116.52,697.53 120.71,695.20 139.54,695.20 C 158.37,695.20 162.55,687.33 181.38,687.33 C 200.22,687.33 204.40,666.18 223.23,666.18 C 242.06,666.18 246.25,671.98 265.08,671.98 C 283.91,671.98 288.09,608.36 306.92,608.36 C 325.75,608.36 329.94,583.50 348.77,583.50 C 367.60,583.50 371.78,694.37 390.62,694.37 C 409.45,694.37 413.63,680.12 432.46,680.12 C 451.29,680.12 455.48,644.45 474.31,644.45 C 493.14,644.45 497.32,613.73 516.15,613.73 C 534.98,613.73 539.17,660.32 558.00,660.32 C 576.83,660.32 581.02,622.18 599.85,622.18 C 618.68,622.18 622.86,579.74 641.69,579.74 C 660.52,579.74 664.71,648.29 683.54,648.29 C 702.37,648.29 706.55,643.67 725.38,643.67 C 744.22,643.67 748.40,664.16 767.23,664.16 C 786.06,664.16 790.25,640.91 809.08,640.91 C 827.91,640.91 832.09,645.24 850.92,645.24 C 869.75,645.24 873.94,576.27 892.77,576.27 C 911.60,576.27 915.78,500.00 934.62,500.00 C 953.45,500.00 957.63,540.58 976.46,540.58 C 995.29,540.58 999.48,569.79 1018.31,569.79 C 1037.14,569.79 1041.32,569.50 1060.15,569.50 C 1078.98,569.50 1083.17,674.13 1102.00,674.13 C 1120.83,674.13 1125.02,683.18 1143.85,683.18 C 1162.68,683.18 1166.86,690.61 1185.69,690.61 C 1204.52,690.61 1208.71,694.82 1227.54,694.82 C 1246.37,694.82 1250.55,699.13 1269.38,699.13 C 1288.22,699.13 1292.40,682.03 1311.23,682.03 C 1330.06,682.03 1334.25,683.08 1353.08,683.08 C 1371.91,683.08 1376.09,681.52 1394.92,681.52 C 1413.75,681.52 1417.94,704.08 1436.77,704.08 C 1455.60,704.08 1459.78,708.16 1478.62,708.16 C 1497.45,708.16 1501.63,710.61 1520.46,710.61 C 1539.29,710.61 1543.48,711.09 1562.31,711.09 C 1581.14,711.09 1585.32,713.65 1604.15,713.65 C 1622.98,713.65 1627.17,718.70 1646.00,718.70" fill="none" stroke="#000000" stroke-width="12.8" stroke-linecap="round" stroke-linejoin="round" stroke-opacity="1.00"/><path d="M 14.00,941.30 C 32.83,941.30 37.02,953.23 55.85,953.23 C 74.68,953.23 78.86,962.47 97.69,962.47 C 116.52,962.47 120.71,964.80 139.54,964.80 C 158.37,964.80 162.55,972.67 181.38,972.67 C 200.22,972.67 204.40,993.82 223.23,993.82 C 242.06,993.82 246.25,988.02 265.08,988.02 C 283.91,988.02 288.09,1051.64 306.92,1051.64 C 325.75,1051.64 329.94,1076.50 348.77,1076.50 C 367.60,1076.50 371.78,965.63 390.62,965.63 C 409.45,965.63 413.63,979.88 432.46,979.88 C 451.29,979.88 455.48,1015.55 474.31,1015.55 C 493.14,1015.55 497.32,1046.27 516.15,1046.27 C 534.98,1046.27 539.17,999.68 558.00,999.68 C 576.83,999.68 581.02,1037.82 599.85,1037.82 C 618.68,1037.82 622.86,1080.26 641.69,1080.26 C 660.52,1080.26 664.71,1011.71 683.54,1011.71 C 702.37,1011.71 706.55,1016.33 725.38,1016.33 C 744.22,1016.33 748.40,995.84 767.23,995.84 C 786.06,995.84 790.25,1019.09 809.08,1019.09 C 827.91,1019.09 832.09,1014.76 850.92,1014.76 C 869.75,1014.76 873.94,1083.73 892.77,1083.73 C 911.60,1083.73 915.78,1160.00 934.62,1160.00 C 953.45,1160.00 957.63,1119.42 976.46,1119.42 C 995.29,1119.42 999.48,1090.21 1018.31,1090.21 C 1037.14,1090.21 1041.32,1090.50 1060.15,1090.50 C 1078.98,1090.50 1083.17,985.87 1102.00,985.87 C 1120.83,985.87 1125.02,976.82 1143.85,976.82 C 1162.68,976.82 1166.86,969.39 1185.69,969.39 C 1204.52,969.39 1208.71,965.18 1227.54,965.18 C 1246.37,965.18 1250.55,960.87 1269.38,960.87 C 1288.22,960.87 1292.40,977.97 1311.23,977.97 C 1330.06,977.97 1334.25,976.92 1353.08,976.92 C 1371.91,976.92 1376.09,978.48 1394.92,978.48 C 1413.75,978.48 1417.94,955.92 1436.77,955.92 C 1455.60,955.92 1459.78,951.84 1478.62,951.84 C 1497.45,951.84 1501.63,949.39 1520.46,949.39 C 1539.29,949.39 1543.48,948.91 1562.31,948.91 C 1581.14,948.91 1585.32,946.35 1604.15,946.35 C 1622.98,946.35 1627.17,941.30 1646.00,941.30" fill="none" stroke="#000000" stroke-width="12.8" stroke-linecap="round" stroke-linejoin="round" stroke-opacity="1.00"/><path d="M 14.00,746.70 C 32.83,746.70 37.02,734.77 55.85,734.77 C 74.68,734.77 78.86,725.53 97.69,725.53 C 116.52,725.53 120.71,723.20 139.54,723.20 C 158.37,723.20 162.55,715.33 181.38,715.33 C 200.22,715.33 204.40,694.18 223.23,694.18 C 242.06,694.18 246.25,699.98 265.08,699.98 C 283.91,699.98 288.09,636.36 306.92,636.36 C 325.75,636.36 329.94,611.50 348.77,611.50 C 367.60,611.50 371.78,722.37 390.62,722.37 C 409.45,722.37 413.63,708.12 432.46,708.12 C 451.29,708.12 455.48,672.45 474.31,672.45 C 493.14,672.45 497.32,641.73 516.15,641.73 C 534.98,641.73 539.17,688.32 558.00,688.32 C 576.83,688.32 581.02,650.18 599.85,650.18 C 618.68,650.18 622.86,607.74 641.69,607.74 C 660.52,607.74 664.71,676.29 683.54,676.29 C 702.37,676.29 706.55,671.67 725.38,671.67 C 744.22,671.67 748.40,692.16 767.23,692.16 C 786.06,692.16 790.25,668.91 809.08,668.91 C 827.91,668.91 832.09,673.24 850.92,673.24 C 869.75,673.24 873.94,604.27 892.77,604.27 C 911.60,604.27 915.78,528.00 934.62,528.00 C 953.45,528.00 957.63,568.58 976.46,568.58 C 995.29,568.58 999.48,597.79 1018.31,597.79 C 1037.14,597.79 1041.32,597.50 1060.15,597.50 C 1078.98,597.50 1083.17,702.13 1102.00,702.13 C 1120.83,702.13 1125.02,711.18 1143.85,711.18 C 1162.68,711.18 1166.86,718.61 1185.69,718.61 C 1204.52,718.61 1208.71,722.82 1227.54,722.82 C 1246.37,722.82 1250.55,727.13 1269.38,727.13 C 1288.22,727.13 1292.40,710.03 1311.23,710.03 C 1330.06,710.03 1334.25,711.08 1353.08,711.08 C 1371.91,711.08 1376.09,709.52 1394.92,709.52 C 1413.75,709.52 1417.94,732.08 1436.77,732.08 C 1455.60,732.08 1459.78,736.16 1478.62,736.16 C 1497.45,736.16 1501.63,738.61 1520.46,738.61 C 1539.29,738.61 1543.48,739.09 1562.31,739.09 C 1581.14,739.09 1585.32,741.65 1604.15,741.65 C 1622.98,741.65 1627.17,746.70 1646.00,746.70" fill="none" stroke="#000000" stroke-width="13.2" stroke-linecap="round" stroke-linejoin="round" stroke-opacity="1.00"/><path d="M 14.00,913.30 C 32.83,913.30 37.02,925.23 55.85,925.23 C 74.68,925.23 78.86,934.47 97.69,934.47 C 116.52,934.47 120.71,936.80 139.54,936.80 C 158.37,936.80 162.55,944.67 181.38,944.67 C 200.22,944.67 204.40,965.82 223.23,965.82 C 242.06,965.82 246.25,960.02 265.08,960.02 C 283.91,960.02 288.09,1023.64 306.92,1023.64 C 325.75,1023.64 329.94,1048.50 348.77,1048.50 C 367.60,1048.50 371.78,937.63 390.62,937.63 C 409.45,937.63 413.63,951.88 432.46,951.88 C 451.29,951.88 455.48,987.55 474.31,987.55 C 493.14,987.55 497.32,1018.27 516.15,1018.27 C 534.98,1018.27 539.17,971.68 558.00,971.68 C 576.83,971.68 581.02,1009.82 599.85,1009.82 C 618.68,1009.82 622.86,1052.26 641.69,1052.26 C 660.52,1052.26 664.71,983.71 683.54,983.71 C 702.37,983.71 706.55,988.33 725.38,988.33 C 744.22,988.33 748.40,967.84 767.23,967.84 C 786.06,967.84 790.25,991.09 809.08,991.09 C 827.91,991.09 832.09,986.76 850.92,986.76 C 869.75,986.76 873.94,1055.73 892.77,1055.73 C 911.60,1055.73 915.78,1132.00 934.62,1132.00 C 953.45,1132.00 957.63,1091.42 976.46,1091.42 C 995.29,1091.42 999.48,1062.21 1018.31,1062.21 C 1037.14,1062.21 1041.32,1062.50 1060.15,1062.50 C 1078.98,1062.50 1083.17,957.87 1102.00,957.87 C 1120.83,957.87 1125.02,948.82 1143.85,948.82 C 1162.68,948.82 1166.86,941.39 1185.69,941.39 C 1204.52,941.39 1208.71,937.18 1227.54,937.18 C 1246.37,937.18 1250.55,932.87 1269.38,932.87 C 1288.22,932.87 1292.40,949.97 1311.23,949.97 C 1330.06,949.97 1334.25,948.92 1353.08,948.92 C 1371.91,948.92 1376.09,950.48 1394.92,950.48 C 1413.75,950.48 1417.94,927.92 1436.77,927.92 C 1455.60,927.92 1459.78,923.84 1478.62,923.84 C 1497.45,923.84 1501.63,921.39 1520.46,921.39 C 1539.29,921.39 1543.48,920.91 1562.31,920.91 C 1581.14,920.91 1585.32,918.35 1604.15,918.35 C 1622.98,918.35 1627.17,913.30 1646.00,913.30" fill="none" stroke="#000000" stroke-width="13.2" stroke-linecap="round" stroke-linejoin="round" stroke-opacity="1.00"/><path d="M 14.00,774.70 C 32.83,774.70 37.02,762.77 55.85,762.77 C 74.68,762.77 78.86,753.53 97.69,753.53 C 116.52,753.53 120.71,751.20 139.54,751.20 C 158.37,751.20 162.55,743.33 181.38,743.33 C 200.22,743.33 204.40,722.18 223.23,722.18 C 242.06,722.18 246.25,727.98 265.08,727.98 C 283.91,727.98 288.09,664.36 306.92,664.36 C 325.75,664.36 329.94,639.50 348.77,639.50 C 367.60,639.50 371.78,750.37 390.62,750.37 C 409.45,750.37 413.63,736.12 432.46,736.12 C 451.29,736.12 455.48,700.45 474.31,700.45 C 493.14,700.45 497.32,669.73 516.15,669.73 C 534.98,669.73 539.17,716.32 558.00,716.32 C 576.83,716.32 581.02,678.18 599.85,678.18 C 618.68,678.18 622.86,635.74 641.69,635.74 C 660.52,635.74 664.71,704.29 683.54,704.29 C 702.37,704.29 706.55,699.67 725.38,699.67 C 744.22,699.67 748.40,720.16 767.23,720.16 C 786.06,720.16 790.25,696.91 809.08,696.91 C 827.91,696.91 832.09,701.24 850.92,701.24 C 869.75,701.24 873.94,632.27 892.77,632.27 C 911.60,632.27 915.78,556.00 934.62,556.00 C 953.45,556.00 957.63,596.58 976.46,596.58 C 995.29,596.58 999.48,625.79 1018.31,625.79 C 1037.14,625.79 1041.32,625.50 1060.15,625.50 C 1078.98,625.50 1083.17,730.13 1102.00,730.13 C 1120.83,730.13 1125.02,739.18 1143.85,739.18 C 1162.68,739.18 1166.86,746.61 1185.69,746.61 C 1204.52,746.61 1208.71,750.82 1227.54,750.82 C 1246.37,750.82 1250.55,755.13 1269.38,755.13 C 1288.22,755.13 1292.40,738.03 1311.23,738.03 C 1330.06,738.03 1334.25,739.08 1353.08,739.08 C 1371.91,739.08 1376.09,737.52 1394.92,737.52 C 1413.75,737.52 1417.94,760.08 1436.77,760.08 C 1455.60,760.08 1459.78,764.16 1478.62,764.16 C 1497.45,764.16 1501.63,766.61 1520.46,766.61 C 1539.29,766.61 1543.48,767.09 1562.31,767.09 C 1581.14,767.09 1585.32,769.65 1604.15,769.65 C 1622.98,769.65 1627.17,774.70 1646.00,774.70" fill="none" stroke="#000000" stroke-width="13.6" stroke-linecap="round" stroke-linejoin="round" stroke-opacity="1.00"/><path d="M 14.00,885.30 C 32.83,885.30 37.02,897.23 55.85,897.23 C 74.68,897.23 78.86,906.47 97.69,906.47 C 116.52,906.47 120.71,908.80 139.54,908.80 C 158.37,908.80 162.55,916.67 181.38,916.67 C 200.22,916.67 204.40,937.82 223.23,937.82 C 242.06,937.82 246.25,932.02 265.08,932.02 C 283.91,932.02 288.09,995.64 306.92,995.64 C 325.75,995.64 329.94,1020.50 348.77,1020.50 C 367.60,1020.50 371.78,909.63 390.62,909.63 C 409.45,909.63 413.63,923.88 432.46,923.88 C 451.29,923.88 455.48,959.55 474.31,959.55 C 493.14,959.55 497.32,990.27 516.15,990.27 C 534.98,990.27 539.17,943.68 558.00,943.68 C 576.83,943.68 581.02,981.82 599.85,981.82 C 618.68,981.82 622.86,1024.26 641.69,1024.26 C 660.52,1024.26 664.71,955.71 683.54,955.71 C 702.37,955.71 706.55,960.33 725.38,960.33 C 744.22,960.33 748.40,939.84 767.23,939.84 C 786.06,939.84 790.25,963.09 809.08,963.09 C 827.91,963.09 832.09,958.76 850.92,958.76 C 869.75,958.76 873.94,1027.73 892.77,1027.73 C 911.60,1027.73 915.78,1104.00 934.62,1104.00 C 953.45,1104.00 957.63,1063.42 976.46,1063.42 C 995.29,1063.42 999.48,1034.21 1018.31,1034.21 C 1037.14,1034.21 1041.32,1034.50 1060.15,1034.50 C 1078.98,1034.50 1083.17,929.87 1102.00,929.87 C 1120.83,929.87 1125.02,920.82 1143.85,920.82 C 1162.68,920.82 1166.86,913.39 1185.69,913.39 C 1204.52,913.39 1208.71,909.18 1227.54,909.18 C 1246.37,909.18 1250.55,904.87 1269.38,904.87 C 1288.22,904.87 1292.40,921.97 1311.23,921.97 C 1330.06,921.97 1334.25,920.92 1353.08,920.92 C 1371.91,920.92 1376.09,922.48 1394.92,922.48 C 1413.75,922.48 1417.94,899.92 1436.77,899.92 C 1455.60,899.92 1459.78,895.84 1478.62,895.84 C 1497.45,895.84 1501.63,893.39 1520.46,893.39 C 1539.29,893.39 1543.48,892.91 1562.31,892.91 C 1581.14,892.91 1585.32,890.35 1604.15,890.35 C 1622.98,890.35 1627.17,885.30 1646.00,885.30" fill="none" stroke="#000000" stroke-width="13.6" stroke-linecap="round" stroke-linejoin="round" stroke-opacity="1.00"/><path d="M 14.00,802.70 C 32.83,802.70 37.02,790.77 55.85,790.77 C 74.68,790.77 78.86,781.53 97.69,781.53 C 116.52,781.53 120.71,779.20 139.54,779.20 C 158.37,779.20 162.55,771.33 181.38,771.33 C 200.22,771.33 204.40,750.18 223.23,750.18 C 242.06,750.18 246.25,755.98 265.08,755.98 C 283.91,755.98 288.09,692.36 306.92,692.36 C 325.75,692.36 329.94,667.50 348.77,667.50 C 367.60,667.50 371.78,778.37 390.62,778.37 C 409.45,778.37 413.63,764.12 432.46,764.12 C 451.29,764.12 455.48,728.45 474.31,728.45 C 493.14,728.45 497.32,697.73 516.15,697.73 C 534.98,697.73 539.17,744.32 558.00,744.32 C 576.83,744.32 581.02,706.18 599.85,706.18 C 618.68,706.18 622.86,663.74 641.69,663.74 C 660.52,663.74 664.71,732.29 683.54,732.29 C 702.37,732.29 706.55,727.67 725.38,727.67 C 744.22,727.67 748.40,748.16 767.23,748.16 C 786.06,748.16 790.25,724.91 809.08,724.91 C 827.91,724.91 832.09,729.24 850.92,729.24 C 869.75,729.24 873.94,660.27 892.77,660.27 C 911.60,660.27 915.78,584.00 934.62,584.00 C 953.45,584.00 957.63,624.58 976.46,624.58 C 995.29,624.58 999.48,653.79 1018.31,653.79 C 1037.14,653.79 1041.32,653.50 1060.15,653.50 C 1078.98,653.50 1083.17,758.13 1102.00,758.13 C 1120.83,758.13 1125.02,767.18 1143.85,767.18 C 1162.68,767.18 1166.86,774.61 1185.69,774.61 C 1204.52,774.61 1208.71,778.82 1227.54,778.82 C 1246.37,778.82 1250.55,783.13 1269.38,783.13 C 1288.22,783.13 1292.40,766.03 1311.23,766.03 C 1330.06,766.03 1334.25,767.08 1353.08,767.08 C 1371.91,767.08 1376.09,765.52 1394.92,765.52 C 1413.75,765.52 1417.94,788.08 1436.77,788.08 C 1455.60,788.08 1459.78,792.16 1478.62,792.16 C 1497.45,792.16 1501.63,794.61 1520.46,794.61 C 1539.29,794.61 1543.48,795.09 1562.31,795.09 C 1581.14,795.09 1585.32,797.65 1604.15,797.65 C 1622.98,797.65 1627.17,802.70 1646.00,802.70" fill="none" stroke="#000000" stroke-width="14.0" stroke-linecap="round" stroke-linejoin="round" stroke-opacity="1.00"/><path d="M 14.00,857.30 C 32.83,857.30 37.02,869.23 55.85,869.23 C 74.68,869.23 78.86,878.47 97.69,878.47 C 116.52,878.47 120.71,880.80 139.54,880.80 C 158.37,880.80 162.55,888.67 181.38,888.67 C 200.22,888.67 204.40,909.82 223.23,909.82 C 242.06,909.82 246.25,904.02 265.08,904.02 C 283.91,904.02 288.09,967.64 306.92,967.64 C 325.75,967.64 329.94,992.50 348.77,992.50 C 367.60,992.50 371.78,881.63 390.62,881.63 C 409.45,881.63 413.63,895.88 432.46,895.88 C 451.29,895.88 455.48,931.55 474.31,931.55 C 493.14,931.55 497.32,962.27 516.15,962.27 C 534.98,962.27 539.17,915.68 558.00,915.68 C 576.83,915.68 581.02,953.82 599.85,953.82 C 618.68,953.82 622.86,996.26 641.69,996.26 C 660.52,996.26 664.71,927.71 683.54,927.71 C 702.37,927.71 706.55,932.33 725.38,932.33 C 744.22,932.33 748.40,911.84 767.23,911.84 C 786.06,911.84 790.25,935.09 809.08,935.09 C 827.91,935.09 832.09,930.76 850.92,930.76 C 869.75,930.76 873.94,999.73 892.77,999.73 C 911.60,999.73 915.78,1076.00 934.62,1076.00 C 953.45,1076.00 957.63,1035.42 976.46,1035.42 C 995.29,1035.42 999.48,1006.21 1018.31,1006.21 C 1037.14,1006.21 1041.32,1006.50 1060.15,1006.50 C 1078.98,1006.50 1083.17,901.87 1102.00,901.87 C 1120.83,901.87 1125.02,892.82 1143.85,892.82 C 1162.68,892.82 1166.86,885.39 1185.69,885.39 C 1204.52,885.39 1208.71,881.18 1227.54,881.18 C 1246.37,881.18 1250.55,876.87 1269.38,876.87 C 1288.22,876.87 1292.40,893.97 1311.23,893.97 C 1330.06,893.97 1334.25,892.92 1353.08,892.92 C 1371.91,892.92 1376.09,894.48 1394.92,894.48 C 1413.75,894.48 1417.94,871.92 1436.77,871.92 C 1455.60,871.92 1459.78,867.84 1478.62,867.84 C 1497.45,867.84 1501.63,865.39 1520.46,865.39 C 1539.29,865.39 1543.48,864.91 1562.31,864.91 C 1581.14,864.91 1585.32,862.35 1604.15,862.35 C 1622.98,862.35 1627.17,857.30 1646.00,857.30" fill="none" stroke="#000000" stroke-width="14.0" stroke-linecap="round" stroke-linejoin="round" stroke-opacity="1.00"/><path d="M 14.00,690.70 C 32.83,690.70 37.02,678.77 55.85,678.77 C 74.68,678.77 78.86,669.53 97.69,669.53 C 116.52,669.53 120.71,667.20 139.54,667.20 C 158.37,667.20 162.55,659.33 181.38,659.33 C 200.22,659.33 204.40,638.18 223.23,638.18 C 242.06,638.18 246.25,643.98 265.08,643.98 C 283.91,643.98 288.09,580.36 306.92,580.36 C 325.75,580.36 329.94,555.50 348.77,555.50 C 367.60,555.50 371.78,666.37 390.62,666.37 C 409.45,666.37 413.63,652.12 432.46,652.12 C 451.29,652.12 455.48,616.45 474.31,616.45 C 493.14,616.45 497.32,585.73 516.15,585.73 C 534.98,585.73 539.17,632.32 558.00,632.32 C 576.83,632.32 581.02,594.18 599.85,594.18 C 618.68,594.18 622.86,551.74 641.69,551.74 C 660.52,551.74 664.71,620.29 683.54,620.29 C 702.37,620.29 706.55,615.67 725.38,615.67 C 744.22,615.67 748.40,636.16 767.23,636.16 C 786.06,636.16 790.25,612.91 809.08,612.91 C 827.91,612.91 832.09,617.24 850.92,617.24 C 869.75,617.24 873.94,548.27 892.77,548.27 C 911.60,548.27 915.78,472.00 934.62,472.00 C 953.45,472.00 957.63,512.58 976.46,512.58 C 995.29,512.58 999.48,541.79 1018.31,541.79 C 1037.14,541.79 1041.32,541.50 1060.15,541.50 C 1078.98,541.50 1083.17,646.13 1102.00,646.13 C 1120.83,646.13 1125.02,655.18 1143.85,655.18 C 1162.68,655.18 1166.86,662.61 1185.69,662.61 C 1204.52,662.61 1208.71,666.82 1227.54,666.82 C 1246.37,666.82 1250.55,671.13 1269.38,671.13 C 1288.22,671.13 1292.40,654.03 1311.23,654.03 C 1330.06,654.03 1334.25,655.08 1353.08,655.08 C 1371.91,655.08 1376.09,653.52 1394.92,653.52 C 1413.75,653.52 1417.94,676.08 1436.77,676.08 C 1455.60,676.08 1459.78,680.16 1478.62,680.16 C 1497.45,680.16 1501.63,682.61 1520.46,682.61 C 1539.29,682.61 1543.48,683.09 1562.31,683.09 C 1581.14,683.09 1585.32,685.65 1604.15,685.65 C 1622.98,685.65 1627.17,690.70 1646.00,690.70" fill="none" stroke="url(#gradLine)" stroke-width="6.4" stroke-linecap="round" stroke-linejoin="round" stroke-opacity="1.00"/><path d="M 14.00,969.30 C 32.83,969.30 37.02,981.23 55.85,981.23 C 74.68,981.23 78.86,990.47 97.69,990.47 C 116.52,990.47 120.71,992.80 139.54,992.80 C 158.37,992.80 162.55,1000.67 181.38,1000.67 C 200.22,1000.67 204.40,1021.82 223.23,1021.82 C 242.06,1021.82 246.25,1016.02 265.08,1016.02 C 283.91,1016.02 288.09,1079.64 306.92,1079.64 C 325.75,1079.64 329.94,1104.50 348.77,1104.50 C 367.60,1104.50 371.78,993.63 390.62,993.63 C 409.45,993.63 413.63,1007.88 432.46,1007.88 C 451.29,1007.88 455.48,1043.55 474.31,1043.55 C 493.14,1043.55 497.32,1074.27 516.15,1074.27 C 534.98,1074.27 539.17,1027.68 558.00,1027.68 C 576.83,1027.68 581.02,1065.82 599.85,1065.82 C 618.68,1065.82 622.86,1108.26 641.69,1108.26 C 660.52,1108.26 664.71,1039.71 683.54,1039.71 C 702.37,1039.71 706.55,1044.33 725.38,1044.33 C 744.22,1044.33 748.40,1023.84 767.23,1023.84 C 786.06,1023.84 790.25,1047.09 809.08,1047.09 C 827.91,1047.09 832.09,1042.76 850.92,1042.76 C 869.75,1042.76 873.94,1111.73 892.77,1111.73 C 911.60,1111.73 915.78,1188.00 934.62,1188.00 C 953.45,1188.00 957.63,1147.42 976.46,1147.42 C 995.29,1147.42 999.48,1118.21 1018.31,1118.21 C 1037.14,1118.21 1041.32,1118.50 1060.15,1118.50 C 1078.98,1118.50 1083.17,1013.87 1102.00,1013.87 C 1120.83,1013.87 1125.02,1004.82 1143.85,1004.82 C 1162.68,1004.82 1166.86,997.39 1185.69,997.39 C 1204.52,997.39 1208.71,993.18 1227.54,993.18 C 1246.37,993.18 1250.55,988.87 1269.38,988.87 C 1288.22,988.87 1292.40,1005.97 1311.23,1005.97 C 1330.06,1005.97 1334.25,1004.92 1353.08,1004.92 C 1371.91,1004.92 1376.09,1006.48 1394.92,1006.48 C 1413.75,1006.48 1417.94,983.92 1436.77,983.92 C 1455.60,983.92 1459.78,979.84 1478.62,979.84 C 1497.45,979.84 1501.63,977.39 1520.46,977.39 C 1539.29,977.39 1543.48,976.91 1562.31,976.91 C 1581.14,976.91 1585.32,974.35 1604.15,974.35 C 1622.98,974.35 1627.17,969.30 1646.00,969.30" fill="none" stroke="url(#gradLine)" stroke-width="6.4" stroke-linecap="round" stroke-linejoin="round" stroke-opacity="1.00"/><path d="M 14.00,718.70 C 32.83,718.70 37.02,706.77 55.85,706.77 C 74.68,706.77 78.86,697.53 97.69,697.53 C 116.52,697.53 120.71,695.20 139.54,695.20 C 158.37,695.20 162.55,687.33 181.38,687.33 C 200.22,687.33 204.40,666.18 223.23,666.18 C 242.06,666.18 246.25,671.98 265.08,671.98 C 283.91,671.98 288.09,608.36 306.92,608.36 C 325.75,608.36 329.94,583.50 348.77,583.50 C 367.60,583.50 371.78,694.37 390.62,694.37 C 409.45,694.37 413.63,680.12 432.46,680.12 C 451.29,680.12 455.48,644.45 474.31,644.45 C 493.14,644.45 497.32,613.73 516.15,613.73 C 534.98,613.73 539.17,660.32 558.00,660.32 C 576.83,660.32 581.02,622.18 599.85,622.18 C 618.68,622.18 622.86,579.74 641.69,579.74 C 660.52,579.74 664.71,648.29 683.54,648.29 C 702.37,648.29 706.55,643.67 725.38,643.67 C 744.22,643.67 748.40,664.16 767.23,664.16 C 786.06,664.16 790.25,640.91 809.08,640.91 C 827.91,640.91 832.09,645.24 850.92,645.24 C 869.75,645.24 873.94,576.27 892.77,576.27 C 911.60,576.27 915.78,500.00 934.62,500.00 C 953.45,500.00 957.63,540.58 976.46,540.58 C 995.29,540.58 999.48,569.79 1018.31,569.79 C 1037.14,569.79 1041.32,569.50 1060.15,569.50 C 1078.98,569.50 1083.17,674.13 1102.00,674.13 C 1120.83,674.13 1125.02,683.18 1143.85,683.18 C 1162.68,683.18 1166.86,690.61 1185.69,690.61 C 1204.52,690.61 1208.71,694.82 1227.54,694.82 C 1246.37,694.82 1250.55,699.13 1269.38,699.13 C 1288.22,699.13 1292.40,682.03 1311.23,682.03 C 1330.06,682.03 1334.25,683.08 1353.08,683.08 C 1371.91,683.08 1376.09,681.52 1394.92,681.52 C 1413.75,681.52 1417.94,704.08 1436.77,704.08 C 1455.60,704.08 1459.78,708.16 1478.62,708.16 C 1497.45,708.16 1501.63,710.61 1520.46,710.61 C 1539.29,710.61 1543.48,711.09 1562.31,711.09 C 1581.14,711.09 1585.32,713.65 1604.15,713.65 C 1622.98,713.65 1627.17,718.70 1646.00,718.70" fill="none" stroke="url(#gradLine)" stroke-width="6.8" stroke-linecap="round" stroke-linejoin="round" stroke-opacity="1.00"/><path d="M 14.00,941.30 C 32.83,941.30 37.02,953.23 55.85,953.23 C 74.68,953.23 78.86,962.47 97.69,962.47 C 116.52,962.47 120.71,964.80 139.54,964.80 C 158.37,964.80 162.55,972.67 181.38,972.67 C 200.22,972.67 204.40,993.82 223.23,993.82 C 242.06,993.82 246.25,988.02 265.08,988.02 C 283.91,988.02 288.09,1051.64 306.92,1051.64 C 325.75,1051.64 329.94,1076.50 348.77,1076.50 C 367.60,1076.50 371.78,965.63 390.62,965.63 C 409.45,965.63 413.63,979.88 432.46,979.88 C 451.29,979.88 455.48,1015.55 474.31,1015.55 C 493.14,1015.55 497.32,1046.27 516.15,1046.27 C 534.98,1046.27 539.17,999.68 558.00,999.68 C 576.83,999.68 581.02,1037.82 599.85,1037.82 C 618.68,1037.82 622.86,1080.26 641.69,1080.26 C 660.52,1080.26 664.71,1011.71 683.54,1011.71 C 702.37,1011.71 706.55,1016.33 725.38,1016.33 C 744.22,1016.33 748.40,995.84 767.23,995.84 C 786.06,995.84 790.25,1019.09 809.08,1019.09 C 827.91,1019.09 832.09,1014.76 850.92,1014.76 C 869.75,1014.76 873.94,1083.73 892.77,1083.73 C 911.60,1083.73 915.78,1160.00 934.62,1160.00 C 953.45,1160.00 957.63,1119.42 976.46,1119.42 C 995.29,1119.42 999.48,1090.21 1018.31,1090.21 C 1037.14,1090.21 1041.32,1090.50 1060.15,1090.50 C 1078.98,1090.50 1083.17,985.87 1102.00,985.87 C 1120.83,985.87 1125.02,976.82 1143.85,976.82 C 1162.68,976.82 1166.86,969.39 1185.69,969.39 C 1204.52,969.39 1208.71,965.18 1227.54,965.18 C 1246.37,965.18 1250.55,960.87 1269.38,960.87 C 1288.22,960.87 1292.40,977.97 1311.23,977.97 C 1330.06,977.97 1334.25,976.92 1353.08,976.92 C 1371.91,976.92 1376.09,978.48 1394.92,978.48 C 1413.75,978.48 1417.94,955.92 1436.77,955.92 C 1455.60,955.92 1459.78,951.84 1478.62,951.84 C 1497.45,951.84 1501.63,949.39 1520.46,949.39 C 1539.29,949.39 1543.48,948.91 1562.31,948.91 C 1581.14,948.91 1585.32,946.35 1604.15,946.35 C 1622.98,946.35 1627.17,941.30 1646.00,941.30" fill="none" stroke="url(#gradLine)" stroke-width="6.8" stroke-linecap="round" stroke-linejoin="round" stroke-opacity="1.00"/><path d="M 14.00,746.70 C 32.83,746.70 37.02,734.77 55.85,734.77 C 74.68,734.77 78.86,725.53 97.69,725.53 C 116.52,725.53 120.71,723.20 139.54,723.20 C 158.37,723.20 162.55,715.33 181.38,715.33 C 200.22,715.33 204.40,694.18 223.23,694.18 C 242.06,694.18 246.25,699.98 265.08,699.98 C 283.91,699.98 288.09,636.36 306.92,636.36 C 325.75,636.36 329.94,611.50 348.77,611.50 C 367.60,611.50 371.78,722.37 390.62,722.37 C 409.45,722.37 413.63,708.12 432.46,708.12 C 451.29,708.12 455.48,672.45 474.31,672.45 C 493.14,672.45 497.32,641.73 516.15,641.73 C 534.98,641.73 539.17,688.32 558.00,688.32 C 576.83,688.32 581.02,650.18 599.85,650.18 C 618.68,650.18 622.86,607.74 641.69,607.74 C 660.52,607.74 664.71,676.29 683.54,676.29 C 702.37,676.29 706.55,671.67 725.38,671.67 C 744.22,671.67 748.40,692.16 767.23,692.16 C 786.06,692.16 790.25,668.91 809.08,668.91 C 827.91,668.91 832.09,673.24 850.92,673.24 C 869.75,673.24 873.94,604.27 892.77,604.27 C 911.60,604.27 915.78,528.00 934.62,528.00 C 953.45,528.00 957.63,568.58 976.46,568.58 C 995.29,568.58 999.48,597.79 1018.31,597.79 C 1037.14,597.79 1041.32,597.50 1060.15,597.50 C 1078.98,597.50 1083.17,702.13 1102.00,702.13 C 1120.83,702.13 1125.02,711.18 1143.85,711.18 C 1162.68,711.18 1166.86,718.61 1185.69,718.61 C 1204.52,718.61 1208.71,722.82 1227.54,722.82 C 1246.37,722.82 1250.55,727.13 1269.38,727.13 C 1288.22,727.13 1292.40,710.03 1311.23,710.03 C 1330.06,710.03 1334.25,711.08 1353.08,711.08 C 1371.91,711.08 1376.09,709.52 1394.92,709.52 C 1413.75,709.52 1417.94,732.08 1436.77,732.08 C 1455.60,732.08 1459.78,736.16 1478.62,736.16 C 1497.45,736.16 1501.63,738.61 1520.46,738.61 C 1539.29,738.61 1543.48,739.09 1562.31,739.09 C 1581.14,739.09 1585.32,741.65 1604.15,741.65 C 1622.98,741.65 1627.17,746.70 1646.00,746.70" fill="none" stroke="url(#gradLine)" stroke-width="7.2" stroke-linecap="round" stroke-linejoin="round" stroke-opacity="1.00"/><path d="M 14.00,913.30 C 32.83,913.30 37.02,925.23 55.85,925.23 C 74.68,925.23 78.86,934.47 97.69,934.47 C 116.52,934.47 120.71,936.80 139.54,936.80 C 158.37,936.80 162.55,944.67 181.38,944.67 C 200.22,944.67 204.40,965.82 223.23,965.82 C 242.06,965.82 246.25,960.02 265.08,960.02 C 283.91,960.02 288.09,1023.64 306.92,1023.64 C 325.75,1023.64 329.94,1048.50 348.77,1048.50 C 367.60,1048.50 371.78,937.63 390.62,937.63 C 409.45,937.63 413.63,951.88 432.46,951.88 C 451.29,951.88 455.48,987.55 474.31,987.55 C 493.14,987.55 497.32,1018.27 516.15,1018.27 C 534.98,1018.27 539.17,971.68 558.00,971.68 C 576.83,971.68 581.02,1009.82 599.85,1009.82 C 618.68,1009.82 622.86,1052.26 641.69,1052.26 C 660.52,1052.26 664.71,983.71 683.54,983.71 C 702.37,983.71 706.55,988.33 725.38,988.33 C 744.22,988.33 748.40,967.84 767.23,967.84 C 786.06,967.84 790.25,991.09 809.08,991.09 C 827.91,991.09 832.09,986.76 850.92,986.76 C 869.75,986.76 873.94,1055.73 892.77,1055.73 C 911.60,1055.73 915.78,1132.00 934.62,1132.00 C 953.45,1132.00 957.63,1091.42 976.46,1091.42 C 995.29,1091.42 999.48,1062.21 1018.31,1062.21 C 1037.14,1062.21 1041.32,1062.50 1060.15,1062.50 C 1078.98,1062.50 1083.17,957.87 1102.00,957.87 C 1120.83,957.87 1125.02,948.82 1143.85,948.82 C 1162.68,948.82 1166.86,941.39 1185.69,941.39 C 1204.52,941.39 1208.71,937.18 1227.54,937.18 C 1246.37,937.18 1250.55,932.87 1269.38,932.87 C 1288.22,932.87 1292.40,949.97 1311.23,949.97 C 1330.06,949.97 1334.25,948.92 1353.08,948.92 C 1371.91,948.92 1376.09,950.48 1394.92,950.48 C 1413.75,950.48 1417.94,927.92 1436.77,927.92 C 1455.60,927.92 1459.78,923.84 1478.62,923.84 C 1497.45,923.84 1501.63,921.39 1520.46,921.39 C 1539.29,921.39 1543.48,920.91 1562.31,920.91 C 1581.14,920.91 1585.32,918.35 1604.15,918.35 C 1622.98,918.35 1627.17,913.30 1646.00,913.30" fill="none" stroke="url(#gradLine)" stroke-width="7.2" stroke-linecap="round" stroke-linejoin="round" stroke-opacity="1.00"/><path d="M 14.00,774.70 C 32.83,774.70 37.02,762.77 55.85,762.77 C 74.68,762.77 78.86,753.53 97.69,753.53 C 116.52,753.53 120.71,751.20 139.54,751.20 C 158.37,751.20 162.55,743.33 181.38,743.33 C 200.22,743.33 204.40,722.18 223.23,722.18 C 242.06,722.18 246.25,727.98 265.08,727.98 C 283.91,727.98 288.09,664.36 306.92,664.36 C 325.75,664.36 329.94,639.50 348.77,639.50 C 367.60,639.50 371.78,750.37 390.62,750.37 C 409.45,750.37 413.63,736.12 432.46,736.12 C 451.29,736.12 455.48,700.45 474.31,700.45 C 493.14,700.45 497.32,669.73 516.15,669.73 C 534.98,669.73 539.17,716.32 558.00,716.32 C 576.83,716.32 581.02,678.18 599.85,678.18 C 618.68,678.18 622.86,635.74 641.69,635.74 C 660.52,635.74 664.71,704.29 683.54,704.29 C 702.37,704.29 706.55,699.67 725.38,699.67 C 744.22,699.67 748.40,720.16 767.23,720.16 C 786.06,720.16 790.25,696.91 809.08,696.91 C 827.91,696.91 832.09,701.24 850.92,701.24 C 869.75,701.24 873.94,632.27 892.77,632.27 C 911.60,632.27 915.78,556.00 934.62,556.00 C 953.45,556.00 957.63,596.58 976.46,596.58 C 995.29,596.58 999.48,625.79 1018.31,625.79 C 1037.14,625.79 1041.32,625.50 1060.15,625.50 C 1078.98,625.50 1083.17,730.13 1102.00,730.13 C 1120.83,730.13 1125.02,739.18 1143.85,739.18 C 1162.68,739.18 1166.86,746.61 1185.69,746.61 C 1204.52,746.61 1208.71,750.82 1227.54,750.82 C 1246.37,750.82 1250.55,755.13 1269.38,755.13 C 1288.22,755.13 1292.40,738.03 1311.23,738.03 C 1330.06,738.03 1334.25,739.08 1353.08,739.08 C 1371.91,739.08 1376.09,737.52 1394.92,737.52 C 1413.75,737.52 1417.94,760.08 1436.77,760.08 C 1455.60,760.08 1459.78,764.16 1478.62,764.16 C 1497.45,764.16 1501.63,766.61 1520.46,766.61 C 1539.29,766.61 1543.48,767.09 1562.31,767.09 C 1581.14,767.09 1585.32,769.65 1604.15,769.65 C 1622.98,769.65 1627.17,774.70 1646.00,774.70" fill="none" stroke="url(#gradLine)" stroke-width="7.6" stroke-linecap="round" stroke-linejoin="round" stroke-opacity="1.00"/><path d="M 14.00,885.30 C 32.83,885.30 37.02,897.23 55.85,897.23 C 74.68,897.23 78.86,906.47 97.69,906.47 C 116.52,906.47 120.71,908.80 139.54,908.80 C 158.37,908.80 162.55,916.67 181.38,916.67 C 200.22,916.67 204.40,937.82 223.23,937.82 C 242.06,937.82 246.25,932.02 265.08,932.02 C 283.91,932.02 288.09,995.64 306.92,995.64 C 325.75,995.64 329.94,1020.50 348.77,1020.50 C 367.60,1020.50 371.78,909.63 390.62,909.63 C 409.45,909.63 413.63,923.88 432.46,923.88 C 451.29,923.88 455.48,959.55 474.31,959.55 C 493.14,959.55 497.32,990.27 516.15,990.27 C 534.98,990.27 539.17,943.68 558.00,943.68 C 576.83,943.68 581.02,981.82 599.85,981.82 C 618.68,981.82 622.86,1024.26 641.69,1024.26 C 660.52,1024.26 664.71,955.71 683.54,955.71 C 702.37,955.71 706.55,960.33 725.38,960.33 C 744.22,960.33 748.40,939.84 767.23,939.84 C 786.06,939.84 790.25,963.09 809.08,963.09 C 827.91,963.09 832.09,958.76 850.92,958.76 C 869.75,958.76 873.94,1027.73 892.77,1027.73 C 911.60,1027.73 915.78,1104.00 934.62,1104.00 C 953.45,1104.00 957.63,1063.42 976.46,1063.42 C 995.29,1063.42 999.48,1034.21 1018.31,1034.21 C 1037.14,1034.21 1041.32,1034.50 1060.15,1034.50 C 1078.98,1034.50 1083.17,929.87 1102.00,929.87 C 1120.83,929.87 1125.02,920.82 1143.85,920.82 C 1162.68,920.82 1166.86,913.39 1185.69,913.39 C 1204.52,913.39 1208.71,909.18 1227.54,909.18 C 1246.37,909.18 1250.55,904.87 1269.38,904.87 C 1288.22,904.87 1292.40,921.97 1311.23,921.97 C 1330.06,921.97 1334.25,920.92 1353.08,920.92 C 1371.91,920.92 1376.09,922.48 1394.92,922.48 C 1413.75,922.48 1417.94,899.92 1436.77,899.92 C 1455.60,899.92 1459.78,895.84 1478.62,895.84 C 1497.45,895.84 1501.63,893.39 1520.46,893.39 C 1539.29,893.39 1543.48,892.91 1562.31,892.91 C 1581.14,892.91 1585.32,890.35 1604.15,890.35 C 1622.98,890.35 1627.17,885.30 1646.00,885.30" fill="none" stroke="url(#gradLine)" stroke-width="7.6" stroke-linecap="round" stroke-linejoin="round" stroke-opacity="1.00"/><path d="M 14.00,802.70 C 32.83,802.70 37.02,790.77 55.85,790.77 C 74.68,790.77 78.86,781.53 97.69,781.53 C 116.52,781.53 120.71,779.20 139.54,779.20 C 158.37,779.20 162.55,771.33 181.38,771.33 C 200.22,771.33 204.40,750.18 223.23,750.18 C 242.06,750.18 246.25,755.98 265.08,755.98 C 283.91,755.98 288.09,692.36 306.92,692.36 C 325.75,692.36 329.94,667.50 348.77,667.50 C 367.60,667.50 371.78,778.37 390.62,778.37 C 409.45,778.37 413.63,764.12 432.46,764.12 C 451.29,764.12 455.48,728.45 474.31,728.45 C 493.14,728.45 497.32,697.73 516.15,697.73 C 534.98,697.73 539.17,744.32 558.00,744.32 C 576.83,744.32 581.02,706.18 599.85,706.18 C 618.68,706.18 622.86,663.74 641.69,663.74 C 660.52,663.74 664.71,732.29 683.54,732.29 C 702.37,732.29 706.55,727.67 725.38,727.67 C 744.22,727.67 748.40,748.16 767.23,748.16 C 786.06,748.16 790.25,724.91 809.08,724.91 C 827.91,724.91 832.09,729.24 850.92,729.24 C 869.75,729.24 873.94,660.27 892.77,660.27 C 911.60,660.27 915.78,584.00 934.62,584.00 C 953.45,584.00 957.63,624.58 976.46,624.58 C 995.29,624.58 999.48,653.79 1018.31,653.79 C 1037.14,653.79 1041.32,653.50 1060.15,653.50 C 1078.98,653.50 1083.17,758.13 1102.00,758.13 C 1120.83,758.13 1125.02,767.18 1143.85,767.18 C 1162.68,767.18 1166.86,774.61 1185.69,774.61 C 1204.52,774.61 1208.71,778.82 1227.54,778.82 C 1246.37,778.82 1250.55,783.13 1269.38,783.13 C 1288.22,783.13 1292.40,766.03 1311.23,766.03 C 1330.06,766.03 1334.25,767.08 1353.08,767.08 C 1371.91,767.08 1376.09,765.52 1394.92,765.52 C 1413.75,765.52 1417.94,788.08 1436.77,788.08 C 1455.60,788.08 1459.78,792.16 1478.62,792.16 C 1497.45,792.16 1501.63,794.61 1520.46,794.61 C 1539.29,794.61 1543.48,795.09 1562.31,795.09 C 1581.14,795.09 1585.32,797.65 1604.15,797.65 C 1622.98,797.65 1627.17,802.70 1646.00,802.70" fill="none" stroke="url(#gradLine)" stroke-width="8.0" stroke-linecap="round" stroke-linejoin="round" stroke-opacity="1.00"/><path d="M 14.00,857.30 C 32.83,857.30 37.02,869.23 55.85,869.23 C 74.68,869.23 78.86,878.47 97.69,878.47 C 116.52,878.47 120.71,880.80 139.54,880.80 C 158.37,880.80 162.55,888.67 181.38,888.67 C 200.22,888.67 204.40,909.82 223.23,909.82 C 242.06,909.82 246.25,904.02 265.08,904.02 C 283.91,904.02 288.09,967.64 306.92,967.64 C 325.75,967.64 329.94,992.50 348.77,992.50 C 367.60,992.50 371.78,881.63 390.62,881.63 C 409.45,881.63 413.63,895.88 432.46,895.88 C 451.29,895.88 455.48,931.55 474.31,931.55 C 493.14,931.55 497.32,962.27 516.15,962.27 C 534.98,962.27 539.17,915.68 558.00,915.68 C 576.83,915.68 581.02,953.82 599.85,953.82 C 618.68,953.82 622.86,996.26 641.69,996.26 C 660.52,996.26 664.71,927.71 683.54,927.71 C 702.37,927.71 706.55,932.33 725.38,932.33 C 744.22,932.33 748.40,911.84 767.23,911.84 C 786.06,911.84 790.25,935.09 809.08,935.09 C 827.91,935.09 832.09,930.76 850.92,930.76 C 869.75,930.76 873.94,999.73 892.77,999.73 C 911.60,999.73 915.78,1076.00 934.62,1076.00 C 953.45,1076.00 957.63,1035.42 976.46,1035.42 C 995.29,1035.42 999.48,1006.21 1018.31,1006.21 C 1037.14,1006.21 1041.32,1006.50 1060.15,1006.50 C 1078.98,1006.50 1083.17,901.87 1102.00,901.87 C 1120.83,901.87 1125.02,892.82 1143.85,892.82 C 1162.68,892.82 1166.86,885.39 1185.69,885.39 C 1204.52,885.39 1208.71,881.18 1227.54,881.18 C 1246.37,881.18 1250.55,876.87 1269.38,876.87 C 1288.22,876.87 1292.40,893.97 1311.23,893.97 C 1330.06,893.97 1334.25,892.92 1353.08,892.92 C 1371.91,892.92 1376.09,894.48 1394.92,894.48 C 1413.75,894.48 1417.94,871.92 1436.77,871.92 C 1455.60,871.92 1459.78,867.84 1478.62,867.84 C 1497.45,867.84 1501.63,865.39 1520.46,865.39 C 1539.29,865.39 1543.48,864.91 1562.31,864.91 C 1581.14,864.91 1585.32,862.35 1604.15,862.35 C 1622.98,862.35 1627.17,857.30 1646.00,857.30" fill="none" stroke="url(#gradLine)" stroke-width="8.0" stroke-linecap="round" stroke-linejoin="round" stroke-opacity="1.00"/></svg>