<svg width="800" height="800" viewBox="0 0 1638.0 1638.0" xmlns="http://www.w3.org/2000/svg"><defs><linearGradient id="gradFill" x1="0%" y1="0%" x2="100%" y2="0%"><stop offset="0.0%" stop-color="#ff2626"/><stop offset="8.3%" stop-color="#ff9226"/><stop offset="16.7%" stop-color="#ffff26"/><stop offset="25.0%" stop-color="#92ff26"/><stop offset="33.3%" stop-color="#26ff26"/><stop offset="41.7%" stop-color="#26ff92"/><stop offset="50.0%" stop-color="#26ffff"/><stop offset="58.3%" stop-color="#2692ff"/><stop offset="66.7%" stop-color="#2626ff"/><stop offset="75.0%" stop-color="#9226ff"/><stop offset="83.3%" stop-color="#ff26ff"/><stop offset="91.7%" stop-color="#ff2692"/><stop offset="100.0%" stop-color="#ff2626"/></linearGradient></defs><path d="M 3.00,819.00 L 3.00,811.00 L 14.74,806.74 L 26.48,800.17 L 38.22,796.08 L 49.96,795.23 L 61.71,792.82 L 73.45,788.38 L 85.19,788.88 L 96.93,787.30 L 108.67,781.52 L 120.41,784.20 L 132.15,790.96 L 143.89,785.22 L 155.63,781.98 L 167.37,777.55 L 179.12,774.90 L 190.86,786.57 L 202.60,793.62 L 214.34,759.89 L 226.08,742.82 L 237.82,747.32 L 249.56,716.30 L 261.30,664.17 L 273.04,694.67 L 284.78,734.51 L 296.53,768.56 L 308.27,773.88 L 320.01,785.88 L 331.75,762.59 L 343.49,745.99 L 355.23,757.58 L 366.97,779.12 L 378.71,793.81 L 390.45,799.92 L 402.19,802.58 L 413.94,802.71 L 425.68,802.07 L 437.42,794.54 L 449.16,754.40 L 460.90,733.27 L 472.64,756.44 L 484.38,795.01 L 496.12,737.98 L 507.86,681.73 L 519.60,687.98 L 531.35,733.28 L 543.09,760.24 L 554.83,777.91 L 566.57,790.72 L 578.31,768.21 L 590.05,760.27 L 601.79,759.85 L 613.53,768.05 L 625.27,784.68 L 637.01,755.19 L 648.76,766.90 L 660.50,770.33 L 672.24,756.45 L 683.98,732.07 L 695.72,627.48 L 707.46,631.74 L 719.20,667.02 L 730.94,738.66 L 742.68,766.56 L 754.42,738.78 L 766.17,721.90 L 777.91,742.43 L 789.65,671.08 L 801.39,673.22 L 813.13,534.83 L 824.87,406.87 L 836.61,539.07 L 848.35,650.56 L 860.09,729.08 L 871.83,750.23 L 883.58,739.72 L 895.32,707.32 L 907.06,682.71 L 918.80,577.35 L 930.54,614.83 L 942.28,668.70 L 954.02,693.12 L 965.76,698.96 L 977.50,715.46 L 989.24,694.30 L 1000.99,570.78 L 1012.73,644.50 L 1024.47,717.50 L 1036.21,762.27 L 1047.95,755.77 L 1059.69,714.04 L 1071.43,680.04 L 1083.17,701.72 L 1094.91,722.17 L 1106.65,756.53 L 1118.40,753.26 L 1130.14,750.03 L 1141.88,724.75 L 1153.62,765.22 L 1165.36,779.24 L 1177.10,759.96 L 1188.84,761.56 L 1200.58,757.65 L 1212.32,738.58 L 1224.06,723.43 L 1235.81,737.12 L 1247.55,742.14 L 1259.29,732.91 L 1271.03,726.55 L 1282.77,729.13 L 1294.51,722.03 L 1306.25,705.74 L 1317.99,757.50 L 1329.73,752.96 L 1341.47,740.18 L 1353.22,769.79 L 1364.96,769.26 L 1376.70,753.98 L 1388.44,757.96 L 1400.18,741.83 L 1411.92,763.67 L 1423.66,767.50 L 1435.40,778.26 L 1447.14,782.35 L 1458.88,793.51 L 1470.63,793.18 L 1482.37,788.10 L 1494.11,786.24 L 1505.85,791.39 L 1517.59,794.15 L 1529.33,797.08 L 1541.07,799.24 L 1552.81,800.36 L 1564.55,803.37 L 1576.29,804.81 L 1588.04,804.72 L 1599.78,806.17 L 1611.52,808.80 L 1623.26,810.32 L 1635.00,811.00 L 1635.00,819.00 L 1635.00,827.00 L 1623.26,827.68 L 1611.52,829.20 L 1599.78,831.83 L 1588.04,833.28 L 1576.29,833.19 L 1564.55,834.63 L 1552.81,837.64 L 1541.07,838.76 L 1529.33,840.92 L 1517.59,843.85 L 1505.85,846.61 L 1494.11,851.76 L 1482.37,849.90 L 1470.63,844.82 L 1458.88,844.49 L 1447.14,855.65 L 1435.40,859.74 L 1423.66,870.50 L 1411.92,874.33 L 1400.18,896.17 L 1388.44,880.04 L 1376.70,884.02 L 1364.96,868.74 L 1353.22,868.21 L 1341.47,897.82 L 1329.73,885.04 L 1317.99,880.50 L 1306.25,932.26 L 1294.51,915.97 L 1282.77,908.87 L 1271.03,911.45 L 1259.29,905.09 L 1247.55,895.86 L 1235.81,900.88 L 1224.06,914.57 L 1212.32,899.42 L 1200.58,880.35 L 1188.84,876.44 L 1177.10,878.04 L 1165.36,858.76 L 1153.62,872.78 L 1141.88,913.25 L 1130.14,887.97 L 1118.40,884.74 L 1106.65,881.47 L 1094.91,915.83 L 1083.17,936.28 L 1071.43,957.96 L 1059.69,923.96 L 1047.95,882.23 L 1036.21,875.73 L 1024.47,920.50 L 1012.73,993.50 L 1000.99,1067.22 L 989.24,943.70 L 977.50,922.54 L 965.76,939.04 L 954.02,944.88 L 942.28,969.30 L 930.54,1023.17 L 918.80,1060.65 L 907.06,955.29 L 895.32,930.68 L 883.58,898.28 L 871.83,887.77 L 860.09,908.92 L 848.35,987.44 L 836.61,1098.93 L 824.87,1231.13 L 813.13,1103.17 L 801.39,964.78 L 789.65,966.92 L 777.91,895.57 L 766.17,916.10 L 754.42,899.22 L 742.68,871.44 L 730.94,899.34 L 719.20,970.98 L 707.46,1006.26 L 695.72,1010.52 L 683.98,905.93 L 672.24,881.55 L 660.50,867.67 L 648.76,871.10 L 637.01,882.81 L 625.27,853.32 L 613.53,869.95 L 601.79,878.15 L 590.05,877.73 L 578.31,869.79 L 566.57,847.28 L 554.83,860.09 L 543.09,877.76 L 531.35,904.72 L 519.60,950.02 L 507.86,956.27 L 496.12,900.02 L 484.38,842.99 L 472.64,881.56 L 460.90,904.73 L 449.16,883.60 L 437.42,843.46 L 425.68,835.93 L 413.94,835.29 L 402.19,835.42 L 390.45,838.08 L 378.71,844.19 L 366.97,858.88 L 355.23,880.42 L 343.49,892.01 L 331.75,875.41 L 320.01,852.12 L 308.27,864.12 L 296.53,869.44 L 284.78,903.49 L 273.04,943.33 L 261.30,973.83 L 249.56,921.70 L 237.82,890.68 L 226.08,895.18 L 214.34,878.11 L 202.60,844.38 L 190.86,851.43 L 179.12,863.10 L 167.37,860.45 L 155.63,856.02 L 143.89,852.78 L 132.15,847.04 L 120.41,853.80 L 108.67,856.48 L 96.93,850.70 L 85.19,849.12 L 73.45,849.62 L 61.71,845.18 L 49.96,842.77 L 38.22,841.92 L 26.48,837.83 L 14.74,831.26 L 3.00,827.00 Z" fill="#000000" stroke="#000000" stroke-width="6" stroke-linejoin="round"/><path d="M 3.00,819.00 L 3.00,811.00 L 14.74,806.74 L 26.48,800.17 L 38.22,796.08 L 49.96,795.23 L 61.71,792.82 L 73.45,788.38 L 85.19,788.88 L 96.93,787.30 L 108.67,781.52 L 120.41,784.20 L 132.15,790.96 L 143.89,785.22 L 155.63,781.98 L 167.37,777.55 L 179.12,774.90 L 190.86,786.57 L 202.60,793.62 L 214.34,759.89 L 226.08,742.82 L 237.82,747.32 L 249.56,716.30 L 261.30,664.17 L 273.04,694.67 L 284.78,734.51 L 296.53,768.56 L 308.27,773.88 L 320.01,785.88 L 331.75,762.59 L 343.49,745.99 L 355.23,757.58 L 366.97,779.12 L 378.71,793.81 L 390.45,799.92 L 402.19,802.58 L 413.94,802.71 L 425.68,802.07 L 437.42,794.54 L 449.16,754.40 L 460.90,733.27 L 472.64,756.44 L 484.38,795.01 L 496.12,737.98 L 507.86,681.73 L 519.60,687.98 L 531.35,733.28 L 543.09,760.24 L 554.83,777.91 L 566.57,790.72 L 578.31,768.21 L 590.05,760.27 L 601.79,759.85 L 613.53,768.05 L 625.27,784.68 L 637.01,755.19 L 648.76,766.90 L 660.50,770.33 L 672.24,756.45 L 683.98,732.07 L 695.72,627.48 L 707.46,631.74 L 719.20,667.02 L 730.94,738.66 L 742.68,766.56 L 754.42,738.78 L 766.17,721.90 L 777.91,742.43 L 789.65,671.08 L 801.39,673.22 L 813.13,534.83 L 824.87,406.87 L 836.61,539.07 L 848.35,650.56 L 860.09,729.08 L 871.83,750.23 L 883.58,739.72 L 895.32,707.32 L 907.06,682.71 L 918.80,577.35 L 930.54,614.83 L 942.28,668.70 L 954.02,693.12 L 965.76,698.96 L 977.50,715.46 L 989.24,694.30 L 1000.99,570.78 L 1012.73,644.50 L 1024.47,717.50 L 1036.21,762.27 L 1047.95,755.77 L 1059.69,714.04 L 1071.43,680.04 L 1083.17,701.72 L 1094.91,722.17 L 1106.65,756.53 L 1118.40,753.26 L 1130.14,750.03 L 1141.88,724.75 L 1153.62,765.22 L 1165.36,779.24 L 1177.10,759.96 L 1188.84,761.56 L 1200.58,757.65 L 1212.32,738.58 L 1224.06,723.43 L 1235.81,737.12 L 1247.55,742.14 L 1259.29,732.91 L 1271.03,726.55 L 1282.77,729.13 L 1294.51,722.03 L 1306.25,705.74 L 1317.99,757.50 L 1329.73,752.96 L 1341.47,740.18 L 1353.22,769.79 L 1364.96,769.26 L 1376.70,753.98 L 1388.44,757.96 L 1400.18,741.83 L 1411.92,763.67 L 1423.66,767.50 L 1435.40,778.26 L 1447.14,782.35 L 1458.88,793.51 L 1470.63,793.18 L 1482.37,788.10 L 1494.11,786.24 L 1505.85,791.39 L 1517.59,794.15 L 1529.33,797.08 L 1541.07,799.24 L 1552.81,800.36 L 1564.55,803.37 L 1576.29,804.81 L 1588.04,804.72 L 1599.78,806.17 L 1611.52,808.80 L 1623.26,810.32 L 1635.00,811.00 L 1635.00,819.00 L 1635.00,827.00 L 1623.26,827.68 L 1611.52,829.20 L 1599.78,831.83 L 1588.04,833.28 L 1576.29,833.19 L 1564.55,834.63 L 1552.81,837.64 L 1541.07,838.76 L 1529.33,840.92 L 1517.59,843.85 L 1505.85,846.61 L 1494.11,851.76 L 1482.37,849.90 L 1470.63,844.82 L 1458.88,844.49 L 1447.14,855.65 L 1435.40,859.74 L 1423.66,870.50 L 1411.92,874.33 L 1400.18,896.17 L 1388.44,880.04 L 1376.70,884.02 L 1364.96,868.74 L 1353.22,868.21 L 1341.47,897.82 L 1329.73,885.04 L 1317.99,880.50 L 1306.25,932.26 L 1294.51,915.97 L 1282.77,908.87 L 1271.03,911.45 L 1259.29,905.09 L 1247.55,895.86 L 1235.81,900.88 L 1224.06,914.57 L 1212.32,899.42 L 1200.58,880.35 L 1188.84,876.44 L 1177.10,878.04 L 1165.36,858.76 L 1153.62,872.78 L 1141.88,913.25 L 1130.14,887.97 L 1118.40,884.74 L 1106.65,881.47 L 1094.91,915.83 L 1083.17,936.28 L 1071.43,957.96 L 1059.69,923.96 L 1047.95,882.23 L 1036.21,875.73 L 1024.47,920.50 L 1012.73,993.50 L 1000.99,1067.22 L 989.24,943.70 L 977.50,922.54 L 965.76,939.04 L 954.02,944.88 L 942.28,969.30 L 930.54,1023.17 L 918.80,1060.65 L 907.06,955.29 L 895.32,930.68 L 883.58,898.28 L 871.83,887.77 L 860.09,908.92 L 848.35,987.44 L 836.61,1098.93 L 824.87,1231.13 L 813.13,1103.17 L 801.39,964.78 L 789.65,966.92 L 777.91,895.57 L 766.17,916.10 L 754.42,899.22 L 742.68,871.44 L 730.94,899.34 L 719.20,970.98 L 707.46,1006.26 L 695.72,1010.52 L 683.98,905.93 L 672.24,881.55 L 660.50,867.67 L 648.76,871.10 L 637.01,882.81 L 625.27,853.32 L 613.53,869.95 L 601.79,878.15 L 590.05,877.73 L 578.31,869.79 L 566.57,847.28 L 554.83,860.09 L 543.09,877.76 L 531.35,904.72 L 519.60,950.02 L 507.86,956.27 L 496.12,900.02 L 484.38,842.99 L 472.64,881.56 L 460.90,904.73 L 449.16,883.60 L 437.42,843.46 L 425.68,835.93 L 413.94,835.29 L 402.19,835.42 L 390.45,838.08 L 378.71,844.19 L 366.97,858.88 L 355.23,880.42 L 343.49,892.01 L 331.75,875.41 L 320.01,852.12 L 308.27,864.12 L 296.53,869.44 L 284.78,903.49 L 273.04,943.33 L 261.30,973.83 L 249.56,921.70 L 237.82,890.68 L 226.08,895.18 L 214.34,878.11 L 202.60,844.38 L 190.86,851.43 L 179.12,863.10 L 167.37,860.45 L 155.63,856.02 L 143.89,852.78 L 132.15,847.04 L 120.41,853.80 L 108.67,856.48 L 96.93,850.70 L 85.19,849.12 L 73.45,849.62 L 61.71,845.18 L 49.96,842.77 L 38.22,841.92 L 26.48,837.83 L 14.74,831.26 L 3.00,827.00 Z" fill="url(#gradFill)"/><line x1="14.74" y1="806.74" x2="14.74" y2="831.26" stroke="#000000" stroke-width="2" stroke-linecap="round"/><line x1="26.48" y1="800.17" x2="26.48" y2="837.83" stroke="#000000" stroke-width="2" stroke-linecap="round"/><line x1="38.22" y1="796.08" x2="38.22" y2="841.92" stroke="#000000" stroke-width="2" stroke-linecap="round"/><line x1="49.96" y1="795.23" x2="49.96" y2="842.77" stroke="#000000" stroke-width="2" stroke-linecap="round"/><line x1="61.71" y1="792.82" x2="61.71" y2="845.18" stroke="#000000" stroke-width="2" stroke-linecap="round"/><line x1="73.45" y1="788.38" x2="73.45" y2="849.62" stroke="#000000" stroke-width="2" stroke-linecap="round"/><line x1="85.19" y1="788.88" x2="85.19" y2="849.12" stroke="#000000" stroke-width="2" stroke-linecap="round"/><line x1="96.93" y1="787.30" x2="96.93" y2="850.70" stroke="#000000" stroke-width="2" stroke-linecap="round"/><line x1="108.67" y1="781.52" x2="108.67" y2="856.48" stroke="#000000" stroke-width="2" stroke-linecap="round"/><line x1="120.41" y1="784.20" x2="120.41" y2="853.80" stroke="#000000" stroke-width="2" stroke-linecap="round"/><line x1="132.15" y1="790.96" x2="132.15" y2="847.04" stroke="#000000" stroke-width="2" stroke-linecap="round"/><line x1="143.89" y1="785.22" x2="143.89" y2="852.78" stroke="#000000" stroke-width="2" stroke-linecap="round"/><line x1="155.63" y1="781.98" x2="155.63" y2="856.02" stroke="#000000" stroke-width="2" stroke-linecap="round"/><line x1="167.37" y1="777.55" x2="167.37" y2="860.45" stroke="#000000" stroke-width="2" stroke-linecap="round"/><line x1="179.12" y1="774.90" x2="179.12" y2="863.10" stroke="#000000" stroke-width="2" stroke-linecap="round"/><line x1="190.86" y1="786.57" x2="190.86" y2="851.43" stroke="#000000" stroke-width="2" stroke-linecap="round"/><line x1="202.60" y1="793.62" x2="202.60" y2="844.38" stroke="#000000" stroke-width="2" stroke-linecap="round"/><line x1="214.34" y1="759.89" x2="214.34" y2="878.11" stroke="#000000" stroke-width="2" stroke-linecap="round"/><line x1="226.08" y1="742.82" x2="226.08" y2="895.18" stroke="#000000" stroke-width="2" stroke-linecap="round"/><line x1="237.82" y1="747.32" x2="237.82" y2="890.68" stroke="#000000" stroke-width="2" stroke-linecap="round"/><line x1="249.56" y1="716.30" x2="249.56" y2="921.70" stroke="#000000" stroke-width="2" stroke-linecap="round"/><line x1="261.30" y1="664.17" x2="261.30" y2="973.83" stroke="#000000" stroke-width="2" stroke-linecap="round"/><line x1="273.04" y1="694.67" x2="273.04" y2="943.33" stroke="#000000" stroke-width="2" stroke-linecap="round"/><line x1="284.78" y1="734.51" x2="284.78" y2="903.49" stroke="#000000" stroke-width="2" stroke-linecap="round"/><line x1="296.53" y1="768.56" x2="296.53" y2="869.44" stroke="#000000" stroke-width="2" stroke-linecap="round"/><line x1="308.27" y1="773.88" x2="308.27" y2="864.12" stroke="#000000" stroke-width="2" stroke-linecap="round"/><line x1="320.01" y1="785.88" x2="320.01" y2="852.12" stroke="#000000" stroke-width="2" stroke-linecap="round"/><line x1="331.75" y1="762.59" x2="331.75" y2="875.41" stroke="#000000" stroke-width="2" stroke-linecap="round"/><line x1="343.49" y1="745.99" x2="343.49" y2="892.01" stroke="#000000" stroke-width="2" stroke-linecap="round"/><line x1="355.23" y1="757.58" x2="355.23" y2="880.42" stroke="#000000" stroke-width="2" stroke-linecap="round"/><line x1="366.97" y1="779.12" x2="366.97" y2="858.88" stroke="#000000" stroke-width="2" stroke-linecap="round"/><line x1="378.71" y1="793.81" x2="378.71" y2="844.19" stroke="#000000" stroke-width="2" stroke-linecap="round"/><line x1="390.45" y1="799.92" x2="390.45" y2="838.08" stroke="#000000" stroke-width="2" stroke-linecap="round"/><line x1="402.19" y1="802.58" x2="402.19" y2="835.42" stroke="#000000" stroke-width="2" stroke-linecap="round"/><line x1="413.94" y1="802.71" x2="413.94" y2="835.29" stroke="#000000" stroke-width="2" stroke-linecap="round"/><line x1="425.68" y1="802.07" x2="425.68" y2="835.93" stroke="#000000" stroke-width="2" stroke-linecap="round"/><line x1="437.42" y1="794.54" x2="437.42" y2="843.46" stroke="#000000" stroke-width="2" stroke-linecap="round"/><line x1="449.16" y1="754.40" x2="449.16" y2="883.60" stroke="#000000" stroke-width="2" stroke-linecap="round"/><line x1="460.90" y1="733.27" x2="460.90" y2="904.73" stroke="#000000" stroke-width="2" stroke-linecap="round"/><line x1="472.64" y1="756.44" x2="472.64" y2="881.56" stroke="#000000" stroke-width="2" stroke-linecap="round"/><line x1="484.38" y1="795.01" x2="484.38" y2="842.99" stroke="#000000" stroke-width="2" stroke-linecap="round"/><line x1="496.12" y1="737.98" x2="496.12" y2="900.02" stroke="#000000" stroke-width="2" stroke-linecap="round"/><line x1="507.86" y1="681.73" x2="507.86" y2="956.27" stroke="#000000" stroke-width="2" stroke-linecap="round"/><line x1="519.60" y1="687.98" x2="519.60" y2="950.02" stroke="#000000" stroke-width="2" stroke-linecap="round"/><line x1="531.35" y1="733.28" x2="531.35" y2="904.72" stroke="#000000" stroke-width="2" stroke-linecap="round"/><line x1="543.09" y1="760.24" x2="543.09" y2="877.76" stroke="#000000" stroke-width="2" stroke-linecap="round"/><line x1="554.83" y1="777.91" x2="554.83" y2="860.09" stroke="#000000" stroke-width="2" stroke-linecap="round"/><line x1="566.57" y1="790.72" x2="566.57" y2="847.28" stroke="#000000" stroke-width="2" stroke-linecap="round"/><line x1="578.31" y1="768.21" x2="578.31" y2="869.79" stroke="#000000" stroke-width="2" stroke-linecap="round"/><line x1="590.05" y1="760.27" x2="590.05" y2="877.73" stroke="#000000" stroke-width="2" stroke-linecap="round"/><line x1="601.79" y1="759.85" x2="601.79" y2="878.15" stroke="#000000" stroke-width="2" stroke-linecap="round"/><line x1="613.53" y1="768.05" x2="613.53" y2="869.95" stroke="#000000" stroke-width="2" stroke-linecap="round"/><line x1="625.27" y1="784.68" x2="625.27" y2="853.32" stroke="#000000" stroke-width="2" stroke-linecap="round"/><line x1="637.01" y1="755.19" x2="637.01" y2="882.81" stroke="#000000" stroke-width="2" stroke-linecap="round"/><line x1="648.76" y1="766.90" x2="648.76" y2="871.10" stroke="#000000" stroke-width="2" stroke-linecap="round"/><line x1="660.50" y1="770.33" x2="660.50" y2="867.67" stroke="#000000" stroke-width="2" stroke-linecap="round"/><line x1="672.24" y1="756.45" x2="672.24" y2="881.55" stroke="#000000" stroke-width="2" stroke-linecap="round"/><line x1="683.98" y1="732.07" x2="683.98" y2="905.93" stroke="#000000" stroke-width="2" stroke-linecap="round"/><line x1="695.72" y1="627.48" x2="695.72" y2="1010.52" stroke="#000000" stroke-width="2" stroke-linecap="round"/><line x1="707.46" y1="631.74" x2="707.46" y2="1006.26" stroke="#000000" stroke-width="2" stroke-linecap="round"/><line x1="719.20" y1="667.02" x2="719.20" y2="970.98" stroke="#000000" stroke-width="2" stroke-linecap="round"/><line x1="730.94" y1="738.66" x2="730.94" y2="899.34" stroke="#000000" stroke-width="2" stroke-linecap="round"/><line x1="742.68" y1="766.56" x2="742.68" y2="871.44" stroke="#000000" stroke-width="2" stroke-linecap="round"/><line x1="754.42" y1="738.78" x2="754.42" y2="899.22" stroke="#000000" stroke-width="2" stroke-linecap="round"/><line x1="766.17" y1="721.90" x2="766.17" y2="916.10" stroke="#000000" stroke-width="2" stroke-linecap="round"/><line x1="777.91" y1="742.43" x2="777.91" y2="895.57" stroke="#000000" stroke-width="2" stroke-linecap="round"/><line x1="789.65" y1="671.08" x2="789.65" y2="966.92" stroke="#000000" stroke-width="2" stroke-linecap="round"/><line x1="801.39" y1="673.22" x2="801.39" y2="964.78" stroke="#000000" stroke-width="2" stroke-linecap="round"/><line x1="813.13" y1="534.83" x2="813.13" y2="1103.17" stroke="#000000" stroke-width="2" stroke-linecap="round"/><line x1="824.87" y1="406.87" x2="824.87" y2="1231.13" stroke="#000000" stroke-width="2" stroke-linecap="round"/><line x1="836.61" y1="539.07" x2="836.61" y2="1098.93" stroke="#000000" stroke-width="2" stroke-linecap="round"/><line x1="848.35" y1="650.56" x2="848.35" y2="987.44" stroke="#000000" stroke-width="2" stroke-linecap="round"/><line x1="860.09" y1="729.08" x2="860.09" y2="908.92" stroke="#000000" stroke-width="2" stroke-linecap="round"/><line x1="871.83" y1="750.23" x2="871.83" y2="887.77" stroke="#000000" stroke-width="2" stroke-linecap="round"/><line x1="883.58" y1="739.72" x2="883.58" y2="898.28" stroke="#000000" stroke-width="2" stroke-linecap="round"/><line x1="895.32" y1="707.32" x2="895.32" y2="930.68" stroke="#000000" stroke-width="2" stroke-linecap="round"/><line x1="907.06" y1="682.71" x2="907.06" y2="955.29" stroke="#000000" stroke-width="2" stroke-linecap="round"/><line x1="918.80" y1="577.35" x2="918.80" y2="1060.65" stroke="#000000" stroke-width="2" stroke-linecap="round"/><line x1="930.54" y1="614.83" x2="930.54" y2="1023.17" stroke="#000000" stroke-width="2" stroke-linecap="round"/><line x1="942.28" y1="668.70" x2="942.28" y2="969.30" stroke="#000000" stroke-width="2" stroke-linecap="round"/><line x1="954.02" y1="693.12" x2="954.02" y2="944.88" stroke="#000000" stroke-width="2" stroke-linecap="round"/><line x1="965.76" y1="698.96" x2="965.76" y2="939.04" stroke="#000000" stroke-width="2" stroke-linecap="round"/><line x1="977.50" y1="715.46" x2="977.50" y2="922.54" stroke="#000000" stroke-width="2" stroke-linecap="round"/><line x1="989.24" y1="694.30" x2="989.24" y2="943.70" stroke="#000000" stroke-width="2" stroke-linecap="round"/><line x1="1000.99" y1="570.78" x2="1000.99" y2="1067.22" stroke="#000000" stroke-width="2" stroke-linecap="round"/><line x1="1012.73" y1="644.50" x2="1012.73" y2="993.50" stroke="#000000" stroke-width="2" stroke-linecap="round"/><line x1="1024.47" y1="717.50" x2="1024.47" y2="920.50" stroke="#000000" stroke-width="2" stroke-linecap="round"/><line x1="1036.21" y1="762.27" x2="1036.21" y2="875.73" stroke="#000000" stroke-width="2" stroke-linecap="round"/><line x1="1047.95" y1="755.77" x2="1047.95" y2="882.23" stroke="#000000" stroke-width="2" stroke-linecap="round"/><line x1="1059.69" y1="714.04" x2="1059.69" y2="923.96" stroke="#000000" stroke-width="2" stroke-linecap="round"/><line x1="1071.43" y1="680.04" x2="1071.43" y2="957.96" stroke="#000000" stroke-width="2" stroke-linecap="round"/><line x1="1083.17" y1="701.72" x2="1083.17" y2="936.28" stroke="#000000" stroke-width="2" stroke-linecap="round"/><line x1="1094.91" y1="722.17" x2="1094.91" y2="915.83" stroke="#000000" stroke-width="2" stroke-linecap="round"/><line x1="1106.65" y1="756.53" x2="1106.65" y2="881.47" stroke="#000000" stroke-width="2" stroke-linecap="round"/><line x1="1118.40" y1="753.26" x2="1118.40" y2="884.74" stroke="#000000" stroke-width="2" stroke-linecap="round"/><line x1="1130.14" y1="750.03" x2="1130.14" y2="887.97" stroke="#000000" stroke-width="2" stroke-linecap="round"/><line x1="1141.88" y1="724.75" x2="1141.88" y2="913.25" stroke="#000000" stroke-width="2" stroke-linecap="round"/><line x1="1153.62" y1="765.22" x2="1153.62" y2="872.78" stroke="#000000" stroke-width="2" stroke-linecap="round"/><line x1="1165.36" y1="779.24" x2="1165.36" y2="858.76" stroke="#000000" stroke-width="2" stroke-linecap="round"/><line x1="1177.10" y1="759.96" x2="1177.10" y2="878.04" stroke="#000000" stroke-width="2" stroke-linecap="round"/><line x1="1188.84" y1="761.56" x2="1188.84" y2="876.44" stroke="#000000" stroke-width="2" stroke-linecap="round"/><line x1="1200.58" y1="757.65" x2="1200.58" y2="880.35" stroke="#000000" stroke-width="2" stroke-linecap="round"/><line x1="1212.32" y1="738.58" x2="1212.32" y2="899.42" stroke="#000000" stroke-width="2" stroke-linecap="round"/><line x1="1224.06" y1="723.43" x2="1224.06" y2="914.57" stroke="#000000" stroke-width="2" stroke-linecap="round"/><line x1="1235.81" y1="737.12" x2="1235.81" y2="900.88" stroke="#000000" stroke-width="2" stroke-linecap="round"/><line x1="1247.55" y1="742.14" x2="1247.55" y2="895.86" stroke="#000000" stroke-width="2" stroke-linecap="round"/><line x1="1259.29" y1="732.91" x2="1259.29" y2="905.09" stroke="#000000" stroke-width="2" stroke-linecap="round"/><line x1="1271.03" y1="726.55" x2="1271.03" y2="911.45" stroke="#000000" stroke-width="2" stroke-linecap="round"/><line x1="1282.77" y1="729.13" x2="1282.77" y2="908.87" stroke="#000000" stroke-width="2" stroke-linecap="round"/><line x1="1294.51" y1="722.03" x2="1294.51" y2="915.97" stroke="#000000" stroke-width="2" stroke-linecap="round"/><line x1="1306.25" y1="705.74" x2="1306.25" y2="932.26" stroke="#000000" stroke-width="2" stroke-linecap="round"/><line x1="1317.99" y1="757.50" x2="1317.99" y2="880.50" stroke="#000000" stroke-width="2" stroke-linecap="round"/><line x1="1329.73" y1="752.96" x2="1329.73" y2="885.04" stroke="#000000" stroke-width="2" stroke-linecap="round"/><line x1="1341.47" y1="740.18" x2="1341.47" y2="897.82" stroke="#000000" stroke-width="2" stroke-linecap="round"/><line x1="1353.22" y1="769.79" x2="1353.22" y2="868.21" stroke="#000000" stroke-width="2" stroke-linecap="round"/><line x1="1364.96" y1="769.26" x2="1364.96" y2="868.74" stroke="#000000" stroke-width="2" stroke-linecap="round"/><line x1="1376.70" y1="753.98" x2="1376.70" y2="884.02" stroke="#000000" stroke-width="2" stroke-linecap="round"/><line x1="1388.44" y1="757.96" x2="1388.44" y2="880.04" stroke="#000000" stroke-width="2" stroke-linecap="round"/><line x1="1400.18" y1="741.83" x2="1400.18" y2="896.17" stroke="#000000" stroke-width="2" stroke-linecap="round"/><line x1="1411.92" y1="763.67" x2="1411.92" y2="874.33" stroke="#000000" stroke-width="2" stroke-linecap="round"/><line x1="1423.66" y1="767.50" x2="1423.66" y2="870.50" stroke="#000000" stroke-width="2" stroke-linecap="round"/><line x1="1435.40" y1="778.26" x2="1435.40" y2="859.74" stroke="#000000" stroke-width="2" stroke-linecap="round"/><line x1="1447.14" y1="782.35" x2="1447.14" y2="855.65" stroke="#000000" stroke-width="2" stroke-linecap="round"/><line x1="1458.88" y1="793.51" x2="1458.88" y2="844.49" stroke="#000000" stroke-width="2" stroke-linecap="round"/><line x1="1470.63" y1="793.18" x2="1470.63" y2="844.82" stroke="#000000" stroke-width="2" stroke-linecap="round"/><line x1="1482.37" y1="788.10" x2="1482.37" y2="849.90" stroke="#000000" stroke-width="2" stroke-linecap="round"/><line x1="1494.11" y1="786.24" x2="1494.11" y2="851.76" stroke="#000000" stroke-width="2" stroke-linecap="round"/><line x1="1505.85" y1="791.39" x2="1505.85" y2="846.61" stroke="#000000" stroke-width="2" stroke-linecap="round"/><line x1="1517.59" y1="794.15" x2="1517.59" y2="843.85" stroke="#000000" stroke-width="2" stroke-linecap="round"/><line x1="1529.33" y1="797.08" x2="1529.33" y2="840.92" stroke="#000000" stroke-width="2" stroke-linecap="round"/><line x1="1541.07" y1="799.24" x2="1541.07" y2="838.76" stroke="#000000" stroke-width="2" stroke-linecap="round"/><line x1="1552.81" y1="800.36" x2="1552.81" y2="837.64" stroke="#000000" stroke-width="2" stroke-linecap="round"/><line x1="1564.55" y1="803.37" x2="1564.55" y2="834.63" stroke="#000000" stroke-width="2" stroke-linecap="round"/><line x1="1576.29" y1="804.81" x2="1576.29" y2="833.19" stroke="#000000" stroke-width="2" stroke-linecap="round"/><line x1="1588.04" y1="804.72" x2="1588.04" y2="833.28" stroke="#000000" stroke-width="2" stroke-linecap="round"/><line x1="1599.78" y1="806.17" x2="1599.78" y2="831.83" stroke="#000000" stroke-width="2" stroke-linecap="round"/><line x1="1611.52" y1="808.80" x2="1611.52" y2="829.20" stroke="#000000" stroke-width="2" stroke-linecap="round"/><line x1="1623.26" y1="810.32" x2="1623.26" y2="827.68" stroke="#000000" stroke-width="2" stroke-linecap="round"/><line x1="3.00" y1="819.00" x2="1635.00" y2="819.00" stroke="#000000" stroke-width="2" stroke-linecap="round"/></svg>