<svg width="800" height="800" viewBox="0 0 956.9 956.9" xmlns="http://www.w3.org/2000/svg"><polygon points="541.25,169.64 740.45,368.85 667.54,640.96 395.42,713.88 196.21,514.67 269.13,242.55" fill="none" stroke="#000000" stroke-width="24.00" stroke-linejoin="round"/><line x1="540.58" y1="181.22" x2="616.76" y2="105.04" stroke="#000000" stroke-width="20.94" stroke-linecap="round"/><line x1="559.41" y1="200.05" x2="664.72" y2="94.74" stroke="#000000" stroke-width="20.94" stroke-linecap="round"/><line x1="578.24" y1="218.88" x2="655.37" y2="141.74" stroke="#000000" stroke-width="20.94" stroke-linecap="round"/><line x1="597.07" y1="237.71" x2="652.77" y2="182.00" stroke="#000000" stroke-width="20.94" stroke-linecap="round"/><line x1="615.90" y1="256.54" x2="674.44" y2="197.99" stroke="#000000" stroke-width="20.94" stroke-linecap="round"/><line x1="634.72" y1="275.37" x2="719.62" y2="190.47" stroke="#000000" stroke-width="20.94" stroke-linecap="round"/><line x1="653.55" y1="294.20" x2="724.75" y2="223.00" stroke="#000000" stroke-width="20.94" stroke-linecap="round"/><line x1="672.38" y1="313.02" x2="745.96" y2="239.45" stroke="#000000" stroke-width="20.94" stroke-linecap="round"/><line x1="691.21" y1="331.85" x2="781.38" y2="241.69" stroke="#000000" stroke-width="20.94" stroke-linecap="round"/><line x1="710.04" y1="350.68" x2="789.10" y2="271.63" stroke="#000000" stroke-width="20.94" stroke-linecap="round"/><line x1="730.09" y1="374.06" x2="892.28" y2="417.52" stroke="#000000" stroke-width="20.94" stroke-linecap="round"/><line x1="723.20" y1="399.78" x2="793.93" y2="418.73" stroke="#000000" stroke-width="20.94" stroke-linecap="round"/><line x1="716.30" y1="425.50" x2="776.13" y2="441.53" stroke="#000000" stroke-width="20.94" stroke-linecap="round"/><line x1="709.41" y1="451.22" x2="755.86" y2="463.67" stroke="#000000" stroke-width="20.94" stroke-linecap="round"/><line x1="702.52" y1="476.94" x2="805.04" y2="504.41" stroke="#000000" stroke-width="20.94" stroke-linecap="round"/><line x1="695.63" y1="502.66" x2="943.39" y2="569.05" stroke="#000000" stroke-width="20.94" stroke-linecap="round"/><line x1="688.74" y1="528.38" x2="893.78" y2="583.33" stroke="#000000" stroke-width="20.94" stroke-linecap="round"/><line x1="681.84" y1="554.11" x2="733.81" y2="568.03" stroke="#000000" stroke-width="20.94" stroke-linecap="round"/><line x1="674.95" y1="579.83" x2="714.43" y2="590.41" stroke="#000000" stroke-width="20.94" stroke-linecap="round"/><line x1="668.06" y1="605.55" x2="734.07" y2="623.24" stroke="#000000" stroke-width="20.94" stroke-linecap="round"/><line x1="657.84" y1="634.60" x2="682.49" y2="726.60" stroke="#000000" stroke-width="20.94" stroke-linecap="round"/><line x1="632.12" y1="641.49" x2="651.77" y2="714.84" stroke="#000000" stroke-width="20.94" stroke-linecap="round"/><line x1="606.40" y1="648.38" x2="629.95" y2="736.28" stroke="#000000" stroke-width="20.94" stroke-linecap="round"/><line x1="580.68" y1="655.27" x2="613.50" y2="777.78" stroke="#000000" stroke-width="20.94" stroke-linecap="round"/><line x1="554.96" y1="662.16" x2="582.98" y2="766.75" stroke="#000000" stroke-width="20.94" stroke-linecap="round"/><line x1="529.24" y1="669.06" x2="548.57" y2="741.22" stroke="#000000" stroke-width="20.94" stroke-linecap="round"/><line x1="503.51" y1="675.95" x2="548.85" y2="845.14" stroke="#000000" stroke-width="20.94" stroke-linecap="round"/><line x1="477.79" y1="682.84" x2="525.83" y2="862.13" stroke="#000000" stroke-width="20.94" stroke-linecap="round"/><line x1="452.07" y1="689.73" x2="482.66" y2="803.89" stroke="#000000" stroke-width="20.94" stroke-linecap="round"/><line x1="426.35" y1="696.62" x2="461.28" y2="826.97" stroke="#000000" stroke-width="20.94" stroke-linecap="round"/><line x1="396.08" y1="702.30" x2="348.59" y2="749.79" stroke="#000000" stroke-width="20.94" stroke-linecap="round"/><line x1="377.25" y1="683.47" x2="294.21" y2="766.51" stroke="#000000" stroke-width="20.94" stroke-linecap="round"/><line x1="358.43" y1="664.64" x2="295.80" y2="727.27" stroke="#000000" stroke-width="20.94" stroke-linecap="round"/><line x1="339.60" y1="645.81" x2="253.63" y2="731.78" stroke="#000000" stroke-width="20.94" stroke-linecap="round"/><line x1="320.77" y1="626.98" x2="226.42" y2="721.33" stroke="#000000" stroke-width="20.94" stroke-linecap="round"/><line x1="301.94" y1="608.15" x2="181.39" y2="728.70" stroke="#000000" stroke-width="20.94" stroke-linecap="round"/><line x1="283.11" y1="589.32" x2="173.35" y2="699.08" stroke="#000000" stroke-width="20.94" stroke-linecap="round"/><line x1="264.28" y1="570.49" x2="191.30" y2="643.47" stroke="#000000" stroke-width="20.94" stroke-linecap="round"/><line x1="245.45" y1="551.67" x2="175.95" y2="621.17" stroke="#000000" stroke-width="20.94" stroke-linecap="round"/><line x1="226.62" y1="532.84" x2="144.56" y2="614.89" stroke="#000000" stroke-width="20.94" stroke-linecap="round"/><line x1="206.57" y1="509.46" x2="13.47" y2="457.72" stroke="#000000" stroke-width="20.94" stroke-linecap="round"/><line x1="213.47" y1="483.74" x2="55.22" y2="441.34" stroke="#000000" stroke-width="20.94" stroke-linecap="round"/><line x1="220.36" y1="458.02" x2="67.34" y2="417.02" stroke="#000000" stroke-width="20.94" stroke-linecap="round"/><line x1="227.25" y1="432.30" x2="128.95" y2="405.96" stroke="#000000" stroke-width="20.94" stroke-linecap="round"/><line x1="234.14" y1="406.58" x2="142.96" y2="382.15" stroke="#000000" stroke-width="20.94" stroke-linecap="round"/><line x1="241.03" y1="380.86" x2="160.68" y2="359.33" stroke="#000000" stroke-width="20.94" stroke-linecap="round"/><line x1="247.93" y1="355.13" x2="168.14" y2="333.76" stroke="#000000" stroke-width="20.94" stroke-linecap="round"/><line x1="254.82" y1="329.41" x2="180.96" y2="309.62" stroke="#000000" stroke-width="20.94" stroke-linecap="round"/><line x1="261.71" y1="303.69" x2="186.95" y2="283.66" stroke="#000000" stroke-width="20.94" stroke-linecap="round"/><line x1="268.60" y1="277.97" x2="182.59" y2="254.92" stroke="#000000" stroke-width="20.94" stroke-linecap="round"/><line x1="278.82" y1="248.92" x2="261.35" y2="183.72" stroke="#000000" stroke-width="20.94" stroke-linecap="round"/><line x1="304.54" y1="242.03" x2="283.84" y2="164.77" stroke="#000000" stroke-width="20.94" stroke-linecap="round"/><line x1="330.26" y1="235.14" x2="307.35" y2="149.63" stroke="#000000" stroke-width="20.94" stroke-linecap="round"/><line x1="355.98" y1="228.25" x2="338.07" y2="161.40" stroke="#000000" stroke-width="20.94" stroke-linecap="round"/><line x1="381.71" y1="221.35" x2="356.43" y2="127.01" stroke="#000000" stroke-width="20.94" stroke-linecap="round"/><line x1="407.43" y1="214.46" x2="380.77" y2="114.97" stroke="#000000" stroke-width="20.94" stroke-linecap="round"/><line x1="433.15" y1="207.57" x2="405.26" y2="103.49" stroke="#000000" stroke-width="20.94" stroke-linecap="round"/><line x1="458.87" y1="200.68" x2="431.38" y2="98.07" stroke="#000000" stroke-width="20.94" stroke-linecap="round"/><line x1="484.59" y1="193.79" x2="459.95" y2="101.83" stroke="#000000" stroke-width="20.94" stroke-linecap="round"/><line x1="510.31" y1="186.89" x2="491.32" y2="116.02" stroke="#000000" stroke-width="20.94" stroke-linecap="round"/><line x1="541.25" y1="169.64" x2="547.89" y2="176.28" stroke="#ce32ff" stroke-width="18.00" stroke-linecap="round"/><line x1="547.89" y1="176.28" x2="554.53" y2="182.92" stroke="#d432ff" stroke-width="18.00" stroke-linecap="round"/><line x1="554.53" y1="182.92" x2="561.17" y2="189.56" stroke="#da32ff" stroke-width="18.00" stroke-linecap="round"/><line x1="561.17" y1="189.56" x2="567.81" y2="196.20" stroke="#e032ff" stroke-width="18.00" stroke-linecap="round"/><line x1="567.81" y1="196.20" x2="574.45" y2="202.84" stroke="#e732ff" stroke-width="18.00" stroke-linecap="round"/><line x1="574.45" y1="202.84" x2="581.09" y2="209.48" stroke="#ed32ff" stroke-width="18.00" stroke-linecap="round"/><line x1="581.09" y1="209.48" x2="587.73" y2="216.12" stroke="#f432ff" stroke-width="18.00" stroke-linecap="round"/><line x1="587.73" y1="216.12" x2="594.37" y2="222.76" stroke="#fb32ff" stroke-width="18.00" stroke-linecap="round"/><line x1="594.37" y1="222.76" x2="601.01" y2="229.40" stroke="#ff32fb" stroke-width="18.00" stroke-linecap="round"/><line x1="601.01" y1="229.40" x2="607.65" y2="236.04" stroke="#ff32f4" stroke-width="18.00" stroke-linecap="round"/><line x1="607.65" y1="236.04" x2="614.29" y2="242.68" stroke="#ff32ed" stroke-width="18.00" stroke-linecap="round"/><line x1="614.29" y1="242.68" x2="620.93" y2="249.32" stroke="#ff32e6" stroke-width="18.00" stroke-linecap="round"/><line x1="620.93" y1="249.32" x2="627.57" y2="255.96" stroke="#ff32de" stroke-width="18.00" stroke-linecap="round"/><line x1="627.57" y1="255.96" x2="634.21" y2="262.60" stroke="#ff32d7" stroke-width="18.00" stroke-linecap="round"/><line x1="634.21" y1="262.60" x2="640.85" y2="269.24" stroke="#ff32cf" stroke-width="18.00" stroke-linecap="round"/><line x1="640.85" y1="269.24" x2="647.49" y2="275.88" stroke="#ff32c8" stroke-width="18.00" stroke-linecap="round"/><line x1="647.49" y1="275.88" x2="654.13" y2="282.52" stroke="#ff32c0" stroke-width="18.00" stroke-linecap="round"/><line x1="654.13" y1="282.52" x2="660.77" y2="289.16" stroke="#ff32b9" stroke-width="18.00" stroke-linecap="round"/><line x1="660.77" y1="289.16" x2="667.41" y2="295.80" stroke="#ff32b1" stroke-width="18.00" stroke-linecap="round"/><line x1="667.41" y1="295.80" x2="674.05" y2="302.44" stroke="#ff32aa" stroke-width="18.00" stroke-linecap="round"/><line x1="674.05" y1="302.44" x2="680.69" y2="309.08" stroke="#ff32a3" stroke-width="18.00" stroke-linecap="round"/><line x1="680.69" y1="309.08" x2="687.33" y2="315.72" stroke="#ff329c" stroke-width="18.00" stroke-linecap="round"/><line x1="687.33" y1="315.72" x2="693.97" y2="322.36" stroke="#ff3295" stroke-width="18.00" stroke-linecap="round"/><line x1="693.97" y1="322.36" x2="700.61" y2="329.00" stroke="#ff328e" stroke-width="18.00" stroke-linecap="round"/><line x1="700.61" y1="329.00" x2="707.25" y2="335.64" stroke="#ff3287" stroke-width="18.00" stroke-linecap="round"/><line x1="707.25" y1="335.64" x2="713.89" y2="342.28" stroke="#ff3281" stroke-width="18.00" stroke-linecap="round"/><line x1="713.89" y1="342.28" x2="720.53" y2="348.92" stroke="#ff327a" stroke-width="18.00" stroke-linecap="round"/><line x1="720.53" y1="348.92" x2="727.17" y2="355.56" stroke="#ff3274" stroke-width="18.00" stroke-linecap="round"/><line x1="727.17" y1="355.56" x2="733.81" y2="362.21" stroke="#ff326e" stroke-width="18.00" stroke-linecap="round"/><line x1="733.81" y1="362.21" x2="740.45" y2="368.85" stroke="#ff3268" stroke-width="18.00" stroke-linecap="round"/><line x1="740.45" y1="368.85" x2="738.02" y2="377.92" stroke="#ff3263" stroke-width="18.00" stroke-linecap="round"/><line x1="738.02" y1="377.92" x2="735.59" y2="386.99" stroke="#ff325d" stroke-width="18.00" stroke-linecap="round"/><line x1="735.59" y1="386.99" x2="733.16" y2="396.06" stroke="#ff3257" stroke-width="18.00" stroke-linecap="round"/><line x1="733.16" y1="396.06" x2="730.73" y2="405.13" stroke="#ff3251" stroke-width="18.00" stroke-linecap="round"/><line x1="730.73" y1="405.13" x2="728.30" y2="414.20" stroke="#ff324a" stroke-width="18.00" stroke-linecap="round"/><line x1="728.30" y1="414.20" x2="725.87" y2="423.27" stroke="#ff3244" stroke-width="18.00" stroke-linecap="round"/><line x1="725.87" y1="423.27" x2="723.44" y2="432.34" stroke="#ff323d" stroke-width="18.00" stroke-linecap="round"/><line x1="723.44" y1="432.34" x2="721.01" y2="441.41" stroke="#ff3236" stroke-width="18.00" stroke-linecap="round"/><line x1="721.01" y1="441.41" x2="718.58" y2="450.48" stroke="#ff3632" stroke-width="18.00" stroke-linecap="round"/><line x1="718.58" y1="450.48" x2="716.15" y2="459.55" stroke="#ff3d32" stroke-width="18.00" stroke-linecap="round"/><line x1="716.15" y1="459.55" x2="713.72" y2="468.62" stroke="#ff4432" stroke-width="18.00" stroke-linecap="round"/><line x1="713.72" y1="468.62" x2="711.28" y2="477.69" stroke="#ff4b32" stroke-width="18.00" stroke-linecap="round"/><line x1="711.28" y1="477.69" x2="708.85" y2="486.76" stroke="#ff5332" stroke-width="18.00" stroke-linecap="round"/><line x1="708.85" y1="486.76" x2="706.42" y2="495.83" stroke="#ff5a32" stroke-width="18.00" stroke-linecap="round"/><line x1="706.42" y1="495.83" x2="703.99" y2="504.91" stroke="#ff6232" stroke-width="18.00" stroke-linecap="round"/><line x1="703.99" y1="504.91" x2="701.56" y2="513.98" stroke="#ff6932" stroke-width="18.00" stroke-linecap="round"/><line x1="701.56" y1="513.98" x2="699.13" y2="523.05" stroke="#ff7132" stroke-width="18.00" stroke-linecap="round"/><line x1="699.13" y1="523.05" x2="696.70" y2="532.12" stroke="#ff7832" stroke-width="18.00" stroke-linecap="round"/><line x1="696.70" y1="532.12" x2="694.27" y2="541.19" stroke="#ff8032" stroke-width="18.00" stroke-linecap="round"/><line x1="694.27" y1="541.19" x2="691.84" y2="550.26" stroke="#ff8732" stroke-width="18.00" stroke-linecap="round"/><line x1="691.84" y1="550.26" x2="689.41" y2="559.33" stroke="#ff8e32" stroke-width="18.00" stroke-linecap="round"/><line x1="689.41" y1="559.33" x2="686.98" y2="568.40" stroke="#ff9532" stroke-width="18.00" stroke-linecap="round"/><line x1="686.98" y1="568.40" x2="684.55" y2="577.47" stroke="#ff9c32" stroke-width="18.00" stroke-linecap="round"/><line x1="684.55" y1="577.47" x2="682.12" y2="586.54" stroke="#ffa332" stroke-width="18.00" stroke-linecap="round"/><line x1="682.12" y1="586.54" x2="679.69" y2="595.61" stroke="#ffaa32" stroke-width="18.00" stroke-linecap="round"/><line x1="679.69" y1="595.61" x2="677.26" y2="604.68" stroke="#ffb032" stroke-width="18.00" stroke-linecap="round"/><line x1="677.26" y1="604.68" x2="674.83" y2="613.75" stroke="#ffb732" stroke-width="18.00" stroke-linecap="round"/><line x1="674.83" y1="613.75" x2="672.40" y2="622.82" stroke="#ffbd32" stroke-width="18.00" stroke-linecap="round"/><line x1="672.40" y1="622.82" x2="669.97" y2="631.89" stroke="#ffc332" stroke-width="18.00" stroke-linecap="round"/><line x1="669.97" y1="631.89" x2="667.54" y2="640.96" stroke="#ffc932" stroke-width="18.00" stroke-linecap="round"/><line x1="667.54" y1="640.96" x2="658.47" y2="643.40" stroke="#ffce32" stroke-width="18.00" stroke-linecap="round"/><line x1="658.47" y1="643.40" x2="649.40" y2="645.83" stroke="#ffd432" stroke-width="18.00" stroke-linecap="round"/><line x1="649.40" y1="645.83" x2="640.32" y2="648.26" stroke="#ffda32" stroke-width="18.00" stroke-linecap="round"/><line x1="640.32" y1="648.26" x2="631.25" y2="650.69" stroke="#ffe032" stroke-width="18.00" stroke-linecap="round"/><line x1="631.25" y1="650.69" x2="622.18" y2="653.12" stroke="#ffe732" stroke-width="18.00" stroke-linecap="round"/><line x1="622.18" y1="653.12" x2="613.11" y2="655.55" stroke="#ffed32" stroke-width="18.00" stroke-linecap="round"/><line x1="613.11" y1="655.55" x2="604.04" y2="657.98" stroke="#fff432" stroke-width="18.00" stroke-linecap="round"/><line x1="604.04" y1="657.98" x2="594.97" y2="660.41" stroke="#fffb32" stroke-width="18.00" stroke-linecap="round"/><line x1="594.97" y1="660.41" x2="585.90" y2="662.84" stroke="#fbff32" stroke-width="18.00" stroke-linecap="round"/><line x1="585.90" y1="662.84" x2="576.83" y2="665.27" stroke="#f4ff32" stroke-width="18.00" stroke-linecap="round"/><line x1="576.83" y1="665.27" x2="567.76" y2="667.70" stroke="#edff32" stroke-width="18.00" stroke-linecap="round"/><line x1="567.76" y1="667.70" x2="558.69" y2="670.13" stroke="#e6ff32" stroke-width="18.00" stroke-linecap="round"/><line x1="558.69" y1="670.13" x2="549.62" y2="672.56" stroke="#deff32" stroke-width="18.00" stroke-linecap="round"/><line x1="549.62" y1="672.56" x2="540.55" y2="674.99" stroke="#d7ff32" stroke-width="18.00" stroke-linecap="round"/><line x1="540.55" y1="674.99" x2="531.48" y2="677.42" stroke="#cfff32" stroke-width="18.00" stroke-linecap="round"/><line x1="531.48" y1="677.42" x2="522.41" y2="679.85" stroke="#c8ff32" stroke-width="18.00" stroke-linecap="round"/><line x1="522.41" y1="679.85" x2="513.34" y2="682.28" stroke="#c0ff32" stroke-width="18.00" stroke-linecap="round"/><line x1="513.34" y1="682.28" x2="504.26" y2="684.71" stroke="#b9ff32" stroke-width="18.00" stroke-linecap="round"/><line x1="504.26" y1="684.71" x2="495.19" y2="687.14" stroke="#b1ff32" stroke-width="18.00" stroke-linecap="round"/><line x1="495.19" y1="687.14" x2="486.12" y2="689.57" stroke="#aaff32" stroke-width="18.00" stroke-linecap="round"/><line x1="486.12" y1="689.57" x2="477.05" y2="692.00" stroke="#a3ff32" stroke-width="18.00" stroke-linecap="round"/><line x1="477.05" y1="692.00" x2="467.98" y2="694.44" stroke="#9cff32" stroke-width="18.00" stroke-linecap="round"/><line x1="467.98" y1="694.44" x2="458.91" y2="696.87" stroke="#95ff32" stroke-width="18.00" stroke-linecap="round"/><line x1="458.91" y1="696.87" x2="449.84" y2="699.30" stroke="#8eff32" stroke-width="18.00" stroke-linecap="round"/><line x1="449.84" y1="699.30" x2="440.77" y2="701.73" stroke="#87ff32" stroke-width="18.00" stroke-linecap="round"/><line x1="440.77" y1="701.73" x2="431.70" y2="704.16" stroke="#81ff32" stroke-width="18.00" stroke-linecap="round"/><line x1="431.70" y1="704.16" x2="422.63" y2="706.59" stroke="#7aff32" stroke-width="18.00" stroke-linecap="round"/><line x1="422.63" y1="706.59" x2="413.56" y2="709.02" stroke="#74ff32" stroke-width="18.00" stroke-linecap="round"/><line x1="413.56" y1="709.02" x2="404.49" y2="711.45" stroke="#6eff32" stroke-width="18.00" stroke-linecap="round"/><line x1="404.49" y1="711.45" x2="395.42" y2="713.88" stroke="#68ff32" stroke-width="18.00" stroke-linecap="round"/><line x1="395.42" y1="713.88" x2="388.78" y2="707.24" stroke="#63ff32" stroke-width="18.00" stroke-linecap="round"/><line x1="388.78" y1="707.24" x2="382.14" y2="700.60" stroke="#5dff32" stroke-width="18.00" stroke-linecap="round"/><line x1="382.14" y1="700.60" x2="375.50" y2="693.96" stroke="#57ff32" stroke-width="18.00" stroke-linecap="round"/><line x1="375.50" y1="693.96" x2="368.86" y2="687.32" stroke="#51ff32" stroke-width="18.00" stroke-linecap="round"/><line x1="368.86" y1="687.32" x2="362.22" y2="680.68" stroke="#4aff32" stroke-width="18.00" stroke-linecap="round"/><line x1="362.22" y1="680.68" x2="355.58" y2="674.04" stroke="#44ff32" stroke-width="18.00" stroke-linecap="round"/><line x1="355.58" y1="674.04" x2="348.94" y2="667.40" stroke="#3dff32" stroke-width="18.00" stroke-linecap="round"/><line x1="348.94" y1="667.40" x2="342.30" y2="660.76" stroke="#36ff32" stroke-width="18.00" stroke-linecap="round"/><line x1="342.30" y1="660.76" x2="335.66" y2="654.12" stroke="#32ff36" stroke-width="18.00" stroke-linecap="round"/><line x1="335.66" y1="654.12" x2="329.01" y2="647.48" stroke="#32ff3d" stroke-width="18.00" stroke-linecap="round"/><line x1="329.01" y1="647.48" x2="322.37" y2="640.84" stroke="#32ff44" stroke-width="18.00" stroke-linecap="round"/><line x1="322.37" y1="640.84" x2="315.73" y2="634.20" stroke="#32ff4b" stroke-width="18.00" stroke-linecap="round"/><line x1="315.73" y1="634.20" x2="309.09" y2="627.56" stroke="#32ff53" stroke-width="18.00" stroke-linecap="round"/><line x1="309.09" y1="627.56" x2="302.45" y2="620.92" stroke="#32ff5a" stroke-width="18.00" stroke-linecap="round"/><line x1="302.45" y1="620.92" x2="295.81" y2="614.28" stroke="#32ff62" stroke-width="18.00" stroke-linecap="round"/><line x1="295.81" y1="614.28" x2="289.17" y2="607.64" stroke="#32ff69" stroke-width="18.00" stroke-linecap="round"/><line x1="289.17" y1="607.64" x2="282.53" y2="601.00" stroke="#32ff71" stroke-width="18.00" stroke-linecap="round"/><line x1="282.53" y1="601.00" x2="275.89" y2="594.36" stroke="#32ff78" stroke-width="18.00" stroke-linecap="round"/><line x1="275.89" y1="594.36" x2="269.25" y2="587.72" stroke="#32ff80" stroke-width="18.00" stroke-linecap="round"/><line x1="269.25" y1="587.72" x2="262.61" y2="581.08" stroke="#32ff87" stroke-width="18.00" stroke-linecap="round"/><line x1="262.61" y1="581.08" x2="255.97" y2="574.44" stroke="#32ff8e" stroke-width="18.00" stroke-linecap="round"/><line x1="255.97" y1="574.44" x2="249.33" y2="567.80" stroke="#32ff95" stroke-width="18.00" stroke-linecap="round"/><line x1="249.33" y1="567.80" x2="242.69" y2="561.16" stroke="#32ff9c" stroke-width="18.00" stroke-linecap="round"/><line x1="242.69" y1="561.16" x2="236.05" y2="554.51" stroke="#32ffa3" stroke-width="18.00" stroke-linecap="round"/><line x1="236.05" y1="554.51" x2="229.41" y2="547.87" stroke="#32ffaa" stroke-width="18.00" stroke-linecap="round"/><line x1="229.41" y1="547.87" x2="222.77" y2="541.23" stroke="#32ffb0" stroke-width="18.00" stroke-linecap="round"/><line x1="222.77" y1="541.23" x2="216.13" y2="534.59" stroke="#32ffb7" stroke-width="18.00" stroke-linecap="round"/><line x1="216.13" y1="534.59" x2="209.49" y2="527.95" stroke="#32ffbd" stroke-width="18.00" stroke-linecap="round"/><line x1="209.49" y1="527.95" x2="202.85" y2="521.31" stroke="#32ffc3" stroke-width="18.00" stroke-linecap="round"/><line x1="202.85" y1="521.31" x2="196.21" y2="514.67" stroke="#32ffc9" stroke-width="18.00" stroke-linecap="round"/><line x1="196.21" y1="514.67" x2="198.64" y2="505.60" stroke="#32ffce" stroke-width="18.00" stroke-linecap="round"/><line x1="198.64" y1="505.60" x2="201.07" y2="496.53" stroke="#32ffd4" stroke-width="18.00" stroke-linecap="round"/><line x1="201.07" y1="496.53" x2="203.50" y2="487.46" stroke="#32ffda" stroke-width="18.00" stroke-linecap="round"/><line x1="203.50" y1="487.46" x2="205.93" y2="478.39" stroke="#32ffe0" stroke-width="18.00" stroke-linecap="round"/><line x1="205.93" y1="478.39" x2="208.36" y2="469.32" stroke="#32ffe7" stroke-width="18.00" stroke-linecap="round"/><line x1="208.36" y1="469.32" x2="210.79" y2="460.25" stroke="#32ffed" stroke-width="18.00" stroke-linecap="round"/><line x1="210.79" y1="460.25" x2="213.22" y2="451.18" stroke="#32fff4" stroke-width="18.00" stroke-linecap="round"/><line x1="213.22" y1="451.18" x2="215.66" y2="442.11" stroke="#32fffb" stroke-width="18.00" stroke-linecap="round"/><line x1="215.66" y1="442.11" x2="218.09" y2="433.04" stroke="#32fbff" stroke-width="18.00" stroke-linecap="round"/><line x1="218.09" y1="433.04" x2="220.52" y2="423.97" stroke="#32f4ff" stroke-width="18.00" stroke-linecap="round"/><line x1="220.52" y1="423.97" x2="222.95" y2="414.90" stroke="#32edff" stroke-width="18.00" stroke-linecap="round"/><line x1="222.95" y1="414.90" x2="225.38" y2="405.83" stroke="#32e6ff" stroke-width="18.00" stroke-linecap="round"/><line x1="225.38" y1="405.83" x2="227.81" y2="396.76" stroke="#32deff" stroke-width="18.00" stroke-linecap="round"/><line x1="227.81" y1="396.76" x2="230.24" y2="387.68" stroke="#32d7ff" stroke-width="18.00" stroke-linecap="round"/><line x1="230.24" y1="387.68" x2="232.67" y2="378.61" stroke="#32cfff" stroke-width="18.00" stroke-linecap="round"/><line x1="232.67" y1="378.61" x2="235.10" y2="369.54" stroke="#32c8ff" stroke-width="18.00" stroke-linecap="round"/><line x1="235.10" y1="369.54" x2="237.53" y2="360.47" stroke="#32c0ff" stroke-width="18.00" stroke-linecap="round"/><line x1="237.53" y1="360.47" x2="239.96" y2="351.40" stroke="#32b9ff" stroke-width="18.00" stroke-linecap="round"/><line x1="239.96" y1="351.40" x2="242.39" y2="342.33" stroke="#32b1ff" stroke-width="18.00" stroke-linecap="round"/><line x1="242.39" y1="342.33" x2="244.82" y2="333.26" stroke="#32aaff" stroke-width="18.00" stroke-linecap="round"/><line x1="244.82" y1="333.26" x2="247.25" y2="324.19" stroke="#32a3ff" stroke-width="18.00" stroke-linecap="round"/><line x1="247.25" y1="324.19" x2="249.68" y2="315.12" stroke="#329cff" stroke-width="18.00" stroke-linecap="round"/><line x1="249.68" y1="315.12" x2="252.11" y2="306.05" stroke="#3295ff" stroke-width="18.00" stroke-linecap="round"/><line x1="252.11" y1="306.05" x2="254.54" y2="296.98" stroke="#328eff" stroke-width="18.00" stroke-linecap="round"/><line x1="254.54" y1="296.98" x2="256.97" y2="287.91" stroke="#3287ff" stroke-width="18.00" stroke-linecap="round"/><line x1="256.97" y1="287.91" x2="259.40" y2="278.84" stroke="#3281ff" stroke-width="18.00" stroke-linecap="round"/><line x1="259.40" y1="278.84" x2="261.83" y2="269.77" stroke="#327aff" stroke-width="18.00" stroke-linecap="round"/><line x1="261.83" y1="269.77" x2="264.26" y2="260.70" stroke="#3274ff" stroke-width="18.00" stroke-linecap="round"/><line x1="264.26" y1="260.70" x2="266.70" y2="251.62" stroke="#326eff" stroke-width="18.00" stroke-linecap="round"/><line x1="266.70" y1="251.62" x2="269.13" y2="242.55" stroke="#3268ff" stroke-width="18.00" stroke-linecap="round"/><line x1="269.13" y1="242.55" x2="278.20" y2="240.12" stroke="#3263ff" stroke-width="18.00" stroke-linecap="round"/><line x1="278.20" y1="240.12" x2="287.27" y2="237.69" stroke="#325dff" stroke-width="18.00" stroke-linecap="round"/><line x1="287.27" y1="237.69" x2="296.34" y2="235.26" stroke="#3257ff" stroke-width="18.00" stroke-linecap="round"/><line x1="296.34" y1="235.26" x2="305.41" y2="232.83" stroke="#3251ff" stroke-width="18.00" stroke-linecap="round"/><line x1="305.41" y1="232.83" x2="314.48" y2="230.40" stroke="#324aff" stroke-width="18.00" stroke-linecap="round"/><line x1="314.48" y1="230.40" x2="323.55" y2="227.97" stroke="#3244ff" stroke-width="18.00" stroke-linecap="round"/><line x1="323.55" y1="227.97" x2="332.62" y2="225.54" stroke="#323dff" stroke-width="18.00" stroke-linecap="round"/><line x1="332.62" y1="225.54" x2="341.69" y2="223.11" stroke="#3236ff" stroke-width="18.00" stroke-linecap="round"/><line x1="341.69" y1="223.11" x2="350.76" y2="220.68" stroke="#3632ff" stroke-width="18.00" stroke-linecap="round"/><line x1="350.76" y1="220.68" x2="359.83" y2="218.25" stroke="#3d32ff" stroke-width="18.00" stroke-linecap="round"/><line x1="359.83" y1="218.25" x2="368.90" y2="215.82" stroke="#4432ff" stroke-width="18.00" stroke-linecap="round"/><line x1="368.90" y1="215.82" x2="377.97" y2="213.39" stroke="#4b32ff" stroke-width="18.00" stroke-linecap="round"/><line x1="377.97" y1="213.39" x2="387.04" y2="210.96" stroke="#5332ff" stroke-width="18.00" stroke-linecap="round"/><line x1="387.04" y1="210.96" x2="396.11" y2="208.53" stroke="#5a32ff" stroke-width="18.00" stroke-linecap="round"/><line x1="396.11" y1="208.53" x2="405.19" y2="206.10" stroke="#6232ff" stroke-width="18.00" stroke-linecap="round"/><line x1="405.19" y1="206.10" x2="414.26" y2="203.67" stroke="#6932ff" stroke-width="18.00" stroke-linecap="round"/><line x1="414.26" y1="203.67" x2="423.33" y2="201.24" stroke="#7132ff" stroke-width="18.00" stroke-linecap="round"/><line x1="423.33" y1="201.24" x2="432.40" y2="198.81" stroke="#7832ff" stroke-width="18.00" stroke-linecap="round"/><line x1="432.40" y1="198.81" x2="441.47" y2="196.38" stroke="#8032ff" stroke-width="18.00" stroke-linecap="round"/><line x1="441.47" y1="196.38" x2="450.54" y2="193.94" stroke="#8732ff" stroke-width="18.00" stroke-linecap="round"/><line x1="450.54" y1="193.94" x2="459.61" y2="191.51" stroke="#8e32ff" stroke-width="18.00" stroke-linecap="round"/><line x1="459.61" y1="191.51" x2="468.68" y2="189.08" stroke="#9532ff" stroke-width="18.00" stroke-linecap="round"/><line x1="468.68" y1="189.08" x2="477.75" y2="186.65" stroke="#9c32ff" stroke-width="18.00" stroke-linecap="round"/><line x1="477.75" y1="186.65" x2="486.82" y2="184.22" stroke="#a332ff" stroke-width="18.00" stroke-linecap="round"/><line x1="486.82" y1="184.22" x2="495.89" y2="181.79" stroke="#aa32ff" stroke-width="18.00" stroke-linecap="round"/><line x1="495.89" y1="181.79" x2="504.96" y2="179.36" stroke="#b032ff" stroke-width="18.00" stroke-linecap="round"/><line x1="504.96" y1="179.36" x2="514.03" y2="176.93" stroke="#b732ff" stroke-width="18.00" stroke-linecap="round"/><line x1="514.03" y1="176.93" x2="523.10" y2="174.50" stroke="#bd32ff" stroke-width="18.00" stroke-linecap="round"/><line x1="523.10" y1="174.50" x2="532.17" y2="172.07" stroke="#c332ff" stroke-width="18.00" stroke-linecap="round"/><line x1="532.17" y1="172.07" x2="541.25" y2="169.64" stroke="#c932ff" stroke-width="18.00" stroke-linecap="round"/><line x1="540.58" y1="181.22" x2="616.76" y2="105.04" stroke="#ff3232" stroke-width="14.94" stroke-linecap="round"/><line x1="559.41" y1="200.05" x2="664.72" y2="94.74" stroke="#ff4732" stroke-width="14.94" stroke-linecap="round"/><line x1="578.24" y1="218.88" x2="655.37" y2="141.74" stroke="#ff5b32" stroke-width="14.94" stroke-linecap="round"/><line x1="597.07" y1="237.71" x2="652.77" y2="182.00" stroke="#ff7032" stroke-width="14.94" stroke-linecap="round"/><line x1="615.90" y1="256.54" x2="674.44" y2="197.99" stroke="#ff8432" stroke-width="14.94" stroke-linecap="round"/><line x1="634.72" y1="275.37" x2="719.62" y2="190.47" stroke="#ff9932" stroke-width="14.94" stroke-linecap="round"/><line x1="653.55" y1="294.20" x2="724.75" y2="223.00" stroke="#ffad32" stroke-width="14.94" stroke-linecap="round"/><line x1="672.38" y1="313.02" x2="745.96" y2="239.45" stroke="#ffc132" stroke-width="14.94" stroke-linecap="round"/><line x1="691.21" y1="331.85" x2="781.38" y2="241.69" stroke="#ffd632" stroke-width="14.94" stroke-linecap="round"/><line x1="710.04" y1="350.68" x2="789.10" y2="271.63" stroke="#ffea32" stroke-width="14.94" stroke-linecap="round"/><line x1="730.09" y1="374.06" x2="892.28" y2="417.52" stroke="#ffff32" stroke-width="14.94" stroke-linecap="round"/><line x1="723.20" y1="399.78" x2="793.93" y2="418.73" stroke="#eaff32" stroke-width="14.94" stroke-linecap="round"/><line x1="716.30" y1="425.50" x2="776.13" y2="441.53" stroke="#d6ff32" stroke-width="14.94" stroke-linecap="round"/><line x1="709.41" y1="451.22" x2="755.86" y2="463.67" stroke="#c1ff32" stroke-width="14.94" stroke-linecap="round"/><line x1="702.52" y1="476.94" x2="805.04" y2="504.41" stroke="#adff32" stroke-width="14.94" stroke-linecap="round"/><line x1="695.63" y1="502.66" x2="943.39" y2="569.05" stroke="#99ff32" stroke-width="14.94" stroke-linecap="round"/><line x1="688.74" y1="528.38" x2="893.78" y2="583.33" stroke="#84ff32" stroke-width="14.94" stroke-linecap="round"/><line x1="681.84" y1="554.11" x2="733.81" y2="568.03" stroke="#70ff32" stroke-width="14.94" stroke-linecap="round"/><line x1="674.95" y1="579.83" x2="714.43" y2="590.41" stroke="#5bff32" stroke-width="14.94" stroke-linecap="round"/><line x1="668.06" y1="605.55" x2="734.07" y2="623.24" stroke="#47ff32" stroke-width="14.94" stroke-linecap="round"/><line x1="657.84" y1="634.60" x2="682.49" y2="726.60" stroke="#32ff32" stroke-width="14.94" stroke-linecap="round"/><line x1="632.12" y1="641.49" x2="651.77" y2="714.84" stroke="#32ff47" stroke-width="14.94" stroke-linecap="round"/><line x1="606.40" y1="648.38" x2="629.95" y2="736.28" stroke="#32ff5b" stroke-width="14.94" stroke-linecap="round"/><line x1="580.68" y1="655.27" x2="613.50" y2="777.78" stroke="#32ff70" stroke-width="14.94" stroke-linecap="round"/><line x1="554.96" y1="662.16" x2="582.98" y2="766.75" stroke="#32ff84" stroke-width="14.94" stroke-linecap="round"/><line x1="529.24" y1="669.06" x2="548.57" y2="741.22" stroke="#32ff99" stroke-width="14.94" stroke-linecap="round"/><line x1="503.51" y1="675.95" x2="548.85" y2="845.14" stroke="#32ffad" stroke-width="14.94" stroke-linecap="round"/><line x1="477.79" y1="682.84" x2="525.83" y2="862.13" stroke="#32ffc1" stroke-width="14.94" stroke-linecap="round"/><line x1="452.07" y1="689.73" x2="482.66" y2="803.89" stroke="#32ffd6" stroke-width="14.94" stroke-linecap="round"/><line x1="426.35" y1="696.62" x2="461.28" y2="826.97" stroke="#32ffea" stroke-width="14.94" stroke-linecap="round"/><line x1="396.08" y1="702.30" x2="348.59" y2="749.79" stroke="#32ffff" stroke-width="14.94" stroke-linecap="round"/><line x1="377.25" y1="683.47" x2="294.21" y2="766.51" stroke="#32eaff" stroke-width="14.94" stroke-linecap="round"/><line x1="358.43" y1="664.64" x2="295.80" y2="727.27" stroke="#32d6ff" stroke-width="14.94" stroke-linecap="round"/><line x1="339.60" y1="645.81" x2="253.63" y2="731.78" stroke="#32c1ff" stroke-width="14.94" stroke-linecap="round"/><line x1="320.77" y1="626.98" x2="226.42" y2="721.33" stroke="#32adff" stroke-width="14.94" stroke-linecap="round"/><line x1="301.94" y1="608.15" x2="181.39" y2="728.70" stroke="#3299ff" stroke-width="14.94" stroke-linecap="round"/><line x1="283.11" y1="589.32" x2="173.35" y2="699.08" stroke="#3284ff" stroke-width="14.94" stroke-linecap="round"/><line x1="264.28" y1="570.49" x2="191.30" y2="643.47" stroke="#3270ff" stroke-width="14.94" stroke-linecap="round"/><line x1="245.45" y1="551.67" x2="175.95" y2="621.17" stroke="#325bff" stroke-width="14.94" stroke-linecap="round"/><line x1="226.62" y1="532.84" x2="144.56" y2="614.89" stroke="#3247ff" stroke-width="14.94" stroke-linecap="round"/><line x1="206.57" y1="509.46" x2="13.47" y2="457.72" stroke="#3232ff" stroke-width="14.94" stroke-linecap="round"/><line x1="213.47" y1="483.74" x2="55.22" y2="441.34" stroke="#4732ff" stroke-width="14.94" stroke-linecap="round"/><line x1="220.36" y1="458.02" x2="67.34" y2="417.02" stroke="#5b32ff" stroke-width="14.94" stroke-linecap="round"/><line x1="227.25" y1="432.30" x2="128.95" y2="405.96" stroke="#7032ff" stroke-width="14.94" stroke-linecap="round"/><line x1="234.14" y1="406.58" x2="142.96" y2="382.15" stroke="#8432ff" stroke-width="14.94" stroke-linecap="round"/><line x1="241.03" y1="380.86" x2="160.68" y2="359.33" stroke="#9932ff" stroke-width="14.94" stroke-linecap="round"/><line x1="247.93" y1="355.13" x2="168.14" y2="333.76" stroke="#ad32ff" stroke-width="14.94" stroke-linecap="round"/><line x1="254.82" y1="329.41" x2="180.96" y2="309.62" stroke="#c132ff" stroke-width="14.94" stroke-linecap="round"/><line x1="261.71" y1="303.69" x2="186.95" y2="283.66" stroke="#d632ff" stroke-width="14.94" stroke-linecap="round"/><line x1="268.60" y1="277.97" x2="182.59" y2="254.92" stroke="#ea32ff" stroke-width="14.94" stroke-linecap="round"/><line x1="278.82" y1="248.92" x2="261.35" y2="183.72" stroke="#ff32ff" stroke-width="14.94" stroke-linecap="round"/><line x1="304.54" y1="242.03" x2="283.84" y2="164.77" stroke="#ff32ea" stroke-width="14.94" stroke-linecap="round"/><line x1="330.26" y1="235.14" x2="307.35" y2="149.63" stroke="#ff32d6" stroke-width="14.94" stroke-linecap="round"/><line x1="355.98" y1="228.25" x2="338.07" y2="161.40" stroke="#ff32c1" stroke-width="14.94" stroke-linecap="round"/><line x1="381.71" y1="221.35" x2="356.43" y2="127.01" stroke="#ff32ad" stroke-width="14.94" stroke-linecap="round"/><line x1="407.43" y1="214.46" x2="380.77" y2="114.97" stroke="#ff3299" stroke-width="14.94" stroke-linecap="round"/><line x1="433.15" y1="207.57" x2="405.26" y2="103.49" stroke="#ff3284" stroke-width="14.94" stroke-linecap="round"/><line x1="458.87" y1="200.68" x2="431.38" y2="98.07" stroke="#ff3270" stroke-width="14.94" stroke-linecap="round"/><line x1="484.59" y1="193.79" x2="459.95" y2="101.83" stroke="#ff325b" stroke-width="14.94" stroke-linecap="round"/><line x1="510.31" y1="186.89" x2="491.32" y2="116.02" stroke="#ff3247" stroke-width="14.94" stroke-linecap="round"/></svg>