<svg width="800" height="800" viewBox="0 0 939.4 939.4" xmlns="http://www.w3.org/2000/svg"><polygon points="480.00,474.98 469.37,481.11 458.74,474.98 458.74,462.70 469.37,456.57 480.00,462.70" fill="#000000" stroke="#000000" stroke-width="6" stroke-linejoin="round"/><polygon points="492.04,409.76 480.92,416.18 469.80,409.76 469.80,396.92 480.92,390.50 492.04,396.92" fill="#000000" stroke="#000000" stroke-width="6" stroke-linejoin="round"/><polygon points="547.57,455.16 531.87,464.23 516.16,455.16 516.16,437.02 531.87,427.96 547.57,437.02" fill="#000000" stroke="#000000" stroke-width="6" stroke-linejoin="round"/><polygon points="538.10,521.86 520.32,532.13 502.53,521.86 502.53,501.33 520.32,491.06 538.10,501.33" fill="#000000" stroke="#000000" stroke-width="6" stroke-linejoin="round"/><polygon points="473.43,543.35 457.82,552.37 442.20,543.35 442.20,525.33 457.82,516.31 473.43,525.33" fill="#000000" stroke="#000000" stroke-width="6" stroke-linejoin="round"/><polygon points="422.24,500.46 406.87,509.33 391.50,500.46 391.50,482.71 406.87,473.84 422.24,482.71" fill="#000000" stroke="#000000" stroke-width="6" stroke-linejoin="round"/><polygon points="433.99,435.08 418.42,444.07 402.84,435.08 402.84,417.09 418.42,408.10 433.99,417.09" fill="#000000" stroke="#000000" stroke-width="6" stroke-linejoin="round"/><polygon points="512.59,349.46 492.47,361.07 472.34,349.46 472.34,326.22 492.47,314.61 512.59,326.22" fill="#000000" stroke="#000000" stroke-width="6" stroke-linejoin="round"/><polygon points="558.53,389.32 543.42,398.04 528.30,389.32 528.30,371.87 543.42,363.14 558.53,371.87" fill="#000000" stroke="#000000" stroke-width="6" stroke-linejoin="round"/><polygon points="604.15,428.99 594.37,434.64 584.58,428.99 584.58,417.69 594.37,412.05 604.15,417.69" fill="#000000" stroke="#000000" stroke-width="6" stroke-linejoin="round"/><polygon points="595.65,496.26 582.82,503.67 569.98,496.26 569.98,481.43 582.82,474.02 595.65,481.43" fill="#000000" stroke="#000000" stroke-width="6" stroke-linejoin="round"/><polygon points="587.07,563.47 571.27,572.60 555.46,563.47 555.46,545.22 571.27,536.09 587.07,545.22" fill="#000000" stroke="#000000" stroke-width="6" stroke-linejoin="round"/><polygon points="527.89,588.14 508.77,599.18 489.64,588.14 489.64,566.05 508.77,555.01 527.89,566.05" fill="#000000" stroke="#000000" stroke-width="6" stroke-linejoin="round"/><polygon points="465.56,610.98 446.27,622.11 426.98,610.98 426.98,588.70 446.27,577.57 465.56,588.70" fill="#000000" stroke="#000000" stroke-width="6" stroke-linejoin="round"/><polygon points="409.76,565.43 395.32,573.77 380.87,565.43 380.87,548.75 395.32,540.41 409.76,548.75" fill="#000000" stroke="#000000" stroke-width="6" stroke-linejoin="round"/><polygon points="360.58,523.70 344.37,533.05 328.16,523.70 328.16,504.98 344.37,495.62 360.58,504.98" fill="#000000" stroke="#000000" stroke-width="6" stroke-linejoin="round"/><polygon points="370.06,457.00 355.92,465.16 341.78,457.00 341.78,440.67 355.92,432.51 370.06,440.67" fill="#000000" stroke="#000000" stroke-width="6" stroke-linejoin="round"/><polygon points="377.20,388.96 367.47,394.58 357.73,388.96 357.73,377.71 367.47,372.09 377.20,377.71" fill="#000000" stroke="#000000" stroke-width="6" stroke-linejoin="round"/><polygon points="439.91,366.33 429.97,372.07 420.02,366.33 420.02,354.84 429.97,349.10 439.91,354.84" fill="#000000" stroke="#000000" stroke-width="6" stroke-linejoin="round"/><polygon points="512.73,277.37 504.02,282.41 495.30,277.37 495.30,267.30 504.02,262.27 512.73,267.30" fill="#000000" stroke="#000000" stroke-width="6" stroke-linejoin="round"/><polygon points="565.32,321.07 554.97,327.05 544.61,321.07 544.61,309.11 554.97,303.13 565.32,309.11" fill="#000000" stroke="#000000" stroke-width="6" stroke-linejoin="round"/><polygon points="616.36,363.87 605.92,369.90 595.47,363.87 595.47,351.81 605.92,345.78 616.36,351.81" fill="#000000" stroke="#000000" stroke-width="6" stroke-linejoin="round"/><polygon points="669.18,407.71 656.87,414.82 644.55,407.71 644.55,393.49 656.87,386.38 669.18,393.49" fill="#000000" stroke="#000000" stroke-width="6" stroke-linejoin="round"/><polygon points="659.85,474.49 645.32,482.88 630.78,474.49 630.78,457.70 645.32,449.31 659.85,457.70" fill="#000000" stroke="#000000" stroke-width="6" stroke-linejoin="round"/><polygon points="647.03,539.25 633.77,546.91 620.51,539.25 620.51,523.94 633.77,516.29 647.03,523.94" fill="#000000" stroke="#000000" stroke-width="6" stroke-linejoin="round"/><polygon points="636.02,605.07 622.22,613.04 608.42,605.07 608.42,589.13 622.22,581.16 636.02,589.13" fill="#000000" stroke="#000000" stroke-width="6" stroke-linejoin="round"/><polygon points="575.70,629.07 559.72,638.30 543.74,629.07 543.74,610.62 559.72,601.40 575.70,610.62" fill="#000000" stroke="#000000" stroke-width="6" stroke-linejoin="round"/><polygon points="512.49,651.41 497.22,660.23 481.95,651.41 481.95,633.78 497.22,624.96 512.49,633.78" fill="#000000" stroke="#000000" stroke-width="6" stroke-linejoin="round"/><polygon points="445.42,671.52 434.72,677.70 424.01,671.52 424.01,659.16 434.72,652.98 445.42,659.16" fill="#000000" stroke="#000000" stroke-width="6" stroke-linejoin="round"/><polygon points="391.58,627.10 383.77,631.61 375.96,627.10 375.96,618.08 383.77,613.57 391.58,618.08" fill="#000000" stroke="#000000" stroke-width="6" stroke-linejoin="round"/><polygon points="346.03,587.47 332.82,595.09 319.60,587.47 319.60,572.21 332.82,564.58 346.03,572.21" fill="#000000" stroke="#000000" stroke-width="6" stroke-linejoin="round"/><polygon points="296.95,545.79 281.87,554.50 266.78,545.79 266.78,528.38 281.87,519.67 296.95,528.38" fill="#000000" stroke="#000000" stroke-width="6" stroke-linejoin="round"/><polygon points="309.13,480.66 293.42,489.73 277.70,480.66 277.70,462.51 293.42,453.44 309.13,462.51" fill="#000000" stroke="#000000" stroke-width="6" stroke-linejoin="round"/><polygon points="314.23,411.43 304.97,416.78 295.70,411.43 295.70,400.74 304.97,395.39 314.23,400.74" fill="#000000" stroke="#000000" stroke-width="6" stroke-linejoin="round"/><polygon points="324.74,345.33 316.52,350.08 308.29,345.33 308.29,335.84 316.52,331.09 324.74,335.84" fill="#000000" stroke="#000000" stroke-width="6" stroke-linejoin="round"/><polygon points="388.44,323.28 379.02,328.72 369.59,323.28 369.59,312.39 379.02,306.95 388.44,312.39" fill="#000000" stroke="#000000" stroke-width="6" stroke-linejoin="round"/><polygon points="450.50,300.27 441.52,305.46 432.53,300.27 432.53,289.90 441.52,284.72 450.50,289.90" fill="#000000" stroke="#000000" stroke-width="6" stroke-linejoin="round"/><polygon points="522.00,210.56 515.56,214.27 509.13,210.56 509.13,203.12 515.56,199.40 522.00,203.12" fill="#000000" stroke="#000000" stroke-width="6" stroke-linejoin="round"/><polygon points="579.37,257.01 566.52,264.43 553.66,257.01 553.66,242.17 566.52,234.75 579.37,242.17" fill="#000000" stroke="#000000" stroke-width="6" stroke-linejoin="round"/><polygon points="634.33,302.08 617.47,311.81 600.60,302.08 600.60,282.61 617.47,272.87 634.33,282.61" fill="#000000" stroke="#000000" stroke-width="6" stroke-linejoin="round"/><polygon points="685.19,344.78 668.42,354.47 651.64,344.78 651.64,325.41 668.42,315.72 685.19,325.41" fill="#000000" stroke="#000000" stroke-width="6" stroke-linejoin="round"/><polygon points="731.28,384.73 719.37,391.60 707.45,384.73 707.45,370.97 719.37,364.09 731.28,370.97" fill="#000000" stroke="#000000" stroke-width="6" stroke-linejoin="round"/><polygon points="717.21,448.77 707.82,454.19 698.42,448.77 698.42,437.93 707.82,432.50 717.21,437.93" fill="#000000" stroke="#000000" stroke-width="6" stroke-linejoin="round"/><polygon points="704.59,513.65 696.27,518.46 687.95,513.65 687.95,504.05 696.27,499.24 704.59,504.05" fill="#000000" stroke="#000000" stroke-width="6" stroke-linejoin="round"/><polygon points="690.21,577.52 684.72,580.69 679.22,577.52 679.22,571.18 684.72,568.00 690.21,571.18" fill="#000000" stroke="#000000" stroke-width="6" stroke-linejoin="round"/><polygon points="678.42,642.88 673.17,645.91 667.92,642.88 667.92,636.82 673.17,633.79 678.42,636.82" fill="#000000" stroke="#000000" stroke-width="6" stroke-linejoin="round"/><polygon points="616.47,665.95 610.67,669.30 604.87,665.95 604.87,659.25 610.67,655.90 616.47,659.25" fill="#000000" stroke="#000000" stroke-width="6" stroke-linejoin="round"/><polygon points="554.36,688.92 548.17,692.49 541.98,688.92 541.98,681.77 548.17,678.20 554.36,681.77" fill="#000000" stroke="#000000" stroke-width="6" stroke-linejoin="round"/><polygon points="491.58,711.51 485.67,714.92 479.76,711.51 479.76,704.68 485.67,701.27 491.58,704.68" fill="#000000" stroke="#000000" stroke-width="6" stroke-linejoin="round"/><polygon points="428.74,734.06 423.17,737.28 417.59,734.06 417.59,727.62 423.17,724.41 428.74,727.62" fill="#000000" stroke="#000000" stroke-width="6" stroke-linejoin="round"/><polygon points="378.85,691.92 372.22,695.75 365.59,691.92 365.59,684.26 372.22,680.43 378.85,684.26" fill="#000000" stroke="#000000" stroke-width="6" stroke-linejoin="round"/><polygon points="333.45,652.37 321.27,659.41 309.08,652.37 309.08,638.30 321.27,631.27 333.45,638.30" fill="#000000" stroke="#000000" stroke-width="6" stroke-linejoin="round"/><polygon points="285.98,611.63 270.32,620.67 254.66,611.63 254.66,593.54 270.32,584.50 285.98,593.54" fill="#000000" stroke="#000000" stroke-width="6" stroke-linejoin="round"/><polygon points="233.49,567.99 219.37,576.14 205.24,567.99 205.24,551.68 219.37,543.52 233.49,551.68" fill="#000000" stroke="#000000" stroke-width="6" stroke-linejoin="round"/><polygon points="239.34,499.19 230.92,504.05 222.50,499.19 222.50,489.47 230.92,484.61 239.34,489.47" fill="#000000" stroke="#000000" stroke-width="6" stroke-linejoin="round"/><polygon points="248.69,432.42 242.47,436.01 236.25,432.42 236.25,425.24 242.47,421.65 248.69,425.24" fill="#000000" stroke="#000000" stroke-width="6" stroke-linejoin="round"/><polygon points="259.46,366.47 254.02,369.62 248.57,366.47 248.57,360.19 254.02,357.04 259.46,360.19" fill="#000000" stroke="#000000" stroke-width="6" stroke-linejoin="round"/><polygon points="271.22,301.09 265.57,304.36 259.91,301.09 259.91,294.57 265.57,291.30 271.22,294.57" fill="#000000" stroke="#000000" stroke-width="6" stroke-linejoin="round"/><polygon points="333.81,278.40 328.06,281.71 322.32,278.40 322.32,271.77 328.06,268.45 333.81,271.77" fill="#000000" stroke="#000000" stroke-width="6" stroke-linejoin="round"/><polygon points="398.01,256.63 390.56,260.93 383.12,256.63 383.12,248.03 390.56,243.73 398.01,248.03" fill="#000000" stroke="#000000" stroke-width="6" stroke-linejoin="round"/><polygon points="462.71,235.15 453.06,240.72 443.42,235.15 443.42,224.02 453.06,218.45 462.71,224.02" fill="#000000" stroke="#000000" stroke-width="6" stroke-linejoin="round"/><polygon points="539.86,148.69 527.11,156.05 514.37,148.69 514.37,133.98 527.11,126.62 539.86,133.98" fill="#000000" stroke="#000000" stroke-width="6" stroke-linejoin="round"/><polygon points="598.25,195.74 578.06,207.39 557.88,195.74 557.88,172.44 578.06,160.79 598.25,172.44" fill="#000000" stroke="#000000" stroke-width="6" stroke-linejoin="round"/><polygon points="645.47,236.34 629.02,245.84 612.56,236.34 612.56,217.34 629.02,207.84 645.47,217.34" fill="#000000" stroke="#000000" stroke-width="6" stroke-linejoin="round"/><polygon points="687.82,274.13 679.97,278.66 672.11,274.13 672.11,265.06 679.97,260.53 687.82,265.06" fill="#000000" stroke="#000000" stroke-width="6" stroke-linejoin="round"/><polygon points="738.56,316.76 730.92,321.18 723.27,316.76 723.27,307.93 730.92,303.52 738.56,307.93" fill="#000000" stroke="#000000" stroke-width="6" stroke-linejoin="round"/><polygon points="789.03,359.24 781.87,363.37 774.70,359.24 774.70,350.96 781.87,346.82 789.03,350.96" fill="#000000" stroke="#000000" stroke-width="6" stroke-linejoin="round"/><polygon points="777.44,424.71 770.32,428.83 763.19,424.71 763.19,416.49 770.32,412.37 777.44,416.49" fill="#000000" stroke="#000000" stroke-width="6" stroke-linejoin="round"/><polygon points="765.06,489.73 758.77,493.36 752.48,489.73 752.48,482.47 758.77,478.84 765.06,482.47" fill="#000000" stroke="#000000" stroke-width="6" stroke-linejoin="round"/><polygon points="756.12,556.74 747.22,561.88 738.31,556.74 738.31,546.46 747.22,541.32 756.12,546.46" fill="#000000" stroke="#000000" stroke-width="6" stroke-linejoin="round"/><polygon points="749.66,625.18 735.67,633.26 721.67,625.18 721.67,609.02 735.67,600.94 749.66,609.02" fill="#000000" stroke="#000000" stroke-width="6" stroke-linejoin="round"/><polygon points="735.47,689.15 724.12,695.71 712.77,689.15 712.77,676.05 724.12,669.50 735.47,676.05" fill="#000000" stroke="#000000" stroke-width="6" stroke-linejoin="round"/><polygon points="669.02,709.62 661.62,713.89 654.22,709.62 654.22,701.08 661.62,696.81 669.02,701.08" fill="#000000" stroke="#000000" stroke-width="6" stroke-linejoin="round"/><polygon points="605.86,731.99 599.12,735.88 592.38,731.99 592.38,724.21 599.12,720.31 605.86,724.21" fill="#000000" stroke="#000000" stroke-width="6" stroke-linejoin="round"/><polygon points="544.24,755.25 536.62,759.65 528.99,755.25 528.99,746.44 536.62,742.04 544.24,746.44" fill="#000000" stroke="#000000" stroke-width="6" stroke-linejoin="round"/><polygon points="481.32,777.75 474.12,781.91 466.92,777.75 466.92,769.44 474.12,765.28 481.32,769.44" fill="#000000" stroke="#000000" stroke-width="6" stroke-linejoin="round"/><polygon points="418.77,800.47 411.62,804.60 404.47,800.47 404.47,792.22 411.62,788.09 418.77,792.22" fill="#000000" stroke="#000000" stroke-width="6" stroke-linejoin="round"/><polygon points="369.61,758.75 360.67,763.91 351.73,758.75 351.73,748.43 360.67,743.27 369.61,748.43" fill="#000000" stroke="#000000" stroke-width="6" stroke-linejoin="round"/><polygon points="317.97,715.60 309.72,720.37 301.46,715.60 301.46,706.07 309.72,701.30 317.97,706.07" fill="#000000" stroke="#000000" stroke-width="6" stroke-linejoin="round"/><polygon points="266.12,672.33 258.77,676.58 251.42,672.33 251.42,663.84 258.77,659.60 266.12,663.84" fill="#000000" stroke="#000000" stroke-width="6" stroke-linejoin="round"/><polygon points="214.99,629.47 207.82,633.61 200.65,629.47 200.65,621.19 207.82,617.05 214.99,621.19" fill="#000000" stroke="#000000" stroke-width="6" stroke-linejoin="round"/><polygon points="165.01,587.28 156.87,591.99 148.72,587.28 148.72,577.88 156.87,573.17 165.01,577.88" fill="#000000" stroke="#000000" stroke-width="6" stroke-linejoin="round"/><polygon points="178.10,522.67 168.42,528.26 158.73,522.67 158.73,511.49 168.42,505.90 178.10,511.49" fill="#000000" stroke="#000000" stroke-width="6" stroke-linejoin="round"/><polygon points="189.73,457.21 179.97,462.85 170.21,457.21 170.21,445.94 179.97,440.31 189.73,445.94" fill="#000000" stroke="#000000" stroke-width="6" stroke-linejoin="round"/><polygon points="200.54,391.29 191.52,396.49 182.50,391.29 182.50,380.87 191.52,375.66 200.54,380.87" fill="#000000" stroke="#000000" stroke-width="6" stroke-linejoin="round"/><polygon points="211.86,325.66 203.07,330.74 194.27,325.66 194.27,315.50 203.07,310.42 211.86,315.50" fill="#000000" stroke="#000000" stroke-width="6" stroke-linejoin="round"/><polygon points="221.89,259.28 214.61,263.48 207.34,259.28 207.34,250.88 214.61,246.68 221.89,250.88" fill="#000000" stroke="#000000" stroke-width="6" stroke-linejoin="round"/><polygon points="285.59,237.22 277.11,242.11 268.64,237.22 268.64,227.44 277.11,222.55 285.59,227.44" fill="#000000" stroke="#000000" stroke-width="6" stroke-linejoin="round"/><polygon points="350.06,215.61 339.61,221.64 329.17,215.61 329.17,203.55 339.61,197.52 350.06,203.55" fill="#000000" stroke="#000000" stroke-width="6" stroke-linejoin="round"/><polygon points="410.92,191.92 402.11,197.01 393.30,191.92 393.30,181.75 402.11,176.66 410.92,181.75" fill="#000000" stroke="#000000" stroke-width="6" stroke-linejoin="round"/><polygon points="472.10,168.40 464.61,172.72 457.13,168.40 457.13,159.77 464.61,155.45 472.10,159.77" fill="#000000" stroke="#000000" stroke-width="6" stroke-linejoin="round"/><polygon points="548.52,81.53 538.66,87.22 528.80,81.53 528.80,70.14 538.66,64.45 548.52,70.14" fill="#000000" stroke="#000000" stroke-width="6" stroke-linejoin="round"/><polygon points="600.52,124.89 589.61,131.19 578.71,124.89 578.71,112.29 589.61,105.99 600.52,112.29" fill="#000000" stroke="#000000" stroke-width="6" stroke-linejoin="round"/><polygon points="654.98,169.66 640.56,177.98 626.15,169.66 626.15,153.02 640.56,144.70 654.98,153.02" fill="#000000" stroke="#000000" stroke-width="6" stroke-linejoin="round"/><polygon points="704.37,211.51 691.52,218.93 678.66,211.51 678.66,196.67 691.52,189.25 704.37,196.67" fill="#000000" stroke="#000000" stroke-width="6" stroke-linejoin="round"/><polygon points="750.93,251.73 742.47,256.61 734.01,251.73 734.01,241.96 742.47,237.08 750.93,241.96" fill="#000000" stroke="#000000" stroke-width="6" stroke-linejoin="round"/><polygon points="804.09,295.76 793.42,301.93 782.74,295.76 782.74,283.43 793.42,277.27 804.09,283.43" fill="#000000" stroke="#000000" stroke-width="6" stroke-linejoin="round"/><polygon points="867.31,345.60 844.37,358.85 821.42,345.60 821.42,319.10 844.37,305.86 867.31,319.10" fill="#000000" stroke="#000000" stroke-width="6" stroke-linejoin="round"/><polygon points="856.34,411.43 832.82,425.01 809.30,411.43 809.30,384.27 832.82,370.69 856.34,384.27" fill="#000000" stroke="#000000" stroke-width="6" stroke-linejoin="round"/><polygon points="833.44,470.38 821.27,477.41 809.10,470.38 809.10,456.33 821.27,449.30 833.44,456.33" fill="#000000" stroke="#000000" stroke-width="6" stroke-linejoin="round"/><polygon points="821.80,535.83 809.72,542.80 797.64,535.83 797.64,521.88 809.72,514.90 821.80,521.88" fill="#000000" stroke="#000000" stroke-width="6" stroke-linejoin="round"/><polygon points="817.54,605.54 798.17,616.72 778.80,605.54 778.80,583.17 798.17,571.99 817.54,583.17" fill="#000000" stroke="#000000" stroke-width="6" stroke-linejoin="round"/><polygon points="803.07,669.35 786.62,678.85 770.17,669.35 770.17,650.36 786.62,640.86 803.07,650.36" fill="#000000" stroke="#000000" stroke-width="6" stroke-linejoin="round"/><polygon points="786.00,731.67 775.07,737.98 764.13,731.67 764.13,719.04 775.07,712.73 786.00,719.04" fill="#000000" stroke="#000000" stroke-width="6" stroke-linejoin="round"/><polygon points="725.67,755.66 712.57,763.23 699.47,755.66 699.47,740.54 712.57,732.98 725.67,740.54" fill="#000000" stroke="#000000" stroke-width="6" stroke-linejoin="round"/><polygon points="667.17,780.72 650.07,790.59 632.97,780.72 632.97,760.98 650.07,751.11 667.17,760.98" fill="#000000" stroke="#000000" stroke-width="6" stroke-linejoin="round"/><polygon points="597.28,799.21 587.57,804.81 577.86,799.21 577.86,787.99 587.57,782.39 597.28,787.99" fill="#000000" stroke="#000000" stroke-width="6" stroke-linejoin="round"/><polygon points="534.38,821.72 525.07,827.10 515.76,821.72 515.76,810.97 525.07,805.59 534.38,810.97" fill="#000000" stroke="#000000" stroke-width="6" stroke-linejoin="round"/><polygon points="475.57,846.60 462.57,854.10 449.57,846.60 449.57,831.59 462.57,824.09 475.57,831.59" fill="#000000" stroke="#000000" stroke-width="6" stroke-linejoin="round"/><polygon points="411.05,868.18 400.07,874.53 389.09,868.18 389.09,855.50 400.07,849.16 411.05,855.50" fill="#000000" stroke="#000000" stroke-width="6" stroke-linejoin="round"/><polygon points="358.29,824.39 349.12,829.69 339.94,824.39 339.94,813.79 349.12,808.50 358.29,813.79" fill="#000000" stroke="#000000" stroke-width="6" stroke-linejoin="round"/><polygon points="307.55,781.76 298.17,787.17 288.79,781.76 288.79,770.92 298.17,765.51 307.55,770.92" fill="#000000" stroke="#000000" stroke-width="6" stroke-linejoin="round"/><polygon points="256.44,738.91 247.22,744.23 238.00,738.91 238.00,728.26 247.22,722.94 256.44,728.26" fill="#000000" stroke="#000000" stroke-width="6" stroke-linejoin="round"/><polygon points="205.86,696.37 196.27,701.91 186.68,696.37 186.68,685.30 196.27,679.76 205.86,685.30" fill="#000000" stroke="#000000" stroke-width="6" stroke-linejoin="round"/><polygon points="152.58,652.27 145.32,656.46 138.06,652.27 138.06,643.89 145.32,639.70 152.58,643.89" fill="#000000" stroke="#000000" stroke-width="6" stroke-linejoin="round"/><polygon points="101.16,609.25 94.37,613.17 87.57,609.25 87.57,601.41 94.37,597.48 101.16,601.41" fill="#000000" stroke="#000000" stroke-width="6" stroke-linejoin="round"/><polygon points="115.20,545.19 105.92,550.54 96.64,545.19 96.64,534.47 105.92,529.11 115.20,534.47" fill="#000000" stroke="#000000" stroke-width="6" stroke-linejoin="round"/><polygon points="125.99,479.25 117.47,484.17 108.94,479.25 108.94,469.40 117.47,464.48 125.99,469.40" fill="#000000" stroke="#000000" stroke-width="6" stroke-linejoin="round"/><polygon points="137.59,413.78 129.02,418.73 120.44,413.78 120.44,403.87 129.02,398.92 137.59,403.87" fill="#000000" stroke="#000000" stroke-width="6" stroke-linejoin="round"/><polygon points="147.27,347.20 140.57,351.07 133.86,347.20 133.86,339.46 140.57,335.59 147.27,339.46" fill="#000000" stroke="#000000" stroke-width="6" stroke-linejoin="round"/><polygon points="158.74,281.65 152.11,285.48 145.49,281.65 145.49,274.00 152.11,270.17 158.74,274.00" fill="#000000" stroke="#000000" stroke-width="6" stroke-linejoin="round"/><polygon points="170.25,216.13 163.66,219.93 157.08,216.13 157.08,208.52 163.66,204.72 170.25,208.52" fill="#000000" stroke="#000000" stroke-width="6" stroke-linejoin="round"/><polygon points="233.12,193.60 226.16,197.61 219.20,193.60 219.20,185.56 226.16,181.54 233.12,185.56" fill="#000000" stroke="#000000" stroke-width="6" stroke-linejoin="round"/><polygon points="295.52,170.79 288.66,174.74 281.81,170.79 281.81,162.87 288.66,158.92 295.52,162.87" fill="#000000" stroke="#000000" stroke-width="6" stroke-linejoin="round"/><polygon points="359.12,148.67 351.16,153.26 343.21,148.67 343.21,139.49 351.16,134.90 359.12,139.49" fill="#000000" stroke="#000000" stroke-width="6" stroke-linejoin="round"/><polygon points="421.82,126.04 413.66,130.76 405.50,126.04 405.50,116.62 413.66,111.91 421.82,116.62" fill="#000000" stroke="#000000" stroke-width="6" stroke-linejoin="round"/><polygon points="483.08,102.58 476.16,106.58 469.24,102.58 469.24,94.59 476.16,90.59 483.08,94.59" fill="#000000" stroke="#000000" stroke-width="6" stroke-linejoin="round"/><polygon points="556.57,14.00 550.21,17.67 543.86,14.00 543.86,6.67 550.21,3.00 556.57,6.67" fill="#000000" stroke="#000000" stroke-width="6" stroke-linejoin="round"/><polygon points="608.24,57.18 601.16,61.26 594.08,57.18 594.08,49.00 601.16,44.91 608.24,49.00" fill="#000000" stroke="#000000" stroke-width="6" stroke-linejoin="round"/><polygon points="659.15,99.90 652.11,103.96 645.08,99.90 645.08,91.78 652.11,87.72 659.15,91.78" fill="#000000" stroke="#000000" stroke-width="6" stroke-linejoin="round"/><polygon points="710.25,142.74 703.06,146.89 695.88,142.74 695.88,134.45 703.06,130.30 710.25,134.45" fill="#000000" stroke="#000000" stroke-width="6" stroke-linejoin="round"/><polygon points="761.19,185.49 754.01,189.63 746.84,185.49 746.84,177.20 754.01,173.06 761.19,177.20" fill="#000000" stroke="#000000" stroke-width="6" stroke-linejoin="round"/><polygon points="812.56,228.48 804.97,232.87 797.37,228.48 797.37,219.71 804.97,215.33 812.56,219.71" fill="#000000" stroke="#000000" stroke-width="6" stroke-linejoin="round"/><polygon points="862.64,270.73 855.92,274.62 849.19,270.73 849.19,262.97 855.92,259.09 862.64,262.97" fill="#000000" stroke="#000000" stroke-width="6" stroke-linejoin="round"/><polygon points="915.25,314.44 906.87,319.29 898.48,314.44 898.48,304.76 906.87,299.92 915.25,304.76" fill="#000000" stroke="#000000" stroke-width="6" stroke-linejoin="round"/><polygon points="903.55,379.86 895.32,384.61 887.09,379.86 887.09,370.35 895.32,365.60 903.55,370.35" fill="#000000" stroke="#000000" stroke-width="6" stroke-linejoin="round"/><polygon points="892.37,445.57 883.77,450.53 875.17,445.57 875.17,435.64 883.77,430.67 892.37,435.64" fill="#000000" stroke="#000000" stroke-width="6" stroke-linejoin="round"/><polygon points="881.18,511.28 872.22,516.46 863.25,511.28 863.25,500.93 872.22,495.75 881.18,500.93" fill="#000000" stroke="#000000" stroke-width="6" stroke-linejoin="round"/><polygon points="869.99,576.98 860.67,582.36 851.35,576.98 851.35,566.23 860.67,560.85 869.99,566.23" fill="#000000" stroke="#000000" stroke-width="6" stroke-linejoin="round"/><polygon points="856.07,641.12 849.12,645.14 842.16,641.12 842.16,633.09 849.12,629.08 856.07,633.09" fill="#000000" stroke="#000000" stroke-width="6" stroke-linejoin="round"/><polygon points="844.61,706.67 837.57,710.74 830.52,706.67 830.52,698.54 837.57,694.47 844.61,698.54" fill="#000000" stroke="#000000" stroke-width="6" stroke-linejoin="round"/><polygon points="835.40,773.52 826.02,778.94 816.64,773.52 816.64,762.69 826.02,757.28 835.40,762.69" fill="#000000" stroke="#000000" stroke-width="6" stroke-linejoin="round"/><polygon points="772.89,796.26 763.52,801.67 754.15,796.26 754.15,785.45 763.52,780.04 772.89,785.45" fill="#000000" stroke="#000000" stroke-width="6" stroke-linejoin="round"/><polygon points="709.93,818.75 701.02,823.89 692.11,818.75 692.11,808.46 701.02,803.32 709.93,808.46" fill="#000000" stroke="#000000" stroke-width="6" stroke-linejoin="round"/><polygon points="647.00,841.25 638.52,846.15 630.04,841.25 630.04,831.45 638.52,826.56 647.00,831.45" fill="#000000" stroke="#000000" stroke-width="6" stroke-linejoin="round"/><polygon points="583.96,863.69 576.02,868.27 568.08,863.69 568.08,854.51 576.02,849.93 583.96,854.51" fill="#000000" stroke="#000000" stroke-width="6" stroke-linejoin="round"/><polygon points="521.38,886.38 513.52,890.92 505.66,886.38 505.66,877.31 513.52,872.78 521.38,877.31" fill="#000000" stroke="#000000" stroke-width="6" stroke-linejoin="round"/><polygon points="458.31,908.81 451.02,913.02 443.73,908.81 443.73,900.38 451.02,896.17 458.31,900.38" fill="#000000" stroke="#000000" stroke-width="6" stroke-linejoin="round"/><polygon points="396.40,931.89 388.52,936.44 380.64,931.89 380.64,922.80 388.52,918.25 396.40,922.80" fill="#000000" stroke="#000000" stroke-width="6" stroke-linejoin="round"/><polygon points="346.21,889.58 337.57,894.57 328.93,889.58 328.93,879.60 337.57,874.62 346.21,879.60" fill="#000000" stroke="#000000" stroke-width="6" stroke-linejoin="round"/><polygon points="295.86,847.18 286.62,852.51 277.38,847.18 277.38,836.50 286.62,831.17 295.86,836.50" fill="#000000" stroke="#000000" stroke-width="6" stroke-linejoin="round"/><polygon points="243.30,803.49 235.67,807.90 228.04,803.49 228.04,794.68 235.67,790.27 243.30,794.68" fill="#000000" stroke="#000000" stroke-width="6" stroke-linejoin="round"/><polygon points="193.05,761.14 184.72,765.95 176.39,761.14 176.39,751.52 184.72,746.72 193.05,751.52" fill="#000000" stroke="#000000" stroke-width="6" stroke-linejoin="round"/><polygon points="141.58,718.09 133.77,722.60 125.95,718.09 125.95,709.07 133.77,704.56 141.58,709.07" fill="#000000" stroke="#000000" stroke-width="6" stroke-linejoin="round"/><polygon points="91.12,675.62 82.82,680.42 74.51,675.62 74.51,666.03 82.82,661.24 91.12,666.03" fill="#000000" stroke="#000000" stroke-width="6" stroke-linejoin="round"/><polygon points="39.55,632.51 31.87,636.94 24.19,632.51 24.19,623.64 31.87,619.21 39.55,623.64" fill="#000000" stroke="#000000" stroke-width="6" stroke-linejoin="round"/><polygon points="51.14,567.03 43.42,571.49 35.70,567.03 35.70,558.12 43.42,553.66 51.14,558.12" fill="#000000" stroke="#000000" stroke-width="6" stroke-linejoin="round"/><polygon points="62.43,501.39 54.97,505.69 47.50,501.39 47.50,492.77 54.97,488.46 62.43,492.77" fill="#000000" stroke="#000000" stroke-width="6" stroke-linejoin="round"/><polygon points="73.52,435.62 66.52,439.66 59.51,435.62 59.51,427.53 66.52,423.49 73.52,427.53" fill="#000000" stroke="#000000" stroke-width="6" stroke-linejoin="round"/><polygon points="84.98,370.07 78.07,374.06 71.15,370.07 71.15,362.08 78.07,358.09 84.98,362.08" fill="#000000" stroke="#000000" stroke-width="6" stroke-linejoin="round"/><polygon points="96.52,304.56 89.61,308.55 82.71,304.56 82.71,296.59 89.61,292.60 96.52,296.59" fill="#000000" stroke="#000000" stroke-width="6" stroke-linejoin="round"/><polygon points="108.31,239.20 101.16,243.33 94.02,239.20 94.02,230.95 101.16,226.82 108.31,230.95" fill="#000000" stroke="#000000" stroke-width="6" stroke-linejoin="round"/><polygon points="119.17,173.30 112.71,177.03 106.26,173.30 106.26,165.84 112.71,162.12 119.17,165.84" fill="#000000" stroke="#000000" stroke-width="6" stroke-linejoin="round"/><polygon points="181.46,150.43 175.21,154.04 168.97,150.43 168.97,143.22 175.21,139.61 181.46,143.22" fill="#000000" stroke="#000000" stroke-width="6" stroke-linejoin="round"/><polygon points="243.88,127.64 237.71,131.20 231.55,127.64 231.55,120.52 237.71,116.96 243.88,120.52" fill="#000000" stroke="#000000" stroke-width="6" stroke-linejoin="round"/><polygon points="305.90,104.61 300.21,107.90 294.53,104.61 294.53,98.04 300.21,94.76 305.90,98.04" fill="#000000" stroke="#000000" stroke-width="6" stroke-linejoin="round"/><polygon points="368.26,81.78 362.71,84.98 357.17,81.78 357.17,75.38 362.71,72.18 368.26,75.38" fill="#000000" stroke="#000000" stroke-width="6" stroke-linejoin="round"/><polygon points="430.44,58.85 425.21,61.86 419.99,58.85 419.99,52.82 425.21,49.80 430.44,52.82" fill="#000000" stroke="#000000" stroke-width="6" stroke-linejoin="round"/><polygon points="492.80,36.02 487.71,38.95 482.63,36.02 482.63,30.15 487.71,27.21 492.80,30.15" fill="#000000" stroke="#000000" stroke-width="6" stroke-linejoin="round"/><polygon points="480.00,474.98 469.37,481.11 458.74,474.98 458.74,462.70 469.37,456.57 480.00,462.70" fill="#ff2626"/><polygon points="492.04,409.76 480.92,416.18 469.80,409.76 469.80,396.92 480.92,390.50 492.04,396.92" fill="#ff2d26"/><polygon points="547.57,455.16 531.87,464.23 516.16,455.16 516.16,437.02 531.87,427.96 547.57,437.02" fill="#ff3526"/><polygon points="538.10,521.86 520.32,532.13 502.53,521.86 502.53,501.33 520.32,491.06 538.10,501.33" fill="#ff3d26"/><polygon points="473.43,543.35 457.82,552.37 442.20,543.35 442.20,525.33 457.82,516.31 473.43,525.33" fill="#ff4526"/><polygon points="422.24,500.46 406.87,509.33 391.50,500.46 391.50,482.71 406.87,473.84 422.24,482.71" fill="#ff4c26"/><polygon points="433.99,435.08 418.42,444.07 402.84,435.08 402.84,417.09 418.42,408.10 433.99,417.09" fill="#ff5426"/><polygon points="512.59,349.46 492.47,361.07 472.34,349.46 472.34,326.22 492.47,314.61 512.59,326.22" fill="#ff5c26"/><polygon points="558.53,389.32 543.42,398.04 528.30,389.32 528.30,371.87 543.42,363.14 558.53,371.87" fill="#ff6326"/><polygon points="604.15,428.99 594.37,434.64 584.58,428.99 584.58,417.69 594.37,412.05 604.15,417.69" fill="#ff6b26"/><polygon points="595.65,496.26 582.82,503.67 569.98,496.26 569.98,481.43 582.82,474.02 595.65,481.43" fill="#ff7326"/><polygon points="587.07,563.47 571.27,572.60 555.46,563.47 555.46,545.22 571.27,536.09 587.07,545.22" fill="#ff7a26"/><polygon points="527.89,588.14 508.77,599.18 489.64,588.14 489.64,566.05 508.77,555.01 527.89,566.05" fill="#ff8226"/><polygon points="465.56,610.98 446.27,622.11 426.98,610.98 426.98,588.70 446.27,577.57 465.56,588.70" fill="#ff8a26"/><polygon points="409.76,565.43 395.32,573.77 380.87,565.43 380.87,548.75 395.32,540.41 409.76,548.75" fill="#ff9126"/><polygon points="360.58,523.70 344.37,533.05 328.16,523.70 328.16,504.98 344.37,495.62 360.58,504.98" fill="#ff9926"/><polygon points="370.06,457.00 355.92,465.16 341.78,457.00 341.78,440.67 355.92,432.51 370.06,440.67" fill="#ffa126"/><polygon points="377.20,388.96 367.47,394.58 357.73,388.96 357.73,377.71 367.47,372.09 377.20,377.71" fill="#ffa926"/><polygon points="439.91,366.33 429.97,372.07 420.02,366.33 420.02,354.84 429.97,349.10 439.91,354.84" fill="#ffb026"/><polygon points="512.73,277.37 504.02,282.41 495.30,277.37 495.30,267.30 504.02,262.27 512.73,267.30" fill="#ffb826"/><polygon points="565.32,321.07 554.97,327.05 544.61,321.07 544.61,309.11 554.97,303.13 565.32,309.11" fill="#ffc026"/><polygon points="616.36,363.87 605.92,369.90 595.47,363.87 595.47,351.81 605.92,345.78 616.36,351.81" fill="#ffc726"/><polygon points="669.18,407.71 656.87,414.82 644.55,407.71 644.55,393.49 656.87,386.38 669.18,393.49" fill="#ffcf26"/><polygon points="659.85,474.49 645.32,482.88 630.78,474.49 630.78,457.70 645.32,449.31 659.85,457.70" fill="#ffd726"/><polygon points="647.03,539.25 633.77,546.91 620.51,539.25 620.51,523.94 633.77,516.29 647.03,523.94" fill="#ffde26"/><polygon points="636.02,605.07 622.22,613.04 608.42,605.07 608.42,589.13 622.22,581.16 636.02,589.13" fill="#ffe626"/><polygon points="575.70,629.07 559.72,638.30 543.74,629.07 543.74,610.62 559.72,601.40 575.70,610.62" fill="#ffee26"/><polygon points="512.49,651.41 497.22,660.23 481.95,651.41 481.95,633.78 497.22,624.96 512.49,633.78" fill="#fff626"/><polygon points="445.42,671.52 434.72,677.70 424.01,671.52 424.01,659.16 434.72,652.98 445.42,659.16" fill="#fffd26"/><polygon points="391.58,627.10 383.77,631.61 375.96,627.10 375.96,618.08 383.77,613.57 391.58,618.08" fill="#f8ff26"/><polygon points="346.03,587.47 332.82,595.09 319.60,587.47 319.60,572.21 332.82,564.58 346.03,572.21" fill="#f0ff26"/><polygon points="296.95,545.79 281.87,554.50 266.78,545.79 266.78,528.38 281.87,519.67 296.95,528.38" fill="#e9ff26"/><polygon points="309.13,480.66 293.42,489.73 277.70,480.66 277.70,462.51 293.42,453.44 309.13,462.51" fill="#e1ff26"/><polygon points="314.23,411.43 304.97,416.78 295.70,411.43 295.70,400.74 304.97,395.39 314.23,400.74" fill="#d9ff26"/><polygon points="324.74,345.33 316.52,350.08 308.29,345.33 308.29,335.84 316.52,331.09 324.74,335.84" fill="#d2ff26"/><polygon points="388.44,323.28 379.02,328.72 369.59,323.28 369.59,312.39 379.02,306.95 388.44,312.39" fill="#caff26"/><polygon points="450.50,300.27 441.52,305.46 432.53,300.27 432.53,289.90 441.52,284.72 450.50,289.90" fill="#c2ff26"/><polygon points="522.00,210.56 515.56,214.27 509.13,210.56 509.13,203.12 515.56,199.40 522.00,203.12" fill="#bbff26"/><polygon points="579.37,257.01 566.52,264.43 553.66,257.01 553.66,242.17 566.52,234.75 579.37,242.17" fill="#b3ff26"/><polygon points="634.33,302.08 617.47,311.81 600.60,302.08 600.60,282.61 617.47,272.87 634.33,282.61" fill="#abff26"/><polygon points="685.19,344.78 668.42,354.47 651.64,344.78 651.64,325.41 668.42,315.72 685.19,325.41" fill="#a3ff26"/><polygon points="731.28,384.73 719.37,391.60 707.45,384.73 707.45,370.97 719.37,364.09 731.28,370.97" fill="#9cff26"/><polygon points="717.21,448.77 707.82,454.19 698.42,448.77 698.42,437.93 707.82,432.50 717.21,437.93" fill="#94ff26"/><polygon points="704.59,513.65 696.27,518.46 687.95,513.65 687.95,504.05 696.27,499.24 704.59,504.05" fill="#8cff26"/><polygon points="690.21,577.52 684.72,580.69 679.22,577.52 679.22,571.18 684.72,568.00 690.21,571.18" fill="#85ff26"/><polygon points="678.42,642.88 673.17,645.91 667.92,642.88 667.92,636.82 673.17,633.79 678.42,636.82" fill="#7dff26"/><polygon points="616.47,665.95 610.67,669.30 604.87,665.95 604.87,659.25 610.67,655.90 616.47,659.25" fill="#75ff26"/><polygon points="554.36,688.92 548.17,692.49 541.98,688.92 541.98,681.77 548.17,678.20 554.36,681.77" fill="#6eff26"/><polygon points="491.58,711.51 485.67,714.92 479.76,711.51 479.76,704.68 485.67,701.27 491.58,704.68" fill="#66ff26"/><polygon points="428.74,734.06 423.17,737.28 417.59,734.06 417.59,727.62 423.17,724.41 428.74,727.62" fill="#5eff26"/><polygon points="378.85,691.92 372.22,695.75 365.59,691.92 365.59,684.26 372.22,680.43 378.85,684.26" fill="#56ff26"/><polygon points="333.45,652.37 321.27,659.41 309.08,652.37 309.08,638.30 321.27,631.27 333.45,638.30" fill="#4fff26"/><polygon points="285.98,611.63 270.32,620.67 254.66,611.63 254.66,593.54 270.32,584.50 285.98,593.54" fill="#47ff26"/><polygon points="233.49,567.99 219.37,576.14 205.24,567.99 205.24,551.68 219.37,543.52 233.49,551.68" fill="#3fff26"/><polygon points="239.34,499.19 230.92,504.05 222.50,499.19 222.50,489.47 230.92,484.61 239.34,489.47" fill="#38ff26"/><polygon points="248.69,432.42 242.47,436.01 236.25,432.42 236.25,425.24 242.47,421.65 248.69,425.24" fill="#30ff26"/><polygon points="259.46,366.47 254.02,369.62 248.57,366.47 248.57,360.19 254.02,357.04 259.46,360.19" fill="#28ff26"/><polygon points="271.22,301.09 265.57,304.36 259.91,301.09 259.91,294.57 265.57,291.30 271.22,294.57" fill="#26ff2b"/><polygon points="333.81,278.40 328.06,281.71 322.32,278.40 322.32,271.77 328.06,268.45 333.81,271.77" fill="#26ff33"/><polygon points="398.01,256.63 390.56,260.93 383.12,256.63 383.12,248.03 390.56,243.73 398.01,248.03" fill="#26ff3a"/><polygon points="462.71,235.15 453.06,240.72 443.42,235.15 443.42,224.02 453.06,218.45 462.71,224.02" fill="#26ff42"/><polygon points="539.86,148.69 527.11,156.05 514.37,148.69 514.37,133.98 527.11,126.62 539.86,133.98" fill="#26ff4a"/><polygon points="598.25,195.74 578.06,207.39 557.88,195.74 557.88,172.44 578.06,160.79 598.25,172.44" fill="#26ff51"/><polygon points="645.47,236.34 629.02,245.84 612.56,236.34 612.56,217.34 629.02,207.84 645.47,217.34" fill="#26ff59"/><polygon points="687.82,274.13 679.97,278.66 672.11,274.13 672.11,265.06 679.97,260.53 687.82,265.06" fill="#26ff61"/><polygon points="738.56,316.76 730.92,321.18 723.27,316.76 723.27,307.93 730.92,303.52 738.56,307.93" fill="#26ff68"/><polygon points="789.03,359.24 781.87,363.37 774.70,359.24 774.70,350.96 781.87,346.82 789.03,350.96" fill="#26ff70"/><polygon points="777.44,424.71 770.32,428.83 763.19,424.71 763.19,416.49 770.32,412.37 777.44,416.49" fill="#26ff78"/><polygon points="765.06,489.73 758.77,493.36 752.48,489.73 752.48,482.47 758.77,478.84 765.06,482.47" fill="#26ff80"/><polygon points="756.12,556.74 747.22,561.88 738.31,556.74 738.31,546.46 747.22,541.32 756.12,546.46" fill="#26ff87"/><polygon points="749.66,625.18 735.67,633.26 721.67,625.18 721.67,609.02 735.67,600.94 749.66,609.02" fill="#26ff8f"/><polygon points="735.47,689.15 724.12,695.71 712.77,689.15 712.77,676.05 724.12,669.50 735.47,676.05" fill="#26ff97"/><polygon points="669.02,709.62 661.62,713.89 654.22,709.62 654.22,701.08 661.62,696.81 669.02,701.08" fill="#26ff9e"/><polygon points="605.86,731.99 599.12,735.88 592.38,731.99 592.38,724.21 599.12,720.31 605.86,724.21" fill="#26ffa6"/><polygon points="544.24,755.25 536.62,759.65 528.99,755.25 528.99,746.44 536.62,742.04 544.24,746.44" fill="#26ffae"/><polygon points="481.32,777.75 474.12,781.91 466.92,777.75 466.92,769.44 474.12,765.28 481.32,769.44" fill="#26ffb5"/><polygon points="418.77,800.47 411.62,804.60 404.47,800.47 404.47,792.22 411.62,788.09 418.77,792.22" fill="#26ffbd"/><polygon points="369.61,758.75 360.67,763.91 351.73,758.75 351.73,748.43 360.67,743.27 369.61,748.43" fill="#26ffc5"/><polygon points="317.97,715.60 309.72,720.37 301.46,715.60 301.46,706.07 309.72,701.30 317.97,706.07" fill="#26ffcc"/><polygon points="266.12,672.33 258.77,676.58 251.42,672.33 251.42,663.84 258.77,659.60 266.12,663.84" fill="#26ffd4"/><polygon points="214.99,629.47 207.82,633.61 200.65,629.47 200.65,621.19 207.82,617.05 214.99,621.19" fill="#26ffdc"/><polygon points="165.01,587.28 156.87,591.99 148.72,587.28 148.72,577.88 156.87,573.17 165.01,577.88" fill="#26ffe4"/><polygon points="178.10,522.67 168.42,528.26 158.73,522.67 158.73,511.49 168.42,505.90 178.10,511.49" fill="#26ffeb"/><polygon points="189.73,457.21 179.97,462.85 170.21,457.21 170.21,445.94 179.97,440.31 189.73,445.94" fill="#26fff3"/><polygon points="200.54,391.29 191.52,396.49 182.50,391.29 182.50,380.87 191.52,375.66 200.54,380.87" fill="#26fffb"/><polygon points="211.86,325.66 203.07,330.74 194.27,325.66 194.27,315.50 203.07,310.42 211.86,315.50" fill="#26fbff"/><polygon points="221.89,259.28 214.61,263.48 207.34,259.28 207.34,250.88 214.61,246.68 221.89,250.88" fill="#26f3ff"/><polygon points="285.59,237.22 277.11,242.11 268.64,237.22 268.64,227.44 277.11,222.55 285.59,227.44" fill="#26ebff"/><polygon points="350.06,215.61 339.61,221.64 329.17,215.61 329.17,203.55 339.61,197.52 350.06,203.55" fill="#26e4ff"/><polygon points="410.92,191.92 402.11,197.01 393.30,191.92 393.30,181.75 402.11,176.66 410.92,181.75" fill="#26dcff"/><polygon points="472.10,168.40 464.61,172.72 457.13,168.40 457.13,159.77 464.61,155.45 472.10,159.77" fill="#26d4ff"/><polygon points="548.52,81.53 538.66,87.22 528.80,81.53 528.80,70.14 538.66,64.45 548.52,70.14" fill="#26ccff"/><polygon points="600.52,124.89 589.61,131.19 578.71,124.89 578.71,112.29 589.61,105.99 600.52,112.29" fill="#26c5ff"/><polygon points="654.98,169.66 640.56,177.98 626.15,169.66 626.15,153.02 640.56,144.70 654.98,153.02" fill="#26bdff"/><polygon points="704.37,211.51 691.52,218.93 678.66,211.51 678.66,196.67 691.52,189.25 704.37,196.67" fill="#26b5ff"/><polygon points="750.93,251.73 742.47,256.61 734.01,251.73 734.01,241.96 742.47,237.08 750.93,241.96" fill="#26aeff"/><polygon points="804.09,295.76 793.42,301.93 782.74,295.76 782.74,283.43 793.42,277.27 804.09,283.43" fill="#26a6ff"/><polygon points="867.31,345.60 844.37,358.85 821.42,345.60 821.42,319.10 844.37,305.86 867.31,319.10" fill="#269eff"/><polygon points="856.34,411.43 832.82,425.01 809.30,411.43 809.30,384.27 832.82,370.69 856.34,384.27" fill="#2697ff"/><polygon points="833.44,470.38 821.27,477.41 809.10,470.38 809.10,456.33 821.27,449.30 833.44,456.33" fill="#268fff"/><polygon points="821.80,535.83 809.72,542.80 797.64,535.83 797.64,521.88 809.72,514.90 821.80,521.88" fill="#2687ff"/><polygon points="817.54,605.54 798.17,616.72 778.80,605.54 778.80,583.17 798.17,571.99 817.54,583.17" fill="#2680ff"/><polygon points="803.07,669.35 786.62,678.85 770.17,669.35 770.17,650.36 786.62,640.86 803.07,650.36" fill="#2678ff"/><polygon points="786.00,731.67 775.07,737.98 764.13,731.67 764.13,719.04 775.07,712.73 786.00,719.04" fill="#2670ff"/><polygon points="725.67,755.66 712.57,763.23 699.47,755.66 699.47,740.54 712.57,732.98 725.67,740.54" fill="#2668ff"/><polygon points="667.17,780.72 650.07,790.59 632.97,780.72 632.97,760.98 650.07,751.11 667.17,760.98" fill="#2661ff"/><polygon points="597.28,799.21 587.57,804.81 577.86,799.21 577.86,787.99 587.57,782.39 597.28,787.99" fill="#2659ff"/><polygon points="534.38,821.72 525.07,827.10 515.76,821.72 515.76,810.97 525.07,805.59 534.38,810.97" fill="#2651ff"/><polygon points="475.57,846.60 462.57,854.10 449.57,846.60 449.57,831.59 462.57,824.09 475.57,831.59" fill="#264aff"/><polygon points="411.05,868.18 400.07,874.53 389.09,868.18 389.09,855.50 400.07,849.16 411.05,855.50" fill="#2642ff"/><polygon points="358.29,824.39 349.12,829.69 339.94,824.39 339.94,813.79 349.12,808.50 358.29,813.79" fill="#263aff"/><polygon points="307.55,781.76 298.17,787.17 288.79,781.76 288.79,770.92 298.17,765.51 307.55,770.92" fill="#2633ff"/><polygon points="256.44,738.91 247.22,744.23 238.00,738.91 238.00,728.26 247.22,722.94 256.44,728.26" fill="#262bff"/><polygon points="205.86,696.37 196.27,701.91 186.68,696.37 186.68,685.30 196.27,679.76 205.86,685.30" fill="#2826ff"/><polygon points="152.58,652.27 145.32,656.46 138.06,652.27 138.06,643.89 145.32,639.70 152.58,643.89" fill="#3026ff"/><polygon points="101.16,609.25 94.37,613.17 87.57,609.25 87.57,601.41 94.37,597.48 101.16,601.41" fill="#3826ff"/><polygon points="115.20,545.19 105.92,550.54 96.64,545.19 96.64,534.47 105.92,529.11 115.20,534.47" fill="#3f26ff"/><polygon points="125.99,479.25 117.47,484.17 108.94,479.25 108.94,469.40 117.47,464.48 125.99,469.40" fill="#4726ff"/><polygon points="137.59,413.78 129.02,418.73 120.44,413.78 120.44,403.87 129.02,398.92 137.59,403.87" fill="#4f26ff"/><polygon points="147.27,347.20 140.57,351.07 133.86,347.20 133.86,339.46 140.57,335.59 147.27,339.46" fill="#5626ff"/><polygon points="158.74,281.65 152.11,285.48 145.49,281.65 145.49,274.00 152.11,270.17 158.74,274.00" fill="#5e26ff"/><polygon points="170.25,216.13 163.66,219.93 157.08,216.13 157.08,208.52 163.66,204.72 170.25,208.52" fill="#6626ff"/><polygon points="233.12,193.60 226.16,197.61 219.20,193.60 219.20,185.56 226.16,181.54 233.12,185.56" fill="#6e26ff"/><polygon points="295.52,170.79 288.66,174.74 281.81,170.79 281.81,162.87 288.66,158.92 295.52,162.87" fill="#7526ff"/><polygon points="359.12,148.67 351.16,153.26 343.21,148.67 343.21,139.49 351.16,134.90 359.12,139.49" fill="#7d26ff"/><polygon points="421.82,126.04 413.66,130.76 405.50,126.04 405.50,116.62 413.66,111.91 421.82,116.62" fill="#8526ff"/><polygon points="483.08,102.58 476.16,106.58 469.24,102.58 469.24,94.59 476.16,90.59 483.08,94.59" fill="#8c26ff"/><polygon points="556.57,14.00 550.21,17.67 543.86,14.00 543.86,6.67 550.21,3.00 556.57,6.67" fill="#9426ff"/><polygon points="608.24,57.18 601.16,61.26 594.08,57.18 594.08,49.00 601.16,44.91 608.24,49.00" fill="#9c26ff"/><polygon points="659.15,99.90 652.11,103.96 645.08,99.90 645.08,91.78 652.11,87.72 659.15,91.78" fill="#a326ff"/><polygon points="710.25,142.74 703.06,146.89 695.88,142.74 695.88,134.45 703.06,130.30 710.25,134.45" fill="#ab26ff"/><polygon points="761.19,185.49 754.01,189.63 746.84,185.49 746.84,177.20 754.01,173.06 761.19,177.20" fill="#b326ff"/><polygon points="812.56,228.48 804.97,232.87 797.37,228.48 797.37,219.71 804.97,215.33 812.56,219.71" fill="#bb26ff"/><polygon points="862.64,270.73 855.92,274.62 849.19,270.73 849.19,262.97 855.92,259.09 862.64,262.97" fill="#c226ff"/><polygon points="915.25,314.44 906.87,319.29 898.48,314.44 898.48,304.76 906.87,299.92 915.25,304.76" fill="#ca26ff"/><polygon points="903.55,379.86 895.32,384.61 887.09,379.86 887.09,370.35 895.32,365.60 903.55,370.35" fill="#d226ff"/><polygon points="892.37,445.57 883.77,450.53 875.17,445.57 875.17,435.64 883.77,430.67 892.37,435.64" fill="#d926ff"/><polygon points="881.18,511.28 872.22,516.46 863.25,511.28 863.25,500.93 872.22,495.75 881.18,500.93" fill="#e126ff"/><polygon points="869.99,576.98 860.67,582.36 851.35,576.98 851.35,566.23 860.67,560.85 869.99,566.23" fill="#e926ff"/><polygon points="856.07,641.12 849.12,645.14 842.16,641.12 842.16,633.09 849.12,629.08 856.07,633.09" fill="#f026ff"/><polygon points="844.61,706.67 837.57,710.74 830.52,706.67 830.52,698.54 837.57,694.47 844.61,698.54" fill="#f826ff"/><polygon points="835.40,773.52 826.02,778.94 816.64,773.52 816.64,762.69 826.02,757.28 835.40,762.69" fill="#ff26fd"/><polygon points="772.89,796.26 763.52,801.67 754.15,796.26 754.15,785.45 763.52,780.04 772.89,785.45" fill="#ff26f6"/><polygon points="709.93,818.75 701.02,823.89 692.11,818.75 692.11,808.46 701.02,803.32 709.93,808.46" fill="#ff26ee"/><polygon points="647.00,841.25 638.52,846.15 630.04,841.25 630.04,831.45 638.52,826.56 647.00,831.45" fill="#ff26e6"/><polygon points="583.96,863.69 576.02,868.27 568.08,863.69 568.08,854.51 576.02,849.93 583.96,854.51" fill="#ff26de"/><polygon points="521.38,886.38 513.52,890.92 505.66,886.38 505.66,877.31 513.52,872.78 521.38,877.31" fill="#ff26d7"/><polygon points="458.31,908.81 451.02,913.02 443.73,908.81 443.73,900.38 451.02,896.17 458.31,900.38" fill="#ff26cf"/><polygon points="396.40,931.89 388.52,936.44 380.64,931.89 380.64,922.80 388.52,918.25 396.40,922.80" fill="#ff26c7"/><polygon points="346.21,889.58 337.57,894.57 328.93,889.58 328.93,879.60 337.57,874.62 346.21,879.60" fill="#ff26c0"/><polygon points="295.86,847.18 286.62,852.51 277.38,847.18 277.38,836.50 286.62,831.17 295.86,836.50" fill="#ff26b8"/><polygon points="243.30,803.49 235.67,807.90 228.04,803.49 228.04,794.68 235.67,790.27 243.30,794.68" fill="#ff26b0"/><polygon points="193.05,761.14 184.72,765.95 176.39,761.14 176.39,751.52 184.72,746.72 193.05,751.52" fill="#ff26a9"/><polygon points="141.58,718.09 133.77,722.60 125.95,718.09 125.95,709.07 133.77,704.56 141.58,709.07" fill="#ff26a1"/><polygon points="91.12,675.62 82.82,680.42 74.51,675.62 74.51,666.03 82.82,661.24 91.12,666.03" fill="#ff2699"/><polygon points="39.55,632.51 31.87,636.94 24.19,632.51 24.19,623.64 31.87,619.21 39.55,623.64" fill="#ff2691"/><polygon points="51.14,567.03 43.42,571.49 35.70,567.03 35.70,558.12 43.42,553.66 51.14,558.12" fill="#ff268a"/><polygon points="62.43,501.39 54.97,505.69 47.50,501.39 47.50,492.77 54.97,488.46 62.43,492.77" fill="#ff2682"/><polygon points="73.52,435.62 66.52,439.66 59.51,435.62 59.51,427.53 66.52,423.49 73.52,427.53" fill="#ff267a"/><polygon points="84.98,370.07 78.07,374.06 71.15,370.07 71.15,362.08 78.07,358.09 84.98,362.08" fill="#ff2673"/><polygon points="96.52,304.56 89.61,308.55 82.71,304.56 82.71,296.59 89.61,292.60 96.52,296.59" fill="#ff266b"/><polygon points="108.31,239.20 101.16,243.33 94.02,239.20 94.02,230.95 101.16,226.82 108.31,230.95" fill="#ff2663"/><polygon points="119.17,173.30 112.71,177.03 106.26,173.30 106.26,165.84 112.71,162.12 119.17,165.84" fill="#ff265c"/><polygon points="181.46,150.43 175.21,154.04 168.97,150.43 168.97,143.22 175.21,139.61 181.46,143.22" fill="#ff2654"/><polygon points="243.88,127.64 237.71,131.20 231.55,127.64 231.55,120.52 237.71,116.96 243.88,120.52" fill="#ff264c"/><polygon points="305.90,104.61 300.21,107.90 294.53,104.61 294.53,98.04 300.21,94.76 305.90,98.04" fill="#ff2645"/><polygon points="368.26,81.78 362.71,84.98 357.17,81.78 357.17,75.38 362.71,72.18 368.26,75.38" fill="#ff263d"/><polygon points="430.44,58.85 425.21,61.86 419.99,58.85 419.99,52.82 425.21,49.80 430.44,52.82" fill="#ff2635"/><polygon points="492.80,36.02 487.71,38.95 482.63,36.02 482.63,30.15 487.71,27.21 492.80,30.15" fill="#ff262d"/></svg>