<svg width="800" height="800" viewBox="0 0 800 800" xmlns="http://www.w3.org/2000/svg"><defs><linearGradient id="g" gradientUnits="userSpaceOnUse" x1="-846.0" y1="10.1" x2="846.0" y2="10.1"><stop offset="0%" stop-color="#ff0040"/><stop offset="33%" stop-color="#00ff00"/><stop offset="66%" stop-color="#0000ff"/><stop offset="100%" stop-color="#ff0040"/></linearGradient></defs><g transform="translate(400.00, 455.21) scale(0.47114)"><g fill="#000000" stroke="#000000" stroke-width="6" stroke-linejoin="round"><rect x="-846.0" y="1.6" width="1692.0" height="17.0" rx="8.5"/><rect x="-825.4" y="-241.7" width="18.8" height="218.4" rx="4.0"/><rect x="-825.4" y="-300.2" width="18.8" height="13.0" rx="4.0"/><rect x="-825.4" y="43.6" width="18.8" height="73.1" rx="4.0"/><rect x="-825.4" y="150.6" width="18.8" height="10.0" rx="4.0"/><rect x="-783.6" y="-205.8" width="18.8" height="182.4" rx="4.0"/><rect x="-783.6" y="-258.4" width="18.8" height="13.0" rx="4.0"/><rect x="-783.6" y="43.6" width="18.8" height="62.3" rx="4.0"/><rect x="-783.6" y="136.1" width="18.8" height="10.0" rx="4.0"/><rect x="-741.7" y="-171.4" width="18.8" height="148.0" rx="4.0"/><rect x="-741.7" y="-218.4" width="18.8" height="13.0" rx="4.0"/><rect x="-741.7" y="43.6" width="18.8" height="52.0" rx="4.0"/><rect x="-741.7" y="122.2" width="18.8" height="10.0" rx="4.0"/><rect x="-699.9" y="-142.4" width="18.8" height="119.1" rx="4.0"/><rect x="-699.9" y="-184.8" width="18.8" height="13.0" rx="4.0"/><rect x="-699.9" y="43.6" width="18.8" height="43.3" rx="4.0"/><rect x="-699.9" y="110.5" width="18.8" height="10.0" rx="4.0"/><rect x="-658.0" y="-152.1" width="18.8" height="128.7" rx="4.0"/><rect x="-658.0" y="-196.0" width="18.8" height="13.0" rx="4.0"/><rect x="-658.0" y="43.6" width="18.8" height="46.2" rx="4.0"/><rect x="-658.0" y="114.4" width="18.8" height="10.0" rx="4.0"/><rect x="-616.2" y="-247.5" width="18.8" height="224.1" rx="4.0"/><rect x="-616.2" y="-306.9" width="18.8" height="13.0" rx="4.0"/><rect x="-616.2" y="43.6" width="18.8" height="74.8" rx="4.0"/><rect x="-616.2" y="153.0" width="18.8" height="10.0" rx="4.0"/><rect x="-574.3" y="-278.5" width="18.8" height="255.2" rx="4.0"/><rect x="-574.3" y="-342.9" width="18.8" height="13.0" rx="4.0"/><rect x="-574.3" y="43.6" width="18.8" height="84.1" rx="4.0"/><rect x="-574.3" y="165.5" width="18.8" height="10.0" rx="4.0"/><rect x="-532.5" y="-137.4" width="18.8" height="114.0" rx="4.0"/><rect x="-532.5" y="-178.9" width="18.8" height="13.0" rx="4.0"/><rect x="-532.5" y="43.6" width="18.8" height="41.8" rx="4.0"/><rect x="-532.5" y="108.4" width="18.8" height="10.0" rx="4.0"/><rect x="-490.6" y="-124.1" width="18.8" height="100.8" rx="4.0"/><rect x="-490.6" y="-163.5" width="18.8" height="13.0" rx="4.0"/><rect x="-490.6" y="43.6" width="18.8" height="37.8" rx="4.0"/><rect x="-490.6" y="103.1" width="18.8" height="10.0" rx="4.0"/><rect x="-448.8" y="-58.3" width="18.8" height="34.9" rx="4.0"/><rect x="-448.8" y="-87.0" width="18.8" height="13.0" rx="4.0"/><rect x="-448.8" y="43.6" width="18.8" height="18.1" rx="4.0"/><rect x="-448.8" y="76.5" width="18.8" height="10.0" rx="4.0"/><rect x="-407.0" y="-106.0" width="18.8" height="82.7" rx="4.0"/><rect x="-407.0" y="-142.5" width="18.8" height="13.0" rx="4.0"/><rect x="-407.0" y="43.6" width="18.8" height="32.4" rx="4.0"/><rect x="-407.0" y="95.8" width="18.8" height="10.0" rx="4.0"/><rect x="-365.1" y="-130.5" width="18.8" height="107.2" rx="4.0"/><rect x="-365.1" y="-171.0" width="18.8" height="13.0" rx="4.0"/><rect x="-365.1" y="43.6" width="18.8" height="39.8" rx="4.0"/><rect x="-365.1" y="105.7" width="18.8" height="10.0" rx="4.0"/><rect x="-323.3" y="-181.2" width="18.8" height="157.8" rx="4.0"/><rect x="-323.3" y="-229.8" width="18.8" height="13.0" rx="4.0"/><rect x="-323.3" y="43.6" width="18.8" height="54.9" rx="4.0"/><rect x="-323.3" y="126.2" width="18.8" height="10.0" rx="4.0"/><rect x="-281.4" y="-107.3" width="18.8" height="84.0" rx="4.0"/><rect x="-281.4" y="-144.0" width="18.8" height="13.0" rx="4.0"/><rect x="-281.4" y="43.6" width="18.8" height="32.8" rx="4.0"/><rect x="-281.4" y="96.3" width="18.8" height="10.0" rx="4.0"/><rect x="-239.6" y="-88.5" width="18.8" height="65.2" rx="4.0"/><rect x="-239.6" y="-122.2" width="18.8" height="13.0" rx="4.0"/><rect x="-239.6" y="43.6" width="18.8" height="27.2" rx="4.0"/><rect x="-239.6" y="88.7" width="18.8" height="10.0" rx="4.0"/><rect x="-197.7" y="-89.5" width="18.8" height="66.1" rx="4.0"/><rect x="-197.7" y="-123.3" width="18.8" height="13.0" rx="4.0"/><rect x="-197.7" y="43.6" width="18.8" height="27.4" rx="4.0"/><rect x="-197.7" y="89.1" width="18.8" height="10.0" rx="4.0"/><rect x="-155.9" y="-185.7" width="18.8" height="162.3" rx="4.0"/><rect x="-155.9" y="-235.1" width="18.8" height="13.0" rx="4.0"/><rect x="-155.9" y="43.6" width="18.8" height="56.3" rx="4.0"/><rect x="-155.9" y="128.0" width="18.8" height="10.0" rx="4.0"/><rect x="-114.0" y="-209.9" width="18.8" height="186.5" rx="4.0"/><rect x="-114.0" y="-263.2" width="18.8" height="13.0" rx="4.0"/><rect x="-114.0" y="43.6" width="18.8" height="63.6" rx="4.0"/><rect x="-114.0" y="137.8" width="18.8" height="10.0" rx="4.0"/><rect x="-72.2" y="-123.4" width="18.8" height="100.1" rx="4.0"/><rect x="-72.2" y="-162.7" width="18.8" height="13.0" rx="4.0"/><rect x="-72.2" y="43.6" width="18.8" height="37.6" rx="4.0"/><rect x="-72.2" y="102.8" width="18.8" height="10.0" rx="4.0"/><rect x="-30.3" y="-352.6" width="18.8" height="329.2" rx="4.0"/><rect x="-30.3" y="-429.0" width="18.8" height="13.0" rx="4.0"/><rect x="-30.3" y="43.6" width="18.8" height="106.4" rx="4.0"/><rect x="-30.3" y="195.4" width="18.8" height="10.0" rx="4.0"/><rect x="11.5" y="-366.8" width="18.8" height="343.5" rx="4.0"/><rect x="11.5" y="-445.6" width="18.8" height="13.0" rx="4.0"/><rect x="11.5" y="43.6" width="18.8" height="110.6" rx="4.0"/><rect x="11.5" y="201.2" width="18.8" height="10.0" rx="4.0"/><rect x="53.4" y="-178.4" width="18.8" height="155.1" rx="4.0"/><rect x="53.4" y="-226.6" width="18.8" height="13.0" rx="4.0"/><rect x="53.4" y="43.6" width="18.8" height="54.1" rx="4.0"/><rect x="53.4" y="125.1" width="18.8" height="10.0" rx="4.0"/><rect x="95.2" y="-262.5" width="18.8" height="239.1" rx="4.0"/><rect x="95.2" y="-324.3" width="18.8" height="13.0" rx="4.0"/><rect x="95.2" y="43.6" width="18.8" height="79.3" rx="4.0"/><rect x="95.2" y="159.0" width="18.8" height="10.0" rx="4.0"/><rect x="137.0" y="-198.3" width="18.8" height="174.9" rx="4.0"/><rect x="137.0" y="-249.7" width="18.8" height="13.0" rx="4.0"/><rect x="137.0" y="43.6" width="18.8" height="60.1" rx="4.0"/><rect x="137.0" y="133.1" width="18.8" height="10.0" rx="4.0"/><rect x="178.9" y="-248.8" width="18.8" height="225.4" rx="4.0"/><rect x="178.9" y="-308.4" width="18.8" height="13.0" rx="4.0"/><rect x="178.9" y="43.6" width="18.8" height="75.2" rx="4.0"/><rect x="178.9" y="153.5" width="18.8" height="10.0" rx="4.0"/><rect x="220.7" y="-170.0" width="18.8" height="146.6" rx="4.0"/><rect x="220.7" y="-216.8" width="18.8" height="13.0" rx="4.0"/><rect x="220.7" y="43.6" width="18.8" height="51.6" rx="4.0"/><rect x="220.7" y="121.6" width="18.8" height="10.0" rx="4.0"/><rect x="262.6" y="-161.6" width="18.8" height="138.2" rx="4.0"/><rect x="262.6" y="-207.0" width="18.8" height="13.0" rx="4.0"/><rect x="262.6" y="43.6" width="18.8" height="49.1" rx="4.0"/><rect x="262.6" y="118.2" width="18.8" height="10.0" rx="4.0"/><rect x="304.4" y="-120.7" width="18.8" height="97.4" rx="4.0"/><rect x="304.4" y="-159.6" width="18.8" height="13.0" rx="4.0"/><rect x="304.4" y="43.6" width="18.8" height="36.8" rx="4.0"/><rect x="304.4" y="101.7" width="18.8" height="10.0" rx="4.0"/><rect x="346.3" y="-113.0" width="18.8" height="89.6" rx="4.0"/><rect x="346.3" y="-150.6" width="18.8" height="13.0" rx="4.0"/><rect x="346.3" y="43.6" width="18.8" height="34.5" rx="4.0"/><rect x="346.3" y="98.6" width="18.8" height="10.0" rx="4.0"/><rect x="388.1" y="-121.4" width="18.8" height="98.0" rx="4.0"/><rect x="388.1" y="-160.4" width="18.8" height="13.0" rx="4.0"/><rect x="388.1" y="43.6" width="18.8" height="37.0" rx="4.0"/><rect x="388.1" y="102.0" width="18.8" height="10.0" rx="4.0"/><rect x="430.0" y="-156.2" width="18.8" height="132.8" rx="4.0"/><rect x="430.0" y="-200.8" width="18.8" height="13.0" rx="4.0"/><rect x="430.0" y="43.6" width="18.8" height="47.4" rx="4.0"/><rect x="430.0" y="116.1" width="18.8" height="10.0" rx="4.0"/><rect x="471.8" y="-175.8" width="18.8" height="152.5" rx="4.0"/><rect x="471.8" y="-223.6" width="18.8" height="13.0" rx="4.0"/><rect x="471.8" y="43.6" width="18.8" height="53.3" rx="4.0"/><rect x="471.8" y="124.0" width="18.8" height="10.0" rx="4.0"/><rect x="513.7" y="-157.6" width="18.8" height="134.3" rx="4.0"/><rect x="513.7" y="-202.5" width="18.8" height="13.0" rx="4.0"/><rect x="513.7" y="43.6" width="18.8" height="47.9" rx="4.0"/><rect x="513.7" y="116.6" width="18.8" height="10.0" rx="4.0"/><rect x="555.5" y="-144.8" width="18.8" height="121.5" rx="4.0"/><rect x="555.5" y="-187.6" width="18.8" height="13.0" rx="4.0"/><rect x="555.5" y="43.6" width="18.8" height="44.0" rx="4.0"/><rect x="555.5" y="111.5" width="18.8" height="10.0" rx="4.0"/><rect x="597.4" y="-171.1" width="18.8" height="147.7" rx="4.0"/><rect x="597.4" y="-218.1" width="18.8" height="13.0" rx="4.0"/><rect x="597.4" y="43.6" width="18.8" height="51.9" rx="4.0"/><rect x="597.4" y="122.1" width="18.8" height="10.0" rx="4.0"/><rect x="639.2" y="-121.3" width="18.8" height="98.0" rx="4.0"/><rect x="639.2" y="-160.3" width="18.8" height="13.0" rx="4.0"/><rect x="639.2" y="43.6" width="18.8" height="37.0" rx="4.0"/><rect x="639.2" y="102.0" width="18.8" height="10.0" rx="4.0"/><rect x="681.0" y="-108.8" width="18.8" height="85.4" rx="4.0"/><rect x="681.0" y="-145.7" width="18.8" height="13.0" rx="4.0"/><rect x="681.0" y="43.6" width="18.8" height="33.2" rx="4.0"/><rect x="681.0" y="96.9" width="18.8" height="10.0" rx="4.0"/><rect x="722.9" y="-109.5" width="18.8" height="86.2" rx="4.0"/><rect x="722.9" y="-146.6" width="18.8" height="13.0" rx="4.0"/><rect x="722.9" y="43.6" width="18.8" height="33.5" rx="4.0"/><rect x="722.9" y="97.2" width="18.8" height="10.0" rx="4.0"/><rect x="764.7" y="-101.6" width="18.8" height="78.3" rx="4.0"/><rect x="764.7" y="-137.4" width="18.8" height="13.0" rx="4.0"/><rect x="764.7" y="43.6" width="18.8" height="31.1" rx="4.0"/><rect x="764.7" y="94.0" width="18.8" height="10.0" rx="4.0"/><rect x="806.6" y="-94.9" width="18.8" height="71.6" rx="4.0"/><rect x="806.6" y="-129.6" width="18.8" height="13.0" rx="4.0"/><rect x="806.6" y="43.6" width="18.8" height="29.1" rx="4.0"/><rect x="806.6" y="91.3" width="18.8" height="10.0" rx="4.0"/></g><rect x="-846.0" y="1.6" width="1692.0" height="17.0" rx="8.5" fill="url(#g)"/><rect x="-825.4" y="-241.7" width="18.8" height="218.4" rx="4.0" fill="#ff2626"/><rect x="-825.4" y="-300.2" width="18.8" height="13.0" rx="4.0" fill="#ff2626"/><rect x="-825.4" y="43.6" width="18.8" height="73.1" rx="4.0" fill="#ff2626"/><rect x="-825.4" y="150.6" width="18.8" height="10.0" rx="4.0" fill="#ff2626"/><rect x="-783.6" y="-205.8" width="18.8" height="182.4" rx="4.0" fill="#ff4626"/><rect x="-783.6" y="-258.4" width="18.8" height="13.0" rx="4.0" fill="#ff4626"/><rect x="-783.6" y="43.6" width="18.8" height="62.3" rx="4.0" fill="#ff4626"/><rect x="-783.6" y="136.1" width="18.8" height="10.0" rx="4.0" fill="#ff4626"/><rect x="-741.7" y="-171.4" width="18.8" height="148.0" rx="4.0" fill="#ff6726"/><rect x="-741.7" y="-218.4" width="18.8" height="13.0" rx="4.0" fill="#ff6726"/><rect x="-741.7" y="43.6" width="18.8" height="52.0" rx="4.0" fill="#ff6726"/><rect x="-741.7" y="122.2" width="18.8" height="10.0" rx="4.0" fill="#ff6726"/><rect x="-699.9" y="-142.4" width="18.8" height="119.1" rx="4.0" fill="#ff8726"/><rect x="-699.9" y="-184.8" width="18.8" height="13.0" rx="4.0" fill="#ff8726"/><rect x="-699.9" y="43.6" width="18.8" height="43.3" rx="4.0" fill="#ff8726"/><rect x="-699.9" y="110.5" width="18.8" height="10.0" rx="4.0" fill="#ff8726"/><rect x="-658.0" y="-152.1" width="18.8" height="128.7" rx="4.0" fill="#ffa826"/><rect x="-658.0" y="-196.0" width="18.8" height="13.0" rx="4.0" fill="#ffa826"/><rect x="-658.0" y="43.6" width="18.8" height="46.2" rx="4.0" fill="#ffa826"/><rect x="-658.0" y="114.4" width="18.8" height="10.0" rx="4.0" fill="#ffa826"/><rect x="-616.2" y="-247.5" width="18.8" height="224.1" rx="4.0" fill="#ffc826"/><rect x="-616.2" y="-306.9" width="18.8" height="13.0" rx="4.0" fill="#ffc826"/><rect x="-616.2" y="43.6" width="18.8" height="74.8" rx="4.0" fill="#ffc826"/><rect x="-616.2" y="153.0" width="18.8" height="10.0" rx="4.0" fill="#ffc826"/><rect x="-574.3" y="-278.5" width="18.8" height="255.2" rx="4.0" fill="#ffe926"/><rect x="-574.3" y="-342.9" width="18.8" height="13.0" rx="4.0" fill="#ffe926"/><rect x="-574.3" y="43.6" width="18.8" height="84.1" rx="4.0" fill="#ffe926"/><rect x="-574.3" y="165.5" width="18.8" height="10.0" rx="4.0" fill="#ffe926"/><rect x="-532.5" y="-137.4" width="18.8" height="114.0" rx="4.0" fill="#f4ff26"/><rect x="-532.5" y="-178.9" width="18.8" height="13.0" rx="4.0" fill="#f4ff26"/><rect x="-532.5" y="43.6" width="18.8" height="41.8" rx="4.0" fill="#f4ff26"/><rect x="-532.5" y="108.4" width="18.8" height="10.0" rx="4.0" fill="#f4ff26"/><rect x="-490.6" y="-124.1" width="18.8" height="100.8" rx="4.0" fill="#d3ff26"/><rect x="-490.6" y="-163.5" width="18.8" height="13.0" rx="4.0" fill="#d3ff26"/><rect x="-490.6" y="43.6" width="18.8" height="37.8" rx="4.0" fill="#d3ff26"/><rect x="-490.6" y="103.1" width="18.8" height="10.0" rx="4.0" fill="#d3ff26"/><rect x="-448.8" y="-58.3" width="18.8" height="34.9" rx="4.0" fill="#b3ff26"/><rect x="-448.8" y="-87.0" width="18.8" height="13.0" rx="4.0" fill="#b3ff26"/><rect x="-448.8" y="43.6" width="18.8" height="18.1" rx="4.0" fill="#b3ff26"/><rect x="-448.8" y="76.5" width="18.8" height="10.0" rx="4.0" fill="#b3ff26"/><rect x="-407.0" y="-106.0" width="18.8" height="82.7" rx="4.0" fill="#92ff26"/><rect x="-407.0" y="-142.5" width="18.8" height="13.0" rx="4.0" fill="#92ff26"/><rect x="-407.0" y="43.6" width="18.8" height="32.4" rx="4.0" fill="#92ff26"/><rect x="-407.0" y="95.8" width="18.8" height="10.0" rx="4.0" fill="#92ff26"/><rect x="-365.1" y="-130.5" width="18.8" height="107.2" rx="4.0" fill="#72ff26"/><rect x="-365.1" y="-171.0" width="18.8" height="13.0" rx="4.0" fill="#72ff26"/><rect x="-365.1" y="43.6" width="18.8" height="39.8" rx="4.0" fill="#72ff26"/><rect x="-365.1" y="105.7" width="18.8" height="10.0" rx="4.0" fill="#72ff26"/><rect x="-323.3" y="-181.2" width="18.8" height="157.8" rx="4.0" fill="#51ff26"/><rect x="-323.3" y="-229.8" width="18.8" height="13.0" rx="4.0" fill="#51ff26"/><rect x="-323.3" y="43.6" width="18.8" height="54.9" rx="4.0" fill="#51ff26"/><rect x="-323.3" y="126.2" width="18.8" height="10.0" rx="4.0" fill="#51ff26"/><rect x="-281.4" y="-107.3" width="18.8" height="84.0" rx="4.0" fill="#31ff26"/><rect x="-281.4" y="-144.0" width="18.8" height="13.0" rx="4.0" fill="#31ff26"/><rect x="-281.4" y="43.6" width="18.8" height="32.8" rx="4.0" fill="#31ff26"/><rect x="-281.4" y="96.3" width="18.8" height="10.0" rx="4.0" fill="#31ff26"/><rect x="-239.6" y="-88.5" width="18.8" height="65.2" rx="4.0" fill="#26ff3b"/><rect x="-239.6" y="-122.2" width="18.8" height="13.0" rx="4.0" fill="#26ff3b"/><rect x="-239.6" y="43.6" width="18.8" height="27.2" rx="4.0" fill="#26ff3b"/><rect x="-239.6" y="88.7" width="18.8" height="10.0" rx="4.0" fill="#26ff3b"/><rect x="-197.7" y="-89.5" width="18.8" height="66.1" rx="4.0" fill="#26ff5c"/><rect x="-197.7" y="-123.3" width="18.8" height="13.0" rx="4.0" fill="#26ff5c"/><rect x="-197.7" y="43.6" width="18.8" height="27.4" rx="4.0" fill="#26ff5c"/><rect x="-197.7" y="89.1" width="18.8" height="10.0" rx="4.0" fill="#26ff5c"/><rect x="-155.9" y="-185.7" width="18.8" height="162.3" rx="4.0" fill="#26ff7c"/><rect x="-155.9" y="-235.1" width="18.8" height="13.0" rx="4.0" fill="#26ff7c"/><rect x="-155.9" y="43.6" width="18.8" height="56.3" rx="4.0" fill="#26ff7c"/><rect x="-155.9" y="128.0" width="18.8" height="10.0" rx="4.0" fill="#26ff7c"/><rect x="-114.0" y="-209.9" width="18.8" height="186.5" rx="4.0" fill="#26ff9d"/><rect x="-114.0" y="-263.2" width="18.8" height="13.0" rx="4.0" fill="#26ff9d"/><rect x="-114.0" y="43.6" width="18.8" height="63.6" rx="4.0" fill="#26ff9d"/><rect x="-114.0" y="137.8" width="18.8" height="10.0" rx="4.0" fill="#26ff9d"/><rect x="-72.2" y="-123.4" width="18.8" height="100.1" rx="4.0" fill="#26ffbd"/><rect x="-72.2" y="-162.7" width="18.8" height="13.0" rx="4.0" fill="#26ffbd"/><rect x="-72.2" y="43.6" width="18.8" height="37.6" rx="4.0" fill="#26ffbd"/><rect x="-72.2" y="102.8" width="18.8" height="10.0" rx="4.0" fill="#26ffbd"/><rect x="-30.3" y="-352.6" width="18.8" height="329.2" rx="4.0" fill="#26ffde"/><rect x="-30.3" y="-429.0" width="18.8" height="13.0" rx="4.0" fill="#26ffde"/><rect x="-30.3" y="43.6" width="18.8" height="106.4" rx="4.0" fill="#26ffde"/><rect x="-30.3" y="195.4" width="18.8" height="10.0" rx="4.0" fill="#26ffde"/><rect x="11.5" y="-366.8" width="18.8" height="343.5" rx="4.0" fill="#26ffff"/><rect x="11.5" y="-445.6" width="18.8" height="13.0" rx="4.0" fill="#26ffff"/><rect x="11.5" y="43.6" width="18.8" height="110.6" rx="4.0" fill="#26ffff"/><rect x="11.5" y="201.2" width="18.8" height="10.0" rx="4.0" fill="#26ffff"/><rect x="53.4" y="-178.4" width="18.8" height="155.1" rx="4.0" fill="#26deff"/><rect x="53.4" y="-226.6" width="18.8" height="13.0" rx="4.0" fill="#26deff"/><rect x="53.4" y="43.6" width="18.8" height="54.1" rx="4.0" fill="#26deff"/><rect x="53.4" y="125.1" width="18.8" height="10.0" rx="4.0" fill="#26deff"/><rect x="95.2" y="-262.5" width="18.8" height="239.1" rx="4.0" fill="#26bdff"/><rect x="95.2" y="-324.3" width="18.8" height="13.0" rx="4.0" fill="#26bdff"/><rect x="95.2" y="43.6" width="18.8" height="79.3" rx="4.0" fill="#26bdff"/><rect x="95.2" y="159.0" width="18.8" height="10.0" rx="4.0" fill="#26bdff"/><rect x="137.0" y="-198.3" width="18.8" height="174.9" rx="4.0" fill="#269dff"/><rect x="137.0" y="-249.7" width="18.8" height="13.0" rx="4.0" fill="#269dff"/><rect x="137.0" y="43.6" width="18.8" height="60.1" rx="4.0" fill="#269dff"/><rect x="137.0" y="133.1" width="18.8" height="10.0" rx="4.0" fill="#269dff"/><rect x="178.9" y="-248.8" width="18.8" height="225.4" rx="4.0" fill="#267cff"/><rect x="178.9" y="-308.4" width="18.8" height="13.0" rx="4.0" fill="#267cff"/><rect x="178.9" y="43.6" width="18.8" height="75.2" rx="4.0" fill="#267cff"/><rect x="178.9" y="153.5" width="18.8" height="10.0" rx="4.0" fill="#267cff"/><rect x="220.7" y="-170.0" width="18.8" height="146.6" rx="4.0" fill="#265cff"/><rect x="220.7" y="-216.8" width="18.8" height="13.0" rx="4.0" fill="#265cff"/><rect x="220.7" y="43.6" width="18.8" height="51.6" rx="4.0" fill="#265cff"/><rect x="220.7" y="121.6" width="18.8" height="10.0" rx="4.0" fill="#265cff"/><rect x="262.6" y="-161.6" width="18.8" height="138.2" rx="4.0" fill="#263bff"/><rect x="262.6" y="-207.0" width="18.8" height="13.0" rx="4.0" fill="#263bff"/><rect x="262.6" y="43.6" width="18.8" height="49.1" rx="4.0" fill="#263bff"/><rect x="262.6" y="118.2" width="18.8" height="10.0" rx="4.0" fill="#263bff"/><rect x="304.4" y="-120.7" width="18.8" height="97.4" rx="4.0" fill="#3126ff"/><rect x="304.4" y="-159.6" width="18.8" height="13.0" rx="4.0" fill="#3126ff"/><rect x="304.4" y="43.6" width="18.8" height="36.8" rx="4.0" fill="#3126ff"/><rect x="304.4" y="101.7" width="18.8" height="10.0" rx="4.0" fill="#3126ff"/><rect x="346.3" y="-113.0" width="18.8" height="89.6" rx="4.0" fill="#5126ff"/><rect x="346.3" y="-150.6" width="18.8" height="13.0" rx="4.0" fill="#5126ff"/><rect x="346.3" y="43.6" width="18.8" height="34.5" rx="4.0" fill="#5126ff"/><rect x="346.3" y="98.6" width="18.8" height="10.0" rx="4.0" fill="#5126ff"/><rect x="388.1" y="-121.4" width="18.8" height="98.0" rx="4.0" fill="#7226ff"/><rect x="388.1" y="-160.4" width="18.8" height="13.0" rx="4.0" fill="#7226ff"/><rect x="388.1" y="43.6" width="18.8" height="37.0" rx="4.0" fill="#7226ff"/><rect x="388.1" y="102.0" width="18.8" height="10.0" rx="4.0" fill="#7226ff"/><rect x="430.0" y="-156.2" width="18.8" height="132.8" rx="4.0" fill="#9226ff"/><rect x="430.0" y="-200.8" width="18.8" height="13.0" rx="4.0" fill="#9226ff"/><rect x="430.0" y="43.6" width="18.8" height="47.4" rx="4.0" fill="#9226ff"/><rect x="430.0" y="116.1" width="18.8" height="10.0" rx="4.0" fill="#9226ff"/><rect x="471.8" y="-175.8" width="18.8" height="152.5" rx="4.0" fill="#b326ff"/><rect x="471.8" y="-223.6" width="18.8" height="13.0" rx="4.0" fill="#b326ff"/><rect x="471.8" y="43.6" width="18.8" height="53.3" rx="4.0" fill="#b326ff"/><rect x="471.8" y="124.0" width="18.8" height="10.0" rx="4.0" fill="#b326ff"/><rect x="513.7" y="-157.6" width="18.8" height="134.3" rx="4.0" fill="#d326ff"/><rect x="513.7" y="-202.5" width="18.8" height="13.0" rx="4.0" fill="#d326ff"/><rect x="513.7" y="43.6" width="18.8" height="47.9" rx="4.0" fill="#d326ff"/><rect x="513.7" y="116.6" width="18.8" height="10.0" rx="4.0" fill="#d326ff"/><rect x="555.5" y="-144.8" width="18.8" height="121.5" rx="4.0" fill="#f426ff"/><rect x="555.5" y="-187.6" width="18.8" height="13.0" rx="4.0" fill="#f426ff"/><rect x="555.5" y="43.6" width="18.8" height="44.0" rx="4.0" fill="#f426ff"/><rect x="555.5" y="111.5" width="18.8" height="10.0" rx="4.0" fill="#f426ff"/><rect x="597.4" y="-171.1" width="18.8" height="147.7" rx="4.0" fill="#ff26e9"/><rect x="597.4" y="-218.1" width="18.8" height="13.0" rx="4.0" fill="#ff26e9"/><rect x="597.4" y="43.6" width="18.8" height="51.9" rx="4.0" fill="#ff26e9"/><rect x="597.4" y="122.1" width="18.8" height="10.0" rx="4.0" fill="#ff26e9"/><rect x="639.2" y="-121.3" width="18.8" height="98.0" rx="4.0" fill="#ff26c8"/><rect x="639.2" y="-160.3" width="18.8" height="13.0" rx="4.0" fill="#ff26c8"/><rect x="639.2" y="43.6" width="18.8" height="37.0" rx="4.0" fill="#ff26c8"/><rect x="639.2" y="102.0" width="18.8" height="10.0" rx="4.0" fill="#ff26c8"/><rect x="681.0" y="-108.8" width="18.8" height="85.4" rx="4.0" fill="#ff26a8"/><rect x="681.0" y="-145.7" width="18.8" height="13.0" rx="4.0" fill="#ff26a8"/><rect x="681.0" y="43.6" width="18.8" height="33.2" rx="4.0" fill="#ff26a8"/><rect x="681.0" y="96.9" width="18.8" height="10.0" rx="4.0" fill="#ff26a8"/><rect x="722.9" y="-109.5" width="18.8" height="86.2" rx="4.0" fill="#ff2687"/><rect x="722.9" y="-146.6" width="18.8" height="13.0" rx="4.0" fill="#ff2687"/><rect x="722.9" y="43.6" width="18.8" height="33.5" rx="4.0" fill="#ff2687"/><rect x="722.9" y="97.2" width="18.8" height="10.0" rx="4.0" fill="#ff2687"/><rect x="764.7" y="-101.6" width="18.8" height="78.3" rx="4.0" fill="#ff2667"/><rect x="764.7" y="-137.4" width="18.8" height="13.0" rx="4.0" fill="#ff2667"/><rect x="764.7" y="43.6" width="18.8" height="31.1" rx="4.0" fill="#ff2667"/><rect x="764.7" y="94.0" width="18.8" height="10.0" rx="4.0" fill="#ff2667"/><rect x="806.6" y="-94.9" width="18.8" height="71.6" rx="4.0" fill="#ff2646"/><rect x="806.6" y="-129.6" width="18.8" height="13.0" rx="4.0" fill="#ff2646"/><rect x="806.6" y="43.6" width="18.8" height="29.1" rx="4.0" fill="#ff2646"/><rect x="806.6" y="91.3" width="18.8" height="10.0" rx="4.0" fill="#ff2646"/></g></svg>