<svg width="800" height="800" viewBox="0 0 800 800" xmlns="http://www.w3.org/2000/svg"><defs><linearGradient id="rg" x1="0%" y1="0%" x2="100%" y2="0%"><stop offset="0.0%" stop-color="#ff2626"/><stop offset="8.333333333333334%" stop-color="#ff9226"/><stop offset="16.666666666666668%" stop-color="#ffff26"/><stop offset="25.0%" stop-color="#92ff26"/><stop offset="33.333333333333336%" stop-color="#26ff26"/><stop offset="41.666666666666664%" stop-color="#26ff92"/><stop offset="50.0%" stop-color="#26ffff"/><stop offset="58.333333333333336%" stop-color="#2692ff"/><stop offset="66.66666666666667%" stop-color="#2626ff"/><stop offset="75.0%" stop-color="#9226ff"/><stop offset="83.33333333333333%" stop-color="#ff26ff"/><stop offset="91.66666666666667%" stop-color="#ff2692"/><stop offset="100.0%" stop-color="#ff2626"/></linearGradient></defs><g transform="translate(400.00, 400.00) scale(0.57149)"><ellipse cx="0" cy="0" rx="690.4259643554688" ry="110.96131896972656" fill="none" stroke="#000000" stroke-width="19"/><line x1="-9.04" y1="-110.95" x2="-9.04" y2="-142.13" stroke="#000000" stroke-width="23.62342643737793" stroke-linecap="round"/><line x1="18.07" y1="-110.92" x2="18.07" y2="-176.58" stroke="#000000" stroke-width="23.62342643737793" stroke-linecap="round"/><line x1="-36.13" y1="-110.81" x2="-36.13" y2="-148.09" stroke="#000000" stroke-width="23.62342643737793" stroke-linecap="round"/><line x1="45.16" y1="-110.72" x2="45.16" y2="-209.19" stroke="#000000" stroke-width="23.62342643737793" stroke-linecap="round"/><line x1="-63.18" y1="-110.50" x2="-63.18" y2="-188.25" stroke="#000000" stroke-width="23.62342643737793" stroke-linecap="round"/><line x1="72.17" y1="-110.35" x2="72.17" y2="-329.91" stroke="#000000" stroke-width="23.62342643737793" stroke-linecap="round"/><line x1="-90.12" y1="-110.01" x2="-90.12" y2="-202.69" stroke="#000000" stroke-width="23.62342643737793" stroke-linecap="round"/><line x1="99.07" y1="-109.81" x2="99.07" y2="-219.30" stroke="#000000" stroke-width="23.62342643737793" stroke-linecap="round"/><line x1="-116.92" y1="-109.36" x2="-116.92" y2="-139.86" stroke="#000000" stroke-width="23.62342643737793" stroke-linecap="round"/><line x1="125.82" y1="-109.10" x2="125.82" y2="-172.19" stroke="#000000" stroke-width="23.62342643737793" stroke-linecap="round"/><line x1="-143.55" y1="-108.54" x2="-143.55" y2="-130.03" stroke="#000000" stroke-width="23.62342643737793" stroke-linecap="round"/><line x1="152.38" y1="-108.23" x2="152.38" y2="-163.04" stroke="#000000" stroke-width="23.62342643737793" stroke-linecap="round"/><line x1="-169.95" y1="-107.55" x2="-169.95" y2="-124.11" stroke="#000000" stroke-width="23.62342643737793" stroke-linecap="round"/><line x1="178.70" y1="-107.18" x2="178.70" y2="-267.25" stroke="#000000" stroke-width="23.62342643737793" stroke-linecap="round"/><line x1="-196.09" y1="-106.39" x2="-196.09" y2="-128.00" stroke="#000000" stroke-width="23.62342643737793" stroke-linecap="round"/><line x1="204.74" y1="-105.97" x2="204.74" y2="-431.71" stroke="#000000" stroke-width="23.62342643737793" stroke-linecap="round"/><line x1="-221.93" y1="-105.07" x2="-221.93" y2="-127.52" stroke="#000000" stroke-width="23.62342643737793" stroke-linecap="round"/><line x1="230.47" y1="-104.60" x2="230.47" y2="-271.58" stroke="#000000" stroke-width="23.62342643737793" stroke-linecap="round"/><line x1="-247.43" y1="-103.59" x2="-247.43" y2="-136.79" stroke="#000000" stroke-width="23.62342643737793" stroke-linecap="round"/><line x1="255.84" y1="-103.06" x2="255.84" y2="-153.10" stroke="#000000" stroke-width="23.62342643737793" stroke-linecap="round"/><line x1="-272.54" y1="-101.95" x2="-272.54" y2="-135.10" stroke="#000000" stroke-width="23.62342643737793" stroke-linecap="round"/><line x1="280.82" y1="-101.37" x2="280.82" y2="-158.76" stroke="#000000" stroke-width="23.62342643737793" stroke-linecap="round"/><line x1="-297.24" y1="-100.15" x2="-297.24" y2="-115.05" stroke="#000000" stroke-width="23.62342643737793" stroke-linecap="round"/><line x1="305.37" y1="-99.52" x2="305.37" y2="-380.37" stroke="#000000" stroke-width="23.62342643737793" stroke-linecap="round"/><line x1="-321.47" y1="-98.20" x2="-321.47" y2="-110.69" stroke="#000000" stroke-width="23.62342643737793" stroke-linecap="round"/><line x1="329.44" y1="-97.51" x2="329.44" y2="-343.40" stroke="#000000" stroke-width="23.62342643737793" stroke-linecap="round"/><line x1="-345.21" y1="-96.10" x2="-345.21" y2="-114.09" stroke="#000000" stroke-width="23.62342643737793" stroke-linecap="round"/><line x1="353.01" y1="-95.36" x2="353.01" y2="-146.19" stroke="#000000" stroke-width="23.62342643737793" stroke-linecap="round"/><line x1="-368.42" y1="-93.84" x2="-368.42" y2="-115.77" stroke="#000000" stroke-width="23.62342643737793" stroke-linecap="round"/><line x1="376.03" y1="-93.06" x2="376.03" y2="-131.85" stroke="#000000" stroke-width="23.62342643737793" stroke-linecap="round"/><line x1="-391.06" y1="-91.45" x2="-391.06" y2="-114.10" stroke="#000000" stroke-width="23.62342643737793" stroke-linecap="round"/><line x1="398.48" y1="-90.62" x2="398.48" y2="-201.31" stroke="#000000" stroke-width="23.62342643737793" stroke-linecap="round"/><line x1="-413.10" y1="-88.91" x2="-413.10" y2="-172.38" stroke="#000000" stroke-width="23.62342643737793" stroke-linecap="round"/><line x1="420.30" y1="-88.03" x2="420.30" y2="-205.29" stroke="#000000" stroke-width="23.62342643737793" stroke-linecap="round"/><line x1="-434.50" y1="-86.23" x2="-434.50" y2="-215.48" stroke="#000000" stroke-width="23.62342643737793" stroke-linecap="round"/><line x1="441.49" y1="-85.31" x2="441.49" y2="-114.54" stroke="#000000" stroke-width="23.62342643737793" stroke-linecap="round"/><line x1="-455.23" y1="-83.43" x2="-455.23" y2="-155.66" stroke="#000000" stroke-width="23.62342643737793" stroke-linecap="round"/><line x1="461.99" y1="-82.46" x2="461.99" y2="-128.38" stroke="#000000" stroke-width="23.62342643737793" stroke-linecap="round"/><line x1="-475.26" y1="-80.49" x2="-475.26" y2="-105.63" stroke="#000000" stroke-width="23.62342643737793" stroke-linecap="round"/><line x1="481.77" y1="-79.48" x2="481.77" y2="-236.97" stroke="#000000" stroke-width="23.62342643737793" stroke-linecap="round"/><line x1="-494.55" y1="-77.43" x2="-494.55" y2="-100.23" stroke="#000000" stroke-width="23.62342643737793" stroke-linecap="round"/><line x1="500.82" y1="-76.38" x2="500.82" y2="-151.27" stroke="#000000" stroke-width="23.62342643737793" stroke-linecap="round"/><line x1="-513.09" y1="-74.25" x2="-513.09" y2="-91.89" stroke="#000000" stroke-width="23.62342643737793" stroke-linecap="round"/><line x1="519.09" y1="-73.16" x2="519.09" y2="-96.30" stroke="#000000" stroke-width="23.62342643737793" stroke-linecap="round"/><line x1="-530.83" y1="-70.95" x2="-530.83" y2="-85.65" stroke="#000000" stroke-width="23.62342643737793" stroke-linecap="round"/><line x1="536.56" y1="-69.83" x2="536.56" y2="-101.27" stroke="#000000" stroke-width="23.62342643737793" stroke-linecap="round"/><line x1="-547.75" y1="-67.55" x2="-547.75" y2="-91.78" stroke="#000000" stroke-width="23.62342643737793" stroke-linecap="round"/><line x1="553.21" y1="-66.39" x2="553.21" y2="-107.84" stroke="#000000" stroke-width="23.62342643737793" stroke-linecap="round"/><line x1="-563.83" y1="-64.04" x2="-563.83" y2="-106.93" stroke="#000000" stroke-width="23.62342643737793" stroke-linecap="round"/><line x1="569.00" y1="-62.85" x2="569.00" y2="-79.40" stroke="#000000" stroke-width="23.62342643737793" stroke-linecap="round"/><line x1="-579.04" y1="-60.43" x2="-579.04" y2="-199.39" stroke="#000000" stroke-width="23.62342643737793" stroke-linecap="round"/><line x1="583.91" y1="-59.21" x2="583.91" y2="-80.62" stroke="#000000" stroke-width="23.62342643737793" stroke-linecap="round"/><line x1="-593.36" y1="-56.73" x2="-593.36" y2="-339.15" stroke="#000000" stroke-width="23.62342643737793" stroke-linecap="round"/><line x1="597.93" y1="-55.48" x2="597.93" y2="-85.56" stroke="#000000" stroke-width="23.62342643737793" stroke-linecap="round"/><line x1="-606.76" y1="-52.95" x2="-606.76" y2="-303.81" stroke="#000000" stroke-width="23.62342643737793" stroke-linecap="round"/><line x1="611.02" y1="-51.67" x2="611.02" y2="-66.78" stroke="#000000" stroke-width="23.62342643737793" stroke-linecap="round"/><line x1="-619.22" y1="-49.08" x2="-619.22" y2="-143.12" stroke="#000000" stroke-width="23.62342643737793" stroke-linecap="round"/><line x1="623.17" y1="-47.77" x2="623.17" y2="-71.44" stroke="#000000" stroke-width="23.62342643737793" stroke-linecap="round"/><line x1="-630.74" y1="-45.13" x2="-630.74" y2="-101.25" stroke="#000000" stroke-width="23.62342643737793" stroke-linecap="round"/><line x1="634.36" y1="-43.80" x2="634.36" y2="-74.68" stroke="#000000" stroke-width="23.62342643737793" stroke-linecap="round"/><line x1="-641.27" y1="-41.12" x2="-641.27" y2="-94.82" stroke="#000000" stroke-width="23.62342643737793" stroke-linecap="round"/><line x1="644.57" y1="-39.76" x2="644.57" y2="-61.43" stroke="#000000" stroke-width="23.62342643737793" stroke-linecap="round"/><line x1="-650.82" y1="-37.04" x2="-650.82" y2="-83.60" stroke="#000000" stroke-width="23.62342643737793" stroke-linecap="round"/><line x1="653.79" y1="-35.67" x2="653.79" y2="-79.31" stroke="#000000" stroke-width="23.62342643737793" stroke-linecap="round"/><line x1="-659.37" y1="-32.90" x2="-659.37" y2="-73.20" stroke="#000000" stroke-width="23.62342643737793" stroke-linecap="round"/><line x1="661.99" y1="-31.51" x2="661.99" y2="-64.74" stroke="#000000" stroke-width="23.62342643737793" stroke-linecap="round"/><line x1="-666.90" y1="-28.72" x2="-666.90" y2="-69.79" stroke="#000000" stroke-width="23.62342643737793" stroke-linecap="round"/><line x1="669.18" y1="-27.31" x2="669.18" y2="-43.68" stroke="#000000" stroke-width="23.596242904663086" stroke-linecap="round"/><line x1="-673.40" y1="-24.49" x2="-673.40" y2="-59.91" stroke="#000000" stroke-width="23.378253936767578" stroke-linecap="round"/><line x1="675.34" y1="-23.07" x2="675.34" y2="-41.11" stroke="#000000" stroke-width="23.18674087524414" stroke-linecap="round"/><line x1="-678.86" y1="-20.22" x2="-678.86" y2="-73.05" stroke="#000000" stroke-width="22.635305404663086" stroke-linecap="round"/><line x1="680.45" y1="-18.79" x2="680.45" y2="-28.11" stroke="#000000" stroke-width="22.273210525512695" stroke-linecap="round"/><line x1="-683.28" y1="-15.92" x2="-683.28" y2="-79.11" stroke="#000000" stroke-width="21.36785125732422" stroke-linecap="round"/><line x1="684.52" y1="-14.48" x2="684.52" y2="-32.42" stroke="#000000" stroke-width="20.819477081298828" stroke-linecap="round"/><line x1="-686.64" y1="-11.60" x2="-686.64" y2="-72.88" stroke="#000000" stroke-width="19.51137924194336" stroke-linecap="round"/><line x1="687.53" y1="-10.15" x2="687.53" y2="-19.26" stroke="#000000" stroke-width="18.738927841186523" stroke-linecap="round"/><line x1="-688.95" y1="-7.26" x2="-688.95" y2="-103.97" stroke="#000000" stroke-width="16.902099609375" stroke-linecap="round"/><line x1="689.48" y1="-5.81" x2="689.48" y2="-20.61" stroke="#000000" stroke-width="15.796738624572754" stroke-linecap="round"/><line x1="-690.19" y1="-2.90" x2="-690.19" y2="-41.70" stroke="#000000" stroke-width="12.970381736755371" stroke-linecap="round"/><line x1="690.37" y1="-1.45" x2="690.37" y2="-6.01" stroke="#000000" stroke-width="10.936418533325195" stroke-linecap="round"/><line x1="-690.37" y1="1.45" x2="-690.37" y2="14.15" stroke="#000000" stroke-width="10.936418533325195" stroke-linecap="round"/><line x1="690.19" y1="2.90" x2="690.19" y2="13.57" stroke="#000000" stroke-width="12.970381736755371" stroke-linecap="round"/><line x1="-689.48" y1="5.81" x2="-689.48" y2="27.72" stroke="#000000" stroke-width="15.796738624572754" stroke-linecap="round"/><line x1="688.95" y1="7.26" x2="688.95" y2="48.64" stroke="#000000" stroke-width="16.902099609375" stroke-linecap="round"/><line x1="-687.53" y1="10.15" x2="-687.53" y2="27.07" stroke="#000000" stroke-width="18.738927841186523" stroke-linecap="round"/><line x1="686.64" y1="11.60" x2="686.64" y2="81.90" stroke="#000000" stroke-width="19.51137924194336" stroke-linecap="round"/><line x1="-684.52" y1="14.48" x2="-684.52" y2="38.53" stroke="#000000" stroke-width="20.819477081298828" stroke-linecap="round"/><line x1="683.28" y1="15.92" x2="683.28" y2="156.67" stroke="#000000" stroke-width="21.36785125732422" stroke-linecap="round"/><line x1="-680.45" y1="18.79" x2="-680.45" y2="44.94" stroke="#000000" stroke-width="22.273210525512695" stroke-linecap="round"/><line x1="678.86" y1="20.22" x2="678.86" y2="109.27" stroke="#000000" stroke-width="22.635305404663086" stroke-linecap="round"/><line x1="-675.34" y1="23.07" x2="-675.34" y2="65.86" stroke="#000000" stroke-width="23.18674087524414" stroke-linecap="round"/><line x1="673.40" y1="24.49" x2="673.40" y2="156.78" stroke="#000000" stroke-width="23.378253936767578" stroke-linecap="round"/><line x1="-669.18" y1="27.31" x2="-669.18" y2="74.41" stroke="#000000" stroke-width="23.596242904663086" stroke-linecap="round"/><line x1="666.90" y1="28.72" x2="666.90" y2="198.89" stroke="#000000" stroke-width="23.62342643737793" stroke-linecap="round"/><line x1="-661.99" y1="31.51" x2="-661.99" y2="73.00" stroke="#000000" stroke-width="23.62342643737793" stroke-linecap="round"/><line x1="659.37" y1="32.90" x2="659.37" y2="231.82" stroke="#000000" stroke-width="23.62342643737793" stroke-linecap="round"/><line x1="-653.79" y1="35.67" x2="-653.79" y2="89.59" stroke="#000000" stroke-width="23.62342643737793" stroke-linecap="round"/><line x1="650.82" y1="37.04" x2="650.82" y2="149.84" stroke="#000000" stroke-width="23.62342643737793" stroke-linecap="round"/><line x1="-644.57" y1="39.76" x2="-644.57" y2="114.27" stroke="#000000" stroke-width="23.62342643737793" stroke-linecap="round"/><line x1="641.27" y1="41.12" x2="641.27" y2="170.19" stroke="#000000" stroke-width="23.62342643737793" stroke-linecap="round"/><line x1="-634.36" y1="43.80" x2="-634.36" y2="114.26" stroke="#000000" stroke-width="23.62342643737793" stroke-linecap="round"/><line x1="630.74" y1="45.13" x2="630.74" y2="157.61" stroke="#000000" stroke-width="23.62342643737793" stroke-linecap="round"/><line x1="-623.17" y1="47.77" x2="-623.17" y2="108.30" stroke="#000000" stroke-width="23.62342643737793" stroke-linecap="round"/><line x1="619.22" y1="49.08" x2="619.22" y2="124.98" stroke="#000000" stroke-width="23.62342643737793" stroke-linecap="round"/><line x1="-611.02" y1="51.67" x2="-611.02" y2="98.37" stroke="#000000" stroke-width="23.62342643737793" stroke-linecap="round"/><line x1="606.76" y1="52.95" x2="606.76" y2="126.83" stroke="#000000" stroke-width="23.62342643737793" stroke-linecap="round"/><line x1="-597.93" y1="55.48" x2="-597.93" y2="121.23" stroke="#000000" stroke-width="23.62342643737793" stroke-linecap="round"/><line x1="593.36" y1="56.73" x2="593.36" y2="106.12" stroke="#000000" stroke-width="23.62342643737793" stroke-linecap="round"/><line x1="-583.91" y1="59.21" x2="-583.91" y2="227.35" stroke="#000000" stroke-width="23.62342643737793" stroke-linecap="round"/><line x1="579.04" y1="60.43" x2="579.04" y2="106.72" stroke="#000000" stroke-width="23.62342643737793" stroke-linecap="round"/><line x1="-569.00" y1="62.85" x2="-569.00" y2="312.93" stroke="#000000" stroke-width="23.62342643737793" stroke-linecap="round"/><line x1="563.83" y1="64.04" x2="563.83" y2="109.66" stroke="#000000" stroke-width="23.62342643737793" stroke-linecap="round"/><line x1="-553.21" y1="66.39" x2="-553.21" y2="336.16" stroke="#000000" stroke-width="23.62342643737793" stroke-linecap="round"/><line x1="547.75" y1="67.55" x2="547.75" y2="94.41" stroke="#000000" stroke-width="23.62342643737793" stroke-linecap="round"/><line x1="-536.56" y1="69.83" x2="-536.56" y2="254.02" stroke="#000000" stroke-width="23.62342643737793" stroke-linecap="round"/><line x1="530.83" y1="70.95" x2="530.83" y2="130.67" stroke="#000000" stroke-width="23.62342643737793" stroke-linecap="round"/><line x1="-519.09" y1="73.16" x2="-519.09" y2="131.48" stroke="#000000" stroke-width="23.62342643737793" stroke-linecap="round"/><line x1="513.09" y1="74.25" x2="513.09" y2="129.17" stroke="#000000" stroke-width="23.62342643737793" stroke-linecap="round"/><line x1="-500.82" y1="76.38" x2="-500.82" y2="117.58" stroke="#000000" stroke-width="23.62342643737793" stroke-linecap="round"/><line x1="494.55" y1="77.43" x2="494.55" y2="112.25" stroke="#000000" stroke-width="23.62342643737793" stroke-linecap="round"/><line x1="-481.77" y1="79.48" x2="-481.77" y2="122.72" stroke="#000000" stroke-width="23.62342643737793" stroke-linecap="round"/><line x1="475.26" y1="80.49" x2="475.26" y2="110.78" stroke="#000000" stroke-width="23.62342643737793" stroke-linecap="round"/><line x1="-461.99" y1="82.46" x2="-461.99" y2="112.10" stroke="#000000" stroke-width="23.62342643737793" stroke-linecap="round"/><line x1="455.23" y1="83.43" x2="455.23" y2="109.42" stroke="#000000" stroke-width="23.62342643737793" stroke-linecap="round"/><line x1="-441.49" y1="85.31" x2="-441.49" y2="104.35" stroke="#000000" stroke-width="23.62342643737793" stroke-linecap="round"/><line x1="434.50" y1="86.23" x2="434.50" y2="99.89" stroke="#000000" stroke-width="23.62342643737793" stroke-linecap="round"/><line x1="-420.30" y1="88.03" x2="-420.30" y2="107.06" stroke="#000000" stroke-width="23.62342643737793" stroke-linecap="round"/><line x1="413.10" y1="88.91" x2="413.10" y2="97.14" stroke="#000000" stroke-width="23.62342643737793" stroke-linecap="round"/><line x1="-398.48" y1="90.62" x2="-398.48" y2="122.05" stroke="#000000" stroke-width="23.62342643737793" stroke-linecap="round"/><line x1="391.06" y1="91.45" x2="391.06" y2="99.46" stroke="#000000" stroke-width="23.62342643737793" stroke-linecap="round"/><line x1="-376.03" y1="93.06" x2="-376.03" y2="145.85" stroke="#000000" stroke-width="23.62342643737793" stroke-linecap="round"/><line x1="368.42" y1="93.84" x2="368.42" y2="101.85" stroke="#000000" stroke-width="23.62342643737793" stroke-linecap="round"/><line x1="-353.01" y1="95.36" x2="-353.01" y2="150.08" stroke="#000000" stroke-width="23.62342643737793" stroke-linecap="round"/><line x1="345.21" y1="96.10" x2="345.21" y2="169.87" stroke="#000000" stroke-width="23.62342643737793" stroke-linecap="round"/><line x1="-329.44" y1="97.51" x2="-329.44" y2="124.68" stroke="#000000" stroke-width="23.62342643737793" stroke-linecap="round"/><line x1="321.47" y1="98.20" x2="321.47" y2="204.06" stroke="#000000" stroke-width="23.62342643737793" stroke-linecap="round"/><line x1="-305.37" y1="99.52" x2="-305.37" y2="115.22" stroke="#000000" stroke-width="23.62342643737793" stroke-linecap="round"/><line x1="297.24" y1="100.15" x2="297.24" y2="234.01" stroke="#000000" stroke-width="23.62342643737793" stroke-linecap="round"/><line x1="-280.82" y1="101.37" x2="-280.82" y2="122.10" stroke="#000000" stroke-width="23.62342643737793" stroke-linecap="round"/><line x1="272.54" y1="101.95" x2="272.54" y2="213.23" stroke="#000000" stroke-width="23.62342643737793" stroke-linecap="round"/><line x1="-255.84" y1="103.06" x2="-255.84" y2="188.16" stroke="#000000" stroke-width="23.62342643737793" stroke-linecap="round"/><line x1="247.43" y1="103.59" x2="247.43" y2="247.52" stroke="#000000" stroke-width="23.62342643737793" stroke-linecap="round"/><line x1="-230.47" y1="104.60" x2="-230.47" y2="216.94" stroke="#000000" stroke-width="23.62342643737793" stroke-linecap="round"/><line x1="221.93" y1="105.07" x2="221.93" y2="288.33" stroke="#000000" stroke-width="23.62342643737793" stroke-linecap="round"/><line x1="-204.74" y1="105.97" x2="-204.74" y2="212.89" stroke="#000000" stroke-width="23.62342643737793" stroke-linecap="round"/><line x1="196.09" y1="106.39" x2="196.09" y2="225.56" stroke="#000000" stroke-width="23.62342643737793" stroke-linecap="round"/><line x1="-178.70" y1="107.18" x2="-178.70" y2="190.02" stroke="#000000" stroke-width="23.62342643737793" stroke-linecap="round"/><line x1="169.95" y1="107.55" x2="169.95" y2="201.33" stroke="#000000" stroke-width="23.62342643737793" stroke-linecap="round"/><line x1="-152.38" y1="108.23" x2="-152.38" y2="283.12" stroke="#000000" stroke-width="23.62342643737793" stroke-linecap="round"/><line x1="143.55" y1="108.54" x2="143.55" y2="203.81" stroke="#000000" stroke-width="23.62342643737793" stroke-linecap="round"/><line x1="-125.82" y1="109.10" x2="-125.82" y2="275.64" stroke="#000000" stroke-width="23.62342643737793" stroke-linecap="round"/><line x1="116.92" y1="109.36" x2="116.92" y2="202.42" stroke="#000000" stroke-width="23.62342643737793" stroke-linecap="round"/><line x1="-99.07" y1="109.81" x2="-99.07" y2="237.91" stroke="#000000" stroke-width="23.62342643737793" stroke-linecap="round"/><line x1="90.12" y1="110.01" x2="90.12" y2="248.30" stroke="#000000" stroke-width="23.62342643737793" stroke-linecap="round"/><line x1="-72.17" y1="110.35" x2="-72.17" y2="168.13" stroke="#000000" stroke-width="23.62342643737793" stroke-linecap="round"/><line x1="63.18" y1="110.50" x2="63.18" y2="238.46" stroke="#000000" stroke-width="23.62342643737793" stroke-linecap="round"/><line x1="-45.16" y1="110.72" x2="-45.16" y2="151.86" stroke="#000000" stroke-width="23.62342643737793" stroke-linecap="round"/><line x1="36.13" y1="110.81" x2="36.13" y2="192.00" stroke="#000000" stroke-width="23.62342643737793" stroke-linecap="round"/><line x1="-18.07" y1="110.92" x2="-18.07" y2="180.01" stroke="#000000" stroke-width="23.62342643737793" stroke-linecap="round"/><line x1="9.04" y1="110.95" x2="9.04" y2="188.73" stroke="#000000" stroke-width="23.62342643737793" stroke-linecap="round"/><ellipse cx="0" cy="0" rx="690.4259643554688" ry="110.96131896972656" fill="none" stroke="url(#rg)" stroke-width="13"/><line x1="-9.04" y1="-110.95" x2="-9.04" y2="-142.13" stroke="#2695ff" stroke-width="17.62" stroke-linecap="round"/><line x1="18.07" y1="-110.92" x2="18.07" y2="-176.58" stroke="#268dff" stroke-width="17.62" stroke-linecap="round"/><line x1="-36.13" y1="-110.81" x2="-36.13" y2="-148.09" stroke="#269dff" stroke-width="17.62" stroke-linecap="round"/><line x1="45.16" y1="-110.72" x2="45.16" y2="-209.19" stroke="#2685ff" stroke-width="17.62" stroke-linecap="round"/><line x1="-63.18" y1="-110.50" x2="-63.18" y2="-188.25" stroke="#26a5ff" stroke-width="17.62" stroke-linecap="round"/><line x1="72.17" y1="-110.35" x2="72.17" y2="-329.91" stroke="#267cff" stroke-width="17.62" stroke-linecap="round"/><line x1="-90.12" y1="-110.01" x2="-90.12" y2="-202.69" stroke="#26adff" stroke-width="17.62" stroke-linecap="round"/><line x1="99.07" y1="-109.81" x2="99.07" y2="-219.30" stroke="#2674ff" stroke-width="17.62" stroke-linecap="round"/><line x1="-116.92" y1="-109.36" x2="-116.92" y2="-139.86" stroke="#26b5ff" stroke-width="17.62" stroke-linecap="round"/><line x1="125.82" y1="-109.10" x2="125.82" y2="-172.19" stroke="#266cff" stroke-width="17.62" stroke-linecap="round"/><line x1="-143.55" y1="-108.54" x2="-143.55" y2="-130.03" stroke="#26bdff" stroke-width="17.62" stroke-linecap="round"/><line x1="152.38" y1="-108.23" x2="152.38" y2="-163.04" stroke="#2664ff" stroke-width="17.62" stroke-linecap="round"/><line x1="-169.95" y1="-107.55" x2="-169.95" y2="-124.11" stroke="#26c6ff" stroke-width="17.62" stroke-linecap="round"/><line x1="178.70" y1="-107.18" x2="178.70" y2="-267.25" stroke="#265cff" stroke-width="17.62" stroke-linecap="round"/><line x1="-196.09" y1="-106.39" x2="-196.09" y2="-128.00" stroke="#26ceff" stroke-width="17.62" stroke-linecap="round"/><line x1="204.74" y1="-105.97" x2="204.74" y2="-431.71" stroke="#2654ff" stroke-width="17.62" stroke-linecap="round"/><line x1="-221.93" y1="-105.07" x2="-221.93" y2="-127.52" stroke="#26d6ff" stroke-width="17.62" stroke-linecap="round"/><line x1="230.47" y1="-104.60" x2="230.47" y2="-271.58" stroke="#264cff" stroke-width="17.62" stroke-linecap="round"/><line x1="-247.43" y1="-103.59" x2="-247.43" y2="-136.79" stroke="#26deff" stroke-width="17.62" stroke-linecap="round"/><line x1="255.84" y1="-103.06" x2="255.84" y2="-153.10" stroke="#2644ff" stroke-width="17.62" stroke-linecap="round"/><line x1="-272.54" y1="-101.95" x2="-272.54" y2="-135.10" stroke="#26e6ff" stroke-width="17.62" stroke-linecap="round"/><line x1="280.82" y1="-101.37" x2="280.82" y2="-158.76" stroke="#263bff" stroke-width="17.62" stroke-linecap="round"/><line x1="-297.24" y1="-100.15" x2="-297.24" y2="-115.05" stroke="#26eeff" stroke-width="17.62" stroke-linecap="round"/><line x1="305.37" y1="-99.52" x2="305.37" y2="-380.37" stroke="#2633ff" stroke-width="17.62" stroke-linecap="round"/><line x1="-321.47" y1="-98.20" x2="-321.47" y2="-110.69" stroke="#26f6ff" stroke-width="17.62" stroke-linecap="round"/><line x1="329.44" y1="-97.51" x2="329.44" y2="-343.40" stroke="#262bff" stroke-width="17.62" stroke-linecap="round"/><line x1="-345.21" y1="-96.10" x2="-345.21" y2="-114.09" stroke="#26ffff" stroke-width="17.62" stroke-linecap="round"/><line x1="353.01" y1="-95.36" x2="353.01" y2="-146.19" stroke="#2826ff" stroke-width="17.62" stroke-linecap="round"/><line x1="-368.42" y1="-93.84" x2="-368.42" y2="-115.77" stroke="#26fff6" stroke-width="17.62" stroke-linecap="round"/><line x1="376.03" y1="-93.06" x2="376.03" y2="-131.85" stroke="#3126ff" stroke-width="17.62" stroke-linecap="round"/><line x1="-391.06" y1="-91.45" x2="-391.06" y2="-114.10" stroke="#26ffee" stroke-width="17.62" stroke-linecap="round"/><line x1="398.48" y1="-90.62" x2="398.48" y2="-201.31" stroke="#3926ff" stroke-width="17.62" stroke-linecap="round"/><line x1="-413.10" y1="-88.91" x2="-413.10" y2="-172.38" stroke="#26ffe6" stroke-width="17.62" stroke-linecap="round"/><line x1="420.30" y1="-88.03" x2="420.30" y2="-205.29" stroke="#4126ff" stroke-width="17.62" stroke-linecap="round"/><line x1="-434.50" y1="-86.23" x2="-434.50" y2="-215.48" stroke="#26ffde" stroke-width="17.62" stroke-linecap="round"/><line x1="441.49" y1="-85.31" x2="441.49" y2="-114.54" stroke="#4926ff" stroke-width="17.62" stroke-linecap="round"/><line x1="-455.23" y1="-83.43" x2="-455.23" y2="-155.66" stroke="#26ffd6" stroke-width="17.62" stroke-linecap="round"/><line x1="461.99" y1="-82.46" x2="461.99" y2="-128.38" stroke="#5126ff" stroke-width="17.62" stroke-linecap="round"/><line x1="-475.26" y1="-80.49" x2="-475.26" y2="-105.63" stroke="#26ffce" stroke-width="17.62" stroke-linecap="round"/><line x1="481.77" y1="-79.48" x2="481.77" y2="-236.97" stroke="#5926ff" stroke-width="17.62" stroke-linecap="round"/><line x1="-494.55" y1="-77.43" x2="-494.55" y2="-100.23" stroke="#26ffc6" stroke-width="17.62" stroke-linecap="round"/><line x1="500.82" y1="-76.38" x2="500.82" y2="-151.27" stroke="#6126ff" stroke-width="17.62" stroke-linecap="round"/><line x1="-513.09" y1="-74.25" x2="-513.09" y2="-91.89" stroke="#26ffbd" stroke-width="17.62" stroke-linecap="round"/><line x1="519.09" y1="-73.16" x2="519.09" y2="-96.30" stroke="#6926ff" stroke-width="17.62" stroke-linecap="round"/><line x1="-530.83" y1="-70.95" x2="-530.83" y2="-85.65" stroke="#26ffb5" stroke-width="17.62" stroke-linecap="round"/><line x1="536.56" y1="-69.83" x2="536.56" y2="-101.27" stroke="#7226ff" stroke-width="17.62" stroke-linecap="round"/><line x1="-547.75" y1="-67.55" x2="-547.75" y2="-91.78" stroke="#26ffad" stroke-width="17.62" stroke-linecap="round"/><line x1="553.21" y1="-66.39" x2="553.21" y2="-107.84" stroke="#7a26ff" stroke-width="17.62" stroke-linecap="round"/><line x1="-563.83" y1="-64.04" x2="-563.83" y2="-106.93" stroke="#26ffa5" stroke-width="17.62" stroke-linecap="round"/><line x1="569.00" y1="-62.85" x2="569.00" y2="-79.40" stroke="#8226ff" stroke-width="17.62" stroke-linecap="round"/><line x1="-579.04" y1="-60.43" x2="-579.04" y2="-199.39" stroke="#26ff9d" stroke-width="17.62" stroke-linecap="round"/><line x1="583.91" y1="-59.21" x2="583.91" y2="-80.62" stroke="#8a26ff" stroke-width="17.62" stroke-linecap="round"/><line x1="-593.36" y1="-56.73" x2="-593.36" y2="-339.15" stroke="#26ff95" stroke-width="17.62" stroke-linecap="round"/><line x1="597.93" y1="-55.48" x2="597.93" y2="-85.56" stroke="#9226ff" stroke-width="17.62" stroke-linecap="round"/><line x1="-606.76" y1="-52.95" x2="-606.76" y2="-303.81" stroke="#26ff8d" stroke-width="17.62" stroke-linecap="round"/><line x1="611.02" y1="-51.67" x2="611.02" y2="-66.78" stroke="#9a26ff" stroke-width="17.62" stroke-linecap="round"/><line x1="-619.22" y1="-49.08" x2="-619.22" y2="-143.12" stroke="#26ff85" stroke-width="17.62" stroke-linecap="round"/><line x1="623.17" y1="-47.77" x2="623.17" y2="-71.44" stroke="#a226ff" stroke-width="17.62" stroke-linecap="round"/><line x1="-630.74" y1="-45.13" x2="-630.74" y2="-101.25" stroke="#26ff7c" stroke-width="17.62" stroke-linecap="round"/><line x1="634.36" y1="-43.80" x2="634.36" y2="-74.68" stroke="#ab26ff" stroke-width="17.62" stroke-linecap="round"/><line x1="-641.27" y1="-41.12" x2="-641.27" y2="-94.82" stroke="#26ff74" stroke-width="17.62" stroke-linecap="round"/><line x1="644.57" y1="-39.76" x2="644.57" y2="-61.43" stroke="#b326ff" stroke-width="17.62" stroke-linecap="round"/><line x1="-650.82" y1="-37.04" x2="-650.82" y2="-83.60" stroke="#26ff6c" stroke-width="17.62" stroke-linecap="round"/><line x1="653.79" y1="-35.67" x2="653.79" y2="-79.31" stroke="#bb26ff" stroke-width="17.62" stroke-linecap="round"/><line x1="-659.37" y1="-32.90" x2="-659.37" y2="-73.20" stroke="#26ff64" stroke-width="17.62" stroke-linecap="round"/><line x1="661.99" y1="-31.51" x2="661.99" y2="-64.74" stroke="#c326ff" stroke-width="17.62" stroke-linecap="round"/><line x1="-666.90" y1="-28.72" x2="-666.90" y2="-69.79" stroke="#26ff5c" stroke-width="17.62" stroke-linecap="round"/><line x1="669.18" y1="-27.31" x2="669.18" y2="-43.68" stroke="#cb26ff" stroke-width="17.60" stroke-linecap="round"/><line x1="-673.40" y1="-24.49" x2="-673.40" y2="-59.91" stroke="#26ff54" stroke-width="17.38" stroke-linecap="round"/><line x1="675.34" y1="-23.07" x2="675.34" y2="-41.11" stroke="#d326ff" stroke-width="17.19" stroke-linecap="round"/><line x1="-678.86" y1="-20.22" x2="-678.86" y2="-73.05" stroke="#26ff4c" stroke-width="16.64" stroke-linecap="round"/><line x1="680.45" y1="-18.79" x2="680.45" y2="-28.11" stroke="#db26ff" stroke-width="16.27" stroke-linecap="round"/><line x1="-683.28" y1="-15.92" x2="-683.28" y2="-79.11" stroke="#26ff44" stroke-width="15.37" stroke-linecap="round"/><line x1="684.52" y1="-14.48" x2="684.52" y2="-32.42" stroke="#e326ff" stroke-width="14.82" stroke-linecap="round"/><line x1="-686.64" y1="-11.60" x2="-686.64" y2="-72.88" stroke="#26ff3b" stroke-width="13.51" stroke-linecap="round"/><line x1="687.53" y1="-10.15" x2="687.53" y2="-19.26" stroke="#ec26ff" stroke-width="12.74" stroke-linecap="round"/><line x1="-688.95" y1="-7.26" x2="-688.95" y2="-103.97" stroke="#26ff33" stroke-width="10.90" stroke-linecap="round"/><line x1="689.48" y1="-5.81" x2="689.48" y2="-20.61" stroke="#f426ff" stroke-width="9.80" stroke-linecap="round"/><line x1="-690.19" y1="-2.90" x2="-690.19" y2="-41.70" stroke="#26ff2b" stroke-width="6.97" stroke-linecap="round"/><line x1="690.37" y1="-1.45" x2="690.37" y2="-6.01" stroke="#fc26ff" stroke-width="4.94" stroke-linecap="round"/><line x1="-690.37" y1="1.45" x2="-690.37" y2="14.15" stroke="#28ff26" stroke-width="4.94" stroke-linecap="round"/><line x1="690.19" y1="2.90" x2="690.19" y2="13.57" stroke="#ff26f9" stroke-width="6.97" stroke-linecap="round"/><line x1="-689.48" y1="5.81" x2="-689.48" y2="27.72" stroke="#31ff26" stroke-width="9.80" stroke-linecap="round"/><line x1="688.95" y1="7.26" x2="688.95" y2="48.64" stroke="#ff26f1" stroke-width="10.90" stroke-linecap="round"/><line x1="-687.53" y1="10.15" x2="-687.53" y2="27.07" stroke="#39ff26" stroke-width="12.74" stroke-linecap="round"/><line x1="686.64" y1="11.60" x2="686.64" y2="81.90" stroke="#ff26e9" stroke-width="13.51" stroke-linecap="round"/><line x1="-684.52" y1="14.48" x2="-684.52" y2="38.53" stroke="#41ff26" stroke-width="14.82" stroke-linecap="round"/><line x1="683.28" y1="15.92" x2="683.28" y2="156.67" stroke="#ff26e1" stroke-width="15.37" stroke-linecap="round"/><line x1="-680.45" y1="18.79" x2="-680.45" y2="44.94" stroke="#49ff26" stroke-width="16.27" stroke-linecap="round"/><line x1="678.86" y1="20.22" x2="678.86" y2="109.27" stroke="#ff26d9" stroke-width="16.64" stroke-linecap="round"/><line x1="-675.34" y1="23.07" x2="-675.34" y2="65.86" stroke="#51ff26" stroke-width="17.19" stroke-linecap="round"/><line x1="673.40" y1="24.49" x2="673.40" y2="156.78" stroke="#ff26d0" stroke-width="17.38" stroke-linecap="round"/><line x1="-669.18" y1="27.31" x2="-669.18" y2="74.41" stroke="#59ff26" stroke-width="17.60" stroke-linecap="round"/><line x1="666.90" y1="28.72" x2="666.90" y2="198.89" stroke="#ff26c8" stroke-width="17.62" stroke-linecap="round"/><line x1="-661.99" y1="31.51" x2="-661.99" y2="73.00" stroke="#61ff26" stroke-width="17.62" stroke-linecap="round"/><line x1="659.37" y1="32.90" x2="659.37" y2="231.82" stroke="#ff26c0" stroke-width="17.62" stroke-linecap="round"/><line x1="-653.79" y1="35.67" x2="-653.79" y2="89.59" stroke="#69ff26" stroke-width="17.62" stroke-linecap="round"/><line x1="650.82" y1="37.04" x2="650.82" y2="149.84" stroke="#ff26b8" stroke-width="17.62" stroke-linecap="round"/><line x1="-644.57" y1="39.76" x2="-644.57" y2="114.27" stroke="#72ff26" stroke-width="17.62" stroke-linecap="round"/><line x1="641.27" y1="41.12" x2="641.27" y2="170.19" stroke="#ff26b0" stroke-width="17.62" stroke-linecap="round"/><line x1="-634.36" y1="43.80" x2="-634.36" y2="114.26" stroke="#7aff26" stroke-width="17.62" stroke-linecap="round"/><line x1="630.74" y1="45.13" x2="630.74" y2="157.61" stroke="#ff26a8" stroke-width="17.62" stroke-linecap="round"/><line x1="-623.17" y1="47.77" x2="-623.17" y2="108.30" stroke="#82ff26" stroke-width="17.62" stroke-linecap="round"/><line x1="619.22" y1="49.08" x2="619.22" y2="124.98" stroke="#ff26a0" stroke-width="17.62" stroke-linecap="round"/><line x1="-611.02" y1="51.67" x2="-611.02" y2="98.37" stroke="#8aff26" stroke-width="17.62" stroke-linecap="round"/><line x1="606.76" y1="52.95" x2="606.76" y2="126.83" stroke="#ff2698" stroke-width="17.62" stroke-linecap="round"/><line x1="-597.93" y1="55.48" x2="-597.93" y2="121.23" stroke="#92ff26" stroke-width="17.62" stroke-linecap="round"/><line x1="593.36" y1="56.73" x2="593.36" y2="106.12" stroke="#ff268f" stroke-width="17.62" stroke-linecap="round"/><line x1="-583.91" y1="59.21" x2="-583.91" y2="227.35" stroke="#9aff26" stroke-width="17.62" stroke-linecap="round"/><line x1="579.04" y1="60.43" x2="579.04" y2="106.72" stroke="#ff2687" stroke-width="17.62" stroke-linecap="round"/><line x1="-569.00" y1="62.85" x2="-569.00" y2="312.93" stroke="#a2ff26" stroke-width="17.62" stroke-linecap="round"/><line x1="563.83" y1="64.04" x2="563.83" y2="109.66" stroke="#ff267f" stroke-width="17.62" stroke-linecap="round"/><line x1="-553.21" y1="66.39" x2="-553.21" y2="336.16" stroke="#abff26" stroke-width="17.62" stroke-linecap="round"/><line x1="547.75" y1="67.55" x2="547.75" y2="94.41" stroke="#ff2677" stroke-width="17.62" stroke-linecap="round"/><line x1="-536.56" y1="69.83" x2="-536.56" y2="254.02" stroke="#b3ff26" stroke-width="17.62" stroke-linecap="round"/><line x1="530.83" y1="70.95" x2="530.83" y2="130.67" stroke="#ff266f" stroke-width="17.62" stroke-linecap="round"/><line x1="-519.09" y1="73.16" x2="-519.09" y2="131.48" stroke="#bbff26" stroke-width="17.62" stroke-linecap="round"/><line x1="513.09" y1="74.25" x2="513.09" y2="129.17" stroke="#ff2667" stroke-width="17.62" stroke-linecap="round"/><line x1="-500.82" y1="76.38" x2="-500.82" y2="117.58" stroke="#c3ff26" stroke-width="17.62" stroke-linecap="round"/><line x1="494.55" y1="77.43" x2="494.55" y2="112.25" stroke="#ff265f" stroke-width="17.62" stroke-linecap="round"/><line x1="-481.77" y1="79.48" x2="-481.77" y2="122.72" stroke="#cbff26" stroke-width="17.62" stroke-linecap="round"/><line x1="475.26" y1="80.49" x2="475.26" y2="110.78" stroke="#ff2657" stroke-width="17.62" stroke-linecap="round"/><line x1="-461.99" y1="82.46" x2="-461.99" y2="112.10" stroke="#d3ff26" stroke-width="17.62" stroke-linecap="round"/><line x1="455.23" y1="83.43" x2="455.23" y2="109.42" stroke="#ff264e" stroke-width="17.62" stroke-linecap="round"/><line x1="-441.49" y1="85.31" x2="-441.49" y2="104.35" stroke="#dbff26" stroke-width="17.62" stroke-linecap="round"/><line x1="434.50" y1="86.23" x2="434.50" y2="99.89" stroke="#ff2646" stroke-width="17.62" stroke-linecap="round"/><line x1="-420.30" y1="88.03" x2="-420.30" y2="107.06" stroke="#e3ff26" stroke-width="17.62" stroke-linecap="round"/><line x1="413.10" y1="88.91" x2="413.10" y2="97.14" stroke="#ff263e" stroke-width="17.62" stroke-linecap="round"/><line x1="-398.48" y1="90.62" x2="-398.48" y2="122.05" stroke="#ecff26" stroke-width="17.62" stroke-linecap="round"/><line x1="391.06" y1="91.45" x2="391.06" y2="99.46" stroke="#ff2636" stroke-width="17.62" stroke-linecap="round"/><line x1="-376.03" y1="93.06" x2="-376.03" y2="145.85" stroke="#f4ff26" stroke-width="17.62" stroke-linecap="round"/><line x1="368.42" y1="93.84" x2="368.42" y2="101.85" stroke="#ff262e" stroke-width="17.62" stroke-linecap="round"/><line x1="-353.01" y1="95.36" x2="-353.01" y2="150.08" stroke="#fcff26" stroke-width="17.62" stroke-linecap="round"/><line x1="345.21" y1="96.10" x2="345.21" y2="169.87" stroke="#ff2626" stroke-width="17.62" stroke-linecap="round"/><line x1="-329.44" y1="97.51" x2="-329.44" y2="124.68" stroke="#fff926" stroke-width="17.62" stroke-linecap="round"/><line x1="321.47" y1="98.20" x2="321.47" y2="204.06" stroke="#ff2e26" stroke-width="17.62" stroke-linecap="round"/><line x1="-305.37" y1="99.52" x2="-305.37" y2="115.22" stroke="#fff126" stroke-width="17.62" stroke-linecap="round"/><line x1="297.24" y1="100.15" x2="297.24" y2="234.01" stroke="#ff3626" stroke-width="17.62" stroke-linecap="round"/><line x1="-280.82" y1="101.37" x2="-280.82" y2="122.10" stroke="#ffe926" stroke-width="17.62" stroke-linecap="round"/><line x1="272.54" y1="101.95" x2="272.54" y2="213.23" stroke="#ff3e26" stroke-width="17.62" stroke-linecap="round"/><line x1="-255.84" y1="103.06" x2="-255.84" y2="188.16" stroke="#ffe126" stroke-width="17.62" stroke-linecap="round"/><line x1="247.43" y1="103.59" x2="247.43" y2="247.52" stroke="#ff4626" stroke-width="17.62" stroke-linecap="round"/><line x1="-230.47" y1="104.60" x2="-230.47" y2="216.94" stroke="#ffd926" stroke-width="17.62" stroke-linecap="round"/><line x1="221.93" y1="105.07" x2="221.93" y2="288.33" stroke="#ff4e26" stroke-width="17.62" stroke-linecap="round"/><line x1="-204.74" y1="105.97" x2="-204.74" y2="212.89" stroke="#ffd026" stroke-width="17.62" stroke-linecap="round"/><line x1="196.09" y1="106.39" x2="196.09" y2="225.56" stroke="#ff5726" stroke-width="17.62" stroke-linecap="round"/><line x1="-178.70" y1="107.18" x2="-178.70" y2="190.02" stroke="#ffc826" stroke-width="17.62" stroke-linecap="round"/><line x1="169.95" y1="107.55" x2="169.95" y2="201.33" stroke="#ff5f26" stroke-width="17.62" stroke-linecap="round"/><line x1="-152.38" y1="108.23" x2="-152.38" y2="283.12" stroke="#ffc026" stroke-width="17.62" stroke-linecap="round"/><line x1="143.55" y1="108.54" x2="143.55" y2="203.81" stroke="#ff6726" stroke-width="17.62" stroke-linecap="round"/><line x1="-125.82" y1="109.10" x2="-125.82" y2="275.64" stroke="#ffb826" stroke-width="17.62" stroke-linecap="round"/><line x1="116.92" y1="109.36" x2="116.92" y2="202.42" stroke="#ff6f26" stroke-width="17.62" stroke-linecap="round"/><line x1="-99.07" y1="109.81" x2="-99.07" y2="237.91" stroke="#ffb026" stroke-width="17.62" stroke-linecap="round"/><line x1="90.12" y1="110.01" x2="90.12" y2="248.30" stroke="#ff7726" stroke-width="17.62" stroke-linecap="round"/><line x1="-72.17" y1="110.35" x2="-72.17" y2="168.13" stroke="#ffa826" stroke-width="17.62" stroke-linecap="round"/><line x1="63.18" y1="110.50" x2="63.18" y2="238.46" stroke="#ff7f26" stroke-width="17.62" stroke-linecap="round"/><line x1="-45.16" y1="110.72" x2="-45.16" y2="151.86" stroke="#ffa026" stroke-width="17.62" stroke-linecap="round"/><line x1="36.13" y1="110.81" x2="36.13" y2="192.00" stroke="#ff8726" stroke-width="17.62" stroke-linecap="round"/><line x1="-18.07" y1="110.92" x2="-18.07" y2="180.01" stroke="#ff9826" stroke-width="17.62" stroke-linecap="round"/><line x1="9.04" y1="110.95" x2="9.04" y2="188.73" stroke="#ff8f26" stroke-width="17.62" stroke-linecap="round"/></g></svg>