<svg width="800" height="800" viewBox="0 0 800 800" xmlns="http://www.w3.org/2000/svg"><g transform="translate(401.79, 399.42) scale(1.09459)"><path d="M -146.27,0 a 146.27,146.27 0 1,0 292.53,0 a 146.27,146.27 0 1,0 -292.53,0 M 149.27,-0.00 105.55,105.55 0.00,149.27 -105.55,105.55 -149.27,0.00 -105.55,-105.55 -0.00,-149.27 105.55,-105.55 Z" fill="#000000" stroke="#000000" stroke-width="6" fill-rule="evenodd" stroke-linejoin="round"/><line x1="164.84" y1="-46.49" x2="316.62" y2="-89.30" stroke="#000000" stroke-width="11.3804931640625" stroke-linecap="round"/><line x1="166.53" y1="-39.98" x2="345.68" y2="-82.99" stroke="#000000" stroke-width="11.3804931640625" stroke-linecap="round"/><line x1="167.98" y1="-33.41" x2="348.03" y2="-69.23" stroke="#000000" stroke-width="11.3804931640625" stroke-linecap="round"/><line x1="169.16" y1="-26.79" x2="334.92" y2="-53.05" stroke="#000000" stroke-width="11.3804931640625" stroke-linecap="round"/><line x1="170.08" y1="-20.13" x2="292.15" y2="-34.58" stroke="#000000" stroke-width="11.3804931640625" stroke-linecap="round"/><line x1="170.74" y1="-13.44" x2="253.23" y2="-19.93" stroke="#000000" stroke-width="11.3804931640625" stroke-linecap="round"/><line x1="171.13" y1="-6.72" x2="263.86" y2="-10.37" stroke="#000000" stroke-width="11.3804931640625" stroke-linecap="round"/><line x1="171.27" y1="0.00" x2="259.46" y2="0.00" stroke="#000000" stroke-width="11.3804931640625" stroke-linecap="round"/><line x1="171.13" y1="6.72" x2="250.96" y2="9.86" stroke="#000000" stroke-width="11.3804931640625" stroke-linecap="round"/><line x1="170.74" y1="13.44" x2="296.56" y2="23.34" stroke="#000000" stroke-width="11.3804931640625" stroke-linecap="round"/><line x1="170.08" y1="20.13" x2="305.78" y2="36.19" stroke="#000000" stroke-width="11.3804931640625" stroke-linecap="round"/><line x1="169.16" y1="26.79" x2="261.47" y2="41.41" stroke="#000000" stroke-width="11.3804931640625" stroke-linecap="round"/><line x1="167.98" y1="33.41" x2="292.83" y2="58.25" stroke="#000000" stroke-width="11.3804931640625" stroke-linecap="round"/><line x1="166.53" y1="39.98" x2="358.09" y2="85.97" stroke="#000000" stroke-width="11.3804931640625" stroke-linecap="round"/><line x1="164.84" y1="46.49" x2="358.11" y2="101.00" stroke="#000000" stroke-width="11.3804931640625" stroke-linecap="round"/><line x1="149.43" y1="83.68" x2="228.27" y2="127.84" stroke="#000000" stroke-width="11.3804931640625" stroke-linecap="round"/><line x1="146.03" y1="89.49" x2="211.75" y2="129.76" stroke="#000000" stroke-width="11.3804931640625" stroke-linecap="round"/><line x1="142.40" y1="95.15" x2="206.09" y2="137.70" stroke="#000000" stroke-width="11.3804931640625" stroke-linecap="round"/><line x1="138.56" y1="100.67" x2="176.50" y2="128.24" stroke="#000000" stroke-width="11.3804931640625" stroke-linecap="round"/><line x1="134.50" y1="106.03" x2="162.29" y2="127.94" stroke="#000000" stroke-width="11.3804931640625" stroke-linecap="round"/><line x1="130.23" y1="111.23" x2="162.60" y2="138.88" stroke="#000000" stroke-width="11.3804931640625" stroke-linecap="round"/><line x1="125.76" y1="116.26" x2="159.01" y2="146.98" stroke="#000000" stroke-width="11.3804931640625" stroke-linecap="round"/><line x1="121.10" y1="121.10" x2="141.51" y2="141.51" stroke="#000000" stroke-width="11.3804931640625" stroke-linecap="round"/><line x1="116.26" y1="125.76" x2="137.70" y2="148.96" stroke="#000000" stroke-width="11.3804931640625" stroke-linecap="round"/><line x1="111.23" y1="130.23" x2="145.99" y2="170.93" stroke="#000000" stroke-width="11.3804931640625" stroke-linecap="round"/><line x1="106.03" y1="134.50" x2="146.65" y2="186.02" stroke="#000000" stroke-width="11.3804931640625" stroke-linecap="round"/><line x1="100.67" y1="138.56" x2="146.83" y2="202.09" stroke="#000000" stroke-width="11.3804931640625" stroke-linecap="round"/><line x1="95.15" y1="142.40" x2="163.15" y2="244.18" stroke="#000000" stroke-width="11.3804931640625" stroke-linecap="round"/><line x1="89.49" y1="146.03" x2="168.17" y2="274.42" stroke="#000000" stroke-width="11.3804931640625" stroke-linecap="round"/><line x1="83.68" y1="149.43" x2="133.91" y2="239.12" stroke="#000000" stroke-width="11.3804931640625" stroke-linecap="round"/><line x1="46.49" y1="164.84" x2="57.34" y2="203.31" stroke="#000000" stroke-width="11.3804931640625" stroke-linecap="round"/><line x1="39.98" y1="166.53" x2="48.63" y2="202.54" stroke="#000000" stroke-width="11.3804931640625" stroke-linecap="round"/><line x1="33.41" y1="167.98" x2="42.30" y2="212.68" stroke="#000000" stroke-width="11.3804931640625" stroke-linecap="round"/><line x1="26.79" y1="169.16" x2="36.50" y2="230.48" stroke="#000000" stroke-width="11.3804931640625" stroke-linecap="round"/><line x1="20.13" y1="170.08" x2="27.41" y2="231.63" stroke="#000000" stroke-width="11.3804931640625" stroke-linecap="round"/><line x1="13.44" y1="170.74" x2="17.38" y2="220.80" stroke="#000000" stroke-width="11.3804931640625" stroke-linecap="round"/><line x1="6.72" y1="171.13" x2="8.38" y2="213.22" stroke="#000000" stroke-width="11.3804931640625" stroke-linecap="round"/><line x1="0.00" y1="171.27" x2="0.00" y2="199.31" stroke="#000000" stroke-width="11.3804931640625" stroke-linecap="round"/><line x1="-6.72" y1="171.13" x2="-8.27" y2="210.47" stroke="#000000" stroke-width="11.3804931640625" stroke-linecap="round"/><line x1="-13.44" y1="170.74" x2="-17.25" y2="219.23" stroke="#000000" stroke-width="11.3804931640625" stroke-linecap="round"/><line x1="-20.13" y1="170.08" x2="-29.48" y2="249.05" stroke="#000000" stroke-width="11.3804931640625" stroke-linecap="round"/><line x1="-26.79" y1="169.16" x2="-43.62" y2="275.39" stroke="#000000" stroke-width="11.3804931640625" stroke-linecap="round"/><line x1="-33.41" y1="167.98" x2="-47.40" y2="238.31" stroke="#000000" stroke-width="11.3804931640625" stroke-linecap="round"/><line x1="-39.98" y1="166.53" x2="-49.36" y2="205.58" stroke="#000000" stroke-width="11.3804931640625" stroke-linecap="round"/><line x1="-46.49" y1="164.84" x2="-61.96" y2="219.70" stroke="#000000" stroke-width="11.3804931640625" stroke-linecap="round"/><line x1="-83.68" y1="149.43" x2="-111.93" y2="199.86" stroke="#000000" stroke-width="11.3804931640625" stroke-linecap="round"/><line x1="-89.49" y1="146.03" x2="-120.84" y2="197.19" stroke="#000000" stroke-width="11.3804931640625" stroke-linecap="round"/><line x1="-95.15" y1="142.40" x2="-124.60" y2="186.48" stroke="#000000" stroke-width="11.3804931640625" stroke-linecap="round"/><line x1="-100.67" y1="138.56" x2="-136.00" y2="187.19" stroke="#000000" stroke-width="11.3804931640625" stroke-linecap="round"/><line x1="-106.03" y1="134.50" x2="-154.18" y2="195.58" stroke="#000000" stroke-width="11.3804931640625" stroke-linecap="round"/><line x1="-111.23" y1="130.23" x2="-177.78" y2="208.15" stroke="#000000" stroke-width="11.3804931640625" stroke-linecap="round"/><line x1="-116.26" y1="125.76" x2="-175.77" y2="190.14" stroke="#000000" stroke-width="11.3804931640625" stroke-linecap="round"/><line x1="-121.10" y1="121.10" x2="-161.77" y2="161.77" stroke="#000000" stroke-width="11.3804931640625" stroke-linecap="round"/><line x1="-125.76" y1="116.26" x2="-167.11" y2="154.48" stroke="#000000" stroke-width="11.3804931640625" stroke-linecap="round"/><line x1="-130.23" y1="111.23" x2="-182.44" y2="155.82" stroke="#000000" stroke-width="11.3804931640625" stroke-linecap="round"/><line x1="-134.50" y1="106.03" x2="-235.69" y2="185.80" stroke="#000000" stroke-width="11.3804931640625" stroke-linecap="round"/><line x1="-138.56" y1="100.67" x2="-264.35" y2="192.06" stroke="#000000" stroke-width="11.3804931640625" stroke-linecap="round"/><line x1="-142.40" y1="95.15" x2="-289.04" y2="193.13" stroke="#000000" stroke-width="11.3804931640625" stroke-linecap="round"/><line x1="-146.03" y1="89.49" x2="-274.50" y2="168.21" stroke="#000000" stroke-width="11.3804931640625" stroke-linecap="round"/><line x1="-149.43" y1="83.68" x2="-243.54" y2="136.39" stroke="#000000" stroke-width="11.3804931640625" stroke-linecap="round"/><line x1="-164.84" y1="46.49" x2="-235.02" y2="66.28" stroke="#000000" stroke-width="11.3804931640625" stroke-linecap="round"/><line x1="-166.53" y1="39.98" x2="-237.70" y2="57.07" stroke="#000000" stroke-width="11.3804931640625" stroke-linecap="round"/><line x1="-167.98" y1="33.41" x2="-309.37" y2="61.54" stroke="#000000" stroke-width="11.3804931640625" stroke-linecap="round"/><line x1="-169.16" y1="26.79" x2="-353.21" y2="55.94" stroke="#000000" stroke-width="11.3804931640625" stroke-linecap="round"/><line x1="-170.08" y1="20.13" x2="-267.83" y2="31.70" stroke="#000000" stroke-width="11.3804931640625" stroke-linecap="round"/><line x1="-170.74" y1="13.44" x2="-231.79" y2="18.24" stroke="#000000" stroke-width="11.3804931640625" stroke-linecap="round"/><line x1="-171.13" y1="6.72" x2="-248.55" y2="9.77" stroke="#000000" stroke-width="11.3804931640625" stroke-linecap="round"/><line x1="-171.27" y1="0.00" x2="-279.81" y2="0.00" stroke="#000000" stroke-width="11.3804931640625" stroke-linecap="round"/><line x1="-171.13" y1="-6.72" x2="-336.75" y2="-13.23" stroke="#000000" stroke-width="11.3804931640625" stroke-linecap="round"/><line x1="-170.74" y1="-13.44" x2="-295.61" y2="-23.27" stroke="#000000" stroke-width="11.3804931640625" stroke-linecap="round"/><line x1="-170.08" y1="-20.13" x2="-263.54" y2="-31.19" stroke="#000000" stroke-width="11.3804931640625" stroke-linecap="round"/><line x1="-169.16" y1="-26.79" x2="-251.06" y2="-39.76" stroke="#000000" stroke-width="11.3804931640625" stroke-linecap="round"/><line x1="-167.98" y1="-33.41" x2="-361.38" y2="-71.88" stroke="#000000" stroke-width="11.3804931640625" stroke-linecap="round"/><line x1="-166.53" y1="-39.98" x2="-293.34" y2="-70.42" stroke="#000000" stroke-width="11.3804931640625" stroke-linecap="round"/><line x1="-164.84" y1="-46.49" x2="-247.25" y2="-69.73" stroke="#000000" stroke-width="11.3804931640625" stroke-linecap="round"/><line x1="-149.43" y1="-83.68" x2="-237.12" y2="-132.79" stroke="#000000" stroke-width="11.3804931640625" stroke-linecap="round"/><line x1="-146.03" y1="-89.49" x2="-271.49" y2="-166.37" stroke="#000000" stroke-width="11.3804931640625" stroke-linecap="round"/><line x1="-142.40" y1="-95.15" x2="-199.83" y2="-133.53" stroke="#000000" stroke-width="11.3804931640625" stroke-linecap="round"/><line x1="-138.56" y1="-100.67" x2="-231.34" y2="-168.08" stroke="#000000" stroke-width="11.3804931640625" stroke-linecap="round"/><line x1="-134.50" y1="-106.03" x2="-322.55" y2="-254.28" stroke="#000000" stroke-width="11.3804931640625" stroke-linecap="round"/><line x1="-130.23" y1="-111.23" x2="-269.09" y2="-229.83" stroke="#000000" stroke-width="11.3804931640625" stroke-linecap="round"/><line x1="-125.76" y1="-116.26" x2="-214.14" y2="-197.95" stroke="#000000" stroke-width="11.3804931640625" stroke-linecap="round"/><line x1="-121.10" y1="-121.10" x2="-223.25" y2="-223.25" stroke="#000000" stroke-width="11.3804931640625" stroke-linecap="round"/><line x1="-116.26" y1="-125.76" x2="-206.47" y2="-223.36" stroke="#000000" stroke-width="11.3804931640625" stroke-linecap="round"/><line x1="-111.23" y1="-130.23" x2="-163.37" y2="-191.28" stroke="#000000" stroke-width="11.3804931640625" stroke-linecap="round"/><line x1="-106.03" y1="-134.50" x2="-147.74" y2="-187.40" stroke="#000000" stroke-width="11.3804931640625" stroke-linecap="round"/><line x1="-100.67" y1="-138.56" x2="-133.46" y2="-183.69" stroke="#000000" stroke-width="11.3804931640625" stroke-linecap="round"/><line x1="-95.15" y1="-142.40" x2="-129.51" y2="-193.83" stroke="#000000" stroke-width="11.3804931640625" stroke-linecap="round"/><line x1="-89.49" y1="-146.03" x2="-127.11" y2="-207.43" stroke="#000000" stroke-width="11.3804931640625" stroke-linecap="round"/><line x1="-83.68" y1="-149.43" x2="-113.52" y2="-202.70" stroke="#000000" stroke-width="11.3804931640625" stroke-linecap="round"/><line x1="-46.49" y1="-164.84" x2="-65.29" y2="-231.49" stroke="#000000" stroke-width="11.3804931640625" stroke-linecap="round"/><line x1="-39.98" y1="-166.53" x2="-48.25" y2="-200.98" stroke="#000000" stroke-width="11.3804931640625" stroke-linecap="round"/><line x1="-33.41" y1="-167.98" x2="-43.83" y2="-220.36" stroke="#000000" stroke-width="11.3804931640625" stroke-linecap="round"/><line x1="-26.79" y1="-169.16" x2="-37.54" y2="-237.04" stroke="#000000" stroke-width="11.3804931640625" stroke-linecap="round"/><line x1="-20.13" y1="-170.08" x2="-27.97" y2="-236.33" stroke="#000000" stroke-width="11.3804931640625" stroke-linecap="round"/><line x1="-13.44" y1="-170.74" x2="-17.77" y2="-225.74" stroke="#000000" stroke-width="11.3804931640625" stroke-linecap="round"/><line x1="-6.72" y1="-171.13" x2="-9.08" y2="-231.23" stroke="#000000" stroke-width="11.3804931640625" stroke-linecap="round"/><line x1="-0.00" y1="-171.27" x2="-0.00" y2="-224.51" stroke="#000000" stroke-width="11.3804931640625" stroke-linecap="round"/><line x1="6.72" y1="-171.13" x2="10.78" y2="-274.32" stroke="#000000" stroke-width="11.3804931640625" stroke-linecap="round"/><line x1="13.44" y1="-170.74" x2="20.30" y2="-257.98" stroke="#000000" stroke-width="11.3804931640625" stroke-linecap="round"/><line x1="20.13" y1="-170.08" x2="28.71" y2="-242.59" stroke="#000000" stroke-width="11.3804931640625" stroke-linecap="round"/><line x1="26.79" y1="-169.16" x2="41.22" y2="-260.23" stroke="#000000" stroke-width="11.3804931640625" stroke-linecap="round"/><line x1="33.41" y1="-167.98" x2="49.49" y2="-248.80" stroke="#000000" stroke-width="11.3804931640625" stroke-linecap="round"/><line x1="39.98" y1="-166.53" x2="61.48" y2="-256.10" stroke="#000000" stroke-width="11.3804931640625" stroke-linecap="round"/><line x1="46.49" y1="-164.84" x2="75.46" y2="-267.55" stroke="#000000" stroke-width="11.3804931640625" stroke-linecap="round"/><line x1="83.68" y1="-149.43" x2="129.05" y2="-230.44" stroke="#000000" stroke-width="11.3804931640625" stroke-linecap="round"/><line x1="89.49" y1="-146.03" x2="138.27" y2="-225.64" stroke="#000000" stroke-width="11.3804931640625" stroke-linecap="round"/><line x1="95.15" y1="-142.40" x2="156.21" y2="-233.79" stroke="#000000" stroke-width="11.3804931640625" stroke-linecap="round"/><line x1="100.67" y1="-138.56" x2="145.51" y2="-200.28" stroke="#000000" stroke-width="11.3804931640625" stroke-linecap="round"/><line x1="106.03" y1="-134.50" x2="141.69" y2="-179.73" stroke="#000000" stroke-width="11.3804931640625" stroke-linecap="round"/><line x1="111.23" y1="-130.23" x2="149.20" y2="-174.70" stroke="#000000" stroke-width="11.3804931640625" stroke-linecap="round"/><line x1="116.26" y1="-125.76" x2="150.96" y2="-163.31" stroke="#000000" stroke-width="11.3804931640625" stroke-linecap="round"/><line x1="121.10" y1="-121.10" x2="151.39" y2="-151.39" stroke="#000000" stroke-width="11.3804931640625" stroke-linecap="round"/><line x1="125.76" y1="-116.26" x2="149.56" y2="-138.25" stroke="#000000" stroke-width="11.3804931640625" stroke-linecap="round"/><line x1="130.23" y1="-111.23" x2="155.25" y2="-132.60" stroke="#000000" stroke-width="11.3804931640625" stroke-linecap="round"/><line x1="134.50" y1="-106.03" x2="161.26" y2="-127.13" stroke="#000000" stroke-width="11.3804931640625" stroke-linecap="round"/><line x1="138.56" y1="-100.67" x2="171.89" y2="-124.88" stroke="#000000" stroke-width="11.3804931640625" stroke-linecap="round"/><line x1="142.40" y1="-95.15" x2="185.32" y2="-123.83" stroke="#000000" stroke-width="11.3804931640625" stroke-linecap="round"/><line x1="146.03" y1="-89.49" x2="184.79" y2="-113.24" stroke="#000000" stroke-width="11.3804931640625" stroke-linecap="round"/><line x1="149.43" y1="-83.68" x2="187.50" y2="-105.01" stroke="#000000" stroke-width="11.3804931640625" stroke-linecap="round"/><circle cx="151.27" cy="0.00" r="27" fill="#000000"/><circle cx="106.96" cy="106.96" r="27" fill="#000000"/><circle cx="0.00" cy="151.27" r="27" fill="#000000"/><circle cx="-106.96" cy="106.96" r="27" fill="#000000"/><circle cx="-151.27" cy="0.00" r="27" fill="#000000"/><circle cx="-106.96" cy="-106.96" r="27" fill="#000000"/><circle cx="-0.00" cy="-151.27" r="27" fill="#000000"/><circle cx="106.96" cy="-106.96" r="27" fill="#000000"/><circle cx="111.27" cy="0.00" r="16" fill="#000000"/><circle cx="78.68" cy="78.68" r="16" fill="#000000"/><circle cx="0.00" cy="111.27" r="16" fill="#000000"/><circle cx="-78.68" cy="78.68" r="16" fill="#000000"/><circle cx="-111.27" cy="0.00" r="16" fill="#000000"/><circle cx="-78.68" cy="-78.68" r="16" fill="#000000"/><circle cx="-0.00" cy="-111.27" r="16" fill="#000000"/><circle cx="78.68" cy="-78.68" r="16" fill="#000000"/><path d="M -146.27,0 a 146.27,146.27 0 1,0 292.53,0 a 146.27,146.27 0 1,0 -292.53,0 M 149.27,-0.00 105.55,105.55 0.00,149.27 -105.55,105.55 -149.27,0.00 -105.55,-105.55 -0.00,-149.27 105.55,-105.55 Z" fill="#000000" fill-rule="evenodd"/><line x1="164.84" y1="-46.49" x2="316.62" y2="-89.30" stroke="#ff3232" stroke-width="5.38" stroke-linecap="round"/><line x1="166.53" y1="-39.98" x2="345.68" y2="-82.99" stroke="#ff3d32" stroke-width="5.38" stroke-linecap="round"/><line x1="167.98" y1="-33.41" x2="348.03" y2="-69.23" stroke="#ff4732" stroke-width="5.38" stroke-linecap="round"/><line x1="169.16" y1="-26.79" x2="334.92" y2="-53.05" stroke="#ff5132" stroke-width="5.38" stroke-linecap="round"/><line x1="170.08" y1="-20.13" x2="292.15" y2="-34.58" stroke="#ff5b32" stroke-width="5.38" stroke-linecap="round"/><line x1="170.74" y1="-13.44" x2="253.23" y2="-19.93" stroke="#ff6532" stroke-width="5.38" stroke-linecap="round"/><line x1="171.13" y1="-6.72" x2="263.86" y2="-10.37" stroke="#ff7032" stroke-width="5.38" stroke-linecap="round"/><line x1="171.27" y1="0.00" x2="259.46" y2="0.00" stroke="#ff7a32" stroke-width="5.38" stroke-linecap="round"/><line x1="171.13" y1="6.72" x2="250.96" y2="9.86" stroke="#ff8432" stroke-width="5.38" stroke-linecap="round"/><line x1="170.74" y1="13.44" x2="296.56" y2="23.34" stroke="#ff8e32" stroke-width="5.38" stroke-linecap="round"/><line x1="170.08" y1="20.13" x2="305.78" y2="36.19" stroke="#ff9932" stroke-width="5.38" stroke-linecap="round"/><line x1="169.16" y1="26.79" x2="261.47" y2="41.41" stroke="#ffa332" stroke-width="5.38" stroke-linecap="round"/><line x1="167.98" y1="33.41" x2="292.83" y2="58.25" stroke="#ffad32" stroke-width="5.38" stroke-linecap="round"/><line x1="166.53" y1="39.98" x2="358.09" y2="85.97" stroke="#ffb732" stroke-width="5.38" stroke-linecap="round"/><line x1="164.84" y1="46.49" x2="358.11" y2="101.00" stroke="#ffc132" stroke-width="5.38" stroke-linecap="round"/><line x1="149.43" y1="83.68" x2="228.27" y2="127.84" stroke="#ffcc32" stroke-width="5.38" stroke-linecap="round"/><line x1="146.03" y1="89.49" x2="211.75" y2="129.76" stroke="#ffd632" stroke-width="5.38" stroke-linecap="round"/><line x1="142.40" y1="95.15" x2="206.09" y2="137.70" stroke="#ffe032" stroke-width="5.38" stroke-linecap="round"/><line x1="138.56" y1="100.67" x2="176.50" y2="128.24" stroke="#ffea32" stroke-width="5.38" stroke-linecap="round"/><line x1="134.50" y1="106.03" x2="162.29" y2="127.94" stroke="#fff432" stroke-width="5.38" stroke-linecap="round"/><line x1="130.23" y1="111.23" x2="162.60" y2="138.88" stroke="#ffff32" stroke-width="5.38" stroke-linecap="round"/><line x1="125.76" y1="116.26" x2="159.01" y2="146.98" stroke="#f4ff32" stroke-width="5.38" stroke-linecap="round"/><line x1="121.10" y1="121.10" x2="141.51" y2="141.51" stroke="#eaff32" stroke-width="5.38" stroke-linecap="round"/><line x1="116.26" y1="125.76" x2="137.70" y2="148.96" stroke="#e0ff32" stroke-width="5.38" stroke-linecap="round"/><line x1="111.23" y1="130.23" x2="145.99" y2="170.93" stroke="#d6ff32" stroke-width="5.38" stroke-linecap="round"/><line x1="106.03" y1="134.50" x2="146.65" y2="186.02" stroke="#ccff32" stroke-width="5.38" stroke-linecap="round"/><line x1="100.67" y1="138.56" x2="146.83" y2="202.09" stroke="#c1ff32" stroke-width="5.38" stroke-linecap="round"/><line x1="95.15" y1="142.40" x2="163.15" y2="244.18" stroke="#b7ff32" stroke-width="5.38" stroke-linecap="round"/><line x1="89.49" y1="146.03" x2="168.17" y2="274.42" stroke="#adff32" stroke-width="5.38" stroke-linecap="round"/><line x1="83.68" y1="149.43" x2="133.91" y2="239.12" stroke="#a3ff32" stroke-width="5.38" stroke-linecap="round"/><line x1="46.49" y1="164.84" x2="57.34" y2="203.31" stroke="#99ff32" stroke-width="5.38" stroke-linecap="round"/><line x1="39.98" y1="166.53" x2="48.63" y2="202.54" stroke="#8eff32" stroke-width="5.38" stroke-linecap="round"/><line x1="33.41" y1="167.98" x2="42.30" y2="212.68" stroke="#84ff32" stroke-width="5.38" stroke-linecap="round"/><line x1="26.79" y1="169.16" x2="36.50" y2="230.48" stroke="#7aff32" stroke-width="5.38" stroke-linecap="round"/><line x1="20.13" y1="170.08" x2="27.41" y2="231.63" stroke="#70ff32" stroke-width="5.38" stroke-linecap="round"/><line x1="13.44" y1="170.74" x2="17.38" y2="220.80" stroke="#65ff32" stroke-width="5.38" stroke-linecap="round"/><line x1="6.72" y1="171.13" x2="8.38" y2="213.22" stroke="#5bff32" stroke-width="5.38" stroke-linecap="round"/><line x1="0.00" y1="171.27" x2="0.00" y2="199.31" stroke="#51ff32" stroke-width="5.38" stroke-linecap="round"/><line x1="-6.72" y1="171.13" x2="-8.27" y2="210.47" stroke="#47ff32" stroke-width="5.38" stroke-linecap="round"/><line x1="-13.44" y1="170.74" x2="-17.25" y2="219.23" stroke="#3dff32" stroke-width="5.38" stroke-linecap="round"/><line x1="-20.13" y1="170.08" x2="-29.48" y2="249.05" stroke="#32ff32" stroke-width="5.38" stroke-linecap="round"/><line x1="-26.79" y1="169.16" x2="-43.62" y2="275.39" stroke="#32ff3d" stroke-width="5.38" stroke-linecap="round"/><line x1="-33.41" y1="167.98" x2="-47.40" y2="238.31" stroke="#32ff47" stroke-width="5.38" stroke-linecap="round"/><line x1="-39.98" y1="166.53" x2="-49.36" y2="205.58" stroke="#32ff51" stroke-width="5.38" stroke-linecap="round"/><line x1="-46.49" y1="164.84" x2="-61.96" y2="219.70" stroke="#32ff5b" stroke-width="5.38" stroke-linecap="round"/><line x1="-83.68" y1="149.43" x2="-111.93" y2="199.86" stroke="#32ff65" stroke-width="5.38" stroke-linecap="round"/><line x1="-89.49" y1="146.03" x2="-120.84" y2="197.19" stroke="#32ff70" stroke-width="5.38" stroke-linecap="round"/><line x1="-95.15" y1="142.40" x2="-124.60" y2="186.48" stroke="#32ff7a" stroke-width="5.38" stroke-linecap="round"/><line x1="-100.67" y1="138.56" x2="-136.00" y2="187.19" stroke="#32ff84" stroke-width="5.38" stroke-linecap="round"/><line x1="-106.03" y1="134.50" x2="-154.18" y2="195.58" stroke="#32ff8e" stroke-width="5.38" stroke-linecap="round"/><line x1="-111.23" y1="130.23" x2="-177.78" y2="208.15" stroke="#32ff99" stroke-width="5.38" stroke-linecap="round"/><line x1="-116.26" y1="125.76" x2="-175.77" y2="190.14" stroke="#32ffa3" stroke-width="5.38" stroke-linecap="round"/><line x1="-121.10" y1="121.10" x2="-161.77" y2="161.77" stroke="#32ffad" stroke-width="5.38" stroke-linecap="round"/><line x1="-125.76" y1="116.26" x2="-167.11" y2="154.48" stroke="#32ffb7" stroke-width="5.38" stroke-linecap="round"/><line x1="-130.23" y1="111.23" x2="-182.44" y2="155.82" stroke="#32ffc1" stroke-width="5.38" stroke-linecap="round"/><line x1="-134.50" y1="106.03" x2="-235.69" y2="185.80" stroke="#32ffcc" stroke-width="5.38" stroke-linecap="round"/><line x1="-138.56" y1="100.67" x2="-264.35" y2="192.06" stroke="#32ffd6" stroke-width="5.38" stroke-linecap="round"/><line x1="-142.40" y1="95.15" x2="-289.04" y2="193.13" stroke="#32ffe0" stroke-width="5.38" stroke-linecap="round"/><line x1="-146.03" y1="89.49" x2="-274.50" y2="168.21" stroke="#32ffea" stroke-width="5.38" stroke-linecap="round"/><line x1="-149.43" y1="83.68" x2="-243.54" y2="136.39" stroke="#32fff4" stroke-width="5.38" stroke-linecap="round"/><line x1="-164.84" y1="46.49" x2="-235.02" y2="66.28" stroke="#32ffff" stroke-width="5.38" stroke-linecap="round"/><line x1="-166.53" y1="39.98" x2="-237.70" y2="57.07" stroke="#32f4ff" stroke-width="5.38" stroke-linecap="round"/><line x1="-167.98" y1="33.41" x2="-309.37" y2="61.54" stroke="#32eaff" stroke-width="5.38" stroke-linecap="round"/><line x1="-169.16" y1="26.79" x2="-353.21" y2="55.94" stroke="#32e0ff" stroke-width="5.38" stroke-linecap="round"/><line x1="-170.08" y1="20.13" x2="-267.83" y2="31.70" stroke="#32d6ff" stroke-width="5.38" stroke-linecap="round"/><line x1="-170.74" y1="13.44" x2="-231.79" y2="18.24" stroke="#32ccff" stroke-width="5.38" stroke-linecap="round"/><line x1="-171.13" y1="6.72" x2="-248.55" y2="9.77" stroke="#32c1ff" stroke-width="5.38" stroke-linecap="round"/><line x1="-171.27" y1="0.00" x2="-279.81" y2="0.00" stroke="#32b7ff" stroke-width="5.38" stroke-linecap="round"/><line x1="-171.13" y1="-6.72" x2="-336.75" y2="-13.23" stroke="#32adff" stroke-width="5.38" stroke-linecap="round"/><line x1="-170.74" y1="-13.44" x2="-295.61" y2="-23.27" stroke="#32a3ff" stroke-width="5.38" stroke-linecap="round"/><line x1="-170.08" y1="-20.13" x2="-263.54" y2="-31.19" stroke="#3299ff" stroke-width="5.38" stroke-linecap="round"/><line x1="-169.16" y1="-26.79" x2="-251.06" y2="-39.76" stroke="#328eff" stroke-width="5.38" stroke-linecap="round"/><line x1="-167.98" y1="-33.41" x2="-361.38" y2="-71.88" stroke="#3284ff" stroke-width="5.38" stroke-linecap="round"/><line x1="-166.53" y1="-39.98" x2="-293.34" y2="-70.42" stroke="#327aff" stroke-width="5.38" stroke-linecap="round"/><line x1="-164.84" y1="-46.49" x2="-247.25" y2="-69.73" stroke="#3270ff" stroke-width="5.38" stroke-linecap="round"/><line x1="-149.43" y1="-83.68" x2="-237.12" y2="-132.79" stroke="#3265ff" stroke-width="5.38" stroke-linecap="round"/><line x1="-146.03" y1="-89.49" x2="-271.49" y2="-166.37" stroke="#325bff" stroke-width="5.38" stroke-linecap="round"/><line x1="-142.40" y1="-95.15" x2="-199.83" y2="-133.53" stroke="#3251ff" stroke-width="5.38" stroke-linecap="round"/><line x1="-138.56" y1="-100.67" x2="-231.34" y2="-168.08" stroke="#3247ff" stroke-width="5.38" stroke-linecap="round"/><line x1="-134.50" y1="-106.03" x2="-322.55" y2="-254.28" stroke="#323dff" stroke-width="5.38" stroke-linecap="round"/><line x1="-130.23" y1="-111.23" x2="-269.09" y2="-229.83" stroke="#3232ff" stroke-width="5.38" stroke-linecap="round"/><line x1="-125.76" y1="-116.26" x2="-214.14" y2="-197.95" stroke="#3d32ff" stroke-width="5.38" stroke-linecap="round"/><line x1="-121.10" y1="-121.10" x2="-223.25" y2="-223.25" stroke="#4732ff" stroke-width="5.38" stroke-linecap="round"/><line x1="-116.26" y1="-125.76" x2="-206.47" y2="-223.36" stroke="#5132ff" stroke-width="5.38" stroke-linecap="round"/><line x1="-111.23" y1="-130.23" x2="-163.37" y2="-191.28" stroke="#5b32ff" stroke-width="5.38" stroke-linecap="round"/><line x1="-106.03" y1="-134.50" x2="-147.74" y2="-187.40" stroke="#6532ff" stroke-width="5.38" stroke-linecap="round"/><line x1="-100.67" y1="-138.56" x2="-133.46" y2="-183.69" stroke="#7032ff" stroke-width="5.38" stroke-linecap="round"/><line x1="-95.15" y1="-142.40" x2="-129.51" y2="-193.83" stroke="#7a32ff" stroke-width="5.38" stroke-linecap="round"/><line x1="-89.49" y1="-146.03" x2="-127.11" y2="-207.43" stroke="#8432ff" stroke-width="5.38" stroke-linecap="round"/><line x1="-83.68" y1="-149.43" x2="-113.52" y2="-202.70" stroke="#8e32ff" stroke-width="5.38" stroke-linecap="round"/><line x1="-46.49" y1="-164.84" x2="-65.29" y2="-231.49" stroke="#9932ff" stroke-width="5.38" stroke-linecap="round"/><line x1="-39.98" y1="-166.53" x2="-48.25" y2="-200.98" stroke="#a332ff" stroke-width="5.38" stroke-linecap="round"/><line x1="-33.41" y1="-167.98" x2="-43.83" y2="-220.36" stroke="#ad32ff" stroke-width="5.38" stroke-linecap="round"/><line x1="-26.79" y1="-169.16" x2="-37.54" y2="-237.04" stroke="#b732ff" stroke-width="5.38" stroke-linecap="round"/><line x1="-20.13" y1="-170.08" x2="-27.97" y2="-236.33" stroke="#c132ff" stroke-width="5.38" stroke-linecap="round"/><line x1="-13.44" y1="-170.74" x2="-17.77" y2="-225.74" stroke="#cc32ff" stroke-width="5.38" stroke-linecap="round"/><line x1="-6.72" y1="-171.13" x2="-9.08" y2="-231.23" stroke="#d632ff" stroke-width="5.38" stroke-linecap="round"/><line x1="-0.00" y1="-171.27" x2="-0.00" y2="-224.51" stroke="#e032ff" stroke-width="5.38" stroke-linecap="round"/><line x1="6.72" y1="-171.13" x2="10.78" y2="-274.32" stroke="#ea32ff" stroke-width="5.38" stroke-linecap="round"/><line x1="13.44" y1="-170.74" x2="20.30" y2="-257.98" stroke="#f432ff" stroke-width="5.38" stroke-linecap="round"/><line x1="20.13" y1="-170.08" x2="28.71" y2="-242.59" stroke="#ff32ff" stroke-width="5.38" stroke-linecap="round"/><line x1="26.79" y1="-169.16" x2="41.22" y2="-260.23" stroke="#ff32f4" stroke-width="5.38" stroke-linecap="round"/><line x1="33.41" y1="-167.98" x2="49.49" y2="-248.80" stroke="#ff32ea" stroke-width="5.38" stroke-linecap="round"/><line x1="39.98" y1="-166.53" x2="61.48" y2="-256.10" stroke="#ff32e0" stroke-width="5.38" stroke-linecap="round"/><line x1="46.49" y1="-164.84" x2="75.46" y2="-267.55" stroke="#ff32d6" stroke-width="5.38" stroke-linecap="round"/><line x1="83.68" y1="-149.43" x2="129.05" y2="-230.44" stroke="#ff32cc" stroke-width="5.38" stroke-linecap="round"/><line x1="89.49" y1="-146.03" x2="138.27" y2="-225.64" stroke="#ff32c1" stroke-width="5.38" stroke-linecap="round"/><line x1="95.15" y1="-142.40" x2="156.21" y2="-233.79" stroke="#ff32b7" stroke-width="5.38" stroke-linecap="round"/><line x1="100.67" y1="-138.56" x2="145.51" y2="-200.28" stroke="#ff32ad" stroke-width="5.38" stroke-linecap="round"/><line x1="106.03" y1="-134.50" x2="141.69" y2="-179.73" stroke="#ff32a3" stroke-width="5.38" stroke-linecap="round"/><line x1="111.23" y1="-130.23" x2="149.20" y2="-174.70" stroke="#ff3299" stroke-width="5.38" stroke-linecap="round"/><line x1="116.26" y1="-125.76" x2="150.96" y2="-163.31" stroke="#ff328e" stroke-width="5.38" stroke-linecap="round"/><line x1="121.10" y1="-121.10" x2="151.39" y2="-151.39" stroke="#ff3284" stroke-width="5.38" stroke-linecap="round"/><line x1="125.76" y1="-116.26" x2="149.56" y2="-138.25" stroke="#ff327a" stroke-width="5.38" stroke-linecap="round"/><line x1="130.23" y1="-111.23" x2="155.25" y2="-132.60" stroke="#ff3270" stroke-width="5.38" stroke-linecap="round"/><line x1="134.50" y1="-106.03" x2="161.26" y2="-127.13" stroke="#ff3265" stroke-width="5.38" stroke-linecap="round"/><line x1="138.56" y1="-100.67" x2="171.89" y2="-124.88" stroke="#ff325b" stroke-width="5.38" stroke-linecap="round"/><line x1="142.40" y1="-95.15" x2="185.32" y2="-123.83" stroke="#ff3251" stroke-width="5.38" stroke-linecap="round"/><line x1="146.03" y1="-89.49" x2="184.79" y2="-113.24" stroke="#ff3247" stroke-width="5.38" stroke-linecap="round"/><line x1="149.43" y1="-83.68" x2="187.50" y2="-105.01" stroke="#ff323d" stroke-width="5.38" stroke-linecap="round"/><circle cx="151.27" cy="0.00" r="24.00" fill="#ff2626"/><circle cx="106.96" cy="106.96" r="24.00" fill="#ffc826"/><circle cx="0.00" cy="151.27" r="24.00" fill="#92ff26"/><circle cx="-106.96" cy="106.96" r="24.00" fill="#26ff5c"/><circle cx="-151.27" cy="0.00" r="24.00" fill="#26ffff"/><circle cx="-106.96" cy="-106.96" r="24.00" fill="#265cff"/><circle cx="-0.00" cy="-151.27" r="24.00" fill="#9226ff"/><circle cx="106.96" cy="-106.96" r="24.00" fill="#ff26c8"/><circle cx="111.27" cy="0.00" r="13.00" fill="#ff2626"/><circle cx="78.68" cy="78.68" r="13.00" fill="#ffc826"/><circle cx="0.00" cy="111.27" r="13.00" fill="#92ff26"/><circle cx="-78.68" cy="78.68" r="13.00" fill="#26ff5c"/><circle cx="-111.27" cy="0.00" r="13.00" fill="#26ffff"/><circle cx="-78.68" cy="-78.68" r="13.00" fill="#265cff"/><circle cx="-0.00" cy="-111.27" r="13.00" fill="#9226ff"/><circle cx="78.68" cy="-78.68" r="13.00" fill="#ff26c8"/></g></svg>