<svg width="800" height="800" viewBox="0 0 789.6 789.6" xmlns="http://www.w3.org/2000/svg"><line x1="449.60" y1="362.94" x2="470.81" y2="337.66" stroke="#000000" stroke-width="16.47" stroke-linecap="round"/><line x1="462.40" y1="379.32" x2="504.43" y2="358.82" stroke="#000000" stroke-width="16.47" stroke-linecap="round"/><line x1="467.43" y1="399.50" x2="510.11" y2="398.01" stroke="#000000" stroke-width="16.47" stroke-linecap="round"/><line x1="463.82" y1="419.97" x2="492.69" y2="431.64" stroke="#000000" stroke-width="16.47" stroke-linecap="round"/><line x1="452.20" y1="437.21" x2="474.53" y2="460.34" stroke="#000000" stroke-width="16.47" stroke-linecap="round"/><line x1="434.56" y1="448.23" x2="443.61" y2="473.08" stroke="#000000" stroke-width="16.47" stroke-linecap="round"/><line x1="413.97" y1="451.12" x2="412.06" y2="478.44" stroke="#000000" stroke-width="16.47" stroke-linecap="round"/><line x1="393.99" y1="445.39" x2="383.74" y2="464.67" stroke="#000000" stroke-width="16.47" stroke-linecap="round"/><line x1="378.06" y1="432.03" x2="364.01" y2="443.00" stroke="#000000" stroke-width="16.47" stroke-linecap="round"/><line x1="368.95" y1="413.34" x2="350.11" y2="418.03" stroke="#000000" stroke-width="16.47" stroke-linecap="round"/><line x1="368.22" y1="392.56" x2="348.82" y2="389.14" stroke="#000000" stroke-width="16.47" stroke-linecap="round"/><line x1="376.01" y1="373.28" x2="362.48" y2="364.16" stroke="#000000" stroke-width="16.47" stroke-linecap="round"/><line x1="390.97" y1="358.84" x2="384.66" y2="348.74" stroke="#000000" stroke-width="16.47" stroke-linecap="round"/><line x1="410.50" y1="351.73" x2="406.29" y2="321.74" stroke="#000000" stroke-width="16.47" stroke-linecap="round"/><line x1="431.24" y1="353.18" x2="440.15" y2="322.11" stroke="#000000" stroke-width="16.47" stroke-linecap="round"/><line x1="247.46" y1="401.24" x2="185.59" y2="401.24" stroke="#000000" stroke-width="22.18" stroke-linecap="round"/><line x1="250.53" y1="369.07" x2="184.92" y2="356.42" stroke="#000000" stroke-width="22.18" stroke-linecap="round"/><line x1="259.64" y1="338.06" x2="220.09" y2="322.23" stroke="#000000" stroke-width="22.18" stroke-linecap="round"/><line x1="274.45" y1="309.33" x2="260.71" y2="300.50" stroke="#000000" stroke-width="22.18" stroke-linecap="round"/><line x1="294.43" y1="283.93" x2="285.90" y2="275.80" stroke="#000000" stroke-width="22.18" stroke-linecap="round"/><line x1="318.85" y1="262.76" x2="305.83" y2="244.48" stroke="#000000" stroke-width="22.18" stroke-linecap="round"/><line x1="346.84" y1="246.61" x2="337.52" y2="226.19" stroke="#000000" stroke-width="22.18" stroke-linecap="round"/><line x1="377.38" y1="236.03" x2="374.81" y2="225.43" stroke="#000000" stroke-width="22.18" stroke-linecap="round"/><line x1="409.37" y1="231.44" x2="409.12" y2="226.13" stroke="#000000" stroke-width="22.18" stroke-linecap="round"/><line x1="441.66" y1="232.97" x2="442.28" y2="228.63" stroke="#000000" stroke-width="22.18" stroke-linecap="round"/><line x1="473.06" y1="240.59" x2="474.45" y2="236.59" stroke="#000000" stroke-width="22.18" stroke-linecap="round"/><line x1="502.46" y1="254.02" x2="505.18" y2="249.32" stroke="#000000" stroke-width="22.18" stroke-linecap="round"/><line x1="528.79" y1="272.77" x2="540.97" y2="258.70" stroke="#000000" stroke-width="22.18" stroke-linecap="round"/><line x1="551.09" y1="296.16" x2="567.25" y2="283.45" stroke="#000000" stroke-width="22.18" stroke-linecap="round"/><line x1="568.56" y1="323.34" x2="576.15" y2="319.43" stroke="#000000" stroke-width="22.18" stroke-linecap="round"/><line x1="580.58" y1="353.35" x2="608.30" y2="345.21" stroke="#000000" stroke-width="22.18" stroke-linecap="round"/><line x1="586.69" y1="385.08" x2="624.87" y2="381.44" stroke="#000000" stroke-width="22.18" stroke-linecap="round"/><line x1="586.69" y1="417.40" x2="608.07" y2="419.44" stroke="#000000" stroke-width="22.18" stroke-linecap="round"/><line x1="580.58" y1="449.14" x2="592.10" y2="452.52" stroke="#000000" stroke-width="22.18" stroke-linecap="round"/><line x1="568.56" y1="479.14" x2="574.82" y2="482.36" stroke="#000000" stroke-width="22.18" stroke-linecap="round"/><line x1="551.09" y1="506.33" x2="560.37" y2="513.62" stroke="#000000" stroke-width="22.18" stroke-linecap="round"/><line x1="528.79" y1="529.72" x2="536.94" y2="539.13" stroke="#000000" stroke-width="22.18" stroke-linecap="round"/><line x1="502.46" y1="548.47" x2="507.49" y2="557.18" stroke="#000000" stroke-width="22.18" stroke-linecap="round"/><line x1="473.06" y1="561.89" x2="476.61" y2="572.14" stroke="#000000" stroke-width="22.18" stroke-linecap="round"/><line x1="441.66" y1="569.51" x2="443.38" y2="581.49" stroke="#000000" stroke-width="22.18" stroke-linecap="round"/><line x1="409.37" y1="571.05" x2="408.87" y2="581.65" stroke="#000000" stroke-width="22.18" stroke-linecap="round"/><line x1="377.38" y1="566.45" x2="373.20" y2="583.71" stroke="#000000" stroke-width="22.18" stroke-linecap="round"/><line x1="346.84" y1="555.88" x2="326.44" y2="600.55" stroke="#000000" stroke-width="22.18" stroke-linecap="round"/><line x1="318.85" y1="539.72" x2="293.77" y2="574.95" stroke="#000000" stroke-width="22.18" stroke-linecap="round"/><line x1="294.43" y1="518.56" x2="277.73" y2="534.48" stroke="#000000" stroke-width="22.18" stroke-linecap="round"/><line x1="274.45" y1="493.15" x2="263.72" y2="500.05" stroke="#000000" stroke-width="22.18" stroke-linecap="round"/><line x1="259.64" y1="464.43" x2="242.33" y2="471.35" stroke="#000000" stroke-width="22.18" stroke-linecap="round"/><line x1="250.53" y1="433.42" x2="231.31" y2="437.12" stroke="#000000" stroke-width="22.18" stroke-linecap="round"/><line x1="257.46" y1="678.37" x2="233.62" y2="719.67" stroke="#000000" stroke-width="25.33" stroke-linecap="round"/><line x1="225.23" y1="657.06" x2="162.70" y2="740.27" stroke="#000000" stroke-width="25.33" stroke-linecap="round"/><line x1="195.79" y1="632.03" x2="92.36" y2="739.71" stroke="#000000" stroke-width="25.33" stroke-linecap="round"/><line x1="169.59" y1="603.62" x2="112.01" y2="650.63" stroke="#000000" stroke-width="25.33" stroke-linecap="round"/><line x1="147.00" y1="572.27" x2="117.88" y2="590.68" stroke="#000000" stroke-width="25.33" stroke-linecap="round"/><line x1="128.36" y1="538.42" x2="109.91" y2="547.18" stroke="#000000" stroke-width="25.33" stroke-linecap="round"/><line x1="113.93" y1="502.58" x2="84.26" y2="512.48" stroke="#000000" stroke-width="25.33" stroke-linecap="round"/><line x1="103.93" y1="465.25" x2="42.58" y2="477.78" stroke="#000000" stroke-width="25.33" stroke-linecap="round"/><line x1="98.50" y1="426.99" x2="15.67" y2="433.68" stroke="#000000" stroke-width="25.33" stroke-linecap="round"/><line x1="97.72" y1="388.36" x2="45.83" y2="386.27" stroke="#000000" stroke-width="25.33" stroke-linecap="round"/><line x1="101.61" y1="349.91" x2="61.02" y2="343.32" stroke="#000000" stroke-width="25.33" stroke-linecap="round"/><line x1="110.10" y1="312.21" x2="75.63" y2="302.23" stroke="#000000" stroke-width="25.33" stroke-linecap="round"/><line x1="123.07" y1="275.81" x2="68.84" y2="252.71" stroke="#000000" stroke-width="25.33" stroke-linecap="round"/><line x1="140.33" y1="241.24" x2="61.85" y2="195.93" stroke="#000000" stroke-width="25.33" stroke-linecap="round"/><line x1="161.64" y1="209.01" x2="128.50" y2="184.10" stroke="#000000" stroke-width="25.33" stroke-linecap="round"/><line x1="186.68" y1="179.57" x2="173.41" y2="166.82" stroke="#000000" stroke-width="25.33" stroke-linecap="round"/><line x1="215.08" y1="153.37" x2="193.90" y2="127.43" stroke="#000000" stroke-width="25.33" stroke-linecap="round"/><line x1="246.43" y1="130.78" x2="222.08" y2="92.27" stroke="#000000" stroke-width="25.33" stroke-linecap="round"/><line x1="280.28" y1="112.14" x2="262.41" y2="74.49" stroke="#000000" stroke-width="25.33" stroke-linecap="round"/><line x1="316.13" y1="97.71" x2="309.47" y2="77.76" stroke="#000000" stroke-width="25.33" stroke-linecap="round"/><line x1="353.45" y1="87.71" x2="349.49" y2="68.28" stroke="#000000" stroke-width="25.33" stroke-linecap="round"/><line x1="391.71" y1="82.28" x2="389.05" y2="49.30" stroke="#000000" stroke-width="25.33" stroke-linecap="round"/><line x1="430.35" y1="81.50" x2="431.18" y2="60.80" stroke="#000000" stroke-width="25.33" stroke-linecap="round"/><line x1="468.79" y1="85.39" x2="471.38" y2="69.48" stroke="#000000" stroke-width="25.33" stroke-linecap="round"/><line x1="506.49" y1="93.88" x2="511.95" y2="75.02" stroke="#000000" stroke-width="25.33" stroke-linecap="round"/><line x1="542.89" y1="106.85" x2="552.70" y2="83.82" stroke="#000000" stroke-width="25.33" stroke-linecap="round"/><line x1="577.46" y1="124.11" x2="596.86" y2="90.51" stroke="#000000" stroke-width="25.33" stroke-linecap="round"/><line x1="609.70" y1="145.42" x2="630.30" y2="118.01" stroke="#000000" stroke-width="25.33" stroke-linecap="round"/><line x1="639.13" y1="170.46" x2="663.11" y2="145.49" stroke="#000000" stroke-width="25.33" stroke-linecap="round"/><line x1="665.34" y1="198.86" x2="699.23" y2="171.19" stroke="#000000" stroke-width="25.33" stroke-linecap="round"/><line x1="687.92" y1="230.21" x2="724.24" y2="207.25" stroke="#000000" stroke-width="25.33" stroke-linecap="round"/><line x1="706.57" y1="264.06" x2="763.10" y2="237.24" stroke="#000000" stroke-width="25.33" stroke-linecap="round"/><line x1="720.99" y1="299.91" x2="750.52" y2="290.05" stroke="#000000" stroke-width="25.33" stroke-linecap="round"/><line x1="731.00" y1="337.23" x2="769.90" y2="329.29" stroke="#000000" stroke-width="25.33" stroke-linecap="round"/><line x1="736.42" y1="375.49" x2="763.79" y2="373.28" stroke="#000000" stroke-width="25.33" stroke-linecap="round"/><line x1="737.20" y1="414.13" x2="767.73" y2="415.36" stroke="#000000" stroke-width="25.33" stroke-linecap="round"/><line x1="733.32" y1="452.57" x2="770.87" y2="458.68" stroke="#000000" stroke-width="25.33" stroke-linecap="round"/><line x1="724.83" y1="490.27" x2="773.90" y2="504.49" stroke="#000000" stroke-width="25.33" stroke-linecap="round"/><line x1="711.86" y1="526.67" x2="744.26" y2="540.48" stroke="#000000" stroke-width="25.33" stroke-linecap="round"/><line x1="694.59" y1="561.24" x2="720.31" y2="576.09" stroke="#000000" stroke-width="25.33" stroke-linecap="round"/><line x1="673.28" y1="593.48" x2="691.50" y2="607.17" stroke="#000000" stroke-width="25.33" stroke-linecap="round"/><line x1="648.25" y1="622.91" x2="660.29" y2="634.48" stroke="#000000" stroke-width="25.33" stroke-linecap="round"/><line x1="619.85" y1="649.12" x2="634.97" y2="667.64" stroke="#000000" stroke-width="25.33" stroke-linecap="round"/><line x1="588.49" y1="671.70" x2="602.82" y2="694.36" stroke="#000000" stroke-width="25.33" stroke-linecap="round"/><line x1="554.64" y1="690.35" x2="564.26" y2="710.61" stroke="#000000" stroke-width="25.33" stroke-linecap="round"/><line x1="518.80" y1="704.77" x2="525.24" y2="724.06" stroke="#000000" stroke-width="25.33" stroke-linecap="round"/><line x1="481.47" y1="714.78" x2="485.87" y2="736.32" stroke="#000000" stroke-width="25.33" stroke-linecap="round"/><line x1="443.21" y1="720.20" x2="444.55" y2="736.74" stroke="#000000" stroke-width="25.33" stroke-linecap="round"/><line x1="404.58" y1="720.98" x2="403.83" y2="739.52" stroke="#000000" stroke-width="25.33" stroke-linecap="round"/><line x1="366.13" y1="717.10" x2="362.79" y2="737.63" stroke="#000000" stroke-width="25.33" stroke-linecap="round"/><line x1="328.43" y1="708.61" x2="324.30" y2="722.87" stroke="#000000" stroke-width="25.33" stroke-linecap="round"/><line x1="292.03" y1="695.64" x2="289.80" y2="700.88" stroke="#000000" stroke-width="25.33" stroke-linecap="round"/><line x1="449.60" y1="362.94" x2="470.81" y2="337.66" stroke="#ff3232" stroke-width="10.47" stroke-linecap="round"/><line x1="462.40" y1="379.32" x2="504.43" y2="358.82" stroke="#ff8432" stroke-width="10.47" stroke-linecap="round"/><line x1="467.43" y1="399.50" x2="510.11" y2="398.01" stroke="#ffd632" stroke-width="10.47" stroke-linecap="round"/><line x1="463.82" y1="419.97" x2="492.69" y2="431.64" stroke="#d6ff32" stroke-width="10.47" stroke-linecap="round"/><line x1="452.20" y1="437.21" x2="474.53" y2="460.34" stroke="#84ff32" stroke-width="10.47" stroke-linecap="round"/><line x1="434.56" y1="448.23" x2="443.61" y2="473.08" stroke="#32ff32" stroke-width="10.47" stroke-linecap="round"/><line x1="413.97" y1="451.12" x2="412.06" y2="478.44" stroke="#32ff84" stroke-width="10.47" stroke-linecap="round"/><line x1="393.99" y1="445.39" x2="383.74" y2="464.67" stroke="#32ffd6" stroke-width="10.47" stroke-linecap="round"/><line x1="378.06" y1="432.03" x2="364.01" y2="443.00" stroke="#32d6ff" stroke-width="10.47" stroke-linecap="round"/><line x1="368.95" y1="413.34" x2="350.11" y2="418.03" stroke="#3284ff" stroke-width="10.47" stroke-linecap="round"/><line x1="368.22" y1="392.56" x2="348.82" y2="389.14" stroke="#3232ff" stroke-width="10.47" stroke-linecap="round"/><line x1="376.01" y1="373.28" x2="362.48" y2="364.16" stroke="#8432ff" stroke-width="10.47" stroke-linecap="round"/><line x1="390.97" y1="358.84" x2="384.66" y2="348.74" stroke="#d632ff" stroke-width="10.47" stroke-linecap="round"/><line x1="410.50" y1="351.73" x2="406.29" y2="321.74" stroke="#ff32d6" stroke-width="10.47" stroke-linecap="round"/><line x1="431.24" y1="353.18" x2="440.15" y2="322.11" stroke="#ff3284" stroke-width="10.47" stroke-linecap="round"/><line x1="247.46" y1="401.24" x2="185.59" y2="401.24" stroke="#ff3232" stroke-width="16.18" stroke-linecap="round"/><line x1="250.53" y1="369.07" x2="184.92" y2="356.42" stroke="#ff5832" stroke-width="16.18" stroke-linecap="round"/><line x1="259.64" y1="338.06" x2="220.09" y2="322.23" stroke="#ff7d32" stroke-width="16.18" stroke-linecap="round"/><line x1="274.45" y1="309.33" x2="260.71" y2="300.50" stroke="#ffa232" stroke-width="16.18" stroke-linecap="round"/><line x1="294.43" y1="283.93" x2="285.90" y2="275.80" stroke="#ffc732" stroke-width="16.18" stroke-linecap="round"/><line x1="318.85" y1="262.76" x2="305.83" y2="244.48" stroke="#ffec32" stroke-width="16.18" stroke-linecap="round"/><line x1="346.84" y1="246.61" x2="337.52" y2="226.19" stroke="#ecff32" stroke-width="16.18" stroke-linecap="round"/><line x1="377.38" y1="236.03" x2="374.81" y2="225.43" stroke="#c7ff32" stroke-width="16.18" stroke-linecap="round"/><line x1="409.37" y1="231.44" x2="409.12" y2="226.13" stroke="#a2ff32" stroke-width="16.18" stroke-linecap="round"/><line x1="441.66" y1="232.97" x2="442.28" y2="228.63" stroke="#7dff32" stroke-width="16.18" stroke-linecap="round"/><line x1="473.06" y1="240.59" x2="474.45" y2="236.59" stroke="#58ff32" stroke-width="16.18" stroke-linecap="round"/><line x1="502.46" y1="254.02" x2="505.18" y2="249.32" stroke="#32ff32" stroke-width="16.18" stroke-linecap="round"/><line x1="528.79" y1="272.77" x2="540.97" y2="258.70" stroke="#32ff58" stroke-width="16.18" stroke-linecap="round"/><line x1="551.09" y1="296.16" x2="567.25" y2="283.45" stroke="#32ff7d" stroke-width="16.18" stroke-linecap="round"/><line x1="568.56" y1="323.34" x2="576.15" y2="319.43" stroke="#32ffa2" stroke-width="16.18" stroke-linecap="round"/><line x1="580.58" y1="353.35" x2="608.30" y2="345.21" stroke="#32ffc7" stroke-width="16.18" stroke-linecap="round"/><line x1="586.69" y1="385.08" x2="624.87" y2="381.44" stroke="#32ffec" stroke-width="16.18" stroke-linecap="round"/><line x1="586.69" y1="417.40" x2="608.07" y2="419.44" stroke="#32ecff" stroke-width="16.18" stroke-linecap="round"/><line x1="580.58" y1="449.14" x2="592.10" y2="452.52" stroke="#32c7ff" stroke-width="16.18" stroke-linecap="round"/><line x1="568.56" y1="479.14" x2="574.82" y2="482.36" stroke="#32a2ff" stroke-width="16.18" stroke-linecap="round"/><line x1="551.09" y1="506.33" x2="560.37" y2="513.62" stroke="#327dff" stroke-width="16.18" stroke-linecap="round"/><line x1="528.79" y1="529.72" x2="536.94" y2="539.13" stroke="#3258ff" stroke-width="16.18" stroke-linecap="round"/><line x1="502.46" y1="548.47" x2="507.49" y2="557.18" stroke="#3232ff" stroke-width="16.18" stroke-linecap="round"/><line x1="473.06" y1="561.89" x2="476.61" y2="572.14" stroke="#5832ff" stroke-width="16.18" stroke-linecap="round"/><line x1="441.66" y1="569.51" x2="443.38" y2="581.49" stroke="#7d32ff" stroke-width="16.18" stroke-linecap="round"/><line x1="409.37" y1="571.05" x2="408.87" y2="581.65" stroke="#a232ff" stroke-width="16.18" stroke-linecap="round"/><line x1="377.38" y1="566.45" x2="373.20" y2="583.71" stroke="#c732ff" stroke-width="16.18" stroke-linecap="round"/><line x1="346.84" y1="555.88" x2="326.44" y2="600.55" stroke="#ec32ff" stroke-width="16.18" stroke-linecap="round"/><line x1="318.85" y1="539.72" x2="293.77" y2="574.95" stroke="#ff32ec" stroke-width="16.18" stroke-linecap="round"/><line x1="294.43" y1="518.56" x2="277.73" y2="534.48" stroke="#ff32c7" stroke-width="16.18" stroke-linecap="round"/><line x1="274.45" y1="493.15" x2="263.72" y2="500.05" stroke="#ff32a2" stroke-width="16.18" stroke-linecap="round"/><line x1="259.64" y1="464.43" x2="242.33" y2="471.35" stroke="#ff327d" stroke-width="16.18" stroke-linecap="round"/><line x1="250.53" y1="433.42" x2="231.31" y2="437.12" stroke="#ff3258" stroke-width="16.18" stroke-linecap="round"/><line x1="257.46" y1="678.37" x2="233.62" y2="719.67" stroke="#ff3232" stroke-width="19.33" stroke-linecap="round"/><line x1="225.23" y1="657.06" x2="162.70" y2="740.27" stroke="#ff4a32" stroke-width="19.33" stroke-linecap="round"/><line x1="195.79" y1="632.03" x2="92.36" y2="739.71" stroke="#ff6232" stroke-width="19.33" stroke-linecap="round"/><line x1="169.59" y1="603.62" x2="112.01" y2="650.63" stroke="#ff7932" stroke-width="19.33" stroke-linecap="round"/><line x1="147.00" y1="572.27" x2="117.88" y2="590.68" stroke="#ff9132" stroke-width="19.33" stroke-linecap="round"/><line x1="128.36" y1="538.42" x2="109.91" y2="547.18" stroke="#ffa832" stroke-width="19.33" stroke-linecap="round"/><line x1="113.93" y1="502.58" x2="84.26" y2="512.48" stroke="#ffc032" stroke-width="19.33" stroke-linecap="round"/><line x1="103.93" y1="465.25" x2="42.58" y2="477.78" stroke="#ffd732" stroke-width="19.33" stroke-linecap="round"/><line x1="98.50" y1="426.99" x2="15.67" y2="433.68" stroke="#ffef32" stroke-width="19.33" stroke-linecap="round"/><line x1="97.72" y1="388.36" x2="45.83" y2="386.27" stroke="#f7ff32" stroke-width="19.33" stroke-linecap="round"/><line x1="101.61" y1="349.91" x2="61.02" y2="343.32" stroke="#dfff32" stroke-width="19.33" stroke-linecap="round"/><line x1="110.10" y1="312.21" x2="75.63" y2="302.23" stroke="#c8ff32" stroke-width="19.33" stroke-linecap="round"/><line x1="123.07" y1="275.81" x2="68.84" y2="252.71" stroke="#b0ff32" stroke-width="19.33" stroke-linecap="round"/><line x1="140.33" y1="241.24" x2="61.85" y2="195.93" stroke="#99ff32" stroke-width="19.33" stroke-linecap="round"/><line x1="161.64" y1="209.01" x2="128.50" y2="184.10" stroke="#81ff32" stroke-width="19.33" stroke-linecap="round"/><line x1="186.68" y1="179.57" x2="173.41" y2="166.82" stroke="#69ff32" stroke-width="19.33" stroke-linecap="round"/><line x1="215.08" y1="153.37" x2="193.90" y2="127.43" stroke="#52ff32" stroke-width="19.33" stroke-linecap="round"/><line x1="246.43" y1="130.78" x2="222.08" y2="92.27" stroke="#3aff32" stroke-width="19.33" stroke-linecap="round"/><line x1="280.28" y1="112.14" x2="262.41" y2="74.49" stroke="#32ff42" stroke-width="19.33" stroke-linecap="round"/><line x1="316.13" y1="97.71" x2="309.47" y2="77.76" stroke="#32ff5a" stroke-width="19.33" stroke-linecap="round"/><line x1="353.45" y1="87.71" x2="349.49" y2="68.28" stroke="#32ff71" stroke-width="19.33" stroke-linecap="round"/><line x1="391.71" y1="82.28" x2="389.05" y2="49.30" stroke="#32ff89" stroke-width="19.33" stroke-linecap="round"/><line x1="430.35" y1="81.50" x2="431.18" y2="60.80" stroke="#32ffa0" stroke-width="19.33" stroke-linecap="round"/><line x1="468.79" y1="85.39" x2="471.38" y2="69.48" stroke="#32ffb8" stroke-width="19.33" stroke-linecap="round"/><line x1="506.49" y1="93.88" x2="511.95" y2="75.02" stroke="#32ffcf" stroke-width="19.33" stroke-linecap="round"/><line x1="542.89" y1="106.85" x2="552.70" y2="83.82" stroke="#32ffe7" stroke-width="19.33" stroke-linecap="round"/><line x1="577.46" y1="124.11" x2="596.86" y2="90.51" stroke="#32ffff" stroke-width="19.33" stroke-linecap="round"/><line x1="609.70" y1="145.42" x2="630.30" y2="118.01" stroke="#32e7ff" stroke-width="19.33" stroke-linecap="round"/><line x1="639.13" y1="170.46" x2="663.11" y2="145.49" stroke="#32cfff" stroke-width="19.33" stroke-linecap="round"/><line x1="665.34" y1="198.86" x2="699.23" y2="171.19" stroke="#32b8ff" stroke-width="19.33" stroke-linecap="round"/><line x1="687.92" y1="230.21" x2="724.24" y2="207.25" stroke="#32a0ff" stroke-width="19.33" stroke-linecap="round"/><line x1="706.57" y1="264.06" x2="763.10" y2="237.24" stroke="#3289ff" stroke-width="19.33" stroke-linecap="round"/><line x1="720.99" y1="299.91" x2="750.52" y2="290.05" stroke="#3271ff" stroke-width="19.33" stroke-linecap="round"/><line x1="731.00" y1="337.23" x2="769.90" y2="329.29" stroke="#325aff" stroke-width="19.33" stroke-linecap="round"/><line x1="736.42" y1="375.49" x2="763.79" y2="373.28" stroke="#3242ff" stroke-width="19.33" stroke-linecap="round"/><line x1="737.20" y1="414.13" x2="767.73" y2="415.36" stroke="#3a32ff" stroke-width="19.33" stroke-linecap="round"/><line x1="733.32" y1="452.57" x2="770.87" y2="458.68" stroke="#5232ff" stroke-width="19.33" stroke-linecap="round"/><line x1="724.83" y1="490.27" x2="773.90" y2="504.49" stroke="#6932ff" stroke-width="19.33" stroke-linecap="round"/><line x1="711.86" y1="526.67" x2="744.26" y2="540.48" stroke="#8132ff" stroke-width="19.33" stroke-linecap="round"/><line x1="694.59" y1="561.24" x2="720.31" y2="576.09" stroke="#9932ff" stroke-width="19.33" stroke-linecap="round"/><line x1="673.28" y1="593.48" x2="691.50" y2="607.17" stroke="#b032ff" stroke-width="19.33" stroke-linecap="round"/><line x1="648.25" y1="622.91" x2="660.29" y2="634.48" stroke="#c832ff" stroke-width="19.33" stroke-linecap="round"/><line x1="619.85" y1="649.12" x2="634.97" y2="667.64" stroke="#df32ff" stroke-width="19.33" stroke-linecap="round"/><line x1="588.49" y1="671.70" x2="602.82" y2="694.36" stroke="#f732ff" stroke-width="19.33" stroke-linecap="round"/><line x1="554.64" y1="690.35" x2="564.26" y2="710.61" stroke="#ff32ef" stroke-width="19.33" stroke-linecap="round"/><line x1="518.80" y1="704.77" x2="525.24" y2="724.06" stroke="#ff32d7" stroke-width="19.33" stroke-linecap="round"/><line x1="481.47" y1="714.78" x2="485.87" y2="736.32" stroke="#ff32c0" stroke-width="19.33" stroke-linecap="round"/><line x1="443.21" y1="720.20" x2="444.55" y2="736.74" stroke="#ff32a8" stroke-width="19.33" stroke-linecap="round"/><line x1="404.58" y1="720.98" x2="403.83" y2="739.52" stroke="#ff3291" stroke-width="19.33" stroke-linecap="round"/><line x1="366.13" y1="717.10" x2="362.79" y2="737.63" stroke="#ff3279" stroke-width="19.33" stroke-linecap="round"/><line x1="328.43" y1="708.61" x2="324.30" y2="722.87" stroke="#ff3262" stroke-width="19.33" stroke-linecap="round"/><line x1="292.03" y1="695.64" x2="289.80" y2="700.88" stroke="#ff324a" stroke-width="19.33" stroke-linecap="round"/></svg>