<svg width="800" height="800" viewBox="0 0 610.8 610.8" xmlns="http://www.w3.org/2000/svg"><path d="M 139.91,231.63 A 200.00,200.00 0 0 1 527.47,287.66" fill="none" stroke="#000000" stroke-width="18.00" stroke-linecap="round"/><path d="M 515.79,368.44 A 200.00,200.00 0 0 1 128.23,312.41" fill="none" stroke="#000000" stroke-width="18.00" stroke-linecap="round"/><line x1="287.04" y1="531.46" x2="274.81" y2="600.83" stroke="#000000" stroke-width="14.00" stroke-linecap="round"/><line x1="258.36" y1="524.52" x2="240.45" y2="582.38" stroke="#000000" stroke-width="14.00" stroke-linecap="round"/><line x1="230.77" y1="514.05" x2="211.04" y2="557.54" stroke="#000000" stroke-width="14.00" stroke-linecap="round"/><line x1="204.71" y1="500.19" x2="163.70" y2="566.85" stroke="#000000" stroke-width="14.00" stroke-linecap="round"/><line x1="180.60" y1="483.18" x2="117.06" y2="562.20" stroke="#000000" stroke-width="14.00" stroke-linecap="round"/><line x1="158.81" y1="463.28" x2="124.80" y2="496.11" stroke="#000000" stroke-width="14.00" stroke-linecap="round"/><line x1="139.68" y1="440.81" x2="89.42" y2="478.40" stroke="#000000" stroke-width="14.00" stroke-linecap="round"/><line x1="123.52" y1="416.11" x2="34.48" y2="466.69" stroke="#000000" stroke-width="14.00" stroke-linecap="round"/><line x1="110.58" y1="389.59" x2="12.51" y2="430.01" stroke="#000000" stroke-width="14.00" stroke-linecap="round"/><line x1="101.07" y1="361.65" x2="56.34" y2="373.80" stroke="#000000" stroke-width="14.00" stroke-linecap="round"/><line x1="95.14" y1="332.74" x2="77.14" y2="335.27" stroke="#000000" stroke-width="14.00" stroke-linecap="round"/><line x1="92.87" y1="303.32" x2="61.82" y2="303.75" stroke="#000000" stroke-width="14.00" stroke-linecap="round"/><line x1="94.31" y1="273.84" x2="76.07" y2="271.79" stroke="#000000" stroke-width="14.00" stroke-linecap="round"/><line x1="99.44" y1="244.78" x2="56.60" y2="234.41" stroke="#000000" stroke-width="14.00" stroke-linecap="round"/><line x1="108.17" y1="216.58" x2="65.70" y2="200.45" stroke="#000000" stroke-width="14.00" stroke-linecap="round"/><line x1="120.36" y1="189.71" x2="54.15" y2="154.51" stroke="#000000" stroke-width="14.00" stroke-linecap="round"/><line x1="135.82" y1="164.57" x2="61.58" y2="112.20" stroke="#000000" stroke-width="14.00" stroke-linecap="round"/><line x1="154.31" y1="141.57" x2="134.99" y2="123.93" stroke="#000000" stroke-width="14.00" stroke-linecap="round"/><line x1="175.54" y1="121.07" x2="161.26" y2="104.29" stroke="#000000" stroke-width="14.00" stroke-linecap="round"/><line x1="199.17" y1="103.39" x2="180.59" y2="75.00" stroke="#000000" stroke-width="14.00" stroke-linecap="round"/><line x1="224.83" y1="88.82" x2="214.34" y2="67.30" stroke="#000000" stroke-width="14.00" stroke-linecap="round"/><line x1="252.12" y1="77.57" x2="238.38" y2="37.20" stroke="#000000" stroke-width="14.00" stroke-linecap="round"/><line x1="280.60" y1="69.83" x2="273.84" y2="36.93" stroke="#000000" stroke-width="14.00" stroke-linecap="round"/><line x1="309.82" y1="65.73" x2="307.84" y2="39.99" stroke="#000000" stroke-width="14.00" stroke-linecap="round"/><line x1="339.33" y1="65.32" x2="340.38" y2="43.90" stroke="#000000" stroke-width="14.00" stroke-linecap="round"/><line x1="368.66" y1="68.60" x2="378.99" y2="10.00" stroke="#000000" stroke-width="14.00" stroke-linecap="round"/><line x1="397.34" y1="75.54" x2="408.01" y2="41.07" stroke="#000000" stroke-width="14.00" stroke-linecap="round"/><line x1="424.93" y1="86.02" x2="435.62" y2="62.47" stroke="#000000" stroke-width="14.00" stroke-linecap="round"/><line x1="450.99" y1="99.88" x2="504.40" y2="13.05" stroke="#000000" stroke-width="14.00" stroke-linecap="round"/><line x1="475.10" y1="116.89" x2="515.63" y2="66.48" stroke="#000000" stroke-width="14.00" stroke-linecap="round"/><line x1="496.89" y1="136.79" x2="537.10" y2="97.97" stroke="#000000" stroke-width="14.00" stroke-linecap="round"/><line x1="516.02" y1="159.26" x2="565.82" y2="122.01" stroke="#000000" stroke-width="14.00" stroke-linecap="round"/><line x1="532.18" y1="183.96" x2="561.88" y2="167.09" stroke="#000000" stroke-width="14.00" stroke-linecap="round"/><line x1="545.12" y1="210.48" x2="576.32" y2="197.62" stroke="#000000" stroke-width="14.00" stroke-linecap="round"/><line x1="554.63" y1="238.42" x2="589.88" y2="228.84" stroke="#000000" stroke-width="14.00" stroke-linecap="round"/><line x1="560.56" y1="267.33" x2="598.32" y2="262.02" stroke="#000000" stroke-width="14.00" stroke-linecap="round"/><line x1="562.83" y1="296.75" x2="590.80" y2="296.36" stroke="#000000" stroke-width="14.00" stroke-linecap="round"/><line x1="561.39" y1="326.23" x2="592.38" y2="329.71" stroke="#000000" stroke-width="14.00" stroke-linecap="round"/><line x1="556.26" y1="355.29" x2="581.48" y2="361.39" stroke="#000000" stroke-width="14.00" stroke-linecap="round"/><line x1="547.53" y1="383.48" x2="566.48" y2="390.68" stroke="#000000" stroke-width="14.00" stroke-linecap="round"/><line x1="535.34" y1="410.36" x2="551.52" y2="418.96" stroke="#000000" stroke-width="14.00" stroke-linecap="round"/><line x1="519.88" y1="435.50" x2="530.21" y2="442.78" stroke="#000000" stroke-width="14.00" stroke-linecap="round"/><line x1="501.39" y1="458.50" x2="514.83" y2="470.77" stroke="#000000" stroke-width="14.00" stroke-linecap="round"/><line x1="480.16" y1="479.00" x2="487.93" y2="488.13" stroke="#000000" stroke-width="14.00" stroke-linecap="round"/><line x1="456.53" y1="496.67" x2="464.52" y2="508.88" stroke="#000000" stroke-width="14.00" stroke-linecap="round"/><line x1="430.87" y1="511.25" x2="438.41" y2="526.72" stroke="#000000" stroke-width="14.00" stroke-linecap="round"/><line x1="403.58" y1="522.50" x2="407.38" y2="533.64" stroke="#000000" stroke-width="14.00" stroke-linecap="round"/><line x1="375.10" y1="530.23" x2="377.11" y2="540.03" stroke="#000000" stroke-width="14.00" stroke-linecap="round"/><line x1="345.88" y1="534.34" x2="346.65" y2="544.31" stroke="#000000" stroke-width="14.00" stroke-linecap="round"/><line x1="316.37" y1="534.75" x2="315.88" y2="544.74" stroke="#000000" stroke-width="14.00" stroke-linecap="round"/><path d="M 139.91,231.63 A 200.00,200.00 0 0 1 141.39,227.70" fill="none" stroke="#32b8ff" stroke-width="12.00"/><path d="M 141.14,228.35 A 200.00,200.00 0 0 1 142.68,224.45" fill="none" stroke="#32b5ff" stroke-width="12.00"/><path d="M 142.42,225.09 A 200.00,200.00 0 0 1 144.04,221.22" fill="none" stroke="#32b2ff" stroke-width="12.00"/><path d="M 143.76,221.86 A 200.00,200.00 0 0 1 145.44,218.01" fill="none" stroke="#32aeff" stroke-width="12.00"/><path d="M 145.16,218.65 A 200.00,200.00 0 0 1 146.91,214.83" fill="none" stroke="#32abff" stroke-width="12.00"/><path d="M 146.61,215.47 A 200.00,200.00 0 0 1 148.43,211.68" fill="none" stroke="#32a7ff" stroke-width="12.00"/><path d="M 148.12,212.31 A 200.00,200.00 0 0 1 150.00,208.55" fill="none" stroke="#32a4ff" stroke-width="12.00"/><path d="M 149.68,209.17 A 200.00,200.00 0 0 1 151.63,205.45" fill="none" stroke="#32a1ff" stroke-width="12.00"/><path d="M 151.30,206.07 A 200.00,200.00 0 0 1 153.31,202.38" fill="none" stroke="#329dff" stroke-width="12.00"/><path d="M 152.97,202.99 A 200.00,200.00 0 0 1 155.05,199.34" fill="none" stroke="#329aff" stroke-width="12.00"/><path d="M 154.70,199.95 A 200.00,200.00 0 0 1 156.84,196.33" fill="none" stroke="#3296ff" stroke-width="12.00"/><path d="M 156.47,196.93 A 200.00,200.00 0 0 1 158.68,193.35" fill="none" stroke="#3293ff" stroke-width="12.00"/><path d="M 158.30,193.95 A 200.00,200.00 0 0 1 160.57,190.41" fill="none" stroke="#3290ff" stroke-width="12.00"/><path d="M 160.19,191.00 A 200.00,200.00 0 0 1 162.51,187.50" fill="none" stroke="#328cff" stroke-width="12.00"/><path d="M 162.12,188.08 A 200.00,200.00 0 0 1 164.51,184.62" fill="none" stroke="#3289ff" stroke-width="12.00"/><path d="M 164.11,185.19 A 200.00,200.00 0 0 1 166.55,181.78" fill="none" stroke="#3285ff" stroke-width="12.00"/><path d="M 166.14,182.35 A 200.00,200.00 0 0 1 168.65,178.98" fill="none" stroke="#3282ff" stroke-width="12.00"/><path d="M 168.23,179.53 A 200.00,200.00 0 0 1 170.79,176.21" fill="none" stroke="#327eff" stroke-width="12.00"/><path d="M 170.36,176.76 A 200.00,200.00 0 0 1 172.98,173.48" fill="none" stroke="#327bff" stroke-width="12.00"/><path d="M 172.54,174.02 A 200.00,200.00 0 0 1 175.22,170.79" fill="none" stroke="#3278ff" stroke-width="12.00"/><path d="M 174.77,171.32 A 200.00,200.00 0 0 1 177.51,168.14" fill="none" stroke="#3274ff" stroke-width="12.00"/><path d="M 177.05,168.66 A 200.00,200.00 0 0 1 179.84,165.52" fill="none" stroke="#3271ff" stroke-width="12.00"/><path d="M 179.37,166.04 A 200.00,200.00 0 0 1 182.22,162.95" fill="none" stroke="#326dff" stroke-width="12.00"/><path d="M 181.74,163.46 A 200.00,200.00 0 0 1 184.64,160.43" fill="none" stroke="#326aff" stroke-width="12.00"/><path d="M 184.15,160.93 A 200.00,200.00 0 0 1 187.10,157.94" fill="none" stroke="#3267ff" stroke-width="12.00"/><path d="M 186.61,158.43 A 200.00,200.00 0 0 1 189.61,155.50" fill="none" stroke="#3263ff" stroke-width="12.00"/><path d="M 189.11,155.98 A 200.00,200.00 0 0 1 192.16,153.10" fill="none" stroke="#3260ff" stroke-width="12.00"/><path d="M 191.65,153.58 A 200.00,200.00 0 0 1 194.76,150.75" fill="none" stroke="#325cff" stroke-width="12.00"/><path d="M 194.23,151.22 A 200.00,200.00 0 0 1 197.39,148.44" fill="none" stroke="#3259ff" stroke-width="12.00"/><path d="M 196.86,148.90 A 200.00,200.00 0 0 1 200.06,146.18" fill="none" stroke="#3256ff" stroke-width="12.00"/><path d="M 199.53,146.63 A 200.00,200.00 0 0 1 202.78,143.97" fill="none" stroke="#3252ff" stroke-width="12.00"/><path d="M 202.23,144.41 A 200.00,200.00 0 0 1 205.53,141.80" fill="none" stroke="#324fff" stroke-width="12.00"/><path d="M 204.97,142.23 A 200.00,200.00 0 0 1 208.31,139.69" fill="none" stroke="#324bff" stroke-width="12.00"/><path d="M 207.75,140.11 A 200.00,200.00 0 0 1 211.14,137.62" fill="none" stroke="#3248ff" stroke-width="12.00"/><path d="M 210.57,138.03 A 200.00,200.00 0 0 1 214.00,135.60" fill="none" stroke="#3245ff" stroke-width="12.00"/><path d="M 213.43,136.00 A 200.00,200.00 0 0 1 216.90,133.63" fill="none" stroke="#3241ff" stroke-width="12.00"/><path d="M 216.31,134.02 A 200.00,200.00 0 0 1 219.83,131.72" fill="none" stroke="#323eff" stroke-width="12.00"/><path d="M 219.24,132.10 A 200.00,200.00 0 0 1 222.79,129.85" fill="none" stroke="#323aff" stroke-width="12.00"/><path d="M 222.19,130.22 A 200.00,200.00 0 0 1 225.78,128.04" fill="none" stroke="#3237ff" stroke-width="12.00"/><path d="M 225.18,128.40 A 200.00,200.00 0 0 1 228.81,126.28" fill="none" stroke="#3233ff" stroke-width="12.00"/><path d="M 228.20,126.63 A 200.00,200.00 0 0 1 231.86,124.57" fill="none" stroke="#3532ff" stroke-width="12.00"/><path d="M 231.25,124.91 A 200.00,200.00 0 0 1 234.95,122.92" fill="none" stroke="#3832ff" stroke-width="12.00"/><path d="M 234.33,123.25 A 200.00,200.00 0 0 1 238.07,121.32" fill="none" stroke="#3c32ff" stroke-width="12.00"/><path d="M 237.44,121.64 A 200.00,200.00 0 0 1 241.21,119.78" fill="none" stroke="#3f32ff" stroke-width="12.00"/><path d="M 240.58,120.08 A 200.00,200.00 0 0 1 244.38,118.29" fill="none" stroke="#4332ff" stroke-width="12.00"/><path d="M 243.74,118.58 A 200.00,200.00 0 0 1 247.57,116.85" fill="none" stroke="#4632ff" stroke-width="12.00"/><path d="M 246.93,117.14 A 200.00,200.00 0 0 1 250.79,115.48" fill="none" stroke="#4932ff" stroke-width="12.00"/><path d="M 250.14,115.75 A 200.00,200.00 0 0 1 254.03,114.16" fill="none" stroke="#4d32ff" stroke-width="12.00"/><path d="M 253.38,114.42 A 200.00,200.00 0 0 1 257.29,112.89" fill="none" stroke="#5032ff" stroke-width="12.00"/><path d="M 256.64,113.14 A 200.00,200.00 0 0 1 260.58,111.69" fill="none" stroke="#5432ff" stroke-width="12.00"/><path d="M 259.92,111.92 A 200.00,200.00 0 0 1 263.89,110.54" fill="none" stroke="#5732ff" stroke-width="12.00"/><path d="M 263.22,110.76 A 200.00,200.00 0 0 1 267.21,109.45" fill="none" stroke="#5a32ff" stroke-width="12.00"/><path d="M 266.55,109.66 A 200.00,200.00 0 0 1 270.56,108.42" fill="none" stroke="#5e32ff" stroke-width="12.00"/><path d="M 269.89,108.62 A 200.00,200.00 0 0 1 273.92,107.44" fill="none" stroke="#6132ff" stroke-width="12.00"/><path d="M 273.25,107.63 A 200.00,200.00 0 0 1 277.30,106.53" fill="none" stroke="#6532ff" stroke-width="12.00"/><path d="M 276.62,106.71 A 200.00,200.00 0 0 1 280.70,105.67" fill="none" stroke="#6832ff" stroke-width="12.00"/><path d="M 280.02,105.84 A 200.00,200.00 0 0 1 284.11,104.88" fill="none" stroke="#6b32ff" stroke-width="12.00"/><path d="M 283.42,105.03 A 200.00,200.00 0 0 1 287.53,104.14" fill="none" stroke="#6f32ff" stroke-width="12.00"/><path d="M 286.84,104.28 A 200.00,200.00 0 0 1 290.96,103.47" fill="none" stroke="#7232ff" stroke-width="12.00"/><path d="M 290.27,103.60 A 200.00,200.00 0 0 1 294.41,102.85" fill="none" stroke="#7632ff" stroke-width="12.00"/><path d="M 293.72,102.97 A 200.00,200.00 0 0 1 297.87,102.30" fill="none" stroke="#7932ff" stroke-width="12.00"/><path d="M 297.17,102.40 A 200.00,200.00 0 0 1 301.33,101.80" fill="none" stroke="#7d32ff" stroke-width="12.00"/><path d="M 300.64,101.89 A 200.00,200.00 0 0 1 304.80,101.37" fill="none" stroke="#8032ff" stroke-width="12.00"/><path d="M 304.11,101.45 A 200.00,200.00 0 0 1 308.29,100.99" fill="none" stroke="#8332ff" stroke-width="12.00"/><path d="M 307.59,101.06 A 200.00,200.00 0 0 1 311.77,100.68" fill="none" stroke="#8732ff" stroke-width="12.00"/><path d="M 311.07,100.74 A 200.00,200.00 0 0 1 315.26,100.43" fill="none" stroke="#8a32ff" stroke-width="12.00"/><path d="M 314.57,100.48 A 200.00,200.00 0 0 1 318.76,100.24" fill="none" stroke="#8e32ff" stroke-width="12.00"/><path d="M 318.06,100.27 A 200.00,200.00 0 0 1 322.26,100.11" fill="none" stroke="#9132ff" stroke-width="12.00"/><path d="M 321.56,100.13 A 200.00,200.00 0 0 1 325.76,100.05" fill="none" stroke="#9432ff" stroke-width="12.00"/><path d="M 325.06,100.05 A 200.00,200.00 0 0 1 329.26,100.04" fill="none" stroke="#9832ff" stroke-width="12.00"/><path d="M 328.56,100.04 A 200.00,200.00 0 0 1 332.76,100.09" fill="none" stroke="#9b32ff" stroke-width="12.00"/><path d="M 332.06,100.08 A 200.00,200.00 0 0 1 336.26,100.21" fill="none" stroke="#9f32ff" stroke-width="12.00"/><path d="M 335.56,100.18 A 200.00,200.00 0 0 1 339.75,100.39" fill="none" stroke="#a232ff" stroke-width="12.00"/><path d="M 339.06,100.35 A 200.00,200.00 0 0 1 343.25,100.63" fill="none" stroke="#a532ff" stroke-width="12.00"/><path d="M 342.55,100.58 A 200.00,200.00 0 0 1 346.73,100.93" fill="none" stroke="#a932ff" stroke-width="12.00"/><path d="M 346.04,100.86 A 200.00,200.00 0 0 1 350.22,101.29" fill="none" stroke="#ac32ff" stroke-width="12.00"/><path d="M 349.52,101.21 A 200.00,200.00 0 0 1 353.69,101.71" fill="none" stroke="#b032ff" stroke-width="12.00"/><path d="M 353.00,101.62 A 200.00,200.00 0 0 1 357.16,102.19" fill="none" stroke="#b332ff" stroke-width="12.00"/><path d="M 356.47,102.09 A 200.00,200.00 0 0 1 360.62,102.74" fill="none" stroke="#b732ff" stroke-width="12.00"/><path d="M 359.93,102.62 A 200.00,200.00 0 0 1 364.07,103.34" fill="none" stroke="#ba32ff" stroke-width="12.00"/><path d="M 363.38,103.22 A 200.00,200.00 0 0 1 367.50,104.00" fill="none" stroke="#bd32ff" stroke-width="12.00"/><path d="M 366.82,103.87 A 200.00,200.00 0 0 1 370.93,104.73" fill="none" stroke="#c132ff" stroke-width="12.00"/><path d="M 370.24,104.58 A 200.00,200.00 0 0 1 374.34,105.51" fill="none" stroke="#c432ff" stroke-width="12.00"/><path d="M 373.66,105.35 A 200.00,200.00 0 0 1 377.74,106.36" fill="none" stroke="#c832ff" stroke-width="12.00"/><path d="M 377.06,106.18 A 200.00,200.00 0 0 1 381.12,107.26" fill="none" stroke="#cb32ff" stroke-width="12.00"/><path d="M 380.44,107.07 A 200.00,200.00 0 0 1 384.49,108.22" fill="none" stroke="#ce32ff" stroke-width="12.00"/><path d="M 383.81,108.02 A 200.00,200.00 0 0 1 387.83,109.24" fill="none" stroke="#d232ff" stroke-width="12.00"/><path d="M 387.17,109.03 A 200.00,200.00 0 0 1 391.16,110.32" fill="none" stroke="#d532ff" stroke-width="12.00"/><path d="M 390.50,110.10 A 200.00,200.00 0 0 1 394.48,111.46" fill="none" stroke="#d932ff" stroke-width="12.00"/><path d="M 393.81,111.23 A 200.00,200.00 0 0 1 397.77,112.65" fill="none" stroke="#dc32ff" stroke-width="12.00"/><path d="M 397.11,112.41 A 200.00,200.00 0 0 1 401.03,113.91" fill="none" stroke="#df32ff" stroke-width="12.00"/><path d="M 400.38,113.65 A 200.00,200.00 0 0 1 404.28,115.22" fill="none" stroke="#e332ff" stroke-width="12.00"/><path d="M 403.63,114.95 A 200.00,200.00 0 0 1 407.50,116.58" fill="none" stroke="#e632ff" stroke-width="12.00"/><path d="M 406.86,116.30 A 200.00,200.00 0 0 1 410.70,118.00" fill="none" stroke="#ea32ff" stroke-width="12.00"/><path d="M 410.07,117.71 A 200.00,200.00 0 0 1 413.88,119.48" fill="none" stroke="#ed32ff" stroke-width="12.00"/><path d="M 413.24,119.18 A 200.00,200.00 0 0 1 417.02,121.01" fill="none" stroke="#f032ff" stroke-width="12.00"/><path d="M 416.40,120.70 A 200.00,200.00 0 0 1 420.14,122.60" fill="none" stroke="#f432ff" stroke-width="12.00"/><path d="M 419.52,122.28 A 200.00,200.00 0 0 1 423.24,124.25" fill="none" stroke="#f732ff" stroke-width="12.00"/><path d="M 422.62,123.91 A 200.00,200.00 0 0 1 426.30,125.94" fill="none" stroke="#fb32ff" stroke-width="12.00"/><path d="M 425.69,125.60 A 200.00,200.00 0 0 1 429.33,127.69" fill="none" stroke="#fe32ff" stroke-width="12.00"/><path d="M 428.73,127.34 A 200.00,200.00 0 0 1 432.33,129.49" fill="none" stroke="#ff32fb" stroke-width="12.00"/><path d="M 431.73,129.13 A 200.00,200.00 0 0 1 435.30,131.35" fill="none" stroke="#ff32f8" stroke-width="12.00"/><path d="M 434.71,130.97 A 200.00,200.00 0 0 1 438.24,133.26" fill="none" stroke="#ff32f5" stroke-width="12.00"/><path d="M 437.65,132.87 A 200.00,200.00 0 0 1 441.14,135.21" fill="none" stroke="#ff32f1" stroke-width="12.00"/><path d="M 440.56,134.82 A 200.00,200.00 0 0 1 444.00,137.22" fill="none" stroke="#ff32ee" stroke-width="12.00"/><path d="M 443.43,136.82 A 200.00,200.00 0 0 1 446.84,139.28" fill="none" stroke="#ff32ea" stroke-width="12.00"/><path d="M 446.27,138.86 A 200.00,200.00 0 0 1 449.63,141.39" fill="none" stroke="#ff32e7" stroke-width="12.00"/><path d="M 449.08,140.96 A 200.00,200.00 0 0 1 452.39,143.54" fill="none" stroke="#ff32e4" stroke-width="12.00"/><path d="M 451.84,143.11 A 200.00,200.00 0 0 1 455.11,145.75" fill="none" stroke="#ff32e0" stroke-width="12.00"/><path d="M 454.57,145.30 A 200.00,200.00 0 0 1 457.79,148.00" fill="none" stroke="#ff32dd" stroke-width="12.00"/><path d="M 457.26,147.54 A 200.00,200.00 0 0 1 460.43,150.30" fill="none" stroke="#ff32d9" stroke-width="12.00"/><path d="M 459.91,149.83 A 200.00,200.00 0 0 1 463.03,152.64" fill="none" stroke="#ff32d6" stroke-width="12.00"/><path d="M 462.52,152.17 A 200.00,200.00 0 0 1 465.59,155.03" fill="none" stroke="#ff32d3" stroke-width="12.00"/><path d="M 465.08,154.55 A 200.00,200.00 0 0 1 468.11,157.46" fill="none" stroke="#ff32cf" stroke-width="12.00"/><path d="M 467.61,156.97 A 200.00,200.00 0 0 1 470.58,159.94" fill="none" stroke="#ff32cc" stroke-width="12.00"/><path d="M 470.09,159.44 A 200.00,200.00 0 0 1 473.01,162.46" fill="none" stroke="#ff32c8" stroke-width="12.00"/><path d="M 472.53,161.95 A 200.00,200.00 0 0 1 475.40,165.02" fill="none" stroke="#ff32c5" stroke-width="12.00"/><path d="M 474.93,164.50 A 200.00,200.00 0 0 1 477.74,167.62" fill="none" stroke="#ff32c2" stroke-width="12.00"/><path d="M 477.28,167.10 A 200.00,200.00 0 0 1 480.03,170.27" fill="none" stroke="#ff32be" stroke-width="12.00"/><path d="M 479.58,169.73 A 200.00,200.00 0 0 1 482.28,172.95" fill="none" stroke="#ff32bb" stroke-width="12.00"/><path d="M 481.84,172.41 A 200.00,200.00 0 0 1 484.48,175.67" fill="none" stroke="#ff32b7" stroke-width="12.00"/><path d="M 484.05,175.12 A 200.00,200.00 0 0 1 486.64,178.43" fill="none" stroke="#ff32b4" stroke-width="12.00"/><path d="M 486.21,177.88 A 200.00,200.00 0 0 1 488.74,181.23" fill="none" stroke="#ff32b0" stroke-width="12.00"/><path d="M 488.32,180.67 A 200.00,200.00 0 0 1 490.79,184.07" fill="none" stroke="#ff32ad" stroke-width="12.00"/><path d="M 490.39,183.50 A 200.00,200.00 0 0 1 492.80,186.93" fill="none" stroke="#ff32aa" stroke-width="12.00"/><path d="M 492.40,186.36 A 200.00,200.00 0 0 1 494.75,189.84" fill="none" stroke="#ff32a6" stroke-width="12.00"/><path d="M 494.37,189.26 A 200.00,200.00 0 0 1 496.66,192.78" fill="none" stroke="#ff32a3" stroke-width="12.00"/><path d="M 496.28,192.19 A 200.00,200.00 0 0 1 498.51,195.75" fill="none" stroke="#ff329f" stroke-width="12.00"/><path d="M 498.14,195.15 A 200.00,200.00 0 0 1 500.31,198.75" fill="none" stroke="#ff329c" stroke-width="12.00"/><path d="M 499.95,198.15 A 200.00,200.00 0 0 1 502.05,201.79" fill="none" stroke="#ff3299" stroke-width="12.00"/><path d="M 501.71,201.18 A 200.00,200.00 0 0 1 503.75,204.85" fill="none" stroke="#ff3295" stroke-width="12.00"/><path d="M 503.41,204.23 A 200.00,200.00 0 0 1 505.39,207.94" fill="none" stroke="#ff3292" stroke-width="12.00"/><path d="M 505.06,207.32 A 200.00,200.00 0 0 1 506.97,211.06" fill="none" stroke="#ff328e" stroke-width="12.00"/><path d="M 506.66,210.44 A 200.00,200.00 0 0 1 508.50,214.21" fill="none" stroke="#ff328b" stroke-width="12.00"/><path d="M 508.20,213.58 A 200.00,200.00 0 0 1 509.98,217.39" fill="none" stroke="#ff3288" stroke-width="12.00"/><path d="M 509.68,216.75 A 200.00,200.00 0 0 1 511.39,220.59" fill="none" stroke="#ff3284" stroke-width="12.00"/><path d="M 511.11,219.95 A 200.00,200.00 0 0 1 512.76,223.81" fill="none" stroke="#ff3281" stroke-width="12.00"/><path d="M 512.49,223.17 A 200.00,200.00 0 0 1 514.06,227.06" fill="none" stroke="#ff327d" stroke-width="12.00"/><path d="M 513.81,226.41 A 200.00,200.00 0 0 1 515.31,230.33" fill="none" stroke="#ff327a" stroke-width="12.00"/><path d="M 515.07,229.68 A 200.00,200.00 0 0 1 516.50,233.62" fill="none" stroke="#ff3276" stroke-width="12.00"/><path d="M 516.27,232.96 A 200.00,200.00 0 0 1 517.64,236.94" fill="none" stroke="#ff3273" stroke-width="12.00"/><path d="M 517.41,236.27 A 200.00,200.00 0 0 1 518.71,240.27" fill="none" stroke="#ff3270" stroke-width="12.00"/><path d="M 518.50,239.60 A 200.00,200.00 0 0 1 519.73,243.62" fill="none" stroke="#ff326c" stroke-width="12.00"/><path d="M 519.53,242.95 A 200.00,200.00 0 0 1 520.69,246.98" fill="none" stroke="#ff3269" stroke-width="12.00"/><path d="M 520.50,246.31 A 200.00,200.00 0 0 1 521.58,250.37" fill="none" stroke="#ff3265" stroke-width="12.00"/><path d="M 521.41,249.69 A 200.00,200.00 0 0 1 522.42,253.77" fill="none" stroke="#ff3262" stroke-width="12.00"/><path d="M 522.26,253.09 A 200.00,200.00 0 0 1 523.20,257.18" fill="none" stroke="#ff325f" stroke-width="12.00"/><path d="M 523.05,256.50 A 200.00,200.00 0 0 1 523.92,260.60" fill="none" stroke="#ff325b" stroke-width="12.00"/><path d="M 523.79,259.92 A 200.00,200.00 0 0 1 524.58,264.04" fill="none" stroke="#ff3258" stroke-width="12.00"/><path d="M 524.46,263.35 A 200.00,200.00 0 0 1 525.18,267.49" fill="none" stroke="#ff3254" stroke-width="12.00"/><path d="M 525.07,266.80 A 200.00,200.00 0 0 1 525.72,270.95" fill="none" stroke="#ff3251" stroke-width="12.00"/><path d="M 525.62,270.26 A 200.00,200.00 0 0 1 526.20,274.42" fill="none" stroke="#ff324e" stroke-width="12.00"/><path d="M 526.11,273.72 A 200.00,200.00 0 0 1 526.62,277.89" fill="none" stroke="#ff324a" stroke-width="12.00"/><path d="M 526.54,277.20 A 200.00,200.00 0 0 1 526.98,281.38" fill="none" stroke="#ff3247" stroke-width="12.00"/><path d="M 526.91,280.68 A 200.00,200.00 0 0 1 527.27,284.87" fill="none" stroke="#ff3243" stroke-width="12.00"/><path d="M 527.22,284.17 A 200.00,200.00 0 0 1 527.51,288.36" fill="none" stroke="#ff3240" stroke-width="12.00"/><circle cx="139.91" cy="231.63" r="6.00" fill="#32baff"/><circle cx="527.47" cy="287.66" r="6.00" fill="#ff323f"/><path d="M 515.79,368.44 A 200.00,200.00 0 0 1 514.31,372.37" fill="none" stroke="#ff7932" stroke-width="12.00"/><path d="M 514.56,371.72 A 200.00,200.00 0 0 1 513.02,375.62" fill="none" stroke="#ff7c32" stroke-width="12.00"/><path d="M 513.28,374.97 A 200.00,200.00 0 0 1 511.66,378.85" fill="none" stroke="#ff7f32" stroke-width="12.00"/><path d="M 511.94,378.21 A 200.00,200.00 0 0 1 510.26,382.06" fill="none" stroke="#ff8332" stroke-width="12.00"/><path d="M 510.54,381.42 A 200.00,200.00 0 0 1 508.79,385.24" fill="none" stroke="#ff8632" stroke-width="12.00"/><path d="M 509.09,384.60 A 200.00,200.00 0 0 1 507.27,388.39" fill="none" stroke="#ff8a32" stroke-width="12.00"/><path d="M 507.58,387.76 A 200.00,200.00 0 0 1 505.70,391.52" fill="none" stroke="#ff8d32" stroke-width="12.00"/><path d="M 506.02,390.90 A 200.00,200.00 0 0 1 504.07,394.62" fill="none" stroke="#ff9032" stroke-width="12.00"/><path d="M 504.40,394.00 A 200.00,200.00 0 0 1 502.39,397.69" fill="none" stroke="#ff9432" stroke-width="12.00"/><path d="M 502.73,397.08 A 200.00,200.00 0 0 1 500.65,400.73" fill="none" stroke="#ff9732" stroke-width="12.00"/><path d="M 501.00,400.12 A 200.00,200.00 0 0 1 498.86,403.74" fill="none" stroke="#ff9b32" stroke-width="12.00"/><path d="M 499.23,403.14 A 200.00,200.00 0 0 1 497.02,406.71" fill="none" stroke="#ff9e32" stroke-width="12.00"/><path d="M 497.40,406.12 A 200.00,200.00 0 0 1 495.13,409.66" fill="none" stroke="#ffa132" stroke-width="12.00"/><path d="M 495.51,409.07 A 200.00,200.00 0 0 1 493.19,412.57" fill="none" stroke="#ffa532" stroke-width="12.00"/><path d="M 493.58,411.99 A 200.00,200.00 0 0 1 491.19,415.45" fill="none" stroke="#ffa832" stroke-width="12.00"/><path d="M 491.59,414.87 A 200.00,200.00 0 0 1 489.15,418.29" fill="none" stroke="#ffac32" stroke-width="12.00"/><path d="M 489.56,417.72 A 200.00,200.00 0 0 1 487.05,421.09" fill="none" stroke="#ffaf32" stroke-width="12.00"/><path d="M 487.47,420.53 A 200.00,200.00 0 0 1 484.91,423.86" fill="none" stroke="#ffb332" stroke-width="12.00"/><path d="M 485.34,423.31 A 200.00,200.00 0 0 1 482.72,426.59" fill="none" stroke="#ffb632" stroke-width="12.00"/><path d="M 483.16,426.05 A 200.00,200.00 0 0 1 480.48,429.28" fill="none" stroke="#ffb932" stroke-width="12.00"/><path d="M 480.93,428.75 A 200.00,200.00 0 0 1 478.19,431.93" fill="none" stroke="#ffbd32" stroke-width="12.00"/><path d="M 478.65,431.41 A 200.00,200.00 0 0 1 475.86,434.55" fill="none" stroke="#ffc032" stroke-width="12.00"/><path d="M 476.33,434.03 A 200.00,200.00 0 0 1 473.48,437.12" fill="none" stroke="#ffc432" stroke-width="12.00"/><path d="M 473.96,436.60 A 200.00,200.00 0 0 1 471.06,439.64" fill="none" stroke="#ffc732" stroke-width="12.00"/><path d="M 471.55,439.14 A 200.00,200.00 0 0 1 468.60,442.13" fill="none" stroke="#ffca32" stroke-width="12.00"/><path d="M 469.09,441.63 A 200.00,200.00 0 0 1 466.09,444.57" fill="none" stroke="#ffce32" stroke-width="12.00"/><path d="M 466.59,444.09 A 200.00,200.00 0 0 1 463.54,446.97" fill="none" stroke="#ffd132" stroke-width="12.00"/><path d="M 464.05,446.49 A 200.00,200.00 0 0 1 460.94,449.32" fill="none" stroke="#ffd532" stroke-width="12.00"/><path d="M 461.47,448.85 A 200.00,200.00 0 0 1 458.31,451.63" fill="none" stroke="#ffd832" stroke-width="12.00"/><path d="M 458.84,451.17 A 200.00,200.00 0 0 1 455.64,453.89" fill="none" stroke="#ffdb32" stroke-width="12.00"/><path d="M 456.17,453.44 A 200.00,200.00 0 0 1 452.92,456.10" fill="none" stroke="#ffdf32" stroke-width="12.00"/><path d="M 453.47,455.66 A 200.00,200.00 0 0 1 450.17,458.27" fill="none" stroke="#ffe232" stroke-width="12.00"/><path d="M 450.73,457.84 A 200.00,200.00 0 0 1 447.39,460.38" fill="none" stroke="#ffe632" stroke-width="12.00"/><path d="M 447.95,459.96 A 200.00,200.00 0 0 1 444.56,462.45" fill="none" stroke="#ffe932" stroke-width="12.00"/><path d="M 445.13,462.04 A 200.00,200.00 0 0 1 441.70,464.47" fill="none" stroke="#ffec32" stroke-width="12.00"/><path d="M 442.27,464.07 A 200.00,200.00 0 0 1 438.80,466.44" fill="none" stroke="#fff032" stroke-width="12.00"/><path d="M 439.39,466.05 A 200.00,200.00 0 0 1 435.87,468.35" fill="none" stroke="#fff332" stroke-width="12.00"/><path d="M 436.46,467.97 A 200.00,200.00 0 0 1 432.91,470.22" fill="none" stroke="#fff732" stroke-width="12.00"/><path d="M 433.51,469.85 A 200.00,200.00 0 0 1 429.92,472.03" fill="none" stroke="#fffa32" stroke-width="12.00"/><path d="M 430.52,471.67 A 200.00,200.00 0 0 1 426.89,473.79" fill="none" stroke="#fffe32" stroke-width="12.00"/><path d="M 427.50,473.44 A 200.00,200.00 0 0 1 423.83,475.50" fill="none" stroke="#fcff32" stroke-width="12.00"/><path d="M 424.45,475.16 A 200.00,200.00 0 0 1 420.75,477.15" fill="none" stroke="#f9ff32" stroke-width="12.00"/><path d="M 421.37,476.82 A 200.00,200.00 0 0 1 417.63,478.75" fill="none" stroke="#f5ff32" stroke-width="12.00"/><path d="M 418.26,478.43 A 200.00,200.00 0 0 1 414.49,480.29" fill="none" stroke="#f2ff32" stroke-width="12.00"/><path d="M 415.12,479.99 A 200.00,200.00 0 0 1 411.32,481.78" fill="none" stroke="#eeff32" stroke-width="12.00"/><path d="M 411.96,481.49 A 200.00,200.00 0 0 1 408.13,483.21" fill="none" stroke="#ebff32" stroke-width="12.00"/><path d="M 408.77,482.93 A 200.00,200.00 0 0 1 404.91,484.59" fill="none" stroke="#e8ff32" stroke-width="12.00"/><path d="M 405.56,484.32 A 200.00,200.00 0 0 1 401.67,485.91" fill="none" stroke="#e4ff32" stroke-width="12.00"/><path d="M 402.32,485.65 A 200.00,200.00 0 0 1 398.41,487.18" fill="none" stroke="#e1ff32" stroke-width="12.00"/><path d="M 399.06,486.93 A 200.00,200.00 0 0 1 395.12,488.38" fill="none" stroke="#ddff32" stroke-width="12.00"/><path d="M 395.78,488.15 A 200.00,200.00 0 0 1 391.81,489.53" fill="none" stroke="#daff32" stroke-width="12.00"/><path d="M 392.48,489.31 A 200.00,200.00 0 0 1 388.49,490.62" fill="none" stroke="#d7ff32" stroke-width="12.00"/><path d="M 389.15,490.41 A 200.00,200.00 0 0 1 385.14,491.65" fill="none" stroke="#d3ff32" stroke-width="12.00"/><path d="M 385.81,491.45 A 200.00,200.00 0 0 1 381.78,492.63" fill="none" stroke="#d0ff32" stroke-width="12.00"/><path d="M 382.45,492.44 A 200.00,200.00 0 0 1 378.40,493.54" fill="none" stroke="#ccff32" stroke-width="12.00"/><path d="M 379.08,493.36 A 200.00,200.00 0 0 1 375.00,494.40" fill="none" stroke="#c9ff32" stroke-width="12.00"/><path d="M 375.68,494.23 A 200.00,200.00 0 0 1 371.59,495.19" fill="none" stroke="#c6ff32" stroke-width="12.00"/><path d="M 372.28,495.04 A 200.00,200.00 0 0 1 368.17,495.93" fill="none" stroke="#c2ff32" stroke-width="12.00"/><path d="M 368.86,495.79 A 200.00,200.00 0 0 1 364.74,496.60" fill="none" stroke="#bfff32" stroke-width="12.00"/><path d="M 365.43,496.47 A 200.00,200.00 0 0 1 361.29,497.22" fill="none" stroke="#bbff32" stroke-width="12.00"/><path d="M 361.98,497.10 A 200.00,200.00 0 0 1 357.83,497.77" fill="none" stroke="#b8ff32" stroke-width="12.00"/><path d="M 358.53,497.67 A 200.00,200.00 0 0 1 354.37,498.27" fill="none" stroke="#b4ff32" stroke-width="12.00"/><path d="M 355.06,498.17 A 200.00,200.00 0 0 1 350.90,498.70" fill="none" stroke="#b1ff32" stroke-width="12.00"/><path d="M 351.59,498.62 A 200.00,200.00 0 0 1 347.41,499.08" fill="none" stroke="#aeff32" stroke-width="12.00"/><path d="M 348.11,499.01 A 200.00,200.00 0 0 1 343.93,499.39" fill="none" stroke="#aaff32" stroke-width="12.00"/><path d="M 344.63,499.33 A 200.00,200.00 0 0 1 340.44,499.64" fill="none" stroke="#a7ff32" stroke-width="12.00"/><path d="M 341.13,499.59 A 200.00,200.00 0 0 1 336.94,499.83" fill="none" stroke="#a3ff32" stroke-width="12.00"/><path d="M 337.64,499.79 A 200.00,200.00 0 0 1 333.44,499.96" fill="none" stroke="#a0ff32" stroke-width="12.00"/><path d="M 334.14,499.94 A 200.00,200.00 0 0 1 329.94,500.02" fill="none" stroke="#9dff32" stroke-width="12.00"/><path d="M 330.64,500.02 A 200.00,200.00 0 0 1 326.44,500.03" fill="none" stroke="#99ff32" stroke-width="12.00"/><path d="M 327.14,500.03 A 200.00,200.00 0 0 1 322.94,499.97" fill="none" stroke="#96ff32" stroke-width="12.00"/><path d="M 323.64,499.99 A 200.00,200.00 0 0 1 319.44,499.86" fill="none" stroke="#92ff32" stroke-width="12.00"/><path d="M 320.14,499.89 A 200.00,200.00 0 0 1 315.95,499.68" fill="none" stroke="#8fff32" stroke-width="12.00"/><path d="M 316.64,499.72 A 200.00,200.00 0 0 1 312.45,499.44" fill="none" stroke="#8cff32" stroke-width="12.00"/><path d="M 313.15,499.49 A 200.00,200.00 0 0 1 308.97,499.14" fill="none" stroke="#88ff32" stroke-width="12.00"/><path d="M 309.66,499.21 A 200.00,200.00 0 0 1 305.48,498.78" fill="none" stroke="#85ff32" stroke-width="12.00"/><path d="M 306.18,498.86 A 200.00,200.00 0 0 1 302.01,498.36" fill="none" stroke="#81ff32" stroke-width="12.00"/><path d="M 302.70,498.45 A 200.00,200.00 0 0 1 298.54,497.88" fill="none" stroke="#7eff32" stroke-width="12.00"/><path d="M 299.23,497.98 A 200.00,200.00 0 0 1 295.08,497.33" fill="none" stroke="#7aff32" stroke-width="12.00"/><path d="M 295.77,497.45 A 200.00,200.00 0 0 1 291.63,496.73" fill="none" stroke="#77ff32" stroke-width="12.00"/><path d="M 292.32,496.85 A 200.00,200.00 0 0 1 288.20,496.06" fill="none" stroke="#74ff32" stroke-width="12.00"/><path d="M 288.88,496.20 A 200.00,200.00 0 0 1 284.77,495.34" fill="none" stroke="#70ff32" stroke-width="12.00"/><path d="M 285.46,495.49 A 200.00,200.00 0 0 1 281.36,494.56" fill="none" stroke="#6dff32" stroke-width="12.00"/><path d="M 282.04,494.72 A 200.00,200.00 0 0 1 277.96,493.71" fill="none" stroke="#69ff32" stroke-width="12.00"/><path d="M 278.64,493.89 A 200.00,200.00 0 0 1 274.58,492.81" fill="none" stroke="#66ff32" stroke-width="12.00"/><path d="M 275.26,493.00 A 200.00,200.00 0 0 1 271.21,491.85" fill="none" stroke="#63ff32" stroke-width="12.00"/><path d="M 271.89,492.05 A 200.00,200.00 0 0 1 267.87,490.83" fill="none" stroke="#5fff32" stroke-width="12.00"/><path d="M 268.53,491.04 A 200.00,200.00 0 0 1 264.54,489.75" fill="none" stroke="#5cff32" stroke-width="12.00"/><path d="M 265.20,489.97 A 200.00,200.00 0 0 1 261.22,488.61" fill="none" stroke="#58ff32" stroke-width="12.00"/><path d="M 261.89,488.84 A 200.00,200.00 0 0 1 257.93,487.42" fill="none" stroke="#55ff32" stroke-width="12.00"/><path d="M 258.59,487.66 A 200.00,200.00 0 0 1 254.67,486.16" fill="none" stroke="#52ff32" stroke-width="12.00"/><path d="M 255.32,486.42 A 200.00,200.00 0 0 1 251.42,484.85" fill="none" stroke="#4eff32" stroke-width="12.00"/><path d="M 252.07,485.12 A 200.00,200.00 0 0 1 248.20,483.49" fill="none" stroke="#4bff32" stroke-width="12.00"/><path d="M 248.84,483.77 A 200.00,200.00 0 0 1 245.00,482.07" fill="none" stroke="#47ff32" stroke-width="12.00"/><path d="M 245.63,482.35 A 200.00,200.00 0 0 1 241.82,480.59" fill="none" stroke="#44ff32" stroke-width="12.00"/><path d="M 242.46,480.89 A 200.00,200.00 0 0 1 238.68,479.05" fill="none" stroke="#41ff32" stroke-width="12.00"/><path d="M 239.30,479.37 A 200.00,200.00 0 0 1 235.56,477.47" fill="none" stroke="#3dff32" stroke-width="12.00"/><path d="M 236.18,477.79 A 200.00,200.00 0 0 1 232.46,475.82" fill="none" stroke="#3aff32" stroke-width="12.00"/><path d="M 233.08,476.16 A 200.00,200.00 0 0 1 229.40,474.13" fill="none" stroke="#36ff32" stroke-width="12.00"/><path d="M 230.01,474.47 A 200.00,200.00 0 0 1 226.37,472.38" fill="none" stroke="#33ff32" stroke-width="12.00"/><path d="M 226.97,472.73 A 200.00,200.00 0 0 1 223.37,470.57" fill="none" stroke="#32ff36" stroke-width="12.00"/><path d="M 223.97,470.94 A 200.00,200.00 0 0 1 220.40,468.72" fill="none" stroke="#32ff39" stroke-width="12.00"/><path d="M 220.99,469.09 A 200.00,200.00 0 0 1 217.46,466.81" fill="none" stroke="#32ff3c" stroke-width="12.00"/><path d="M 218.05,467.20 A 200.00,200.00 0 0 1 214.56,464.86" fill="none" stroke="#32ff40" stroke-width="12.00"/><path d="M 215.14,465.25 A 200.00,200.00 0 0 1 211.69,462.85" fill="none" stroke="#32ff43" stroke-width="12.00"/><path d="M 212.27,463.25 A 200.00,200.00 0 0 1 208.86,460.79" fill="none" stroke="#32ff47" stroke-width="12.00"/><path d="M 209.43,461.20 A 200.00,200.00 0 0 1 206.07,458.68" fill="none" stroke="#32ff4a" stroke-width="12.00"/><path d="M 206.62,459.11 A 200.00,200.00 0 0 1 203.31,456.53" fill="none" stroke="#32ff4d" stroke-width="12.00"/><path d="M 203.86,456.96 A 200.00,200.00 0 0 1 200.59,454.32" fill="none" stroke="#32ff51" stroke-width="12.00"/><path d="M 201.13,454.77 A 200.00,200.00 0 0 1 197.91,452.07" fill="none" stroke="#32ff54" stroke-width="12.00"/><path d="M 198.44,452.53 A 200.00,200.00 0 0 1 195.27,449.77" fill="none" stroke="#32ff58" stroke-width="12.00"/><path d="M 195.79,450.24 A 200.00,200.00 0 0 1 192.67,447.43" fill="none" stroke="#32ff5b" stroke-width="12.00"/><path d="M 193.18,447.90 A 200.00,200.00 0 0 1 190.11,445.04" fill="none" stroke="#32ff5e" stroke-width="12.00"/><path d="M 190.62,445.52 A 200.00,200.00 0 0 1 187.59,442.61" fill="none" stroke="#32ff62" stroke-width="12.00"/><path d="M 188.09,443.10 A 200.00,200.00 0 0 1 185.12,440.13" fill="none" stroke="#32ff65" stroke-width="12.00"/><path d="M 185.61,440.63 A 200.00,200.00 0 0 1 182.69,437.61" fill="none" stroke="#32ff69" stroke-width="12.00"/><path d="M 183.17,438.12 A 200.00,200.00 0 0 1 180.30,435.05" fill="none" stroke="#32ff6c" stroke-width="12.00"/><path d="M 180.77,435.57 A 200.00,200.00 0 0 1 177.96,432.45" fill="none" stroke="#32ff6f" stroke-width="12.00"/><path d="M 178.42,432.97 A 200.00,200.00 0 0 1 175.67,429.80" fill="none" stroke="#32ff73" stroke-width="12.00"/><path d="M 176.12,430.33 A 200.00,200.00 0 0 1 173.42,427.12" fill="none" stroke="#32ff76" stroke-width="12.00"/><path d="M 173.86,427.66 A 200.00,200.00 0 0 1 171.22,424.40" fill="none" stroke="#32ff7a" stroke-width="12.00"/><path d="M 171.65,424.94 A 200.00,200.00 0 0 1 169.06,421.64" fill="none" stroke="#32ff7d" stroke-width="12.00"/><path d="M 169.49,422.19 A 200.00,200.00 0 0 1 166.96,418.84" fill="none" stroke="#32ff81" stroke-width="12.00"/><path d="M 167.38,419.40 A 200.00,200.00 0 0 1 164.90,416.00" fill="none" stroke="#32ff84" stroke-width="12.00"/><path d="M 165.31,416.57 A 200.00,200.00 0 0 1 162.90,413.13" fill="none" stroke="#32ff87" stroke-width="12.00"/><path d="M 163.30,413.71 A 200.00,200.00 0 0 1 160.95,410.23" fill="none" stroke="#32ff8b" stroke-width="12.00"/><path d="M 161.33,410.81 A 200.00,200.00 0 0 1 159.04,407.29" fill="none" stroke="#32ff8e" stroke-width="12.00"/><path d="M 159.42,407.88 A 200.00,200.00 0 0 1 157.19,404.32" fill="none" stroke="#32ff92" stroke-width="12.00"/><path d="M 157.56,404.92 A 200.00,200.00 0 0 1 155.39,401.32" fill="none" stroke="#32ff95" stroke-width="12.00"/><path d="M 155.75,401.92 A 200.00,200.00 0 0 1 153.65,398.28" fill="none" stroke="#32ff98" stroke-width="12.00"/><path d="M 153.99,398.89 A 200.00,200.00 0 0 1 151.95,395.22" fill="none" stroke="#32ff9c" stroke-width="12.00"/><path d="M 152.29,395.83 A 200.00,200.00 0 0 1 150.31,392.13" fill="none" stroke="#32ff9f" stroke-width="12.00"/><path d="M 150.64,392.75 A 200.00,200.00 0 0 1 148.73,389.00" fill="none" stroke="#32ffa3" stroke-width="12.00"/><path d="M 149.04,389.63 A 200.00,200.00 0 0 1 147.20,385.86" fill="none" stroke="#32ffa6" stroke-width="12.00"/><path d="M 147.50,386.49 A 200.00,200.00 0 0 1 145.72,382.68" fill="none" stroke="#32ffa9" stroke-width="12.00"/><path d="M 146.02,383.32 A 200.00,200.00 0 0 1 144.31,379.48" fill="none" stroke="#32ffad" stroke-width="12.00"/><path d="M 144.59,380.12 A 200.00,200.00 0 0 1 142.94,376.26" fill="none" stroke="#32ffb0" stroke-width="12.00"/><path d="M 143.21,376.90 A 200.00,200.00 0 0 1 141.64,373.01" fill="none" stroke="#32ffb4" stroke-width="12.00"/><path d="M 141.89,373.66 A 200.00,200.00 0 0 1 140.39,369.74" fill="none" stroke="#32ffb7" stroke-width="12.00"/><path d="M 140.63,370.39 A 200.00,200.00 0 0 1 139.20,366.45" fill="none" stroke="#32ffbb" stroke-width="12.00"/><path d="M 139.43,367.11 A 200.00,200.00 0 0 1 138.06,363.13" fill="none" stroke="#32ffbe" stroke-width="12.00"/><path d="M 138.29,363.80 A 200.00,200.00 0 0 1 136.99,359.80" fill="none" stroke="#32ffc1" stroke-width="12.00"/><path d="M 137.20,360.47 A 200.00,200.00 0 0 1 135.97,356.45" fill="none" stroke="#32ffc5" stroke-width="12.00"/><path d="M 136.17,357.12 A 200.00,200.00 0 0 1 135.01,353.08" fill="none" stroke="#32ffc8" stroke-width="12.00"/><path d="M 135.20,353.76 A 200.00,200.00 0 0 1 134.12,349.70" fill="none" stroke="#32ffcc" stroke-width="12.00"/><path d="M 134.29,350.38 A 200.00,200.00 0 0 1 133.28,346.30" fill="none" stroke="#32ffcf" stroke-width="12.00"/><path d="M 133.44,346.98 A 200.00,200.00 0 0 1 132.50,342.89" fill="none" stroke="#32ffd2" stroke-width="12.00"/><path d="M 132.65,343.57 A 200.00,200.00 0 0 1 131.78,339.46" fill="none" stroke="#32ffd6" stroke-width="12.00"/><path d="M 131.91,340.15 A 200.00,200.00 0 0 1 131.12,336.03" fill="none" stroke="#32ffd9" stroke-width="12.00"/><path d="M 131.24,336.71 A 200.00,200.00 0 0 1 130.52,332.58" fill="none" stroke="#32ffdd" stroke-width="12.00"/><path d="M 130.63,333.27 A 200.00,200.00 0 0 1 129.98,329.12" fill="none" stroke="#32ffe0" stroke-width="12.00"/><path d="M 130.08,329.81 A 200.00,200.00 0 0 1 129.50,325.65" fill="none" stroke="#32ffe3" stroke-width="12.00"/><path d="M 129.59,326.34 A 200.00,200.00 0 0 1 129.08,322.17" fill="none" stroke="#32ffe7" stroke-width="12.00"/><path d="M 129.16,322.87 A 200.00,200.00 0 0 1 128.72,318.69" fill="none" stroke="#32ffea" stroke-width="12.00"/><path d="M 128.79,319.39 A 200.00,200.00 0 0 1 128.43,315.20" fill="none" stroke="#32ffee" stroke-width="12.00"/><path d="M 128.48,315.90 A 200.00,200.00 0 0 1 128.19,311.71" fill="none" stroke="#32fff1" stroke-width="12.00"/><circle cx="515.79" cy="368.44" r="6.00" fill="#ff7632"/><circle cx="128.23" cy="312.41" r="6.00" fill="#32fff2"/><line x1="287.04" y1="531.46" x2="274.81" y2="600.83" stroke="#ff3232" stroke-width="8.00" stroke-linecap="round"/><line x1="258.36" y1="524.52" x2="240.45" y2="582.38" stroke="#ff4b32" stroke-width="8.00" stroke-linecap="round"/><line x1="230.77" y1="514.05" x2="211.04" y2="557.54" stroke="#ff6332" stroke-width="8.00" stroke-linecap="round"/><line x1="204.71" y1="500.19" x2="163.70" y2="566.85" stroke="#ff7c32" stroke-width="8.00" stroke-linecap="round"/><line x1="180.60" y1="483.18" x2="117.06" y2="562.20" stroke="#ff9432" stroke-width="8.00" stroke-linecap="round"/><line x1="158.81" y1="463.28" x2="124.80" y2="496.11" stroke="#ffad32" stroke-width="8.00" stroke-linecap="round"/><line x1="139.68" y1="440.81" x2="89.42" y2="478.40" stroke="#ffc532" stroke-width="8.00" stroke-linecap="round"/><line x1="123.52" y1="416.11" x2="34.48" y2="466.69" stroke="#ffde32" stroke-width="8.00" stroke-linecap="round"/><line x1="110.58" y1="389.59" x2="12.51" y2="430.01" stroke="#fff632" stroke-width="8.00" stroke-linecap="round"/><line x1="101.07" y1="361.65" x2="56.34" y2="373.80" stroke="#eeff32" stroke-width="8.00" stroke-linecap="round"/><line x1="95.14" y1="332.74" x2="77.14" y2="335.27" stroke="#d6ff32" stroke-width="8.00" stroke-linecap="round"/><line x1="92.87" y1="303.32" x2="61.82" y2="303.75" stroke="#bdff32" stroke-width="8.00" stroke-linecap="round"/><line x1="94.31" y1="273.84" x2="76.07" y2="271.79" stroke="#a5ff32" stroke-width="8.00" stroke-linecap="round"/><line x1="99.44" y1="244.78" x2="56.60" y2="234.41" stroke="#8cff32" stroke-width="8.00" stroke-linecap="round"/><line x1="108.17" y1="216.58" x2="65.70" y2="200.45" stroke="#74ff32" stroke-width="8.00" stroke-linecap="round"/><line x1="120.36" y1="189.71" x2="54.15" y2="154.51" stroke="#5bff32" stroke-width="8.00" stroke-linecap="round"/><line x1="135.82" y1="164.57" x2="61.58" y2="112.20" stroke="#43ff32" stroke-width="8.00" stroke-linecap="round"/><line x1="154.31" y1="141.57" x2="134.99" y2="123.93" stroke="#32ff3b" stroke-width="8.00" stroke-linecap="round"/><line x1="175.54" y1="121.07" x2="161.26" y2="104.29" stroke="#32ff53" stroke-width="8.00" stroke-linecap="round"/><line x1="199.17" y1="103.39" x2="180.59" y2="75.00" stroke="#32ff6c" stroke-width="8.00" stroke-linecap="round"/><line x1="224.83" y1="88.82" x2="214.34" y2="67.30" stroke="#32ff84" stroke-width="8.00" stroke-linecap="round"/><line x1="252.12" y1="77.57" x2="238.38" y2="37.20" stroke="#32ff9d" stroke-width="8.00" stroke-linecap="round"/><line x1="280.60" y1="69.83" x2="273.84" y2="36.93" stroke="#32ffb5" stroke-width="8.00" stroke-linecap="round"/><line x1="309.82" y1="65.73" x2="307.84" y2="39.99" stroke="#32ffce" stroke-width="8.00" stroke-linecap="round"/><line x1="339.33" y1="65.32" x2="340.38" y2="43.90" stroke="#32ffe6" stroke-width="8.00" stroke-linecap="round"/><line x1="368.66" y1="68.60" x2="378.99" y2="10.00" stroke="#32ffff" stroke-width="8.00" stroke-linecap="round"/><line x1="397.34" y1="75.54" x2="408.01" y2="41.07" stroke="#32e6ff" stroke-width="8.00" stroke-linecap="round"/><line x1="424.93" y1="86.02" x2="435.62" y2="62.47" stroke="#32ceff" stroke-width="8.00" stroke-linecap="round"/><line x1="450.99" y1="99.88" x2="504.40" y2="13.05" stroke="#32b5ff" stroke-width="8.00" stroke-linecap="round"/><line x1="475.10" y1="116.89" x2="515.63" y2="66.48" stroke="#329dff" stroke-width="8.00" stroke-linecap="round"/><line x1="496.89" y1="136.79" x2="537.10" y2="97.97" stroke="#3284ff" stroke-width="8.00" stroke-linecap="round"/><line x1="516.02" y1="159.26" x2="565.82" y2="122.01" stroke="#326cff" stroke-width="8.00" stroke-linecap="round"/><line x1="532.18" y1="183.96" x2="561.88" y2="167.09" stroke="#3253ff" stroke-width="8.00" stroke-linecap="round"/><line x1="545.12" y1="210.48" x2="576.32" y2="197.62" stroke="#323bff" stroke-width="8.00" stroke-linecap="round"/><line x1="554.63" y1="238.42" x2="589.88" y2="228.84" stroke="#4332ff" stroke-width="8.00" stroke-linecap="round"/><line x1="560.56" y1="267.33" x2="598.32" y2="262.02" stroke="#5b32ff" stroke-width="8.00" stroke-linecap="round"/><line x1="562.83" y1="296.75" x2="590.80" y2="296.36" stroke="#7432ff" stroke-width="8.00" stroke-linecap="round"/><line x1="561.39" y1="326.23" x2="592.38" y2="329.71" stroke="#8c32ff" stroke-width="8.00" stroke-linecap="round"/><line x1="556.26" y1="355.29" x2="581.48" y2="361.39" stroke="#a532ff" stroke-width="8.00" stroke-linecap="round"/><line x1="547.53" y1="383.48" x2="566.48" y2="390.68" stroke="#bd32ff" stroke-width="8.00" stroke-linecap="round"/><line x1="535.34" y1="410.36" x2="551.52" y2="418.96" stroke="#d632ff" stroke-width="8.00" stroke-linecap="round"/><line x1="519.88" y1="435.50" x2="530.21" y2="442.78" stroke="#ee32ff" stroke-width="8.00" stroke-linecap="round"/><line x1="501.39" y1="458.50" x2="514.83" y2="470.77" stroke="#ff32f6" stroke-width="8.00" stroke-linecap="round"/><line x1="480.16" y1="479.00" x2="487.93" y2="488.13" stroke="#ff32de" stroke-width="8.00" stroke-linecap="round"/><line x1="456.53" y1="496.67" x2="464.52" y2="508.88" stroke="#ff32c5" stroke-width="8.00" stroke-linecap="round"/><line x1="430.87" y1="511.25" x2="438.41" y2="526.72" stroke="#ff32ad" stroke-width="8.00" stroke-linecap="round"/><line x1="403.58" y1="522.50" x2="407.38" y2="533.64" stroke="#ff3294" stroke-width="8.00" stroke-linecap="round"/><line x1="375.10" y1="530.23" x2="377.11" y2="540.03" stroke="#ff327c" stroke-width="8.00" stroke-linecap="round"/><line x1="345.88" y1="534.34" x2="346.65" y2="544.31" stroke="#ff3263" stroke-width="8.00" stroke-linecap="round"/><line x1="316.37" y1="534.75" x2="315.88" y2="544.74" stroke="#ff324b" stroke-width="8.00" stroke-linecap="round"/></svg>