<svg width="800" height="800" viewBox="0 0 871.7 871.7" xmlns="http://www.w3.org/2000/svg"><circle cx="455.61" cy="382.12" r="174.75" fill="none" stroke="#000000" stroke-width="14"/><line x1="619.94" y1="287.24" x2="637.26" y2="277.24" stroke="#000000" stroke-width="23.88" stroke-linecap="round"/><line x1="663.24" y1="262.24" x2="679.61" y2="252.79" stroke="#000000" stroke-width="23.88" stroke-linecap="round"/><line x1="632.76" y1="314.12" x2="651.43" y2="306.95" stroke="#000000" stroke-width="23.88" stroke-linecap="round"/><line x1="679.44" y1="296.20" x2="698.11" y2="289.03" stroke="#000000" stroke-width="23.88" stroke-linecap="round"/><line x1="641.21" y1="342.67" x2="660.78" y2="338.51" stroke="#000000" stroke-width="23.88" stroke-linecap="round"/><line x1="690.12" y1="332.27" x2="709.68" y2="328.12" stroke="#000000" stroke-width="23.88" stroke-linecap="round"/><line x1="739.03" y1="321.88" x2="758.59" y2="317.72" stroke="#000000" stroke-width="23.88" stroke-linecap="round"/><line x1="787.94" y1="311.48" x2="805.33" y2="307.79" stroke="#000000" stroke-width="23.88" stroke-linecap="round"/><line x1="645.10" y1="372.19" x2="665.07" y2="371.14" stroke="#000000" stroke-width="23.88" stroke-linecap="round"/><line x1="695.03" y1="369.57" x2="715.00" y2="368.53" stroke="#000000" stroke-width="23.88" stroke-linecap="round"/><line x1="744.96" y1="366.96" x2="764.94" y2="365.91" stroke="#000000" stroke-width="23.88" stroke-linecap="round"/><line x1="794.89" y1="364.34" x2="814.87" y2="363.29" stroke="#000000" stroke-width="23.88" stroke-linecap="round"/><line x1="844.83" y1="361.72" x2="859.78" y2="360.94" stroke="#000000" stroke-width="23.88" stroke-linecap="round"/><line x1="644.32" y1="401.96" x2="664.21" y2="404.05" stroke="#000000" stroke-width="23.88" stroke-linecap="round"/><line x1="694.05" y1="407.18" x2="713.94" y2="409.27" stroke="#000000" stroke-width="23.88" stroke-linecap="round"/><line x1="743.77" y1="412.41" x2="763.66" y2="414.50" stroke="#000000" stroke-width="23.88" stroke-linecap="round"/><line x1="638.89" y1="431.23" x2="658.21" y2="436.41" stroke="#000000" stroke-width="23.88" stroke-linecap="round"/><line x1="687.19" y1="444.17" x2="706.51" y2="449.35" stroke="#000000" stroke-width="23.88" stroke-linecap="round"/><line x1="735.49" y1="457.12" x2="754.81" y2="462.29" stroke="#000000" stroke-width="23.88" stroke-linecap="round"/><line x1="628.96" y1="459.30" x2="647.23" y2="467.44" stroke="#000000" stroke-width="23.88" stroke-linecap="round"/><line x1="674.63" y1="479.64" x2="692.90" y2="487.77" stroke="#000000" stroke-width="23.88" stroke-linecap="round"/><line x1="720.31" y1="499.98" x2="738.58" y2="508.11" stroke="#000000" stroke-width="23.88" stroke-linecap="round"/><line x1="765.99" y1="520.31" x2="784.26" y2="528.45" stroke="#000000" stroke-width="23.88" stroke-linecap="round"/><line x1="614.75" y1="485.47" x2="631.52" y2="496.36" stroke="#000000" stroke-width="23.88" stroke-linecap="round"/><line x1="656.68" y1="512.70" x2="673.45" y2="523.59" stroke="#000000" stroke-width="23.88" stroke-linecap="round"/><line x1="698.61" y1="539.93" x2="715.39" y2="550.83" stroke="#000000" stroke-width="23.88" stroke-linecap="round"/><line x1="740.55" y1="567.16" x2="757.32" y2="578.06" stroke="#000000" stroke-width="23.88" stroke-linecap="round"/><line x1="596.62" y1="509.09" x2="611.48" y2="522.47" stroke="#000000" stroke-width="23.88" stroke-linecap="round"/><line x1="633.78" y1="542.55" x2="643.97" y2="551.72" stroke="#000000" stroke-width="23.88" stroke-linecap="round"/><line x1="575.02" y1="529.59" x2="587.61" y2="545.13" stroke="#000000" stroke-width="23.88" stroke-linecap="round"/><line x1="606.49" y1="568.45" x2="619.08" y2="583.99" stroke="#000000" stroke-width="23.88" stroke-linecap="round"/><line x1="637.95" y1="607.30" x2="650.54" y2="622.85" stroke="#000000" stroke-width="23.88" stroke-linecap="round"/><line x1="550.48" y1="546.45" x2="560.48" y2="563.77" stroke="#000000" stroke-width="23.88" stroke-linecap="round"/><line x1="575.48" y1="589.75" x2="585.48" y2="607.07" stroke="#000000" stroke-width="23.88" stroke-linecap="round"/><line x1="600.48" y1="633.06" x2="610.48" y2="650.38" stroke="#000000" stroke-width="23.88" stroke-linecap="round"/><line x1="625.48" y1="676.36" x2="635.48" y2="693.68" stroke="#000000" stroke-width="23.88" stroke-linecap="round"/><line x1="650.48" y1="719.66" x2="658.68" y2="733.86" stroke="#000000" stroke-width="23.88" stroke-linecap="round"/><line x1="523.61" y1="559.27" x2="530.78" y2="577.94" stroke="#000000" stroke-width="23.88" stroke-linecap="round"/><line x1="541.53" y1="605.95" x2="548.69" y2="624.62" stroke="#000000" stroke-width="23.88" stroke-linecap="round"/><line x1="559.45" y1="652.63" x2="566.61" y2="671.30" stroke="#000000" stroke-width="23.88" stroke-linecap="round"/><line x1="495.06" y1="567.73" x2="499.22" y2="587.29" stroke="#000000" stroke-width="23.88" stroke-linecap="round"/><line x1="505.45" y1="616.64" x2="509.61" y2="636.20" stroke="#000000" stroke-width="23.88" stroke-linecap="round"/><line x1="515.85" y1="665.54" x2="516.69" y2="669.49" stroke="#000000" stroke-width="23.88" stroke-linecap="round"/><line x1="465.54" y1="571.62" x2="466.58" y2="591.59" stroke="#000000" stroke-width="23.88" stroke-linecap="round"/><line x1="468.15" y1="621.55" x2="469.20" y2="641.52" stroke="#000000" stroke-width="23.88" stroke-linecap="round"/><line x1="470.77" y1="671.48" x2="471.82" y2="691.45" stroke="#000000" stroke-width="23.88" stroke-linecap="round"/><line x1="473.39" y1="721.41" x2="474.43" y2="741.38" stroke="#000000" stroke-width="23.88" stroke-linecap="round"/><line x1="476.00" y1="771.34" x2="477.05" y2="791.31" stroke="#000000" stroke-width="23.88" stroke-linecap="round"/><line x1="435.77" y1="570.84" x2="433.68" y2="590.73" stroke="#000000" stroke-width="23.88" stroke-linecap="round"/><line x1="430.55" y1="620.56" x2="428.46" y2="640.45" stroke="#000000" stroke-width="23.88" stroke-linecap="round"/><line x1="425.32" y1="670.29" x2="423.23" y2="690.18" stroke="#000000" stroke-width="23.88" stroke-linecap="round"/><line x1="420.09" y1="720.01" x2="418.94" y2="730.96" stroke="#000000" stroke-width="23.88" stroke-linecap="round"/><line x1="406.50" y1="565.41" x2="401.32" y2="584.73" stroke="#000000" stroke-width="23.88" stroke-linecap="round"/><line x1="393.55" y1="613.71" x2="388.38" y2="633.02" stroke="#000000" stroke-width="23.88" stroke-linecap="round"/><line x1="380.61" y1="662.00" x2="375.44" y2="681.32" stroke="#000000" stroke-width="23.88" stroke-linecap="round"/><line x1="367.67" y1="710.30" x2="362.50" y2="729.62" stroke="#000000" stroke-width="23.88" stroke-linecap="round"/><line x1="354.73" y1="758.59" x2="349.55" y2="777.91" stroke="#000000" stroke-width="23.88" stroke-linecap="round"/><line x1="378.43" y1="555.47" x2="370.29" y2="573.74" stroke="#000000" stroke-width="23.88" stroke-linecap="round"/><line x1="358.09" y1="601.15" x2="349.96" y2="619.42" stroke="#000000" stroke-width="23.88" stroke-linecap="round"/><line x1="337.75" y1="646.82" x2="329.62" y2="665.10" stroke="#000000" stroke-width="23.88" stroke-linecap="round"/><line x1="317.42" y1="692.50" x2="309.28" y2="710.77" stroke="#000000" stroke-width="23.88" stroke-linecap="round"/><line x1="297.08" y1="738.18" x2="288.95" y2="756.45" stroke="#000000" stroke-width="23.88" stroke-linecap="round"/><line x1="352.26" y1="541.26" x2="341.37" y2="558.04" stroke="#000000" stroke-width="23.88" stroke-linecap="round"/><line x1="325.03" y1="583.20" x2="314.13" y2="599.97" stroke="#000000" stroke-width="23.88" stroke-linecap="round"/><line x1="328.64" y1="523.14" x2="315.25" y2="538.00" stroke="#000000" stroke-width="23.88" stroke-linecap="round"/><line x1="295.18" y1="560.29" x2="281.80" y2="575.16" stroke="#000000" stroke-width="23.88" stroke-linecap="round"/><line x1="261.72" y1="597.45" x2="251.57" y2="608.73" stroke="#000000" stroke-width="23.88" stroke-linecap="round"/><line x1="308.14" y1="501.54" x2="292.60" y2="514.12" stroke="#000000" stroke-width="23.88" stroke-linecap="round"/><line x1="269.28" y1="533.00" x2="253.74" y2="545.59" stroke="#000000" stroke-width="23.88" stroke-linecap="round"/><line x1="230.43" y1="564.47" x2="214.88" y2="577.06" stroke="#000000" stroke-width="23.88" stroke-linecap="round"/><line x1="291.28" y1="477.00" x2="273.95" y2="487.00" stroke="#000000" stroke-width="23.88" stroke-linecap="round"/><line x1="247.97" y1="502.00" x2="230.65" y2="512.00" stroke="#000000" stroke-width="23.88" stroke-linecap="round"/><line x1="278.46" y1="450.12" x2="259.79" y2="457.29" stroke="#000000" stroke-width="23.88" stroke-linecap="round"/><line x1="231.78" y1="468.04" x2="213.11" y2="475.21" stroke="#000000" stroke-width="23.88" stroke-linecap="round"/><line x1="185.10" y1="485.96" x2="166.43" y2="493.13" stroke="#000000" stroke-width="23.88" stroke-linecap="round"/><line x1="270.00" y1="421.57" x2="250.44" y2="425.73" stroke="#000000" stroke-width="23.88" stroke-linecap="round"/><line x1="221.09" y1="431.97" x2="201.53" y2="436.13" stroke="#000000" stroke-width="23.88" stroke-linecap="round"/><line x1="172.19" y1="442.36" x2="152.62" y2="446.52" stroke="#000000" stroke-width="23.88" stroke-linecap="round"/><line x1="266.11" y1="392.05" x2="246.14" y2="393.10" stroke="#000000" stroke-width="23.88" stroke-linecap="round"/><line x1="216.18" y1="394.67" x2="196.21" y2="395.72" stroke="#000000" stroke-width="23.88" stroke-linecap="round"/><line x1="166.25" y1="397.29" x2="146.28" y2="398.33" stroke="#000000" stroke-width="23.88" stroke-linecap="round"/><line x1="116.32" y1="399.90" x2="96.35" y2="400.95" stroke="#000000" stroke-width="23.88" stroke-linecap="round"/><line x1="66.39" y1="402.52" x2="46.41" y2="403.57" stroke="#000000" stroke-width="23.88" stroke-linecap="round"/><line x1="266.89" y1="362.29" x2="247.00" y2="360.20" stroke="#000000" stroke-width="23.88" stroke-linecap="round"/><line x1="217.17" y1="357.06" x2="197.28" y2="354.97" stroke="#000000" stroke-width="23.88" stroke-linecap="round"/><line x1="167.44" y1="351.83" x2="147.55" y2="349.74" stroke="#000000" stroke-width="23.88" stroke-linecap="round"/><line x1="117.71" y1="346.61" x2="97.82" y2="344.52" stroke="#000000" stroke-width="23.88" stroke-linecap="round"/><line x1="67.99" y1="341.38" x2="48.10" y2="339.29" stroke="#000000" stroke-width="23.88" stroke-linecap="round"/><line x1="272.32" y1="333.01" x2="253.00" y2="327.83" stroke="#000000" stroke-width="23.88" stroke-linecap="round"/><line x1="224.02" y1="320.07" x2="204.70" y2="314.89" stroke="#000000" stroke-width="23.88" stroke-linecap="round"/><line x1="175.73" y1="307.13" x2="156.41" y2="301.95" stroke="#000000" stroke-width="23.88" stroke-linecap="round"/><line x1="127.43" y1="294.19" x2="108.11" y2="289.01" stroke="#000000" stroke-width="23.88" stroke-linecap="round"/><line x1="79.13" y1="281.25" x2="59.82" y2="276.07" stroke="#000000" stroke-width="23.88" stroke-linecap="round"/><line x1="30.84" y1="268.31" x2="11.94" y2="263.24" stroke="#000000" stroke-width="23.88" stroke-linecap="round"/><line x1="282.26" y1="304.94" x2="263.99" y2="296.81" stroke="#000000" stroke-width="23.88" stroke-linecap="round"/><line x1="236.58" y1="284.61" x2="218.31" y2="276.47" stroke="#000000" stroke-width="23.88" stroke-linecap="round"/><line x1="190.90" y1="264.27" x2="172.63" y2="256.13" stroke="#000000" stroke-width="23.88" stroke-linecap="round"/><line x1="145.23" y1="243.93" x2="131.56" y2="237.85" stroke="#000000" stroke-width="23.88" stroke-linecap="round"/><line x1="296.47" y1="278.77" x2="279.69" y2="267.88" stroke="#000000" stroke-width="23.88" stroke-linecap="round"/><line x1="254.53" y1="251.54" x2="237.76" y2="240.65" stroke="#000000" stroke-width="23.88" stroke-linecap="round"/><line x1="212.60" y1="224.31" x2="195.83" y2="213.42" stroke="#000000" stroke-width="23.88" stroke-linecap="round"/><line x1="314.59" y1="255.15" x2="299.73" y2="241.77" stroke="#000000" stroke-width="23.88" stroke-linecap="round"/><line x1="277.44" y1="221.70" x2="262.57" y2="208.31" stroke="#000000" stroke-width="23.88" stroke-linecap="round"/><line x1="240.28" y1="188.24" x2="225.42" y2="174.86" stroke="#000000" stroke-width="23.88" stroke-linecap="round"/><line x1="336.19" y1="234.66" x2="323.60" y2="219.11" stroke="#000000" stroke-width="23.88" stroke-linecap="round"/><line x1="304.73" y1="195.80" x2="292.14" y2="180.26" stroke="#000000" stroke-width="23.88" stroke-linecap="round"/><line x1="360.73" y1="217.79" x2="350.73" y2="200.47" stroke="#000000" stroke-width="23.88" stroke-linecap="round"/><line x1="335.73" y1="174.49" x2="325.73" y2="157.17" stroke="#000000" stroke-width="23.88" stroke-linecap="round"/><line x1="387.61" y1="204.97" x2="380.44" y2="186.30" stroke="#000000" stroke-width="23.88" stroke-linecap="round"/><line x1="369.69" y1="158.29" x2="362.52" y2="139.62" stroke="#000000" stroke-width="23.88" stroke-linecap="round"/><line x1="351.77" y1="111.61" x2="347.34" y2="100.07" stroke="#000000" stroke-width="23.88" stroke-linecap="round"/><line x1="416.15" y1="196.51" x2="412.00" y2="176.95" stroke="#000000" stroke-width="23.88" stroke-linecap="round"/><line x1="405.76" y1="147.61" x2="401.60" y2="128.04" stroke="#000000" stroke-width="23.88" stroke-linecap="round"/><line x1="445.68" y1="192.63" x2="444.63" y2="172.66" stroke="#000000" stroke-width="23.88" stroke-linecap="round"/><line x1="443.06" y1="142.70" x2="442.01" y2="122.72" stroke="#000000" stroke-width="23.88" stroke-linecap="round"/><line x1="475.44" y1="193.41" x2="477.53" y2="173.52" stroke="#000000" stroke-width="23.88" stroke-linecap="round"/><line x1="480.67" y1="143.68" x2="482.76" y2="123.79" stroke="#000000" stroke-width="23.88" stroke-linecap="round"/><line x1="504.72" y1="198.83" x2="509.90" y2="179.52" stroke="#000000" stroke-width="23.88" stroke-linecap="round"/><line x1="517.66" y1="150.54" x2="522.84" y2="131.22" stroke="#000000" stroke-width="23.88" stroke-linecap="round"/><line x1="532.79" y1="208.77" x2="540.92" y2="190.50" stroke="#000000" stroke-width="23.88" stroke-linecap="round"/><line x1="553.12" y1="163.10" x2="561.26" y2="144.82" stroke="#000000" stroke-width="23.88" stroke-linecap="round"/><line x1="573.46" y1="117.42" x2="581.60" y2="99.15" stroke="#000000" stroke-width="23.88" stroke-linecap="round"/><line x1="558.95" y1="222.98" x2="569.85" y2="206.21" stroke="#000000" stroke-width="23.88" stroke-linecap="round"/><line x1="586.19" y1="181.05" x2="597.08" y2="164.27" stroke="#000000" stroke-width="23.88" stroke-linecap="round"/><line x1="613.42" y1="139.11" x2="624.31" y2="122.34" stroke="#000000" stroke-width="23.88" stroke-linecap="round"/><line x1="640.65" y1="97.18" x2="651.54" y2="80.41" stroke="#000000" stroke-width="23.88" stroke-linecap="round"/><line x1="582.58" y1="241.11" x2="595.96" y2="226.24" stroke="#000000" stroke-width="23.88" stroke-linecap="round"/><line x1="616.03" y1="203.95" x2="629.42" y2="189.09" stroke="#000000" stroke-width="23.88" stroke-linecap="round"/><line x1="649.49" y1="166.79" x2="662.87" y2="151.93" stroke="#000000" stroke-width="23.88" stroke-linecap="round"/><line x1="603.07" y1="262.71" x2="618.62" y2="250.12" stroke="#000000" stroke-width="23.88" stroke-linecap="round"/><line x1="641.93" y1="231.24" x2="657.47" y2="218.65" stroke="#000000" stroke-width="23.88" stroke-linecap="round"/><path d="M 606.95,294.74 A 174.75,174.75 0 0,1 612.14,304.42" fill="none" stroke="#ff3232" stroke-width="8"/><path d="M 611.31,302.79 A 174.75,174.75 0 0,1 615.99,312.72" fill="none" stroke="#ff3d32" stroke-width="8"/><path d="M 615.25,311.04 A 174.75,174.75 0 0,1 619.40,321.21" fill="none" stroke="#ff4732" stroke-width="8"/><path d="M 618.75,319.50 A 174.75,174.75 0 0,1 622.36,329.86" fill="none" stroke="#ff5132" stroke-width="8"/><path d="M 621.81,328.12 A 174.75,174.75 0 0,1 624.87,338.66" fill="none" stroke="#ff5b32" stroke-width="8"/><path d="M 624.41,336.89 A 174.75,174.75 0 0,1 626.91,347.58" fill="none" stroke="#ff6532" stroke-width="8"/><path d="M 626.54,345.79 A 174.75,174.75 0 0,1 628.49,356.59" fill="none" stroke="#ff7032" stroke-width="8"/><path d="M 628.21,354.78 A 174.75,174.75 0 0,1 629.58,365.68" fill="none" stroke="#ff7a32" stroke-width="8"/><path d="M 629.40,363.85 A 174.75,174.75 0 0,1 630.21,374.80" fill="none" stroke="#ff8432" stroke-width="8"/><path d="M 630.12,372.98 A 174.75,174.75 0 0,1 630.35,383.95" fill="none" stroke="#ff8e32" stroke-width="8"/><path d="M 630.36,382.12 A 174.75,174.75 0 0,1 630.02,393.09" fill="none" stroke="#ff9932" stroke-width="8"/><path d="M 630.12,391.27 A 174.75,174.75 0 0,1 629.20,402.21" fill="none" stroke="#ffa332" stroke-width="8"/><path d="M 629.40,400.39 A 174.75,174.75 0 0,1 627.91,411.27" fill="none" stroke="#ffad32" stroke-width="8"/><path d="M 628.21,409.46 A 174.75,174.75 0 0,1 626.15,420.24" fill="none" stroke="#ffb732" stroke-width="8"/><path d="M 626.54,418.46 A 174.75,174.75 0 0,1 623.92,429.12" fill="none" stroke="#ffc132" stroke-width="8"/><path d="M 624.41,427.35 A 174.75,174.75 0 0,1 621.23,437.86" fill="none" stroke="#ffcc32" stroke-width="8"/><path d="M 621.81,436.12 A 174.75,174.75 0 0,1 618.09,446.45" fill="none" stroke="#ffd632" stroke-width="8"/><path d="M 618.75,444.75 A 174.75,174.75 0 0,1 614.50,454.87" fill="none" stroke="#ffe032" stroke-width="8"/><path d="M 615.25,453.20 A 174.75,174.75 0 0,1 610.47,463.08" fill="none" stroke="#ffea32" stroke-width="8"/><path d="M 611.31,461.46 A 174.75,174.75 0 0,1 606.02,471.08" fill="none" stroke="#fff432" stroke-width="8"/><path d="M 606.95,469.50 A 174.75,174.75 0 0,1 601.16,478.83" fill="none" stroke="#ffff32" stroke-width="8"/><path d="M 602.17,477.30 A 174.75,174.75 0 0,1 595.90,486.31" fill="none" stroke="#f4ff32" stroke-width="8"/><path d="M 596.99,484.84 A 174.75,174.75 0 0,1 590.26,493.51" fill="none" stroke="#eaff32" stroke-width="8"/><path d="M 591.42,492.10 A 174.75,174.75 0 0,1 584.24,500.41" fill="none" stroke="#e0ff32" stroke-width="8"/><path d="M 585.47,499.05 A 174.75,174.75 0 0,1 577.88,506.98" fill="none" stroke="#d6ff32" stroke-width="8"/><path d="M 579.18,505.69 A 174.75,174.75 0 0,1 571.17,513.21" fill="none" stroke="#ccff32" stroke-width="8"/><path d="M 572.54,511.99 A 174.75,174.75 0 0,1 564.15,519.07" fill="none" stroke="#c1ff32" stroke-width="8"/><path d="M 565.58,517.93 A 174.75,174.75 0 0,1 556.84,524.57" fill="none" stroke="#b7ff32" stroke-width="8"/><path d="M 558.32,523.50 A 174.75,174.75 0 0,1 549.24,529.67" fill="none" stroke="#adff32" stroke-width="8"/><path d="M 550.78,528.68 A 174.75,174.75 0 0,1 541.39,534.37" fill="none" stroke="#a3ff32" stroke-width="8"/><path d="M 542.98,533.46 A 174.75,174.75 0 0,1 533.31,538.65" fill="none" stroke="#99ff32" stroke-width="8"/><path d="M 534.94,537.83 A 174.75,174.75 0 0,1 525.01,542.50" fill="none" stroke="#8eff32" stroke-width="8"/><path d="M 526.69,541.77 A 174.75,174.75 0 0,1 516.52,545.92" fill="none" stroke="#84ff32" stroke-width="8"/><path d="M 518.23,545.27 A 174.75,174.75 0 0,1 507.87,548.88" fill="none" stroke="#7aff32" stroke-width="8"/><path d="M 509.61,548.32 A 174.75,174.75 0 0,1 499.07,551.39" fill="none" stroke="#70ff32" stroke-width="8"/><path d="M 500.84,550.92 A 174.75,174.75 0 0,1 490.15,553.43" fill="none" stroke="#65ff32" stroke-width="8"/><path d="M 491.94,553.06 A 174.75,174.75 0 0,1 481.14,555.00" fill="none" stroke="#5bff32" stroke-width="8"/><path d="M 482.94,554.72 A 174.75,174.75 0 0,1 472.05,556.10" fill="none" stroke="#51ff32" stroke-width="8"/><path d="M 473.87,555.92 A 174.75,174.75 0 0,1 462.92,556.72" fill="none" stroke="#47ff32" stroke-width="8"/><path d="M 464.75,556.64 A 174.75,174.75 0 0,1 453.78,556.87" fill="none" stroke="#3dff32" stroke-width="8"/><path d="M 455.61,556.88 A 174.75,174.75 0 0,1 444.63,556.53" fill="none" stroke="#32ff32" stroke-width="8"/><path d="M 446.46,556.64 A 174.75,174.75 0 0,1 435.52,555.72" fill="none" stroke="#32ff3d" stroke-width="8"/><path d="M 437.34,555.92 A 174.75,174.75 0 0,1 426.46,554.43" fill="none" stroke="#32ff47" stroke-width="8"/><path d="M 428.27,554.72 A 174.75,174.75 0 0,1 417.49,552.67" fill="none" stroke="#32ff51" stroke-width="8"/><path d="M 419.27,553.06 A 174.75,174.75 0 0,1 408.61,550.44" fill="none" stroke="#32ff5b" stroke-width="8"/><path d="M 410.38,550.92 A 174.75,174.75 0 0,1 399.87,547.75" fill="none" stroke="#32ff65" stroke-width="8"/><path d="M 401.61,548.32 A 174.75,174.75 0 0,1 391.28,544.60" fill="none" stroke="#32ff70" stroke-width="8"/><path d="M 392.98,545.27 A 174.75,174.75 0 0,1 382.86,541.01" fill="none" stroke="#32ff7a" stroke-width="8"/><path d="M 384.53,541.77 A 174.75,174.75 0 0,1 374.64,536.99" fill="none" stroke="#32ff84" stroke-width="8"/><path d="M 376.27,537.83 A 174.75,174.75 0 0,1 366.65,532.54" fill="none" stroke="#32ff8e" stroke-width="8"/><path d="M 368.23,533.46 A 174.75,174.75 0 0,1 358.90,527.68" fill="none" stroke="#32ff99" stroke-width="8"/><path d="M 360.43,528.68 A 174.75,174.75 0 0,1 351.41,522.42" fill="none" stroke="#32ffa3" stroke-width="8"/><path d="M 352.89,523.50 A 174.75,174.75 0 0,1 344.21,516.77" fill="none" stroke="#32ffad" stroke-width="8"/><path d="M 345.63,517.93 A 174.75,174.75 0 0,1 337.32,510.76" fill="none" stroke="#32ffb7" stroke-width="8"/><path d="M 338.67,511.99 A 174.75,174.75 0 0,1 330.75,504.39" fill="none" stroke="#32ffc1" stroke-width="8"/><path d="M 332.04,505.69 A 174.75,174.75 0 0,1 324.52,497.69" fill="none" stroke="#32ffcc" stroke-width="8"/><path d="M 325.74,499.05 A 174.75,174.75 0 0,1 318.65,490.67" fill="none" stroke="#32ffd6" stroke-width="8"/><path d="M 319.80,492.10 A 174.75,174.75 0 0,1 313.16,483.35" fill="none" stroke="#32ffe0" stroke-width="8"/><path d="M 314.23,484.84 A 174.75,174.75 0 0,1 308.06,475.76" fill="none" stroke="#32ffea" stroke-width="8"/><path d="M 309.05,477.30 A 174.75,174.75 0 0,1 303.36,467.91" fill="none" stroke="#32fff4" stroke-width="8"/><path d="M 304.27,469.50 A 174.75,174.75 0 0,1 299.08,459.82" fill="none" stroke="#32ffff" stroke-width="8"/><path d="M 299.90,461.46 A 174.75,174.75 0 0,1 295.23,451.52" fill="none" stroke="#32f4ff" stroke-width="8"/><path d="M 295.96,453.20 A 174.75,174.75 0 0,1 291.81,443.04" fill="none" stroke="#32eaff" stroke-width="8"/><path d="M 292.46,444.75 A 174.75,174.75 0 0,1 288.85,434.38" fill="none" stroke="#32e0ff" stroke-width="8"/><path d="M 289.41,436.12 A 174.75,174.75 0 0,1 286.34,425.58" fill="none" stroke="#32d6ff" stroke-width="8"/><path d="M 286.81,427.35 A 174.75,174.75 0 0,1 284.30,416.66" fill="none" stroke="#32ccff" stroke-width="8"/><path d="M 284.67,418.46 A 174.75,174.75 0 0,1 282.73,407.65" fill="none" stroke="#32c1ff" stroke-width="8"/><path d="M 283.00,409.46 A 174.75,174.75 0 0,1 281.63,398.57" fill="none" stroke="#32b7ff" stroke-width="8"/><path d="M 281.81,400.39 A 174.75,174.75 0 0,1 281.01,389.44" fill="none" stroke="#32adff" stroke-width="8"/><path d="M 281.09,391.27 A 174.75,174.75 0 0,1 280.86,380.29" fill="none" stroke="#32a3ff" stroke-width="8"/><path d="M 280.85,382.12 A 174.75,174.75 0 0,1 281.20,371.15" fill="none" stroke="#3299ff" stroke-width="8"/><path d="M 281.09,372.98 A 174.75,174.75 0 0,1 282.01,362.04" fill="none" stroke="#328eff" stroke-width="8"/><path d="M 281.81,363.85 A 174.75,174.75 0 0,1 283.30,352.98" fill="none" stroke="#3284ff" stroke-width="8"/><path d="M 283.00,354.78 A 174.75,174.75 0 0,1 285.06,344.00" fill="none" stroke="#327aff" stroke-width="8"/><path d="M 284.67,345.79 A 174.75,174.75 0 0,1 287.29,335.13" fill="none" stroke="#3270ff" stroke-width="8"/><path d="M 286.81,336.89 A 174.75,174.75 0 0,1 289.98,326.38" fill="none" stroke="#3265ff" stroke-width="8"/><path d="M 289.41,328.12 A 174.75,174.75 0 0,1 293.13,317.79" fill="none" stroke="#325bff" stroke-width="8"/><path d="M 292.46,319.50 A 174.75,174.75 0 0,1 296.71,309.38" fill="none" stroke="#3251ff" stroke-width="8"/><path d="M 295.96,311.04 A 174.75,174.75 0 0,1 300.74,301.16" fill="none" stroke="#3247ff" stroke-width="8"/><path d="M 299.90,302.79 A 174.75,174.75 0 0,1 305.19,293.16" fill="none" stroke="#323dff" stroke-width="8"/><path d="M 304.27,294.74 A 174.75,174.75 0 0,1 310.05,285.41" fill="none" stroke="#3232ff" stroke-width="8"/><path d="M 309.05,286.94 A 174.75,174.75 0 0,1 315.31,277.93" fill="none" stroke="#3d32ff" stroke-width="8"/><path d="M 314.23,279.40 A 174.75,174.75 0 0,1 320.96,270.73" fill="none" stroke="#4732ff" stroke-width="8"/><path d="M 319.80,272.15 A 174.75,174.75 0 0,1 326.97,263.84" fill="none" stroke="#5132ff" stroke-width="8"/><path d="M 325.74,265.19 A 174.75,174.75 0 0,1 333.34,257.27" fill="none" stroke="#5b32ff" stroke-width="8"/><path d="M 332.04,258.55 A 174.75,174.75 0 0,1 340.04,251.04" fill="none" stroke="#6532ff" stroke-width="8"/><path d="M 338.67,252.25 A 174.75,174.75 0 0,1 347.06,245.17" fill="none" stroke="#7032ff" stroke-width="8"/><path d="M 345.63,246.31 A 174.75,174.75 0 0,1 354.38,239.68" fill="none" stroke="#7a32ff" stroke-width="8"/><path d="M 352.89,240.74 A 174.75,174.75 0 0,1 361.97,234.57" fill="none" stroke="#8432ff" stroke-width="8"/><path d="M 360.43,235.56 A 174.75,174.75 0 0,1 369.82,229.87" fill="none" stroke="#8e32ff" stroke-width="8"/><path d="M 368.23,230.78 A 174.75,174.75 0 0,1 377.91,225.59" fill="none" stroke="#9932ff" stroke-width="8"/><path d="M 376.27,226.42 A 174.75,174.75 0 0,1 386.20,221.74" fill="none" stroke="#a332ff" stroke-width="8"/><path d="M 384.53,222.48 A 174.75,174.75 0 0,1 394.69,218.33" fill="none" stroke="#ad32ff" stroke-width="8"/><path d="M 392.98,218.98 A 174.75,174.75 0 0,1 403.35,215.36" fill="none" stroke="#b732ff" stroke-width="8"/><path d="M 401.61,215.92 A 174.75,174.75 0 0,1 412.15,212.86" fill="none" stroke="#c132ff" stroke-width="8"/><path d="M 410.38,213.32 A 174.75,174.75 0 0,1 421.07,210.82" fill="none" stroke="#cc32ff" stroke-width="8"/><path d="M 419.27,211.19 A 174.75,174.75 0 0,1 430.08,209.24" fill="none" stroke="#d632ff" stroke-width="8"/><path d="M 428.27,209.52 A 174.75,174.75 0 0,1 439.16,208.14" fill="none" stroke="#e032ff" stroke-width="8"/><path d="M 437.34,208.33 A 174.75,174.75 0 0,1 448.29,207.52" fill="none" stroke="#ea32ff" stroke-width="8"/><path d="M 446.46,207.61 A 174.75,174.75 0 0,1 457.44,207.38" fill="none" stroke="#f432ff" stroke-width="8"/><path d="M 455.61,207.37 A 174.75,174.75 0 0,1 466.58,207.71" fill="none" stroke="#ff32ff" stroke-width="8"/><path d="M 464.75,207.61 A 174.75,174.75 0 0,1 475.69,208.53" fill="none" stroke="#ff32f4" stroke-width="8"/><path d="M 473.87,208.33 A 174.75,174.75 0 0,1 484.75,209.82" fill="none" stroke="#ff32ea" stroke-width="8"/><path d="M 482.94,209.52 A 174.75,174.75 0 0,1 493.73,211.58" fill="none" stroke="#ff32e0" stroke-width="8"/><path d="M 491.94,211.19 A 174.75,174.75 0 0,1 502.60,213.81" fill="none" stroke="#ff32d6" stroke-width="8"/><path d="M 500.84,213.32 A 174.75,174.75 0 0,1 511.35,216.50" fill="none" stroke="#ff32cc" stroke-width="8"/><path d="M 509.61,215.92 A 174.75,174.75 0 0,1 519.94,219.64" fill="none" stroke="#ff32c1" stroke-width="8"/><path d="M 518.23,218.98 A 174.75,174.75 0 0,1 528.35,223.23" fill="none" stroke="#ff32b7" stroke-width="8"/><path d="M 526.69,222.48 A 174.75,174.75 0 0,1 536.57,227.25" fill="none" stroke="#ff32ad" stroke-width="8"/><path d="M 534.94,226.42 A 174.75,174.75 0 0,1 544.56,231.70" fill="none" stroke="#ff32a3" stroke-width="8"/><path d="M 542.98,230.78 A 174.75,174.75 0 0,1 552.31,236.57" fill="none" stroke="#ff3299" stroke-width="8"/><path d="M 550.78,235.56 A 174.75,174.75 0 0,1 559.80,241.83" fill="none" stroke="#ff328e" stroke-width="8"/><path d="M 558.32,240.74 A 174.75,174.75 0 0,1 567.00,247.47" fill="none" stroke="#ff3284" stroke-width="8"/><path d="M 565.58,246.31 A 174.75,174.75 0 0,1 573.89,253.49" fill="none" stroke="#ff327a" stroke-width="8"/><path d="M 572.54,252.25 A 174.75,174.75 0 0,1 580.46,259.85" fill="none" stroke="#ff3270" stroke-width="8"/><path d="M 579.18,258.55 A 174.75,174.75 0 0,1 586.69,266.56" fill="none" stroke="#ff3265" stroke-width="8"/><path d="M 585.47,265.19 A 174.75,174.75 0 0,1 592.56,273.57" fill="none" stroke="#ff325b" stroke-width="8"/><path d="M 591.42,272.15 A 174.75,174.75 0 0,1 598.05,280.89" fill="none" stroke="#ff3251" stroke-width="8"/><path d="M 596.99,279.40 A 174.75,174.75 0 0,1 603.16,288.48" fill="none" stroke="#ff3247" stroke-width="8"/><path d="M 602.17,286.94 A 174.75,174.75 0 0,1 607.85,296.33" fill="none" stroke="#ff323d" stroke-width="8"/><line x1="619.94" y1="287.24" x2="637.26" y2="277.24" stroke="#ff3232" stroke-width="17.88" stroke-linecap="round"/><line x1="663.24" y1="262.24" x2="679.61" y2="252.79" stroke="#ff3232" stroke-width="17.88" stroke-linecap="round"/><line x1="632.76" y1="314.12" x2="651.43" y2="306.95" stroke="#ff5132" stroke-width="17.88" stroke-linecap="round"/><line x1="679.44" y1="296.20" x2="698.11" y2="289.03" stroke="#ff5132" stroke-width="17.88" stroke-linecap="round"/><line x1="641.21" y1="342.67" x2="660.78" y2="338.51" stroke="#ff7032" stroke-width="17.88" stroke-linecap="round"/><line x1="690.12" y1="332.27" x2="709.68" y2="328.12" stroke="#ff7032" stroke-width="17.88" stroke-linecap="round"/><line x1="739.03" y1="321.88" x2="758.59" y2="317.72" stroke="#ff7032" stroke-width="17.88" stroke-linecap="round"/><line x1="787.94" y1="311.48" x2="805.33" y2="307.79" stroke="#ff7032" stroke-width="17.88" stroke-linecap="round"/><line x1="645.10" y1="372.19" x2="665.07" y2="371.14" stroke="#ff8e32" stroke-width="17.88" stroke-linecap="round"/><line x1="695.03" y1="369.57" x2="715.00" y2="368.53" stroke="#ff8e32" stroke-width="17.88" stroke-linecap="round"/><line x1="744.96" y1="366.96" x2="764.94" y2="365.91" stroke="#ff8e32" stroke-width="17.88" stroke-linecap="round"/><line x1="794.89" y1="364.34" x2="814.87" y2="363.29" stroke="#ff8e32" stroke-width="17.88" stroke-linecap="round"/><line x1="844.83" y1="361.72" x2="859.78" y2="360.94" stroke="#ff8e32" stroke-width="17.88" stroke-linecap="round"/><line x1="644.32" y1="401.96" x2="664.21" y2="404.05" stroke="#ffad32" stroke-width="17.88" stroke-linecap="round"/><line x1="694.05" y1="407.18" x2="713.94" y2="409.27" stroke="#ffad32" stroke-width="17.88" stroke-linecap="round"/><line x1="743.77" y1="412.41" x2="763.66" y2="414.50" stroke="#ffad32" stroke-width="17.88" stroke-linecap="round"/><line x1="638.89" y1="431.23" x2="658.21" y2="436.41" stroke="#ffcc32" stroke-width="17.88" stroke-linecap="round"/><line x1="687.19" y1="444.17" x2="706.51" y2="449.35" stroke="#ffcc32" stroke-width="17.88" stroke-linecap="round"/><line x1="735.49" y1="457.12" x2="754.81" y2="462.29" stroke="#ffcc32" stroke-width="17.88" stroke-linecap="round"/><line x1="628.96" y1="459.30" x2="647.23" y2="467.44" stroke="#ffea32" stroke-width="17.88" stroke-linecap="round"/><line x1="674.63" y1="479.64" x2="692.90" y2="487.77" stroke="#ffea32" stroke-width="17.88" stroke-linecap="round"/><line x1="720.31" y1="499.98" x2="738.58" y2="508.11" stroke="#ffea32" stroke-width="17.88" stroke-linecap="round"/><line x1="765.99" y1="520.31" x2="784.26" y2="528.45" stroke="#ffea32" stroke-width="17.88" stroke-linecap="round"/><line x1="614.75" y1="485.47" x2="631.52" y2="496.36" stroke="#f4ff32" stroke-width="17.88" stroke-linecap="round"/><line x1="656.68" y1="512.70" x2="673.45" y2="523.59" stroke="#f4ff32" stroke-width="17.88" stroke-linecap="round"/><line x1="698.61" y1="539.93" x2="715.39" y2="550.83" stroke="#f4ff32" stroke-width="17.88" stroke-linecap="round"/><line x1="740.55" y1="567.16" x2="757.32" y2="578.06" stroke="#f4ff32" stroke-width="17.88" stroke-linecap="round"/><line x1="596.62" y1="509.09" x2="611.48" y2="522.47" stroke="#d6ff32" stroke-width="17.88" stroke-linecap="round"/><line x1="633.78" y1="542.55" x2="643.97" y2="551.72" stroke="#d6ff32" stroke-width="17.88" stroke-linecap="round"/><line x1="575.02" y1="529.59" x2="587.61" y2="545.13" stroke="#b7ff32" stroke-width="17.88" stroke-linecap="round"/><line x1="606.49" y1="568.45" x2="619.08" y2="583.99" stroke="#b7ff32" stroke-width="17.88" stroke-linecap="round"/><line x1="637.95" y1="607.30" x2="650.54" y2="622.85" stroke="#b7ff32" stroke-width="17.88" stroke-linecap="round"/><line x1="550.48" y1="546.45" x2="560.48" y2="563.77" stroke="#99ff32" stroke-width="17.88" stroke-linecap="round"/><line x1="575.48" y1="589.75" x2="585.48" y2="607.07" stroke="#99ff32" stroke-width="17.88" stroke-linecap="round"/><line x1="600.48" y1="633.06" x2="610.48" y2="650.38" stroke="#99ff32" stroke-width="17.88" stroke-linecap="round"/><line x1="625.48" y1="676.36" x2="635.48" y2="693.68" stroke="#99ff32" stroke-width="17.88" stroke-linecap="round"/><line x1="650.48" y1="719.66" x2="658.68" y2="733.86" stroke="#99ff32" stroke-width="17.88" stroke-linecap="round"/><line x1="523.61" y1="559.27" x2="530.78" y2="577.94" stroke="#7aff32" stroke-width="17.88" stroke-linecap="round"/><line x1="541.53" y1="605.95" x2="548.69" y2="624.62" stroke="#7aff32" stroke-width="17.88" stroke-linecap="round"/><line x1="559.45" y1="652.63" x2="566.61" y2="671.30" stroke="#7aff32" stroke-width="17.88" stroke-linecap="round"/><line x1="495.06" y1="567.73" x2="499.22" y2="587.29" stroke="#5bff32" stroke-width="17.88" stroke-linecap="round"/><line x1="505.45" y1="616.64" x2="509.61" y2="636.20" stroke="#5bff32" stroke-width="17.88" stroke-linecap="round"/><line x1="515.85" y1="665.54" x2="516.69" y2="669.49" stroke="#5bff32" stroke-width="17.88" stroke-linecap="round"/><line x1="465.54" y1="571.62" x2="466.58" y2="591.59" stroke="#3dff32" stroke-width="17.88" stroke-linecap="round"/><line x1="468.15" y1="621.55" x2="469.20" y2="641.52" stroke="#3dff32" stroke-width="17.88" stroke-linecap="round"/><line x1="470.77" y1="671.48" x2="471.82" y2="691.45" stroke="#3dff32" stroke-width="17.88" stroke-linecap="round"/><line x1="473.39" y1="721.41" x2="474.43" y2="741.38" stroke="#3dff32" stroke-width="17.88" stroke-linecap="round"/><line x1="476.00" y1="771.34" x2="477.05" y2="791.31" stroke="#3dff32" stroke-width="17.88" stroke-linecap="round"/><line x1="435.77" y1="570.84" x2="433.68" y2="590.73" stroke="#32ff47" stroke-width="17.88" stroke-linecap="round"/><line x1="430.55" y1="620.56" x2="428.46" y2="640.45" stroke="#32ff47" stroke-width="17.88" stroke-linecap="round"/><line x1="425.32" y1="670.29" x2="423.23" y2="690.18" stroke="#32ff47" stroke-width="17.88" stroke-linecap="round"/><line x1="420.09" y1="720.01" x2="418.94" y2="730.96" stroke="#32ff47" stroke-width="17.88" stroke-linecap="round"/><line x1="406.50" y1="565.41" x2="401.32" y2="584.73" stroke="#32ff65" stroke-width="17.88" stroke-linecap="round"/><line x1="393.55" y1="613.71" x2="388.38" y2="633.02" stroke="#32ff65" stroke-width="17.88" stroke-linecap="round"/><line x1="380.61" y1="662.00" x2="375.44" y2="681.32" stroke="#32ff65" stroke-width="17.88" stroke-linecap="round"/><line x1="367.67" y1="710.30" x2="362.50" y2="729.62" stroke="#32ff65" stroke-width="17.88" stroke-linecap="round"/><line x1="354.73" y1="758.59" x2="349.55" y2="777.91" stroke="#32ff65" stroke-width="17.88" stroke-linecap="round"/><line x1="378.43" y1="555.47" x2="370.29" y2="573.74" stroke="#32ff84" stroke-width="17.88" stroke-linecap="round"/><line x1="358.09" y1="601.15" x2="349.96" y2="619.42" stroke="#32ff84" stroke-width="17.88" stroke-linecap="round"/><line x1="337.75" y1="646.82" x2="329.62" y2="665.10" stroke="#32ff84" stroke-width="17.88" stroke-linecap="round"/><line x1="317.42" y1="692.50" x2="309.28" y2="710.77" stroke="#32ff84" stroke-width="17.88" stroke-linecap="round"/><line x1="297.08" y1="738.18" x2="288.95" y2="756.45" stroke="#32ff84" stroke-width="17.88" stroke-linecap="round"/><line x1="352.26" y1="541.26" x2="341.37" y2="558.04" stroke="#32ffa3" stroke-width="17.88" stroke-linecap="round"/><line x1="325.03" y1="583.20" x2="314.13" y2="599.97" stroke="#32ffa3" stroke-width="17.88" stroke-linecap="round"/><line x1="328.64" y1="523.14" x2="315.25" y2="538.00" stroke="#32ffc1" stroke-width="17.88" stroke-linecap="round"/><line x1="295.18" y1="560.29" x2="281.80" y2="575.16" stroke="#32ffc1" stroke-width="17.88" stroke-linecap="round"/><line x1="261.72" y1="597.45" x2="251.57" y2="608.73" stroke="#32ffc1" stroke-width="17.88" stroke-linecap="round"/><line x1="308.14" y1="501.54" x2="292.60" y2="514.12" stroke="#32ffe0" stroke-width="17.88" stroke-linecap="round"/><line x1="269.28" y1="533.00" x2="253.74" y2="545.59" stroke="#32ffe0" stroke-width="17.88" stroke-linecap="round"/><line x1="230.43" y1="564.47" x2="214.88" y2="577.06" stroke="#32ffe0" stroke-width="17.88" stroke-linecap="round"/><line x1="291.28" y1="477.00" x2="273.95" y2="487.00" stroke="#32ffff" stroke-width="17.88" stroke-linecap="round"/><line x1="247.97" y1="502.00" x2="230.65" y2="512.00" stroke="#32ffff" stroke-width="17.88" stroke-linecap="round"/><line x1="278.46" y1="450.12" x2="259.79" y2="457.29" stroke="#32e0ff" stroke-width="17.88" stroke-linecap="round"/><line x1="231.78" y1="468.04" x2="213.11" y2="475.21" stroke="#32e0ff" stroke-width="17.88" stroke-linecap="round"/><line x1="185.10" y1="485.96" x2="166.43" y2="493.13" stroke="#32e0ff" stroke-width="17.88" stroke-linecap="round"/><line x1="270.00" y1="421.57" x2="250.44" y2="425.73" stroke="#32c1ff" stroke-width="17.88" stroke-linecap="round"/><line x1="221.09" y1="431.97" x2="201.53" y2="436.13" stroke="#32c1ff" stroke-width="17.88" stroke-linecap="round"/><line x1="172.19" y1="442.36" x2="152.62" y2="446.52" stroke="#32c1ff" stroke-width="17.88" stroke-linecap="round"/><line x1="266.11" y1="392.05" x2="246.14" y2="393.10" stroke="#32a3ff" stroke-width="17.88" stroke-linecap="round"/><line x1="216.18" y1="394.67" x2="196.21" y2="395.72" stroke="#32a3ff" stroke-width="17.88" stroke-linecap="round"/><line x1="166.25" y1="397.29" x2="146.28" y2="398.33" stroke="#32a3ff" stroke-width="17.88" stroke-linecap="round"/><line x1="116.32" y1="399.90" x2="96.35" y2="400.95" stroke="#32a3ff" stroke-width="17.88" stroke-linecap="round"/><line x1="66.39" y1="402.52" x2="46.41" y2="403.57" stroke="#32a3ff" stroke-width="17.88" stroke-linecap="round"/><line x1="266.89" y1="362.29" x2="247.00" y2="360.20" stroke="#3284ff" stroke-width="17.88" stroke-linecap="round"/><line x1="217.17" y1="357.06" x2="197.28" y2="354.97" stroke="#3284ff" stroke-width="17.88" stroke-linecap="round"/><line x1="167.44" y1="351.83" x2="147.55" y2="349.74" stroke="#3284ff" stroke-width="17.88" stroke-linecap="round"/><line x1="117.71" y1="346.61" x2="97.82" y2="344.52" stroke="#3284ff" stroke-width="17.88" stroke-linecap="round"/><line x1="67.99" y1="341.38" x2="48.10" y2="339.29" stroke="#3284ff" stroke-width="17.88" stroke-linecap="round"/><line x1="272.32" y1="333.01" x2="253.00" y2="327.83" stroke="#3265ff" stroke-width="17.88" stroke-linecap="round"/><line x1="224.02" y1="320.07" x2="204.70" y2="314.89" stroke="#3265ff" stroke-width="17.88" stroke-linecap="round"/><line x1="175.73" y1="307.13" x2="156.41" y2="301.95" stroke="#3265ff" stroke-width="17.88" stroke-linecap="round"/><line x1="127.43" y1="294.19" x2="108.11" y2="289.01" stroke="#3265ff" stroke-width="17.88" stroke-linecap="round"/><line x1="79.13" y1="281.25" x2="59.82" y2="276.07" stroke="#3265ff" stroke-width="17.88" stroke-linecap="round"/><line x1="30.84" y1="268.31" x2="11.94" y2="263.24" stroke="#3265ff" stroke-width="17.88" stroke-linecap="round"/><line x1="282.26" y1="304.94" x2="263.99" y2="296.81" stroke="#3247ff" stroke-width="17.88" stroke-linecap="round"/><line x1="236.58" y1="284.61" x2="218.31" y2="276.47" stroke="#3247ff" stroke-width="17.88" stroke-linecap="round"/><line x1="190.90" y1="264.27" x2="172.63" y2="256.13" stroke="#3247ff" stroke-width="17.88" stroke-linecap="round"/><line x1="145.23" y1="243.93" x2="131.56" y2="237.85" stroke="#3247ff" stroke-width="17.88" stroke-linecap="round"/><line x1="296.47" y1="278.77" x2="279.69" y2="267.88" stroke="#3d32ff" stroke-width="17.88" stroke-linecap="round"/><line x1="254.53" y1="251.54" x2="237.76" y2="240.65" stroke="#3d32ff" stroke-width="17.88" stroke-linecap="round"/><line x1="212.60" y1="224.31" x2="195.83" y2="213.42" stroke="#3d32ff" stroke-width="17.88" stroke-linecap="round"/><line x1="314.59" y1="255.15" x2="299.73" y2="241.77" stroke="#5b32ff" stroke-width="17.88" stroke-linecap="round"/><line x1="277.44" y1="221.70" x2="262.57" y2="208.31" stroke="#5b32ff" stroke-width="17.88" stroke-linecap="round"/><line x1="240.28" y1="188.24" x2="225.42" y2="174.86" stroke="#5b32ff" stroke-width="17.88" stroke-linecap="round"/><line x1="336.19" y1="234.66" x2="323.60" y2="219.11" stroke="#7a32ff" stroke-width="17.88" stroke-linecap="round"/><line x1="304.73" y1="195.80" x2="292.14" y2="180.26" stroke="#7a32ff" stroke-width="17.88" stroke-linecap="round"/><line x1="360.73" y1="217.79" x2="350.73" y2="200.47" stroke="#9932ff" stroke-width="17.88" stroke-linecap="round"/><line x1="335.73" y1="174.49" x2="325.73" y2="157.17" stroke="#9932ff" stroke-width="17.88" stroke-linecap="round"/><line x1="387.61" y1="204.97" x2="380.44" y2="186.30" stroke="#b732ff" stroke-width="17.88" stroke-linecap="round"/><line x1="369.69" y1="158.29" x2="362.52" y2="139.62" stroke="#b732ff" stroke-width="17.88" stroke-linecap="round"/><line x1="351.77" y1="111.61" x2="347.34" y2="100.07" stroke="#b732ff" stroke-width="17.88" stroke-linecap="round"/><line x1="416.15" y1="196.51" x2="412.00" y2="176.95" stroke="#d632ff" stroke-width="17.88" stroke-linecap="round"/><line x1="405.76" y1="147.61" x2="401.60" y2="128.04" stroke="#d632ff" stroke-width="17.88" stroke-linecap="round"/><line x1="445.68" y1="192.63" x2="444.63" y2="172.66" stroke="#f432ff" stroke-width="17.88" stroke-linecap="round"/><line x1="443.06" y1="142.70" x2="442.01" y2="122.72" stroke="#f432ff" stroke-width="17.88" stroke-linecap="round"/><line x1="475.44" y1="193.41" x2="477.53" y2="173.52" stroke="#ff32ea" stroke-width="17.88" stroke-linecap="round"/><line x1="480.67" y1="143.68" x2="482.76" y2="123.79" stroke="#ff32ea" stroke-width="17.88" stroke-linecap="round"/><line x1="504.72" y1="198.83" x2="509.90" y2="179.52" stroke="#ff32cc" stroke-width="17.88" stroke-linecap="round"/><line x1="517.66" y1="150.54" x2="522.84" y2="131.22" stroke="#ff32cc" stroke-width="17.88" stroke-linecap="round"/><line x1="532.79" y1="208.77" x2="540.92" y2="190.50" stroke="#ff32ad" stroke-width="17.88" stroke-linecap="round"/><line x1="553.12" y1="163.10" x2="561.26" y2="144.82" stroke="#ff32ad" stroke-width="17.88" stroke-linecap="round"/><line x1="573.46" y1="117.42" x2="581.60" y2="99.15" stroke="#ff32ad" stroke-width="17.88" stroke-linecap="round"/><line x1="558.95" y1="222.98" x2="569.85" y2="206.21" stroke="#ff328e" stroke-width="17.88" stroke-linecap="round"/><line x1="586.19" y1="181.05" x2="597.08" y2="164.27" stroke="#ff328e" stroke-width="17.88" stroke-linecap="round"/><line x1="613.42" y1="139.11" x2="624.31" y2="122.34" stroke="#ff328e" stroke-width="17.88" stroke-linecap="round"/><line x1="640.65" y1="97.18" x2="651.54" y2="80.41" stroke="#ff328e" stroke-width="17.88" stroke-linecap="round"/><line x1="582.58" y1="241.11" x2="595.96" y2="226.24" stroke="#ff3270" stroke-width="17.88" stroke-linecap="round"/><line x1="616.03" y1="203.95" x2="629.42" y2="189.09" stroke="#ff3270" stroke-width="17.88" stroke-linecap="round"/><line x1="649.49" y1="166.79" x2="662.87" y2="151.93" stroke="#ff3270" stroke-width="17.88" stroke-linecap="round"/><line x1="603.07" y1="262.71" x2="618.62" y2="250.12" stroke="#ff3251" stroke-width="17.88" stroke-linecap="round"/><line x1="641.93" y1="231.24" x2="657.47" y2="218.65" stroke="#ff3251" stroke-width="17.88" stroke-linecap="round"/></svg>