<svg width="1727.44" height="1727.44" viewBox="0 0 1727.44 1727.44" xmlns="http://www.w3.org/2000/svg"><line x1="17.0" y1="777.3836236310005" x2="17.0" y2="950.0563763689995" stroke="black" stroke-width="34"/><line x1="51.56" y1="751.5025376987458" x2="51.56" y2="975.9374623012543" stroke="black" stroke-width="34"/><line x1="86.12" y1="696.5426040601731" x2="86.12" y2="1030.897395939827" stroke="black" stroke-width="34"/><line x1="120.68" y1="594.5063134145737" x2="120.68" y2="1132.9336865854264" stroke="black" stroke-width="34"/><line x1="155.24" y1="554.8296668243408" x2="155.24" y2="1172.6103331756592" stroke="black" stroke-width="34"/><line x1="189.8" y1="699.5734820079804" x2="189.8" y2="1027.8665179920197" stroke="black" stroke-width="34"/><line x1="224.36" y1="646.385711760521" x2="224.36" y2="1081.054288239479" stroke="black" stroke-width="34"/><line x1="258.92" y1="661.1517873716355" x2="258.92" y2="1066.2882126283646" stroke="black" stroke-width="34"/><line x1="293.48" y1="558.1205248546601" x2="293.48" y2="1169.31947514534" stroke="black" stroke-width="34"/><line x1="328.04" y1="567.2348105621338" x2="328.04" y2="1160.2051894378662" stroke="black" stroke-width="34"/><line x1="362.6" y1="757.355739505291" x2="362.6" y2="970.084260494709" stroke="black" stroke-width="34"/><line x1="397.16" y1="672.4005278062821" x2="397.16" y2="1055.039472193718" stroke="black" stroke-width="34"/><line x1="431.72" y1="659.3665562582016" x2="431.72" y2="1068.0734437417984" stroke="black" stroke-width="34"/><line x1="466.28" y1="585.4783197355271" x2="466.28" y2="1141.961680264473" stroke="black" stroke-width="34"/><line x1="500.84000000000003" y1="619.7170139265061" x2="500.84000000000003" y2="1107.722986073494" stroke="black" stroke-width="34"/><line x1="535.4000000000001" y1="762.0052125763893" x2="535.4000000000001" y2="965.4347874236107" stroke="black" stroke-width="34"/><line x1="569.96" y1="636.4378856134415" x2="569.96" y2="1091.0021143865586" stroke="black" stroke-width="34"/><line x1="604.52" y1="576.6070936632157" x2="604.52" y2="1150.8329063367844" stroke="black" stroke-width="34"/><line x1="639.08" y1="620.0363169622422" x2="639.08" y2="1107.403683037758" stroke="black" stroke-width="34"/><line x1="673.6400000000001" y1="700.2081452322006" x2="673.6400000000001" y2="1027.2318547677994" stroke="black" stroke-width="34"/><line x1="708.2" y1="664.1260685634613" x2="708.2" y2="1063.3139314365387" stroke="black" stroke-width="34"/><line x1="742.76" y1="686.3414556097985" x2="742.76" y2="1041.0985443902016" stroke="black" stroke-width="34"/><line x1="777.32" y1="737.3497663450241" x2="777.32" y2="990.0902336549759" stroke="black" stroke-width="34"/><line x1="811.8800000000001" y1="724.1392904233933" x2="811.8800000000001" y2="1003.3007095766068" stroke="black" stroke-width="34"/><line x1="846.44" y1="718.9787342262268" x2="846.44" y2="1008.4612657737732" stroke="black" stroke-width="34"/><line x1="881.0" y1="728.6699148130417" x2="881.0" y2="998.7700851869583" stroke="black" stroke-width="34"/><line x1="915.5600000000001" y1="726.4744135451317" x2="915.5600000000001" y2="1000.9655864548683" stroke="black" stroke-width="34"/><line x1="950.1200000000001" y1="766.5954753470421" x2="950.1200000000001" y2="960.844524652958" stroke="black" stroke-width="34"/><line x1="984.6800000000001" y1="757.8250735116005" x2="984.6800000000001" y2="969.6149264883995" stroke="black" stroke-width="34"/><line x1="1019.24" y1="750.5324282956124" x2="1019.24" y2="976.9075717043877" stroke="black" stroke-width="34"/><line x1="1053.8000000000002" y1="708.8449296069145" x2="1053.8000000000002" y2="1018.5950703930855" stroke="black" stroke-width="34"/><line x1="1088.3600000000001" y1="676.7141829442978" x2="1088.3600000000001" y2="1050.7258170557022" stroke="black" stroke-width="34"/><line x1="1122.92" y1="622.0909008693695" x2="1122.92" y2="1105.3490991306305" stroke="black" stroke-width="34"/><line x1="1157.48" y1="625.772190899849" x2="1157.48" y2="1101.667809100151" stroke="black" stroke-width="34"/><line x1="1192.04" y1="633.671583981514" x2="1192.04" y2="1093.768416018486" stroke="black" stroke-width="34"/><line x1="1226.6000000000001" y1="625.814638466835" x2="1226.6000000000001" y2="1101.625361533165" stroke="black" stroke-width="34"/><line x1="1261.16" y1="698.0966491413117" x2="1261.16" y2="1029.3433508586884" stroke="black" stroke-width="34"/><line x1="1295.72" y1="758.1898432087899" x2="1295.72" y2="969.2501567912102" stroke="black" stroke-width="34"/><line x1="1330.2800000000002" y1="727.5117090654373" x2="1330.2800000000002" y2="999.9282909345627" stroke="black" stroke-width="34"/><line x1="1364.8400000000001" y1="704.9059238147736" x2="1364.8400000000001" y2="1022.5340761852265" stroke="black" stroke-width="34"/><line x1="1399.4" y1="736.9400031280518" x2="1399.4" y2="990.4999968719483" stroke="black" stroke-width="34"/><line x1="1433.96" y1="742.9800283026696" x2="1433.96" y2="984.4599716973305" stroke="black" stroke-width="34"/><line x1="1468.52" y1="664.4280230712891" x2="1468.52" y2="1063.011976928711" stroke="black" stroke-width="34"/><line x1="1503.0800000000002" y1="678.1932350707054" x2="1503.0800000000002" y2="1049.2467649292946" stroke="black" stroke-width="34"/><line x1="1537.64" y1="680.898062081337" x2="1537.64" y2="1046.541937918663" stroke="black" stroke-width="34"/><line x1="1572.2" y1="685.533791513443" x2="1572.2" y2="1041.906208486557" stroke="black" stroke-width="34"/><line x1="1606.7600000000002" y1="648.2090645742417" x2="1606.7600000000002" y2="1079.2309354257584" stroke="black" stroke-width="34"/><line x1="1641.3200000000002" y1="685.724185974598" x2="1641.3200000000002" y2="1041.715814025402" stroke="black" stroke-width="34"/><line x1="1675.88" y1="737.7223879408837" x2="1675.88" y2="989.7176120591164" stroke="black" stroke-width="34"/><line x1="1710.44" y1="738.1715120387078" x2="1710.44" y2="989.2684879612923" stroke="black" stroke-width="34"/><line x1="17.0" y1="782.3836236310005" x2="17.0" y2="945.0563763689995" stroke="rgb(255,25,25)" stroke-width="24"/><line x1="51.56" y1="756.5025376987458" x2="51.56" y2="970.9374623012543" stroke="rgb(255,53,25)" stroke-width="24"/><line x1="86.12" y1="701.5426040601731" x2="86.12" y2="1025.897395939827" stroke="rgb(255,80,25)" stroke-width="24"/><line x1="120.68" y1="599.5063134145737" x2="120.68" y2="1127.9336865854264" stroke="rgb(255,108,25)" stroke-width="24"/><line x1="155.24" y1="559.8296668243408" x2="155.24" y2="1167.6103331756592" stroke="rgb(255,135,25)" stroke-width="24"/><line x1="189.8" y1="704.5734820079804" x2="189.8" y2="1022.8665179920197" stroke="rgb(255,163,25)" stroke-width="24"/><line x1="224.36" y1="651.385711760521" x2="224.36" y2="1076.054288239479" stroke="rgb(255,190,25)" stroke-width="24"/><line x1="258.92" y1="666.1517873716355" x2="258.92" y2="1061.2882126283646" stroke="rgb(255,218,25)" stroke-width="24"/><line x1="293.48" y1="563.1205248546601" x2="293.48" y2="1164.31947514534" stroke="rgb(255,245,25)" stroke-width="24"/><line x1="328.04" y1="572.2348105621338" x2="328.04" y2="1155.2051894378662" stroke="rgb(236,255,25)" stroke-width="24"/><line x1="362.6" y1="762.355739505291" x2="362.6" y2="965.084260494709" stroke="rgb(209,255,25)" stroke-width="24"/><line x1="397.16" y1="677.4005278062821" x2="397.16" y2="1050.039472193718" stroke="rgb(181,255,25)" stroke-width="24"/><line x1="431.72" y1="664.3665562582016" x2="431.72" y2="1063.0734437417984" stroke="rgb(154,255,25)" stroke-width="24"/><line x1="466.28" y1="590.4783197355271" x2="466.28" y2="1136.961680264473" stroke="rgb(126,255,25)" stroke-width="24"/><line x1="500.84000000000003" y1="624.7170139265061" x2="500.84000000000003" y2="1102.722986073494" stroke="rgb(98,255,25)" stroke-width="24"/><line x1="535.4000000000001" y1="767.0052125763893" x2="535.4000000000001" y2="960.4347874236107" stroke="rgb(71,255,25)" stroke-width="24"/><line x1="569.96" y1="641.4378856134415" x2="569.96" y2="1086.0021143865586" stroke="rgb(43,255,25)" stroke-width="24"/><line x1="604.52" y1="581.6070936632157" x2="604.52" y2="1145.8329063367844" stroke="rgb(25,255,34)" stroke-width="24"/><line x1="639.08" y1="625.0363169622422" x2="639.08" y2="1102.403683037758" stroke="rgb(25,255,62)" stroke-width="24"/><line x1="673.6400000000001" y1="705.2081452322006" x2="673.6400000000001" y2="1022.2318547677994" stroke="rgb(25,255,89)" stroke-width="24"/><line x1="708.2" y1="669.1260685634613" x2="708.2" y2="1058.3139314365387" stroke="rgb(25,255,117)" stroke-width="24"/><line x1="742.76" y1="691.3414556097985" x2="742.76" y2="1036.0985443902016" stroke="rgb(25,255,144)" stroke-width="24"/><line x1="777.32" y1="742.3497663450241" x2="777.32" y2="985.0902336549759" stroke="rgb(25,255,172)" stroke-width="24"/><line x1="811.8800000000001" y1="729.1392904233933" x2="811.8800000000001" y2="998.3007095766068" stroke="rgb(25,255,199)" stroke-width="24"/><line x1="846.44" y1="723.9787342262268" x2="846.44" y2="1003.4612657737732" stroke="rgb(25,255,227)" stroke-width="24"/><line x1="881.0" y1="733.6699148130417" x2="881.0" y2="993.7700851869583" stroke="rgb(25,255,255)" stroke-width="24"/><line x1="915.5600000000001" y1="731.4744135451317" x2="915.5600000000001" y2="995.9655864548683" stroke="rgb(25,227,255)" stroke-width="24"/><line x1="950.1200000000001" y1="771.5954753470421" x2="950.1200000000001" y2="955.844524652958" stroke="rgb(25,199,255)" stroke-width="24"/><line x1="984.6800000000001" y1="762.8250735116005" x2="984.6800000000001" y2="964.6149264883995" stroke="rgb(25,172,255)" stroke-width="24"/><line x1="1019.24" y1="755.5324282956124" x2="1019.24" y2="971.9075717043877" stroke="rgb(25,144,255)" stroke-width="24"/><line x1="1053.8000000000002" y1="713.8449296069145" x2="1053.8000000000002" y2="1013.5950703930855" stroke="rgb(25,117,255)" stroke-width="24"/><line x1="1088.3600000000001" y1="681.7141829442978" x2="1088.3600000000001" y2="1045.7258170557022" stroke="rgb(25,89,255)" stroke-width="24"/><line x1="1122.92" y1="627.0909008693695" x2="1122.92" y2="1100.3490991306305" stroke="rgb(25,62,255)" stroke-width="24"/><line x1="1157.48" y1="630.772190899849" x2="1157.48" y2="1096.667809100151" stroke="rgb(25,34,255)" stroke-width="24"/><line x1="1192.04" y1="638.671583981514" x2="1192.04" y2="1088.768416018486" stroke="rgb(43,25,255)" stroke-width="24"/><line x1="1226.6000000000001" y1="630.814638466835" x2="1226.6000000000001" y2="1096.625361533165" stroke="rgb(71,25,255)" stroke-width="24"/><line x1="1261.16" y1="703.0966491413117" x2="1261.16" y2="1024.3433508586884" stroke="rgb(98,25,255)" stroke-width="24"/><line x1="1295.72" y1="763.1898432087899" x2="1295.72" y2="964.2501567912102" stroke="rgb(126,25,255)" stroke-width="24"/><line x1="1330.2800000000002" y1="732.5117090654373" x2="1330.2800000000002" y2="994.9282909345627" stroke="rgb(154,25,255)" stroke-width="24"/><line x1="1364.8400000000001" y1="709.9059238147736" x2="1364.8400000000001" y2="1017.5340761852265" stroke="rgb(181,25,255)" stroke-width="24"/><line x1="1399.4" y1="741.9400031280518" x2="1399.4" y2="985.4999968719483" stroke="rgb(209,25,255)" stroke-width="24"/><line x1="1433.96" y1="747.9800283026696" x2="1433.96" y2="979.4599716973305" stroke="rgb(236,25,255)" stroke-width="24"/><line x1="1468.52" y1="669.4280230712891" x2="1468.52" y2="1058.011976928711" stroke="rgb(255,25,245)" stroke-width="24"/><line x1="1503.0800000000002" y1="683.1932350707054" x2="1503.0800000000002" y2="1044.2467649292946" stroke="rgb(255,25,218)" stroke-width="24"/><line x1="1537.64" y1="685.898062081337" x2="1537.64" y2="1041.541937918663" stroke="rgb(255,25,190)" stroke-width="24"/><line x1="1572.2" y1="690.533791513443" x2="1572.2" y2="1036.906208486557" stroke="rgb(255,25,163)" stroke-width="24"/><line x1="1606.7600000000002" y1="653.2090645742417" x2="1606.7600000000002" y2="1074.2309354257584" stroke="rgb(255,25,135)" stroke-width="24"/><line x1="1641.3200000000002" y1="690.724185974598" x2="1641.3200000000002" y2="1036.715814025402" stroke="rgb(255,25,108)" stroke-width="24"/><line x1="1675.88" y1="742.7223879408837" x2="1675.88" y2="984.7176120591164" stroke="rgb(255,25,80)" stroke-width="24"/><line x1="1710.44" y1="743.1715120387078" x2="1710.44" y2="984.2684879612923" stroke="rgb(255,25,53)" stroke-width="24"/></svg>