<svg width="752.5" height="752.5" viewBox="0 0 752.5 752.5" xmlns="http://www.w3.org/2000/svg"><path d="M204.0 568.6 L228.0 568.6 L228.0 582.6 L204.0 582.6 Z" fill="#000000"/><path d="M204.0 580.6 L228.0 580.6 L228.0 594.6 L204.0 594.6 Z" fill="#000000"/><path d="M204.0 592.6 L228.0 592.6 L228.0 606.6 L204.0 606.6 Z" fill="#000000"/><path d="M204.0 604.6 L228.0 604.6 L228.0 618.6 L204.0 618.6 Z" fill="#000000"/><path d="M204.0 616.6 L228.0 616.6 L228.0 630.6 L204.0 630.6 Z" fill="#000000"/><path d="M207.0 571.6 L225.0 571.6 L225.0 579.6 L207.0 579.6 Z" fill="rgb(255,50,50)"/><path d="M207.0 583.6 L225.0 583.6 L225.0 591.6 L207.0 591.6 Z" fill="rgb(255,50,50)"/><path d="M207.0 595.6 L225.0 595.6 L225.0 603.6 L207.0 603.6 Z" fill="rgb(255,50,50)"/><path d="M207.0 607.6 L225.0 607.6 L225.0 615.6 L207.0 615.6 Z" fill="rgb(255,50,50)"/><path d="M207.0 619.6 L225.0 619.6 L225.0 627.6 L207.0 627.6 Z" fill="rgb(255,50,50)"/><path d="M228.7 568.6 L252.7 568.6 L252.7 582.6 L228.7 582.6 Z" fill="#000000"/><path d="M228.7 580.6 L252.7 580.6 L252.7 594.6 L228.7 594.6 Z" fill="#000000"/><path d="M228.7 592.6 L252.7 592.6 L252.7 606.6 L228.7 606.6 Z" fill="#000000"/><path d="M228.7 604.6 L252.7 604.6 L252.7 618.6 L228.7 618.6 Z" fill="#000000"/><path d="M228.7 616.6 L252.7 616.6 L252.7 630.6 L228.7 630.6 Z" fill="#000000"/><path d="M228.7 628.6 L252.7 628.6 L252.7 642.6 L228.7 642.6 Z" fill="#000000"/><path d="M231.7 571.6 L249.7 571.6 L249.7 579.6 L231.7 579.6 Z" fill="rgb(255,69,50)"/><path d="M231.7 583.6 L249.7 583.6 L249.7 591.6 L231.7 591.6 Z" fill="rgb(255,69,50)"/><path d="M231.7 595.6 L249.7 595.6 L249.7 603.6 L231.7 603.6 Z" fill="rgb(255,69,50)"/><path d="M231.7 607.6 L249.7 607.6 L249.7 615.6 L231.7 615.6 Z" fill="rgb(255,69,50)"/><path d="M231.7 619.6 L249.7 619.6 L249.7 627.6 L231.7 627.6 Z" fill="rgb(255,69,50)"/><path d="M231.7 631.6 L249.7 631.6 L249.7 639.6 L231.7 639.6 Z" fill="rgb(255,69,50)"/><path d="M253.4 568.6 L277.4 568.6 L277.4 582.6 L253.4 582.6 Z" fill="#000000"/><path d="M253.4 580.6 L277.4 580.6 L277.4 594.6 L253.4 594.6 Z" fill="#000000"/><path d="M253.4 592.6 L277.4 592.6 L277.4 606.6 L253.4 606.6 Z" fill="#000000"/><path d="M253.4 604.6 L277.4 604.6 L277.4 618.6 L253.4 618.6 Z" fill="#000000"/><path d="M253.4 616.6 L277.4 616.6 L277.4 630.6 L253.4 630.6 Z" fill="#000000"/><path d="M253.4 628.6 L277.4 628.6 L277.4 642.6 L253.4 642.6 Z" fill="#000000"/><path d="M253.4 640.6 L277.4 640.6 L277.4 654.6 L253.4 654.6 Z" fill="#000000"/><path d="M253.4 652.6 L277.4 652.6 L277.4 666.6 L253.4 666.6 Z" fill="#000000"/><path d="M256.4 571.6 L274.4 571.6 L274.4 579.6 L256.4 579.6 Z" fill="rgb(255,88,50)"/><path d="M256.4 583.6 L274.4 583.6 L274.4 591.6 L256.4 591.6 Z" fill="rgb(255,88,50)"/><path d="M256.4 595.6 L274.4 595.6 L274.4 603.6 L256.4 603.6 Z" fill="rgb(255,88,50)"/><path d="M256.4 607.6 L274.4 607.6 L274.4 615.6 L256.4 615.6 Z" fill="rgb(255,88,50)"/><path d="M256.4 619.6 L274.4 619.6 L274.4 627.6 L256.4 627.6 Z" fill="rgb(255,88,50)"/><path d="M256.4 631.6 L274.4 631.6 L274.4 639.6 L256.4 639.6 Z" fill="rgb(255,88,50)"/><path d="M256.4 643.6 L274.4 643.6 L274.4 651.6 L256.4 651.6 Z" fill="rgb(255,88,50)"/><path d="M256.4 655.6 L274.4 655.6 L274.4 663.6 L256.4 663.6 Z" fill="rgb(255,88,50)"/><path d="M278.1 568.6 L302.1 568.6 L302.1 582.6 L278.1 582.6 Z" fill="#000000"/><path d="M278.1 580.6 L302.1 580.6 L302.1 594.6 L278.1 594.6 Z" fill="#000000"/><path d="M278.1 592.6 L302.1 592.6 L302.1 606.6 L278.1 606.6 Z" fill="#000000"/><path d="M278.1 604.6 L302.1 604.6 L302.1 618.6 L278.1 618.6 Z" fill="#000000"/><path d="M278.1 616.6 L302.1 616.6 L302.1 630.6 L278.1 630.6 Z" fill="#000000"/><path d="M278.1 628.6 L302.1 628.6 L302.1 642.6 L278.1 642.6 Z" fill="#000000"/><path d="M278.1 640.6 L302.1 640.6 L302.1 654.6 L278.1 654.6 Z" fill="#000000"/><path d="M278.1 652.6 L302.1 652.6 L302.1 666.6 L278.1 666.6 Z" fill="#000000"/><path d="M278.1 664.6 L302.1 664.6 L302.1 678.6 L278.1 678.6 Z" fill="#000000"/><path d="M278.1 676.6 L302.1 676.6 L302.1 690.6 L278.1 690.6 Z" fill="#000000"/><path d="M281.1 571.6 L299.1 571.6 L299.1 579.6 L281.1 579.6 Z" fill="rgb(255,106,50)"/><path d="M281.1 583.6 L299.1 583.6 L299.1 591.6 L281.1 591.6 Z" fill="rgb(255,106,50)"/><path d="M281.1 595.6 L299.1 595.6 L299.1 603.6 L281.1 603.6 Z" fill="rgb(255,106,50)"/><path d="M281.1 607.6 L299.1 607.6 L299.1 615.6 L281.1 615.6 Z" fill="rgb(255,106,50)"/><path d="M281.1 619.6 L299.1 619.6 L299.1 627.6 L281.1 627.6 Z" fill="rgb(255,106,50)"/><path d="M281.1 631.6 L299.1 631.6 L299.1 639.6 L281.1 639.6 Z" fill="rgb(255,106,50)"/><path d="M281.1 643.6 L299.1 643.6 L299.1 651.6 L281.1 651.6 Z" fill="rgb(255,106,50)"/><path d="M281.1 655.6 L299.1 655.6 L299.1 663.6 L281.1 663.6 Z" fill="rgb(255,106,50)"/><path d="M281.1 667.6 L299.1 667.6 L299.1 675.6 L281.1 675.6 Z" fill="rgb(255,106,50)"/><path d="M281.1 679.6 L299.1 679.6 L299.1 687.6 L281.1 687.6 Z" fill="rgb(255,106,50)"/><path d="M302.8 568.6 L326.8 568.6 L326.8 582.6 L302.8 582.6 Z" fill="#000000"/><path d="M302.8 580.6 L326.8 580.6 L326.8 594.6 L302.8 594.6 Z" fill="#000000"/><path d="M302.8 592.6 L326.8 592.6 L326.8 606.6 L302.8 606.6 Z" fill="#000000"/><path d="M302.8 604.6 L326.8 604.6 L326.8 618.6 L302.8 618.6 Z" fill="#000000"/><path d="M302.8 616.6 L326.8 616.6 L326.8 630.6 L302.8 630.6 Z" fill="#000000"/><path d="M302.8 628.6 L326.8 628.6 L326.8 642.6 L302.8 642.6 Z" fill="#000000"/><path d="M302.8 640.6 L326.8 640.6 L326.8 654.6 L302.8 654.6 Z" fill="#000000"/><path d="M302.8 652.6 L326.8 652.6 L326.8 666.6 L302.8 666.6 Z" fill="#000000"/><path d="M302.8 664.6 L326.8 664.6 L326.8 678.6 L302.8 678.6 Z" fill="#000000"/><path d="M302.8 676.6 L326.8 676.6 L326.8 690.6 L302.8 690.6 Z" fill="#000000"/><path d="M302.8 688.6 L326.8 688.6 L326.8 702.6 L302.8 702.6 Z" fill="#000000"/><path d="M305.8 571.6 L323.8 571.6 L323.8 579.6 L305.8 579.6 Z" fill="rgb(255,125,50)"/><path d="M305.8 583.6 L323.8 583.6 L323.8 591.6 L305.8 591.6 Z" fill="rgb(255,125,50)"/><path d="M305.8 595.6 L323.8 595.6 L323.8 603.6 L305.8 603.6 Z" fill="rgb(255,125,50)"/><path d="M305.8 607.6 L323.8 607.6 L323.8 615.6 L305.8 615.6 Z" fill="rgb(255,125,50)"/><path d="M305.8 619.6 L323.8 619.6 L323.8 627.6 L305.8 627.6 Z" fill="rgb(255,125,50)"/><path d="M305.8 631.6 L323.8 631.6 L323.8 639.6 L305.8 639.6 Z" fill="rgb(255,125,50)"/><path d="M305.8 643.6 L323.8 643.6 L323.8 651.6 L305.8 651.6 Z" fill="rgb(255,125,50)"/><path d="M305.8 655.6 L323.8 655.6 L323.8 663.6 L305.8 663.6 Z" fill="rgb(255,125,50)"/><path d="M305.8 667.6 L323.8 667.6 L323.8 675.6 L305.8 675.6 Z" fill="rgb(255,125,50)"/><path d="M305.8 679.6 L323.8 679.6 L323.8 687.6 L305.8 687.6 Z" fill="rgb(255,125,50)"/><path d="M305.8 691.6 L323.8 691.6 L323.8 699.6 L305.8 699.6 Z" fill="rgb(255,125,50)"/><path d="M327.5 568.6 L351.5 568.6 L351.5 582.6 L327.5 582.6 Z" fill="#000000"/><path d="M327.5 580.6 L351.5 580.6 L351.5 594.6 L327.5 594.6 Z" fill="#000000"/><path d="M327.5 592.6 L351.5 592.6 L351.5 606.6 L327.5 606.6 Z" fill="#000000"/><path d="M327.5 604.6 L351.5 604.6 L351.5 618.6 L327.5 618.6 Z" fill="#000000"/><path d="M327.5 616.6 L351.5 616.6 L351.5 630.6 L327.5 630.6 Z" fill="#000000"/><path d="M327.5 628.6 L351.5 628.6 L351.5 642.6 L327.5 642.6 Z" fill="#000000"/><path d="M327.5 640.6 L351.5 640.6 L351.5 654.6 L327.5 654.6 Z" fill="#000000"/><path d="M327.5 652.6 L351.5 652.6 L351.5 666.6 L327.5 666.6 Z" fill="#000000"/><path d="M327.5 664.6 L351.5 664.6 L351.5 678.6 L327.5 678.6 Z" fill="#000000"/><path d="M327.5 676.6 L351.5 676.6 L351.5 690.6 L327.5 690.6 Z" fill="#000000"/><path d="M327.5 688.6 L351.5 688.6 L351.5 702.6 L327.5 702.6 Z" fill="#000000"/><path d="M327.5 700.6 L351.5 700.6 L351.5 714.6 L327.5 714.6 Z" fill="#000000"/><path d="M330.5 571.6 L348.5 571.6 L348.5 579.6 L330.5 579.6 Z" fill="rgb(255,143,50)"/><path d="M330.5 583.6 L348.5 583.6 L348.5 591.6 L330.5 591.6 Z" fill="rgb(255,143,50)"/><path d="M330.5 595.6 L348.5 595.6 L348.5 603.6 L330.5 603.6 Z" fill="rgb(255,143,50)"/><path d="M330.5 607.6 L348.5 607.6 L348.5 615.6 L330.5 615.6 Z" fill="rgb(255,143,50)"/><path d="M330.5 619.6 L348.5 619.6 L348.5 627.6 L330.5 627.6 Z" fill="rgb(255,143,50)"/><path d="M330.5 631.6 L348.5 631.6 L348.5 639.6 L330.5 639.6 Z" fill="rgb(255,143,50)"/><path d="M330.5 643.6 L348.5 643.6 L348.5 651.6 L330.5 651.6 Z" fill="rgb(255,143,50)"/><path d="M330.5 655.6 L348.5 655.6 L348.5 663.6 L330.5 663.6 Z" fill="rgb(255,143,50)"/><path d="M330.5 667.6 L348.5 667.6 L348.5 675.6 L330.5 675.6 Z" fill="rgb(255,143,50)"/><path d="M330.5 679.6 L348.5 679.6 L348.5 687.6 L330.5 687.6 Z" fill="rgb(255,143,50)"/><path d="M330.5 691.6 L348.5 691.6 L348.5 699.6 L330.5 699.6 Z" fill="rgb(255,143,50)"/><path d="M330.5 703.6 L348.5 703.6 L348.5 711.6 L330.5 711.6 Z" fill="rgb(255,143,50)"/><path d="M352.2 568.6 L376.2 568.6 L376.2 582.6 L352.2 582.6 Z" fill="#000000"/><path d="M352.2 580.6 L376.2 580.6 L376.2 594.6 L352.2 594.6 Z" fill="#000000"/><path d="M352.2 592.6 L376.2 592.6 L376.2 606.6 L352.2 606.6 Z" fill="#000000"/><path d="M352.2 604.6 L376.2 604.6 L376.2 618.6 L352.2 618.6 Z" fill="#000000"/><path d="M352.2 616.6 L376.2 616.6 L376.2 630.6 L352.2 630.6 Z" fill="#000000"/><path d="M352.2 628.6 L376.2 628.6 L376.2 642.6 L352.2 642.6 Z" fill="#000000"/><path d="M352.2 640.6 L376.2 640.6 L376.2 654.6 L352.2 654.6 Z" fill="#000000"/><path d="M352.2 652.6 L376.2 652.6 L376.2 666.6 L352.2 666.6 Z" fill="#000000"/><path d="M352.2 664.6 L376.2 664.6 L376.2 678.6 L352.2 678.6 Z" fill="#000000"/><path d="M352.2 676.6 L376.2 676.6 L376.2 690.6 L352.2 690.6 Z" fill="#000000"/><path d="M355.2 571.6 L373.2 571.6 L373.2 579.6 L355.2 579.6 Z" fill="rgb(255,162,50)"/><path d="M355.2 583.6 L373.2 583.6 L373.2 591.6 L355.2 591.6 Z" fill="rgb(255,162,50)"/><path d="M355.2 595.6 L373.2 595.6 L373.2 603.6 L355.2 603.6 Z" fill="rgb(255,162,50)"/><path d="M355.2 607.6 L373.2 607.6 L373.2 615.6 L355.2 615.6 Z" fill="rgb(255,162,50)"/><path d="M355.2 619.6 L373.2 619.6 L373.2 627.6 L355.2 627.6 Z" fill="rgb(255,162,50)"/><path d="M355.2 631.6 L373.2 631.6 L373.2 639.6 L355.2 639.6 Z" fill="rgb(255,162,50)"/><path d="M355.2 643.6 L373.2 643.6 L373.2 651.6 L355.2 651.6 Z" fill="rgb(255,162,50)"/><path d="M355.2 655.6 L373.2 655.6 L373.2 663.6 L355.2 663.6 Z" fill="rgb(255,162,50)"/><path d="M355.2 667.6 L373.2 667.6 L373.2 675.6 L355.2 675.6 Z" fill="rgb(255,162,50)"/><path d="M355.2 679.6 L373.2 679.6 L373.2 687.6 L355.2 687.6 Z" fill="rgb(255,162,50)"/><path d="M376.9 568.6 L400.9 568.6 L400.9 582.6 L376.9 582.6 Z" fill="#000000"/><path d="M376.9 580.6 L400.9 580.6 L400.9 594.6 L376.9 594.6 Z" fill="#000000"/><path d="M376.9 592.6 L400.9 592.6 L400.9 606.6 L376.9 606.6 Z" fill="#000000"/><path d="M376.9 604.6 L400.9 604.6 L400.9 618.6 L376.9 618.6 Z" fill="#000000"/><path d="M376.9 616.6 L400.9 616.6 L400.9 630.6 L376.9 630.6 Z" fill="#000000"/><path d="M376.9 628.6 L400.9 628.6 L400.9 642.6 L376.9 642.6 Z" fill="#000000"/><path d="M376.9 640.6 L400.9 640.6 L400.9 654.6 L376.9 654.6 Z" fill="#000000"/><path d="M379.9 571.6 L397.9 571.6 L397.9 579.6 L379.9 579.6 Z" fill="rgb(255,180,50)"/><path d="M379.9 583.6 L397.9 583.6 L397.9 591.6 L379.9 591.6 Z" fill="rgb(255,180,50)"/><path d="M379.9 595.6 L397.9 595.6 L397.9 603.6 L379.9 603.6 Z" fill="rgb(255,180,50)"/><path d="M379.9 607.6 L397.9 607.6 L397.9 615.6 L379.9 615.6 Z" fill="rgb(255,180,50)"/><path d="M379.9 619.6 L397.9 619.6 L397.9 627.6 L379.9 627.6 Z" fill="rgb(255,180,50)"/><path d="M379.9 631.6 L397.9 631.6 L397.9 639.6 L379.9 639.6 Z" fill="rgb(255,180,50)"/><path d="M379.9 643.6 L397.9 643.6 L397.9 651.6 L379.9 651.6 Z" fill="rgb(255,180,50)"/><path d="M401.6 568.6 L425.6 568.6 L425.6 582.6 L401.6 582.6 Z" fill="#000000"/><path d="M401.6 580.6 L425.6 580.6 L425.6 594.6 L401.6 594.6 Z" fill="#000000"/><path d="M401.6 592.6 L425.6 592.6 L425.6 606.6 L401.6 606.6 Z" fill="#000000"/><path d="M401.6 604.6 L425.6 604.6 L425.6 618.6 L401.6 618.6 Z" fill="#000000"/><path d="M401.6 616.6 L425.6 616.6 L425.6 630.6 L401.6 630.6 Z" fill="#000000"/><path d="M401.6 628.6 L425.6 628.6 L425.6 642.6 L401.6 642.6 Z" fill="#000000"/><path d="M401.6 640.6 L425.6 640.6 L425.6 654.6 L401.6 654.6 Z" fill="#000000"/><path d="M401.6 652.6 L425.6 652.6 L425.6 666.6 L401.6 666.6 Z" fill="#000000"/><path d="M401.6 664.6 L425.6 664.6 L425.6 678.6 L401.6 678.6 Z" fill="#000000"/><path d="M404.6 571.6 L422.6 571.6 L422.6 579.6 L404.6 579.6 Z" fill="rgb(255,199,50)"/><path d="M404.6 583.6 L422.6 583.6 L422.6 591.6 L404.6 591.6 Z" fill="rgb(255,199,50)"/><path d="M404.6 595.6 L422.6 595.6 L422.6 603.6 L404.6 603.6 Z" fill="rgb(255,199,50)"/><path d="M404.6 607.6 L422.6 607.6 L422.6 615.6 L404.6 615.6 Z" fill="rgb(255,199,50)"/><path d="M404.6 619.6 L422.6 619.6 L422.6 627.6 L404.6 627.6 Z" fill="rgb(255,199,50)"/><path d="M404.6 631.6 L422.6 631.6 L422.6 639.6 L404.6 639.6 Z" fill="rgb(255,199,50)"/><path d="M404.6 643.6 L422.6 643.6 L422.6 651.6 L404.6 651.6 Z" fill="rgb(255,199,50)"/><path d="M404.6 655.6 L422.6 655.6 L422.6 663.6 L404.6 663.6 Z" fill="rgb(255,199,50)"/><path d="M404.6 667.6 L422.6 667.6 L422.6 675.6 L404.6 675.6 Z" fill="rgb(255,199,50)"/><path d="M426.3 568.6 L450.3 568.6 L450.3 582.6 L426.3 582.6 Z" fill="#000000"/><path d="M426.3 580.6 L450.3 580.6 L450.3 594.6 L426.3 594.6 Z" fill="#000000"/><path d="M426.3 592.6 L450.3 592.6 L450.3 606.6 L426.3 606.6 Z" fill="#000000"/><path d="M426.3 604.6 L450.3 604.6 L450.3 618.6 L426.3 618.6 Z" fill="#000000"/><path d="M426.3 616.6 L450.3 616.6 L450.3 630.6 L426.3 630.6 Z" fill="#000000"/><path d="M426.3 628.6 L450.3 628.6 L450.3 642.6 L426.3 642.6 Z" fill="#000000"/><path d="M426.3 640.6 L450.3 640.6 L450.3 654.6 L426.3 654.6 Z" fill="#000000"/><path d="M426.3 652.6 L450.3 652.6 L450.3 666.6 L426.3 666.6 Z" fill="#000000"/><path d="M426.3 664.6 L450.3 664.6 L450.3 678.6 L426.3 678.6 Z" fill="#000000"/><path d="M426.3 676.6 L450.3 676.6 L450.3 690.6 L426.3 690.6 Z" fill="#000000"/><path d="M429.3 571.6 L447.3 571.6 L447.3 579.6 L429.3 579.6 Z" fill="rgb(255,217,50)"/><path d="M429.3 583.6 L447.3 583.6 L447.3 591.6 L429.3 591.6 Z" fill="rgb(255,217,50)"/><path d="M429.3 595.6 L447.3 595.6 L447.3 603.6 L429.3 603.6 Z" fill="rgb(255,217,50)"/><path d="M429.3 607.6 L447.3 607.6 L447.3 615.6 L429.3 615.6 Z" fill="rgb(255,217,50)"/><path d="M429.3 619.6 L447.3 619.6 L447.3 627.6 L429.3 627.6 Z" fill="rgb(255,217,50)"/><path d="M429.3 631.6 L447.3 631.6 L447.3 639.6 L429.3 639.6 Z" fill="rgb(255,217,50)"/><path d="M429.3 643.6 L447.3 643.6 L447.3 651.6 L429.3 651.6 Z" fill="rgb(255,217,50)"/><path d="M429.3 655.6 L447.3 655.6 L447.3 663.6 L429.3 663.6 Z" fill="rgb(255,217,50)"/><path d="M429.3 667.6 L447.3 667.6 L447.3 675.6 L429.3 675.6 Z" fill="rgb(255,217,50)"/><path d="M429.3 679.6 L447.3 679.6 L447.3 687.6 L429.3 687.6 Z" fill="rgb(255,217,50)"/><path d="M451.0 568.6 L475.0 568.6 L475.0 582.6 L451.0 582.6 Z" fill="#000000"/><path d="M451.0 580.6 L475.0 580.6 L475.0 594.6 L451.0 594.6 Z" fill="#000000"/><path d="M451.0 592.6 L475.0 592.6 L475.0 606.6 L451.0 606.6 Z" fill="#000000"/><path d="M451.0 604.6 L475.0 604.6 L475.0 618.6 L451.0 618.6 Z" fill="#000000"/><path d="M451.0 616.6 L475.0 616.6 L475.0 630.6 L451.0 630.6 Z" fill="#000000"/><path d="M451.0 628.6 L475.0 628.6 L475.0 642.6 L451.0 642.6 Z" fill="#000000"/><path d="M451.0 640.6 L475.0 640.6 L475.0 654.6 L451.0 654.6 Z" fill="#000000"/><path d="M451.0 652.6 L475.0 652.6 L475.0 666.6 L451.0 666.6 Z" fill="#000000"/><path d="M451.0 664.6 L475.0 664.6 L475.0 678.6 L451.0 678.6 Z" fill="#000000"/><path d="M451.0 676.6 L475.0 676.6 L475.0 690.6 L451.0 690.6 Z" fill="#000000"/><path d="M451.0 688.6 L475.0 688.6 L475.0 702.6 L451.0 702.6 Z" fill="#000000"/><path d="M454.0 571.6 L472.0 571.6 L472.0 579.6 L454.0 579.6 Z" fill="rgb(255,236,50)"/><path d="M454.0 583.6 L472.0 583.6 L472.0 591.6 L454.0 591.6 Z" fill="rgb(255,236,50)"/><path d="M454.0 595.6 L472.0 595.6 L472.0 603.6 L454.0 603.6 Z" fill="rgb(255,236,50)"/><path d="M454.0 607.6 L472.0 607.6 L472.0 615.6 L454.0 615.6 Z" fill="rgb(255,236,50)"/><path d="M454.0 619.6 L472.0 619.6 L472.0 627.6 L454.0 627.6 Z" fill="rgb(255,236,50)"/><path d="M454.0 631.6 L472.0 631.6 L472.0 639.6 L454.0 639.6 Z" fill="rgb(255,236,50)"/><path d="M454.0 643.6 L472.0 643.6 L472.0 651.6 L454.0 651.6 Z" fill="rgb(255,236,50)"/><path d="M454.0 655.6 L472.0 655.6 L472.0 663.6 L454.0 663.6 Z" fill="rgb(255,236,50)"/><path d="M454.0 667.6 L472.0 667.6 L472.0 675.6 L454.0 675.6 Z" fill="rgb(255,236,50)"/><path d="M454.0 679.6 L472.0 679.6 L472.0 687.6 L454.0 687.6 Z" fill="rgb(255,236,50)"/><path d="M454.0 691.6 L472.0 691.6 L472.0 699.6 L454.0 699.6 Z" fill="rgb(255,236,50)"/><path d="M475.7 568.6 L499.7 568.6 L499.7 582.6 L475.7 582.6 Z" fill="#000000"/><path d="M475.7 580.6 L499.7 580.6 L499.7 594.6 L475.7 594.6 Z" fill="#000000"/><path d="M475.7 592.6 L499.7 592.6 L499.7 606.6 L475.7 606.6 Z" fill="#000000"/><path d="M475.7 604.6 L499.7 604.6 L499.7 618.6 L475.7 618.6 Z" fill="#000000"/><path d="M475.7 616.6 L499.7 616.6 L499.7 630.6 L475.7 630.6 Z" fill="#000000"/><path d="M475.7 628.6 L499.7 628.6 L499.7 642.6 L475.7 642.6 Z" fill="#000000"/><path d="M475.7 640.6 L499.7 640.6 L499.7 654.6 L475.7 654.6 Z" fill="#000000"/><path d="M475.7 652.6 L499.7 652.6 L499.7 666.6 L475.7 666.6 Z" fill="#000000"/><path d="M475.7 664.6 L499.7 664.6 L499.7 678.6 L475.7 678.6 Z" fill="#000000"/><path d="M475.7 676.6 L499.7 676.6 L499.7 690.6 L475.7 690.6 Z" fill="#000000"/><path d="M475.7 688.6 L499.7 688.6 L499.7 702.6 L475.7 702.6 Z" fill="#000000"/><path d="M475.7 700.6 L499.7 700.6 L499.7 714.6 L475.7 714.6 Z" fill="#000000"/><path d="M475.7 712.6 L499.7 712.6 L499.7 726.6 L475.7 726.6 Z" fill="#000000"/><path d="M478.7 571.6 L496.7 571.6 L496.7 579.6 L478.7 579.6 Z" fill="rgb(255,255,50)"/><path d="M478.7 583.6 L496.7 583.6 L496.7 591.6 L478.7 591.6 Z" fill="rgb(255,255,50)"/><path d="M478.7 595.6 L496.7 595.6 L496.7 603.6 L478.7 603.6 Z" fill="rgb(255,255,50)"/><path d="M478.7 607.6 L496.7 607.6 L496.7 615.6 L478.7 615.6 Z" fill="rgb(255,255,50)"/><path d="M478.7 619.6 L496.7 619.6 L496.7 627.6 L478.7 627.6 Z" fill="rgb(255,255,50)"/><path d="M478.7 631.6 L496.7 631.6 L496.7 639.6 L478.7 639.6 Z" fill="rgb(255,255,50)"/><path d="M478.7 643.6 L496.7 643.6 L496.7 651.6 L478.7 651.6 Z" fill="rgb(255,255,50)"/><path d="M478.7 655.6 L496.7 655.6 L496.7 663.6 L478.7 663.6 Z" fill="rgb(255,255,50)"/><path d="M478.7 667.6 L496.7 667.6 L496.7 675.6 L478.7 675.6 Z" fill="rgb(255,255,50)"/><path d="M478.7 679.6 L496.7 679.6 L496.7 687.6 L478.7 687.6 Z" fill="rgb(255,255,50)"/><path d="M478.7 691.6 L496.7 691.6 L496.7 699.6 L478.7 699.6 Z" fill="rgb(255,255,50)"/><path d="M478.7 703.6 L496.7 703.6 L496.7 711.6 L478.7 711.6 Z" fill="rgb(255,255,50)"/><path d="M478.7 715.6 L496.7 715.6 L496.7 723.6 L478.7 723.6 Z" fill="rgb(255,255,50)"/><path d="M500.4 568.6 L524.4 568.6 L524.4 582.6 L500.4 582.6 Z" fill="#000000"/><path d="M500.4 580.6 L524.4 580.6 L524.4 594.6 L500.4 594.6 Z" fill="#000000"/><path d="M500.4 592.6 L524.4 592.6 L524.4 606.6 L500.4 606.6 Z" fill="#000000"/><path d="M500.4 604.6 L524.4 604.6 L524.4 618.6 L500.4 618.6 Z" fill="#000000"/><path d="M500.4 616.6 L524.4 616.6 L524.4 630.6 L500.4 630.6 Z" fill="#000000"/><path d="M500.4 628.6 L524.4 628.6 L524.4 642.6 L500.4 642.6 Z" fill="#000000"/><path d="M500.4 640.6 L524.4 640.6 L524.4 654.6 L500.4 654.6 Z" fill="#000000"/><path d="M500.4 652.6 L524.4 652.6 L524.4 666.6 L500.4 666.6 Z" fill="#000000"/><path d="M500.4 664.6 L524.4 664.6 L524.4 678.6 L500.4 678.6 Z" fill="#000000"/><path d="M500.4 676.6 L524.4 676.6 L524.4 690.6 L500.4 690.6 Z" fill="#000000"/><path d="M500.4 688.6 L524.4 688.6 L524.4 702.6 L500.4 702.6 Z" fill="#000000"/><path d="M503.4 571.6 L521.4 571.6 L521.4 579.6 L503.4 579.6 Z" fill="rgb(236,255,50)"/><path d="M503.4 583.6 L521.4 583.6 L521.4 591.6 L503.4 591.6 Z" fill="rgb(236,255,50)"/><path d="M503.4 595.6 L521.4 595.6 L521.4 603.6 L503.4 603.6 Z" fill="rgb(236,255,50)"/><path d="M503.4 607.6 L521.4 607.6 L521.4 615.6 L503.4 615.6 Z" fill="rgb(236,255,50)"/><path d="M503.4 619.6 L521.4 619.6 L521.4 627.6 L503.4 627.6 Z" fill="rgb(236,255,50)"/><path d="M503.4 631.6 L521.4 631.6 L521.4 639.6 L503.4 639.6 Z" fill="rgb(236,255,50)"/><path d="M503.4 643.6 L521.4 643.6 L521.4 651.6 L503.4 651.6 Z" fill="rgb(236,255,50)"/><path d="M503.4 655.6 L521.4 655.6 L521.4 663.6 L503.4 663.6 Z" fill="rgb(236,255,50)"/><path d="M503.4 667.6 L521.4 667.6 L521.4 675.6 L503.4 675.6 Z" fill="rgb(236,255,50)"/><path d="M503.4 679.6 L521.4 679.6 L521.4 687.6 L503.4 687.6 Z" fill="rgb(236,255,50)"/><path d="M503.4 691.6 L521.4 691.6 L521.4 699.6 L503.4 699.6 Z" fill="rgb(236,255,50)"/><path d="M525.1 568.6 L549.1 568.6 L549.1 582.6 L525.1 582.6 Z" fill="#000000"/><path d="M525.1 580.6 L549.1 580.6 L549.1 594.6 L525.1 594.6 Z" fill="#000000"/><path d="M525.1 592.6 L549.1 592.6 L549.1 606.6 L525.1 606.6 Z" fill="#000000"/><path d="M525.1 604.6 L549.1 604.6 L549.1 618.6 L525.1 618.6 Z" fill="#000000"/><path d="M525.1 616.6 L549.1 616.6 L549.1 630.6 L525.1 630.6 Z" fill="#000000"/><path d="M525.1 628.6 L549.1 628.6 L549.1 642.6 L525.1 642.6 Z" fill="#000000"/><path d="M525.1 640.6 L549.1 640.6 L549.1 654.6 L525.1 654.6 Z" fill="#000000"/><path d="M525.1 652.6 L549.1 652.6 L549.1 666.6 L525.1 666.6 Z" fill="#000000"/><path d="M525.1 664.6 L549.1 664.6 L549.1 678.6 L525.1 678.6 Z" fill="#000000"/><path d="M525.1 676.6 L549.1 676.6 L549.1 690.6 L525.1 690.6 Z" fill="#000000"/><path d="M528.1 571.6 L546.1 571.6 L546.1 579.6 L528.1 579.6 Z" fill="rgb(217,255,50)"/><path d="M528.1 583.6 L546.1 583.6 L546.1 591.6 L528.1 591.6 Z" fill="rgb(217,255,50)"/><path d="M528.1 595.6 L546.1 595.6 L546.1 603.6 L528.1 603.6 Z" fill="rgb(217,255,50)"/><path d="M528.1 607.6 L546.1 607.6 L546.1 615.6 L528.1 615.6 Z" fill="rgb(217,255,50)"/><path d="M528.1 619.6 L546.1 619.6 L546.1 627.6 L528.1 627.6 Z" fill="rgb(217,255,50)"/><path d="M528.1 631.6 L546.1 631.6 L546.1 639.6 L528.1 639.6 Z" fill="rgb(217,255,50)"/><path d="M528.1 643.6 L546.1 643.6 L546.1 651.6 L528.1 651.6 Z" fill="rgb(217,255,50)"/><path d="M528.1 655.6 L546.1 655.6 L546.1 663.6 L528.1 663.6 Z" fill="rgb(217,255,50)"/><path d="M528.1 667.6 L546.1 667.6 L546.1 675.6 L528.1 675.6 Z" fill="rgb(217,255,50)"/><path d="M528.1 679.6 L546.1 679.6 L546.1 687.6 L528.1 687.6 Z" fill="rgb(217,255,50)"/><path d="M568.5 566.2 L550.5 568.6 L550.7 582.6 L572.0 579.8 Z" fill="#000000"/><path d="M571.6 577.8 L550.5 580.6 L550.7 594.6 L575.1 591.4 Z" fill="#000000"/><path d="M574.7 589.4 L550.5 592.6 L550.6 606.6 L578.2 602.9 Z" fill="#000000"/><path d="M577.8 601.0 L550.5 604.6 L550.6 618.6 L581.3 614.5 Z" fill="#000000"/><path d="M580.9 612.6 L550.5 616.6 L550.6 630.6 L584.5 626.1 Z" fill="#000000"/><path d="M584.0 624.2 L550.5 628.6 L550.6 642.6 L587.6 637.7 Z" fill="#000000"/><path d="M587.2 635.8 L550.5 640.6 L550.6 654.6 L590.7 649.3 Z" fill="#000000"/><path d="M590.3 647.4 L550.5 652.6 L550.6 666.6 L593.8 660.9 Z" fill="#000000"/><path d="M593.4 658.9 L550.5 664.6 L550.6 678.6 L596.9 672.5 Z" fill="#000000"/><path d="M566.4 569.8 L553.5 571.5 L553.9 579.5 L568.0 577.6 Z" fill="rgb(199,255,50)"/><path d="M569.5 581.4 L553.5 583.5 L553.9 591.5 L571.2 589.2 Z" fill="rgb(199,255,50)"/><path d="M572.6 593.0 L553.5 595.5 L553.8 603.5 L574.3 600.8 Z" fill="rgb(199,255,50)"/><path d="M575.7 604.6 L553.5 607.5 L553.8 615.5 L577.5 612.4 Z" fill="rgb(199,255,50)"/><path d="M578.8 616.2 L553.5 619.5 L553.8 627.5 L580.6 624.0 Z" fill="rgb(199,255,50)"/><path d="M581.9 627.8 L553.5 631.5 L553.8 639.5 L583.7 635.6 Z" fill="rgb(199,255,50)"/><path d="M585.0 639.4 L553.5 643.5 L553.7 651.5 L586.9 647.2 Z" fill="rgb(199,255,50)"/><path d="M588.1 651.0 L553.5 655.5 L553.7 663.5 L590.0 658.8 Z" fill="rgb(199,255,50)"/><path d="M591.2 662.6 L553.5 667.5 L553.7 675.5 L593.1 670.4 Z" fill="rgb(199,255,50)"/><path d="M587.2 558.7 L570.4 565.7 L574.2 579.2 L594.0 571.0 Z" fill="#000000"/><path d="M593.2 569.1 L573.5 577.3 L577.3 590.8 L600.1 581.3 Z" fill="#000000"/><path d="M599.2 579.5 L576.6 588.9 L580.4 602.4 L606.1 591.7 Z" fill="#000000"/><path d="M605.2 589.9 L579.7 600.5 L583.5 614.0 L612.1 602.1 Z" fill="#000000"/><path d="M611.2 600.3 L582.8 612.1 L586.6 625.6 L618.1 612.5 Z" fill="#000000"/><path d="M586.0 562.8 L574.1 567.7 L576.5 575.3 L589.7 569.9 Z" fill="rgb(180,255,50)"/><path d="M592.0 573.2 L577.2 579.3 L579.6 587.0 L595.7 580.3 Z" fill="rgb(180,255,50)"/><path d="M598.0 583.6 L580.3 590.9 L582.7 598.6 L601.8 590.7 Z" fill="rgb(180,255,50)"/><path d="M604.0 594.0 L583.4 602.5 L585.7 610.2 L607.8 601.0 Z" fill="rgb(180,255,50)"/><path d="M610.0 604.4 L586.5 614.1 L588.8 621.8 L613.8 611.4 Z" fill="rgb(180,255,50)"/><path d="M603.3 546.7 L588.9 557.8 L596.0 569.8 L613.1 556.7 Z" fill="#000000"/><path d="M611.8 555.2 L594.9 568.2 L602.0 580.2 L621.6 565.2 Z" fill="#000000"/><path d="M620.3 563.7 L600.9 578.6 L608.0 590.6 L630.1 573.7 Z" fill="#000000"/><path d="M628.7 572.2 L606.9 589.0 L614.0 601.0 L638.6 582.2 Z" fill="#000000"/><path d="M637.2 580.7 L612.9 599.3 L620.0 611.4 L647.1 590.6 Z" fill="#000000"/><path d="M645.7 589.2 L618.9 609.7 L626.0 621.8 L655.5 599.1 Z" fill="#000000"/><path d="M654.2 597.6 L624.9 620.1 L632.0 632.2 L664.0 607.6 Z" fill="#000000"/><path d="M662.7 606.1 L630.9 630.5 L638.0 642.6 L672.5 616.1 Z" fill="#000000"/><path d="M671.2 614.6 L636.9 640.9 L644.0 653.0 L681.0 624.6 Z" fill="#000000"/><path d="M679.7 623.1 L642.9 651.3 L650.0 663.4 L689.5 633.0 Z" fill="#000000"/><path d="M688.1 631.6 L648.9 661.7 L655.9 673.8 L698.0 641.5 Z" fill="#000000"/><path d="M603.2 550.9 L592.9 558.8 L597.3 565.5 L608.6 556.8 Z" fill="rgb(162,255,50)"/><path d="M611.7 559.4 L599.0 569.2 L603.3 575.9 L617.1 565.3 Z" fill="rgb(162,255,50)"/><path d="M620.2 567.9 L605.0 579.6 L609.2 586.4 L625.6 573.8 Z" fill="rgb(162,255,50)"/><path d="M628.7 576.4 L611.0 590.0 L615.2 596.8 L634.1 582.2 Z" fill="rgb(162,255,50)"/><path d="M637.2 584.9 L617.0 600.4 L621.2 607.2 L642.6 590.7 Z" fill="rgb(162,255,50)"/><path d="M645.7 593.4 L623.0 610.8 L627.2 617.6 L651.2 599.2 Z" fill="rgb(162,255,50)"/><path d="M654.1 601.9 L629.0 621.2 L633.2 628.0 L659.7 607.7 Z" fill="rgb(162,255,50)"/><path d="M662.6 610.3 L635.0 631.6 L639.1 638.4 L668.2 616.1 Z" fill="rgb(162,255,50)"/><path d="M671.1 618.8 L641.0 642.0 L645.1 648.8 L676.7 624.6 Z" fill="rgb(162,255,50)"/><path d="M679.6 627.3 L647.0 652.4 L651.1 659.2 L685.1 633.1 Z" fill="rgb(162,255,50)"/><path d="M688.1 635.8 L653.0 662.8 L657.1 669.6 L693.6 641.6 Z" fill="rgb(162,255,50)"/><path d="M615.7 530.9 L604.7 545.3 L614.7 555.1 L627.8 538.1 Z" fill="#000000"/><path d="M626.1 536.9 L613.1 553.8 L623.2 563.6 L638.2 544.1 Z" fill="#000000"/><path d="M636.5 542.9 L621.6 562.3 L631.6 572.1 L648.6 550.0 Z" fill="#000000"/><path d="M646.9 548.9 L630.1 570.8 L640.1 580.6 L659.0 556.0 Z" fill="#000000"/><path d="M657.3 554.9 L638.6 579.3 L648.6 589.1 L669.4 562.0 Z" fill="#000000"/><path d="M667.7 560.9 L647.1 587.8 L657.1 597.6 L679.8 568.0 Z" fill="#000000"/><path d="M678.1 566.9 L655.6 596.3 L665.5 606.1 L690.2 574.0 Z" fill="#000000"/><path d="M688.5 572.9 L664.1 604.7 L674.0 614.6 L700.6 580.0 Z" fill="#000000"/><path d="M698.9 578.9 L672.6 613.2 L682.5 623.1 L710.9 586.0 Z" fill="#000000"/><path d="M709.3 584.9 L681.0 621.7 L691.0 631.6 L721.3 592.0 Z" fill="#000000"/><path d="M719.6 590.9 L689.5 630.2 L699.5 640.0 L731.7 598.0 Z" fill="#000000"/><path d="M730.0 596.9 L698.0 638.7 L708.0 648.5 L742.1 604.0 Z" fill="#000000"/><path d="M740.4 602.9 L706.5 647.2 L716.4 657.0 L752.5 610.0 Z" fill="#000000"/><path d="M616.7 535.0 L608.9 545.3 L614.8 550.6 L623.5 539.3 Z" fill="rgb(143,255,50)"/><path d="M627.1 541.0 L617.4 553.8 L623.3 559.2 L633.9 545.3 Z" fill="rgb(143,255,50)"/><path d="M637.5 547.0 L625.8 562.2 L631.7 567.7 L644.3 551.3 Z" fill="rgb(143,255,50)"/><path d="M647.9 553.0 L634.3 570.7 L640.2 576.2 L654.7 557.3 Z" fill="rgb(143,255,50)"/><path d="M658.3 559.0 L642.8 579.2 L648.7 584.7 L665.1 563.2 Z" fill="rgb(143,255,50)"/><path d="M668.7 565.0 L651.3 587.7 L657.1 593.2 L675.5 569.2 Z" fill="rgb(143,255,50)"/><path d="M679.1 571.0 L659.8 596.2 L665.6 601.7 L685.9 575.2 Z" fill="rgb(143,255,50)"/><path d="M689.5 577.0 L668.3 604.7 L674.1 610.2 L696.3 581.2 Z" fill="rgb(143,255,50)"/><path d="M699.9 583.0 L676.8 613.2 L682.6 618.7 L706.8 587.2 Z" fill="rgb(143,255,50)"/><path d="M710.3 589.0 L685.3 621.7 L691.0 627.2 L717.2 593.2 Z" fill="rgb(143,255,50)"/><path d="M720.7 595.0 L693.8 630.2 L699.5 635.7 L727.6 599.2 Z" fill="rgb(143,255,50)"/><path d="M731.1 601.0 L702.2 638.6 L708.0 644.2 L738.0 605.2 Z" fill="rgb(143,255,50)"/><path d="M741.5 607.0 L710.7 647.1 L716.5 652.7 L748.3 611.2 Z" fill="rgb(143,255,50)"/><path d="M623.7 512.4 L616.7 529.3 L628.9 536.1 L637.1 516.2 Z" fill="#000000"/><path d="M635.2 515.6 L627.1 535.2 L639.3 542.1 L648.7 519.3 Z" fill="#000000"/><path d="M646.8 518.7 L637.5 541.2 L649.7 548.1 L660.3 522.4 Z" fill="#000000"/><path d="M658.4 521.8 L647.9 547.2 L660.1 554.1 L671.9 525.5 Z" fill="#000000"/><path d="M670.0 524.9 L658.3 553.2 L670.5 560.1 L683.5 528.6 Z" fill="#000000"/><path d="M681.6 528.0 L668.7 559.2 L680.8 566.2 L695.1 531.7 Z" fill="#000000"/><path d="M693.2 531.1 L679.1 565.2 L691.2 572.2 L706.7 534.8 Z" fill="#000000"/><path d="M704.8 534.2 L689.5 571.2 L701.6 578.2 L718.3 537.9 Z" fill="#000000"/><path d="M716.4 537.3 L699.8 577.2 L712.0 584.2 L729.9 541.0 Z" fill="#000000"/><path d="M625.7 516.1 L620.7 528.1 L627.8 531.7 L633.3 518.6 Z" fill="rgb(125,255,50)"/><path d="M637.3 519.2 L631.1 534.1 L638.2 537.8 L644.9 521.6 Z" fill="rgb(125,255,50)"/><path d="M648.9 522.3 L641.5 540.1 L648.6 543.8 L656.5 524.7 Z" fill="rgb(125,255,50)"/><path d="M660.5 525.5 L651.9 546.1 L659.0 549.8 L668.1 527.8 Z" fill="rgb(125,255,50)"/><path d="M672.1 528.6 L662.3 552.1 L669.4 555.9 L679.7 530.9 Z" fill="rgb(125,255,50)"/><path d="M683.7 531.7 L672.7 558.1 L679.8 561.9 L691.3 534.0 Z" fill="rgb(125,255,50)"/><path d="M695.3 534.8 L683.1 564.1 L690.2 567.9 L702.9 537.1 Z" fill="rgb(125,255,50)"/><path d="M706.9 537.9 L693.5 570.1 L700.5 573.9 L714.5 540.1 Z" fill="rgb(125,255,50)"/><path d="M718.5 541.0 L703.9 576.1 L710.9 579.9 L726.1 543.2 Z" fill="rgb(125,255,50)"/><path d="M626.5 492.5 L624.2 510.6 L637.7 514.0 L640.5 492.7 Z" fill="#000000"/><path d="M638.5 492.6 L635.7 513.7 L649.3 517.2 L652.5 492.7 Z" fill="#000000"/><path d="M650.5 492.6 L647.3 516.8 L660.9 520.3 L664.5 492.7 Z" fill="#000000"/><path d="M662.5 492.6 L658.9 519.9 L672.5 523.4 L676.5 492.7 Z" fill="#000000"/><path d="M674.5 492.6 L670.5 523.0 L684.1 526.5 L688.5 492.7 Z" fill="#000000"/><path d="M629.4 495.6 L627.7 508.4 L635.6 510.1 L637.4 496.0 Z" fill="rgb(106,255,50)"/><path d="M641.4 495.6 L639.4 511.5 L647.2 513.2 L649.4 495.9 Z" fill="rgb(106,255,50)"/><path d="M653.5 495.6 L651.0 514.6 L658.8 516.4 L661.5 495.9 Z" fill="rgb(106,255,50)"/><path d="M665.5 495.6 L662.6 517.7 L670.3 519.5 L673.5 495.9 Z" fill="rgb(106,255,50)"/><path d="M677.5 495.6 L674.1 520.8 L681.9 522.7 L685.5 495.8 Z" fill="rgb(106,255,50)"/><path d="M624.2 472.6 L626.5 490.6 L640.5 490.4 L637.7 469.1 Z" fill="#000000"/><path d="M635.7 469.5 L638.5 490.6 L652.5 490.5 L649.3 466.0 Z" fill="#000000"/><path d="M647.3 466.4 L650.5 490.6 L664.5 490.5 L660.9 462.9 Z" fill="#000000"/><path d="M658.9 463.3 L662.5 490.6 L676.5 490.5 L672.5 459.8 Z" fill="#000000"/><path d="M627.7 474.8 L629.4 487.6 L637.4 487.2 L635.6 473.1 Z" fill="rgb(88,255,50)"/><path d="M639.4 471.7 L641.4 487.6 L649.4 487.2 L647.2 469.9 Z" fill="rgb(88,255,50)"/><path d="M651.0 468.6 L653.5 487.6 L661.5 487.3 L658.8 466.8 Z" fill="rgb(88,255,50)"/><path d="M662.6 465.4 L665.5 487.6 L673.5 487.3 L670.3 463.6 Z" fill="rgb(88,255,50)"/><path d="M616.7 453.9 L623.7 470.7 L637.1 466.9 L628.9 447.1 Z" fill="#000000"/><path d="M627.1 447.9 L635.2 467.6 L648.7 463.8 L639.3 441.1 Z" fill="#000000"/><path d="M637.5 441.9 L646.8 464.5 L660.3 460.8 L649.7 435.0 Z" fill="#000000"/><path d="M647.9 435.9 L658.4 461.4 L671.9 457.7 L660.1 429.0 Z" fill="#000000"/><path d="M658.3 429.9 L670.0 458.3 L683.5 454.6 L670.5 423.0 Z" fill="#000000"/><path d="M668.7 423.9 L681.6 455.2 L695.1 451.5 L680.8 417.0 Z" fill="#000000"/><path d="M679.1 417.9 L693.2 452.1 L706.7 448.4 L691.2 411.0 Z" fill="#000000"/><path d="M689.5 411.9 L704.8 449.0 L718.3 445.3 L701.6 405.0 Z" fill="#000000"/><path d="M699.8 405.9 L716.4 445.9 L729.9 442.2 L712.0 399.0 Z" fill="#000000"/><path d="M620.7 455.1 L625.7 467.0 L633.3 464.6 L627.8 451.5 Z" fill="rgb(69,255,50)"/><path d="M631.1 449.1 L637.3 463.9 L644.9 461.5 L638.2 445.4 Z" fill="rgb(69,255,50)"/><path d="M641.5 443.1 L648.9 460.8 L656.5 458.5 L648.6 439.4 Z" fill="rgb(69,255,50)"/><path d="M651.9 437.1 L660.5 457.7 L668.1 455.4 L659.0 433.3 Z" fill="rgb(69,255,50)"/><path d="M662.3 431.1 L672.1 454.6 L679.7 452.3 L669.4 427.3 Z" fill="rgb(69,255,50)"/><path d="M672.7 425.1 L683.7 451.5 L691.3 449.2 L679.8 421.3 Z" fill="rgb(69,255,50)"/><path d="M683.1 419.1 L695.3 448.4 L702.9 446.1 L690.2 415.3 Z" fill="rgb(69,255,50)"/><path d="M693.5 413.1 L706.9 445.3 L714.5 443.0 L700.5 409.2 Z" fill="rgb(69,255,50)"/><path d="M703.9 407.1 L718.5 442.2 L726.1 439.9 L710.9 403.2 Z" fill="rgb(69,255,50)"/><path d="M616.0 452.7 L604.0 431.9 L616.1 424.9 L628.1 445.7 Z" fill="#000000"/><path d="M626.4 446.7 L614.4 425.9 L626.5 418.9 L638.5 439.7 Z" fill="#000000"/><path d="M636.8 440.7 L624.8 419.9 L636.9 412.9 L648.9 433.7 Z" fill="#000000"/><path d="M647.2 434.7 L635.2 413.9 L647.3 406.9 L659.3 427.7 Z" fill="#000000"/><path d="M657.6 428.7 L645.6 407.9 L657.7 400.9 L669.7 421.7 Z" fill="#000000"/><path d="M668.0 422.7 L656.0 401.9 L668.1 394.9 L680.1 415.7 Z" fill="#000000"/><path d="M678.3 416.7 L666.3 395.9 L678.5 388.9 L690.5 409.7 Z" fill="#000000"/><path d="M688.7 410.7 L676.7 389.9 L688.9 382.9 L700.9 403.7 Z" fill="#000000"/><path d="M699.1 404.7 L687.1 383.9 L699.3 376.9 L711.3 397.7 Z" fill="#000000"/><path d="M709.5 398.7 L697.5 377.9 L709.6 370.9 L721.6 391.7 Z" fill="#000000"/><path d="M719.9 392.7 L707.9 371.9 L720.0 364.9 L732.0 385.7 Z" fill="#000000"/><path d="M617.1 448.6 L608.1 433.0 L615.0 429.0 L624.0 444.6 Z" fill="rgb(50,255,50)"/><path d="M627.5 442.6 L618.5 427.0 L625.4 423.0 L634.4 438.6 Z" fill="rgb(50,255,50)"/><path d="M637.9 436.6 L628.9 421.0 L635.8 417.0 L644.8 432.6 Z" fill="rgb(50,255,50)"/><path d="M648.3 430.6 L639.3 415.0 L646.2 411.0 L655.2 426.6 Z" fill="rgb(50,255,50)"/><path d="M658.7 424.6 L649.7 409.0 L656.6 405.0 L665.6 420.6 Z" fill="rgb(50,255,50)"/><path d="M669.1 418.6 L660.1 403.0 L667.0 399.0 L676.0 414.6 Z" fill="rgb(50,255,50)"/><path d="M679.4 412.6 L670.4 397.0 L677.4 393.0 L686.4 408.6 Z" fill="rgb(50,255,50)"/><path d="M689.8 406.6 L680.8 391.0 L687.8 387.0 L696.8 402.6 Z" fill="rgb(50,255,50)"/><path d="M700.2 400.6 L691.2 385.0 L698.2 381.0 L707.2 396.6 Z" fill="rgb(50,255,50)"/><path d="M710.6 394.6 L701.6 379.0 L708.6 375.0 L717.6 390.6 Z" fill="rgb(50,255,50)"/><path d="M721.0 388.6 L712.0 373.0 L718.9 369.0 L727.9 384.6 Z" fill="rgb(50,255,50)"/><path d="M603.6 431.3 L591.6 410.5 L603.8 403.5 L615.8 424.3 Z" fill="#000000"/><path d="M614.0 425.3 L602.0 404.5 L614.2 397.5 L626.2 418.3 Z" fill="#000000"/><path d="M624.4 419.3 L612.4 398.5 L624.6 391.5 L636.6 412.3 Z" fill="#000000"/><path d="M634.8 413.3 L622.8 392.5 L634.9 385.5 L646.9 406.3 Z" fill="#000000"/><path d="M645.2 407.3 L633.2 386.5 L645.3 379.5 L657.3 400.3 Z" fill="#000000"/><path d="M655.6 401.3 L643.6 380.5 L655.7 373.5 L667.7 394.3 Z" fill="#000000"/><path d="M666.0 395.3 L654.0 374.5 L666.1 367.5 L678.1 388.3 Z" fill="#000000"/><path d="M676.4 389.3 L664.4 368.5 L676.5 361.5 L688.5 382.3 Z" fill="#000000"/><path d="M686.8 383.3 L674.8 362.5 L686.9 355.5 L698.9 376.3 Z" fill="#000000"/><path d="M697.2 377.3 L685.2 356.5 L697.3 349.5 L709.3 370.3 Z" fill="#000000"/><path d="M604.7 427.2 L595.7 411.6 L602.7 407.6 L611.7 423.2 Z" fill="rgb(50,255,69)"/><path d="M615.1 421.2 L606.1 405.6 L613.1 401.6 L622.1 417.2 Z" fill="rgb(50,255,69)"/><path d="M625.5 415.2 L616.5 399.6 L623.5 395.6 L632.5 411.2 Z" fill="rgb(50,255,69)"/><path d="M635.9 409.2 L626.9 393.6 L633.8 389.6 L642.8 405.2 Z" fill="rgb(50,255,69)"/><path d="M646.3 403.2 L637.3 387.6 L644.2 383.6 L653.2 399.2 Z" fill="rgb(50,255,69)"/><path d="M656.7 397.2 L647.7 381.6 L654.6 377.6 L663.6 393.2 Z" fill="rgb(50,255,69)"/><path d="M667.1 391.2 L658.1 375.6 L665.0 371.6 L674.0 387.2 Z" fill="rgb(50,255,69)"/><path d="M677.5 385.2 L668.5 369.6 L675.4 365.6 L684.4 381.2 Z" fill="rgb(50,255,69)"/><path d="M687.9 379.2 L678.9 363.6 L685.8 359.6 L694.8 375.2 Z" fill="rgb(50,255,69)"/><path d="M698.3 373.2 L689.3 357.6 L696.2 353.6 L705.2 369.2 Z" fill="rgb(50,255,69)"/><path d="M591.3 409.9 L579.3 389.1 L591.4 382.1 L603.4 402.9 Z" fill="#000000"/><path d="M601.7 403.9 L589.7 383.1 L601.8 376.1 L613.8 396.9 Z" fill="#000000"/><path d="M612.1 397.9 L600.1 377.1 L612.2 370.1 L624.2 390.9 Z" fill="#000000"/><path d="M622.5 391.9 L610.5 371.1 L622.6 364.1 L634.6 384.9 Z" fill="#000000"/><path d="M632.9 385.9 L620.9 365.1 L633.0 358.1 L645.0 378.9 Z" fill="#000000"/><path d="M643.3 379.9 L631.3 359.1 L643.4 352.1 L655.4 372.9 Z" fill="#000000"/><path d="M592.4 405.8 L583.4 390.2 L590.3 386.2 L599.3 401.8 Z" fill="rgb(50,255,88)"/><path d="M602.8 399.8 L593.8 384.2 L600.7 380.2 L609.7 395.8 Z" fill="rgb(50,255,88)"/><path d="M613.2 393.8 L604.2 378.2 L611.1 374.2 L620.1 389.8 Z" fill="rgb(50,255,88)"/><path d="M623.6 387.8 L614.6 372.2 L621.5 368.2 L630.5 383.8 Z" fill="rgb(50,255,88)"/><path d="M634.0 381.8 L625.0 366.2 L631.9 362.2 L640.9 377.8 Z" fill="rgb(50,255,88)"/><path d="M644.4 375.8 L635.4 360.2 L642.3 356.2 L651.3 371.8 Z" fill="rgb(50,255,88)"/><path d="M578.9 388.5 L566.9 367.7 L579.1 360.7 L591.1 381.5 Z" fill="#000000"/><path d="M589.3 382.5 L577.3 361.7 L589.5 354.7 L601.5 375.5 Z" fill="#000000"/><path d="M599.7 376.5 L587.7 355.7 L599.9 348.7 L611.9 369.5 Z" fill="#000000"/><path d="M610.1 370.5 L598.1 349.7 L610.2 342.7 L622.2 363.5 Z" fill="#000000"/><path d="M620.5 364.5 L608.5 343.7 L620.6 336.7 L632.6 357.5 Z" fill="#000000"/><path d="M630.9 358.5 L618.9 337.7 L631.0 330.7 L643.0 351.5 Z" fill="#000000"/><path d="M641.3 352.5 L629.3 331.7 L641.4 324.7 L653.4 345.5 Z" fill="#000000"/><path d="M651.7 346.5 L639.7 325.7 L651.8 318.7 L663.8 339.5 Z" fill="#000000"/><path d="M662.1 340.5 L650.1 319.7 L662.2 312.7 L674.2 333.5 Z" fill="#000000"/><path d="M672.5 334.5 L660.5 313.7 L672.6 306.7 L684.6 327.5 Z" fill="#000000"/><path d="M580.0 384.4 L571.0 368.8 L578.0 364.8 L587.0 380.4 Z" fill="rgb(50,255,106)"/><path d="M590.4 378.4 L581.4 362.8 L588.4 358.8 L597.4 374.4 Z" fill="rgb(50,255,106)"/><path d="M600.8 372.4 L591.8 356.8 L598.8 352.8 L607.8 368.4 Z" fill="rgb(50,255,106)"/><path d="M611.2 366.4 L602.2 350.8 L609.1 346.8 L618.1 362.4 Z" fill="rgb(50,255,106)"/><path d="M621.6 360.4 L612.6 344.8 L619.5 340.8 L628.5 356.4 Z" fill="rgb(50,255,106)"/><path d="M632.0 354.4 L623.0 338.8 L629.9 334.8 L638.9 350.4 Z" fill="rgb(50,255,106)"/><path d="M642.4 348.4 L633.4 332.8 L640.3 328.8 L649.3 344.4 Z" fill="rgb(50,255,106)"/><path d="M652.8 342.4 L643.8 326.8 L650.7 322.8 L659.7 338.4 Z" fill="rgb(50,255,106)"/><path d="M663.2 336.4 L654.2 320.8 L661.1 316.8 L670.1 332.4 Z" fill="rgb(50,255,106)"/><path d="M673.6 330.4 L664.6 314.8 L671.5 310.8 L680.5 326.4 Z" fill="rgb(50,255,106)"/><path d="M566.6 367.1 L554.6 346.3 L566.7 339.3 L578.7 360.1 Z" fill="#000000"/><path d="M577.0 361.1 L565.0 340.3 L577.1 333.3 L589.1 354.1 Z" fill="#000000"/><path d="M587.4 355.1 L575.4 334.3 L587.5 327.3 L599.5 348.1 Z" fill="#000000"/><path d="M597.8 349.1 L585.8 328.3 L597.9 321.3 L609.9 342.1 Z" fill="#000000"/><path d="M608.2 343.1 L596.2 322.3 L608.3 315.3 L620.3 336.1 Z" fill="#000000"/><path d="M618.6 337.1 L606.6 316.3 L618.7 309.3 L630.7 330.1 Z" fill="#000000"/><path d="M628.9 331.1 L616.9 310.3 L629.1 303.3 L641.1 324.1 Z" fill="#000000"/><path d="M639.3 325.1 L627.3 304.3 L639.5 297.3 L651.5 318.1 Z" fill="#000000"/><path d="M649.7 319.1 L637.7 298.3 L649.9 291.3 L661.9 312.1 Z" fill="#000000"/><path d="M660.1 313.1 L648.1 292.3 L660.2 285.3 L672.2 306.1 Z" fill="#000000"/><path d="M670.5 307.1 L658.5 286.3 L670.6 279.3 L682.6 300.1 Z" fill="#000000"/><path d="M567.7 363.0 L558.7 347.4 L565.6 343.4 L574.6 359.0 Z" fill="rgb(50,255,125)"/><path d="M578.1 357.0 L569.1 341.4 L576.0 337.4 L585.0 353.0 Z" fill="rgb(50,255,125)"/><path d="M588.5 351.0 L579.5 335.4 L586.4 331.4 L595.4 347.0 Z" fill="rgb(50,255,125)"/><path d="M598.9 345.0 L589.9 329.4 L596.8 325.4 L605.8 341.0 Z" fill="rgb(50,255,125)"/><path d="M609.3 339.0 L600.3 323.4 L607.2 319.4 L616.2 335.0 Z" fill="rgb(50,255,125)"/><path d="M619.7 333.0 L610.7 317.4 L617.6 313.4 L626.6 329.0 Z" fill="rgb(50,255,125)"/><path d="M630.0 327.0 L621.0 311.4 L628.0 307.4 L637.0 323.0 Z" fill="rgb(50,255,125)"/><path d="M640.4 321.0 L631.4 305.4 L638.4 301.4 L647.4 317.0 Z" fill="rgb(50,255,125)"/><path d="M650.8 315.0 L641.8 299.4 L648.8 295.4 L657.8 311.0 Z" fill="rgb(50,255,125)"/><path d="M661.2 309.0 L652.2 293.4 L659.2 289.4 L668.2 305.0 Z" fill="rgb(50,255,125)"/><path d="M671.6 303.0 L662.6 287.4 L669.5 283.4 L678.5 299.0 Z" fill="rgb(50,255,125)"/><path d="M554.2 345.7 L542.2 325.0 L554.4 318.0 L566.4 338.7 Z" fill="#000000"/><path d="M564.6 339.7 L552.6 319.0 L564.8 312.0 L576.8 332.7 Z" fill="#000000"/><path d="M575.0 333.7 L563.0 313.0 L575.2 306.0 L587.2 326.7 Z" fill="#000000"/><path d="M585.4 327.7 L573.4 307.0 L585.5 300.0 L597.5 320.7 Z" fill="#000000"/><path d="M595.8 321.7 L583.8 301.0 L595.9 294.0 L607.9 314.7 Z" fill="#000000"/><path d="M606.2 315.7 L594.2 295.0 L606.3 288.0 L618.3 308.7 Z" fill="#000000"/><path d="M616.6 309.7 L604.6 289.0 L616.7 282.0 L628.7 302.7 Z" fill="#000000"/><path d="M627.0 303.7 L615.0 283.0 L627.1 276.0 L639.1 296.7 Z" fill="#000000"/><path d="M555.3 341.6 L546.3 326.1 L553.3 322.1 L562.3 337.6 Z" fill="rgb(50,255,143)"/><path d="M565.7 335.6 L556.7 320.1 L563.7 316.1 L572.7 331.6 Z" fill="rgb(50,255,143)"/><path d="M576.1 329.6 L567.1 314.1 L574.1 310.1 L583.1 325.6 Z" fill="rgb(50,255,143)"/><path d="M586.5 323.6 L577.5 308.1 L584.4 304.1 L593.4 319.6 Z" fill="rgb(50,255,143)"/><path d="M596.9 317.6 L587.9 302.1 L594.8 298.1 L603.8 313.6 Z" fill="rgb(50,255,143)"/><path d="M607.3 311.6 L598.3 296.1 L605.2 292.1 L614.2 307.6 Z" fill="rgb(50,255,143)"/><path d="M617.7 305.6 L608.7 290.1 L615.6 286.1 L624.6 301.6 Z" fill="rgb(50,255,143)"/><path d="M628.1 299.6 L619.1 284.1 L626.0 280.1 L635.0 295.6 Z" fill="rgb(50,255,143)"/><path d="M541.9 324.4 L529.9 303.6 L542.0 296.6 L554.0 317.4 Z" fill="#000000"/><path d="M552.3 318.4 L540.3 297.6 L552.4 290.6 L564.4 311.4 Z" fill="#000000"/><path d="M562.7 312.4 L550.7 291.6 L562.8 284.6 L574.8 305.4 Z" fill="#000000"/><path d="M573.1 306.4 L561.1 285.6 L573.2 278.6 L585.2 299.4 Z" fill="#000000"/><path d="M583.5 300.4 L571.5 279.6 L583.6 272.6 L595.6 293.4 Z" fill="#000000"/><path d="M593.9 294.4 L581.9 273.6 L594.0 266.6 L606.0 287.4 Z" fill="#000000"/><path d="M604.2 288.4 L592.2 267.6 L604.4 260.6 L616.4 281.4 Z" fill="#000000"/><path d="M543.0 320.3 L534.0 304.7 L540.9 300.7 L549.9 316.3 Z" fill="rgb(50,255,162)"/><path d="M553.4 314.3 L544.4 298.7 L551.3 294.7 L560.3 310.3 Z" fill="rgb(50,255,162)"/><path d="M563.8 308.3 L554.8 292.7 L561.7 288.7 L570.7 304.3 Z" fill="rgb(50,255,162)"/><path d="M574.2 302.3 L565.2 286.7 L572.1 282.7 L581.1 298.3 Z" fill="rgb(50,255,162)"/><path d="M584.6 296.3 L575.6 280.7 L582.5 276.7 L591.5 292.3 Z" fill="rgb(50,255,162)"/><path d="M595.0 290.3 L586.0 274.7 L592.9 270.7 L601.9 286.3 Z" fill="rgb(50,255,162)"/><path d="M605.3 284.3 L596.3 268.7 L603.3 264.7 L612.3 280.3 Z" fill="rgb(50,255,162)"/><path d="M529.5 303.0 L517.5 282.2 L529.7 275.2 L541.7 296.0 Z" fill="#000000"/><path d="M539.9 297.0 L527.9 276.2 L540.1 269.2 L552.1 290.0 Z" fill="#000000"/><path d="M550.3 291.0 L538.3 270.2 L550.5 263.2 L562.5 284.0 Z" fill="#000000"/><path d="M560.7 285.0 L548.7 264.2 L560.8 257.2 L572.8 278.0 Z" fill="#000000"/><path d="M571.1 279.0 L559.1 258.2 L571.2 251.2 L583.2 272.0 Z" fill="#000000"/><path d="M581.5 273.0 L569.5 252.2 L581.6 245.2 L593.6 266.0 Z" fill="#000000"/><path d="M591.9 267.0 L579.9 246.2 L592.0 239.2 L604.0 260.0 Z" fill="#000000"/><path d="M602.3 261.0 L590.3 240.2 L602.4 233.2 L614.4 254.0 Z" fill="#000000"/><path d="M612.7 255.0 L600.7 234.2 L612.8 227.2 L624.8 248.0 Z" fill="#000000"/><path d="M623.1 249.0 L611.1 228.2 L623.2 221.2 L635.2 242.0 Z" fill="#000000"/><path d="M530.6 298.9 L521.6 283.3 L528.6 279.3 L537.6 294.9 Z" fill="rgb(50,255,180)"/><path d="M541.0 292.9 L532.0 277.3 L539.0 273.3 L548.0 288.9 Z" fill="rgb(50,255,180)"/><path d="M551.4 286.9 L542.4 271.3 L549.4 267.3 L558.4 282.9 Z" fill="rgb(50,255,180)"/><path d="M561.8 280.9 L552.8 265.3 L559.7 261.3 L568.7 276.9 Z" fill="rgb(50,255,180)"/><path d="M572.2 274.9 L563.2 259.3 L570.1 255.3 L579.1 270.9 Z" fill="rgb(50,255,180)"/><path d="M582.6 268.9 L573.6 253.3 L580.5 249.3 L589.5 264.9 Z" fill="rgb(50,255,180)"/><path d="M593.0 262.9 L584.0 247.3 L590.9 243.3 L599.9 258.9 Z" fill="rgb(50,255,180)"/><path d="M603.4 256.9 L594.4 241.3 L601.3 237.3 L610.3 252.9 Z" fill="rgb(50,255,180)"/><path d="M613.8 250.9 L604.8 235.3 L611.7 231.3 L620.7 246.9 Z" fill="rgb(50,255,180)"/><path d="M624.2 244.9 L615.2 229.3 L622.1 225.3 L631.1 240.9 Z" fill="rgb(50,255,180)"/><path d="M517.2 281.6 L505.2 260.8 L517.3 253.8 L529.3 274.6 Z" fill="#000000"/><path d="M527.6 275.6 L515.6 254.8 L527.7 247.8 L539.7 268.6 Z" fill="#000000"/><path d="M538.0 269.6 L526.0 248.8 L538.1 241.8 L550.1 262.6 Z" fill="#000000"/><path d="M548.4 263.6 L536.4 242.8 L548.5 235.8 L560.5 256.6 Z" fill="#000000"/><path d="M558.8 257.6 L546.8 236.8 L558.9 229.8 L570.9 250.6 Z" fill="#000000"/><path d="M569.2 251.6 L557.2 230.8 L569.3 223.8 L581.3 244.6 Z" fill="#000000"/><path d="M579.5 245.6 L567.5 224.8 L579.7 217.8 L591.7 238.6 Z" fill="#000000"/><path d="M589.9 239.6 L577.9 218.8 L590.1 211.8 L602.1 232.6 Z" fill="#000000"/><path d="M600.3 233.6 L588.3 212.8 L600.5 205.8 L612.5 226.6 Z" fill="#000000"/><path d="M518.3 277.5 L509.3 261.9 L516.2 257.9 L525.2 273.5 Z" fill="rgb(50,255,199)"/><path d="M528.7 271.5 L519.7 255.9 L526.6 251.9 L535.6 267.5 Z" fill="rgb(50,255,199)"/><path d="M539.1 265.5 L530.1 249.9 L537.0 245.9 L546.0 261.5 Z" fill="rgb(50,255,199)"/><path d="M549.5 259.5 L540.5 243.9 L547.4 239.9 L556.4 255.5 Z" fill="rgb(50,255,199)"/><path d="M559.9 253.5 L550.9 237.9 L557.8 233.9 L566.8 249.5 Z" fill="rgb(50,255,199)"/><path d="M570.3 247.5 L561.3 231.9 L568.2 227.9 L577.2 243.5 Z" fill="rgb(50,255,199)"/><path d="M580.6 241.5 L571.6 225.9 L578.6 221.9 L587.6 237.5 Z" fill="rgb(50,255,199)"/><path d="M591.0 235.5 L582.0 219.9 L589.0 215.9 L598.0 231.5 Z" fill="rgb(50,255,199)"/><path d="M601.4 229.5 L592.4 213.9 L599.4 209.9 L608.4 225.5 Z" fill="rgb(50,255,199)"/><path d="M504.8 260.2 L492.8 239.4 L505.0 232.4 L517.0 253.2 Z" fill="#000000"/><path d="M515.2 254.2 L503.2 233.4 L515.4 226.4 L527.4 247.2 Z" fill="#000000"/><path d="M525.6 248.2 L513.6 227.4 L525.8 220.4 L537.8 241.2 Z" fill="#000000"/><path d="M536.0 242.2 L524.0 221.4 L536.1 214.4 L548.1 235.2 Z" fill="#000000"/><path d="M546.4 236.2 L534.4 215.4 L546.5 208.4 L558.5 229.2 Z" fill="#000000"/><path d="M556.8 230.2 L544.8 209.4 L556.9 202.4 L568.9 223.2 Z" fill="#000000"/><path d="M567.2 224.2 L555.2 203.4 L567.3 196.4 L579.3 217.2 Z" fill="#000000"/><path d="M505.9 256.1 L496.9 240.5 L503.9 236.5 L512.9 252.1 Z" fill="rgb(50,255,217)"/><path d="M516.3 250.1 L507.3 234.5 L514.3 230.5 L523.3 246.1 Z" fill="rgb(50,255,217)"/><path d="M526.7 244.1 L517.7 228.5 L524.7 224.5 L533.7 240.1 Z" fill="rgb(50,255,217)"/><path d="M537.1 238.1 L528.1 222.5 L535.0 218.5 L544.0 234.1 Z" fill="rgb(50,255,217)"/><path d="M547.5 232.1 L538.5 216.5 L545.4 212.5 L554.4 228.1 Z" fill="rgb(50,255,217)"/><path d="M557.9 226.1 L548.9 210.5 L555.8 206.5 L564.8 222.1 Z" fill="rgb(50,255,217)"/><path d="M568.3 220.1 L559.3 204.5 L566.2 200.5 L575.2 216.1 Z" fill="rgb(50,255,217)"/><path d="M492.5 238.8 L480.5 218.0 L492.6 211.0 L504.6 231.8 Z" fill="#000000"/><path d="M502.9 232.8 L490.9 212.0 L503.0 205.0 L515.0 225.8 Z" fill="#000000"/><path d="M513.3 226.8 L501.3 206.0 L513.4 199.0 L525.4 219.8 Z" fill="#000000"/><path d="M523.7 220.8 L511.7 200.0 L523.8 193.0 L535.8 213.8 Z" fill="#000000"/><path d="M534.1 214.8 L522.1 194.0 L534.2 187.0 L546.2 207.8 Z" fill="#000000"/><path d="M544.5 208.8 L532.5 188.0 L544.6 181.0 L556.6 201.8 Z" fill="#000000"/><path d="M554.8 202.8 L542.8 182.0 L555.0 175.0 L567.0 195.8 Z" fill="#000000"/><path d="M565.2 196.8 L553.2 176.0 L565.4 169.0 L577.4 189.8 Z" fill="#000000"/><path d="M493.6 234.7 L484.6 219.1 L491.5 215.1 L500.5 230.7 Z" fill="rgb(50,255,236)"/><path d="M504.0 228.7 L495.0 213.1 L501.9 209.1 L510.9 224.7 Z" fill="rgb(50,255,236)"/><path d="M514.4 222.7 L505.4 207.1 L512.3 203.1 L521.3 218.7 Z" fill="rgb(50,255,236)"/><path d="M524.8 216.7 L515.8 201.1 L522.7 197.1 L531.7 212.7 Z" fill="rgb(50,255,236)"/><path d="M535.2 210.7 L526.2 195.1 L533.1 191.1 L542.1 206.7 Z" fill="rgb(50,255,236)"/><path d="M545.6 204.7 L536.6 189.1 L543.5 185.1 L552.5 200.7 Z" fill="rgb(50,255,236)"/><path d="M555.9 198.7 L546.9 183.1 L553.9 179.1 L562.9 194.7 Z" fill="rgb(50,255,236)"/><path d="M566.3 192.7 L557.3 177.1 L564.3 173.1 L573.3 188.7 Z" fill="rgb(50,255,236)"/><path d="M480.1 217.4 L468.1 196.6 L480.3 189.6 L492.3 210.4 Z" fill="#000000"/><path d="M490.5 211.4 L478.5 190.6 L490.7 183.6 L502.7 204.4 Z" fill="#000000"/><path d="M500.9 205.4 L488.9 184.6 L501.1 177.6 L513.1 198.4 Z" fill="#000000"/><path d="M511.3 199.4 L499.3 178.6 L511.4 171.6 L523.4 192.4 Z" fill="#000000"/><path d="M521.7 193.4 L509.7 172.6 L521.8 165.6 L533.8 186.4 Z" fill="#000000"/><path d="M481.2 213.3 L472.2 197.7 L479.2 193.7 L488.2 209.3 Z" fill="rgb(50,255,255)"/><path d="M491.6 207.3 L482.6 191.7 L489.6 187.7 L498.6 203.3 Z" fill="rgb(50,255,255)"/><path d="M502.0 201.3 L493.0 185.7 L500.0 181.7 L509.0 197.3 Z" fill="rgb(50,255,255)"/><path d="M512.4 195.3 L503.4 179.7 L510.3 175.7 L519.3 191.3 Z" fill="rgb(50,255,255)"/><path d="M522.8 189.3 L513.8 173.7 L520.7 169.7 L529.7 185.3 Z" fill="rgb(50,255,255)"/><path d="M467.8 196.0 L455.8 175.2 L467.9 168.2 L479.9 189.0 Z" fill="#000000"/><path d="M478.2 190.0 L466.2 169.2 L478.3 162.2 L490.3 183.0 Z" fill="#000000"/><path d="M488.6 184.0 L476.6 163.2 L488.7 156.2 L500.7 177.0 Z" fill="#000000"/><path d="M499.0 178.0 L487.0 157.2 L499.1 150.2 L511.1 171.0 Z" fill="#000000"/><path d="M509.4 172.0 L497.4 151.2 L509.5 144.2 L521.5 165.0 Z" fill="#000000"/><path d="M519.8 166.0 L507.8 145.2 L519.9 138.2 L531.9 159.0 Z" fill="#000000"/><path d="M530.1 160.0 L518.1 139.2 L530.3 132.2 L542.3 153.0 Z" fill="#000000"/><path d="M540.5 154.0 L528.5 133.2 L540.7 126.2 L552.7 147.0 Z" fill="#000000"/><path d="M468.9 191.9 L459.9 176.3 L466.8 172.3 L475.8 187.9 Z" fill="rgb(50,236,255)"/><path d="M479.3 185.9 L470.3 170.3 L477.2 166.3 L486.2 181.9 Z" fill="rgb(50,236,255)"/><path d="M489.7 179.9 L480.7 164.3 L487.6 160.3 L496.6 175.9 Z" fill="rgb(50,236,255)"/><path d="M500.1 173.9 L491.1 158.3 L498.0 154.3 L507.0 169.9 Z" fill="rgb(50,236,255)"/><path d="M510.5 167.9 L501.5 152.3 L508.4 148.3 L517.4 163.9 Z" fill="rgb(50,236,255)"/><path d="M520.9 161.9 L511.9 146.3 L518.8 142.3 L527.8 157.9 Z" fill="rgb(50,236,255)"/><path d="M531.2 155.9 L522.2 140.3 L529.2 136.3 L538.2 151.9 Z" fill="rgb(50,236,255)"/><path d="M541.6 149.9 L532.6 134.3 L539.6 130.3 L548.6 145.9 Z" fill="rgb(50,236,255)"/><path d="M455.4 174.6 L443.4 153.8 L455.6 146.8 L467.6 167.6 Z" fill="#000000"/><path d="M465.8 168.6 L453.8 147.8 L466.0 140.8 L478.0 161.6 Z" fill="#000000"/><path d="M476.2 162.6 L464.2 141.8 L476.4 134.8 L488.4 155.6 Z" fill="#000000"/><path d="M486.6 156.6 L474.6 135.8 L486.7 128.8 L498.7 149.6 Z" fill="#000000"/><path d="M497.0 150.6 L485.0 129.8 L497.1 122.8 L509.1 143.6 Z" fill="#000000"/><path d="M507.4 144.6 L495.4 123.8 L507.5 116.8 L519.5 137.6 Z" fill="#000000"/><path d="M517.8 138.6 L505.8 117.8 L517.9 110.8 L529.9 131.6 Z" fill="#000000"/><path d="M528.2 132.6 L516.2 111.8 L528.3 104.8 L540.3 125.6 Z" fill="#000000"/><path d="M456.5 170.5 L447.5 154.9 L454.5 150.9 L463.5 166.5 Z" fill="rgb(50,217,255)"/><path d="M466.9 164.5 L457.9 148.9 L464.9 144.9 L473.9 160.5 Z" fill="rgb(50,217,255)"/><path d="M477.3 158.5 L468.3 142.9 L475.3 138.9 L484.3 154.5 Z" fill="rgb(50,217,255)"/><path d="M487.7 152.5 L478.7 136.9 L485.6 132.9 L494.6 148.5 Z" fill="rgb(50,217,255)"/><path d="M498.1 146.5 L489.1 130.9 L496.0 126.9 L505.0 142.5 Z" fill="rgb(50,217,255)"/><path d="M508.5 140.5 L499.5 124.9 L506.4 120.9 L515.4 136.5 Z" fill="rgb(50,217,255)"/><path d="M518.9 134.5 L509.9 118.9 L516.8 114.9 L525.8 130.5 Z" fill="rgb(50,217,255)"/><path d="M529.3 128.5 L520.3 112.9 L527.2 108.9 L536.2 124.5 Z" fill="rgb(50,217,255)"/><path d="M431.7 138.2 L442.7 152.6 L454.8 145.5 L441.7 128.4 Z" fill="#000000"/><path d="M440.1 129.7 L453.1 146.6 L465.2 139.5 L450.2 119.9 Z" fill="#000000"/><path d="M448.6 121.2 L463.5 140.6 L475.6 133.5 L458.6 111.4 Z" fill="#000000"/><path d="M457.1 112.7 L473.9 134.6 L486.0 127.5 L467.1 102.9 Z" fill="#000000"/><path d="M465.6 104.2 L484.3 128.6 L496.4 121.5 L475.6 94.4 Z" fill="#000000"/><path d="M474.1 95.8 L494.7 122.6 L506.8 115.5 L484.1 85.9 Z" fill="#000000"/><path d="M482.6 87.3 L505.1 116.6 L517.2 109.5 L492.5 77.4 Z" fill="#000000"/><path d="M491.1 78.8 L515.5 110.6 L527.6 103.5 L501.0 69.0 Z" fill="#000000"/><path d="M499.6 70.3 L525.9 104.6 L537.9 97.5 L509.5 60.5 Z" fill="#000000"/><path d="M508.0 61.8 L536.3 98.6 L548.3 91.5 L518.0 52.0 Z" fill="#000000"/><path d="M435.9 138.3 L443.7 148.5 L450.5 144.2 L441.8 132.9 Z" fill="rgb(50,199,255)"/><path d="M444.4 129.8 L454.1 142.5 L460.9 138.2 L450.3 124.4 Z" fill="rgb(50,199,255)"/><path d="M452.8 121.3 L464.5 136.5 L471.3 132.3 L458.7 115.9 Z" fill="rgb(50,199,255)"/><path d="M461.3 112.8 L474.9 130.5 L481.7 126.3 L467.2 107.3 Z" fill="rgb(50,199,255)"/><path d="M469.8 104.3 L485.3 124.5 L492.1 120.3 L475.7 98.8 Z" fill="rgb(50,199,255)"/><path d="M478.3 95.8 L495.7 118.5 L502.5 114.3 L484.1 90.3 Z" fill="rgb(50,199,255)"/><path d="M486.8 87.3 L506.1 112.5 L512.9 108.3 L492.6 81.8 Z" fill="rgb(50,199,255)"/><path d="M495.3 78.8 L516.5 106.5 L523.3 102.3 L501.1 73.3 Z" fill="rgb(50,199,255)"/><path d="M503.8 70.4 L526.9 100.5 L533.8 96.3 L509.6 64.8 Z" fill="rgb(50,199,255)"/><path d="M512.3 61.9 L537.3 94.5 L544.2 90.4 L518.0 56.3 Z" fill="rgb(50,199,255)"/><path d="M415.9 125.7 L430.3 136.8 L440.1 126.8 L423.0 113.7 Z" fill="#000000"/><path d="M421.9 115.4 L438.8 128.3 L448.6 118.3 L429.0 103.3 Z" fill="#000000"/><path d="M427.9 105.0 L447.3 119.8 L457.1 109.8 L435.0 92.9 Z" fill="#000000"/><path d="M433.9 94.6 L455.7 111.4 L465.6 101.4 L441.0 82.5 Z" fill="#000000"/><path d="M439.9 84.2 L464.2 102.9 L474.1 92.9 L447.0 72.1 Z" fill="#000000"/><path d="M445.9 73.8 L472.7 94.4 L482.5 84.4 L453.0 61.7 Z" fill="#000000"/><path d="M451.9 63.4 L481.2 85.9 L491.0 75.9 L459.0 51.3 Z" fill="#000000"/><path d="M457.9 53.0 L489.7 77.4 L499.5 67.4 L465.0 40.9 Z" fill="#000000"/><path d="M463.9 42.6 L498.2 68.9 L508.0 59.0 L471.0 30.5 Z" fill="#000000"/><path d="M469.9 32.2 L506.7 60.4 L516.5 50.5 L477.0 20.1 Z" fill="#000000"/><path d="M419.9 124.7 L430.2 132.6 L435.6 126.7 L424.3 118.0 Z" fill="rgb(50,180,255)"/><path d="M426.0 114.3 L438.7 124.1 L444.1 118.2 L430.3 107.6 Z" fill="rgb(50,180,255)"/><path d="M432.0 103.9 L447.2 115.6 L452.6 109.8 L436.2 97.2 Z" fill="rgb(50,180,255)"/><path d="M438.0 93.5 L455.7 107.1 L461.1 101.3 L442.2 86.8 Z" fill="rgb(50,180,255)"/><path d="M444.0 83.1 L464.2 98.6 L469.6 92.8 L448.2 76.3 Z" fill="rgb(50,180,255)"/><path d="M450.0 72.7 L472.7 90.2 L478.2 84.3 L454.2 65.9 Z" fill="rgb(50,180,255)"/><path d="M456.0 62.4 L481.1 81.7 L486.7 75.9 L460.2 55.5 Z" fill="rgb(50,180,255)"/><path d="M462.0 52.0 L489.6 73.2 L495.2 67.4 L466.1 45.1 Z" fill="rgb(50,180,255)"/><path d="M468.0 41.6 L498.1 64.7 L503.7 58.9 L472.1 34.7 Z" fill="rgb(50,180,255)"/><path d="M474.0 31.2 L506.6 56.2 L512.1 50.4 L478.1 24.3 Z" fill="rgb(50,180,255)"/><path d="M397.4 117.8 L414.2 124.8 L421.0 112.6 L401.2 104.3 Z" fill="#000000"/><path d="M400.5 106.2 L420.2 114.4 L427.1 102.2 L404.3 92.7 Z" fill="#000000"/><path d="M403.6 94.6 L426.2 104.0 L433.1 91.8 L407.4 81.2 Z" fill="#000000"/><path d="M406.7 83.0 L432.2 93.6 L439.1 81.4 L410.5 69.6 Z" fill="#000000"/><path d="M409.8 71.5 L438.2 83.2 L445.1 71.0 L413.6 58.0 Z" fill="#000000"/><path d="M412.9 59.9 L444.2 72.8 L451.1 60.6 L416.7 46.4 Z" fill="#000000"/><path d="M416.0 48.3 L450.2 62.4 L457.1 50.2 L419.8 34.8 Z" fill="#000000"/><path d="M419.2 36.7 L456.2 52.0 L463.1 39.9 L422.9 23.2 Z" fill="#000000"/><path d="M422.3 25.1 L462.2 41.6 L469.1 29.5 L426.0 11.6 Z" fill="#000000"/><path d="M425.4 13.5 L468.2 31.2 L475.1 19.1 L429.1 0.0 Z" fill="#000000"/><path d="M401.1 115.8 L413.0 120.7 L416.7 113.6 L403.5 108.2 Z" fill="rgb(50,162,255)"/><path d="M404.2 104.2 L419.0 110.3 L422.7 103.2 L406.6 96.6 Z" fill="rgb(50,162,255)"/><path d="M407.3 92.6 L425.0 99.9 L428.8 92.9 L409.7 85.0 Z" fill="rgb(50,162,255)"/><path d="M410.4 81.0 L431.0 89.5 L434.8 82.5 L412.7 73.3 Z" fill="rgb(50,162,255)"/><path d="M413.5 69.4 L437.0 79.1 L440.8 72.1 L415.8 61.7 Z" fill="rgb(50,162,255)"/><path d="M416.6 57.8 L443.0 68.7 L446.8 61.7 L418.9 50.1 Z" fill="rgb(50,162,255)"/><path d="M419.7 46.2 L449.0 58.4 L452.9 51.3 L422.0 38.5 Z" fill="rgb(50,162,255)"/><path d="M422.8 34.6 L455.0 48.0 L458.9 40.9 L425.1 26.9 Z" fill="rgb(50,162,255)"/><path d="M425.9 23.0 L461.0 37.6 L464.9 30.5 L428.2 15.3 Z" fill="rgb(50,162,255)"/><path d="M429.0 11.4 L467.0 27.2 L470.9 20.2 L431.3 3.7 Z" fill="rgb(50,162,255)"/><path d="M377.5 114.9 L395.5 117.3 L399.0 103.8 L377.7 100.9 Z" fill="#000000"/><path d="M377.5 102.9 L398.6 105.7 L402.1 92.2 L377.7 88.9 Z" fill="#000000"/><path d="M377.5 90.9 L401.7 94.1 L405.2 80.6 L377.6 76.9 Z" fill="#000000"/><path d="M377.5 78.9 L404.8 82.5 L408.3 69.0 L377.6 64.9 Z" fill="#000000"/><path d="M377.5 66.9 L407.9 71.0 L411.5 57.4 L377.6 52.9 Z" fill="#000000"/><path d="M377.5 54.9 L411.0 59.4 L414.6 45.8 L377.6 40.9 Z" fill="#000000"/><path d="M377.5 42.9 L414.2 47.8 L417.7 34.2 L377.6 28.9 Z" fill="#000000"/><path d="M380.5 112.0 L393.4 113.7 L395.0 105.9 L380.9 104.1 Z" fill="rgb(50,143,255)"/><path d="M380.5 100.0 L396.5 102.1 L398.2 94.3 L380.9 92.0 Z" fill="rgb(50,143,255)"/><path d="M380.5 88.0 L399.6 90.5 L401.3 82.7 L380.8 80.0 Z" fill="rgb(50,143,255)"/><path d="M380.5 76.0 L402.7 78.9 L404.5 71.1 L380.8 68.0 Z" fill="rgb(50,143,255)"/><path d="M380.5 64.0 L405.8 67.3 L407.6 59.5 L380.8 56.0 Z" fill="rgb(50,143,255)"/><path d="M380.5 52.0 L408.9 55.7 L410.7 47.9 L380.8 44.0 Z" fill="rgb(50,143,255)"/><path d="M380.5 40.0 L412.0 44.1 L413.9 36.4 L380.7 32.0 Z" fill="rgb(50,143,255)"/><path d="M357.5 117.3 L375.6 114.9 L375.4 100.9 L354.1 103.8 Z" fill="#000000"/><path d="M354.4 105.7 L375.6 102.9 L375.4 88.9 L351.0 92.2 Z" fill="#000000"/><path d="M351.3 94.1 L375.6 90.9 L375.4 76.9 L347.8 80.6 Z" fill="#000000"/><path d="M348.2 82.5 L375.6 78.9 L375.4 64.9 L344.7 69.0 Z" fill="#000000"/><path d="M345.1 71.0 L375.6 66.9 L375.4 52.9 L341.6 57.4 Z" fill="#000000"/><path d="M342.0 59.4 L375.6 54.9 L375.5 40.9 L338.5 45.8 Z" fill="#000000"/><path d="M338.9 47.8 L375.6 42.9 L375.5 28.9 L335.4 34.2 Z" fill="#000000"/><path d="M359.7 113.7 L372.5 112.0 L372.1 104.1 L358.0 105.9 Z" fill="rgb(50,125,255)"/><path d="M356.6 102.1 L372.5 100.0 L372.2 92.0 L354.9 94.3 Z" fill="rgb(50,125,255)"/><path d="M353.5 90.5 L372.5 88.0 L372.2 80.0 L351.7 82.7 Z" fill="rgb(50,125,255)"/><path d="M350.4 78.9 L372.5 76.0 L372.3 68.0 L348.6 71.1 Z" fill="rgb(50,125,255)"/><path d="M347.3 67.3 L372.5 64.0 L372.3 56.0 L345.5 59.5 Z" fill="rgb(50,125,255)"/><path d="M344.2 55.7 L372.5 52.0 L372.3 44.0 L342.3 47.9 Z" fill="rgb(50,125,255)"/><path d="M341.1 44.1 L372.5 40.0 L372.3 32.0 L339.2 36.4 Z" fill="rgb(50,125,255)"/><path d="M338.9 124.8 L355.7 117.8 L351.9 104.3 L332.0 112.6 Z" fill="#000000"/><path d="M332.9 114.4 L352.6 106.2 L348.8 92.7 L326.0 102.2 Z" fill="#000000"/><path d="M326.9 104.0 L349.5 94.6 L345.7 81.2 L320.0 91.8 Z" fill="#000000"/><path d="M320.9 93.6 L346.3 83.0 L342.6 69.6 L314.0 81.4 Z" fill="#000000"/><path d="M314.9 83.2 L343.2 71.5 L339.5 58.0 L308.0 71.0 Z" fill="#000000"/><path d="M308.9 72.8 L340.1 59.9 L336.4 46.4 L302.0 60.6 Z" fill="#000000"/><path d="M302.9 62.4 L337.0 48.3 L333.3 34.8 L296.0 50.2 Z" fill="#000000"/><path d="M296.9 52.0 L333.9 36.7 L330.2 23.2 L290.0 39.9 Z" fill="#000000"/><path d="M290.9 41.6 L330.8 25.1 L327.1 11.6 L284.0 29.5 Z" fill="#000000"/><path d="M340.0 120.7 L352.0 115.8 L349.5 108.2 L336.4 113.6 Z" fill="rgb(50,106,255)"/><path d="M334.0 110.3 L348.9 104.2 L346.5 96.6 L330.3 103.2 Z" fill="rgb(50,106,255)"/><path d="M328.0 99.9 L345.8 92.6 L343.4 85.0 L324.3 92.9 Z" fill="rgb(50,106,255)"/><path d="M322.0 89.5 L342.7 81.0 L340.3 73.3 L318.3 82.5 Z" fill="rgb(50,106,255)"/><path d="M316.0 79.1 L339.6 69.4 L337.2 61.7 L312.2 72.1 Z" fill="rgb(50,106,255)"/><path d="M310.0 68.7 L336.5 57.8 L334.2 50.1 L306.2 61.7 Z" fill="rgb(50,106,255)"/><path d="M304.0 58.4 L333.3 46.2 L331.1 38.5 L300.2 51.3 Z" fill="rgb(50,106,255)"/><path d="M298.0 48.0 L330.2 34.6 L328.0 26.9 L294.2 40.9 Z" fill="rgb(50,106,255)"/><path d="M292.0 37.6 L327.1 23.0 L324.9 15.3 L288.2 30.5 Z" fill="rgb(50,106,255)"/><path d="M322.8 136.8 L337.2 125.7 L330.1 113.7 L313.0 126.8 Z" fill="#000000"/><path d="M314.3 128.3 L331.2 115.4 L324.1 103.3 L304.5 118.3 Z" fill="#000000"/><path d="M305.8 119.8 L325.2 105.0 L318.1 92.9 L296.0 109.8 Z" fill="#000000"/><path d="M297.3 111.4 L319.2 94.6 L312.1 82.5 L287.5 101.4 Z" fill="#000000"/><path d="M288.8 102.9 L313.2 84.2 L306.1 72.1 L279.0 92.9 Z" fill="#000000"/><path d="M280.4 94.4 L307.2 73.8 L300.1 61.7 L270.5 84.4 Z" fill="#000000"/><path d="M271.9 85.9 L301.2 63.4 L294.1 51.3 L262.0 75.9 Z" fill="#000000"/><path d="M263.4 77.4 L295.2 53.0 L288.1 40.9 L253.5 67.4 Z" fill="#000000"/><path d="M254.9 68.9 L289.2 42.6 L282.1 30.5 L245.1 59.0 Z" fill="#000000"/><path d="M246.4 60.4 L283.2 32.2 L276.1 20.1 L236.6 50.5 Z" fill="#000000"/><path d="M322.9 132.6 L333.1 124.7 L328.8 118.0 L317.5 126.7 Z" fill="rgb(50,88,255)"/><path d="M314.4 124.1 L327.1 114.3 L322.8 107.6 L309.0 118.2 Z" fill="rgb(50,88,255)"/><path d="M305.9 115.6 L321.1 103.9 L316.8 97.2 L300.4 109.8 Z" fill="rgb(50,88,255)"/><path d="M297.4 107.1 L315.1 93.5 L310.9 86.8 L291.9 101.3 Z" fill="rgb(50,88,255)"/><path d="M288.9 98.6 L309.1 83.1 L304.9 76.3 L283.4 92.8 Z" fill="rgb(50,88,255)"/><path d="M280.4 90.2 L303.1 72.7 L298.9 65.9 L274.9 84.3 Z" fill="rgb(50,88,255)"/><path d="M271.9 81.7 L297.1 62.4 L292.9 55.5 L266.4 75.9 Z" fill="rgb(50,88,255)"/><path d="M263.4 73.2 L291.1 52.0 L286.9 45.1 L257.9 67.4 Z" fill="rgb(50,88,255)"/><path d="M254.9 64.7 L285.1 41.6 L280.9 34.7 L249.4 58.9 Z" fill="rgb(50,88,255)"/><path d="M246.5 56.2 L279.1 31.2 L274.9 24.3 L240.9 50.4 Z" fill="rgb(50,88,255)"/><path d="M310.3 152.6 L321.4 138.2 L311.4 128.4 L298.3 145.5 Z" fill="#000000"/><path d="M299.9 146.6 L312.9 129.7 L302.9 119.9 L287.9 139.5 Z" fill="#000000"/><path d="M289.6 140.6 L304.4 121.2 L294.4 111.4 L277.5 133.5 Z" fill="#000000"/><path d="M279.2 134.6 L295.9 112.7 L286.0 102.9 L267.1 127.5 Z" fill="#000000"/><path d="M268.8 128.6 L287.5 104.2 L277.5 94.4 L256.7 121.5 Z" fill="#000000"/><path d="M258.4 122.6 L279.0 95.8 L269.0 85.9 L246.3 115.5 Z" fill="#000000"/><path d="M248.0 116.6 L270.5 87.3 L260.5 77.4 L235.9 109.5 Z" fill="#000000"/><path d="M237.6 110.6 L262.0 78.8 L252.0 69.0 L225.5 103.5 Z" fill="#000000"/><path d="M227.2 104.6 L253.5 70.3 L243.6 60.5 L215.1 97.5 Z" fill="#000000"/><path d="M216.8 98.6 L245.0 61.8 L235.1 52.0 L204.7 91.5 Z" fill="#000000"/><path d="M206.4 92.6 L236.5 53.3 L226.6 43.5 L194.3 85.5 Z" fill="#000000"/><path d="M309.3 148.5 L317.2 138.3 L311.3 132.9 L302.6 144.2 Z" fill="rgb(50,69,255)"/><path d="M298.9 142.5 L308.7 129.8 L302.8 124.4 L292.2 138.2 Z" fill="rgb(50,69,255)"/><path d="M288.5 136.5 L300.2 121.3 L294.4 115.9 L281.8 132.3 Z" fill="rgb(50,69,255)"/><path d="M278.1 130.5 L291.7 112.8 L285.9 107.3 L271.3 126.3 Z" fill="rgb(50,69,255)"/><path d="M267.7 124.5 L283.2 104.3 L277.4 98.8 L260.9 120.3 Z" fill="rgb(50,69,255)"/><path d="M257.3 118.5 L274.8 95.8 L268.9 90.3 L250.5 114.3 Z" fill="rgb(50,69,255)"/><path d="M246.9 112.5 L266.3 87.3 L260.5 81.8 L240.1 108.3 Z" fill="rgb(50,69,255)"/><path d="M236.5 106.5 L257.8 78.8 L252.0 73.3 L229.7 102.3 Z" fill="rgb(50,69,255)"/><path d="M226.2 100.5 L249.3 70.4 L243.5 64.8 L219.3 96.3 Z" fill="rgb(50,69,255)"/><path d="M215.8 94.5 L240.8 61.9 L235.0 56.3 L208.9 90.4 Z" fill="rgb(50,69,255)"/><path d="M205.4 88.5 L232.3 53.4 L226.5 47.8 L198.5 84.4 Z" fill="rgb(50,69,255)"/><path d="M309.6 153.8 L297.6 174.6 L285.5 167.6 L297.5 146.8 Z" fill="#000000"/><path d="M299.2 147.8 L287.2 168.6 L275.1 161.6 L287.1 140.8 Z" fill="#000000"/><path d="M288.8 141.8 L276.8 162.6 L264.7 155.6 L276.7 134.8 Z" fill="#000000"/><path d="M278.4 135.8 L266.4 156.6 L254.3 149.6 L266.3 128.8 Z" fill="#000000"/><path d="M268.1 129.8 L256.1 150.6 L243.9 143.6 L255.9 122.8 Z" fill="#000000"/><path d="M257.7 123.8 L245.7 144.6 L233.5 137.6 L245.5 116.8 Z" fill="#000000"/><path d="M247.3 117.8 L235.3 138.6 L223.1 131.6 L235.1 110.8 Z" fill="#000000"/><path d="M236.9 111.8 L224.9 132.6 L212.8 125.6 L224.8 104.8 Z" fill="#000000"/><path d="M226.5 105.8 L214.5 126.6 L202.4 119.6 L214.4 98.8 Z" fill="#000000"/><path d="M216.1 99.8 L204.1 120.6 L192.0 113.6 L204.0 92.8 Z" fill="#000000"/><path d="M205.7 93.8 L193.7 114.6 L181.6 107.6 L193.6 86.8 Z" fill="#000000"/><path d="M195.3 87.8 L183.3 108.6 L171.2 101.6 L183.2 80.8 Z" fill="#000000"/><path d="M305.5 154.9 L296.5 170.5 L289.6 166.5 L298.6 150.9 Z" fill="rgb(50,50,255)"/><path d="M295.1 148.9 L286.1 164.5 L279.2 160.5 L288.2 144.9 Z" fill="rgb(50,50,255)"/><path d="M284.7 142.9 L275.7 158.5 L268.8 154.5 L277.8 138.9 Z" fill="rgb(50,50,255)"/><path d="M274.4 136.9 L265.4 152.5 L258.4 148.5 L267.4 132.9 Z" fill="rgb(50,50,255)"/><path d="M264.0 130.9 L255.0 146.5 L248.0 142.5 L257.0 126.9 Z" fill="rgb(50,50,255)"/><path d="M253.6 124.9 L244.6 140.5 L237.6 136.5 L246.6 120.9 Z" fill="rgb(50,50,255)"/><path d="M243.2 118.9 L234.2 134.5 L227.2 130.5 L236.2 114.9 Z" fill="rgb(50,50,255)"/><path d="M232.8 112.9 L223.8 128.5 L216.9 124.5 L225.9 108.9 Z" fill="rgb(50,50,255)"/><path d="M222.4 106.9 L213.4 122.5 L206.5 118.5 L215.5 102.9 Z" fill="rgb(50,50,255)"/><path d="M212.0 100.9 L203.0 116.5 L196.1 112.5 L205.1 96.9 Z" fill="rgb(50,50,255)"/><path d="M201.6 94.9 L192.6 110.5 L185.7 106.5 L194.7 90.9 Z" fill="rgb(50,50,255)"/><path d="M191.2 88.9 L182.2 104.5 L175.3 100.5 L184.3 84.9 Z" fill="rgb(50,50,255)"/><path d="M297.3 175.2 L285.3 196.0 L273.2 189.0 L285.2 168.2 Z" fill="#000000"/><path d="M286.9 169.2 L274.9 190.0 L262.8 183.0 L274.8 162.2 Z" fill="#000000"/><path d="M276.5 163.2 L264.5 184.0 L252.4 177.0 L264.4 156.2 Z" fill="#000000"/><path d="M266.1 157.2 L254.1 178.0 L242.0 171.0 L254.0 150.2 Z" fill="#000000"/><path d="M255.7 151.2 L243.7 172.0 L231.6 165.0 L243.6 144.2 Z" fill="#000000"/><path d="M245.3 145.2 L233.3 166.0 L221.2 159.0 L233.2 138.2 Z" fill="#000000"/><path d="M234.9 139.2 L222.9 160.0 L210.8 153.0 L222.8 132.2 Z" fill="#000000"/><path d="M224.5 133.2 L212.5 154.0 L200.4 147.0 L212.4 126.2 Z" fill="#000000"/><path d="M214.1 127.2 L202.1 148.0 L190.0 141.0 L202.0 120.2 Z" fill="#000000"/><path d="M203.7 121.2 L191.7 142.0 L179.6 135.0 L191.6 114.2 Z" fill="#000000"/><path d="M293.2 176.3 L284.2 191.9 L277.2 187.9 L286.2 172.3 Z" fill="rgb(69,50,255)"/><path d="M282.8 170.3 L273.8 185.9 L266.9 181.9 L275.9 166.3 Z" fill="rgb(69,50,255)"/><path d="M272.4 164.3 L263.4 179.9 L256.5 175.9 L265.5 160.3 Z" fill="rgb(69,50,255)"/><path d="M262.0 158.3 L253.0 173.9 L246.1 169.9 L255.1 154.3 Z" fill="rgb(69,50,255)"/><path d="M251.6 152.3 L242.6 167.9 L235.7 163.9 L244.7 148.3 Z" fill="rgb(69,50,255)"/><path d="M241.2 146.3 L232.2 161.9 L225.3 157.9 L234.3 142.3 Z" fill="rgb(69,50,255)"/><path d="M230.8 140.3 L221.8 155.9 L214.9 151.9 L223.9 136.3 Z" fill="rgb(69,50,255)"/><path d="M220.4 134.3 L211.4 149.9 L204.5 145.9 L213.5 130.3 Z" fill="rgb(69,50,255)"/><path d="M210.0 128.3 L201.0 143.9 L194.1 139.9 L203.1 124.3 Z" fill="rgb(69,50,255)"/><path d="M199.6 122.3 L190.6 137.9 L183.7 133.9 L192.7 118.3 Z" fill="rgb(69,50,255)"/><path d="M284.9 196.6 L272.9 217.4 L260.8 210.4 L272.8 189.6 Z" fill="#000000"/><path d="M274.5 190.6 L262.5 211.4 L250.4 204.4 L262.4 183.6 Z" fill="#000000"/><path d="M264.1 184.6 L252.1 205.4 L240.0 198.4 L252.0 177.6 Z" fill="#000000"/><path d="M253.7 178.6 L241.7 199.4 L229.6 192.4 L241.6 171.6 Z" fill="#000000"/><path d="M243.4 172.6 L231.4 193.4 L219.2 186.4 L231.2 165.6 Z" fill="#000000"/><path d="M233.0 166.6 L221.0 187.4 L208.8 180.4 L220.8 159.6 Z" fill="#000000"/><path d="M222.6 160.6 L210.6 181.4 L198.4 174.4 L210.4 153.6 Z" fill="#000000"/><path d="M212.2 154.6 L200.2 175.4 L188.1 168.4 L200.1 147.6 Z" fill="#000000"/><path d="M201.8 148.6 L189.8 169.4 L177.7 162.4 L189.7 141.6 Z" fill="#000000"/><path d="M191.4 142.6 L179.4 163.4 L167.3 156.4 L179.3 135.6 Z" fill="#000000"/><path d="M280.8 197.7 L271.8 213.3 L264.9 209.3 L273.9 193.7 Z" fill="rgb(88,50,255)"/><path d="M270.4 191.7 L261.4 207.3 L254.5 203.3 L263.5 187.7 Z" fill="rgb(88,50,255)"/><path d="M260.0 185.7 L251.0 201.3 L244.1 197.3 L253.1 181.7 Z" fill="rgb(88,50,255)"/><path d="M249.7 179.7 L240.7 195.3 L233.7 191.3 L242.7 175.7 Z" fill="rgb(88,50,255)"/><path d="M239.3 173.7 L230.3 189.3 L223.3 185.3 L232.3 169.7 Z" fill="rgb(88,50,255)"/><path d="M228.9 167.7 L219.9 183.3 L212.9 179.3 L221.9 163.7 Z" fill="rgb(88,50,255)"/><path d="M218.5 161.7 L209.5 177.3 L202.5 173.3 L211.5 157.7 Z" fill="rgb(88,50,255)"/><path d="M208.1 155.7 L199.1 171.3 L192.2 167.3 L201.2 151.7 Z" fill="rgb(88,50,255)"/><path d="M197.7 149.7 L188.7 165.3 L181.8 161.3 L190.8 145.7 Z" fill="rgb(88,50,255)"/><path d="M187.3 143.7 L178.3 159.3 L171.4 155.3 L180.4 139.7 Z" fill="rgb(88,50,255)"/><path d="M272.6 218.0 L260.6 238.8 L248.5 231.8 L260.5 211.0 Z" fill="#000000"/><path d="M262.2 212.0 L250.2 232.8 L238.1 225.8 L250.1 205.0 Z" fill="#000000"/><path d="M251.8 206.0 L239.8 226.8 L227.7 219.8 L239.7 199.0 Z" fill="#000000"/><path d="M241.4 200.0 L229.4 220.8 L217.3 213.8 L229.3 193.0 Z" fill="#000000"/><path d="M231.0 194.0 L219.0 214.8 L206.9 207.8 L218.9 187.0 Z" fill="#000000"/><path d="M220.6 188.0 L208.6 208.8 L196.5 201.8 L208.5 181.0 Z" fill="#000000"/><path d="M210.2 182.0 L198.2 202.8 L186.1 195.8 L198.1 175.0 Z" fill="#000000"/><path d="M199.8 176.0 L187.8 196.8 L175.7 189.8 L187.7 169.0 Z" fill="#000000"/><path d="M189.4 170.0 L177.4 190.8 L165.3 183.8 L177.3 163.0 Z" fill="#000000"/><path d="M268.5 219.1 L259.5 234.7 L252.5 230.7 L261.5 215.1 Z" fill="rgb(106,50,255)"/><path d="M258.1 213.1 L249.1 228.7 L242.2 224.7 L251.2 209.1 Z" fill="rgb(106,50,255)"/><path d="M247.7 207.1 L238.7 222.7 L231.8 218.7 L240.8 203.1 Z" fill="rgb(106,50,255)"/><path d="M237.3 201.1 L228.3 216.7 L221.4 212.7 L230.4 197.1 Z" fill="rgb(106,50,255)"/><path d="M226.9 195.1 L217.9 210.7 L211.0 206.7 L220.0 191.1 Z" fill="rgb(106,50,255)"/><path d="M216.5 189.1 L207.5 204.7 L200.6 200.7 L209.6 185.1 Z" fill="rgb(106,50,255)"/><path d="M206.1 183.1 L197.1 198.7 L190.2 194.7 L199.2 179.1 Z" fill="rgb(106,50,255)"/><path d="M195.7 177.1 L186.7 192.7 L179.8 188.7 L188.8 173.1 Z" fill="rgb(106,50,255)"/><path d="M185.3 171.1 L176.3 186.7 L169.4 182.7 L178.4 167.1 Z" fill="rgb(106,50,255)"/><path d="M260.2 239.4 L248.2 260.2 L236.1 253.2 L248.1 232.4 Z" fill="#000000"/><path d="M249.8 233.4 L237.8 254.2 L225.7 247.2 L237.7 226.4 Z" fill="#000000"/><path d="M239.4 227.4 L227.4 248.2 L215.3 241.2 L227.3 220.4 Z" fill="#000000"/><path d="M229.0 221.4 L217.0 242.2 L204.9 235.2 L216.9 214.4 Z" fill="#000000"/><path d="M218.7 215.4 L206.7 236.2 L194.5 229.2 L206.5 208.4 Z" fill="#000000"/><path d="M208.3 209.4 L196.3 230.2 L184.1 223.2 L196.1 202.4 Z" fill="#000000"/><path d="M197.9 203.4 L185.9 224.2 L173.7 217.2 L185.7 196.4 Z" fill="#000000"/><path d="M187.5 197.4 L175.5 218.2 L163.4 211.2 L175.4 190.4 Z" fill="#000000"/><path d="M177.1 191.4 L165.1 212.2 L153.0 205.2 L165.0 184.4 Z" fill="#000000"/><path d="M256.1 240.5 L247.1 256.1 L240.2 252.1 L249.2 236.5 Z" fill="rgb(125,50,255)"/><path d="M245.7 234.5 L236.7 250.1 L229.8 246.1 L238.8 230.5 Z" fill="rgb(125,50,255)"/><path d="M235.3 228.5 L226.3 244.1 L219.4 240.1 L228.4 224.5 Z" fill="rgb(125,50,255)"/><path d="M225.0 222.5 L216.0 238.1 L209.0 234.1 L218.0 218.5 Z" fill="rgb(125,50,255)"/><path d="M214.6 216.5 L205.6 232.1 L198.6 228.1 L207.6 212.5 Z" fill="rgb(125,50,255)"/><path d="M204.2 210.5 L195.2 226.1 L188.2 222.1 L197.2 206.5 Z" fill="rgb(125,50,255)"/><path d="M193.8 204.5 L184.8 220.1 L177.8 216.1 L186.8 200.5 Z" fill="rgb(125,50,255)"/><path d="M183.4 198.5 L174.4 214.1 L167.5 210.1 L176.5 194.5 Z" fill="rgb(125,50,255)"/><path d="M173.0 192.5 L164.0 208.1 L157.1 204.1 L166.1 188.5 Z" fill="rgb(125,50,255)"/><path d="M247.9 260.8 L235.9 281.6 L223.8 274.6 L235.8 253.8 Z" fill="#000000"/><path d="M237.5 254.8 L225.5 275.6 L213.4 268.6 L225.4 247.8 Z" fill="#000000"/><path d="M227.1 248.8 L215.1 269.6 L203.0 262.6 L215.0 241.8 Z" fill="#000000"/><path d="M216.7 242.8 L204.7 263.6 L192.6 256.6 L204.6 235.8 Z" fill="#000000"/><path d="M206.3 236.8 L194.3 257.6 L182.2 250.6 L194.2 229.8 Z" fill="#000000"/><path d="M195.9 230.8 L183.9 251.6 L171.8 244.6 L183.8 223.8 Z" fill="#000000"/><path d="M185.5 224.8 L173.5 245.6 L161.4 238.6 L173.4 217.8 Z" fill="#000000"/><path d="M243.8 261.9 L234.8 277.5 L227.8 273.5 L236.8 257.9 Z" fill="rgb(143,50,255)"/><path d="M233.4 255.9 L224.4 271.5 L217.5 267.5 L226.5 251.9 Z" fill="rgb(143,50,255)"/><path d="M223.0 249.9 L214.0 265.5 L207.1 261.5 L216.1 245.9 Z" fill="rgb(143,50,255)"/><path d="M212.6 243.9 L203.6 259.5 L196.7 255.5 L205.7 239.9 Z" fill="rgb(143,50,255)"/><path d="M202.2 237.9 L193.2 253.5 L186.3 249.5 L195.3 233.9 Z" fill="rgb(143,50,255)"/><path d="M191.8 231.9 L182.8 247.5 L175.9 243.5 L184.9 227.9 Z" fill="rgb(143,50,255)"/><path d="M181.4 225.9 L172.4 241.5 L165.5 237.5 L174.5 221.9 Z" fill="rgb(143,50,255)"/><path d="M235.5 282.2 L223.5 303.0 L211.4 296.0 L223.4 275.2 Z" fill="#000000"/><path d="M225.1 276.2 L213.1 297.0 L201.0 290.0 L213.0 269.2 Z" fill="#000000"/><path d="M214.7 270.2 L202.7 291.0 L190.6 284.0 L202.6 263.2 Z" fill="#000000"/><path d="M204.3 264.2 L192.3 285.0 L180.2 278.0 L192.2 257.2 Z" fill="#000000"/><path d="M231.4 283.3 L222.4 298.9 L215.5 294.9 L224.5 279.3 Z" fill="rgb(162,50,255)"/><path d="M221.0 277.3 L212.0 292.9 L205.1 288.9 L214.1 273.3 Z" fill="rgb(162,50,255)"/><path d="M210.6 271.3 L201.6 286.9 L194.7 282.9 L203.7 267.3 Z" fill="rgb(162,50,255)"/><path d="M200.3 265.3 L191.3 280.9 L184.3 276.9 L193.3 261.3 Z" fill="rgb(162,50,255)"/><path d="M223.2 303.6 L211.2 324.4 L199.1 317.4 L211.1 296.6 Z" fill="#000000"/><path d="M212.8 297.6 L200.8 318.4 L188.7 311.4 L200.7 290.6 Z" fill="#000000"/><path d="M202.4 291.6 L190.4 312.4 L178.3 305.4 L190.3 284.6 Z" fill="#000000"/><path d="M192.0 285.6 L180.0 306.4 L167.9 299.4 L179.9 278.6 Z" fill="#000000"/><path d="M219.1 304.7 L210.1 320.3 L203.1 316.3 L212.1 300.7 Z" fill="rgb(180,50,255)"/><path d="M208.7 298.7 L199.7 314.3 L192.8 310.3 L201.8 294.7 Z" fill="rgb(180,50,255)"/><path d="M198.3 292.7 L189.3 308.3 L182.4 304.3 L191.4 288.7 Z" fill="rgb(180,50,255)"/><path d="M187.9 286.7 L178.9 302.3 L172.0 298.3 L181.0 282.7 Z" fill="rgb(180,50,255)"/><path d="M210.8 325.0 L198.8 345.7 L186.7 338.7 L198.7 318.0 Z" fill="#000000"/><path d="M200.4 319.0 L188.4 339.7 L176.3 332.7 L188.3 312.0 Z" fill="#000000"/><path d="M190.0 313.0 L178.0 333.7 L165.9 326.7 L177.9 306.0 Z" fill="#000000"/><path d="M206.7 326.1 L197.7 341.6 L190.8 337.6 L199.8 322.1 Z" fill="rgb(199,50,255)"/><path d="M196.3 320.1 L187.3 335.6 L180.4 331.6 L189.4 316.1 Z" fill="rgb(199,50,255)"/><path d="M185.9 314.1 L176.9 329.6 L170.0 325.6 L179.0 310.1 Z" fill="rgb(199,50,255)"/><path d="M198.5 346.3 L186.5 367.1 L174.4 360.1 L186.4 339.3 Z" fill="#000000"/><path d="M188.1 340.3 L176.1 361.1 L164.0 354.1 L176.0 333.3 Z" fill="#000000"/><path d="M194.4 347.4 L185.4 363.0 L178.4 359.0 L187.4 343.4 Z" fill="rgb(217,50,255)"/><path d="M184.0 341.4 L175.0 357.0 L168.1 353.0 L177.1 337.4 Z" fill="rgb(217,50,255)"/><path d="M186.1 367.7 L174.1 388.5 L162.0 381.5 L174.0 360.7 Z" fill="#000000"/><path d="M175.7 361.7 L163.7 382.5 L151.6 375.5 L163.6 354.7 Z" fill="#000000"/><path d="M165.3 355.7 L153.3 376.5 L141.2 369.5 L153.2 348.7 Z" fill="#000000"/><path d="M182.0 368.8 L173.0 384.4 L166.1 380.4 L175.1 364.8 Z" fill="rgb(236,50,255)"/><path d="M171.6 362.8 L162.6 378.4 L155.7 374.4 L164.7 358.8 Z" fill="rgb(236,50,255)"/><path d="M161.2 356.8 L152.2 372.4 L145.3 368.4 L154.3 352.8 Z" fill="rgb(236,50,255)"/><path d="M173.8 389.1 L161.8 409.9 L149.7 402.9 L161.7 382.1 Z" fill="#000000"/><path d="M163.4 383.1 L151.4 403.9 L139.3 396.9 L151.3 376.1 Z" fill="#000000"/><path d="M153.0 377.1 L141.0 397.9 L128.9 390.9 L140.9 370.1 Z" fill="#000000"/><path d="M169.7 390.2 L160.7 405.8 L153.7 401.8 L162.7 386.2 Z" fill="rgb(255,50,255)"/><path d="M159.3 384.2 L150.3 399.8 L143.4 395.8 L152.4 380.2 Z" fill="rgb(255,50,255)"/><path d="M148.9 378.2 L139.9 393.8 L133.0 389.8 L142.0 374.2 Z" fill="rgb(255,50,255)"/><path d="M161.4 410.5 L149.4 431.3 L137.3 424.3 L149.3 403.5 Z" fill="#000000"/><path d="M151.0 404.5 L139.0 425.3 L126.9 418.3 L138.9 397.5 Z" fill="#000000"/><path d="M140.6 398.5 L128.6 419.3 L116.5 412.3 L128.5 391.5 Z" fill="#000000"/><path d="M130.2 392.5 L118.2 413.3 L106.1 406.3 L118.1 385.5 Z" fill="#000000"/><path d="M119.9 386.5 L107.9 407.3 L95.7 400.3 L107.7 379.5 Z" fill="#000000"/><path d="M109.5 380.5 L97.5 401.3 L85.3 394.3 L97.3 373.5 Z" fill="#000000"/><path d="M157.3 411.6 L148.3 427.2 L141.4 423.2 L150.4 407.6 Z" fill="rgb(255,50,236)"/><path d="M146.9 405.6 L137.9 421.2 L131.0 417.2 L140.0 401.6 Z" fill="rgb(255,50,236)"/><path d="M136.5 399.6 L127.5 415.2 L120.6 411.2 L129.6 395.6 Z" fill="rgb(255,50,236)"/><path d="M126.2 393.6 L117.2 409.2 L110.2 405.2 L119.2 389.6 Z" fill="rgb(255,50,236)"/><path d="M115.8 387.6 L106.8 403.2 L99.8 399.2 L108.8 383.6 Z" fill="rgb(255,50,236)"/><path d="M105.4 381.6 L96.4 397.2 L89.4 393.2 L98.4 377.6 Z" fill="rgb(255,50,236)"/><path d="M149.1 431.9 L137.1 452.7 L125.0 445.7 L137.0 424.9 Z" fill="#000000"/><path d="M138.7 425.9 L126.7 446.7 L114.6 439.7 L126.6 418.9 Z" fill="#000000"/><path d="M128.3 419.9 L116.3 440.7 L104.2 433.7 L116.2 412.9 Z" fill="#000000"/><path d="M117.9 413.9 L105.9 434.7 L93.8 427.7 L105.8 406.9 Z" fill="#000000"/><path d="M107.5 407.9 L95.5 428.7 L83.4 421.7 L95.4 400.9 Z" fill="#000000"/><path d="M97.1 401.9 L85.1 422.7 L73.0 415.7 L85.0 394.9 Z" fill="#000000"/><path d="M86.7 395.9 L74.7 416.7 L62.6 409.7 L74.6 388.9 Z" fill="#000000"/><path d="M76.3 389.9 L64.3 410.7 L52.2 403.7 L64.2 382.9 Z" fill="#000000"/><path d="M145.0 433.0 L136.0 448.6 L129.0 444.6 L138.0 429.0 Z" fill="rgb(255,50,217)"/><path d="M134.6 427.0 L125.6 442.6 L118.7 438.6 L127.7 423.0 Z" fill="rgb(255,50,217)"/><path d="M124.2 421.0 L115.2 436.6 L108.3 432.6 L117.3 417.0 Z" fill="rgb(255,50,217)"/><path d="M113.8 415.0 L104.8 430.6 L97.9 426.6 L106.9 411.0 Z" fill="rgb(255,50,217)"/><path d="M103.4 409.0 L94.4 424.6 L87.5 420.6 L96.5 405.0 Z" fill="rgb(255,50,217)"/><path d="M93.0 403.0 L84.0 418.6 L77.1 414.6 L86.1 399.0 Z" fill="rgb(255,50,217)"/><path d="M82.6 397.0 L73.6 412.6 L66.7 408.6 L75.7 393.0 Z" fill="rgb(255,50,217)"/><path d="M72.2 391.0 L63.2 406.6 L56.3 402.6 L65.3 387.0 Z" fill="rgb(255,50,217)"/><path d="M129.4 470.7 L136.4 453.9 L124.2 447.1 L115.9 466.9 Z" fill="#000000"/><path d="M117.8 467.6 L126.0 447.9 L113.8 441.1 L104.3 463.8 Z" fill="#000000"/><path d="M106.2 464.5 L115.6 441.9 L103.4 435.0 L92.7 460.8 Z" fill="#000000"/><path d="M94.6 461.4 L105.2 435.9 L93.0 429.0 L81.2 457.7 Z" fill="#000000"/><path d="M83.1 458.3 L94.8 429.9 L82.6 423.0 L69.6 454.6 Z" fill="#000000"/><path d="M71.5 455.2 L84.4 423.9 L72.2 417.0 L58.0 451.5 Z" fill="#000000"/><path d="M59.9 452.1 L74.0 417.9 L61.8 411.0 L46.4 448.4 Z" fill="#000000"/><path d="M48.3 449.0 L63.6 411.9 L51.4 405.0 L34.8 445.3 Z" fill="#000000"/><path d="M36.7 445.9 L53.2 405.9 L41.1 399.0 L23.2 442.2 Z" fill="#000000"/><path d="M127.4 467.0 L132.3 455.1 L125.2 451.5 L119.8 464.6 Z" fill="rgb(255,50,199)"/><path d="M115.8 463.9 L121.9 449.1 L114.8 445.4 L108.2 461.5 Z" fill="rgb(255,50,199)"/><path d="M104.2 460.8 L111.5 443.1 L104.5 439.4 L96.5 458.5 Z" fill="rgb(255,50,199)"/><path d="M92.6 457.7 L101.1 437.1 L94.1 433.3 L84.9 455.4 Z" fill="rgb(255,50,199)"/><path d="M81.0 454.6 L90.7 431.1 L83.7 427.3 L73.3 452.3 Z" fill="rgb(255,50,199)"/><path d="M69.4 451.5 L80.3 425.1 L73.3 421.3 L61.7 449.2 Z" fill="rgb(255,50,199)"/><path d="M57.8 448.4 L69.9 419.1 L62.9 415.3 L50.1 446.1 Z" fill="rgb(255,50,199)"/><path d="M46.2 445.3 L59.5 413.1 L52.5 409.2 L38.5 443.0 Z" fill="rgb(255,50,199)"/><path d="M34.6 442.2 L49.2 407.1 L42.1 403.2 L26.9 439.9 Z" fill="rgb(255,50,199)"/><path d="M126.5 490.6 L128.9 472.6 L115.3 469.1 L112.5 490.4 Z" fill="#000000"/><path d="M114.5 490.6 L117.3 469.5 L103.8 466.0 L100.5 490.5 Z" fill="#000000"/><path d="M102.5 490.6 L105.7 466.4 L92.2 462.9 L88.5 490.5 Z" fill="#000000"/><path d="M90.5 490.6 L94.1 463.3 L80.6 459.8 L76.5 490.5 Z" fill="#000000"/><path d="M78.5 490.6 L82.5 460.2 L69.0 456.7 L64.5 490.5 Z" fill="#000000"/><path d="M66.5 490.6 L71.0 457.1 L57.4 453.5 L52.5 490.5 Z" fill="#000000"/><path d="M54.5 490.6 L59.4 454.0 L45.8 450.4 L40.5 490.5 Z" fill="#000000"/><path d="M42.5 490.6 L47.8 450.9 L34.2 447.3 L28.5 490.5 Z" fill="#000000"/><path d="M30.5 490.6 L36.2 447.8 L22.6 444.2 L16.5 490.5 Z" fill="#000000"/><path d="M123.6 487.6 L125.3 474.8 L117.5 473.1 L115.6 487.2 Z" fill="rgb(255,50,180)"/><path d="M111.6 487.6 L113.7 471.7 L105.9 469.9 L103.6 487.2 Z" fill="rgb(255,50,180)"/><path d="M99.6 487.6 L102.1 468.6 L94.3 466.8 L91.6 487.3 Z" fill="rgb(255,50,180)"/><path d="M87.6 487.6 L90.5 465.4 L82.7 463.6 L79.6 487.3 Z" fill="rgb(255,50,180)"/><path d="M75.6 487.6 L78.9 462.3 L71.1 460.5 L67.6 487.3 Z" fill="rgb(255,50,180)"/><path d="M63.6 487.6 L67.3 459.2 L59.5 457.4 L55.6 487.4 Z" fill="rgb(255,50,180)"/><path d="M51.6 487.6 L55.7 456.1 L48.0 454.3 L43.6 487.4 Z" fill="rgb(255,50,180)"/><path d="M39.6 487.6 L44.1 453.0 L36.4 451.1 L31.6 487.4 Z" fill="rgb(255,50,180)"/><path d="M27.6 487.6 L32.5 449.9 L24.8 448.0 L19.6 487.4 Z" fill="rgb(255,50,180)"/><path d="M128.9 510.6 L126.5 492.5 L112.5 492.7 L115.3 514.0 Z" fill="#000000"/><path d="M117.3 513.7 L114.5 492.6 L100.5 492.7 L103.8 517.2 Z" fill="#000000"/><path d="M105.7 516.8 L102.5 492.6 L88.5 492.7 L92.2 520.3 Z" fill="#000000"/><path d="M94.1 519.9 L90.5 492.6 L76.5 492.7 L80.6 523.4 Z" fill="#000000"/><path d="M82.5 523.0 L78.5 492.6 L64.5 492.7 L69.0 526.5 Z" fill="#000000"/><path d="M71.0 526.1 L66.5 492.6 L52.5 492.7 L57.4 529.6 Z" fill="#000000"/><path d="M59.4 529.2 L54.5 492.6 L40.5 492.7 L45.8 532.7 Z" fill="#000000"/><path d="M47.8 532.3 L42.5 492.6 L28.5 492.7 L34.2 535.8 Z" fill="#000000"/><path d="M36.2 535.4 L30.5 492.6 L16.5 492.6 L22.6 539.0 Z" fill="#000000"/><path d="M125.3 508.4 L123.6 495.6 L115.6 496.0 L117.5 510.1 Z" fill="rgb(255,50,162)"/><path d="M113.7 511.5 L111.6 495.6 L103.6 495.9 L105.9 513.2 Z" fill="rgb(255,50,162)"/><path d="M102.1 514.6 L99.6 495.6 L91.6 495.9 L94.3 516.4 Z" fill="rgb(255,50,162)"/><path d="M90.5 517.7 L87.6 495.6 L79.6 495.9 L82.7 519.5 Z" fill="rgb(255,50,162)"/><path d="M78.9 520.8 L75.6 495.6 L67.6 495.8 L71.1 522.7 Z" fill="rgb(255,50,162)"/><path d="M67.3 523.9 L63.6 495.6 L55.6 495.8 L59.5 525.8 Z" fill="rgb(255,50,162)"/><path d="M55.7 527.1 L51.6 495.6 L43.6 495.8 L48.0 528.9 Z" fill="rgb(255,50,162)"/><path d="M44.1 530.2 L39.6 495.6 L31.6 495.8 L36.4 532.0 Z" fill="rgb(255,50,162)"/><path d="M32.5 533.3 L27.6 495.6 L19.6 495.8 L24.8 535.2 Z" fill="rgb(255,50,162)"/><path d="M136.4 529.3 L129.4 512.4 L115.9 516.2 L124.2 536.1 Z" fill="#000000"/><path d="M126.0 535.2 L117.8 515.6 L104.3 519.3 L113.8 542.1 Z" fill="#000000"/><path d="M115.6 541.2 L106.2 518.7 L92.7 522.4 L103.4 548.1 Z" fill="#000000"/><path d="M105.2 547.2 L94.6 521.8 L81.2 525.5 L93.0 554.1 Z" fill="#000000"/><path d="M94.8 553.2 L83.1 524.9 L69.6 528.6 L82.6 560.1 Z" fill="#000000"/><path d="M84.4 559.2 L71.5 528.0 L58.0 531.7 L72.2 566.2 Z" fill="#000000"/><path d="M74.0 565.2 L59.9 531.1 L46.4 534.8 L61.8 572.2 Z" fill="#000000"/><path d="M63.6 571.2 L48.3 534.2 L34.8 537.9 L51.4 578.2 Z" fill="#000000"/><path d="M53.2 577.2 L36.7 537.3 L23.2 541.0 L41.1 584.2 Z" fill="#000000"/><path d="M42.8 583.2 L25.1 540.4 L11.6 544.1 L30.7 590.2 Z" fill="#000000"/><path d="M32.4 589.2 L13.5 543.5 L0.0 547.2 L20.3 596.2 Z" fill="#000000"/><path d="M132.3 528.1 L127.4 516.1 L119.8 518.6 L125.2 531.7 Z" fill="rgb(255,50,143)"/><path d="M121.9 534.1 L115.8 519.2 L108.2 521.6 L114.8 537.8 Z" fill="rgb(255,50,143)"/><path d="M111.5 540.1 L104.2 522.3 L96.5 524.7 L104.5 543.8 Z" fill="rgb(255,50,143)"/><path d="M101.1 546.1 L92.6 525.5 L84.9 527.8 L94.1 549.8 Z" fill="rgb(255,50,143)"/><path d="M90.7 552.1 L81.0 528.6 L73.3 530.9 L83.7 555.9 Z" fill="rgb(255,50,143)"/><path d="M80.3 558.1 L69.4 531.7 L61.7 534.0 L73.3 561.9 Z" fill="rgb(255,50,143)"/><path d="M69.9 564.1 L57.8 534.8 L50.1 537.1 L62.9 567.9 Z" fill="rgb(255,50,143)"/><path d="M59.5 570.1 L46.2 537.9 L38.5 540.1 L52.5 573.9 Z" fill="rgb(255,50,143)"/><path d="M49.2 576.1 L34.6 541.0 L26.9 543.2 L42.1 579.9 Z" fill="rgb(255,50,143)"/><path d="M38.8 582.1 L23.0 544.1 L15.3 546.3 L31.7 586.0 Z" fill="rgb(255,50,143)"/><path d="M28.4 588.1 L11.4 547.2 L3.7 549.4 L21.4 592.0 Z" fill="rgb(255,50,143)"/><path d="M148.4 545.3 L137.3 530.9 L125.3 538.1 L138.4 555.1 Z" fill="#000000"/><path d="M139.9 553.8 L126.9 536.9 L114.9 544.1 L129.9 563.6 Z" fill="#000000"/><path d="M131.4 562.3 L116.6 542.9 L104.5 550.0 L121.4 572.1 Z" fill="#000000"/><path d="M122.9 570.8 L106.2 548.9 L94.1 556.0 L113.0 580.6 Z" fill="#000000"/><path d="M114.5 579.3 L95.8 554.9 L83.7 562.0 L104.5 589.1 Z" fill="#000000"/><path d="M106.0 587.8 L85.4 560.9 L73.3 568.0 L96.0 597.6 Z" fill="#000000"/><path d="M97.5 596.3 L75.0 566.9 L62.9 574.0 L87.5 606.1 Z" fill="#000000"/><path d="M89.0 604.7 L64.6 572.9 L52.5 580.0 L79.0 614.6 Z" fill="#000000"/><path d="M80.5 613.2 L54.2 578.9 L42.1 586.0 L70.6 623.1 Z" fill="#000000"/><path d="M144.2 545.3 L136.3 535.0 L129.6 539.3 L138.3 550.6 Z" fill="rgb(255,50,125)"/><path d="M135.7 553.8 L125.9 541.0 L119.2 545.3 L129.8 559.2 Z" fill="rgb(255,50,125)"/><path d="M127.2 562.2 L115.5 547.0 L108.8 551.3 L121.4 567.7 Z" fill="rgb(255,50,125)"/><path d="M118.7 570.7 L105.1 553.0 L98.3 557.3 L112.9 576.2 Z" fill="rgb(255,50,125)"/><path d="M110.2 579.2 L94.7 559.0 L87.9 563.2 L104.4 584.7 Z" fill="rgb(255,50,125)"/><path d="M101.8 587.7 L84.3 565.0 L77.5 569.2 L95.9 593.2 Z" fill="rgb(255,50,125)"/><path d="M93.3 596.2 L73.9 571.0 L67.1 575.2 L87.5 601.7 Z" fill="rgb(255,50,125)"/><path d="M84.8 604.7 L63.5 577.0 L56.7 581.2 L79.0 610.2 Z" fill="rgb(255,50,125)"/><path d="M76.3 613.2 L53.2 583.0 L46.3 587.2 L70.5 618.7 Z" fill="rgb(255,50,125)"/><path d="M164.2 557.8 L149.8 546.7 L140.0 556.7 L157.1 569.8 Z" fill="#000000"/><path d="M158.2 568.2 L141.3 555.2 L131.5 565.2 L151.1 580.2 Z" fill="#000000"/><path d="M152.2 578.6 L132.8 563.7 L123.0 573.7 L145.1 590.6 Z" fill="#000000"/><path d="M146.2 589.0 L124.3 572.2 L114.5 582.2 L139.1 601.0 Z" fill="#000000"/><path d="M140.2 599.3 L115.8 580.7 L106.0 590.6 L133.1 611.4 Z" fill="#000000"/><path d="M134.2 609.7 L107.4 589.2 L97.5 599.1 L127.1 621.8 Z" fill="#000000"/><path d="M128.2 620.1 L98.9 597.6 L89.0 607.6 L121.1 632.2 Z" fill="#000000"/><path d="M122.2 630.5 L90.4 606.1 L80.5 616.1 L115.1 642.6 Z" fill="#000000"/><path d="M160.1 558.8 L149.9 550.9 L144.5 556.8 L155.8 565.5 Z" fill="rgb(255,50,106)"/><path d="M154.1 569.2 L141.4 559.4 L136.0 565.3 L149.8 575.9 Z" fill="rgb(255,50,106)"/><path d="M148.1 579.6 L132.9 567.9 L127.4 573.8 L143.8 586.4 Z" fill="rgb(255,50,106)"/><path d="M142.1 590.0 L124.4 576.4 L118.9 582.2 L137.9 596.8 Z" fill="rgb(255,50,106)"/><path d="M136.1 600.4 L115.9 584.9 L110.4 590.7 L131.9 607.2 Z" fill="rgb(255,50,106)"/><path d="M130.1 610.8 L107.4 593.4 L101.9 599.2 L125.9 617.6 Z" fill="rgb(255,50,106)"/><path d="M124.1 621.2 L98.9 601.9 L93.4 607.7 L119.9 628.0 Z" fill="rgb(255,50,106)"/><path d="M118.1 631.6 L90.4 610.3 L84.9 616.1 L113.9 638.4 Z" fill="rgb(255,50,106)"/><path d="M182.7 565.7 L165.9 558.7 L159.0 571.0 L178.9 579.2 Z" fill="#000000"/><path d="M179.6 577.3 L159.9 569.1 L153.0 581.3 L175.8 590.8 Z" fill="#000000"/><path d="M176.5 588.9 L153.9 579.5 L147.0 591.7 L172.7 602.4 Z" fill="#000000"/><path d="M173.3 600.5 L147.9 589.9 L141.0 602.1 L169.6 614.0 Z" fill="#000000"/><path d="M170.2 612.1 L141.9 600.3 L135.0 612.5 L166.5 625.6 Z" fill="#000000"/><path d="M167.1 623.7 L135.9 610.7 L129.0 622.9 L163.4 637.2 Z" fill="#000000"/><path d="M179.0 567.7 L167.0 562.8 L163.4 569.9 L176.5 575.3 Z" fill="rgb(255,50,88)"/><path d="M175.9 579.3 L161.0 573.2 L157.3 580.3 L173.5 587.0 Z" fill="rgb(255,50,88)"/><path d="M172.8 590.9 L155.0 583.6 L151.3 590.7 L170.4 598.6 Z" fill="rgb(255,50,88)"/><path d="M169.7 602.5 L149.0 594.0 L145.3 601.0 L167.3 610.2 Z" fill="rgb(255,50,88)"/><path d="M166.6 614.1 L143.0 604.4 L139.2 611.4 L164.2 621.8 Z" fill="rgb(255,50,88)"/><path d="M163.5 625.7 L137.0 614.8 L133.2 621.8 L161.2 633.4 Z" fill="rgb(255,50,88)"/><path d="M202.6 568.6 L184.5 566.2 L181.1 579.8 L202.4 582.6 Z" fill="#000000"/><path d="M202.6 580.6 L181.4 577.8 L178.0 591.4 L202.4 594.6 Z" fill="#000000"/><path d="M202.6 592.6 L178.3 589.4 L174.8 602.9 L202.4 606.6 Z" fill="#000000"/><path d="M202.6 604.6 L175.2 601.0 L171.7 614.5 L202.4 618.6 Z" fill="#000000"/><path d="M202.6 616.6 L172.1 612.6 L168.6 626.1 L202.4 630.6 Z" fill="#000000"/><path d="M199.5 571.5 L186.7 569.8 L185.0 577.6 L199.1 579.5 Z" fill="rgb(255,50,69)"/><path d="M199.5 583.5 L183.6 581.4 L181.9 589.2 L199.2 591.5 Z" fill="rgb(255,50,69)"/><path d="M199.5 595.5 L180.5 593.0 L178.7 600.8 L199.2 603.5 Z" fill="rgb(255,50,69)"/><path d="M199.5 607.5 L177.4 604.6 L175.6 612.4 L199.3 615.5 Z" fill="rgb(255,50,69)"/><path d="M199.5 619.5 L174.3 616.2 L172.5 624.0 L199.3 627.5 Z" fill="rgb(255,50,69)"/></svg>