<svg width="800" height="800" viewBox="0 0 800 800" xmlns="http://www.w3.org/2000/svg"><defs><linearGradient id="lineGrad" gradientUnits="userSpaceOnUse" x1="-702.00" y1="0.00" x2="702.00" y2="0.00"><stop offset="0%" stop-color="#ff0040"/><stop offset="16%" stop-color="#ffff00"/><stop offset="33%" stop-color="#00ff00"/><stop offset="50%" stop-color="#00ffff"/><stop offset="66%" stop-color="#0000ff"/><stop offset="83%" stop-color="#ff00ff"/><stop offset="100%" stop-color="#ff0040"/></linearGradient></defs><g transform="translate(412.38, 400.00) scale(0.54175)"><g stroke="#000000" stroke-width="6" fill="#000000" stroke-linejoin="round"><path d="M -694.20 -30.52 L -678.26 -30.52 L -739.24 -161.29 L -755.19 -161.29 Z"/><path d="M -671.42 -30.52 L -655.48 -30.52 L -710.74 -149.02 L -726.68 -149.02 Z"/><path d="M -648.64 -30.52 L -632.70 -30.52 L -669.69 -109.84 L -685.63 -109.84 Z"/><path d="M -625.86 -30.52 L -609.92 -30.52 L -650.27 -117.04 L -666.21 -117.04 Z"/><path d="M -603.09 -30.52 L -587.14 -30.52 L -660.92 -188.74 L -676.86 -188.74 Z"/><path d="M -580.31 -30.52 L -564.36 -30.52 L -659.60 -234.76 L -675.55 -234.76 Z"/><path d="M -557.53 -30.52 L -541.58 -30.52 L -576.49 -105.39 L -592.44 -105.39 Z"/><path d="M -534.75 -30.52 L -518.80 -30.52 L -562.05 -123.26 L -577.99 -123.26 Z"/><path d="M -511.97 -30.52 L -496.02 -30.52 L -566.90 -182.52 L -582.85 -182.52 Z"/><path d="M -489.19 -30.52 L -473.24 -30.52 L -583.59 -267.17 L -599.54 -267.17 Z"/><path d="M -466.41 -30.52 L -450.46 -30.52 L -541.15 -225.00 L -557.10 -225.00 Z"/><path d="M -443.63 -30.52 L -427.68 -30.52 L -463.81 -107.99 L -479.75 -107.99 Z"/><path d="M -420.85 -30.52 L -404.90 -30.52 L -413.51 -48.98 L -429.46 -48.98 Z"/><path d="M -398.07 -30.52 L -382.12 -30.52 L -400.72 -70.41 L -416.67 -70.41 Z"/><path d="M -375.29 -30.52 L -359.34 -30.52 L -375.38 -64.91 L -391.33 -64.91 Z"/><path d="M -352.51 -30.52 L -336.56 -30.52 L -342.78 -43.85 L -358.73 -43.85 Z"/><path d="M -329.73 -30.52 L -313.78 -30.52 L -350.34 -108.92 L -366.29 -108.92 Z"/><path d="M -306.95 -30.52 L -291.00 -30.52 L -322.61 -98.30 L -338.56 -98.30 Z"/><path d="M -284.17 -30.52 L -268.22 -30.52 L -318.83 -139.05 L -334.78 -139.05 Z"/><path d="M -261.39 -30.52 L -245.44 -30.52 L -330.49 -212.90 L -346.44 -212.90 Z"/><path d="M -238.61 -30.52 L -222.66 -30.52 L -274.83 -142.39 L -290.78 -142.39 Z"/><path d="M -215.83 -30.52 L -199.89 -30.52 L -205.69 -42.97 L -221.64 -42.97 Z"/><path d="M -193.05 -30.52 L -177.11 -30.52 L -192.76 -64.08 L -208.70 -64.08 Z"/><path d="M -170.27 -30.52 L -154.33 -30.52 L -178.03 -81.35 L -193.98 -81.35 Z"/><path d="M -147.49 -30.52 L -131.55 -30.52 L -144.32 -57.91 L -160.27 -57.91 Z"/><path d="M -124.71 -30.52 L -108.77 -30.52 L -139.09 -95.56 L -155.04 -95.56 Z"/><path d="M -101.93 -30.52 L -85.99 -30.52 L -117.68 -98.48 L -133.63 -98.48 Z"/><path d="M -79.15 -30.52 L -63.21 -30.52 L -77.35 -60.84 L -93.29 -60.84 Z"/><path d="M -56.37 -30.52 L -40.43 -30.52 L -55.81 -63.51 L -71.76 -63.51 Z"/><path d="M -33.59 -30.52 L -17.65 -30.52 L -28.10 -52.94 L -44.05 -52.94 Z"/><path d="M -10.81 -30.52 L 5.13 -30.52 L -44.21 -136.33 L -60.16 -136.33 Z"/><path d="M 11.97 -30.52 L 27.91 -30.52 L -8.02 -107.57 L -23.96 -107.57 Z"/><path d="M 34.75 -30.52 L 50.69 -30.52 L 42.91 -47.20 L 26.97 -47.20 Z"/><path d="M 57.52 -30.52 L 73.47 -30.52 L 1.10 -185.73 L -14.85 -185.73 Z"/><path d="M 80.30 -30.52 L 96.25 -30.52 L 2.64 -231.28 L -13.31 -231.28 Z"/><path d="M 103.08 -30.52 L 119.03 -30.52 L 104.26 -62.18 L 88.32 -62.18 Z"/><path d="M 125.86 -30.52 L 141.81 -30.52 L 101.40 -117.18 L 85.45 -117.18 Z"/><path d="M 148.64 -30.52 L 164.59 -30.52 L 105.28 -157.70 L 89.34 -157.70 Z"/><path d="M 171.42 -30.52 L 187.37 -30.52 L 179.68 -47.00 L 163.74 -47.00 Z"/><path d="M 194.20 -30.52 L 210.15 -30.52 L 182.61 -89.58 L 166.66 -89.58 Z"/><path d="M 216.98 -30.52 L 232.93 -30.52 L 217.43 -63.76 L 201.48 -63.76 Z"/><path d="M 239.76 -30.52 L 255.71 -30.52 L 226.46 -93.25 L 210.51 -93.25 Z"/><path d="M 262.54 -30.52 L 278.49 -30.52 L 251.22 -88.99 L 235.27 -88.99 Z"/><path d="M 285.32 -30.52 L 301.27 -30.52 L 283.02 -69.64 L 267.08 -69.64 Z"/><path d="M 308.10 -30.52 L 324.05 -30.52 L 309.64 -61.41 L 293.70 -61.41 Z"/><path d="M 330.88 -30.52 L 346.83 -30.52 L 322.33 -83.06 L 306.38 -83.06 Z"/><path d="M 353.66 -30.52 L 369.61 -30.52 L 358.59 -54.15 L 342.64 -54.15 Z"/><path d="M 376.44 -30.52 L 392.39 -30.52 L 381.73 -53.38 L 365.78 -53.38 Z"/><path d="M 399.22 -30.52 L 415.17 -30.52 L 404.79 -52.76 L 388.85 -52.76 Z"/><path d="M 422.00 -30.52 L 437.95 -30.52 L 433.59 -39.86 L 417.65 -39.86 Z"/><path d="M 444.78 -30.52 L 460.72 -30.52 L 451.31 -50.71 L 435.36 -50.71 Z"/><path d="M 467.56 -30.52 L 483.50 -30.52 L 476.52 -45.49 L 460.58 -45.49 Z"/><path d="M 490.34 -30.52 L 506.28 -30.52 L 501.87 -39.98 L 485.92 -39.98 Z"/><path d="M 513.12 -30.52 L 529.06 -30.52 L 521.36 -47.04 L 505.41 -47.04 Z"/><path d="M 535.90 -30.52 L 551.84 -30.52 L 543.02 -49.43 L 527.08 -49.43 Z"/><path d="M 558.68 -30.52 L 574.62 -30.52 L 569.31 -41.91 L 553.37 -41.91 Z"/><path d="M 581.46 -30.52 L 597.40 -30.52 L 593.67 -38.52 L 577.73 -38.52 Z"/><path d="M 604.24 -30.52 L 620.18 -30.52 L 616.45 -38.52 L 600.51 -38.52 Z"/><path d="M 627.02 -30.52 L 642.96 -30.52 L 639.23 -38.52 L 623.29 -38.52 Z"/><path d="M 649.80 -30.52 L 665.74 -30.52 L 662.01 -38.52 L 646.07 -38.52 Z"/><path d="M -665.74 30.52 L -649.80 30.52 L -588.81 161.29 L -604.76 161.29 Z"/><path d="M -642.96 30.52 L -627.02 30.52 L -571.76 149.02 L -587.70 149.02 Z"/><path d="M -620.18 30.52 L -604.24 30.52 L -567.25 109.84 L -583.20 109.84 Z"/><path d="M -597.40 30.52 L -581.46 30.52 L -541.11 117.04 L -557.06 117.04 Z"/><path d="M -574.62 30.52 L -558.68 30.52 L -484.90 188.74 L -500.85 188.74 Z"/><path d="M -551.84 30.52 L -535.90 30.52 L -440.66 234.76 L -456.60 234.76 Z"/><path d="M -529.06 30.52 L -513.12 30.52 L -478.20 105.39 L -494.15 105.39 Z"/><path d="M -506.28 30.52 L -490.34 30.52 L -447.09 123.26 L -463.04 123.26 Z"/><path d="M -483.50 30.52 L -467.56 30.52 L -396.68 182.52 L -412.62 182.52 Z"/><path d="M -460.72 30.52 L -444.78 30.52 L -334.43 267.17 L -350.37 267.17 Z"/><path d="M -437.95 30.52 L -422.00 30.52 L -331.31 225.00 L -347.26 225.00 Z"/><path d="M -415.17 30.52 L -399.22 30.52 L -363.09 107.99 L -379.04 107.99 Z"/><path d="M -392.39 30.52 L -376.44 30.52 L -367.83 48.98 L -383.78 48.98 Z"/><path d="M -369.61 30.52 L -353.66 30.52 L -335.06 70.41 L -351.00 70.41 Z"/><path d="M -346.83 30.52 L -330.88 30.52 L -314.84 64.91 L -330.79 64.91 Z"/><path d="M -324.05 30.52 L -308.10 30.52 L -301.88 43.85 L -317.83 43.85 Z"/><path d="M -301.27 30.52 L -285.32 30.52 L -248.76 108.92 L -264.71 108.92 Z"/><path d="M -278.49 30.52 L -262.54 30.52 L -230.94 98.30 L -246.88 98.30 Z"/><path d="M -255.71 30.52 L -239.76 30.52 L -189.15 139.05 L -205.10 139.05 Z"/><path d="M -232.93 30.52 L -216.98 30.52 L -131.94 212.90 L -147.88 212.90 Z"/><path d="M -210.15 30.52 L -194.20 30.52 L -142.04 142.39 L -157.98 142.39 Z"/><path d="M -187.37 30.52 L -171.42 30.52 L -165.62 42.97 L -181.56 42.97 Z"/><path d="M -164.59 30.52 L -148.64 30.52 L -132.99 64.08 L -148.94 64.08 Z"/><path d="M -141.81 30.52 L -125.86 30.52 L -102.16 81.35 L -118.11 81.35 Z"/><path d="M -119.03 30.52 L -103.08 30.52 L -90.31 57.91 L -106.26 57.91 Z"/><path d="M -96.25 30.52 L -80.30 30.52 L -49.98 95.56 L -65.92 95.56 Z"/><path d="M -73.47 30.52 L -57.52 30.52 L -25.83 98.48 L -41.78 98.48 Z"/><path d="M -50.69 30.52 L -34.75 30.52 L -20.61 60.84 L -36.55 60.84 Z"/><path d="M -27.91 30.52 L -11.97 30.52 L 3.42 63.51 L -12.53 63.51 Z"/><path d="M -5.13 30.52 L 10.81 30.52 L 21.27 52.94 L 5.32 52.94 Z"/><path d="M 17.65 30.52 L 33.59 30.52 L 82.94 136.33 L 66.99 136.33 Z"/><path d="M 40.43 30.52 L 56.37 30.52 L 92.30 107.57 L 76.36 107.57 Z"/><path d="M 63.21 30.52 L 79.15 30.52 L 86.93 47.20 L 70.99 47.20 Z"/><path d="M 85.99 30.52 L 101.93 30.52 L 174.31 185.73 L 158.36 185.73 Z"/><path d="M 108.77 30.52 L 124.71 30.52 L 218.33 231.28 L 202.38 231.28 Z"/><path d="M 131.55 30.52 L 147.49 30.52 L 162.26 62.18 L 146.31 62.18 Z"/><path d="M 154.33 30.52 L 170.27 30.52 L 210.68 117.18 L 194.74 117.18 Z"/><path d="M 177.11 30.52 L 193.05 30.52 L 252.36 157.70 L 236.41 157.70 Z"/><path d="M 199.89 30.52 L 215.83 30.52 L 223.52 47.00 L 207.57 47.00 Z"/><path d="M 222.66 30.52 L 238.61 30.52 L 266.15 89.58 L 250.20 89.58 Z"/><path d="M 245.44 30.52 L 261.39 30.52 L 276.89 63.76 L 260.94 63.76 Z"/><path d="M 268.22 30.52 L 284.17 30.52 L 313.42 93.25 L 297.47 93.25 Z"/><path d="M 291.00 30.52 L 306.95 30.52 L 334.22 88.99 L 318.27 88.99 Z"/><path d="M 313.78 30.52 L 329.73 30.52 L 347.97 69.64 L 332.03 69.64 Z"/><path d="M 336.56 30.52 L 352.51 30.52 L 366.91 61.41 L 350.97 61.41 Z"/><path d="M 359.34 30.52 L 375.29 30.52 L 399.79 83.06 L 383.84 83.06 Z"/><path d="M 382.12 30.52 L 398.07 30.52 L 409.09 54.15 L 393.14 54.15 Z"/><path d="M 404.90 30.52 L 420.85 30.52 L 431.51 53.38 L 415.56 53.38 Z"/><path d="M 427.68 30.52 L 443.63 30.52 L 454.00 52.76 L 438.05 52.76 Z"/><path d="M 450.46 30.52 L 466.41 30.52 L 470.76 39.86 L 454.82 39.86 Z"/><path d="M 473.24 30.52 L 489.19 30.52 L 498.60 50.71 L 482.66 50.71 Z"/><path d="M 496.02 30.52 L 511.97 30.52 L 518.95 45.49 L 503.00 45.49 Z"/><path d="M 518.80 30.52 L 534.75 30.52 L 539.16 39.98 L 523.21 39.98 Z"/><path d="M 541.58 30.52 L 557.53 30.52 L 565.23 47.04 L 549.28 47.04 Z"/><path d="M 564.36 30.52 L 580.31 30.52 L 589.12 49.43 L 573.18 49.43 Z"/><path d="M 587.14 30.52 L 603.09 30.52 L 608.40 41.91 L 592.45 41.91 Z"/><path d="M 609.92 30.52 L 625.86 30.52 L 629.60 38.52 L 613.65 38.52 Z"/><path d="M 632.70 30.52 L 648.64 30.52 L 652.38 38.52 L 636.43 38.52 Z"/><path d="M 655.48 30.52 L 671.42 30.52 L 675.15 38.52 L 659.21 38.52 Z"/><path d="M 678.26 30.52 L 694.20 30.52 L 697.93 38.52 L 681.99 38.52 Z"/></g><line x1="-702.00" y1="0.00" x2="702.00" y2="0.00" stroke="#000000" stroke-width="21" stroke-linecap="round"/><g><path d="M -694.20 -30.52 L -678.26 -30.52 L -739.24 -161.29 L -755.19 -161.29 Z" fill="#ff2626"/><path d="M -671.42 -30.52 L -655.48 -30.52 L -710.74 -149.02 L -726.68 -149.02 Z" fill="#ff3b26"/><path d="M -648.64 -30.52 L -632.70 -30.52 L -669.69 -109.84 L -685.63 -109.84 Z" fill="#ff5126"/><path d="M -625.86 -30.52 L -609.92 -30.52 L -650.27 -117.04 L -666.21 -117.04 Z" fill="#ff6726"/><path d="M -603.09 -30.52 L -587.14 -30.52 L -660.92 -188.74 L -676.86 -188.74 Z" fill="#ff7c26"/><path d="M -580.31 -30.52 L -564.36 -30.52 L -659.60 -234.76 L -675.55 -234.76 Z" fill="#ff9226"/><path d="M -557.53 -30.52 L -541.58 -30.52 L -576.49 -105.39 L -592.44 -105.39 Z" fill="#ffa826"/><path d="M -534.75 -30.52 L -518.80 -30.52 L -562.05 -123.26 L -577.99 -123.26 Z" fill="#ffbd26"/><path d="M -511.97 -30.52 L -496.02 -30.52 L -566.90 -182.52 L -582.85 -182.52 Z" fill="#ffd326"/><path d="M -489.19 -30.52 L -473.24 -30.52 L -583.59 -267.17 L -599.54 -267.17 Z" fill="#ffe926"/><path d="M -466.41 -30.52 L -450.46 -30.52 L -541.15 -225.00 L -557.10 -225.00 Z" fill="#ffff26"/><path d="M -443.63 -30.52 L -427.68 -30.52 L -463.81 -107.99 L -479.75 -107.99 Z" fill="#e9ff26"/><path d="M -420.85 -30.52 L -404.90 -30.52 L -413.51 -48.98 L -429.46 -48.98 Z" fill="#d3ff26"/><path d="M -398.07 -30.52 L -382.12 -30.52 L -400.72 -70.41 L -416.67 -70.41 Z" fill="#bdff26"/><path d="M -375.29 -30.52 L -359.34 -30.52 L -375.38 -64.91 L -391.33 -64.91 Z" fill="#a8ff26"/><path d="M -352.51 -30.52 L -336.56 -30.52 L -342.78 -43.85 L -358.73 -43.85 Z" fill="#92ff26"/><path d="M -329.73 -30.52 L -313.78 -30.52 L -350.34 -108.92 L -366.29 -108.92 Z" fill="#7cff26"/><path d="M -306.95 -30.52 L -291.00 -30.52 L -322.61 -98.30 L -338.56 -98.30 Z" fill="#67ff26"/><path d="M -284.17 -30.52 L -268.22 -30.52 L -318.83 -139.05 L -334.78 -139.05 Z" fill="#51ff26"/><path d="M -261.39 -30.52 L -245.44 -30.52 L -330.49 -212.90 L -346.44 -212.90 Z" fill="#3bff26"/><path d="M -238.61 -30.52 L -222.66 -30.52 L -274.83 -142.39 L -290.78 -142.39 Z" fill="#26ff26"/><path d="M -215.83 -30.52 L -199.89 -30.52 L -205.69 -42.97 L -221.64 -42.97 Z" fill="#26ff3b"/><path d="M -193.05 -30.52 L -177.11 -30.52 L -192.76 -64.08 L -208.70 -64.08 Z" fill="#26ff51"/><path d="M -170.27 -30.52 L -154.33 -30.52 L -178.03 -81.35 L -193.98 -81.35 Z" fill="#26ff67"/><path d="M -147.49 -30.52 L -131.55 -30.52 L -144.32 -57.91 L -160.27 -57.91 Z" fill="#26ff7c"/><path d="M -124.71 -30.52 L -108.77 -30.52 L -139.09 -95.56 L -155.04 -95.56 Z" fill="#26ff92"/><path d="M -101.93 -30.52 L -85.99 -30.52 L -117.68 -98.48 L -133.63 -98.48 Z" fill="#26ffa8"/><path d="M -79.15 -30.52 L -63.21 -30.52 L -77.35 -60.84 L -93.29 -60.84 Z" fill="#26ffbd"/><path d="M -56.37 -30.52 L -40.43 -30.52 L -55.81 -63.51 L -71.76 -63.51 Z" fill="#26ffd3"/><path d="M -33.59 -30.52 L -17.65 -30.52 L -28.10 -52.94 L -44.05 -52.94 Z" fill="#26ffe9"/><path d="M -10.81 -30.52 L 5.13 -30.52 L -44.21 -136.33 L -60.16 -136.33 Z" fill="#26ffff"/><path d="M 11.97 -30.52 L 27.91 -30.52 L -8.02 -107.57 L -23.96 -107.57 Z" fill="#26e9ff"/><path d="M 34.75 -30.52 L 50.69 -30.52 L 42.91 -47.20 L 26.97 -47.20 Z" fill="#26d3ff"/><path d="M 57.52 -30.52 L 73.47 -30.52 L 1.10 -185.73 L -14.85 -185.73 Z" fill="#26bdff"/><path d="M 80.30 -30.52 L 96.25 -30.52 L 2.64 -231.28 L -13.31 -231.28 Z" fill="#26a8ff"/><path d="M 103.08 -30.52 L 119.03 -30.52 L 104.26 -62.18 L 88.32 -62.18 Z" fill="#2692ff"/><path d="M 125.86 -30.52 L 141.81 -30.52 L 101.40 -117.18 L 85.45 -117.18 Z" fill="#267cff"/><path d="M 148.64 -30.52 L 164.59 -30.52 L 105.28 -157.70 L 89.34 -157.70 Z" fill="#2667ff"/><path d="M 171.42 -30.52 L 187.37 -30.52 L 179.68 -47.00 L 163.74 -47.00 Z" fill="#2651ff"/><path d="M 194.20 -30.52 L 210.15 -30.52 L 182.61 -89.58 L 166.66 -89.58 Z" fill="#263bff"/><path d="M 216.98 -30.52 L 232.93 -30.52 L 217.43 -63.76 L 201.48 -63.76 Z" fill="#2626ff"/><path d="M 239.76 -30.52 L 255.71 -30.52 L 226.46 -93.25 L 210.51 -93.25 Z" fill="#3b26ff"/><path d="M 262.54 -30.52 L 278.49 -30.52 L 251.22 -88.99 L 235.27 -88.99 Z" fill="#5126ff"/><path d="M 285.32 -30.52 L 301.27 -30.52 L 283.02 -69.64 L 267.08 -69.64 Z" fill="#6726ff"/><path d="M 308.10 -30.52 L 324.05 -30.52 L 309.64 -61.41 L 293.70 -61.41 Z" fill="#7c26ff"/><path d="M 330.88 -30.52 L 346.83 -30.52 L 322.33 -83.06 L 306.38 -83.06 Z" fill="#9226ff"/><path d="M 353.66 -30.52 L 369.61 -30.52 L 358.59 -54.15 L 342.64 -54.15 Z" fill="#a826ff"/><path d="M 376.44 -30.52 L 392.39 -30.52 L 381.73 -53.38 L 365.78 -53.38 Z" fill="#bd26ff"/><path d="M 399.22 -30.52 L 415.17 -30.52 L 404.79 -52.76 L 388.85 -52.76 Z" fill="#d326ff"/><path d="M 422.00 -30.52 L 437.95 -30.52 L 433.59 -39.86 L 417.65 -39.86 Z" fill="#e926ff"/><path d="M 444.78 -30.52 L 460.72 -30.52 L 451.31 -50.71 L 435.36 -50.71 Z" fill="#ff26ff"/><path d="M 467.56 -30.52 L 483.50 -30.52 L 476.52 -45.49 L 460.58 -45.49 Z" fill="#ff26e9"/><path d="M 490.34 -30.52 L 506.28 -30.52 L 501.87 -39.98 L 485.92 -39.98 Z" fill="#ff26d3"/><path d="M 513.12 -30.52 L 529.06 -30.52 L 521.36 -47.04 L 505.41 -47.04 Z" fill="#ff26bd"/><path d="M 535.90 -30.52 L 551.84 -30.52 L 543.02 -49.43 L 527.08 -49.43 Z" fill="#ff26a8"/><path d="M 558.68 -30.52 L 574.62 -30.52 L 569.31 -41.91 L 553.37 -41.91 Z" fill="#ff2692"/><path d="M 581.46 -30.52 L 597.40 -30.52 L 593.67 -38.52 L 577.73 -38.52 Z" fill="#ff267c"/><path d="M 604.24 -30.52 L 620.18 -30.52 L 616.45 -38.52 L 600.51 -38.52 Z" fill="#ff2667"/><path d="M 627.02 -30.52 L 642.96 -30.52 L 639.23 -38.52 L 623.29 -38.52 Z" fill="#ff2651"/><path d="M 649.80 -30.52 L 665.74 -30.52 L 662.01 -38.52 L 646.07 -38.52 Z" fill="#ff263b"/><path d="M -665.74 30.52 L -649.80 30.52 L -588.81 161.29 L -604.76 161.29 Z" fill="#ff2626"/><path d="M -642.96 30.52 L -627.02 30.52 L -571.76 149.02 L -587.70 149.02 Z" fill="#ff3b26"/><path d="M -620.18 30.52 L -604.24 30.52 L -567.25 109.84 L -583.20 109.84 Z" fill="#ff5126"/><path d="M -597.40 30.52 L -581.46 30.52 L -541.11 117.04 L -557.06 117.04 Z" fill="#ff6726"/><path d="M -574.62 30.52 L -558.68 30.52 L -484.90 188.74 L -500.85 188.74 Z" fill="#ff7c26"/><path d="M -551.84 30.52 L -535.90 30.52 L -440.66 234.76 L -456.60 234.76 Z" fill="#ff9226"/><path d="M -529.06 30.52 L -513.12 30.52 L -478.20 105.39 L -494.15 105.39 Z" fill="#ffa826"/><path d="M -506.28 30.52 L -490.34 30.52 L -447.09 123.26 L -463.04 123.26 Z" fill="#ffbd26"/><path d="M -483.50 30.52 L -467.56 30.52 L -396.68 182.52 L -412.62 182.52 Z" fill="#ffd326"/><path d="M -460.72 30.52 L -444.78 30.52 L -334.43 267.17 L -350.37 267.17 Z" fill="#ffe926"/><path d="M -437.95 30.52 L -422.00 30.52 L -331.31 225.00 L -347.26 225.00 Z" fill="#ffff26"/><path d="M -415.17 30.52 L -399.22 30.52 L -363.09 107.99 L -379.04 107.99 Z" fill="#e9ff26"/><path d="M -392.39 30.52 L -376.44 30.52 L -367.83 48.98 L -383.78 48.98 Z" fill="#d3ff26"/><path d="M -369.61 30.52 L -353.66 30.52 L -335.06 70.41 L -351.00 70.41 Z" fill="#bdff26"/><path d="M -346.83 30.52 L -330.88 30.52 L -314.84 64.91 L -330.79 64.91 Z" fill="#a8ff26"/><path d="M -324.05 30.52 L -308.10 30.52 L -301.88 43.85 L -317.83 43.85 Z" fill="#92ff26"/><path d="M -301.27 30.52 L -285.32 30.52 L -248.76 108.92 L -264.71 108.92 Z" fill="#7cff26"/><path d="M -278.49 30.52 L -262.54 30.52 L -230.94 98.30 L -246.88 98.30 Z" fill="#67ff26"/><path d="M -255.71 30.52 L -239.76 30.52 L -189.15 139.05 L -205.10 139.05 Z" fill="#51ff26"/><path d="M -232.93 30.52 L -216.98 30.52 L -131.94 212.90 L -147.88 212.90 Z" fill="#3bff26"/><path d="M -210.15 30.52 L -194.20 30.52 L -142.04 142.39 L -157.98 142.39 Z" fill="#26ff26"/><path d="M -187.37 30.52 L -171.42 30.52 L -165.62 42.97 L -181.56 42.97 Z" fill="#26ff3b"/><path d="M -164.59 30.52 L -148.64 30.52 L -132.99 64.08 L -148.94 64.08 Z" fill="#26ff51"/><path d="M -141.81 30.52 L -125.86 30.52 L -102.16 81.35 L -118.11 81.35 Z" fill="#26ff67"/><path d="M -119.03 30.52 L -103.08 30.52 L -90.31 57.91 L -106.26 57.91 Z" fill="#26ff7c"/><path d="M -96.25 30.52 L -80.30 30.52 L -49.98 95.56 L -65.92 95.56 Z" fill="#26ff92"/><path d="M -73.47 30.52 L -57.52 30.52 L -25.83 98.48 L -41.78 98.48 Z" fill="#26ffa8"/><path d="M -50.69 30.52 L -34.75 30.52 L -20.61 60.84 L -36.55 60.84 Z" fill="#26ffbd"/><path d="M -27.91 30.52 L -11.97 30.52 L 3.42 63.51 L -12.53 63.51 Z" fill="#26ffd3"/><path d="M -5.13 30.52 L 10.81 30.52 L 21.27 52.94 L 5.32 52.94 Z" fill="#26ffe9"/><path d="M 17.65 30.52 L 33.59 30.52 L 82.94 136.33 L 66.99 136.33 Z" fill="#26ffff"/><path d="M 40.43 30.52 L 56.37 30.52 L 92.30 107.57 L 76.36 107.57 Z" fill="#26e9ff"/><path d="M 63.21 30.52 L 79.15 30.52 L 86.93 47.20 L 70.99 47.20 Z" fill="#26d3ff"/><path d="M 85.99 30.52 L 101.93 30.52 L 174.31 185.73 L 158.36 185.73 Z" fill="#26bdff"/><path d="M 108.77 30.52 L 124.71 30.52 L 218.33 231.28 L 202.38 231.28 Z" fill="#26a8ff"/><path d="M 131.55 30.52 L 147.49 30.52 L 162.26 62.18 L 146.31 62.18 Z" fill="#2692ff"/><path d="M 154.33 30.52 L 170.27 30.52 L 210.68 117.18 L 194.74 117.18 Z" fill="#267cff"/><path d="M 177.11 30.52 L 193.05 30.52 L 252.36 157.70 L 236.41 157.70 Z" fill="#2667ff"/><path d="M 199.89 30.52 L 215.83 30.52 L 223.52 47.00 L 207.57 47.00 Z" fill="#2651ff"/><path d="M 222.66 30.52 L 238.61 30.52 L 266.15 89.58 L 250.20 89.58 Z" fill="#263bff"/><path d="M 245.44 30.52 L 261.39 30.52 L 276.89 63.76 L 260.94 63.76 Z" fill="#2626ff"/><path d="M 268.22 30.52 L 284.17 30.52 L 313.42 93.25 L 297.47 93.25 Z" fill="#3b26ff"/><path d="M 291.00 30.52 L 306.95 30.52 L 334.22 88.99 L 318.27 88.99 Z" fill="#5126ff"/><path d="M 313.78 30.52 L 329.73 30.52 L 347.97 69.64 L 332.03 69.64 Z" fill="#6726ff"/><path d="M 336.56 30.52 L 352.51 30.52 L 366.91 61.41 L 350.97 61.41 Z" fill="#7c26ff"/><path d="M 359.34 30.52 L 375.29 30.52 L 399.79 83.06 L 383.84 83.06 Z" fill="#9226ff"/><path d="M 382.12 30.52 L 398.07 30.52 L 409.09 54.15 L 393.14 54.15 Z" fill="#a826ff"/><path d="M 404.90 30.52 L 420.85 30.52 L 431.51 53.38 L 415.56 53.38 Z" fill="#bd26ff"/><path d="M 427.68 30.52 L 443.63 30.52 L 454.00 52.76 L 438.05 52.76 Z" fill="#d326ff"/><path d="M 450.46 30.52 L 466.41 30.52 L 470.76 39.86 L 454.82 39.86 Z" fill="#e926ff"/><path d="M 473.24 30.52 L 489.19 30.52 L 498.60 50.71 L 482.66 50.71 Z" fill="#ff26ff"/><path d="M 496.02 30.52 L 511.97 30.52 L 518.95 45.49 L 503.00 45.49 Z" fill="#ff26e9"/><path d="M 518.80 30.52 L 534.75 30.52 L 539.16 39.98 L 523.21 39.98 Z" fill="#ff26d3"/><path d="M 541.58 30.52 L 557.53 30.52 L 565.23 47.04 L 549.28 47.04 Z" fill="#ff26bd"/><path d="M 564.36 30.52 L 580.31 30.52 L 589.12 49.43 L 573.18 49.43 Z" fill="#ff26a8"/><path d="M 587.14 30.52 L 603.09 30.52 L 608.40 41.91 L 592.45 41.91 Z" fill="#ff2692"/><path d="M 609.92 30.52 L 625.86 30.52 L 629.60 38.52 L 613.65 38.52 Z" fill="#ff267c"/><path d="M 632.70 30.52 L 648.64 30.52 L 652.38 38.52 L 636.43 38.52 Z" fill="#ff2667"/><path d="M 655.48 30.52 L 671.42 30.52 L 675.15 38.52 L 659.21 38.52 Z" fill="#ff2651"/><path d="M 678.26 30.52 L 694.20 30.52 L 697.93 38.52 L 681.99 38.52 Z" fill="#ff263b"/></g><line x1="-702.00" y1="0.00" x2="702.00" y2="0.00" stroke="url(#lineGrad)" stroke-width="15" stroke-linecap="round"/></g></svg>