<svg width="800" height="800" viewBox="0 0 800 800" xmlns="http://www.w3.org/2000/svg"><g transform="translate(435.29, 403.94) scale(1.12765)"><g stroke="#000000" stroke-width="12" fill="none" stroke-linecap="round" stroke-linejoin="round"><path d="M 126.00 -115.46 Q 373.70 -215.76 162.99 -51.39"/><path d="M 133.00 -107.32 Q 460.33 -228.51 165.89 -41.05"/><path d="M 139.48 -98.76 Q 451.85 -189.94 168.14 -30.56"/><path d="M 145.40 -89.80 Q 396.55 -138.09 169.73 -19.94"/><path d="M 150.75 -80.50 Q 410.53 -114.62 170.65 -9.24"/><path d="M 155.51 -70.87 Q 381.58 -81.11 170.89 1.49"/><path d="M 159.65 -60.97 Q 391.86 -57.87 170.46 12.22"/><path d="M 163.17 -50.82 Q 358.47 -30.10 169.36 22.90"/><path d="M 166.04 -40.48 Q 332.18 -6.96 167.59 33.49"/><path d="M 168.25 -29.97 Q 342.92 14.37 165.15 43.94"/><path d="M 169.80 -19.35 Q 343.35 36.09 162.07 54.23"/><path d="M 170.68 -8.65 Q 317.05 53.62 158.34 64.30"/><path d="M 170.89 2.09 Q 281.25 65.97 153.99 74.11"/><path d="M 170.42 12.81 Q 396.85 119.82 149.04 83.63"/><path d="M 169.28 23.49 Q 400.51 148.95 143.49 92.83"/><path d="M 167.47 34.07 Q 481.85 214.53 137.38 101.65"/><path d="M 165.00 44.52 Q 486.99 254.59 130.72 110.08"/><path d="M 161.88 54.79 Q 374.85 227.02 123.55 118.07"/><path d="M 158.12 64.85 Q 247.84 172.25 115.90 125.60"/><path d="M 153.73 74.65 Q 215.08 170.47 107.78 132.63"/><path d="M 148.74 84.15 Q 249.74 224.87 99.24 139.13"/><path d="M 143.17 93.33 Q 235.13 240.10 90.31 145.09"/><path d="M 137.02 102.13 Q 175.71 203.56 81.02 150.47"/><path d="M 130.34 110.54 Q 138.54 182.52 71.41 155.26"/><path d="M 123.14 118.50 Q 122.13 183.82 61.52 159.44"/><path d="M 115.46 126.00 Q 109.55 189.75 51.39 162.99"/><path d="M 107.32 133.00 Q 102.32 206.12 41.05 165.89"/><path d="M 98.76 139.48 Q 122.00 290.23 30.56 168.14"/><path d="M 89.80 145.40 Q 107.11 307.59 19.94 169.73"/><path d="M 80.50 150.75 Q 68.10 243.92 9.24 170.65"/><path d="M 70.87 155.51 Q 76.96 362.08 -1.49 170.89"/><path d="M 60.97 159.65 Q 61.01 413.13 -12.22 170.46"/><path d="M 50.82 163.17 Q 27.68 329.62 -22.90 169.36"/><path d="M 40.48 166.04 Q 5.78 275.82 -33.49 167.59"/><path d="M 29.97 168.25 Q -10.16 242.37 -43.94 165.15"/><path d="M 19.35 169.80 Q -28.70 273.02 -54.23 162.07"/><path d="M 8.65 170.68 Q -46.46 274.67 -64.30 158.34"/><path d="M -2.09 170.89 Q -60.15 256.47 -74.11 153.99"/><path d="M -12.81 170.42 Q -77.60 257.01 -83.63 149.04"/><path d="M -23.49 169.28 Q -96.35 259.08 -92.83 143.49"/><path d="M -34.07 167.47 Q -108.60 243.93 -101.65 137.38"/><path d="M -44.52 165.00 Q -143.64 274.76 -110.08 130.72"/><path d="M -54.79 161.88 Q -242.97 401.20 -118.07 123.55"/><path d="M -64.85 158.12 Q -251.86 362.38 -125.60 115.90"/><path d="M -74.65 153.73 Q -210.87 266.05 -132.63 107.78"/><path d="M -84.15 148.74 Q -187.65 208.41 -139.13 99.24"/><path d="M -93.33 143.17 Q -225.08 220.41 -145.09 90.31"/><path d="M -102.13 137.02 Q -242.45 209.28 -150.47 81.02"/><path d="M -110.54 130.34 Q -316.76 240.43 -155.26 71.41"/><path d="M -118.50 123.14 Q -481.90 320.17 -159.44 61.52"/><path d="M -126.00 115.46 Q -615.53 355.38 -162.99 51.39"/><path d="M -133.00 107.32 Q -435.49 216.18 -165.89 41.05"/><path d="M -139.48 98.76 Q -323.07 135.81 -168.14 30.56"/><path d="M -145.40 89.80 Q -279.86 97.46 -169.73 19.94"/><path d="M -150.75 80.50 Q -326.22 91.08 -170.65 9.24"/><path d="M -155.51 70.87 Q -438.32 93.17 -170.89 -1.49"/><path d="M -159.65 60.97 Q -508.50 75.09 -170.46 -12.22"/><path d="M -163.17 50.82 Q -410.82 34.50 -169.36 -22.90"/><path d="M -166.04 40.48 Q -374.49 7.84 -167.59 -33.49"/><path d="M -168.25 29.97 Q -355.39 -14.90 -165.15 -43.94"/><path d="M -169.80 19.35 Q -433.56 -45.57 -162.07 -54.23"/><path d="M -170.68 8.65 Q -529.93 -89.63 -158.34 -64.30"/><path d="M -170.89 -2.09 Q -365.85 -85.81 -153.99 -74.11"/><path d="M -170.42 -12.81 Q -275.70 -83.24 -149.04 -83.63"/><path d="M -169.28 -23.49 Q -325.14 -120.92 -143.49 -92.83"/><path d="M -167.47 -34.07 Q -356.55 -158.75 -137.38 -101.65"/><path d="M -165.00 -44.52 Q -333.72 -174.47 -130.72 -110.08"/><path d="M -161.88 -54.79 Q -255.61 -154.80 -123.55 -118.07"/><path d="M -158.12 -64.85 Q -241.33 -167.73 -115.90 -125.60"/><path d="M -153.73 -74.65 Q -270.69 -214.55 -107.78 -132.63"/><path d="M -148.74 -84.15 Q -221.13 -199.10 -99.24 -139.13"/><path d="M -143.17 -93.33 Q -194.74 -198.86 -90.31 -145.09"/><path d="M -137.02 -102.13 Q -191.52 -221.88 -81.02 -150.47"/><path d="M -130.34 -110.54 Q -190.30 -250.71 -71.41 -155.26"/><path d="M -123.14 -118.50 Q -202.70 -305.09 -61.52 -159.44"/><path d="M -115.46 -126.00 Q -174.92 -302.96 -51.39 -162.99"/><path d="M -107.32 -133.00 Q -156.09 -314.45 -41.05 -165.89"/><path d="M -98.76 -139.48 Q -148.77 -353.92 -30.56 -168.14"/><path d="M -89.80 -145.40 Q -125.35 -359.97 -19.94 -169.73"/><path d="M -80.50 -150.75 Q -120.47 -431.47 -9.24 -170.65"/><path d="M -70.87 -155.51 Q -70.30 -330.72 1.49 -170.89"/><path d="M -60.97 -159.65 Q -53.99 -365.59 12.22 -170.46"/><path d="M -50.82 -163.17 Q -27.12 -323.00 22.90 -169.36"/><path d="M -40.48 -166.04 Q -7.03 -335.84 33.49 -167.59"/><path d="M -29.97 -168.25 Q 15.22 -363.24 43.94 -165.15"/><path d="M -19.35 -169.80 Q 42.79 -407.16 54.23 -162.07"/><path d="M -8.65 -170.68 Q 58.92 -348.35 64.30 -158.34"/><path d="M 2.09 -170.89 Q 75.97 -323.92 74.11 -153.99"/><path d="M 12.81 -170.42 Q 88.40 -292.80 83.63 -149.04"/><path d="M 23.49 -169.28 Q 97.89 -263.21 92.83 -143.49"/><path d="M 34.07 -167.47 Q 126.22 -283.49 101.65 -137.38"/><path d="M 44.52 -165.00 Q 149.03 -285.06 110.08 -130.72"/><path d="M 54.79 -161.88 Q 157.71 -260.42 118.07 -123.55"/><path d="M 64.85 -158.12 Q 168.91 -243.03 125.60 -115.90"/><path d="M 74.65 -153.73 Q 188.01 -237.21 132.63 -107.78"/><path d="M 84.15 -148.74 Q 187.60 -208.35 139.13 -99.24"/><path d="M 93.33 -143.17 Q 206.21 -201.93 145.09 -90.31"/><path d="M 102.13 -137.02 Q 225.48 -194.63 150.47 -81.02"/><path d="M 110.54 -130.34 Q 217.33 -164.97 155.26 -71.41"/><path d="M 118.50 -123.14 Q 189.93 -126.19 159.44 -61.52"/></g><circle cx="0" cy="0" r="144.9276123046875" stroke="#000000" stroke-width="6" fill="#000000"/><path d="M 48.50,40.69 L 45.94,42.84 L 42.65,44.17 L 38.83,44.67 L 34.72,44.44 L 30.58,43.67 L 26.61,42.59 L 22.99,41.48 L 19.82,40.64 L 17.11,40.31 L 14.81,40.70 L 12.80,41.88 L 10.94,43.87 L 9.05,46.56 L 6.99,49.73 L 4.65,53.10 L 1.97,56.36 L -1.03,59.18 L -4.28,61.25 L -7.66,62.35 L -10.99,62.35 L -14.13,61.21 L -16.92,59.02 L -19.27,55.96 L -21.13,52.29 L -22.53,48.31 L -23.58,44.34 L -24.43,40.65 L -25.29,37.49 L -26.36,34.98 L -27.84,33.18 L -29.87,32.03 L -32.53,31.41 L -35.80,31.12 L -39.57,30.92 L -43.67,30.58 L -47.83,29.89 L -51.76,28.69 L -55.18,26.91 L -57.82,24.54 L -59.49,21.65 L -60.07,18.37 L -59.57,14.85 L -58.10,11.29 L -55.85,7.85 L -53.10,4.65 L -50.19,1.75 L -47.42,-0.83 L -45.11,-3.15 L -43.47,-5.34 L -42.65,-7.52 L -42.67,-9.85 L -43.47,-12.46 L -44.85,-15.44 L -46.56,-18.81 L -48.31,-22.53 L -49.80,-26.48 L -50.73,-30.48 L -50.90,-34.33 L -50.17,-37.80 L -48.50,-40.69 L -45.94,-42.84 L -42.65,-44.17 L -38.83,-44.67 L -34.72,-44.44 L -30.58,-43.67 L -26.61,-42.59 L -22.99,-41.48 L -19.82,-40.64 L -17.11,-40.31 L -14.81,-40.70 L -12.80,-41.88 L -10.94,-43.87 L -9.05,-46.56 L -6.99,-49.73 L -4.65,-53.10 L -1.97,-56.36 L 1.03,-59.18 L 4.28,-61.25 L 7.66,-62.35 L 10.99,-62.35 L 14.13,-61.21 L 16.92,-59.02 L 19.27,-55.96 L 21.13,-52.29 L 22.53,-48.31 L 23.58,-44.34 L 24.43,-40.65 L 25.29,-37.49 L 26.36,-34.98 L 27.84,-33.18 L 29.87,-32.03 L 32.53,-31.41 L 35.80,-31.12 L 39.57,-30.92 L 43.67,-30.58 L 47.83,-29.89 L 51.76,-28.69 L 55.18,-26.91 L 57.82,-24.54 L 59.49,-21.65 L 60.07,-18.37 L 59.57,-14.85 L 58.10,-11.29 L 55.85,-7.85 L 53.10,-4.65 L 50.19,-1.75 L 47.42,0.83 L 45.11,3.15 L 43.47,5.34 L 42.65,7.52 L 42.67,9.85 L 43.47,12.46 L 44.85,15.44 L 46.56,18.81 L 48.31,22.53 L 49.80,26.48 L 50.73,30.48 L 50.90,34.33 L 50.17,37.80 L 48.50,40.69 Z" stroke="#000000" stroke-width="6" fill="#000000"/><g stroke-width="6" fill="none" stroke-linecap="round"><path d="M 126.00 -115.46 Q 373.70 -215.76 162.99 -51.39" stroke="#ff3232"/><path d="M 133.00 -107.32 Q 460.33 -228.51 165.89 -41.05" stroke="#ff3f32"/><path d="M 139.48 -98.76 Q 451.85 -189.94 168.14 -30.56" stroke="#ff4b32"/><path d="M 145.40 -89.80 Q 396.55 -138.09 169.73 -19.94" stroke="#ff5732"/><path d="M 150.75 -80.50 Q 410.53 -114.62 170.65 -9.24" stroke="#ff6332"/><path d="M 155.51 -70.87 Q 381.58 -81.11 170.89 1.49" stroke="#ff7032"/><path d="M 159.65 -60.97 Q 391.86 -57.87 170.46 12.22" stroke="#ff7c32"/><path d="M 163.17 -50.82 Q 358.47 -30.10 169.36 22.90" stroke="#ff8832"/><path d="M 166.04 -40.48 Q 332.18 -6.96 167.59 33.49" stroke="#ff9432"/><path d="M 168.25 -29.97 Q 342.92 14.37 165.15 43.94" stroke="#ffa132"/><path d="M 169.80 -19.35 Q 343.35 36.09 162.07 54.23" stroke="#ffad32"/><path d="M 170.68 -8.65 Q 317.05 53.62 158.34 64.30" stroke="#ffb932"/><path d="M 170.89 2.09 Q 281.25 65.97 153.99 74.11" stroke="#ffc532"/><path d="M 170.42 12.81 Q 396.85 119.82 149.04 83.63" stroke="#ffd232"/><path d="M 169.28 23.49 Q 400.51 148.95 143.49 92.83" stroke="#ffde32"/><path d="M 167.47 34.07 Q 481.85 214.53 137.38 101.65" stroke="#ffea32"/><path d="M 165.00 44.52 Q 486.99 254.59 130.72 110.08" stroke="#fff632"/><path d="M 161.88 54.79 Q 374.85 227.02 123.55 118.07" stroke="#faff32"/><path d="M 158.12 64.85 Q 247.84 172.25 115.90 125.60" stroke="#eeff32"/><path d="M 153.73 74.65 Q 215.08 170.47 107.78 132.63" stroke="#e2ff32"/><path d="M 148.74 84.15 Q 249.74 224.87 99.24 139.13" stroke="#d6ff32"/><path d="M 143.17 93.33 Q 235.13 240.10 90.31 145.09" stroke="#c9ff32"/><path d="M 137.02 102.13 Q 175.71 203.56 81.02 150.47" stroke="#bdff32"/><path d="M 130.34 110.54 Q 138.54 182.52 71.41 155.26" stroke="#b1ff32"/><path d="M 123.14 118.50 Q 122.13 183.82 61.52 159.44" stroke="#a5ff32"/><path d="M 115.46 126.00 Q 109.55 189.75 51.39 162.99" stroke="#99ff32"/><path d="M 107.32 133.00 Q 102.32 206.12 41.05 165.89" stroke="#8cff32"/><path d="M 98.76 139.48 Q 122.00 290.23 30.56 168.14" stroke="#80ff32"/><path d="M 89.80 145.40 Q 107.11 307.59 19.94 169.73" stroke="#74ff32"/><path d="M 80.50 150.75 Q 68.10 243.92 9.24 170.65" stroke="#68ff32"/><path d="M 70.87 155.51 Q 76.96 362.08 -1.49 170.89" stroke="#5bff32"/><path d="M 60.97 159.65 Q 61.01 413.13 -12.22 170.46" stroke="#4fff32"/><path d="M 50.82 163.17 Q 27.68 329.62 -22.90 169.36" stroke="#43ff32"/><path d="M 40.48 166.04 Q 5.78 275.82 -33.49 167.59" stroke="#37ff32"/><path d="M 29.97 168.25 Q -10.16 242.37 -43.94 165.15" stroke="#32ff3b"/><path d="M 19.35 169.80 Q -28.70 273.02 -54.23 162.07" stroke="#32ff47"/><path d="M 8.65 170.68 Q -46.46 274.67 -64.30 158.34" stroke="#32ff53"/><path d="M -2.09 170.89 Q -60.15 256.47 -74.11 153.99" stroke="#32ff5f"/><path d="M -12.81 170.42 Q -77.60 257.01 -83.63 149.04" stroke="#32ff6c"/><path d="M -23.49 169.28 Q -96.35 259.08 -92.83 143.49" stroke="#32ff78"/><path d="M -34.07 167.47 Q -108.60 243.93 -101.65 137.38" stroke="#32ff84"/><path d="M -44.52 165.00 Q -143.64 274.76 -110.08 130.72" stroke="#32ff90"/><path d="M -54.79 161.88 Q -242.97 401.20 -118.07 123.55" stroke="#32ff9d"/><path d="M -64.85 158.12 Q -251.86 362.38 -125.60 115.90" stroke="#32ffa9"/><path d="M -74.65 153.73 Q -210.87 266.05 -132.63 107.78" stroke="#32ffb5"/><path d="M -84.15 148.74 Q -187.65 208.41 -139.13 99.24" stroke="#32ffc1"/><path d="M -93.33 143.17 Q -225.08 220.41 -145.09 90.31" stroke="#32ffce"/><path d="M -102.13 137.02 Q -242.45 209.28 -150.47 81.02" stroke="#32ffda"/><path d="M -110.54 130.34 Q -316.76 240.43 -155.26 71.41" stroke="#32ffe6"/><path d="M -118.50 123.14 Q -481.90 320.17 -159.44 61.52" stroke="#32fff2"/><path d="M -126.00 115.46 Q -615.53 355.38 -162.99 51.39" stroke="#32ffff"/><path d="M -133.00 107.32 Q -435.49 216.18 -165.89 41.05" stroke="#32f2ff"/><path d="M -139.48 98.76 Q -323.07 135.81 -168.14 30.56" stroke="#32e6ff"/><path d="M -145.40 89.80 Q -279.86 97.46 -169.73 19.94" stroke="#32daff"/><path d="M -150.75 80.50 Q -326.22 91.08 -170.65 9.24" stroke="#32ceff"/><path d="M -155.51 70.87 Q -438.32 93.17 -170.89 -1.49" stroke="#32c1ff"/><path d="M -159.65 60.97 Q -508.50 75.09 -170.46 -12.22" stroke="#32b5ff"/><path d="M -163.17 50.82 Q -410.82 34.50 -169.36 -22.90" stroke="#32a9ff"/><path d="M -166.04 40.48 Q -374.49 7.84 -167.59 -33.49" stroke="#329dff"/><path d="M -168.25 29.97 Q -355.39 -14.90 -165.15 -43.94" stroke="#3290ff"/><path d="M -169.80 19.35 Q -433.56 -45.57 -162.07 -54.23" stroke="#3284ff"/><path d="M -170.68 8.65 Q -529.93 -89.63 -158.34 -64.30" stroke="#3278ff"/><path d="M -170.89 -2.09 Q -365.85 -85.81 -153.99 -74.11" stroke="#326cff"/><path d="M -170.42 -12.81 Q -275.70 -83.24 -149.04 -83.63" stroke="#325fff"/><path d="M -169.28 -23.49 Q -325.14 -120.92 -143.49 -92.83" stroke="#3253ff"/><path d="M -167.47 -34.07 Q -356.55 -158.75 -137.38 -101.65" stroke="#3247ff"/><path d="M -165.00 -44.52 Q -333.72 -174.47 -130.72 -110.08" stroke="#323bff"/><path d="M -161.88 -54.79 Q -255.61 -154.80 -123.55 -118.07" stroke="#3732ff"/><path d="M -158.12 -64.85 Q -241.33 -167.73 -115.90 -125.60" stroke="#4332ff"/><path d="M -153.73 -74.65 Q -270.69 -214.55 -107.78 -132.63" stroke="#4f32ff"/><path d="M -148.74 -84.15 Q -221.13 -199.10 -99.24 -139.13" stroke="#5b32ff"/><path d="M -143.17 -93.33 Q -194.74 -198.86 -90.31 -145.09" stroke="#6832ff"/><path d="M -137.02 -102.13 Q -191.52 -221.88 -81.02 -150.47" stroke="#7432ff"/><path d="M -130.34 -110.54 Q -190.30 -250.71 -71.41 -155.26" stroke="#8032ff"/><path d="M -123.14 -118.50 Q -202.70 -305.09 -61.52 -159.44" stroke="#8c32ff"/><path d="M -115.46 -126.00 Q -174.92 -302.96 -51.39 -162.99" stroke="#9932ff"/><path d="M -107.32 -133.00 Q -156.09 -314.45 -41.05 -165.89" stroke="#a532ff"/><path d="M -98.76 -139.48 Q -148.77 -353.92 -30.56 -168.14" stroke="#b132ff"/><path d="M -89.80 -145.40 Q -125.35 -359.97 -19.94 -169.73" stroke="#bd32ff"/><path d="M -80.50 -150.75 Q -120.47 -431.47 -9.24 -170.65" stroke="#c932ff"/><path d="M -70.87 -155.51 Q -70.30 -330.72 1.49 -170.89" stroke="#d632ff"/><path d="M -60.97 -159.65 Q -53.99 -365.59 12.22 -170.46" stroke="#e232ff"/><path d="M -50.82 -163.17 Q -27.12 -323.00 22.90 -169.36" stroke="#ee32ff"/><path d="M -40.48 -166.04 Q -7.03 -335.84 33.49 -167.59" stroke="#fa32ff"/><path d="M -29.97 -168.25 Q 15.22 -363.24 43.94 -165.15" stroke="#ff32f6"/><path d="M -19.35 -169.80 Q 42.79 -407.16 54.23 -162.07" stroke="#ff32ea"/><path d="M -8.65 -170.68 Q 58.92 -348.35 64.30 -158.34" stroke="#ff32de"/><path d="M 2.09 -170.89 Q 75.97 -323.92 74.11 -153.99" stroke="#ff32d2"/><path d="M 12.81 -170.42 Q 88.40 -292.80 83.63 -149.04" stroke="#ff32c5"/><path d="M 23.49 -169.28 Q 97.89 -263.21 92.83 -143.49" stroke="#ff32b9"/><path d="M 34.07 -167.47 Q 126.22 -283.49 101.65 -137.38" stroke="#ff32ad"/><path d="M 44.52 -165.00 Q 149.03 -285.06 110.08 -130.72" stroke="#ff32a1"/><path d="M 54.79 -161.88 Q 157.71 -260.42 118.07 -123.55" stroke="#ff3294"/><path d="M 64.85 -158.12 Q 168.91 -243.03 125.60 -115.90" stroke="#ff3288"/><path d="M 74.65 -153.73 Q 188.01 -237.21 132.63 -107.78" stroke="#ff327c"/><path d="M 84.15 -148.74 Q 187.60 -208.35 139.13 -99.24" stroke="#ff3270"/><path d="M 93.33 -143.17 Q 206.21 -201.93 145.09 -90.31" stroke="#ff3263"/><path d="M 102.13 -137.02 Q 225.48 -194.63 150.47 -81.02" stroke="#ff3257"/><path d="M 110.54 -130.34 Q 217.33 -164.97 155.26 -71.41" stroke="#ff324b"/><path d="M 118.50 -123.14 Q 189.93 -126.19 159.44 -61.52" stroke="#ff323f"/></g><g shape-rendering="crispEdges"><path d="M 0.00 0.00 L 136.19 -49.57 L 137.91 -44.54 Z" fill="#ff3232"/><path d="M 0.00 0.00 L 137.83 -44.79 L 139.38 -39.70 Z" fill="#ff3932"/><path d="M 0.00 0.00 L 139.31 -39.95 L 140.68 -34.82 Z" fill="#ff4032"/><path d="M 0.00 0.00 L 140.62 -35.06 L 141.81 -29.88 Z" fill="#ff4732"/><path d="M 0.00 0.00 L 141.76 -30.13 L 142.77 -24.92 Z" fill="#ff4e32"/><path d="M 0.00 0.00 L 142.73 -25.17 L 143.55 -19.92 Z" fill="#ff5432"/><path d="M 0.00 0.00 L 143.52 -20.17 L 144.16 -14.90 Z" fill="#ff5b32"/><path d="M 0.00 0.00 L 144.13 -15.15 L 144.59 -9.86 Z" fill="#ff6232"/><path d="M 0.00 0.00 L 144.57 -10.11 L 144.85 -4.81 Z" fill="#ff6932"/><path d="M 0.00 0.00 L 144.84 -5.06 L 144.93 0.25 Z" fill="#ff7032"/><path d="M 0.00 0.00 L 144.93 -0.00 L 144.83 5.31 Z" fill="#ff7632"/><path d="M 0.00 0.00 L 144.84 5.06 L 144.56 10.36 Z" fill="#ff7d32"/><path d="M 0.00 0.00 L 144.57 10.11 L 144.11 15.40 Z" fill="#ff8432"/><path d="M 0.00 0.00 L 144.13 15.15 L 143.48 20.42 Z" fill="#ff8b32"/><path d="M 0.00 0.00 L 143.52 20.17 L 142.68 25.42 Z" fill="#ff9232"/><path d="M 0.00 0.00 L 142.73 25.17 L 141.71 30.38 Z" fill="#ff9932"/><path d="M 0.00 0.00 L 141.76 30.13 L 140.56 35.31 Z" fill="#ff9f32"/><path d="M 0.00 0.00 L 140.62 35.06 L 139.24 40.19 Z" fill="#ffa632"/><path d="M 0.00 0.00 L 139.31 39.95 L 137.76 45.03 Z" fill="#ffad32"/><path d="M 0.00 0.00 L 137.83 44.79 L 136.10 49.81 Z" fill="#ffb432"/><path d="M 0.00 0.00 L 136.19 49.57 L 134.28 54.53 Z" fill="#ffbb32"/><path d="M 0.00 0.00 L 134.37 54.29 L 132.29 59.18 Z" fill="#ffc132"/><path d="M 0.00 0.00 L 132.40 58.95 L 130.15 63.76 Z" fill="#ffc832"/><path d="M 0.00 0.00 L 130.26 63.53 L 127.84 68.26 Z" fill="#ffcf32"/><path d="M 0.00 0.00 L 127.96 68.04 L 125.38 72.68 Z" fill="#ffd632"/><path d="M 0.00 0.00 L 125.51 72.46 L 122.77 77.01 Z" fill="#ffdd32"/><path d="M 0.00 0.00 L 122.91 76.80 L 120.01 81.25 Z" fill="#ffe332"/><path d="M 0.00 0.00 L 120.15 81.04 L 117.10 85.39 Z" fill="#ffea32"/><path d="M 0.00 0.00 L 117.25 85.19 L 114.05 89.43 Z" fill="#fff132"/><path d="M 0.00 0.00 L 114.20 89.23 L 110.86 93.35 Z" fill="#fff832"/><path d="M 0.00 0.00 L 111.02 93.16 L 107.53 97.16 Z" fill="#ffff32"/><path d="M 0.00 0.00 L 107.70 96.98 L 104.08 100.86 Z" fill="#f8ff32"/><path d="M 0.00 0.00 L 104.25 100.68 L 100.49 104.43 Z" fill="#f1ff32"/><path d="M 0.00 0.00 L 100.68 104.25 L 96.79 107.87 Z" fill="#eaff32"/><path d="M 0.00 0.00 L 96.98 107.70 L 92.96 111.18 Z" fill="#e3ff32"/><path d="M 0.00 0.00 L 93.16 111.02 L 89.03 114.36 Z" fill="#dcff32"/><path d="M 0.00 0.00 L 89.23 114.20 L 84.98 117.40 Z" fill="#d6ff32"/><path d="M 0.00 0.00 L 85.19 117.25 L 80.83 120.29 Z" fill="#cfff32"/><path d="M 0.00 0.00 L 81.04 120.15 L 76.59 123.04 Z" fill="#c8ff32"/><path d="M 0.00 0.00 L 76.80 122.91 L 72.24 125.64 Z" fill="#c1ff32"/><path d="M 0.00 0.00 L 72.46 125.51 L 67.82 128.08 Z" fill="#bbff32"/><path d="M 0.00 0.00 L 68.04 127.96 L 63.30 130.37 Z" fill="#b4ff32"/><path d="M 0.00 0.00 L 63.53 130.26 L 58.72 132.50 Z" fill="#adff32"/><path d="M 0.00 0.00 L 58.95 132.40 L 54.06 134.47 Z" fill="#a6ff32"/><path d="M 0.00 0.00 L 54.29 134.37 L 49.33 136.27 Z" fill="#9fff32"/><path d="M 0.00 0.00 L 49.57 136.19 L 44.54 137.91 Z" fill="#99ff32"/><path d="M 0.00 0.00 L 44.79 137.83 L 39.70 139.38 Z" fill="#92ff32"/><path d="M 0.00 0.00 L 39.95 139.31 L 34.82 140.68 Z" fill="#8bff32"/><path d="M 0.00 0.00 L 35.06 140.62 L 29.88 141.81 Z" fill="#84ff32"/><path d="M 0.00 0.00 L 30.13 141.76 L 24.92 142.77 Z" fill="#7dff32"/><path d="M 0.00 0.00 L 25.17 142.73 L 19.92 143.55 Z" fill="#76ff32"/><path d="M 0.00 0.00 L 20.17 143.52 L 14.90 144.16 Z" fill="#70ff32"/><path d="M 0.00 0.00 L 15.15 144.13 L 9.86 144.59 Z" fill="#69ff32"/><path d="M 0.00 0.00 L 10.11 144.57 L 4.81 144.85 Z" fill="#62ff32"/><path d="M 0.00 0.00 L 5.06 144.84 L -0.25 144.93 Z" fill="#5bff32"/><path d="M 0.00 0.00 L 0.00 144.93 L -5.31 144.83 Z" fill="#54ff32"/><path d="M 0.00 0.00 L -5.06 144.84 L -10.36 144.56 Z" fill="#4eff32"/><path d="M 0.00 0.00 L -10.11 144.57 L -15.40 144.11 Z" fill="#47ff32"/><path d="M 0.00 0.00 L -15.15 144.13 L -20.42 143.48 Z" fill="#40ff32"/><path d="M 0.00 0.00 L -20.17 143.52 L -25.42 142.68 Z" fill="#39ff32"/><path d="M 0.00 0.00 L -25.17 142.73 L -30.38 141.71 Z" fill="#32ff32"/><path d="M 0.00 0.00 L -30.13 141.76 L -35.31 140.56 Z" fill="#32ff39"/><path d="M 0.00 0.00 L -35.06 140.62 L -40.19 139.24 Z" fill="#32ff40"/><path d="M 0.00 0.00 L -39.95 139.31 L -45.03 137.76 Z" fill="#32ff47"/><path d="M 0.00 0.00 L -44.79 137.83 L -49.81 136.10 Z" fill="#32ff4e"/><path d="M 0.00 0.00 L -49.57 136.19 L -54.53 134.28 Z" fill="#32ff54"/><path d="M 0.00 0.00 L -54.29 134.37 L -59.18 132.29 Z" fill="#32ff5b"/><path d="M 0.00 0.00 L -58.95 132.40 L -63.76 130.15 Z" fill="#32ff62"/><path d="M 0.00 0.00 L -63.53 130.26 L -68.26 127.84 Z" fill="#32ff69"/><path d="M 0.00 0.00 L -68.04 127.96 L -72.68 125.38 Z" fill="#32ff70"/><path d="M 0.00 0.00 L -72.46 125.51 L -77.01 122.77 Z" fill="#32ff77"/><path d="M 0.00 0.00 L -76.80 122.91 L -81.25 120.01 Z" fill="#32ff7d"/><path d="M 0.00 0.00 L -81.04 120.15 L -85.39 117.10 Z" fill="#32ff84"/><path d="M 0.00 0.00 L -85.19 117.25 L -89.43 114.05 Z" fill="#32ff8b"/><path d="M 0.00 0.00 L -89.23 114.20 L -93.35 110.86 Z" fill="#32ff92"/><path d="M 0.00 0.00 L -93.16 111.02 L -97.16 107.53 Z" fill="#32ff99"/><path d="M 0.00 0.00 L -96.98 107.70 L -100.86 104.08 Z" fill="#32ff9f"/><path d="M 0.00 0.00 L -100.68 104.25 L -104.43 100.49 Z" fill="#32ffa6"/><path d="M 0.00 0.00 L -104.25 100.68 L -107.87 96.79 Z" fill="#32ffad"/><path d="M 0.00 0.00 L -107.70 96.98 L -111.18 92.96 Z" fill="#32ffb4"/><path d="M 0.00 0.00 L -111.02 93.16 L -114.36 89.03 Z" fill="#32ffba"/><path d="M 0.00 0.00 L -114.20 89.23 L -117.40 84.98 Z" fill="#32ffc1"/><path d="M 0.00 0.00 L -117.25 85.19 L -120.29 80.83 Z" fill="#32ffc8"/><path d="M 0.00 0.00 L -120.15 81.04 L -123.04 76.59 Z" fill="#32ffcf"/><path d="M 0.00 0.00 L -122.91 76.80 L -125.64 72.24 Z" fill="#32ffd6"/><path d="M 0.00 0.00 L -125.51 72.46 L -128.08 67.82 Z" fill="#32ffdc"/><path d="M 0.00 0.00 L -127.96 68.04 L -130.37 63.30 Z" fill="#32ffe3"/><path d="M 0.00 0.00 L -130.26 63.53 L -132.50 58.72 Z" fill="#32ffea"/><path d="M 0.00 0.00 L -132.40 58.95 L -134.47 54.06 Z" fill="#32fff1"/><path d="M 0.00 0.00 L -134.37 54.29 L -136.27 49.33 Z" fill="#32fff8"/><path d="M 0.00 0.00 L -136.19 49.57 L -137.91 44.54 Z" fill="#32ffff"/><path d="M 0.00 0.00 L -137.83 44.79 L -139.38 39.70 Z" fill="#32f8ff"/><path d="M 0.00 0.00 L -139.31 39.95 L -140.68 34.82 Z" fill="#32f1ff"/><path d="M 0.00 0.00 L -140.62 35.06 L -141.81 29.88 Z" fill="#32eaff"/><path d="M 0.00 0.00 L -141.76 30.13 L -142.77 24.92 Z" fill="#32e3ff"/><path d="M 0.00 0.00 L -142.73 25.17 L -143.55 19.92 Z" fill="#32dcff"/><path d="M 0.00 0.00 L -143.52 20.17 L -144.16 14.90 Z" fill="#32d6ff"/><path d="M 0.00 0.00 L -144.13 15.15 L -144.59 9.86 Z" fill="#32cfff"/><path d="M 0.00 0.00 L -144.57 10.11 L -144.85 4.81 Z" fill="#32c8ff"/><path d="M 0.00 0.00 L -144.84 5.06 L -144.93 -0.25 Z" fill="#32c1ff"/><path d="M 0.00 0.00 L -144.93 0.00 L -144.83 -5.31 Z" fill="#32baff"/><path d="M 0.00 0.00 L -144.84 -5.06 L -144.56 -10.36 Z" fill="#32b4ff"/><path d="M 0.00 0.00 L -144.57 -10.11 L -144.11 -15.40 Z" fill="#32adff"/><path d="M 0.00 0.00 L -144.13 -15.15 L -143.48 -20.42 Z" fill="#32a6ff"/><path d="M 0.00 0.00 L -143.52 -20.17 L -142.68 -25.42 Z" fill="#329fff"/><path d="M 0.00 0.00 L -142.73 -25.17 L -141.71 -30.38 Z" fill="#3299ff"/><path d="M 0.00 0.00 L -141.76 -30.13 L -140.56 -35.31 Z" fill="#3292ff"/><path d="M 0.00 0.00 L -140.62 -35.06 L -139.24 -40.19 Z" fill="#328bff"/><path d="M 0.00 0.00 L -139.31 -39.95 L -137.76 -45.03 Z" fill="#3284ff"/><path d="M 0.00 0.00 L -137.83 -44.79 L -136.10 -49.81 Z" fill="#327dff"/><path d="M 0.00 0.00 L -136.19 -49.57 L -134.28 -54.53 Z" fill="#3276ff"/><path d="M 0.00 0.00 L -134.37 -54.29 L -132.29 -59.18 Z" fill="#3270ff"/><path d="M 0.00 0.00 L -132.40 -58.95 L -130.15 -63.76 Z" fill="#3269ff"/><path d="M 0.00 0.00 L -130.26 -63.53 L -127.84 -68.26 Z" fill="#3262ff"/><path d="M 0.00 0.00 L -127.96 -68.04 L -125.38 -72.68 Z" fill="#325bff"/><path d="M 0.00 0.00 L -125.51 -72.46 L -122.77 -77.01 Z" fill="#3255ff"/><path d="M 0.00 0.00 L -122.91 -76.80 L -120.01 -81.25 Z" fill="#324eff"/><path d="M 0.00 0.00 L -120.15 -81.04 L -117.10 -85.39 Z" fill="#3247ff"/><path d="M 0.00 0.00 L -117.25 -85.19 L -114.05 -89.43 Z" fill="#3240ff"/><path d="M 0.00 0.00 L -114.20 -89.23 L -110.86 -93.35 Z" fill="#3239ff"/><path d="M 0.00 0.00 L -111.02 -93.16 L -107.53 -97.16 Z" fill="#3232ff"/><path d="M 0.00 0.00 L -107.70 -96.98 L -104.08 -100.86 Z" fill="#3932ff"/><path d="M 0.00 0.00 L -104.25 -100.68 L -100.49 -104.43 Z" fill="#4032ff"/><path d="M 0.00 0.00 L -100.68 -104.25 L -96.79 -107.87 Z" fill="#4732ff"/><path d="M 0.00 0.00 L -96.98 -107.70 L -92.96 -111.18 Z" fill="#4e32ff"/><path d="M 0.00 0.00 L -93.16 -111.02 L -89.03 -114.36 Z" fill="#5432ff"/><path d="M 0.00 0.00 L -89.23 -114.20 L -84.98 -117.40 Z" fill="#5b32ff"/><path d="M 0.00 0.00 L -85.19 -117.25 L -80.83 -120.29 Z" fill="#6232ff"/><path d="M 0.00 0.00 L -81.04 -120.15 L -76.59 -123.04 Z" fill="#6932ff"/><path d="M 0.00 0.00 L -76.80 -122.91 L -72.24 -125.64 Z" fill="#7032ff"/><path d="M 0.00 0.00 L -72.46 -125.51 L -67.82 -128.08 Z" fill="#7632ff"/><path d="M 0.00 0.00 L -68.04 -127.96 L -63.30 -130.37 Z" fill="#7d32ff"/><path d="M 0.00 0.00 L -63.53 -130.26 L -58.72 -132.50 Z" fill="#8432ff"/><path d="M 0.00 0.00 L -58.95 -132.40 L -54.06 -134.47 Z" fill="#8b32ff"/><path d="M 0.00 0.00 L -54.29 -134.37 L -49.33 -136.27 Z" fill="#9232ff"/><path d="M 0.00 0.00 L -49.57 -136.19 L -44.54 -137.91 Z" fill="#9932ff"/><path d="M 0.00 0.00 L -44.79 -137.83 L -39.70 -139.38 Z" fill="#9f32ff"/><path d="M 0.00 0.00 L -39.95 -139.31 L -34.82 -140.68 Z" fill="#a632ff"/><path d="M 0.00 0.00 L -35.06 -140.62 L -29.88 -141.81 Z" fill="#ad32ff"/><path d="M 0.00 0.00 L -30.13 -141.76 L -24.92 -142.77 Z" fill="#b432ff"/><path d="M 0.00 0.00 L -25.17 -142.73 L -19.92 -143.55 Z" fill="#bb32ff"/><path d="M 0.00 0.00 L -20.17 -143.52 L -14.90 -144.16 Z" fill="#c132ff"/><path d="M 0.00 0.00 L -15.15 -144.13 L -9.86 -144.59 Z" fill="#c832ff"/><path d="M 0.00 0.00 L -10.11 -144.57 L -4.81 -144.85 Z" fill="#cf32ff"/><path d="M 0.00 0.00 L -5.06 -144.84 L 0.25 -144.93 Z" fill="#d632ff"/><path d="M 0.00 0.00 L 0.00 -144.93 L 5.31 -144.83 Z" fill="#dd32ff"/><path d="M 0.00 0.00 L 5.06 -144.84 L 10.36 -144.56 Z" fill="#e332ff"/><path d="M 0.00 0.00 L 10.11 -144.57 L 15.40 -144.11 Z" fill="#ea32ff"/><path d="M 0.00 0.00 L 15.15 -144.13 L 20.42 -143.48 Z" fill="#f132ff"/><path d="M 0.00 0.00 L 20.17 -143.52 L 25.42 -142.68 Z" fill="#f832ff"/><path d="M 0.00 0.00 L 25.17 -142.73 L 30.38 -141.71 Z" fill="#ff32ff"/><path d="M 0.00 0.00 L 30.13 -141.76 L 35.31 -140.56 Z" fill="#ff32f8"/><path d="M 0.00 0.00 L 35.06 -140.62 L 40.19 -139.24 Z" fill="#ff32f1"/><path d="M 0.00 0.00 L 39.95 -139.31 L 45.03 -137.76 Z" fill="#ff32ea"/><path d="M 0.00 0.00 L 44.79 -137.83 L 49.81 -136.10 Z" fill="#ff32e3"/><path d="M 0.00 0.00 L 49.57 -136.19 L 54.53 -134.28 Z" fill="#ff32dc"/><path d="M 0.00 0.00 L 54.29 -134.37 L 59.18 -132.29 Z" fill="#ff32d6"/><path d="M 0.00 0.00 L 58.95 -132.40 L 63.76 -130.15 Z" fill="#ff32cf"/><path d="M 0.00 0.00 L 63.53 -130.26 L 68.26 -127.84 Z" fill="#ff32c8"/><path d="M 0.00 0.00 L 68.04 -127.96 L 72.68 -125.38 Z" fill="#ff32c1"/><path d="M 0.00 0.00 L 72.46 -125.51 L 77.01 -122.77 Z" fill="#ff32bb"/><path d="M 0.00 0.00 L 76.80 -122.91 L 81.25 -120.01 Z" fill="#ff32b4"/><path d="M 0.00 0.00 L 81.04 -120.15 L 85.39 -117.10 Z" fill="#ff32ad"/><path d="M 0.00 0.00 L 85.19 -117.25 L 89.43 -114.05 Z" fill="#ff32a6"/><path d="M 0.00 0.00 L 89.23 -114.20 L 93.35 -110.86 Z" fill="#ff329f"/><path d="M 0.00 0.00 L 93.16 -111.02 L 97.16 -107.53 Z" fill="#ff3299"/><path d="M 0.00 0.00 L 96.98 -107.70 L 100.86 -104.08 Z" fill="#ff3292"/><path d="M 0.00 0.00 L 100.68 -104.25 L 104.43 -100.49 Z" fill="#ff328b"/><path d="M 0.00 0.00 L 104.25 -100.68 L 107.87 -96.79 Z" fill="#ff3284"/><path d="M 0.00 0.00 L 107.70 -96.98 L 111.18 -92.96 Z" fill="#ff327d"/><path d="M 0.00 0.00 L 111.02 -93.16 L 114.36 -89.03 Z" fill="#ff3277"/><path d="M 0.00 0.00 L 114.20 -89.23 L 117.40 -84.98 Z" fill="#ff3270"/><path d="M 0.00 0.00 L 117.25 -85.19 L 120.29 -80.83 Z" fill="#ff3269"/><path d="M 0.00 0.00 L 120.15 -81.04 L 123.04 -76.59 Z" fill="#ff3262"/><path d="M 0.00 0.00 L 122.91 -76.80 L 125.64 -72.24 Z" fill="#ff325b"/><path d="M 0.00 0.00 L 125.51 -72.46 L 128.08 -67.82 Z" fill="#ff3255"/><path d="M 0.00 0.00 L 127.96 -68.04 L 130.37 -63.30 Z" fill="#ff324e"/><path d="M 0.00 0.00 L 130.26 -63.53 L 132.50 -58.72 Z" fill="#ff3247"/><path d="M 0.00 0.00 L 132.40 -58.95 L 134.47 -54.06 Z" fill="#ff3240"/><path d="M 0.00 0.00 L 134.37 -54.29 L 136.27 -49.33 Z" fill="#ff3239"/><path d="M 0.00 0.00 L 48.50 40.69 L 45.94 42.84 Z" fill="#ff3232" stroke="#ff3232" stroke-width="0.5"/><path d="M 0.00 0.00 L 45.94 42.84 L 42.65 44.17 Z" fill="#ff3d32" stroke="#ff3d32" stroke-width="0.5"/><path d="M 0.00 0.00 L 42.65 44.17 L 38.83 44.67 Z" fill="#ff4732" stroke="#ff4732" stroke-width="0.5"/><path d="M 0.00 0.00 L 38.83 44.67 L 34.72 44.44 Z" fill="#ff5132" stroke="#ff5132" stroke-width="0.5"/><path d="M 0.00 0.00 L 34.72 44.44 L 30.58 43.67 Z" fill="#ff5b32" stroke="#ff5b32" stroke-width="0.5"/><path d="M 0.00 0.00 L 30.58 43.67 L 26.61 42.59 Z" fill="#ff6532" stroke="#ff6532" stroke-width="0.5"/><path d="M 0.00 0.00 L 26.61 42.59 L 22.99 41.48 Z" fill="#ff7032" stroke="#ff7032" stroke-width="0.5"/><path d="M 0.00 0.00 L 22.99 41.48 L 19.82 40.64 Z" fill="#ff7a32" stroke="#ff7a32" stroke-width="0.5"/><path d="M 0.00 0.00 L 19.82 40.64 L 17.11 40.31 Z" fill="#ff8432" stroke="#ff8432" stroke-width="0.5"/><path d="M 0.00 0.00 L 17.11 40.31 L 14.81 40.70 Z" fill="#ff8e32" stroke="#ff8e32" stroke-width="0.5"/><path d="M 0.00 0.00 L 14.81 40.70 L 12.80 41.88 Z" fill="#ff9932" stroke="#ff9932" stroke-width="0.5"/><path d="M 0.00 0.00 L 12.80 41.88 L 10.94 43.87 Z" fill="#ffa332" stroke="#ffa332" stroke-width="0.5"/><path d="M 0.00 0.00 L 10.94 43.87 L 9.05 46.56 Z" fill="#ffad32" stroke="#ffad32" stroke-width="0.5"/><path d="M 0.00 0.00 L 9.05 46.56 L 6.99 49.73 Z" fill="#ffb732" stroke="#ffb732" stroke-width="0.5"/><path d="M 0.00 0.00 L 6.99 49.73 L 4.65 53.10 Z" fill="#ffc132" stroke="#ffc132" stroke-width="0.5"/><path d="M 0.00 0.00 L 4.65 53.10 L 1.97 56.36 Z" fill="#ffcc32" stroke="#ffcc32" stroke-width="0.5"/><path d="M 0.00 0.00 L 1.97 56.36 L -1.03 59.18 Z" fill="#ffd632" stroke="#ffd632" stroke-width="0.5"/><path d="M 0.00 0.00 L -1.03 59.18 L -4.28 61.25 Z" fill="#ffe032" stroke="#ffe032" stroke-width="0.5"/><path d="M 0.00 0.00 L -4.28 61.25 L -7.66 62.35 Z" fill="#ffea32" stroke="#ffea32" stroke-width="0.5"/><path d="M 0.00 0.00 L -7.66 62.35 L -10.99 62.35 Z" fill="#fff432" stroke="#fff432" stroke-width="0.5"/><path d="M 0.00 0.00 L -10.99 62.35 L -14.13 61.21 Z" fill="#ffff32" stroke="#ffff32" stroke-width="0.5"/><path d="M 0.00 0.00 L -14.13 61.21 L -16.92 59.02 Z" fill="#f4ff32" stroke="#f4ff32" stroke-width="0.5"/><path d="M 0.00 0.00 L -16.92 59.02 L -19.27 55.96 Z" fill="#eaff32" stroke="#eaff32" stroke-width="0.5"/><path d="M 0.00 0.00 L -19.27 55.96 L -21.13 52.29 Z" fill="#e0ff32" stroke="#e0ff32" stroke-width="0.5"/><path d="M 0.00 0.00 L -21.13 52.29 L -22.53 48.31 Z" fill="#d6ff32" stroke="#d6ff32" stroke-width="0.5"/><path d="M 0.00 0.00 L -22.53 48.31 L -23.58 44.34 Z" fill="#ccff32" stroke="#ccff32" stroke-width="0.5"/><path d="M 0.00 0.00 L -23.58 44.34 L -24.43 40.65 Z" fill="#c1ff32" stroke="#c1ff32" stroke-width="0.5"/><path d="M 0.00 0.00 L -24.43 40.65 L -25.29 37.49 Z" fill="#b7ff32" stroke="#b7ff32" stroke-width="0.5"/><path d="M 0.00 0.00 L -25.29 37.49 L -26.36 34.98 Z" fill="#adff32" stroke="#adff32" stroke-width="0.5"/><path d="M 0.00 0.00 L -26.36 34.98 L -27.84 33.18 Z" fill="#a3ff32" stroke="#a3ff32" stroke-width="0.5"/><path d="M 0.00 0.00 L -27.84 33.18 L -29.87 32.03 Z" fill="#99ff32" stroke="#99ff32" stroke-width="0.5"/><path d="M 0.00 0.00 L -29.87 32.03 L -32.53 31.41 Z" fill="#8eff32" stroke="#8eff32" stroke-width="0.5"/><path d="M 0.00 0.00 L -32.53 31.41 L -35.80 31.12 Z" fill="#84ff32" stroke="#84ff32" stroke-width="0.5"/><path d="M 0.00 0.00 L -35.80 31.12 L -39.57 30.92 Z" fill="#7aff32" stroke="#7aff32" stroke-width="0.5"/><path d="M 0.00 0.00 L -39.57 30.92 L -43.67 30.58 Z" fill="#70ff32" stroke="#70ff32" stroke-width="0.5"/><path d="M 0.00 0.00 L -43.67 30.58 L -47.83 29.89 Z" fill="#65ff32" stroke="#65ff32" stroke-width="0.5"/><path d="M 0.00 0.00 L -47.83 29.89 L -51.76 28.69 Z" fill="#5bff32" stroke="#5bff32" stroke-width="0.5"/><path d="M 0.00 0.00 L -51.76 28.69 L -55.18 26.91 Z" fill="#51ff32" stroke="#51ff32" stroke-width="0.5"/><path d="M 0.00 0.00 L -55.18 26.91 L -57.82 24.54 Z" fill="#47ff32" stroke="#47ff32" stroke-width="0.5"/><path d="M 0.00 0.00 L -57.82 24.54 L -59.49 21.65 Z" fill="#3dff32" stroke="#3dff32" stroke-width="0.5"/><path d="M 0.00 0.00 L -59.49 21.65 L -60.07 18.37 Z" fill="#32ff32" stroke="#32ff32" stroke-width="0.5"/><path d="M 0.00 0.00 L -60.07 18.37 L -59.57 14.85 Z" fill="#32ff3d" stroke="#32ff3d" stroke-width="0.5"/><path d="M 0.00 0.00 L -59.57 14.85 L -58.10 11.29 Z" fill="#32ff47" stroke="#32ff47" stroke-width="0.5"/><path d="M 0.00 0.00 L -58.10 11.29 L -55.85 7.85 Z" fill="#32ff51" stroke="#32ff51" stroke-width="0.5"/><path d="M 0.00 0.00 L -55.85 7.85 L -53.10 4.65 Z" fill="#32ff5b" stroke="#32ff5b" stroke-width="0.5"/><path d="M 0.00 0.00 L -53.10 4.65 L -50.19 1.75 Z" fill="#32ff65" stroke="#32ff65" stroke-width="0.5"/><path d="M 0.00 0.00 L -50.19 1.75 L -47.42 -0.83 Z" fill="#32ff70" stroke="#32ff70" stroke-width="0.5"/><path d="M 0.00 0.00 L -47.42 -0.83 L -45.11 -3.15 Z" fill="#32ff7a" stroke="#32ff7a" stroke-width="0.5"/><path d="M 0.00 0.00 L -45.11 -3.15 L -43.47 -5.34 Z" fill="#32ff84" stroke="#32ff84" stroke-width="0.5"/><path d="M 0.00 0.00 L -43.47 -5.34 L -42.65 -7.52 Z" fill="#32ff8e" stroke="#32ff8e" stroke-width="0.5"/><path d="M 0.00 0.00 L -42.65 -7.52 L -42.67 -9.85 Z" fill="#32ff99" stroke="#32ff99" stroke-width="0.5"/><path d="M 0.00 0.00 L -42.67 -9.85 L -43.47 -12.46 Z" fill="#32ffa3" stroke="#32ffa3" stroke-width="0.5"/><path d="M 0.00 0.00 L -43.47 -12.46 L -44.85 -15.44 Z" fill="#32ffad" stroke="#32ffad" stroke-width="0.5"/><path d="M 0.00 0.00 L -44.85 -15.44 L -46.56 -18.81 Z" fill="#32ffb7" stroke="#32ffb7" stroke-width="0.5"/><path d="M 0.00 0.00 L -46.56 -18.81 L -48.31 -22.53 Z" fill="#32ffc1" stroke="#32ffc1" stroke-width="0.5"/><path d="M 0.00 0.00 L -48.31 -22.53 L -49.80 -26.48 Z" fill="#32ffcc" stroke="#32ffcc" stroke-width="0.5"/><path d="M 0.00 0.00 L -49.80 -26.48 L -50.73 -30.48 Z" fill="#32ffd6" stroke="#32ffd6" stroke-width="0.5"/><path d="M 0.00 0.00 L -50.73 -30.48 L -50.90 -34.33 Z" fill="#32ffe0" stroke="#32ffe0" stroke-width="0.5"/><path d="M 0.00 0.00 L -50.90 -34.33 L -50.17 -37.80 Z" fill="#32ffea" stroke="#32ffea" stroke-width="0.5"/><path d="M 0.00 0.00 L -50.17 -37.80 L -48.50 -40.69 Z" fill="#32fff4" stroke="#32fff4" stroke-width="0.5"/><path d="M 0.00 0.00 L -48.50 -40.69 L -45.94 -42.84 Z" fill="#32ffff" stroke="#32ffff" stroke-width="0.5"/><path d="M 0.00 0.00 L -45.94 -42.84 L -42.65 -44.17 Z" fill="#32f4ff" stroke="#32f4ff" stroke-width="0.5"/><path d="M 0.00 0.00 L -42.65 -44.17 L -38.83 -44.67 Z" fill="#32eaff" stroke="#32eaff" stroke-width="0.5"/><path d="M 0.00 0.00 L -38.83 -44.67 L -34.72 -44.44 Z" fill="#32e0ff" stroke="#32e0ff" stroke-width="0.5"/><path d="M 0.00 0.00 L -34.72 -44.44 L -30.58 -43.67 Z" fill="#32d6ff" stroke="#32d6ff" stroke-width="0.5"/><path d="M 0.00 0.00 L -30.58 -43.67 L -26.61 -42.59 Z" fill="#32ccff" stroke="#32ccff" stroke-width="0.5"/><path d="M 0.00 0.00 L -26.61 -42.59 L -22.99 -41.48 Z" fill="#32c1ff" stroke="#32c1ff" stroke-width="0.5"/><path d="M 0.00 0.00 L -22.99 -41.48 L -19.82 -40.64 Z" fill="#32b7ff" stroke="#32b7ff" stroke-width="0.5"/><path d="M 0.00 0.00 L -19.82 -40.64 L -17.11 -40.31 Z" fill="#32adff" stroke="#32adff" stroke-width="0.5"/><path d="M 0.00 0.00 L -17.11 -40.31 L -14.81 -40.70 Z" fill="#32a3ff" stroke="#32a3ff" stroke-width="0.5"/><path d="M 0.00 0.00 L -14.81 -40.70 L -12.80 -41.88 Z" fill="#3299ff" stroke="#3299ff" stroke-width="0.5"/><path d="M 0.00 0.00 L -12.80 -41.88 L -10.94 -43.87 Z" fill="#328eff" stroke="#328eff" stroke-width="0.5"/><path d="M 0.00 0.00 L -10.94 -43.87 L -9.05 -46.56 Z" fill="#3284ff" stroke="#3284ff" stroke-width="0.5"/><path d="M 0.00 0.00 L -9.05 -46.56 L -6.99 -49.73 Z" fill="#327aff" stroke="#327aff" stroke-width="0.5"/><path d="M 0.00 0.00 L -6.99 -49.73 L -4.65 -53.10 Z" fill="#3270ff" stroke="#3270ff" stroke-width="0.5"/><path d="M 0.00 0.00 L -4.65 -53.10 L -1.97 -56.36 Z" fill="#3265ff" stroke="#3265ff" stroke-width="0.5"/><path d="M 0.00 0.00 L -1.97 -56.36 L 1.03 -59.18 Z" fill="#325bff" stroke="#325bff" stroke-width="0.5"/><path d="M 0.00 0.00 L 1.03 -59.18 L 4.28 -61.25 Z" fill="#3251ff" stroke="#3251ff" stroke-width="0.5"/><path d="M 0.00 0.00 L 4.28 -61.25 L 7.66 -62.35 Z" fill="#3247ff" stroke="#3247ff" stroke-width="0.5"/><path d="M 0.00 0.00 L 7.66 -62.35 L 10.99 -62.35 Z" fill="#323dff" stroke="#323dff" stroke-width="0.5"/><path d="M 0.00 0.00 L 10.99 -62.35 L 14.13 -61.21 Z" fill="#3232ff" stroke="#3232ff" stroke-width="0.5"/><path d="M 0.00 0.00 L 14.13 -61.21 L 16.92 -59.02 Z" fill="#3d32ff" stroke="#3d32ff" stroke-width="0.5"/><path d="M 0.00 0.00 L 16.92 -59.02 L 19.27 -55.96 Z" fill="#4732ff" stroke="#4732ff" stroke-width="0.5"/><path d="M 0.00 0.00 L 19.27 -55.96 L 21.13 -52.29 Z" fill="#5132ff" stroke="#5132ff" stroke-width="0.5"/><path d="M 0.00 0.00 L 21.13 -52.29 L 22.53 -48.31 Z" fill="#5b32ff" stroke="#5b32ff" stroke-width="0.5"/><path d="M 0.00 0.00 L 22.53 -48.31 L 23.58 -44.34 Z" fill="#6532ff" stroke="#6532ff" stroke-width="0.5"/><path d="M 0.00 0.00 L 23.58 -44.34 L 24.43 -40.65 Z" fill="#7032ff" stroke="#7032ff" stroke-width="0.5"/><path d="M 0.00 0.00 L 24.43 -40.65 L 25.29 -37.49 Z" fill="#7a32ff" stroke="#7a32ff" stroke-width="0.5"/><path d="M 0.00 0.00 L 25.29 -37.49 L 26.36 -34.98 Z" fill="#8432ff" stroke="#8432ff" stroke-width="0.5"/><path d="M 0.00 0.00 L 26.36 -34.98 L 27.84 -33.18 Z" fill="#8e32ff" stroke="#8e32ff" stroke-width="0.5"/><path d="M 0.00 0.00 L 27.84 -33.18 L 29.87 -32.03 Z" fill="#9932ff" stroke="#9932ff" stroke-width="0.5"/><path d="M 0.00 0.00 L 29.87 -32.03 L 32.53 -31.41 Z" fill="#a332ff" stroke="#a332ff" stroke-width="0.5"/><path d="M 0.00 0.00 L 32.53 -31.41 L 35.80 -31.12 Z" fill="#ad32ff" stroke="#ad32ff" stroke-width="0.5"/><path d="M 0.00 0.00 L 35.80 -31.12 L 39.57 -30.92 Z" fill="#b732ff" stroke="#b732ff" stroke-width="0.5"/><path d="M 0.00 0.00 L 39.57 -30.92 L 43.67 -30.58 Z" fill="#c132ff" stroke="#c132ff" stroke-width="0.5"/><path d="M 0.00 0.00 L 43.67 -30.58 L 47.83 -29.89 Z" fill="#cc32ff" stroke="#cc32ff" stroke-width="0.5"/><path d="M 0.00 0.00 L 47.83 -29.89 L 51.76 -28.69 Z" fill="#d632ff" stroke="#d632ff" stroke-width="0.5"/><path d="M 0.00 0.00 L 51.76 -28.69 L 55.18 -26.91 Z" fill="#e032ff" stroke="#e032ff" stroke-width="0.5"/><path d="M 0.00 0.00 L 55.18 -26.91 L 57.82 -24.54 Z" fill="#ea32ff" stroke="#ea32ff" stroke-width="0.5"/><path d="M 0.00 0.00 L 57.82 -24.54 L 59.49 -21.65 Z" fill="#f432ff" stroke="#f432ff" stroke-width="0.5"/><path d="M 0.00 0.00 L 59.49 -21.65 L 60.07 -18.37 Z" fill="#ff32ff" stroke="#ff32ff" stroke-width="0.5"/><path d="M 0.00 0.00 L 60.07 -18.37 L 59.57 -14.85 Z" fill="#ff32f4" stroke="#ff32f4" stroke-width="0.5"/><path d="M 0.00 0.00 L 59.57 -14.85 L 58.10 -11.29 Z" fill="#ff32ea" stroke="#ff32ea" stroke-width="0.5"/><path d="M 0.00 0.00 L 58.10 -11.29 L 55.85 -7.85 Z" fill="#ff32e0" stroke="#ff32e0" stroke-width="0.5"/><path d="M 0.00 0.00 L 55.85 -7.85 L 53.10 -4.65 Z" fill="#ff32d6" stroke="#ff32d6" stroke-width="0.5"/><path d="M 0.00 0.00 L 53.10 -4.65 L 50.19 -1.75 Z" fill="#ff32cc" stroke="#ff32cc" stroke-width="0.5"/><path d="M 0.00 0.00 L 50.19 -1.75 L 47.42 0.83 Z" fill="#ff32c1" stroke="#ff32c1" stroke-width="0.5"/><path d="M 0.00 0.00 L 47.42 0.83 L 45.11 3.15 Z" fill="#ff32b7" stroke="#ff32b7" stroke-width="0.5"/><path d="M 0.00 0.00 L 45.11 3.15 L 43.47 5.34 Z" fill="#ff32ad" stroke="#ff32ad" stroke-width="0.5"/><path d="M 0.00 0.00 L 43.47 5.34 L 42.65 7.52 Z" fill="#ff32a3" stroke="#ff32a3" stroke-width="0.5"/><path d="M 0.00 0.00 L 42.65 7.52 L 42.67 9.85 Z" fill="#ff3299" stroke="#ff3299" stroke-width="0.5"/><path d="M 0.00 0.00 L 42.67 9.85 L 43.47 12.46 Z" fill="#ff328e" stroke="#ff328e" stroke-width="0.5"/><path d="M 0.00 0.00 L 43.47 12.46 L 44.85 15.44 Z" fill="#ff3284" stroke="#ff3284" stroke-width="0.5"/><path d="M 0.00 0.00 L 44.85 15.44 L 46.56 18.81 Z" fill="#ff327a" stroke="#ff327a" stroke-width="0.5"/><path d="M 0.00 0.00 L 46.56 18.81 L 48.31 22.53 Z" fill="#ff3270" stroke="#ff3270" stroke-width="0.5"/><path d="M 0.00 0.00 L 48.31 22.53 L 49.80 26.48 Z" fill="#ff3265" stroke="#ff3265" stroke-width="0.5"/><path d="M 0.00 0.00 L 49.80 26.48 L 50.73 30.48 Z" fill="#ff325b" stroke="#ff325b" stroke-width="0.5"/><path d="M 0.00 0.00 L 50.73 30.48 L 50.90 34.33 Z" fill="#ff3251" stroke="#ff3251" stroke-width="0.5"/><path d="M 0.00 0.00 L 50.90 34.33 L 50.17 37.80 Z" fill="#ff3247" stroke="#ff3247" stroke-width="0.5"/><path d="M 0.00 0.00 L 50.17 37.80 L 48.50 40.69 Z" fill="#ff323d" stroke="#ff323d" stroke-width="0.5"/></g><path d="M 48.50,40.69 L 45.94,42.84 L 42.65,44.17 L 38.83,44.67 L 34.72,44.44 L 30.58,43.67 L 26.61,42.59 L 22.99,41.48 L 19.82,40.64 L 17.11,40.31 L 14.81,40.70 L 12.80,41.88 L 10.94,43.87 L 9.05,46.56 L 6.99,49.73 L 4.65,53.10 L 1.97,56.36 L -1.03,59.18 L -4.28,61.25 L -7.66,62.35 L -10.99,62.35 L -14.13,61.21 L -16.92,59.02 L -19.27,55.96 L -21.13,52.29 L -22.53,48.31 L -23.58,44.34 L -24.43,40.65 L -25.29,37.49 L -26.36,34.98 L -27.84,33.18 L -29.87,32.03 L -32.53,31.41 L -35.80,31.12 L -39.57,30.92 L -43.67,30.58 L -47.83,29.89 L -51.76,28.69 L -55.18,26.91 L -57.82,24.54 L -59.49,21.65 L -60.07,18.37 L -59.57,14.85 L -58.10,11.29 L -55.85,7.85 L -53.10,4.65 L -50.19,1.75 L -47.42,-0.83 L -45.11,-3.15 L -43.47,-5.34 L -42.65,-7.52 L -42.67,-9.85 L -43.47,-12.46 L -44.85,-15.44 L -46.56,-18.81 L -48.31,-22.53 L -49.80,-26.48 L -50.73,-30.48 L -50.90,-34.33 L -50.17,-37.80 L -48.50,-40.69 L -45.94,-42.84 L -42.65,-44.17 L -38.83,-44.67 L -34.72,-44.44 L -30.58,-43.67 L -26.61,-42.59 L -22.99,-41.48 L -19.82,-40.64 L -17.11,-40.31 L -14.81,-40.70 L -12.80,-41.88 L -10.94,-43.87 L -9.05,-46.56 L -6.99,-49.73 L -4.65,-53.10 L -1.97,-56.36 L 1.03,-59.18 L 4.28,-61.25 L 7.66,-62.35 L 10.99,-62.35 L 14.13,-61.21 L 16.92,-59.02 L 19.27,-55.96 L 21.13,-52.29 L 22.53,-48.31 L 23.58,-44.34 L 24.43,-40.65 L 25.29,-37.49 L 26.36,-34.98 L 27.84,-33.18 L 29.87,-32.03 L 32.53,-31.41 L 35.80,-31.12 L 39.57,-30.92 L 43.67,-30.58 L 47.83,-29.89 L 51.76,-28.69 L 55.18,-26.91 L 57.82,-24.54 L 59.49,-21.65 L 60.07,-18.37 L 59.57,-14.85 L 58.10,-11.29 L 55.85,-7.85 L 53.10,-4.65 L 50.19,-1.75 L 47.42,0.83 L 45.11,3.15 L 43.47,5.34 L 42.65,7.52 L 42.67,9.85 L 43.47,12.46 L 44.85,15.44 L 46.56,18.81 L 48.31,22.53 L 49.80,26.48 L 50.73,30.48 L 50.90,34.33 L 50.17,37.80 L 48.50,40.69 Z" stroke="#000000" stroke-width="2" fill="none"/></g></svg>