<svg width="800" height="800" viewBox="0 0 839.3 839.3" xmlns="http://www.w3.org/2000/svg"><circle cx="409.57" cy="397.71" r="205.70" fill="none" stroke="#000000" stroke-width="24.00"/><path d="M 302.72,212.64 A 244.44,244.44 0 0 1 369.13,65.46" fill="none" stroke="#000000" stroke-width="19.43" stroke-linecap="round"/><path d="M 326.76,200.71 A 244.44,244.44 0 0 1 438.07,43.88" fill="none" stroke="#000000" stroke-width="19.43" stroke-linecap="round"/><path d="M 352.10,191.89 A 244.44,244.44 0 0 1 444.11,71.70" fill="none" stroke="#000000" stroke-width="19.43" stroke-linecap="round"/><path d="M 378.35,186.31 A 244.44,244.44 0 0 1 451.19,99.51" fill="none" stroke="#000000" stroke-width="19.43" stroke-linecap="round"/><path d="M 405.10,184.06 A 244.44,244.44 0 0 1 465.01,121.95" fill="none" stroke="#000000" stroke-width="19.43" stroke-linecap="round"/><path d="M 431.91,185.18 A 244.44,244.44 0 0 1 585.77,103.04" fill="none" stroke="#000000" stroke-width="19.43" stroke-linecap="round"/><path d="M 458.37,189.66 A 244.44,244.44 0 0 1 595.16,128.84" fill="none" stroke="#000000" stroke-width="19.43" stroke-linecap="round"/><path d="M 484.06,197.42 A 244.44,244.44 0 0 1 561.13,162.11" fill="none" stroke="#000000" stroke-width="19.43" stroke-linecap="round"/><path d="M 508.58,208.33 A 244.44,244.44 0 0 1 562.60,188.01" fill="none" stroke="#000000" stroke-width="19.43" stroke-linecap="round"/><path d="M 531.53,222.23 A 244.44,244.44 0 0 1 567.95,211.96" fill="none" stroke="#000000" stroke-width="19.43" stroke-linecap="round"/><path d="M 552.56,238.90 A 244.44,244.44 0 0 1 670.21,240.81" fill="none" stroke="#000000" stroke-width="19.43" stroke-linecap="round"/><path d="M 571.34,258.08 A 244.44,244.44 0 0 1 826.63,420.15" fill="none" stroke="#000000" stroke-width="19.43" stroke-linecap="round"/><path d="M 587.56,279.45 A 244.44,244.44 0 0 1 781.10,382.58" fill="none" stroke="#000000" stroke-width="19.43" stroke-linecap="round"/><path d="M 600.98,302.69 A 244.44,244.44 0 0 1 690.66,335.06" fill="none" stroke="#000000" stroke-width="19.43" stroke-linecap="round"/><path d="M 611.38,327.43 A 244.44,244.44 0 0 1 682.04,360.35" fill="none" stroke="#000000" stroke-width="19.43" stroke-linecap="round"/><path d="M 618.60,353.28 A 244.44,244.44 0 0 1 663.92,378.50" fill="none" stroke="#000000" stroke-width="19.43" stroke-linecap="round"/><path d="M 622.52,379.83 A 244.44,244.44 0 0 1 741.33,627.14" fill="none" stroke="#000000" stroke-width="19.43" stroke-linecap="round"/><path d="M 623.08,406.66 A 244.44,244.44 0 0 1 701.98,690.62" fill="none" stroke="#000000" stroke-width="19.43" stroke-linecap="round"/><path d="M 620.28,433.35 A 244.44,244.44 0 0 1 663.66,491.12" fill="none" stroke="#000000" stroke-width="19.43" stroke-linecap="round"/><path d="M 614.15,459.48 A 244.44,244.44 0 0 1 651.19,525.51" fill="none" stroke="#000000" stroke-width="19.43" stroke-linecap="round"/><path d="M 604.79,484.63 A 244.44,244.44 0 0 1 591.84,755.82" fill="none" stroke="#000000" stroke-width="19.43" stroke-linecap="round"/><path d="M 592.36,508.41 A 244.44,244.44 0 0 1 524.45,795.46" fill="none" stroke="#000000" stroke-width="19.43" stroke-linecap="round"/><path d="M 577.04,530.45 A 244.44,244.44 0 0 1 583.80,559.45" fill="none" stroke="#000000" stroke-width="19.43" stroke-linecap="round"/><path d="M 559.09,550.39 A 244.44,244.44 0 0 1 544.01,683.27" fill="none" stroke="#000000" stroke-width="19.43" stroke-linecap="round"/><path d="M 538.77,567.93 A 244.44,244.44 0 0 1 516.66,679.29" fill="none" stroke="#000000" stroke-width="19.43" stroke-linecap="round"/><path d="M 516.42,582.78 A 244.44,244.44 0 0 1 512.18,611.49" fill="none" stroke="#000000" stroke-width="19.43" stroke-linecap="round"/><path d="M 492.38,594.71 A 244.44,244.44 0 0 1 479.40,636.34" fill="none" stroke="#000000" stroke-width="19.43" stroke-linecap="round"/><path d="M 467.04,603.54 A 244.44,244.44 0 0 1 445.84,648.51" fill="none" stroke="#000000" stroke-width="19.43" stroke-linecap="round"/><path d="M 440.79,609.11 A 244.44,244.44 0 0 1 366.96,696.65" fill="none" stroke="#000000" stroke-width="19.43" stroke-linecap="round"/><path d="M 414.05,611.36 A 244.44,244.44 0 0 1 272.21,712.01" fill="none" stroke="#000000" stroke-width="19.43" stroke-linecap="round"/><path d="M 387.23,610.24 A 244.44,244.44 0 0 1 148.95,688.32" fill="none" stroke="#000000" stroke-width="19.43" stroke-linecap="round"/><path d="M 360.77,605.76 A 244.44,244.44 0 0 1 49.53,617.84" fill="none" stroke="#000000" stroke-width="19.43" stroke-linecap="round"/><path d="M 335.08,598.00 A 244.44,244.44 0 0 1 25.18,571.37" fill="none" stroke="#000000" stroke-width="19.43" stroke-linecap="round"/><path d="M 310.57,587.09 A 244.44,244.44 0 0 1 12.71,529.43" fill="none" stroke="#000000" stroke-width="19.43" stroke-linecap="round"/><path d="M 287.61,573.19 A 244.44,244.44 0 0 1 134.98,578.51" fill="none" stroke="#000000" stroke-width="19.43" stroke-linecap="round"/><path d="M 266.58,556.52 A 244.44,244.44 0 0 1 111.38,541.30" fill="none" stroke="#000000" stroke-width="19.43" stroke-linecap="round"/><path d="M 247.80,537.34 A 244.44,244.44 0 0 1 168.97,532.53" fill="none" stroke="#000000" stroke-width="19.43" stroke-linecap="round"/><path d="M 231.58,515.97 A 244.44,244.44 0 0 1 192.51,511.86" fill="none" stroke="#000000" stroke-width="19.43" stroke-linecap="round"/><path d="M 218.16,492.73 A 244.44,244.44 0 0 1 181.93,484.39" fill="none" stroke="#000000" stroke-width="19.43" stroke-linecap="round"/><path d="M 207.76,467.99 A 244.44,244.44 0 0 1 158.48,448.03" fill="none" stroke="#000000" stroke-width="19.43" stroke-linecap="round"/><path d="M 200.54,442.14 A 244.44,244.44 0 0 1 174.83,429.40" fill="none" stroke="#000000" stroke-width="19.43" stroke-linecap="round"/><path d="M 196.62,415.59 A 244.44,244.44 0 0 1 145.20,375.62" fill="none" stroke="#000000" stroke-width="19.43" stroke-linecap="round"/><path d="M 196.06,388.76 A 244.44,244.44 0 0 1 107.18,253.02" fill="none" stroke="#000000" stroke-width="19.43" stroke-linecap="round"/><path d="M 198.87,362.07 A 244.44,244.44 0 0 1 126.66,170.92" fill="none" stroke="#000000" stroke-width="19.43" stroke-linecap="round"/><path d="M 205.00,335.95 A 244.44,244.44 0 0 1 158.44,131.90" fill="none" stroke="#000000" stroke-width="19.43" stroke-linecap="round"/><path d="M 214.35,310.79 A 244.44,244.44 0 0 1 180.58,161.26" fill="none" stroke="#000000" stroke-width="19.43" stroke-linecap="round"/><path d="M 226.78,287.01 A 244.44,244.44 0 0 1 206.93,209.74" fill="none" stroke="#000000" stroke-width="19.43" stroke-linecap="round"/><path d="M 242.10,264.97 A 244.44,244.44 0 0 1 231.92,192.85" fill="none" stroke="#000000" stroke-width="19.43" stroke-linecap="round"/><path d="M 260.06,245.03 A 244.44,244.44 0 0 1 257.51,186.15" fill="none" stroke="#000000" stroke-width="19.43" stroke-linecap="round"/><path d="M 280.37,227.50 A 244.44,244.44 0 0 1 280.42,207.56" fill="none" stroke="#000000" stroke-width="19.43" stroke-linecap="round"/><path d="M 306.72,219.57 A 205.70,205.70 0 0,1 318.11,213.47" fill="none" stroke="#ff3232" stroke-width="18.00"/><path d="M 316.19,214.43 A 205.70,205.70 0 0,1 327.88,208.93" fill="none" stroke="#ff3d32" stroke-width="18.00"/><path d="M 325.91,209.80 A 205.70,205.70 0 0,1 337.87,204.92" fill="none" stroke="#ff4732" stroke-width="18.00"/><path d="M 335.86,205.68 A 205.70,205.70 0 0,1 348.06,201.43" fill="none" stroke="#ff5132" stroke-width="18.00"/><path d="M 346.01,202.08 A 205.70,205.70 0 0,1 358.42,198.48" fill="none" stroke="#ff5b32" stroke-width="18.00"/><path d="M 356.33,199.02 A 205.70,205.70 0 0,1 368.91,196.07" fill="none" stroke="#ff6532" stroke-width="18.00"/><path d="M 366.80,196.51 A 205.70,205.70 0 0,1 379.52,194.22" fill="none" stroke="#ff7032" stroke-width="18.00"/><path d="M 377.39,194.55 A 205.70,205.70 0 0,1 390.21,192.93" fill="none" stroke="#ff7a32" stroke-width="18.00"/><path d="M 388.07,193.14 A 205.70,205.70 0 0,1 400.96,192.19" fill="none" stroke="#ff8432" stroke-width="18.00"/><path d="M 398.81,192.30 A 205.70,205.70 0 0,1 411.73,192.03" fill="none" stroke="#ff8e32" stroke-width="18.00"/><path d="M 409.57,192.01 A 205.70,205.70 0 0,1 422.49,192.42" fill="none" stroke="#ff9932" stroke-width="18.00"/><path d="M 420.34,192.30 A 205.70,205.70 0 0,1 433.21,193.38" fill="none" stroke="#ffa332" stroke-width="18.00"/><path d="M 431.07,193.14 A 205.70,205.70 0 0,1 443.88,194.89" fill="none" stroke="#ffad32" stroke-width="18.00"/><path d="M 441.75,194.55 A 205.70,205.70 0 0,1 454.44,196.97" fill="none" stroke="#ffb732" stroke-width="18.00"/><path d="M 452.34,196.51 A 205.70,205.70 0 0,1 464.89,199.59" fill="none" stroke="#ffc132" stroke-width="18.00"/><path d="M 462.81,199.02 A 205.70,205.70 0 0,1 475.18,202.76" fill="none" stroke="#ffcc32" stroke-width="18.00"/><path d="M 473.13,202.08 A 205.70,205.70 0 0,1 485.29,206.46" fill="none" stroke="#ffd632" stroke-width="18.00"/><path d="M 483.29,205.68 A 205.70,205.70 0 0,1 495.20,210.68" fill="none" stroke="#ffe032" stroke-width="18.00"/><path d="M 493.24,209.80 A 205.70,205.70 0 0,1 504.87,215.42" fill="none" stroke="#ffea32" stroke-width="18.00"/><path d="M 502.96,214.43 A 205.70,205.70 0 0,1 514.28,220.66" fill="none" stroke="#fff432" stroke-width="18.00"/><path d="M 512.42,219.57 A 205.70,205.70 0 0,1 523.40,226.38" fill="none" stroke="#ffff32" stroke-width="18.00"/><path d="M 521.60,225.20 A 205.70,205.70 0 0,1 532.21,232.57" fill="none" stroke="#f4ff32" stroke-width="18.00"/><path d="M 530.48,231.30 A 205.70,205.70 0 0,1 540.69,239.22" fill="none" stroke="#eaff32" stroke-width="18.00"/><path d="M 539.02,237.85 A 205.70,205.70 0 0,1 548.80,246.30" fill="none" stroke="#e0ff32" stroke-width="18.00"/><path d="M 547.21,244.85 A 205.70,205.70 0 0,1 556.54,253.79" fill="none" stroke="#d6ff32" stroke-width="18.00"/><path d="M 555.02,252.26 A 205.70,205.70 0 0,1 563.87,261.68" fill="none" stroke="#ccff32" stroke-width="18.00"/><path d="M 562.43,260.07 A 205.70,205.70 0 0,1 570.77,269.94" fill="none" stroke="#c1ff32" stroke-width="18.00"/><path d="M 569.43,268.26 A 205.70,205.70 0 0,1 577.24,278.55" fill="none" stroke="#b7ff32" stroke-width="18.00"/><path d="M 575.98,276.81 A 205.70,205.70 0 0,1 583.25,287.49" fill="none" stroke="#adff32" stroke-width="18.00"/><path d="M 582.08,285.68 A 205.70,205.70 0 0,1 588.78,296.73" fill="none" stroke="#a3ff32" stroke-width="18.00"/><path d="M 587.71,294.86 A 205.70,205.70 0 0,1 593.82,306.25" fill="none" stroke="#99ff32" stroke-width="18.00"/><path d="M 592.85,304.33 A 205.70,205.70 0 0,1 598.35,316.02" fill="none" stroke="#8eff32" stroke-width="18.00"/><path d="M 597.48,314.05 A 205.70,205.70 0 0,1 602.37,326.01" fill="none" stroke="#84ff32" stroke-width="18.00"/><path d="M 601.61,324.00 A 205.70,205.70 0 0,1 605.86,336.20" fill="none" stroke="#7aff32" stroke-width="18.00"/><path d="M 605.20,334.15 A 205.70,205.70 0 0,1 608.81,346.56" fill="none" stroke="#70ff32" stroke-width="18.00"/><path d="M 608.26,344.47 A 205.70,205.70 0 0,1 611.21,357.05" fill="none" stroke="#65ff32" stroke-width="18.00"/><path d="M 610.77,354.94 A 205.70,205.70 0 0,1 613.06,367.66" fill="none" stroke="#5bff32" stroke-width="18.00"/><path d="M 612.74,365.53 A 205.70,205.70 0 0,1 614.35,378.35" fill="none" stroke="#51ff32" stroke-width="18.00"/><path d="M 614.14,376.21 A 205.70,205.70 0 0,1 615.09,389.10" fill="none" stroke="#47ff32" stroke-width="18.00"/><path d="M 614.99,386.95 A 205.70,205.70 0 0,1 615.26,399.86" fill="none" stroke="#3dff32" stroke-width="18.00"/><path d="M 615.27,397.71 A 205.70,205.70 0 0,1 614.86,410.63" fill="none" stroke="#32ff32" stroke-width="18.00"/><path d="M 614.99,408.48 A 205.70,205.70 0 0,1 613.90,421.35" fill="none" stroke="#32ff3d" stroke-width="18.00"/><path d="M 614.14,419.21 A 205.70,205.70 0 0,1 612.39,432.01" fill="none" stroke="#32ff47" stroke-width="18.00"/><path d="M 612.74,429.89 A 205.70,205.70 0 0,1 610.31,442.58" fill="none" stroke="#32ff51" stroke-width="18.00"/><path d="M 610.77,440.48 A 205.70,205.70 0 0,1 607.69,453.03" fill="none" stroke="#32ff5b" stroke-width="18.00"/><path d="M 608.26,450.95 A 205.70,205.70 0 0,1 604.52,463.32" fill="none" stroke="#32ff65" stroke-width="18.00"/><path d="M 605.20,461.27 A 205.70,205.70 0 0,1 600.82,473.43" fill="none" stroke="#32ff70" stroke-width="18.00"/><path d="M 601.61,471.43 A 205.70,205.70 0 0,1 596.60,483.34" fill="none" stroke="#32ff7a" stroke-width="18.00"/><path d="M 597.48,481.38 A 205.70,205.70 0 0,1 591.86,493.01" fill="none" stroke="#32ff84" stroke-width="18.00"/><path d="M 592.85,491.10 A 205.70,205.70 0 0,1 586.62,502.42" fill="none" stroke="#32ff8e" stroke-width="18.00"/><path d="M 587.71,500.56 A 205.70,205.70 0 0,1 580.90,511.54" fill="none" stroke="#32ff99" stroke-width="18.00"/><path d="M 582.08,509.74 A 205.70,205.70 0 0,1 574.71,520.35" fill="none" stroke="#32ffa3" stroke-width="18.00"/><path d="M 575.98,518.62 A 205.70,205.70 0 0,1 568.06,528.83" fill="none" stroke="#32ffad" stroke-width="18.00"/><path d="M 569.43,527.16 A 205.70,205.70 0 0,1 560.98,536.94" fill="none" stroke="#32ffb7" stroke-width="18.00"/><path d="M 562.43,535.35 A 205.70,205.70 0 0,1 553.49,544.68" fill="none" stroke="#32ffc1" stroke-width="18.00"/><path d="M 555.02,543.16 A 205.70,205.70 0 0,1 545.60,552.01" fill="none" stroke="#32ffcc" stroke-width="18.00"/><path d="M 547.21,550.57 A 205.70,205.70 0 0,1 537.34,558.91" fill="none" stroke="#32ffd6" stroke-width="18.00"/><path d="M 539.02,557.57 A 205.70,205.70 0 0,1 528.73,565.38" fill="none" stroke="#32ffe0" stroke-width="18.00"/><path d="M 530.48,564.12 A 205.70,205.70 0 0,1 519.79,571.39" fill="none" stroke="#32ffea" stroke-width="18.00"/><path d="M 521.60,570.22 A 205.70,205.70 0 0,1 510.55,576.92" fill="none" stroke="#32fff4" stroke-width="18.00"/><path d="M 512.42,575.85 A 205.70,205.70 0 0,1 501.03,581.96" fill="none" stroke="#32ffff" stroke-width="18.00"/><path d="M 502.96,580.99 A 205.70,205.70 0 0,1 491.26,586.49" fill="none" stroke="#32f4ff" stroke-width="18.00"/><path d="M 493.24,585.62 A 205.70,205.70 0 0,1 481.27,590.51" fill="none" stroke="#32eaff" stroke-width="18.00"/><path d="M 483.29,589.75 A 205.70,205.70 0 0,1 471.08,593.99" fill="none" stroke="#32e0ff" stroke-width="18.00"/><path d="M 473.13,593.34 A 205.70,205.70 0 0,1 460.73,596.95" fill="none" stroke="#32d6ff" stroke-width="18.00"/><path d="M 462.81,596.40 A 205.70,205.70 0 0,1 450.23,599.35" fill="none" stroke="#32ccff" stroke-width="18.00"/><path d="M 452.34,598.91 A 205.70,205.70 0 0,1 439.62,601.20" fill="none" stroke="#32c1ff" stroke-width="18.00"/><path d="M 441.75,600.88 A 205.70,205.70 0 0,1 428.93,602.49" fill="none" stroke="#32b7ff" stroke-width="18.00"/><path d="M 431.07,602.28 A 205.70,205.70 0 0,1 418.18,603.23" fill="none" stroke="#32adff" stroke-width="18.00"/><path d="M 420.34,603.13 A 205.70,205.70 0 0,1 407.42,603.40" fill="none" stroke="#32a3ff" stroke-width="18.00"/><path d="M 409.57,603.41 A 205.70,205.70 0 0,1 396.66,603.00" fill="none" stroke="#3299ff" stroke-width="18.00"/><path d="M 398.81,603.13 A 205.70,205.70 0 0,1 385.93,602.04" fill="none" stroke="#328eff" stroke-width="18.00"/><path d="M 388.07,602.28 A 205.70,205.70 0 0,1 375.27,600.53" fill="none" stroke="#3284ff" stroke-width="18.00"/><path d="M 377.39,600.88 A 205.70,205.70 0 0,1 364.70,598.45" fill="none" stroke="#327aff" stroke-width="18.00"/><path d="M 366.80,598.91 A 205.70,205.70 0 0,1 354.26,595.83" fill="none" stroke="#3270ff" stroke-width="18.00"/><path d="M 356.33,596.40 A 205.70,205.70 0 0,1 343.96,592.66" fill="none" stroke="#3265ff" stroke-width="18.00"/><path d="M 346.01,593.34 A 205.70,205.70 0 0,1 333.85,588.96" fill="none" stroke="#325bff" stroke-width="18.00"/><path d="M 335.86,589.75 A 205.70,205.70 0 0,1 323.94,584.74" fill="none" stroke="#3251ff" stroke-width="18.00"/><path d="M 325.91,585.62 A 205.70,205.70 0 0,1 314.27,580.00" fill="none" stroke="#3247ff" stroke-width="18.00"/><path d="M 316.19,580.99 A 205.70,205.70 0 0,1 304.86,574.76" fill="none" stroke="#323dff" stroke-width="18.00"/><path d="M 306.72,575.85 A 205.70,205.70 0 0,1 295.74,569.04" fill="none" stroke="#3232ff" stroke-width="18.00"/><path d="M 297.54,570.22 A 205.70,205.70 0 0,1 286.93,562.85" fill="none" stroke="#3d32ff" stroke-width="18.00"/><path d="M 288.67,564.12 A 205.70,205.70 0 0,1 278.46,556.20" fill="none" stroke="#4732ff" stroke-width="18.00"/><path d="M 280.12,557.57 A 205.70,205.70 0 0,1 270.34,549.12" fill="none" stroke="#5132ff" stroke-width="18.00"/><path d="M 271.93,550.57 A 205.70,205.70 0 0,1 262.61,541.63" fill="none" stroke="#5b32ff" stroke-width="18.00"/><path d="M 264.12,543.16 A 205.70,205.70 0 0,1 255.28,533.74" fill="none" stroke="#6532ff" stroke-width="18.00"/><path d="M 256.71,535.35 A 205.70,205.70 0 0,1 248.37,525.48" fill="none" stroke="#7032ff" stroke-width="18.00"/><path d="M 249.71,527.16 A 205.70,205.70 0 0,1 241.90,516.87" fill="none" stroke="#7a32ff" stroke-width="18.00"/><path d="M 243.16,518.62 A 205.70,205.70 0 0,1 235.90,507.93" fill="none" stroke="#8432ff" stroke-width="18.00"/><path d="M 237.06,509.74 A 205.70,205.70 0 0,1 230.37,498.69" fill="none" stroke="#8e32ff" stroke-width="18.00"/><path d="M 231.43,500.56 A 205.70,205.70 0 0,1 225.33,489.17" fill="none" stroke="#9932ff" stroke-width="18.00"/><path d="M 226.29,491.10 A 205.70,205.70 0 0,1 220.79,479.40" fill="none" stroke="#a332ff" stroke-width="18.00"/><path d="M 221.66,481.38 A 205.70,205.70 0 0,1 216.78,469.41" fill="none" stroke="#ad32ff" stroke-width="18.00"/><path d="M 217.54,471.43 A 205.70,205.70 0 0,1 213.29,459.22" fill="none" stroke="#b732ff" stroke-width="18.00"/><path d="M 213.94,461.27 A 205.70,205.70 0 0,1 210.34,448.87" fill="none" stroke="#c132ff" stroke-width="18.00"/><path d="M 210.88,450.95 A 205.70,205.70 0 0,1 207.93,438.37" fill="none" stroke="#cc32ff" stroke-width="18.00"/><path d="M 208.37,440.48 A 205.70,205.70 0 0,1 206.08,427.76" fill="none" stroke="#d632ff" stroke-width="18.00"/><path d="M 206.41,429.89 A 205.70,205.70 0 0,1 204.79,417.07" fill="none" stroke="#e032ff" stroke-width="18.00"/><path d="M 205.00,419.21 A 205.70,205.70 0 0,1 204.06,406.32" fill="none" stroke="#ea32ff" stroke-width="18.00"/><path d="M 204.16,408.48 A 205.70,205.70 0 0,1 203.89,395.56" fill="none" stroke="#f432ff" stroke-width="18.00"/><path d="M 203.87,397.71 A 205.70,205.70 0 0,1 204.28,384.80" fill="none" stroke="#ff32ff" stroke-width="18.00"/><path d="M 204.16,386.95 A 205.70,205.70 0 0,1 205.24,374.07" fill="none" stroke="#ff32f4" stroke-width="18.00"/><path d="M 205.00,376.21 A 205.70,205.70 0 0,1 206.76,363.41" fill="none" stroke="#ff32ea" stroke-width="18.00"/><path d="M 206.41,365.53 A 205.70,205.70 0 0,1 208.83,352.84" fill="none" stroke="#ff32e0" stroke-width="18.00"/><path d="M 208.37,354.94 A 205.70,205.70 0 0,1 211.45,342.39" fill="none" stroke="#ff32d6" stroke-width="18.00"/><path d="M 210.88,344.47 A 205.70,205.70 0 0,1 214.62,332.10" fill="none" stroke="#ff32cc" stroke-width="18.00"/><path d="M 213.94,334.15 A 205.70,205.70 0 0,1 218.32,321.99" fill="none" stroke="#ff32c1" stroke-width="18.00"/><path d="M 217.54,324.00 A 205.70,205.70 0 0,1 222.54,312.08" fill="none" stroke="#ff32b7" stroke-width="18.00"/><path d="M 221.66,314.05 A 205.70,205.70 0 0,1 227.28,302.41" fill="none" stroke="#ff32ad" stroke-width="18.00"/><path d="M 226.29,304.33 A 205.70,205.70 0 0,1 232.52,293.00" fill="none" stroke="#ff32a3" stroke-width="18.00"/><path d="M 231.43,294.86 A 205.70,205.70 0 0,1 238.24,283.88" fill="none" stroke="#ff3299" stroke-width="18.00"/><path d="M 237.06,285.68 A 205.70,205.70 0 0,1 244.43,275.07" fill="none" stroke="#ff328e" stroke-width="18.00"/><path d="M 243.16,276.81 A 205.70,205.70 0 0,1 251.08,266.59" fill="none" stroke="#ff3284" stroke-width="18.00"/><path d="M 249.71,268.26 A 205.70,205.70 0 0,1 258.16,258.48" fill="none" stroke="#ff327a" stroke-width="18.00"/><path d="M 256.71,260.07 A 205.70,205.70 0 0,1 265.65,250.75" fill="none" stroke="#ff3270" stroke-width="18.00"/><path d="M 264.12,252.26 A 205.70,205.70 0 0,1 273.54,243.42" fill="none" stroke="#ff3265" stroke-width="18.00"/><path d="M 271.93,244.85 A 205.70,205.70 0 0,1 281.80,236.51" fill="none" stroke="#ff325b" stroke-width="18.00"/><path d="M 280.12,237.85 A 205.70,205.70 0 0,1 290.42,230.04" fill="none" stroke="#ff3251" stroke-width="18.00"/><path d="M 288.67,231.30 A 205.70,205.70 0 0,1 299.35,224.04" fill="none" stroke="#ff3247" stroke-width="18.00"/><path d="M 297.54,225.20 A 205.70,205.70 0 0,1 308.59,218.51" fill="none" stroke="#ff323d" stroke-width="18.00"/><path d="M 302.72,212.64 A 244.44,244.44 0 0 1 369.13,65.46" fill="none" stroke="#ff3232" stroke-width="13.43" stroke-linecap="round"/><path d="M 326.76,200.71 A 244.44,244.44 0 0 1 438.07,43.88" fill="none" stroke="#ff4b32" stroke-width="13.43" stroke-linecap="round"/><path d="M 352.10,191.89 A 244.44,244.44 0 0 1 444.11,71.70" fill="none" stroke="#ff6332" stroke-width="13.43" stroke-linecap="round"/><path d="M 378.35,186.31 A 244.44,244.44 0 0 1 451.19,99.51" fill="none" stroke="#ff7c32" stroke-width="13.43" stroke-linecap="round"/><path d="M 405.10,184.06 A 244.44,244.44 0 0 1 465.01,121.95" fill="none" stroke="#ff9432" stroke-width="13.43" stroke-linecap="round"/><path d="M 431.91,185.18 A 244.44,244.44 0 0 1 585.77,103.04" fill="none" stroke="#ffad32" stroke-width="13.43" stroke-linecap="round"/><path d="M 458.37,189.66 A 244.44,244.44 0 0 1 595.16,128.84" fill="none" stroke="#ffc532" stroke-width="13.43" stroke-linecap="round"/><path d="M 484.06,197.42 A 244.44,244.44 0 0 1 561.13,162.11" fill="none" stroke="#ffde32" stroke-width="13.43" stroke-linecap="round"/><path d="M 508.58,208.33 A 244.44,244.44 0 0 1 562.60,188.01" fill="none" stroke="#fff632" stroke-width="13.43" stroke-linecap="round"/><path d="M 531.53,222.23 A 244.44,244.44 0 0 1 567.95,211.96" fill="none" stroke="#eeff32" stroke-width="13.43" stroke-linecap="round"/><path d="M 552.56,238.90 A 244.44,244.44 0 0 1 670.21,240.81" fill="none" stroke="#d6ff32" stroke-width="13.43" stroke-linecap="round"/><path d="M 571.34,258.08 A 244.44,244.44 0 0 1 826.63,420.15" fill="none" stroke="#bdff32" stroke-width="13.43" stroke-linecap="round"/><path d="M 587.56,279.45 A 244.44,244.44 0 0 1 781.10,382.58" fill="none" stroke="#a5ff32" stroke-width="13.43" stroke-linecap="round"/><path d="M 600.98,302.69 A 244.44,244.44 0 0 1 690.66,335.06" fill="none" stroke="#8cff32" stroke-width="13.43" stroke-linecap="round"/><path d="M 611.38,327.43 A 244.44,244.44 0 0 1 682.04,360.35" fill="none" stroke="#74ff32" stroke-width="13.43" stroke-linecap="round"/><path d="M 618.60,353.28 A 244.44,244.44 0 0 1 663.92,378.50" fill="none" stroke="#5bff32" stroke-width="13.43" stroke-linecap="round"/><path d="M 622.52,379.83 A 244.44,244.44 0 0 1 741.33,627.14" fill="none" stroke="#43ff32" stroke-width="13.43" stroke-linecap="round"/><path d="M 623.08,406.66 A 244.44,244.44 0 0 1 701.98,690.62" fill="none" stroke="#32ff3b" stroke-width="13.43" stroke-linecap="round"/><path d="M 620.28,433.35 A 244.44,244.44 0 0 1 663.66,491.12" fill="none" stroke="#32ff53" stroke-width="13.43" stroke-linecap="round"/><path d="M 614.15,459.48 A 244.44,244.44 0 0 1 651.19,525.51" fill="none" stroke="#32ff6c" stroke-width="13.43" stroke-linecap="round"/><path d="M 604.79,484.63 A 244.44,244.44 0 0 1 591.84,755.82" fill="none" stroke="#32ff84" stroke-width="13.43" stroke-linecap="round"/><path d="M 592.36,508.41 A 244.44,244.44 0 0 1 524.45,795.46" fill="none" stroke="#32ff9d" stroke-width="13.43" stroke-linecap="round"/><path d="M 577.04,530.45 A 244.44,244.44 0 0 1 583.80,559.45" fill="none" stroke="#32ffb5" stroke-width="13.43" stroke-linecap="round"/><path d="M 559.09,550.39 A 244.44,244.44 0 0 1 544.01,683.27" fill="none" stroke="#32ffce" stroke-width="13.43" stroke-linecap="round"/><path d="M 538.77,567.93 A 244.44,244.44 0 0 1 516.66,679.29" fill="none" stroke="#32ffe6" stroke-width="13.43" stroke-linecap="round"/><path d="M 516.42,582.78 A 244.44,244.44 0 0 1 512.18,611.49" fill="none" stroke="#32ffff" stroke-width="13.43" stroke-linecap="round"/><path d="M 492.38,594.71 A 244.44,244.44 0 0 1 479.40,636.34" fill="none" stroke="#32e6ff" stroke-width="13.43" stroke-linecap="round"/><path d="M 467.04,603.54 A 244.44,244.44 0 0 1 445.84,648.51" fill="none" stroke="#32ceff" stroke-width="13.43" stroke-linecap="round"/><path d="M 440.79,609.11 A 244.44,244.44 0 0 1 366.96,696.65" fill="none" stroke="#32b5ff" stroke-width="13.43" stroke-linecap="round"/><path d="M 414.05,611.36 A 244.44,244.44 0 0 1 272.21,712.01" fill="none" stroke="#329dff" stroke-width="13.43" stroke-linecap="round"/><path d="M 387.23,610.24 A 244.44,244.44 0 0 1 148.95,688.32" fill="none" stroke="#3284ff" stroke-width="13.43" stroke-linecap="round"/><path d="M 360.77,605.76 A 244.44,244.44 0 0 1 49.53,617.84" fill="none" stroke="#326cff" stroke-width="13.43" stroke-linecap="round"/><path d="M 335.08,598.00 A 244.44,244.44 0 0 1 25.18,571.37" fill="none" stroke="#3253ff" stroke-width="13.43" stroke-linecap="round"/><path d="M 310.57,587.09 A 244.44,244.44 0 0 1 12.71,529.43" fill="none" stroke="#323bff" stroke-width="13.43" stroke-linecap="round"/><path d="M 287.61,573.19 A 244.44,244.44 0 0 1 134.98,578.51" fill="none" stroke="#4332ff" stroke-width="13.43" stroke-linecap="round"/><path d="M 266.58,556.52 A 244.44,244.44 0 0 1 111.38,541.30" fill="none" stroke="#5b32ff" stroke-width="13.43" stroke-linecap="round"/><path d="M 247.80,537.34 A 244.44,244.44 0 0 1 168.97,532.53" fill="none" stroke="#7432ff" stroke-width="13.43" stroke-linecap="round"/><path d="M 231.58,515.97 A 244.44,244.44 0 0 1 192.51,511.86" fill="none" stroke="#8c32ff" stroke-width="13.43" stroke-linecap="round"/><path d="M 218.16,492.73 A 244.44,244.44 0 0 1 181.93,484.39" fill="none" stroke="#a532ff" stroke-width="13.43" stroke-linecap="round"/><path d="M 207.76,467.99 A 244.44,244.44 0 0 1 158.48,448.03" fill="none" stroke="#bd32ff" stroke-width="13.43" stroke-linecap="round"/><path d="M 200.54,442.14 A 244.44,244.44 0 0 1 174.83,429.40" fill="none" stroke="#d632ff" stroke-width="13.43" stroke-linecap="round"/><path d="M 196.62,415.59 A 244.44,244.44 0 0 1 145.20,375.62" fill="none" stroke="#ee32ff" stroke-width="13.43" stroke-linecap="round"/><path d="M 196.06,388.76 A 244.44,244.44 0 0 1 107.18,253.02" fill="none" stroke="#ff32f6" stroke-width="13.43" stroke-linecap="round"/><path d="M 198.87,362.07 A 244.44,244.44 0 0 1 126.66,170.92" fill="none" stroke="#ff32de" stroke-width="13.43" stroke-linecap="round"/><path d="M 205.00,335.95 A 244.44,244.44 0 0 1 158.44,131.90" fill="none" stroke="#ff32c5" stroke-width="13.43" stroke-linecap="round"/><path d="M 214.35,310.79 A 244.44,244.44 0 0 1 180.58,161.26" fill="none" stroke="#ff32ad" stroke-width="13.43" stroke-linecap="round"/><path d="M 226.78,287.01 A 244.44,244.44 0 0 1 206.93,209.74" fill="none" stroke="#ff3294" stroke-width="13.43" stroke-linecap="round"/><path d="M 242.10,264.97 A 244.44,244.44 0 0 1 231.92,192.85" fill="none" stroke="#ff327c" stroke-width="13.43" stroke-linecap="round"/><path d="M 260.06,245.03 A 244.44,244.44 0 0 1 257.51,186.15" fill="none" stroke="#ff3263" stroke-width="13.43" stroke-linecap="round"/><path d="M 280.37,227.50 A 244.44,244.44 0 0 1 280.42,207.56" fill="none" stroke="#ff324b" stroke-width="13.43" stroke-linecap="round"/></svg>