<svg width="800" height="800" viewBox="0 0 800 800" xmlns="http://www.w3.org/2000/svg"><defs><linearGradient id="pg" x1="0%" y1="0%" x2="100%" y2="0%"><stop offset="0.0%" stop-color="#ff2626"/><stop offset="8.333333333333334%" stop-color="#ff9226"/><stop offset="16.666666666666668%" stop-color="#ffff26"/><stop offset="25.0%" stop-color="#92ff26"/><stop offset="33.333333333333336%" stop-color="#26ff26"/><stop offset="41.666666666666664%" stop-color="#26ff92"/><stop offset="50.0%" stop-color="#26ffff"/><stop offset="58.333333333333336%" stop-color="#2692ff"/><stop offset="66.66666666666667%" stop-color="#2626ff"/><stop offset="75.0%" stop-color="#9226ff"/><stop offset="83.33333333333333%" stop-color="#ff26ff"/><stop offset="91.66666666666667%" stop-color="#ff2692"/><stop offset="100.0%" stop-color="#ff2626"/></linearGradient></defs><g transform="translate(400.00, 400.85) scale(0.46094)"><g fill="#000000" stroke="#000000" stroke-width="6" stroke-linejoin="round"><rect x="-864.8" y="-40.5" width="1729.6" height="20.0"/><rect x="-864.8" y="16.8" width="1729.6" height="20.0"/><rect x="-847.4" y="-61.7" width="5.2" height="21.2"/><rect x="-847.4" y="36.8" width="5.2" height="21.2"/><rect x="-838.0" y="-67.6" width="5.2" height="27.1"/><rect x="-838.0" y="36.8" width="5.2" height="27.1"/><rect x="-828.5" y="-155.8" width="5.2" height="115.3"/><rect x="-828.5" y="36.8" width="5.2" height="115.3"/><rect x="-819.1" y="-226.0" width="5.2" height="185.5"/><rect x="-819.1" y="36.8" width="5.2" height="185.5"/><rect x="-809.6" y="-225.5" width="5.2" height="185.0"/><rect x="-809.6" y="36.8" width="5.2" height="185.0"/><rect x="-800.2" y="-195.9" width="5.2" height="155.4"/><rect x="-800.2" y="36.8" width="5.2" height="155.4"/><rect x="-790.8" y="-165.6" width="5.2" height="125.1"/><rect x="-790.8" y="36.8" width="5.2" height="125.1"/><rect x="-781.3" y="-171.5" width="5.2" height="131.0"/><rect x="-781.3" y="36.8" width="5.2" height="131.0"/><rect x="-771.9" y="-176.8" width="5.2" height="136.3"/><rect x="-771.9" y="36.8" width="5.2" height="136.3"/><rect x="-762.4" y="-230.9" width="5.2" height="190.5"/><rect x="-762.4" y="36.8" width="5.2" height="190.5"/><rect x="-753.0" y="-263.1" width="5.2" height="222.6"/><rect x="-753.0" y="36.8" width="5.2" height="222.6"/><rect x="-743.6" y="-216.9" width="5.2" height="176.4"/><rect x="-743.6" y="36.8" width="5.2" height="176.4"/><rect x="-734.1" y="-152.4" width="5.2" height="111.9"/><rect x="-734.1" y="36.8" width="5.2" height="111.9"/><rect x="-724.7" y="-147.0" width="5.2" height="106.5"/><rect x="-724.7" y="36.8" width="5.2" height="106.5"/><rect x="-715.2" y="-173.3" width="5.2" height="132.8"/><rect x="-715.2" y="36.8" width="5.2" height="132.8"/><rect x="-705.8" y="-206.3" width="5.2" height="165.8"/><rect x="-705.8" y="36.8" width="5.2" height="165.8"/><rect x="-696.4" y="-246.0" width="5.2" height="205.5"/><rect x="-696.4" y="36.8" width="5.2" height="205.5"/><rect x="-686.9" y="-220.3" width="5.2" height="179.8"/><rect x="-686.9" y="36.8" width="5.2" height="179.8"/><rect x="-677.5" y="-79.8" width="5.2" height="39.3"/><rect x="-677.5" y="36.8" width="5.2" height="39.3"/><rect x="-668.1" y="-140.5" width="5.2" height="100.0"/><rect x="-668.1" y="36.8" width="5.2" height="100.0"/><rect x="-658.6" y="-263.3" width="5.2" height="222.8"/><rect x="-658.6" y="36.8" width="5.2" height="222.8"/><rect x="-649.2" y="-293.2" width="5.2" height="252.7"/><rect x="-649.2" y="36.8" width="5.2" height="252.7"/><rect x="-639.7" y="-233.5" width="5.2" height="193.0"/><rect x="-639.7" y="36.8" width="5.2" height="193.0"/><rect x="-630.3" y="-120.6" width="5.2" height="80.1"/><rect x="-630.3" y="36.8" width="5.2" height="80.1"/><rect x="-620.9" y="-123.7" width="5.2" height="83.3"/><rect x="-620.9" y="36.8" width="5.2" height="83.3"/><rect x="-611.4" y="-137.3" width="5.2" height="96.8"/><rect x="-611.4" y="36.8" width="5.2" height="96.8"/><rect x="-602.0" y="-142.0" width="5.2" height="101.5"/><rect x="-602.0" y="36.8" width="5.2" height="101.5"/><rect x="-592.5" y="-113.7" width="5.2" height="73.2"/><rect x="-592.5" y="36.8" width="5.2" height="73.2"/><rect x="-583.1" y="-95.3" width="5.2" height="54.8"/><rect x="-583.1" y="36.8" width="5.2" height="54.8"/><rect x="-573.7" y="-89.4" width="5.2" height="48.9"/><rect x="-573.7" y="36.8" width="5.2" height="48.9"/><rect x="-564.2" y="-145.9" width="5.2" height="105.4"/><rect x="-564.2" y="36.8" width="5.2" height="105.4"/><rect x="-554.8" y="-190.3" width="5.2" height="149.8"/><rect x="-554.8" y="36.8" width="5.2" height="149.8"/><rect x="-545.3" y="-198.4" width="5.2" height="157.9"/><rect x="-545.3" y="36.8" width="5.2" height="157.9"/><rect x="-535.9" y="-161.7" width="5.2" height="121.2"/><rect x="-535.9" y="36.8" width="5.2" height="121.2"/><rect x="-526.5" y="-122.9" width="5.2" height="82.4"/><rect x="-526.5" y="36.8" width="5.2" height="82.4"/><rect x="-517.0" y="-71.3" width="5.2" height="30.8"/><rect x="-517.0" y="36.8" width="5.2" height="30.8"/><rect x="-507.6" y="-102.6" width="5.2" height="62.1"/><rect x="-507.6" y="36.8" width="5.2" height="62.1"/><rect x="-498.1" y="-107.2" width="5.2" height="66.7"/><rect x="-498.1" y="36.8" width="5.2" height="66.7"/><rect x="-488.7" y="-81.7" width="5.2" height="41.2"/><rect x="-488.7" y="36.8" width="5.2" height="41.2"/><rect x="-479.3" y="-71.9" width="5.2" height="31.4"/><rect x="-479.3" y="36.8" width="5.2" height="31.4"/><rect x="-469.8" y="-104.4" width="5.2" height="63.9"/><rect x="-469.8" y="36.8" width="5.2" height="63.9"/><rect x="-460.4" y="-249.8" width="5.2" height="209.3"/><rect x="-460.4" y="36.8" width="5.2" height="209.3"/><rect x="-451.0" y="-307.5" width="5.2" height="267.0"/><rect x="-451.0" y="36.8" width="5.2" height="267.0"/><rect x="-441.5" y="-268.3" width="5.2" height="227.8"/><rect x="-441.5" y="36.8" width="5.2" height="227.8"/><rect x="-432.1" y="-190.8" width="5.2" height="150.3"/><rect x="-432.1" y="36.8" width="5.2" height="150.3"/><rect x="-422.6" y="-96.5" width="5.2" height="56.0"/><rect x="-422.6" y="36.8" width="5.2" height="56.0"/><rect x="-413.2" y="-93.7" width="5.2" height="53.2"/><rect x="-413.2" y="36.8" width="5.2" height="53.2"/><rect x="-403.8" y="-99.7" width="5.2" height="59.2"/><rect x="-403.8" y="36.8" width="5.2" height="59.2"/><rect x="-394.3" y="-105.1" width="5.2" height="64.6"/><rect x="-394.3" y="36.8" width="5.2" height="64.6"/><rect x="-384.9" y="-154.3" width="5.2" height="113.8"/><rect x="-384.9" y="36.8" width="5.2" height="113.8"/><rect x="-375.4" y="-171.8" width="5.2" height="131.3"/><rect x="-375.4" y="36.8" width="5.2" height="131.3"/><rect x="-366.0" y="-224.3" width="5.2" height="183.8"/><rect x="-366.0" y="36.8" width="5.2" height="183.8"/><rect x="-356.6" y="-337.2" width="5.2" height="296.7"/><rect x="-356.6" y="36.8" width="5.2" height="296.7"/><rect x="-347.1" y="-342.8" width="5.2" height="302.3"/><rect x="-347.1" y="36.8" width="5.2" height="302.3"/><rect x="-337.7" y="-245.1" width="5.2" height="204.6"/><rect x="-337.7" y="36.8" width="5.2" height="204.6"/><rect x="-328.2" y="-85.1" width="5.2" height="44.6"/><rect x="-328.2" y="36.8" width="5.2" height="44.6"/><rect x="-318.8" y="-64.1" width="5.2" height="23.6"/><rect x="-318.8" y="36.8" width="5.2" height="23.6"/><rect x="-309.4" y="-77.9" width="5.2" height="37.4"/><rect x="-309.4" y="36.8" width="5.2" height="37.4"/><rect x="-299.9" y="-77.1" width="5.2" height="36.6"/><rect x="-299.9" y="36.8" width="5.2" height="36.6"/><rect x="-290.5" y="-91.6" width="5.2" height="51.1"/><rect x="-290.5" y="36.8" width="5.2" height="51.1"/><rect x="-281.0" y="-114.9" width="5.2" height="74.4"/><rect x="-281.0" y="36.8" width="5.2" height="74.4"/><rect x="-271.6" y="-160.0" width="5.2" height="119.5"/><rect x="-271.6" y="36.8" width="5.2" height="119.5"/><rect x="-262.2" y="-150.3" width="5.2" height="109.8"/><rect x="-262.2" y="36.8" width="5.2" height="109.8"/><rect x="-252.7" y="-131.0" width="5.2" height="90.5"/><rect x="-252.7" y="36.8" width="5.2" height="90.5"/><rect x="-243.3" y="-159.3" width="5.2" height="118.8"/><rect x="-243.3" y="36.8" width="5.2" height="118.8"/><rect x="-233.9" y="-119.0" width="5.2" height="78.5"/><rect x="-233.9" y="36.8" width="5.2" height="78.5"/><rect x="-224.4" y="-70.3" width="5.2" height="29.8"/><rect x="-224.4" y="36.8" width="5.2" height="29.8"/><rect x="-215.0" y="-74.1" width="5.2" height="33.6"/><rect x="-215.0" y="36.8" width="5.2" height="33.6"/><rect x="-205.5" y="-135.4" width="5.2" height="94.9"/><rect x="-205.5" y="36.8" width="5.2" height="94.9"/><rect x="-196.1" y="-168.2" width="5.2" height="127.8"/><rect x="-196.1" y="36.8" width="5.2" height="127.8"/><rect x="-186.7" y="-119.3" width="5.2" height="78.8"/><rect x="-186.7" y="36.8" width="5.2" height="78.8"/><rect x="-177.2" y="-86.3" width="5.2" height="45.8"/><rect x="-177.2" y="36.8" width="5.2" height="45.8"/><rect x="-167.8" y="-68.3" width="5.2" height="27.8"/><rect x="-167.8" y="36.8" width="5.2" height="27.8"/><rect x="-158.3" y="-79.6" width="5.2" height="39.1"/><rect x="-158.3" y="36.8" width="5.2" height="39.1"/><rect x="-148.9" y="-190.9" width="5.2" height="150.4"/><rect x="-148.9" y="36.8" width="5.2" height="150.4"/><rect x="-139.5" y="-247.7" width="5.2" height="207.2"/><rect x="-139.5" y="36.8" width="5.2" height="207.2"/><rect x="-130.0" y="-188.6" width="5.2" height="148.1"/><rect x="-130.0" y="36.8" width="5.2" height="148.1"/><rect x="-120.6" y="-137.2" width="5.2" height="96.7"/><rect x="-120.6" y="36.8" width="5.2" height="96.7"/><rect x="-111.1" y="-124.3" width="5.2" height="83.8"/><rect x="-111.1" y="36.8" width="5.2" height="83.8"/><rect x="-101.7" y="-120.9" width="5.2" height="80.4"/><rect x="-101.7" y="36.8" width="5.2" height="80.4"/><rect x="-92.3" y="-193.4" width="5.2" height="152.9"/><rect x="-92.3" y="36.8" width="5.2" height="152.9"/><rect x="-82.8" y="-192.0" width="5.2" height="151.5"/><rect x="-82.8" y="36.8" width="5.2" height="151.5"/><rect x="-73.4" y="-119.0" width="5.2" height="78.5"/><rect x="-73.4" y="36.8" width="5.2" height="78.5"/><rect x="-63.9" y="-119.3" width="5.2" height="78.8"/><rect x="-63.9" y="36.8" width="5.2" height="78.8"/><rect x="-54.5" y="-125.0" width="5.2" height="84.5"/><rect x="-54.5" y="36.8" width="5.2" height="84.5"/><rect x="-45.1" y="-199.9" width="5.2" height="159.4"/><rect x="-45.1" y="36.8" width="5.2" height="159.4"/><rect x="-35.6" y="-166.3" width="5.2" height="125.8"/><rect x="-35.6" y="36.8" width="5.2" height="125.8"/><rect x="-26.2" y="-84.5" width="5.2" height="44.0"/><rect x="-26.2" y="36.8" width="5.2" height="44.0"/><rect x="-16.8" y="-78.7" width="5.2" height="38.2"/><rect x="-16.8" y="36.8" width="5.2" height="38.2"/><rect x="-7.3" y="-95.7" width="5.2" height="55.2"/><rect x="-7.3" y="36.8" width="5.2" height="55.2"/><rect x="2.1" y="-122.4" width="5.2" height="81.9"/><rect x="2.1" y="36.8" width="5.2" height="81.9"/><rect x="11.6" y="-96.9" width="5.2" height="56.4"/><rect x="11.6" y="36.8" width="5.2" height="56.4"/><rect x="21.0" y="-81.6" width="5.2" height="41.1"/><rect x="21.0" y="36.8" width="5.2" height="41.1"/><rect x="30.4" y="-138.8" width="5.2" height="98.3"/><rect x="30.4" y="36.8" width="5.2" height="98.3"/><rect x="39.9" y="-161.4" width="5.2" height="120.9"/><rect x="39.9" y="36.8" width="5.2" height="120.9"/><rect x="49.3" y="-138.2" width="5.2" height="97.7"/><rect x="49.3" y="36.8" width="5.2" height="97.7"/><rect x="58.8" y="-108.6" width="5.2" height="68.1"/><rect x="58.8" y="36.8" width="5.2" height="68.1"/><rect x="68.2" y="-156.1" width="5.2" height="115.6"/><rect x="68.2" y="36.8" width="5.2" height="115.6"/><rect x="77.6" y="-167.4" width="5.2" height="126.9"/><rect x="77.6" y="36.8" width="5.2" height="126.9"/><rect x="87.1" y="-130.7" width="5.2" height="90.2"/><rect x="87.1" y="36.8" width="5.2" height="90.2"/><rect x="96.5" y="-84.5" width="5.2" height="44.0"/><rect x="96.5" y="36.8" width="5.2" height="44.0"/><rect x="106.0" y="-100.3" width="5.2" height="59.8"/><rect x="106.0" y="36.8" width="5.2" height="59.8"/><rect x="115.4" y="-137.5" width="5.2" height="97.0"/><rect x="115.4" y="36.8" width="5.2" height="97.0"/><rect x="124.8" y="-162.1" width="5.2" height="121.6"/><rect x="124.8" y="36.8" width="5.2" height="121.6"/><rect x="134.3" y="-146.3" width="5.2" height="105.8"/><rect x="134.3" y="36.8" width="5.2" height="105.8"/><rect x="143.7" y="-134.3" width="5.2" height="93.8"/><rect x="143.7" y="36.8" width="5.2" height="93.8"/><rect x="153.1" y="-97.7" width="5.2" height="57.2"/><rect x="153.1" y="36.8" width="5.2" height="57.2"/><rect x="162.6" y="-99.6" width="5.2" height="59.1"/><rect x="162.6" y="36.8" width="5.2" height="59.1"/><rect x="172.0" y="-130.6" width="5.2" height="90.2"/><rect x="172.0" y="36.8" width="5.2" height="90.2"/><rect x="181.5" y="-112.7" width="5.2" height="72.2"/><rect x="181.5" y="36.8" width="5.2" height="72.2"/><rect x="190.9" y="-174.0" width="5.2" height="133.5"/><rect x="190.9" y="36.8" width="5.2" height="133.5"/><rect x="200.3" y="-206.0" width="5.2" height="165.5"/><rect x="200.3" y="36.8" width="5.2" height="165.5"/><rect x="209.8" y="-146.0" width="5.2" height="105.5"/><rect x="209.8" y="36.8" width="5.2" height="105.5"/><rect x="219.2" y="-157.8" width="5.2" height="117.3"/><rect x="219.2" y="36.8" width="5.2" height="117.3"/><rect x="228.7" y="-143.7" width="5.2" height="103.2"/><rect x="228.7" y="36.8" width="5.2" height="103.2"/><rect x="238.1" y="-99.1" width="5.2" height="58.6"/><rect x="238.1" y="36.8" width="5.2" height="58.6"/><rect x="247.5" y="-154.5" width="5.2" height="114.0"/><rect x="247.5" y="36.8" width="5.2" height="114.0"/><rect x="257.0" y="-112.8" width="5.2" height="72.3"/><rect x="257.0" y="36.8" width="5.2" height="72.3"/><rect x="266.4" y="-85.3" width="5.2" height="44.8"/><rect x="266.4" y="36.8" width="5.2" height="44.8"/><rect x="275.9" y="-84.5" width="5.2" height="44.0"/><rect x="275.9" y="36.8" width="5.2" height="44.0"/><rect x="285.3" y="-107.0" width="5.2" height="66.5"/><rect x="285.3" y="36.8" width="5.2" height="66.5"/><rect x="294.7" y="-146.8" width="5.2" height="106.3"/><rect x="294.7" y="36.8" width="5.2" height="106.3"/><rect x="304.2" y="-105.6" width="5.2" height="65.1"/><rect x="304.2" y="36.8" width="5.2" height="65.1"/><rect x="313.6" y="-138.8" width="5.2" height="98.3"/><rect x="313.6" y="36.8" width="5.2" height="98.3"/><rect x="323.1" y="-128.0" width="5.2" height="87.5"/><rect x="323.1" y="36.8" width="5.2" height="87.5"/><rect x="332.5" y="-143.1" width="5.2" height="102.6"/><rect x="332.5" y="36.8" width="5.2" height="102.6"/><rect x="341.9" y="-106.6" width="5.2" height="66.1"/><rect x="341.9" y="36.8" width="5.2" height="66.1"/><rect x="351.4" y="-100.2" width="5.2" height="59.7"/><rect x="351.4" y="36.8" width="5.2" height="59.7"/><rect x="360.8" y="-74.5" width="5.2" height="34.0"/><rect x="360.8" y="36.8" width="5.2" height="34.0"/><rect x="370.2" y="-103.5" width="5.2" height="63.0"/><rect x="370.2" y="36.8" width="5.2" height="63.0"/><rect x="379.7" y="-96.9" width="5.2" height="56.4"/><rect x="379.7" y="36.8" width="5.2" height="56.4"/><rect x="389.1" y="-95.4" width="5.2" height="54.9"/><rect x="389.1" y="36.8" width="5.2" height="54.9"/><rect x="398.6" y="-84.1" width="5.2" height="43.6"/><rect x="398.6" y="36.8" width="5.2" height="43.6"/><rect x="408.0" y="-73.6" width="5.2" height="33.1"/><rect x="408.0" y="36.8" width="5.2" height="33.1"/><rect x="417.4" y="-64.3" width="5.2" height="23.8"/><rect x="417.4" y="36.8" width="5.2" height="23.8"/><rect x="426.9" y="-76.9" width="5.2" height="36.4"/><rect x="426.9" y="36.8" width="5.2" height="36.4"/><rect x="436.3" y="-58.6" width="5.2" height="18.1"/><rect x="436.3" y="36.8" width="5.2" height="18.1"/><rect x="445.8" y="-61.7" width="5.2" height="21.2"/><rect x="445.8" y="36.8" width="5.2" height="21.2"/><rect x="455.2" y="-76.1" width="5.2" height="35.6"/><rect x="455.2" y="36.8" width="5.2" height="35.6"/><rect x="464.6" y="-80.2" width="5.2" height="39.7"/><rect x="464.6" y="36.8" width="5.2" height="39.7"/><rect x="474.1" y="-86.6" width="5.2" height="46.1"/><rect x="474.1" y="36.8" width="5.2" height="46.1"/><rect x="483.5" y="-87.9" width="5.2" height="47.4"/><rect x="483.5" y="36.8" width="5.2" height="47.4"/><rect x="493.0" y="-71.1" width="5.2" height="30.6"/><rect x="493.0" y="36.8" width="5.2" height="30.6"/><rect x="502.4" y="-65.1" width="5.2" height="24.6"/><rect x="502.4" y="36.8" width="5.2" height="24.6"/><rect x="511.8" y="-72.9" width="5.2" height="32.4"/><rect x="511.8" y="36.8" width="5.2" height="32.4"/><rect x="521.3" y="-80.1" width="5.2" height="39.6"/><rect x="521.3" y="36.8" width="5.2" height="39.6"/><rect x="530.7" y="-95.8" width="5.2" height="55.3"/><rect x="530.7" y="36.8" width="5.2" height="55.3"/><rect x="540.2" y="-80.4" width="5.2" height="39.9"/><rect x="540.2" y="36.8" width="5.2" height="39.9"/><rect x="549.6" y="-54.0" width="5.2" height="13.5"/><rect x="549.6" y="36.8" width="5.2" height="13.5"/><rect x="559.0" y="-66.0" width="5.2" height="25.5"/><rect x="559.0" y="36.8" width="5.2" height="25.5"/><rect x="568.5" y="-54.0" width="5.2" height="13.5"/><rect x="568.5" y="36.8" width="5.2" height="13.5"/><rect x="577.9" y="-65.5" width="5.2" height="25.0"/><rect x="577.9" y="36.8" width="5.2" height="25.0"/><rect x="587.3" y="-74.2" width="5.2" height="33.8"/><rect x="587.3" y="36.8" width="5.2" height="33.8"/><rect x="596.8" y="-104.1" width="5.2" height="63.6"/><rect x="596.8" y="36.8" width="5.2" height="63.6"/><rect x="606.2" y="-105.3" width="5.2" height="64.8"/><rect x="606.2" y="36.8" width="5.2" height="64.8"/><rect x="615.7" y="-122.7" width="5.2" height="82.2"/><rect x="615.7" y="36.8" width="5.2" height="82.2"/><rect x="625.1" y="-128.4" width="5.2" height="87.9"/><rect x="625.1" y="36.8" width="5.2" height="87.9"/><rect x="634.5" y="-122.2" width="5.2" height="81.7"/><rect x="634.5" y="36.8" width="5.2" height="81.7"/><rect x="644.0" y="-108.9" width="5.2" height="68.4"/><rect x="644.0" y="36.8" width="5.2" height="68.4"/><rect x="653.4" y="-109.2" width="5.2" height="68.7"/><rect x="653.4" y="36.8" width="5.2" height="68.7"/><rect x="662.9" y="-77.9" width="5.2" height="37.4"/><rect x="662.9" y="36.8" width="5.2" height="37.4"/><rect x="672.3" y="-70.8" width="5.2" height="30.3"/><rect x="672.3" y="36.8" width="5.2" height="30.3"/><rect x="681.7" y="-114.1" width="5.2" height="73.7"/><rect x="681.7" y="36.8" width="5.2" height="73.7"/><rect x="691.2" y="-109.2" width="5.2" height="68.7"/><rect x="691.2" y="36.8" width="5.2" height="68.7"/><rect x="700.6" y="-89.7" width="5.2" height="49.2"/><rect x="700.6" y="36.8" width="5.2" height="49.2"/><rect x="710.1" y="-122.3" width="5.2" height="81.8"/><rect x="710.1" y="36.8" width="5.2" height="81.8"/><rect x="719.5" y="-194.4" width="5.2" height="153.9"/><rect x="719.5" y="36.8" width="5.2" height="153.9"/><rect x="728.9" y="-161.2" width="5.2" height="120.7"/><rect x="728.9" y="36.8" width="5.2" height="120.7"/><rect x="738.4" y="-161.0" width="5.2" height="120.5"/><rect x="738.4" y="36.8" width="5.2" height="120.5"/><rect x="747.8" y="-164.6" width="5.2" height="124.1"/><rect x="747.8" y="36.8" width="5.2" height="124.1"/><rect x="757.3" y="-168.0" width="5.2" height="127.5"/><rect x="757.3" y="36.8" width="5.2" height="127.5"/><rect x="766.7" y="-125.8" width="5.2" height="85.3"/><rect x="766.7" y="36.8" width="5.2" height="85.3"/><rect x="776.1" y="-122.3" width="5.2" height="81.8"/><rect x="776.1" y="36.8" width="5.2" height="81.8"/><rect x="785.6" y="-109.0" width="5.2" height="68.6"/><rect x="785.6" y="36.8" width="5.2" height="68.6"/><rect x="795.0" y="-86.6" width="5.2" height="46.1"/><rect x="795.0" y="36.8" width="5.2" height="46.1"/><rect x="804.4" y="-78.1" width="5.2" height="37.6"/><rect x="804.4" y="36.8" width="5.2" height="37.6"/><rect x="813.9" y="-62.5" width="5.2" height="22.0"/><rect x="813.9" y="36.8" width="5.2" height="22.0"/><rect x="823.3" y="-59.7" width="5.2" height="19.2"/><rect x="823.3" y="36.8" width="5.2" height="19.2"/><rect x="832.8" y="-53.9" width="5.2" height="13.4"/><rect x="832.8" y="36.8" width="5.2" height="13.4"/><rect x="842.2" y="-54.3" width="5.2" height="13.8"/><rect x="842.2" y="36.8" width="5.2" height="13.8"/></g><rect x="-864.8" y="-40.5" width="1729.6" height="20.0" fill="url(#pg)"/><rect x="-864.8" y="16.8" width="1729.6" height="20.0" fill="url(#pg)"/><rect x="-847.4" y="-61.7" width="5.2" height="21.2" fill="#ff2626"/><rect x="-847.4" y="36.8" width="5.2" height="21.2" fill="#ff2626"/><rect x="-838.0" y="-67.6" width="5.2" height="27.1" fill="#ff2d26"/><rect x="-838.0" y="36.8" width="5.2" height="27.1" fill="#ff2d26"/><rect x="-828.5" y="-155.8" width="5.2" height="115.3" fill="#ff3426"/><rect x="-828.5" y="36.8" width="5.2" height="115.3" fill="#ff3426"/><rect x="-819.1" y="-226.0" width="5.2" height="185.5" fill="#ff3b26"/><rect x="-819.1" y="36.8" width="5.2" height="185.5" fill="#ff3b26"/><rect x="-809.6" y="-225.5" width="5.2" height="185.0" fill="#ff4326"/><rect x="-809.6" y="36.8" width="5.2" height="185.0" fill="#ff4326"/><rect x="-800.2" y="-195.9" width="5.2" height="155.4" fill="#ff4a26"/><rect x="-800.2" y="36.8" width="5.2" height="155.4" fill="#ff4a26"/><rect x="-790.8" y="-165.6" width="5.2" height="125.1" fill="#ff5126"/><rect x="-790.8" y="36.8" width="5.2" height="125.1" fill="#ff5126"/><rect x="-781.3" y="-171.5" width="5.2" height="131.0" fill="#ff5826"/><rect x="-781.3" y="36.8" width="5.2" height="131.0" fill="#ff5826"/><rect x="-771.9" y="-176.8" width="5.2" height="136.3" fill="#ff6026"/><rect x="-771.9" y="36.8" width="5.2" height="136.3" fill="#ff6026"/><rect x="-762.4" y="-230.9" width="5.2" height="190.5" fill="#ff6726"/><rect x="-762.4" y="36.8" width="5.2" height="190.5" fill="#ff6726"/><rect x="-753.0" y="-263.1" width="5.2" height="222.6" fill="#ff6e26"/><rect x="-753.0" y="36.8" width="5.2" height="222.6" fill="#ff6e26"/><rect x="-743.6" y="-216.9" width="5.2" height="176.4" fill="#ff7526"/><rect x="-743.6" y="36.8" width="5.2" height="176.4" fill="#ff7526"/><rect x="-734.1" y="-152.4" width="5.2" height="111.9" fill="#ff7c26"/><rect x="-734.1" y="36.8" width="5.2" height="111.9" fill="#ff7c26"/><rect x="-724.7" y="-147.0" width="5.2" height="106.5" fill="#ff8426"/><rect x="-724.7" y="36.8" width="5.2" height="106.5" fill="#ff8426"/><rect x="-715.2" y="-173.3" width="5.2" height="132.8" fill="#ff8b26"/><rect x="-715.2" y="36.8" width="5.2" height="132.8" fill="#ff8b26"/><rect x="-705.8" y="-206.3" width="5.2" height="165.8" fill="#ff9226"/><rect x="-705.8" y="36.8" width="5.2" height="165.8" fill="#ff9226"/><rect x="-696.4" y="-246.0" width="5.2" height="205.5" fill="#ff9926"/><rect x="-696.4" y="36.8" width="5.2" height="205.5" fill="#ff9926"/><rect x="-686.9" y="-220.3" width="5.2" height="179.8" fill="#ffa126"/><rect x="-686.9" y="36.8" width="5.2" height="179.8" fill="#ffa126"/><rect x="-677.5" y="-79.8" width="5.2" height="39.3" fill="#ffa826"/><rect x="-677.5" y="36.8" width="5.2" height="39.3" fill="#ffa826"/><rect x="-668.1" y="-140.5" width="5.2" height="100.0" fill="#ffaf26"/><rect x="-668.1" y="36.8" width="5.2" height="100.0" fill="#ffaf26"/><rect x="-658.6" y="-263.3" width="5.2" height="222.8" fill="#ffb626"/><rect x="-658.6" y="36.8" width="5.2" height="222.8" fill="#ffb626"/><rect x="-649.2" y="-293.2" width="5.2" height="252.7" fill="#ffbd26"/><rect x="-649.2" y="36.8" width="5.2" height="252.7" fill="#ffbd26"/><rect x="-639.7" y="-233.5" width="5.2" height="193.0" fill="#ffc526"/><rect x="-639.7" y="36.8" width="5.2" height="193.0" fill="#ffc526"/><rect x="-630.3" y="-120.6" width="5.2" height="80.1" fill="#ffcc26"/><rect x="-630.3" y="36.8" width="5.2" height="80.1" fill="#ffcc26"/><rect x="-620.9" y="-123.7" width="5.2" height="83.3" fill="#ffd326"/><rect x="-620.9" y="36.8" width="5.2" height="83.3" fill="#ffd326"/><rect x="-611.4" y="-137.3" width="5.2" height="96.8" fill="#ffda26"/><rect x="-611.4" y="36.8" width="5.2" height="96.8" fill="#ffda26"/><rect x="-602.0" y="-142.0" width="5.2" height="101.5" fill="#ffe226"/><rect x="-602.0" y="36.8" width="5.2" height="101.5" fill="#ffe226"/><rect x="-592.5" y="-113.7" width="5.2" height="73.2" fill="#ffe926"/><rect x="-592.5" y="36.8" width="5.2" height="73.2" fill="#ffe926"/><rect x="-583.1" y="-95.3" width="5.2" height="54.8" fill="#fff026"/><rect x="-583.1" y="36.8" width="5.2" height="54.8" fill="#fff026"/><rect x="-573.7" y="-89.4" width="5.2" height="48.9" fill="#fff726"/><rect x="-573.7" y="36.8" width="5.2" height="48.9" fill="#fff726"/><rect x="-564.2" y="-145.9" width="5.2" height="105.4" fill="#ffff26"/><rect x="-564.2" y="36.8" width="5.2" height="105.4" fill="#ffff26"/><rect x="-554.8" y="-190.3" width="5.2" height="149.8" fill="#f7ff26"/><rect x="-554.8" y="36.8" width="5.2" height="149.8" fill="#f7ff26"/><rect x="-545.3" y="-198.4" width="5.2" height="157.9" fill="#f0ff26"/><rect x="-545.3" y="36.8" width="5.2" height="157.9" fill="#f0ff26"/><rect x="-535.9" y="-161.7" width="5.2" height="121.2" fill="#e9ff26"/><rect x="-535.9" y="36.8" width="5.2" height="121.2" fill="#e9ff26"/><rect x="-526.5" y="-122.9" width="5.2" height="82.4" fill="#e2ff26"/><rect x="-526.5" y="36.8" width="5.2" height="82.4" fill="#e2ff26"/><rect x="-517.0" y="-71.3" width="5.2" height="30.8" fill="#daff26"/><rect x="-517.0" y="36.8" width="5.2" height="30.8" fill="#daff26"/><rect x="-507.6" y="-102.6" width="5.2" height="62.1" fill="#d3ff26"/><rect x="-507.6" y="36.8" width="5.2" height="62.1" fill="#d3ff26"/><rect x="-498.1" y="-107.2" width="5.2" height="66.7" fill="#ccff26"/><rect x="-498.1" y="36.8" width="5.2" height="66.7" fill="#ccff26"/><rect x="-488.7" y="-81.7" width="5.2" height="41.2" fill="#c5ff26"/><rect x="-488.7" y="36.8" width="5.2" height="41.2" fill="#c5ff26"/><rect x="-479.3" y="-71.9" width="5.2" height="31.4" fill="#bdff26"/><rect x="-479.3" y="36.8" width="5.2" height="31.4" fill="#bdff26"/><rect x="-469.8" y="-104.4" width="5.2" height="63.9" fill="#b6ff26"/><rect x="-469.8" y="36.8" width="5.2" height="63.9" fill="#b6ff26"/><rect x="-460.4" y="-249.8" width="5.2" height="209.3" fill="#afff26"/><rect x="-460.4" y="36.8" width="5.2" height="209.3" fill="#afff26"/><rect x="-451.0" y="-307.5" width="5.2" height="267.0" fill="#a8ff26"/><rect x="-451.0" y="36.8" width="5.2" height="267.0" fill="#a8ff26"/><rect x="-441.5" y="-268.3" width="5.2" height="227.8" fill="#a1ff26"/><rect x="-441.5" y="36.8" width="5.2" height="227.8" fill="#a1ff26"/><rect x="-432.1" y="-190.8" width="5.2" height="150.3" fill="#99ff26"/><rect x="-432.1" y="36.8" width="5.2" height="150.3" fill="#99ff26"/><rect x="-422.6" y="-96.5" width="5.2" height="56.0" fill="#92ff26"/><rect x="-422.6" y="36.8" width="5.2" height="56.0" fill="#92ff26"/><rect x="-413.2" y="-93.7" width="5.2" height="53.2" fill="#8bff26"/><rect x="-413.2" y="36.8" width="5.2" height="53.2" fill="#8bff26"/><rect x="-403.8" y="-99.7" width="5.2" height="59.2" fill="#84ff26"/><rect x="-403.8" y="36.8" width="5.2" height="59.2" fill="#84ff26"/><rect x="-394.3" y="-105.1" width="5.2" height="64.6" fill="#7cff26"/><rect x="-394.3" y="36.8" width="5.2" height="64.6" fill="#7cff26"/><rect x="-384.9" y="-154.3" width="5.2" height="113.8" fill="#75ff26"/><rect x="-384.9" y="36.8" width="5.2" height="113.8" fill="#75ff26"/><rect x="-375.4" y="-171.8" width="5.2" height="131.3" fill="#6eff26"/><rect x="-375.4" y="36.8" width="5.2" height="131.3" fill="#6eff26"/><rect x="-366.0" y="-224.3" width="5.2" height="183.8" fill="#67ff26"/><rect x="-366.0" y="36.8" width="5.2" height="183.8" fill="#67ff26"/><rect x="-356.6" y="-337.2" width="5.2" height="296.7" fill="#60ff26"/><rect x="-356.6" y="36.8" width="5.2" height="296.7" fill="#60ff26"/><rect x="-347.1" y="-342.8" width="5.2" height="302.3" fill="#58ff26"/><rect x="-347.1" y="36.8" width="5.2" height="302.3" fill="#58ff26"/><rect x="-337.7" y="-245.1" width="5.2" height="204.6" fill="#51ff26"/><rect x="-337.7" y="36.8" width="5.2" height="204.6" fill="#51ff26"/><rect x="-328.2" y="-85.1" width="5.2" height="44.6" fill="#4aff26"/><rect x="-328.2" y="36.8" width="5.2" height="44.6" fill="#4aff26"/><rect x="-318.8" y="-64.1" width="5.2" height="23.6" fill="#43ff26"/><rect x="-318.8" y="36.8" width="5.2" height="23.6" fill="#43ff26"/><rect x="-309.4" y="-77.9" width="5.2" height="37.4" fill="#3bff26"/><rect x="-309.4" y="36.8" width="5.2" height="37.4" fill="#3bff26"/><rect x="-299.9" y="-77.1" width="5.2" height="36.6" fill="#34ff26"/><rect x="-299.9" y="36.8" width="5.2" height="36.6" fill="#34ff26"/><rect x="-290.5" y="-91.6" width="5.2" height="51.1" fill="#2dff26"/><rect x="-290.5" y="36.8" width="5.2" height="51.1" fill="#2dff26"/><rect x="-281.0" y="-114.9" width="5.2" height="74.4" fill="#26ff26"/><rect x="-281.0" y="36.8" width="5.2" height="74.4" fill="#26ff26"/><rect x="-271.6" y="-160.0" width="5.2" height="119.5" fill="#26ff2d"/><rect x="-271.6" y="36.8" width="5.2" height="119.5" fill="#26ff2d"/><rect x="-262.2" y="-150.3" width="5.2" height="109.8" fill="#26ff34"/><rect x="-262.2" y="36.8" width="5.2" height="109.8" fill="#26ff34"/><rect x="-252.7" y="-131.0" width="5.2" height="90.5" fill="#26ff3b"/><rect x="-252.7" y="36.8" width="5.2" height="90.5" fill="#26ff3b"/><rect x="-243.3" y="-159.3" width="5.2" height="118.8" fill="#26ff43"/><rect x="-243.3" y="36.8" width="5.2" height="118.8" fill="#26ff43"/><rect x="-233.9" y="-119.0" width="5.2" height="78.5" fill="#26ff4a"/><rect x="-233.9" y="36.8" width="5.2" height="78.5" fill="#26ff4a"/><rect x="-224.4" y="-70.3" width="5.2" height="29.8" fill="#26ff51"/><rect x="-224.4" y="36.8" width="5.2" height="29.8" fill="#26ff51"/><rect x="-215.0" y="-74.1" width="5.2" height="33.6" fill="#26ff58"/><rect x="-215.0" y="36.8" width="5.2" height="33.6" fill="#26ff58"/><rect x="-205.5" y="-135.4" width="5.2" height="94.9" fill="#26ff60"/><rect x="-205.5" y="36.8" width="5.2" height="94.9" fill="#26ff60"/><rect x="-196.1" y="-168.2" width="5.2" height="127.8" fill="#26ff67"/><rect x="-196.1" y="36.8" width="5.2" height="127.8" fill="#26ff67"/><rect x="-186.7" y="-119.3" width="5.2" height="78.8" fill="#26ff6e"/><rect x="-186.7" y="36.8" width="5.2" height="78.8" fill="#26ff6e"/><rect x="-177.2" y="-86.3" width="5.2" height="45.8" fill="#26ff75"/><rect x="-177.2" y="36.8" width="5.2" height="45.8" fill="#26ff75"/><rect x="-167.8" y="-68.3" width="5.2" height="27.8" fill="#26ff7c"/><rect x="-167.8" y="36.8" width="5.2" height="27.8" fill="#26ff7c"/><rect x="-158.3" y="-79.6" width="5.2" height="39.1" fill="#26ff84"/><rect x="-158.3" y="36.8" width="5.2" height="39.1" fill="#26ff84"/><rect x="-148.9" y="-190.9" width="5.2" height="150.4" fill="#26ff8b"/><rect x="-148.9" y="36.8" width="5.2" height="150.4" fill="#26ff8b"/><rect x="-139.5" y="-247.7" width="5.2" height="207.2" fill="#26ff92"/><rect x="-139.5" y="36.8" width="5.2" height="207.2" fill="#26ff92"/><rect x="-130.0" y="-188.6" width="5.2" height="148.1" fill="#26ff99"/><rect x="-130.0" y="36.8" width="5.2" height="148.1" fill="#26ff99"/><rect x="-120.6" y="-137.2" width="5.2" height="96.7" fill="#26ffa1"/><rect x="-120.6" y="36.8" width="5.2" height="96.7" fill="#26ffa1"/><rect x="-111.1" y="-124.3" width="5.2" height="83.8" fill="#26ffa8"/><rect x="-111.1" y="36.8" width="5.2" height="83.8" fill="#26ffa8"/><rect x="-101.7" y="-120.9" width="5.2" height="80.4" fill="#26ffaf"/><rect x="-101.7" y="36.8" width="5.2" height="80.4" fill="#26ffaf"/><rect x="-92.3" y="-193.4" width="5.2" height="152.9" fill="#26ffb6"/><rect x="-92.3" y="36.8" width="5.2" height="152.9" fill="#26ffb6"/><rect x="-82.8" y="-192.0" width="5.2" height="151.5" fill="#26ffbd"/><rect x="-82.8" y="36.8" width="5.2" height="151.5" fill="#26ffbd"/><rect x="-73.4" y="-119.0" width="5.2" height="78.5" fill="#26ffc5"/><rect x="-73.4" y="36.8" width="5.2" height="78.5" fill="#26ffc5"/><rect x="-63.9" y="-119.3" width="5.2" height="78.8" fill="#26ffcc"/><rect x="-63.9" y="36.8" width="5.2" height="78.8" fill="#26ffcc"/><rect x="-54.5" y="-125.0" width="5.2" height="84.5" fill="#26ffd3"/><rect x="-54.5" y="36.8" width="5.2" height="84.5" fill="#26ffd3"/><rect x="-45.1" y="-199.9" width="5.2" height="159.4" fill="#26ffda"/><rect x="-45.1" y="36.8" width="5.2" height="159.4" fill="#26ffda"/><rect x="-35.6" y="-166.3" width="5.2" height="125.8" fill="#26ffe2"/><rect x="-35.6" y="36.8" width="5.2" height="125.8" fill="#26ffe2"/><rect x="-26.2" y="-84.5" width="5.2" height="44.0" fill="#26ffe9"/><rect x="-26.2" y="36.8" width="5.2" height="44.0" fill="#26ffe9"/><rect x="-16.8" y="-78.7" width="5.2" height="38.2" fill="#26fff0"/><rect x="-16.8" y="36.8" width="5.2" height="38.2" fill="#26fff0"/><rect x="-7.3" y="-95.7" width="5.2" height="55.2" fill="#26fff7"/><rect x="-7.3" y="36.8" width="5.2" height="55.2" fill="#26fff7"/><rect x="2.1" y="-122.4" width="5.2" height="81.9" fill="#26ffff"/><rect x="2.1" y="36.8" width="5.2" height="81.9" fill="#26ffff"/><rect x="11.6" y="-96.9" width="5.2" height="56.4" fill="#26f7ff"/><rect x="11.6" y="36.8" width="5.2" height="56.4" fill="#26f7ff"/><rect x="21.0" y="-81.6" width="5.2" height="41.1" fill="#26f0ff"/><rect x="21.0" y="36.8" width="5.2" height="41.1" fill="#26f0ff"/><rect x="30.4" y="-138.8" width="5.2" height="98.3" fill="#26e9ff"/><rect x="30.4" y="36.8" width="5.2" height="98.3" fill="#26e9ff"/><rect x="39.9" y="-161.4" width="5.2" height="120.9" fill="#26e2ff"/><rect x="39.9" y="36.8" width="5.2" height="120.9" fill="#26e2ff"/><rect x="49.3" y="-138.2" width="5.2" height="97.7" fill="#26daff"/><rect x="49.3" y="36.8" width="5.2" height="97.7" fill="#26daff"/><rect x="58.8" y="-108.6" width="5.2" height="68.1" fill="#26d3ff"/><rect x="58.8" y="36.8" width="5.2" height="68.1" fill="#26d3ff"/><rect x="68.2" y="-156.1" width="5.2" height="115.6" fill="#26ccff"/><rect x="68.2" y="36.8" width="5.2" height="115.6" fill="#26ccff"/><rect x="77.6" y="-167.4" width="5.2" height="126.9" fill="#26c5ff"/><rect x="77.6" y="36.8" width="5.2" height="126.9" fill="#26c5ff"/><rect x="87.1" y="-130.7" width="5.2" height="90.2" fill="#26bdff"/><rect x="87.1" y="36.8" width="5.2" height="90.2" fill="#26bdff"/><rect x="96.5" y="-84.5" width="5.2" height="44.0" fill="#26b6ff"/><rect x="96.5" y="36.8" width="5.2" height="44.0" fill="#26b6ff"/><rect x="106.0" y="-100.3" width="5.2" height="59.8" fill="#26afff"/><rect x="106.0" y="36.8" width="5.2" height="59.8" fill="#26afff"/><rect x="115.4" y="-137.5" width="5.2" height="97.0" fill="#26a8ff"/><rect x="115.4" y="36.8" width="5.2" height="97.0" fill="#26a8ff"/><rect x="124.8" y="-162.1" width="5.2" height="121.6" fill="#26a1ff"/><rect x="124.8" y="36.8" width="5.2" height="121.6" fill="#26a1ff"/><rect x="134.3" y="-146.3" width="5.2" height="105.8" fill="#2699ff"/><rect x="134.3" y="36.8" width="5.2" height="105.8" fill="#2699ff"/><rect x="143.7" y="-134.3" width="5.2" height="93.8" fill="#2692ff"/><rect x="143.7" y="36.8" width="5.2" height="93.8" fill="#2692ff"/><rect x="153.1" y="-97.7" width="5.2" height="57.2" fill="#268bff"/><rect x="153.1" y="36.8" width="5.2" height="57.2" fill="#268bff"/><rect x="162.6" y="-99.6" width="5.2" height="59.1" fill="#2684ff"/><rect x="162.6" y="36.8" width="5.2" height="59.1" fill="#2684ff"/><rect x="172.0" y="-130.6" width="5.2" height="90.2" fill="#267cff"/><rect x="172.0" y="36.8" width="5.2" height="90.2" fill="#267cff"/><rect x="181.5" y="-112.7" width="5.2" height="72.2" fill="#2675ff"/><rect x="181.5" y="36.8" width="5.2" height="72.2" fill="#2675ff"/><rect x="190.9" y="-174.0" width="5.2" height="133.5" fill="#266eff"/><rect x="190.9" y="36.8" width="5.2" height="133.5" fill="#266eff"/><rect x="200.3" y="-206.0" width="5.2" height="165.5" fill="#2667ff"/><rect x="200.3" y="36.8" width="5.2" height="165.5" fill="#2667ff"/><rect x="209.8" y="-146.0" width="5.2" height="105.5" fill="#2660ff"/><rect x="209.8" y="36.8" width="5.2" height="105.5" fill="#2660ff"/><rect x="219.2" y="-157.8" width="5.2" height="117.3" fill="#2658ff"/><rect x="219.2" y="36.8" width="5.2" height="117.3" fill="#2658ff"/><rect x="228.7" y="-143.7" width="5.2" height="103.2" fill="#2651ff"/><rect x="228.7" y="36.8" width="5.2" height="103.2" fill="#2651ff"/><rect x="238.1" y="-99.1" width="5.2" height="58.6" fill="#264aff"/><rect x="238.1" y="36.8" width="5.2" height="58.6" fill="#264aff"/><rect x="247.5" y="-154.5" width="5.2" height="114.0" fill="#2643ff"/><rect x="247.5" y="36.8" width="5.2" height="114.0" fill="#2643ff"/><rect x="257.0" y="-112.8" width="5.2" height="72.3" fill="#263bff"/><rect x="257.0" y="36.8" width="5.2" height="72.3" fill="#263bff"/><rect x="266.4" y="-85.3" width="5.2" height="44.8" fill="#2634ff"/><rect x="266.4" y="36.8" width="5.2" height="44.8" fill="#2634ff"/><rect x="275.9" y="-84.5" width="5.2" height="44.0" fill="#262dff"/><rect x="275.9" y="36.8" width="5.2" height="44.0" fill="#262dff"/><rect x="285.3" y="-107.0" width="5.2" height="66.5" fill="#2626ff"/><rect x="285.3" y="36.8" width="5.2" height="66.5" fill="#2626ff"/><rect x="294.7" y="-146.8" width="5.2" height="106.3" fill="#2d26ff"/><rect x="294.7" y="36.8" width="5.2" height="106.3" fill="#2d26ff"/><rect x="304.2" y="-105.6" width="5.2" height="65.1" fill="#3426ff"/><rect x="304.2" y="36.8" width="5.2" height="65.1" fill="#3426ff"/><rect x="313.6" y="-138.8" width="5.2" height="98.3" fill="#3b26ff"/><rect x="313.6" y="36.8" width="5.2" height="98.3" fill="#3b26ff"/><rect x="323.1" y="-128.0" width="5.2" height="87.5" fill="#4326ff"/><rect x="323.1" y="36.8" width="5.2" height="87.5" fill="#4326ff"/><rect x="332.5" y="-143.1" width="5.2" height="102.6" fill="#4a26ff"/><rect x="332.5" y="36.8" width="5.2" height="102.6" fill="#4a26ff"/><rect x="341.9" y="-106.6" width="5.2" height="66.1" fill="#5126ff"/><rect x="341.9" y="36.8" width="5.2" height="66.1" fill="#5126ff"/><rect x="351.4" y="-100.2" width="5.2" height="59.7" fill="#5826ff"/><rect x="351.4" y="36.8" width="5.2" height="59.7" fill="#5826ff"/><rect x="360.8" y="-74.5" width="5.2" height="34.0" fill="#6026ff"/><rect x="360.8" y="36.8" width="5.2" height="34.0" fill="#6026ff"/><rect x="370.2" y="-103.5" width="5.2" height="63.0" fill="#6726ff"/><rect x="370.2" y="36.8" width="5.2" height="63.0" fill="#6726ff"/><rect x="379.7" y="-96.9" width="5.2" height="56.4" fill="#6e26ff"/><rect x="379.7" y="36.8" width="5.2" height="56.4" fill="#6e26ff"/><rect x="389.1" y="-95.4" width="5.2" height="54.9" fill="#7526ff"/><rect x="389.1" y="36.8" width="5.2" height="54.9" fill="#7526ff"/><rect x="398.6" y="-84.1" width="5.2" height="43.6" fill="#7c26ff"/><rect x="398.6" y="36.8" width="5.2" height="43.6" fill="#7c26ff"/><rect x="408.0" y="-73.6" width="5.2" height="33.1" fill="#8426ff"/><rect x="408.0" y="36.8" width="5.2" height="33.1" fill="#8426ff"/><rect x="417.4" y="-64.3" width="5.2" height="23.8" fill="#8b26ff"/><rect x="417.4" y="36.8" width="5.2" height="23.8" fill="#8b26ff"/><rect x="426.9" y="-76.9" width="5.2" height="36.4" fill="#9226ff"/><rect x="426.9" y="36.8" width="5.2" height="36.4" fill="#9226ff"/><rect x="436.3" y="-58.6" width="5.2" height="18.1" fill="#9926ff"/><rect x="436.3" y="36.8" width="5.2" height="18.1" fill="#9926ff"/><rect x="445.8" y="-61.7" width="5.2" height="21.2" fill="#a126ff"/><rect x="445.8" y="36.8" width="5.2" height="21.2" fill="#a126ff"/><rect x="455.2" y="-76.1" width="5.2" height="35.6" fill="#a826ff"/><rect x="455.2" y="36.8" width="5.2" height="35.6" fill="#a826ff"/><rect x="464.6" y="-80.2" width="5.2" height="39.7" fill="#af26ff"/><rect x="464.6" y="36.8" width="5.2" height="39.7" fill="#af26ff"/><rect x="474.1" y="-86.6" width="5.2" height="46.1" fill="#b626ff"/><rect x="474.1" y="36.8" width="5.2" height="46.1" fill="#b626ff"/><rect x="483.5" y="-87.9" width="5.2" height="47.4" fill="#bd26ff"/><rect x="483.5" y="36.8" width="5.2" height="47.4" fill="#bd26ff"/><rect x="493.0" y="-71.1" width="5.2" height="30.6" fill="#c526ff"/><rect x="493.0" y="36.8" width="5.2" height="30.6" fill="#c526ff"/><rect x="502.4" y="-65.1" width="5.2" height="24.6" fill="#cc26ff"/><rect x="502.4" y="36.8" width="5.2" height="24.6" fill="#cc26ff"/><rect x="511.8" y="-72.9" width="5.2" height="32.4" fill="#d326ff"/><rect x="511.8" y="36.8" width="5.2" height="32.4" fill="#d326ff"/><rect x="521.3" y="-80.1" width="5.2" height="39.6" fill="#da26ff"/><rect x="521.3" y="36.8" width="5.2" height="39.6" fill="#da26ff"/><rect x="530.7" y="-95.8" width="5.2" height="55.3" fill="#e226ff"/><rect x="530.7" y="36.8" width="5.2" height="55.3" fill="#e226ff"/><rect x="540.2" y="-80.4" width="5.2" height="39.9" fill="#e926ff"/><rect x="540.2" y="36.8" width="5.2" height="39.9" fill="#e926ff"/><rect x="549.6" y="-54.0" width="5.2" height="13.5" fill="#f026ff"/><rect x="549.6" y="36.8" width="5.2" height="13.5" fill="#f026ff"/><rect x="559.0" y="-66.0" width="5.2" height="25.5" fill="#f726ff"/><rect x="559.0" y="36.8" width="5.2" height="25.5" fill="#f726ff"/><rect x="568.5" y="-54.0" width="5.2" height="13.5" fill="#ff26ff"/><rect x="568.5" y="36.8" width="5.2" height="13.5" fill="#ff26ff"/><rect x="577.9" y="-65.5" width="5.2" height="25.0" fill="#ff26f7"/><rect x="577.9" y="36.8" width="5.2" height="25.0" fill="#ff26f7"/><rect x="587.3" y="-74.2" width="5.2" height="33.8" fill="#ff26f0"/><rect x="587.3" y="36.8" width="5.2" height="33.8" fill="#ff26f0"/><rect x="596.8" y="-104.1" width="5.2" height="63.6" fill="#ff26e9"/><rect x="596.8" y="36.8" width="5.2" height="63.6" fill="#ff26e9"/><rect x="606.2" y="-105.3" width="5.2" height="64.8" fill="#ff26e2"/><rect x="606.2" y="36.8" width="5.2" height="64.8" fill="#ff26e2"/><rect x="615.7" y="-122.7" width="5.2" height="82.2" fill="#ff26da"/><rect x="615.7" y="36.8" width="5.2" height="82.2" fill="#ff26da"/><rect x="625.1" y="-128.4" width="5.2" height="87.9" fill="#ff26d3"/><rect x="625.1" y="36.8" width="5.2" height="87.9" fill="#ff26d3"/><rect x="634.5" y="-122.2" width="5.2" height="81.7" fill="#ff26cc"/><rect x="634.5" y="36.8" width="5.2" height="81.7" fill="#ff26cc"/><rect x="644.0" y="-108.9" width="5.2" height="68.4" fill="#ff26c5"/><rect x="644.0" y="36.8" width="5.2" height="68.4" fill="#ff26c5"/><rect x="653.4" y="-109.2" width="5.2" height="68.7" fill="#ff26bd"/><rect x="653.4" y="36.8" width="5.2" height="68.7" fill="#ff26bd"/><rect x="662.9" y="-77.9" width="5.2" height="37.4" fill="#ff26b6"/><rect x="662.9" y="36.8" width="5.2" height="37.4" fill="#ff26b6"/><rect x="672.3" y="-70.8" width="5.2" height="30.3" fill="#ff26af"/><rect x="672.3" y="36.8" width="5.2" height="30.3" fill="#ff26af"/><rect x="681.7" y="-114.1" width="5.2" height="73.7" fill="#ff26a8"/><rect x="681.7" y="36.8" width="5.2" height="73.7" fill="#ff26a8"/><rect x="691.2" y="-109.2" width="5.2" height="68.7" fill="#ff26a1"/><rect x="691.2" y="36.8" width="5.2" height="68.7" fill="#ff26a1"/><rect x="700.6" y="-89.7" width="5.2" height="49.2" fill="#ff2699"/><rect x="700.6" y="36.8" width="5.2" height="49.2" fill="#ff2699"/><rect x="710.1" y="-122.3" width="5.2" height="81.8" fill="#ff2692"/><rect x="710.1" y="36.8" width="5.2" height="81.8" fill="#ff2692"/><rect x="719.5" y="-194.4" width="5.2" height="153.9" fill="#ff268b"/><rect x="719.5" y="36.8" width="5.2" height="153.9" fill="#ff268b"/><rect x="728.9" y="-161.2" width="5.2" height="120.7" fill="#ff2684"/><rect x="728.9" y="36.8" width="5.2" height="120.7" fill="#ff2684"/><rect x="738.4" y="-161.0" width="5.2" height="120.5" fill="#ff267c"/><rect x="738.4" y="36.8" width="5.2" height="120.5" fill="#ff267c"/><rect x="747.8" y="-164.6" width="5.2" height="124.1" fill="#ff2675"/><rect x="747.8" y="36.8" width="5.2" height="124.1" fill="#ff2675"/><rect x="757.3" y="-168.0" width="5.2" height="127.5" fill="#ff266e"/><rect x="757.3" y="36.8" width="5.2" height="127.5" fill="#ff266e"/><rect x="766.7" y="-125.8" width="5.2" height="85.3" fill="#ff2667"/><rect x="766.7" y="36.8" width="5.2" height="85.3" fill="#ff2667"/><rect x="776.1" y="-122.3" width="5.2" height="81.8" fill="#ff2660"/><rect x="776.1" y="36.8" width="5.2" height="81.8" fill="#ff2660"/><rect x="785.6" y="-109.0" width="5.2" height="68.6" fill="#ff2658"/><rect x="785.6" y="36.8" width="5.2" height="68.6" fill="#ff2658"/><rect x="795.0" y="-86.6" width="5.2" height="46.1" fill="#ff2651"/><rect x="795.0" y="36.8" width="5.2" height="46.1" fill="#ff2651"/><rect x="804.4" y="-78.1" width="5.2" height="37.6" fill="#ff264a"/><rect x="804.4" y="36.8" width="5.2" height="37.6" fill="#ff264a"/><rect x="813.9" y="-62.5" width="5.2" height="22.0" fill="#ff2643"/><rect x="813.9" y="36.8" width="5.2" height="22.0" fill="#ff2643"/><rect x="823.3" y="-59.7" width="5.2" height="19.2" fill="#ff263b"/><rect x="823.3" y="36.8" width="5.2" height="19.2" fill="#ff263b"/><rect x="832.8" y="-53.9" width="5.2" height="13.4" fill="#ff2634"/><rect x="832.8" y="36.8" width="5.2" height="13.4" fill="#ff2634"/><rect x="842.2" y="-54.3" width="5.2" height="13.8" fill="#ff262d"/><rect x="842.2" y="36.8" width="5.2" height="13.8" fill="#ff262d"/></g></svg>