<svg width="800" height="800" viewBox="0 0 800 800" xmlns="http://www.w3.org/2000/svg"><g transform="translate(400.16, 405.32) scale(1.39639)"><polygon points="-28.71,-28.71 -8.62,-23.33 -23.33,-8.62" fill="none" stroke="#000000" stroke-width="6" stroke-linejoin="round"/><polygon points="40.06,-7.97 59.27,0.99 41.90,13.15" fill="none" stroke="#000000" stroke-width="6" stroke-linejoin="round"/><polygon points="-48.29,24.41 -30.16,37.10 -50.22,46.45" fill="none" stroke="#000000" stroke-width="6" stroke-linejoin="round"/><polygon points="4.84,-77.32 21.78,-60.38 -1.36,-54.18" fill="none" stroke="#000000" stroke-width="6" stroke-linejoin="round"/><polygon points="39.68,43.94 54.19,64.66 28.99,66.87" fill="none" stroke="#000000" stroke-width="6" stroke-linejoin="round"/><polygon points="-72.51,-30.88 -61.83,-7.99 -87.00,-10.19" fill="none" stroke="#000000" stroke-width="6" stroke-linejoin="round"/><polygon points="75.57,-56.49 82.63,-30.14 56.28,-37.20" fill="none" stroke="#000000" stroke-width="6" stroke-linejoin="round"/><polygon points="-20.92,75.06 -17.89,109.71 -49.41,95.01" fill="none" stroke="#000000" stroke-width="6" stroke-linejoin="round"/><polygon points="-38.84,-151.92 -43.90,-94.14 -91.41,-127.41" fill="none" stroke="#000000" stroke-width="6" stroke-linejoin="round"/><polygon points="168.61,31.62 151.48,95.56 104.67,48.75" fill="none" stroke="#000000" stroke-width="6" stroke-linejoin="round"/><polygon points="-119.08,32.23 -148.60,95.54 -188.67,38.32" fill="none" stroke="#000000" stroke-width="6" stroke-linejoin="round"/><polygon points="81.77,-122.73 55.89,-85.77 36.82,-126.66" fill="none" stroke="#000000" stroke-width="6" stroke-linejoin="round"/><polygon points="43.23,95.95 22.50,116.67 14.92,88.37" fill="none" stroke="#000000" stroke-width="6" stroke-linejoin="round"/><polygon points="-76.09,-62.49 -103.63,-43.20 -106.56,-76.70" fill="none" stroke="#000000" stroke-width="6" stroke-linejoin="round"/><polygon points="136.32,-18.71 104.50,-3.87 107.56,-38.85" fill="none" stroke="#000000" stroke-width="6" stroke-linejoin="round"/><polygon points="-52.54,96.81 -83.78,105.18 -75.41,73.94" fill="none" stroke="#000000" stroke-width="6" stroke-linejoin="round"/><polygon points="6.26,-108.64 -25.03,-105.91 -11.76,-134.38" fill="none" stroke="#000000" stroke-width="6" stroke-linejoin="round"/><polygon points="99.23,87.93 69.98,85.37 86.82,61.31" fill="none" stroke="#000000" stroke-width="6" stroke-linejoin="round"/><polygon points="-110.75,13.70 -143.17,5.02 -119.44,-18.72" fill="none" stroke="#000000" stroke-width="6" stroke-linejoin="round"/><polygon points="128.17,-78.96 83.24,-99.91 123.85,-128.34" fill="none" stroke="#000000" stroke-width="6" stroke-linejoin="round"/><polygon points="-1.36,177.52 -41.41,149.48 2.90,128.82" fill="none" stroke="#000000" stroke-width="6" stroke-linejoin="round"/><polygon points="-76.59,-86.66 -102.20,-112.28 -67.21,-121.65" fill="none" stroke="#000000" stroke-width="6" stroke-linejoin="round"/><polygon points="116.19,33.81 102.69,14.54 126.13,12.49" fill="none" stroke="#000000" stroke-width="6" stroke-linejoin="round"/><polygon points="-103.27,79.37 -113.83,56.71 -88.93,58.89" fill="none" stroke="#000000" stroke-width="6" stroke-linejoin="round"/><polygon points="29.78,-111.15 21.55,-141.86 52.27,-133.64" fill="none" stroke="#000000" stroke-width="6" stroke-linejoin="round"/><polygon points="54.74,136.79 51.96,105.01 80.86,118.49" fill="none" stroke="#000000" stroke-width="6" stroke-linejoin="round"/><polygon points="-134.26,-31.65 -131.73,-60.55 -107.97,-43.91" fill="none" stroke="#000000" stroke-width="6" stroke-linejoin="round"/><polygon points="108.66,-38.92 115.26,-63.53 133.28,-45.51" fill="none" stroke="#000000" stroke-width="6" stroke-linejoin="round"/><polygon points="-84.73,153.75 -67.44,116.68 -43.97,150.19" fill="none" stroke="#000000" stroke-width="6" stroke-linejoin="round"/><polygon points="-79.39,-152.92 -49.60,-195.46 -27.65,-148.39" fill="none" stroke="#000000" stroke-width="6" stroke-linejoin="round"/><polygon points="123.12,95.74 160.10,58.75 173.64,109.27" fill="none" stroke="#000000" stroke-width="6" stroke-linejoin="round"/><polygon points="-182.66,37.22 -147.88,12.86 -144.17,55.16" fill="none" stroke="#000000" stroke-width="6" stroke-linejoin="round"/><polygon points="63.97,-113.52 87.01,-124.27 84.80,-98.94" fill="none" stroke="#000000" stroke-width="6" stroke-linejoin="round"/><polygon points="3.12,136.73 29.83,129.57 22.68,156.28" fill="none" stroke="#000000" stroke-width="6" stroke-linejoin="round"/><polygon points="-124.08,-98.77 -96.77,-101.16 -108.36,-76.31" fill="none" stroke="#000000" stroke-width="6" stroke-linejoin="round"/><polygon points="125.76,-13.23 147.66,-11.31 135.05,6.70" fill="none" stroke="#000000" stroke-width="6" stroke-linejoin="round"/><polygon points="-105.73,88.14 -84.92,93.72 -100.15,108.94" fill="none" stroke="#000000" stroke-width="6" stroke-linejoin="round"/><polygon points="-1.40,-151.06 19.20,-141.45 0.58,-128.41" fill="none" stroke="#000000" stroke-width="6" stroke-linejoin="round"/><polygon points="91.46,101.94 116.32,119.35 88.82,132.18" fill="none" stroke="#000000" stroke-width="6" stroke-linejoin="round"/><polygon points="-198.86,-55.30 -160.59,-17.03 -212.87,-3.02" fill="none" stroke="#000000" stroke-width="6" stroke-linejoin="round"/><polygon points="165.70,-153.83 201.23,-103.09 139.51,-97.69" fill="none" stroke="#000000" stroke-width="6" stroke-linejoin="round"/><polygon points="-38.39,155.71 -17.20,201.16 -67.15,196.79" fill="none" stroke="#000000" stroke-width="6" stroke-linejoin="round"/><polygon points="-76.48,-158.90 -68.10,-127.63 -99.37,-136.01" fill="none" stroke="#000000" stroke-width="6" stroke-linejoin="round"/><polygon points="148.77,32.85 150.81,56.18 129.59,46.28" fill="none" stroke="#000000" stroke-width="6" stroke-linejoin="round"/><polygon points="-127.62,52.58 -129.51,74.25 -147.33,61.77" fill="none" stroke="#000000" stroke-width="6" stroke-linejoin="round"/><polygon points="65.88,-146.75 60.36,-126.15 45.29,-141.23" fill="none" stroke="#000000" stroke-width="6" stroke-linejoin="round"/><polygon points="61.45,134.38 52.52,153.53 40.40,136.22" fill="none" stroke="#000000" stroke-width="6" stroke-linejoin="round"/><polygon points="-123.57,-75.24 -135.69,-57.92 -144.63,-77.09" fill="none" stroke="#000000" stroke-width="6" stroke-linejoin="round"/><polygon points="166.60,-44.64 149.28,-27.31 142.93,-50.98" fill="none" stroke="#000000" stroke-width="6" stroke-linejoin="round"/><polygon points="-73.24,140.92 -98.18,158.39 -100.84,128.06" fill="none" stroke="#000000" stroke-width="6" stroke-linejoin="round"/><polygon points="-11.09,-170.73 -41.52,-156.53 -38.59,-189.99" fill="none" stroke="#000000" stroke-width="6" stroke-linejoin="round"/><polygon points="155.47,110.43 124.73,118.67 132.96,87.93" fill="none" stroke="#000000" stroke-width="6" stroke-linejoin="round"/><polygon points="-150.30,20.35 -175.06,22.52 -164.56,-0.00" fill="none" stroke="#000000" stroke-width="6" stroke-linejoin="round"/><polygon points="117.96,-110.66 96.71,-112.52 108.95,-129.99" fill="none" stroke="#000000" stroke-width="6" stroke-linejoin="round"/><polygon points="8.71,169.60 -11.90,164.08 3.19,148.99" fill="none" stroke="#000000" stroke-width="6" stroke-linejoin="round"/><polygon points="-102.38,-109.36 -121.62,-118.33 -104.23,-130.51" fill="none" stroke="#000000" stroke-width="6" stroke-linejoin="round"/><polygon points="167.19,25.14 150.03,13.13 169.01,4.27" fill="none" stroke="#000000" stroke-width="6" stroke-linejoin="round"/><polygon points="-135.31,123.10 -155.58,102.83 -127.89,95.41" fill="none" stroke="#000000" stroke-width="6" stroke-linejoin="round"/><polygon points="35.77,-168.64 12.97,-201.20 52.56,-204.66" fill="none" stroke="#000000" stroke-width="6" stroke-linejoin="round"/><polygon points="105.23,192.94 87.30,154.48 129.57,158.18" fill="none" stroke="#000000" stroke-width="6" stroke-linejoin="round"/><polygon points="-184.58,-29.82 -193.08,-61.55 -161.35,-53.05" fill="none" stroke="#000000" stroke-width="6" stroke-linejoin="round"/><polygon points="146.96,-67.31 144.94,-90.42 165.96,-80.62" fill="none" stroke="#000000" stroke-width="6" stroke-linejoin="round"/><polygon points="-68.24,176.68 -66.08,152.06 -45.84,166.23" fill="none" stroke="#000000" stroke-width="6" stroke-linejoin="round"/><polygon points="-78.38,-153.85 -71.81,-178.36 -53.87,-160.42" fill="none" stroke="#000000" stroke-width="6" stroke-linejoin="round"/><polygon points="152.23,86.22 163.90,61.19 179.74,83.82" fill="none" stroke="#000000" stroke-width="6" stroke-linejoin="round"/><polygon points="-200.83,65.95 -181.75,38.70 -167.69,68.85" fill="none" stroke="#000000" stroke-width="6" stroke-linejoin="round"/><polygon points="80.30,-174.03 110.57,-204.30 121.65,-162.95" fill="none" stroke="#000000" stroke-width="6" stroke-linejoin="round"/><polygon points="21.92,198.56 52.79,176.94 56.08,214.49" fill="none" stroke="#000000" stroke-width="6" stroke-linejoin="round"/><polygon points="-171.66,-109.94 -145.27,-122.24 -147.81,-93.24" fill="none" stroke="#000000" stroke-width="6" stroke-linejoin="round"/><polygon points="171.22,-28.78 198.26,-36.02 191.01,-8.99" fill="none" stroke="#000000" stroke-width="6" stroke-linejoin="round"/><polygon points="-135.18,137.55 -108.13,135.18 -119.61,159.79" fill="none" stroke="#000000" stroke-width="6" stroke-linejoin="round"/><polygon points="-20.94,-197.53 5.82,-195.19 -9.59,-173.18" fill="none" stroke="#000000" stroke-width="6" stroke-linejoin="round"/><polygon points="125.70,125.70 154.99,133.55 133.55,154.99" fill="none" stroke="#000000" stroke-width="6" stroke-linejoin="round"/><polygon points="-208.13,-23.46 -179.72,-10.21 -205.40,7.77" fill="none" stroke="#000000" stroke-width="6" stroke-linejoin="round"/><polygon points="144.26,-143.47 169.49,-125.80 141.57,-112.78" fill="none" stroke="#000000" stroke-width="6" stroke-linejoin="round"/><polygon points="-30.95,181.27 -8.46,203.76 -39.18,211.99" fill="none" stroke="#000000" stroke-width="6" stroke-linejoin="round"/><polygon points="-120.13,-189.06 -100.19,-160.58 -134.82,-157.55" fill="none" stroke="#000000" stroke-width="6" stroke-linejoin="round"/><polygon points="201.64,25.29 215.64,55.30 182.65,52.41" fill="none" stroke="#000000" stroke-width="6" stroke-linejoin="round"/><polygon points="-179.64,85.63 -169.71,122.69 -206.77,112.76" fill="none" stroke="#000000" stroke-width="6" stroke-linejoin="round"/><polygon points="70.84,-216.18 73.79,-182.41 43.07,-196.74" fill="none" stroke="#000000" stroke-width="6" stroke-linejoin="round"/><polygon points="93.95,168.09 91.49,196.19 68.38,180.01" fill="none" stroke="#000000" stroke-width="6" stroke-linejoin="round"/><polygon points="-171.52,-85.76 -178.12,-61.15 -196.13,-79.16" fill="none" stroke="#000000" stroke-width="6" stroke-linejoin="round"/><polygon points="201.64,-77.74 190.09,-52.96 174.40,-75.36" fill="none" stroke="#000000" stroke-width="6" stroke-linejoin="round"/><polygon points="-79.12,173.72 -95.49,197.11 -107.56,171.23" fill="none" stroke="#000000" stroke-width="6" stroke-linejoin="round"/><polygon points="-37.05,-201.95 -57.23,-181.77 -64.62,-209.33" fill="none" stroke="#000000" stroke-width="6" stroke-linejoin="round"/><polygon points="187.58,108.11 165.18,123.79 162.80,96.55" fill="none" stroke="#000000" stroke-width="6" stroke-linejoin="round"/><polygon points="-190.18,38.36 -218.98,51.79 -216.21,20.12" fill="none" stroke="#000000" stroke-width="6" stroke-linejoin="round"/><polygon points="149.14,-165.37 117.18,-156.81 125.74,-188.77" fill="none" stroke="#000000" stroke-width="6" stroke-linejoin="round"/><polygon points="33.67,216.23 4.39,218.79 16.81,192.15" fill="none" stroke="#000000" stroke-width="6" stroke-linejoin="round"/><polygon points="-141.37,-132.52 -170.44,-135.07 -153.70,-158.97" fill="none" stroke="#000000" stroke-width="6" stroke-linejoin="round"/><polygon points="228.59,13.00 197.83,4.76 220.35,-17.76" fill="none" stroke="#000000" stroke-width="6" stroke-linejoin="round"/><polygon points="-148.57,160.37 -176.85,147.18 -151.29,129.28" fill="none" stroke="#000000" stroke-width="6" stroke-linejoin="round"/><polygon points="26.89,-200.42 0.44,-218.94 29.70,-232.58" fill="none" stroke="#000000" stroke-width="6" stroke-linejoin="round"/><polygon points="134.46,185.71 114.02,165.28 141.93,157.80" fill="none" stroke="#000000" stroke-width="6" stroke-linejoin="round"/><polygon points="-211.92,-20.27 -229.25,-45.00 -199.16,-47.64" fill="none" stroke="#000000" stroke-width="6" stroke-linejoin="round"/><polygon points="179.62,-99.07 167.67,-124.71 195.85,-122.24" fill="none" stroke="#000000" stroke-width="6" stroke-linejoin="round"/><polygon points="-64.07,239.10 -73.28,204.73 -38.90,213.94" fill="none" stroke="#000000" stroke-width="6" stroke-linejoin="round"/><polygon points="-110.86,-180.80 -113.69,-213.10 -84.30,-199.40" fill="none" stroke="#000000" stroke-width="6" stroke-linejoin="round"/><polygon points="200.76,92.90 203.67,59.61 231.05,78.78" fill="none" stroke="#000000" stroke-width="6" stroke-linejoin="round"/><polygon points="-222.97,100.38 -214.29,67.98 -190.57,91.70" fill="none" stroke="#000000" stroke-width="6" stroke-linejoin="round"/><polygon points="81.30,-201.11 97.86,-236.61 120.32,-204.52" fill="none" stroke="#000000" stroke-width="6" stroke-linejoin="round"/><polygon points="50.81,235.38 73.18,203.44 89.65,238.78" fill="none" stroke="#000000" stroke-width="6" stroke-linejoin="round"/><polygon points="-214.52,-108.70 -191.79,-131.43 -183.47,-100.38" fill="none" stroke="#000000" stroke-width="6" stroke-linejoin="round"/><polygon points="208.24,-48.99 238.22,-69.98 241.41,-33.52" fill="none" stroke="#000000" stroke-width="6" stroke-linejoin="round"/><polygon points="-162.44,196.42 -125.47,179.18 -129.02,219.82" fill="none" stroke="#000000" stroke-width="6" stroke-linejoin="round"/><polygon points="-52.13,-241.92 -15.72,-251.67 -25.47,-215.26" fill="none" stroke="#000000" stroke-width="6" stroke-linejoin="round"/><polygon points="162.91,143.87 199.57,140.67 184.01,174.02" fill="none" stroke="#000000" stroke-width="6" stroke-linejoin="round"/><polygon points="-244.36,-0.29 -213.32,2.42 -231.19,27.95" fill="none" stroke="#000000" stroke-width="6" stroke-linejoin="round"/><polygon points="151.47,-178.16 183.04,-169.70 159.93,-146.59" fill="none" stroke="#000000" stroke-width="6" stroke-linejoin="round"/><polygon points="-23.08,223.85 11.19,239.83 -19.78,261.52" fill="none" stroke="#000000" stroke-width="6" stroke-linejoin="round"/><polygon points="-165.64,-206.25 -134.45,-184.41 -168.95,-168.32" fill="none" stroke="#000000" stroke-width="6" stroke-linejoin="round"/><polygon points="232.41,11.61 257.36,36.56 223.27,45.70" fill="none" stroke="#000000" stroke-width="6" stroke-linejoin="round"/><polygon points="-203.47,118.81 -181.24,150.57 -219.86,153.95" fill="none" stroke="#000000" stroke-width="6" stroke-linejoin="round"/><polygon points="54.45,-258.29 69.83,-225.32 33.58,-228.49" fill="none" stroke="#000000" stroke-width="6" stroke-linejoin="round"/><polygon points="127.41,190.98 136.82,226.12 101.69,216.70" fill="none" stroke="#000000" stroke-width="6" stroke-linejoin="round"/><polygon points="-218.63,-87.90 -215.88,-56.42 -244.52,-69.78" fill="none" stroke="#000000" stroke-width="6" stroke-linejoin="round"/><polygon points="225.88,-115.32 223.15,-84.08 197.46,-102.07" fill="none" stroke="#000000" stroke-width="6" stroke-linejoin="round"/><polygon points="-78.97,210.17 -87.72,242.82 -111.62,218.92" fill="none" stroke="#000000" stroke-width="6" stroke-linejoin="round"/><polygon points="-66.83,-228.74 -78.53,-203.66 -94.40,-226.33" fill="none" stroke="#000000" stroke-width="6" stroke-linejoin="round"/><polygon points="225.77,102.35 208.91,126.43 196.49,99.79" fill="none" stroke="#000000" stroke-width="6" stroke-linejoin="round"/><polygon points="-214.51,57.48 -236.04,79.01 -243.92,49.59" fill="none" stroke="#000000" stroke-width="6" stroke-linejoin="round"/><polygon points="148.75,-206.31 122.63,-188.02 119.85,-219.79" fill="none" stroke="#000000" stroke-width="6" stroke-linejoin="round"/><polygon points="60.79,241.73 31.72,255.29 34.51,223.33" fill="none" stroke="#000000" stroke-width="6" stroke-linejoin="round"/><polygon points="-177.42,-145.57 -210.14,-136.80 -201.37,-169.53" fill="none" stroke="#000000" stroke-width="6" stroke-linejoin="round"/><polygon points="267.75,-13.23 232.70,-10.16 247.57,-42.05" fill="none" stroke="#000000" stroke-width="6" stroke-linejoin="round"/><polygon points="-150.96,191.60 -182.54,188.84 -164.36,162.87" fill="none" stroke="#000000" stroke-width="6" stroke-linejoin="round"/><polygon points="11.50,-229.44 -15.72,-236.73 4.21,-256.65" fill="none" stroke="#000000" stroke-width="6" stroke-linejoin="round"/><polygon points="170.26,188.76 146.28,177.58 167.96,162.40" fill="none" stroke="#000000" stroke-width="6" stroke-linejoin="round"/><polygon points="-230.90,-7.52 -251.59,-22.01 -228.70,-32.69" fill="none" stroke="#000000" stroke-width="6" stroke-linejoin="round"/><polygon points="191.55,-130.79 174.52,-147.82 197.78,-154.05" fill="none" stroke="#000000" stroke-width="6" stroke-linejoin="round"/><polygon points="-40.46,251.73 -55.30,230.53 -29.52,228.28" fill="none" stroke="#000000" stroke-width="6" stroke-linejoin="round"/><polygon points="-132.03,-189.52 -143.48,-214.07 -116.49,-211.71" fill="none" stroke="#000000" stroke-width="6" stroke-linejoin="round"/><polygon points="233.01,79.24 225.73,52.08 252.89,59.36" fill="none" stroke="#000000" stroke-width="6" stroke-linejoin="round"/><polygon points="-226.77,129.53 -229.30,100.67 -203.04,112.91" fill="none" stroke="#000000" stroke-width="6" stroke-linejoin="round"/><polygon points="75.53,-220.50 78.12,-250.10 102.46,-233.06" fill="none" stroke="#000000" stroke-width="6" stroke-linejoin="round"/><polygon points="83.62,242.82 91.22,214.45 111.99,235.21" fill="none" stroke="#000000" stroke-width="6" stroke-linejoin="round"/><polygon points="-245.03,-96.89 -231.72,-125.43 -213.66,-99.63" fill="none" stroke="#000000" stroke-width="6" stroke-linejoin="round"/><polygon points="225.70,-68.73 243.32,-93.91 256.31,-66.06" fill="none" stroke="#000000" stroke-width="6" stroke-linejoin="round"/><polygon points="-143.36,223.77 -122.11,202.53 -114.34,231.55" fill="none" stroke="#000000" stroke-width="6" stroke-linejoin="round"/><polygon points="-74.90,-250.72 -47.91,-269.62 -45.04,-236.80" fill="none" stroke="#000000" stroke-width="6" stroke-linejoin="round"/><polygon points="191.56,144.82 219.03,132.00 216.39,162.20" fill="none" stroke="#000000" stroke-width="6" stroke-linejoin="round"/><polygon points="-272.63,28.92 -242.42,20.83 -250.52,51.04" fill="none" stroke="#000000" stroke-width="6" stroke-linejoin="round"/><polygon points="149.75,-205.91 181.27,-208.67 167.90,-179.99" fill="none" stroke="#000000" stroke-width="6" stroke-linejoin="round"/><polygon points="-3.63,248.70 27.85,251.45 9.73,277.34" fill="none" stroke="#000000" stroke-width="6" stroke-linejoin="round"/><polygon points="-195.40,-195.40 -165.81,-187.47 -187.47,-165.81" fill="none" stroke="#000000" stroke-width="6" stroke-linejoin="round"/><polygon points="250.42,-3.64 279.23,9.79 253.19,28.03" fill="none" stroke="#000000" stroke-width="6" stroke-linejoin="round"/><polygon points="-215.67,154.16 -185.51,175.28 -218.88,190.85" fill="none" stroke="#000000" stroke-width="6" stroke-linejoin="round"/><polygon points="29.74,-286.23 54.93,-261.04 20.53,-251.82" fill="none" stroke="#000000" stroke-width="6" stroke-linejoin="round"/><polygon points="151.23,198.94 170.64,226.66 136.92,229.61" fill="none" stroke="#000000" stroke-width="6" stroke-linejoin="round"/><polygon points="-262.80,-79.49 -247.50,-46.68 -283.57,-49.83" fill="none" stroke="#000000" stroke-width="6" stroke-linejoin="round"/><polygon points="248.07,-162.57 258.69,-122.92 219.04,-133.55" fill="none" stroke="#000000" stroke-width="6" stroke-linejoin="round"/><polygon points="-72.97,240.34 -69.87,275.78 -102.11,260.75" fill="none" stroke="#000000" stroke-width="6" stroke-linejoin="round"/><polygon points="-101.47,-253.22 -104.10,-223.23 -128.75,-240.50" fill="none" stroke="#000000" stroke-width="6" stroke-linejoin="round"/><polygon points="254.06,88.64 246.62,116.40 226.30,96.08" fill="none" stroke="#000000" stroke-width="6" stroke-linejoin="round"/><polygon points="-235.10,80.75 -247.90,108.20 -265.27,83.39" fill="none" stroke="#000000" stroke-width="6" stroke-linejoin="round"/><polygon points="134.14,-237.44 118.89,-215.66 107.65,-239.76" fill="none" stroke="#000000" stroke-width="6" stroke-linejoin="round"/><polygon points="79.85,244.61 62.92,261.53 56.73,238.41" fill="none" stroke="#000000" stroke-width="6" stroke-linejoin="round"/><polygon points="-205.10,-141.52 -226.43,-126.58 -228.70,-152.52" fill="none" stroke="#000000" stroke-width="6" stroke-linejoin="round"/><polygon points="278.74,-44.76 252.53,-32.54 255.05,-61.35" fill="none" stroke="#000000" stroke-width="6" stroke-linejoin="round"/><polygon points="-147.46,220.02 -178.16,228.24 -169.93,197.54" fill="none" stroke="#000000" stroke-width="6" stroke-linejoin="round"/><polygon points="-7.78,-260.88 -37.64,-258.27 -24.97,-285.43" fill="none" stroke="#000000" stroke-width="6" stroke-linejoin="round"/><polygon points="210.40,189.91 182.25,187.44 198.46,164.30" fill="none" stroke="#000000" stroke-width="6" stroke-linejoin="round"/><polygon points="-254.54,10.87 -280.26,3.98 -261.43,-14.85" fill="none" stroke="#000000" stroke-width="6" stroke-linejoin="round"/><polygon points="204.15,-166.84 180.54,-177.85 201.88,-192.80" fill="none" stroke="#000000" stroke-width="6" stroke-linejoin="round"/><polygon points="-16.81,278.61 -38.19,263.64 -14.54,252.62" fill="none" stroke="#000000" stroke-width="6" stroke-linejoin="round"/><polygon points="-158.31,-196.90 -176.66,-215.25 -151.60,-221.96" fill="none" stroke="#000000" stroke-width="6" stroke-linejoin="round"/><polygon points="270.69,64.67 253.53,40.16 283.34,37.56" fill="none" stroke="#000000" stroke-width="6" stroke-linejoin="round"/><polygon points="-226.55,158.17 -237.32,135.07 -211.93,137.29" fill="none" stroke="#000000" stroke-width="6" stroke-linejoin="round"/><polygon points="65.22,-243.39 58.91,-266.93 82.45,-260.63" fill="none" stroke="#000000" stroke-width="6" stroke-linejoin="round"/><polygon points="116.89,248.04 114.83,224.44 136.29,234.45" fill="none" stroke="#000000" stroke-width="6" stroke-linejoin="round"/><polygon points="-257.39,-79.87 -255.36,-103.05 -236.30,-89.71" fill="none" stroke="#000000" stroke-width="6" stroke-linejoin="round"/><polygon points="236.49,-92.42 242.48,-114.78 258.85,-98.41" fill="none" stroke="#000000" stroke-width="6" stroke-linejoin="round"/><polygon points="-123.27,248.82 -113.66,228.21 -100.62,246.84" fill="none" stroke="#000000" stroke-width="6" stroke-linejoin="round"/><polygon points="-92.25,-249.13 -79.16,-267.83 -69.51,-247.14" fill="none" stroke="#000000" stroke-width="6" stroke-linejoin="round"/><polygon points="218.48,136.51 234.04,120.95 239.74,142.21" fill="none" stroke="#000000" stroke-width="6" stroke-linejoin="round"/><polygon points="-271.49,58.56 -254.23,46.48 -252.40,67.47" fill="none" stroke="#000000" stroke-width="6" stroke-linejoin="round"/><polygon points="140.60,-219.02 159.55,-227.86 157.73,-207.03" fill="none" stroke="#000000" stroke-width="6" stroke-linejoin="round"/><polygon points="23.20,261.22 43.29,255.83 37.91,275.93" fill="none" stroke="#000000" stroke-width="6" stroke-linejoin="round"/><polygon points="-215.59,-176.85 -194.89,-178.66 -203.67,-159.82" fill="none" stroke="#000000" stroke-width="6" stroke-linejoin="round"/><polygon points="257.83,-18.57 278.53,-16.76 266.61,0.27" fill="none" stroke="#000000" stroke-width="6" stroke-linejoin="round"/><polygon points="-28.71,-28.71 -8.62,-23.33 -23.33,-8.62" fill="#99ff32"/><polygon points="40.06,-7.97 59.27,0.99 41.90,13.15" fill="#92ff32"/><polygon points="-48.29,24.41 -30.16,37.10 -50.22,46.45" fill="#8bff32"/><polygon points="4.84,-77.32 21.78,-60.38 -1.36,-54.18" fill="#84ff32"/><polygon points="39.68,43.94 54.19,64.66 28.99,66.87" fill="#7dff32"/><polygon points="-72.51,-30.88 -61.83,-7.99 -87.00,-10.19" fill="#76ff32"/><polygon points="75.57,-56.49 82.63,-30.14 56.28,-37.20" fill="#70ff32"/><polygon points="-20.92,75.06 -17.89,109.71 -49.41,95.01" fill="#69ff32"/><polygon points="-38.84,-151.92 -43.90,-94.14 -91.41,-127.41" fill="#62ff32"/><polygon points="168.61,31.62 151.48,95.56 104.67,48.75" fill="#5bff32"/><polygon points="-119.08,32.23 -148.60,95.54 -188.67,38.32" fill="#55ff32"/><polygon points="81.77,-122.73 55.89,-85.77 36.82,-126.66" fill="#4eff32"/><polygon points="43.23,95.95 22.50,116.67 14.92,88.37" fill="#47ff32"/><polygon points="-76.09,-62.49 -103.63,-43.20 -106.56,-76.70" fill="#40ff32"/><polygon points="136.32,-18.71 104.50,-3.87 107.56,-38.85" fill="#39ff32"/><polygon points="-52.54,96.81 -83.78,105.18 -75.41,73.94" fill="#32ff33"/><polygon points="6.26,-108.64 -25.03,-105.91 -11.76,-134.38" fill="#32ff39"/><polygon points="99.23,87.93 69.98,85.37 86.82,61.31" fill="#32ff40"/><polygon points="-110.75,13.70 -143.17,5.02 -119.44,-18.72" fill="#32ff47"/><polygon points="128.17,-78.96 83.24,-99.91 123.85,-128.34" fill="#32ff4e"/><polygon points="-1.36,177.52 -41.41,149.48 2.90,128.82" fill="#32ff54"/><polygon points="-76.59,-86.66 -102.20,-112.28 -67.21,-121.65" fill="#32ff5b"/><polygon points="116.19,33.81 102.69,14.54 126.13,12.49" fill="#32ff62"/><polygon points="-103.27,79.37 -113.83,56.71 -88.93,58.89" fill="#32ff69"/><polygon points="29.78,-111.15 21.55,-141.86 52.27,-133.64" fill="#32ff70"/><polygon points="54.74,136.79 51.96,105.01 80.86,118.49" fill="#32ff77"/><polygon points="-134.26,-31.65 -131.73,-60.55 -107.97,-43.91" fill="#32ff7d"/><polygon points="108.66,-38.92 115.26,-63.53 133.28,-45.51" fill="#32ff84"/><polygon points="-84.73,153.75 -67.44,116.68 -43.97,150.19" fill="#32ff8b"/><polygon points="-79.39,-152.92 -49.60,-195.46 -27.65,-148.39" fill="#32ff92"/><polygon points="123.12,95.74 160.10,58.75 173.64,109.27" fill="#32ff98"/><polygon points="-182.66,37.22 -147.88,12.86 -144.17,55.16" fill="#32ff9f"/><polygon points="63.97,-113.52 87.01,-124.27 84.80,-98.94" fill="#32ffa6"/><polygon points="3.12,136.73 29.83,129.57 22.68,156.28" fill="#32ffad"/><polygon points="-124.08,-98.77 -96.77,-101.16 -108.36,-76.31" fill="#32ffb4"/><polygon points="125.76,-13.23 147.66,-11.31 135.05,6.70" fill="#32ffbb"/><polygon points="-105.73,88.14 -84.92,93.72 -100.15,108.94" fill="#32ffc1"/><polygon points="-1.40,-151.06 19.20,-141.45 0.58,-128.41" fill="#32ffc8"/><polygon points="91.46,101.94 116.32,119.35 88.82,132.18" fill="#32ffcf"/><polygon points="-198.86,-55.30 -160.59,-17.03 -212.87,-3.02" fill="#32ffd6"/><polygon points="165.70,-153.83 201.23,-103.09 139.51,-97.69" fill="#32ffdc"/><polygon points="-38.39,155.71 -17.20,201.16 -67.15,196.79" fill="#32ffe3"/><polygon points="-76.48,-158.90 -68.10,-127.63 -99.37,-136.01" fill="#32ffea"/><polygon points="148.77,32.85 150.81,56.18 129.59,46.28" fill="#32fff1"/><polygon points="-127.62,52.58 -129.51,74.25 -147.33,61.77" fill="#32fff8"/><polygon points="65.88,-146.75 60.36,-126.15 45.29,-141.23" fill="#32ffff"/><polygon points="61.45,134.38 52.52,153.53 40.40,136.22" fill="#32f8ff"/><polygon points="-123.57,-75.24 -135.69,-57.92 -144.63,-77.09" fill="#32f1ff"/><polygon points="166.60,-44.64 149.28,-27.31 142.93,-50.98" fill="#32eaff"/><polygon points="-73.24,140.92 -98.18,158.39 -100.84,128.06" fill="#32e3ff"/><polygon points="-11.09,-170.73 -41.52,-156.53 -38.59,-189.99" fill="#32dcff"/><polygon points="155.47,110.43 124.73,118.67 132.96,87.93" fill="#32d6ff"/><polygon points="-150.30,20.35 -175.06,22.52 -164.56,-0.00" fill="#32cfff"/><polygon points="117.96,-110.66 96.71,-112.52 108.95,-129.99" fill="#32c8ff"/><polygon points="8.71,169.60 -11.90,164.08 3.19,148.99" fill="#32c1ff"/><polygon points="-102.38,-109.36 -121.62,-118.33 -104.23,-130.51" fill="#32bbff"/><polygon points="167.19,25.14 150.03,13.13 169.01,4.27" fill="#32b4ff"/><polygon points="-135.31,123.10 -155.58,102.83 -127.89,95.41" fill="#32adff"/><polygon points="35.77,-168.64 12.97,-201.20 52.56,-204.66" fill="#32a6ff"/><polygon points="105.23,192.94 87.30,154.48 129.57,158.18" fill="#329fff"/><polygon points="-184.58,-29.82 -193.08,-61.55 -161.35,-53.05" fill="#3298ff"/><polygon points="146.96,-67.31 144.94,-90.42 165.96,-80.62" fill="#3292ff"/><polygon points="-68.24,176.68 -66.08,152.06 -45.84,166.23" fill="#328bff"/><polygon points="-78.38,-153.85 -71.81,-178.36 -53.87,-160.42" fill="#3284ff"/><polygon points="152.23,86.22 163.90,61.19 179.74,83.82" fill="#327dff"/><polygon points="-200.83,65.95 -181.75,38.70 -167.69,68.85" fill="#3277ff"/><polygon points="80.30,-174.03 110.57,-204.30 121.65,-162.95" fill="#3270ff"/><polygon points="21.92,198.56 52.79,176.94 56.08,214.49" fill="#3269ff"/><polygon points="-171.66,-109.94 -145.27,-122.24 -147.81,-93.24" fill="#3262ff"/><polygon points="171.22,-28.78 198.26,-36.02 191.01,-8.99" fill="#325bff"/><polygon points="-135.18,137.55 -108.13,135.18 -119.61,159.79" fill="#3254ff"/><polygon points="-20.94,-197.53 5.82,-195.19 -9.59,-173.18" fill="#324eff"/><polygon points="125.70,125.70 154.99,133.55 133.55,154.99" fill="#3247ff"/><polygon points="-208.13,-23.46 -179.72,-10.21 -205.40,7.77" fill="#3240ff"/><polygon points="144.26,-143.47 169.49,-125.80 141.57,-112.78" fill="#3239ff"/><polygon points="-30.95,181.27 -8.46,203.76 -39.18,211.99" fill="#3233ff"/><polygon points="-120.13,-189.06 -100.19,-160.58 -134.82,-157.55" fill="#3932ff"/><polygon points="201.64,25.29 215.64,55.30 182.65,52.41" fill="#4032ff"/><polygon points="-179.64,85.63 -169.71,122.69 -206.77,112.76" fill="#4732ff"/><polygon points="70.84,-216.18 73.79,-182.41 43.07,-196.74" fill="#4e32ff"/><polygon points="93.95,168.09 91.49,196.19 68.38,180.01" fill="#5532ff"/><polygon points="-171.52,-85.76 -178.12,-61.15 -196.13,-79.16" fill="#5b32ff"/><polygon points="201.64,-77.74 190.09,-52.96 174.40,-75.36" fill="#6232ff"/><polygon points="-79.12,173.72 -95.49,197.11 -107.56,171.23" fill="#6932ff"/><polygon points="-37.05,-201.95 -57.23,-181.77 -64.62,-209.33" fill="#7032ff"/><polygon points="187.58,108.11 165.18,123.79 162.80,96.55" fill="#7632ff"/><polygon points="-190.18,38.36 -218.98,51.79 -216.21,20.12" fill="#7d32ff"/><polygon points="149.14,-165.37 117.18,-156.81 125.74,-188.77" fill="#8432ff"/><polygon points="33.67,216.23 4.39,218.79 16.81,192.15" fill="#8b32ff"/><polygon points="-141.37,-132.52 -170.44,-135.07 -153.70,-158.97" fill="#9232ff"/><polygon points="228.59,13.00 197.83,4.76 220.35,-17.76" fill="#9932ff"/><polygon points="-148.57,160.37 -176.85,147.18 -151.29,129.28" fill="#9f32ff"/><polygon points="26.89,-200.42 0.44,-218.94 29.70,-232.58" fill="#a632ff"/><polygon points="134.46,185.71 114.02,165.28 141.93,157.80" fill="#ad32ff"/><polygon points="-211.92,-20.27 -229.25,-45.00 -199.16,-47.64" fill="#b432ff"/><polygon points="179.62,-99.07 167.67,-124.71 195.85,-122.24" fill="#bb32ff"/><polygon points="-64.07,239.10 -73.28,204.73 -38.90,213.94" fill="#c132ff"/><polygon points="-110.86,-180.80 -113.69,-213.10 -84.30,-199.40" fill="#c832ff"/><polygon points="200.76,92.90 203.67,59.61 231.05,78.78" fill="#cf32ff"/><polygon points="-222.97,100.38 -214.29,67.98 -190.57,91.70" fill="#d632ff"/><polygon points="81.30,-201.11 97.86,-236.61 120.32,-204.52" fill="#dc32ff"/><polygon points="50.81,235.38 73.18,203.44 89.65,238.78" fill="#e332ff"/><polygon points="-214.52,-108.70 -191.79,-131.43 -183.47,-100.38" fill="#ea32ff"/><polygon points="208.24,-48.99 238.22,-69.98 241.41,-33.52" fill="#f132ff"/><polygon points="-162.44,196.42 -125.47,179.18 -129.02,219.82" fill="#f832ff"/><polygon points="-52.13,-241.92 -15.72,-251.67 -25.47,-215.26" fill="#ff32fe"/><polygon points="162.91,143.87 199.57,140.67 184.01,174.02" fill="#ff32f8"/><polygon points="-244.36,-0.29 -213.32,2.42 -231.19,27.95" fill="#ff32f1"/><polygon points="151.47,-178.16 183.04,-169.70 159.93,-146.59" fill="#ff32ea"/><polygon points="-23.08,223.85 11.19,239.83 -19.78,261.52" fill="#ff32e3"/><polygon points="-165.64,-206.25 -134.45,-184.41 -168.95,-168.32" fill="#ff32dd"/><polygon points="232.41,11.61 257.36,36.56 223.27,45.70" fill="#ff32d6"/><polygon points="-203.47,118.81 -181.24,150.57 -219.86,153.95" fill="#ff32cf"/><polygon points="54.45,-258.29 69.83,-225.32 33.58,-228.49" fill="#ff32c8"/><polygon points="127.41,190.98 136.82,226.12 101.69,216.70" fill="#ff32c1"/><polygon points="-218.63,-87.90 -215.88,-56.42 -244.52,-69.78" fill="#ff32ba"/><polygon points="225.88,-115.32 223.15,-84.08 197.46,-102.07" fill="#ff32b4"/><polygon points="-78.97,210.17 -87.72,242.82 -111.62,218.92" fill="#ff32ad"/><polygon points="-66.83,-228.74 -78.53,-203.66 -94.40,-226.33" fill="#ff32a6"/><polygon points="225.77,102.35 208.91,126.43 196.49,99.79" fill="#ff329f"/><polygon points="-214.51,57.48 -236.04,79.01 -243.92,49.59" fill="#ff3299"/><polygon points="148.75,-206.31 122.63,-188.02 119.85,-219.79" fill="#ff3292"/><polygon points="60.79,241.73 31.72,255.29 34.51,223.33" fill="#ff328b"/><polygon points="-177.42,-145.57 -210.14,-136.80 -201.37,-169.53" fill="#ff3284"/><polygon points="267.75,-13.23 232.70,-10.16 247.57,-42.05" fill="#ff327d"/><polygon points="-150.96,191.60 -182.54,188.84 -164.36,162.87" fill="#ff3276"/><polygon points="11.50,-229.44 -15.72,-236.73 4.21,-256.65" fill="#ff3270"/><polygon points="170.26,188.76 146.28,177.58 167.96,162.40" fill="#ff3269"/><polygon points="-230.90,-7.52 -251.59,-22.01 -228.70,-32.69" fill="#ff3262"/><polygon points="191.55,-130.79 174.52,-147.82 197.78,-154.05" fill="#ff325b"/><polygon points="-40.46,251.73 -55.30,230.53 -29.52,228.28" fill="#ff3255"/><polygon points="-132.03,-189.52 -143.48,-214.07 -116.49,-211.71" fill="#ff324e"/><polygon points="233.01,79.24 225.73,52.08 252.89,59.36" fill="#ff3247"/><polygon points="-226.77,129.53 -229.30,100.67 -203.04,112.91" fill="#ff3240"/><polygon points="75.53,-220.50 78.12,-250.10 102.46,-233.06" fill="#ff3239"/><polygon points="83.62,242.82 91.22,214.45 111.99,235.21" fill="#ff3232"/><polygon points="-245.03,-96.89 -231.72,-125.43 -213.66,-99.63" fill="#ff3932"/><polygon points="225.70,-68.73 243.32,-93.91 256.31,-66.06" fill="#ff4032"/><polygon points="-143.36,223.77 -122.11,202.53 -114.34,231.55" fill="#ff4732"/><polygon points="-74.90,-250.72 -47.91,-269.62 -45.04,-236.80" fill="#ff4e32"/><polygon points="191.56,144.82 219.03,132.00 216.39,162.20" fill="#ff5532"/><polygon points="-272.63,28.92 -242.42,20.83 -250.52,51.04" fill="#ff5b32"/><polygon points="149.75,-205.91 181.27,-208.67 167.90,-179.99" fill="#ff6232"/><polygon points="-3.63,248.70 27.85,251.45 9.73,277.34" fill="#ff6932"/><polygon points="-195.40,-195.40 -165.81,-187.47 -187.47,-165.81" fill="#ff7032"/><polygon points="250.42,-3.64 279.23,9.79 253.19,28.03" fill="#ff7632"/><polygon points="-215.67,154.16 -185.51,175.28 -218.88,190.85" fill="#ff7d32"/><polygon points="29.74,-286.23 54.93,-261.04 20.53,-251.82" fill="#ff8432"/><polygon points="151.23,198.94 170.64,226.66 136.92,229.61" fill="#ff8b32"/><polygon points="-262.80,-79.49 -247.50,-46.68 -283.57,-49.83" fill="#ff9232"/><polygon points="248.07,-162.57 258.69,-122.92 219.04,-133.55" fill="#ff9932"/><polygon points="-72.97,240.34 -69.87,275.78 -102.11,260.75" fill="#ff9f32"/><polygon points="-101.47,-253.22 -104.10,-223.23 -128.75,-240.50" fill="#ffa632"/><polygon points="254.06,88.64 246.62,116.40 226.30,96.08" fill="#ffad32"/><polygon points="-235.10,80.75 -247.90,108.20 -265.27,83.39" fill="#ffb432"/><polygon points="134.14,-237.44 118.89,-215.66 107.65,-239.76" fill="#ffba32"/><polygon points="79.85,244.61 62.92,261.53 56.73,238.41" fill="#ffc132"/><polygon points="-205.10,-141.52 -226.43,-126.58 -228.70,-152.52" fill="#ffc832"/><polygon points="278.74,-44.76 252.53,-32.54 255.05,-61.35" fill="#ffcf32"/><polygon points="-147.46,220.02 -178.16,228.24 -169.93,197.54" fill="#ffd632"/><polygon points="-7.78,-260.88 -37.64,-258.27 -24.97,-285.43" fill="#ffdd32"/><polygon points="210.40,189.91 182.25,187.44 198.46,164.30" fill="#ffe332"/><polygon points="-254.54,10.87 -280.26,3.98 -261.43,-14.85" fill="#ffea32"/><polygon points="204.15,-166.84 180.54,-177.85 201.88,-192.80" fill="#fff132"/><polygon points="-16.81,278.61 -38.19,263.64 -14.54,252.62" fill="#fff832"/><polygon points="-158.31,-196.90 -176.66,-215.25 -151.60,-221.96" fill="#fffe32"/><polygon points="270.69,64.67 253.53,40.16 283.34,37.56" fill="#f8ff32"/><polygon points="-226.55,158.17 -237.32,135.07 -211.93,137.29" fill="#f1ff32"/><polygon points="65.22,-243.39 58.91,-266.93 82.45,-260.63" fill="#eaff32"/><polygon points="116.89,248.04 114.83,224.44 136.29,234.45" fill="#e3ff32"/><polygon points="-257.39,-79.87 -255.36,-103.05 -236.30,-89.71" fill="#dcff32"/><polygon points="236.49,-92.42 242.48,-114.78 258.85,-98.41" fill="#d6ff32"/><polygon points="-123.27,248.82 -113.66,228.21 -100.62,246.84" fill="#cfff32"/><polygon points="-92.25,-249.13 -79.16,-267.83 -69.51,-247.14" fill="#c8ff32"/><polygon points="218.48,136.51 234.04,120.95 239.74,142.21" fill="#c1ff32"/><polygon points="-271.49,58.56 -254.23,46.48 -252.40,67.47" fill="#bbff32"/><polygon points="140.60,-219.02 159.55,-227.86 157.73,-207.03" fill="#b4ff32"/><polygon points="23.20,261.22 43.29,255.83 37.91,275.93" fill="#adff32"/><polygon points="-215.59,-176.85 -194.89,-178.66 -203.67,-159.82" fill="#a6ff32"/><polygon points="257.83,-18.57 278.53,-16.76 266.61,0.27" fill="#9fff32"/></g></svg>