<svg width="973.75" height="973.75" viewBox="0 0 973.75 973.75" xmlns="http://www.w3.org/2000/svg"><rect x="0.0" y="121.2576088624159" width="22" height="501.60822114944455" rx="8.654913444817065" ry="8.654913444817065" fill="#000000"/><rect x="20.25" y="155.46108126162025" width="22" height="461.7041700170395" rx="8.400894600802914" ry="8.400894600802914" fill="#000000"/><rect x="40.5" y="189.66455366082457" width="22" height="421.80011888463446" rx="8.146875756788761" ry="8.146875756788761" fill="#000000"/><rect x="60.75" y="223.8680260600289" width="22" height="381.8960677522294" rx="7.892856912774608" ry="7.892856912774608" fill="#000000"/><rect x="81.0" y="259.3221042334843" width="22" height="340.53297654986477" rx="7.629550197944741" ry="7.629550197944741" fill="#000000"/><rect x="101.25" y="303.4661059583061" width="22" height="289.03164120423935" rx="7.301706049332542" ry="7.301706049332542" fill="#000000"/><rect x="121.5" y="344.79207600514917" width="22" height="240.81800948292246" rx="6.994790569625085" ry="6.994790569625085" fill="#000000"/><rect x="141.75" y="367.5995521681315" width="22" height="214.20928729277634" rx="6.82540634272022" ry="6.82540634272022" fill="#000000"/><rect x="162.0" y="365.8629454474632" width="22" height="216.23532846688946" rx="6.83830359556469" ry="6.83830359556469" fill="#000000"/><rect x="182.25" y="357.31093033886737" width="22" height="226.21267942691782" rx="6.901816825055611" ry="6.901816825055611" fill="#000000"/><rect x="202.5" y="348.5316385084759" width="22" height="236.45518656237456" rx="6.967017970015116" ry="6.967017970015116" fill="#000000"/><rect x="222.75" y="346.25283059303433" width="22" height="239.11379579705635" rx="6.98394198713404" ry="6.98394198713404" fill="#000000"/><rect x="243.0" y="390.14541025440883" width="22" height="187.90578619211948" rx="6.65796507413965" ry="6.65796507413965" fill="#000000"/><rect x="263.25" y="471.8782216018077" width="22" height="92.55083962015414" rx="6.050960205915333" ry="6.050960205915333" fill="#000000"/><rect x="283.5" y="544.8964664900407" width="22" height="14.177323503293929" rx="3.5778761769511696" ry="3.5778761769511696" fill="#000000"/><rect x="303.75" y="536.1642423057657" width="22" height="75.30289279321886" rx="5.941164248104981" ry="5.941164248104981" fill="#000000"/><rect x="324.0" y="528.1699060899437" width="22" height="131.263246303973" rx="6.2973933503146435" ry="6.2973933503146435" fill="#000000"/><rect x="344.25" y="521.7768457822763" width="22" height="176.01466845764503" rx="6.58226930152436" ry="6.58226930152436" fill="#000000"/><rect x="364.5" y="518.9286307459129" width="22" height="195.95217371218882" rx="6.709186290991943" ry="6.709186290991943" fill="#000000"/><rect x="384.75" y="521.0444521798206" width="22" height="181.1414236748343" rx="6.614904896078228" ry="6.614904896078228" fill="#000000"/><rect x="405.0" y="527.0147899265507" width="22" height="139.349059447724" rx="6.348865540465836" ry="6.348865540465836" fill="#000000"/><rect x="425.25" y="534.9702426781387" width="22" height="83.66089018660819" rx="5.994369092623084" ry="5.994369092623084" fill="#000000"/><rect x="445.5" y="543.577946702183" width="22" height="23.406962018297918" rx="5.610808207292406" ry="5.610808207292406" fill="#000000"/><rect x="465.75" y="477.1474258167391" width="22" height="86.40343470273422" rx="6.011827419982683" ry="6.011827419982683" fill="#000000"/><rect x="486.0" y="385.10785127721226" width="22" height="193.78293833218214" rx="6.6953775009571785" ry="6.6953775009571785" fill="#000000"/><rect x="506.25" y="327.6803149128343" width="22" height="260.7817307572898" rx="7.121874443478117" ry="7.121874443478117" fill="#000000"/><rect x="526.5" y="329.4235112773231" width="22" height="258.74800166538614" rx="7.1089282513421574" ry="7.1089282513421574" fill="#000000"/><rect x="546.75" y="352.63741367366663" width="22" height="231.66511553631867" rx="6.93652561973351" ry="6.93652561973351" fill="#000000"/><rect x="567.0" y="382.5090552587309" width="22" height="196.81486702041042" rx="6.714677972930853" ry="6.714677972930853" fill="#000000"/><rect x="587.25" y="406.98788214463445" width="22" height="168.25623565352296" rx="6.532881129738861" ry="6.532881129738861" fill="#000000"/><rect x="607.5" y="421.9527773624201" width="22" height="150.79719123277297" rx="6.421741379375291" ry="6.421741379375291" fill="#000000"/><rect x="627.75" y="434.6130561865707" width="22" height="136.02686593793067" rx="6.327717317891921" ry="6.327717317891921" fill="#000000"/><rect x="648.0" y="451.59826083314374" width="22" height="116.21079385026212" rx="6.201573340481993" ry="6.201573340481993" fill="#000000"/><rect x="668.25" y="490.58836812380275" width="22" height="70.72233534449319" rx="5.912005606938325" ry="5.912005606938325" fill="#000000"/><rect x="688.5" y="535.956502993407" width="22" height="76.75706797973052" rx="5.950421150333933" ry="5.950421150333933" fill="#000000"/><rect x="708.75" y="513.1258402898783" width="22" height="236.57170690443044" rx="6.967759708303666" ry="6.967759708303666" fill="#000000"/><rect x="729.0" y="499.3645667844596" width="22" height="332.9006214423616" rx="7.580964604089107" ry="7.580964604089107" fill="#000000"/><rect x="749.25" y="497.6590242256302" width="22" height="344.83941935416703" rx="7.6569638963517574" ry="7.6569638963517574" fill="#000000"/><rect x="769.5" y="496.6206120087526" width="22" height="352.1083048723107" rx="7.703235737034385" ry="7.703235737034385" fill="#000000"/><rect x="789.75" y="496.0180182231045" width="22" height="356.32646137184713" rx="7.730087427714305" ry="7.730087427714305" fill="#000000"/><rect x="810.0" y="495.9933662993325" width="22" height="356.49902483825167" rx="7.73118592200276" ry="7.73118592200276" fill="#000000"/><rect x="830.25" y="498.8017021428527" width="22" height="336.84067393360954" rx="7.606045956753302" ry="7.606045956753302" fill="#000000"/><rect x="850.5" y="503.89026179414657" width="22" height="301.22075637455305" rx="7.379298796365789" ry="7.379298796365789" fill="#000000"/><rect x="870.75" y="509.32581202488404" width="22" height="263.1719047593906" rx="7.137089671500751" ry="7.137089671500751" fill="#000000"/><rect x="891.0" y="513.6913524214618" width="22" height="232.61312198334562" rx="6.9425603829958344" ry="6.9425603829958344" fill="#000000"/><rect x="911.25" y="517.9029029159198" width="22" height="203.13226852214078" rx="6.754892913046035" ry="6.754892913046035" fill="#000000"/><rect x="931.5" y="522.1144534103776" width="22" height="173.65141506093627" rx="6.5672254430962385" ry="6.5672254430962385" fill="#000000"/><rect x="951.75" y="526.3260039048354" width="22" height="144.17056159973143" rx="6.379557973146438" ry="6.379557973146438" fill="#000000"/><linearGradient id="g0" x1="0" y1="0" x2="0" y2="1"><stop offset="0%" stop-color="#000000"/><stop offset="25%" stop-color="#ff3232"/><stop offset="75%" stop-color="#ff3232"/><stop offset="100%" stop-color="#000000"/></linearGradient><rect x="3.0" y="124.2576088624159" width="16" height="495.60822114944455" rx="6.294482505321502" ry="6.294482505321502" fill="url(#g0)"/><linearGradient id="g1" x1="0" y1="0" x2="0" y2="1"><stop offset="0%" stop-color="#000000"/><stop offset="25%" stop-color="#ff4c32"/><stop offset="75%" stop-color="#ff4c32"/><stop offset="100%" stop-color="#000000"/></linearGradient><rect x="23.25" y="158.46108126162025" width="16" height="455.7041700170395" rx="6.109741527856665" ry="6.109741527856665" fill="url(#g1)"/><linearGradient id="g2" x1="0" y1="0" x2="0" y2="1"><stop offset="0%" stop-color="#000000"/><stop offset="25%" stop-color="#ff6532"/><stop offset="75%" stop-color="#ff6532"/><stop offset="100%" stop-color="#000000"/></linearGradient><rect x="43.5" y="192.66455366082457" width="16" height="415.80011888463446" rx="5.925000550391826" ry="5.925000550391826" fill="url(#g2)"/><linearGradient id="g3" x1="0" y1="0" x2="0" y2="1"><stop offset="0%" stop-color="#000000"/><stop offset="25%" stop-color="#ff7f32"/><stop offset="75%" stop-color="#ff7f32"/><stop offset="100%" stop-color="#000000"/></linearGradient><rect x="63.75" y="226.8680260600289" width="16" height="375.8960677522294" rx="5.740259572926988" ry="5.740259572926988" fill="url(#g3)"/><linearGradient id="g4" x1="0" y1="0" x2="0" y2="1"><stop offset="0%" stop-color="#000000"/><stop offset="25%" stop-color="#ff9932"/><stop offset="75%" stop-color="#ff9932"/><stop offset="100%" stop-color="#000000"/></linearGradient><rect x="84.0" y="262.3221042334843" width="16" height="334.53297654986477" rx="5.548763780323448" ry="5.548763780323448" fill="url(#g4)"/><linearGradient id="g5" x1="0" y1="0" x2="0" y2="1"><stop offset="0%" stop-color="#000000"/><stop offset="25%" stop-color="#ffb232"/><stop offset="75%" stop-color="#ffb232"/><stop offset="100%" stop-color="#000000"/></linearGradient><rect x="104.25" y="306.4661059583061" width="16" height="283.03164120423935" rx="5.3103316722418485" ry="5.3103316722418485" fill="url(#g5)"/><linearGradient id="g6" x1="0" y1="0" x2="0" y2="1"><stop offset="0%" stop-color="#000000"/><stop offset="25%" stop-color="#ffcc32"/><stop offset="75%" stop-color="#ffcc32"/><stop offset="100%" stop-color="#000000"/></linearGradient><rect x="124.5" y="347.79207600514917" width="16" height="234.81800948292246" rx="5.087120414272789" ry="5.087120414272789" fill="url(#g6)"/><linearGradient id="g7" x1="0" y1="0" x2="0" y2="1"><stop offset="0%" stop-color="#000000"/><stop offset="25%" stop-color="#ffe532"/><stop offset="75%" stop-color="#ffe532"/><stop offset="100%" stop-color="#000000"/></linearGradient><rect x="144.75" y="370.5995521681315" width="16" height="208.20928729277634" rx="4.963931885614706" ry="4.963931885614706" fill="url(#g7)"/><linearGradient id="g8" x1="0" y1="0" x2="0" y2="1"><stop offset="0%" stop-color="#000000"/><stop offset="25%" stop-color="#ffff32"/><stop offset="75%" stop-color="#ffff32"/><stop offset="100%" stop-color="#000000"/></linearGradient><rect x="165.0" y="368.8629454474632" width="16" height="210.23532846688946" rx="4.973311705865229" ry="4.973311705865229" fill="url(#g8)"/><linearGradient id="g9" x1="0" y1="0" x2="0" y2="1"><stop offset="0%" stop-color="#000000"/><stop offset="25%" stop-color="#e5ff32"/><stop offset="75%" stop-color="#e5ff32"/><stop offset="100%" stop-color="#000000"/></linearGradient><rect x="185.25" y="360.31093033886737" width="16" height="220.21267942691782" rx="5.01950314549499" ry="5.01950314549499" fill="url(#g9)"/><linearGradient id="g10" x1="0" y1="0" x2="0" y2="1"><stop offset="0%" stop-color="#000000"/><stop offset="25%" stop-color="#ccff32"/><stop offset="75%" stop-color="#ccff32"/><stop offset="100%" stop-color="#000000"/></linearGradient><rect x="205.5" y="351.5316385084759" width="16" height="230.45518656237456" rx="5.066922160010993" ry="5.066922160010993" fill="url(#g10)"/><linearGradient id="g11" x1="0" y1="0" x2="0" y2="1"><stop offset="0%" stop-color="#000000"/><stop offset="25%" stop-color="#b2ff32"/><stop offset="75%" stop-color="#b2ff32"/><stop offset="100%" stop-color="#000000"/></linearGradient><rect x="225.75" y="349.25283059303433" width="16" height="233.11379579705635" rx="5.079230536097484" ry="5.079230536097484" fill="url(#g11)"/><linearGradient id="g12" x1="0" y1="0" x2="0" y2="1"><stop offset="0%" stop-color="#000000"/><stop offset="25%" stop-color="#99ff32"/><stop offset="75%" stop-color="#99ff32"/><stop offset="100%" stop-color="#000000"/></linearGradient><rect x="246.0" y="393.14541025440883" width="16" height="181.90578619211948" rx="4.842156417556109" ry="4.842156417556109" fill="url(#g12)"/><linearGradient id="g13" x1="0" y1="0" x2="0" y2="1"><stop offset="0%" stop-color="#000000"/><stop offset="25%" stop-color="#7fff32"/><stop offset="75%" stop-color="#7fff32"/><stop offset="100%" stop-color="#000000"/></linearGradient><rect x="266.25" y="474.8782216018077" width="16" height="86.55083962015414" rx="4.400698331574787" ry="4.400698331574787" fill="url(#g13)"/><linearGradient id="g14" x1="0" y1="0" x2="0" y2="1"><stop offset="0%" stop-color="#000000"/><stop offset="25%" stop-color="#65ff32"/><stop offset="75%" stop-color="#65ff32"/><stop offset="100%" stop-color="#000000"/></linearGradient><rect x="286.5" y="547.8964664900407" width="16" height="8.177323503293929" rx="2.063679434757951" ry="2.063679434757951" fill="url(#g14)"/><linearGradient id="g15" x1="0" y1="0" x2="0" y2="1"><stop offset="0%" stop-color="#000000"/><stop offset="25%" stop-color="#4cff32"/><stop offset="75%" stop-color="#4cff32"/><stop offset="100%" stop-color="#000000"/></linearGradient><rect x="306.75" y="539.1642423057657" width="16" height="69.30289279321886" rx="4.320846725894532" ry="4.320846725894532" fill="url(#g15)"/><linearGradient id="g16" x1="0" y1="0" x2="0" y2="1"><stop offset="0%" stop-color="#000000"/><stop offset="25%" stop-color="#32ff32"/><stop offset="75%" stop-color="#32ff32"/><stop offset="100%" stop-color="#000000"/></linearGradient><rect x="327.0" y="531.1699060899437" width="16" height="125.26324630397302" rx="4.579922436592468" ry="4.579922436592468" fill="url(#g16)"/><linearGradient id="g17" x1="0" y1="0" x2="0" y2="1"><stop offset="0%" stop-color="#000000"/><stop offset="25%" stop-color="#32ff4c"/><stop offset="75%" stop-color="#32ff4c"/><stop offset="100%" stop-color="#000000"/></linearGradient><rect x="347.25" y="524.7768457822763" width="16" height="170.01466845764503" rx="4.787104946563171" ry="4.787104946563171" fill="url(#g17)"/><linearGradient id="g18" x1="0" y1="0" x2="0" y2="1"><stop offset="0%" stop-color="#000000"/><stop offset="25%" stop-color="#32ff65"/><stop offset="75%" stop-color="#32ff65"/><stop offset="100%" stop-color="#000000"/></linearGradient><rect x="367.5" y="521.9286307459129" width="16" height="189.95217371218882" rx="4.879408211630504" ry="4.879408211630504" fill="url(#g18)"/><linearGradient id="g19" x1="0" y1="0" x2="0" y2="1"><stop offset="0%" stop-color="#000000"/><stop offset="25%" stop-color="#32ff7f"/><stop offset="75%" stop-color="#32ff7f"/><stop offset="100%" stop-color="#000000"/></linearGradient><rect x="387.75" y="524.0444521798206" width="16" height="175.1414236748343" rx="4.810839924420529" ry="4.810839924420529" fill="url(#g19)"/><linearGradient id="g20" x1="0" y1="0" x2="0" y2="1"><stop offset="0%" stop-color="#000000"/><stop offset="25%" stop-color="#32ff99"/><stop offset="75%" stop-color="#32ff99"/><stop offset="100%" stop-color="#000000"/></linearGradient><rect x="408.0" y="530.0147899265507" width="16" height="133.349059447724" rx="4.617356756702426" ry="4.617356756702426" fill="url(#g20)"/><linearGradient id="g21" x1="0" y1="0" x2="0" y2="1"><stop offset="0%" stop-color="#000000"/><stop offset="25%" stop-color="#32ffb2"/><stop offset="75%" stop-color="#32ffb2"/><stop offset="100%" stop-color="#000000"/></linearGradient><rect x="428.25" y="537.9702426781387" width="16" height="77.66089018660819" rx="4.359541158271334" ry="4.359541158271334" fill="url(#g21)"/><linearGradient id="g22" x1="0" y1="0" x2="0" y2="1"><stop offset="0%" stop-color="#000000"/><stop offset="25%" stop-color="#32ffcc"/><stop offset="75%" stop-color="#32ffcc"/><stop offset="100%" stop-color="#000000"/></linearGradient><rect x="448.5" y="546.577946702183" width="16" height="17.406962018297918" rx="4.0805877871217495" ry="4.0805877871217495" fill="url(#g22)"/><linearGradient id="g23" x1="0" y1="0" x2="0" y2="1"><stop offset="0%" stop-color="#000000"/><stop offset="25%" stop-color="#32ffe5"/><stop offset="75%" stop-color="#32ffe5"/><stop offset="100%" stop-color="#000000"/></linearGradient><rect x="468.75" y="480.1474258167391" width="16" height="80.40343470273422" rx="4.372238123623769" ry="4.372238123623769" fill="url(#g23)"/><linearGradient id="g24" x1="0" y1="0" x2="0" y2="1"><stop offset="0%" stop-color="#000000"/><stop offset="25%" stop-color="#32ffff"/><stop offset="75%" stop-color="#32ffff"/><stop offset="100%" stop-color="#000000"/></linearGradient><rect x="489.0" y="388.10785127721226" width="16" height="187.78293833218214" rx="4.869365455241584" ry="4.869365455241584" fill="url(#g24)"/><linearGradient id="g25" x1="0" y1="0" x2="0" y2="1"><stop offset="0%" stop-color="#000000"/><stop offset="25%" stop-color="#32e5ff"/><stop offset="75%" stop-color="#32e5ff"/><stop offset="100%" stop-color="#000000"/></linearGradient><rect x="509.25" y="330.6803149128343" width="16" height="254.78173075728975" rx="5.179545049802267" ry="5.179545049802267" fill="url(#g25)"/><linearGradient id="g26" x1="0" y1="0" x2="0" y2="1"><stop offset="0%" stop-color="#000000"/><stop offset="25%" stop-color="#32ccff"/><stop offset="75%" stop-color="#32ccff"/><stop offset="100%" stop-color="#000000"/></linearGradient><rect x="529.5" y="332.4235112773231" width="16" height="252.74800166538614" rx="5.170129637339751" ry="5.170129637339751" fill="url(#g26)"/><linearGradient id="g27" x1="0" y1="0" x2="0" y2="1"><stop offset="0%" stop-color="#000000"/><stop offset="25%" stop-color="#32b2ff"/><stop offset="75%" stop-color="#32b2ff"/><stop offset="100%" stop-color="#000000"/></linearGradient><rect x="549.75" y="355.63741367366663" width="16" height="225.66511553631867" rx="5.044745905260735" ry="5.044745905260735" fill="url(#g27)"/><linearGradient id="g28" x1="0" y1="0" x2="0" y2="1"><stop offset="0%" stop-color="#000000"/><stop offset="25%" stop-color="#3299ff"/><stop offset="75%" stop-color="#3299ff"/><stop offset="100%" stop-color="#000000"/></linearGradient><rect x="570.0" y="385.5090552587309" width="16" height="190.81486702041042" rx="4.88340216213153" ry="4.88340216213153" fill="url(#g28)"/><linearGradient id="g29" x1="0" y1="0" x2="0" y2="1"><stop offset="0%" stop-color="#000000"/><stop offset="25%" stop-color="#327fff"/><stop offset="75%" stop-color="#327fff"/><stop offset="100%" stop-color="#000000"/></linearGradient><rect x="590.25" y="409.98788214463445" width="16" height="162.25623565352296" rx="4.751186276173717" ry="4.751186276173717" fill="url(#g29)"/><linearGradient id="g30" x1="0" y1="0" x2="0" y2="1"><stop offset="0%" stop-color="#000000"/><stop offset="25%" stop-color="#3265ff"/><stop offset="75%" stop-color="#3265ff"/><stop offset="100%" stop-color="#000000"/></linearGradient><rect x="610.5" y="424.9527773624201" width="16" height="144.79719123277297" rx="4.6703573668183935" ry="4.6703573668183935" fill="url(#g30)"/><linearGradient id="g31" x1="0" y1="0" x2="0" y2="1"><stop offset="0%" stop-color="#000000"/><stop offset="25%" stop-color="#324cff"/><stop offset="75%" stop-color="#324cff"/><stop offset="100%" stop-color="#000000"/></linearGradient><rect x="630.75" y="437.6130561865707" width="16" height="130.02686593793067" rx="4.601976231194124" ry="4.601976231194124" fill="url(#g31)"/><linearGradient id="g32" x1="0" y1="0" x2="0" y2="1"><stop offset="0%" stop-color="#000000"/><stop offset="25%" stop-color="#3232ff"/><stop offset="75%" stop-color="#3232ff"/><stop offset="100%" stop-color="#000000"/></linearGradient><rect x="651.0" y="454.59826083314374" width="16" height="110.21079385026212" rx="4.5102351567141765" ry="4.5102351567141765" fill="url(#g32)"/><linearGradient id="g33" x1="0" y1="0" x2="0" y2="1"><stop offset="0%" stop-color="#000000"/><stop offset="25%" stop-color="#4c32ff"/><stop offset="75%" stop-color="#4c32ff"/><stop offset="100%" stop-color="#000000"/></linearGradient><rect x="671.25" y="493.58836812380275" width="16" height="64.72233534449319" rx="4.299640441409691" ry="4.299640441409691" fill="url(#g33)"/><linearGradient id="g34" x1="0" y1="0" x2="0" y2="1"><stop offset="0%" stop-color="#000000"/><stop offset="25%" stop-color="#6532ff"/><stop offset="75%" stop-color="#6532ff"/><stop offset="100%" stop-color="#000000"/></linearGradient><rect x="691.5" y="538.956502993407" width="16" height="70.75706797973052" rx="4.327579018424679" ry="4.327579018424679" fill="url(#g34)"/><linearGradient id="g35" x1="0" y1="0" x2="0" y2="1"><stop offset="0%" stop-color="#000000"/><stop offset="25%" stop-color="#7f32ff"/><stop offset="75%" stop-color="#7f32ff"/><stop offset="100%" stop-color="#000000"/></linearGradient><rect x="711.75" y="516.1258402898783" width="16" height="230.57170690443044" rx="5.06746160603903" ry="5.06746160603903" fill="url(#g35)"/><linearGradient id="g36" x1="0" y1="0" x2="0" y2="1"><stop offset="0%" stop-color="#000000"/><stop offset="25%" stop-color="#9932ff"/><stop offset="75%" stop-color="#9932ff"/><stop offset="100%" stop-color="#000000"/></linearGradient><rect x="732.0" y="502.3645667844596" width="16" height="326.9006214423616" rx="5.5134288029738965" ry="5.5134288029738965" fill="url(#g36)"/><linearGradient id="g37" x1="0" y1="0" x2="0" y2="1"><stop offset="0%" stop-color="#000000"/><stop offset="25%" stop-color="#b232ff"/><stop offset="75%" stop-color="#b232ff"/><stop offset="100%" stop-color="#000000"/></linearGradient><rect x="752.25" y="500.6590242256302" width="16" height="338.83941935416703" rx="5.568701015528551" ry="5.568701015528551" fill="url(#g37)"/><linearGradient id="g38" x1="0" y1="0" x2="0" y2="1"><stop offset="0%" stop-color="#000000"/><stop offset="25%" stop-color="#cc32ff"/><stop offset="75%" stop-color="#cc32ff"/><stop offset="100%" stop-color="#000000"/></linearGradient><rect x="772.5" y="499.6206120087526" width="16" height="346.1083048723107" rx="5.602353263297735" ry="5.602353263297735" fill="url(#g38)"/><linearGradient id="g39" x1="0" y1="0" x2="0" y2="1"><stop offset="0%" stop-color="#000000"/><stop offset="25%" stop-color="#e532ff"/><stop offset="75%" stop-color="#e532ff"/><stop offset="100%" stop-color="#000000"/></linearGradient><rect x="792.75" y="499.0180182231045" width="16" height="350.32646137184713" rx="5.621881765610404" ry="5.621881765610404" fill="url(#g39)"/><linearGradient id="g40" x1="0" y1="0" x2="0" y2="1"><stop offset="0%" stop-color="#000000"/><stop offset="25%" stop-color="#ff32ff"/><stop offset="75%" stop-color="#ff32ff"/><stop offset="100%" stop-color="#000000"/></linearGradient><rect x="813.0" y="498.9933662993325" width="16" height="350.49902483825167" rx="5.622680670547462" ry="5.622680670547462" fill="url(#g40)"/><linearGradient id="g41" x1="0" y1="0" x2="0" y2="1"><stop offset="0%" stop-color="#000000"/><stop offset="25%" stop-color="#ff32e5"/><stop offset="75%" stop-color="#ff32e5"/><stop offset="100%" stop-color="#000000"/></linearGradient><rect x="833.25" y="501.8017021428527" width="16" height="330.84067393360954" rx="5.531669786729674" ry="5.531669786729674" fill="url(#g41)"/><linearGradient id="g42" x1="0" y1="0" x2="0" y2="1"><stop offset="0%" stop-color="#000000"/><stop offset="25%" stop-color="#ff32cc"/><stop offset="75%" stop-color="#ff32cc"/><stop offset="100%" stop-color="#000000"/></linearGradient><rect x="853.5" y="506.89026179414657" width="16" height="295.22075637455305" rx="5.366762760993301" ry="5.366762760993301" fill="url(#g42)"/><linearGradient id="g43" x1="0" y1="0" x2="0" y2="1"><stop offset="0%" stop-color="#000000"/><stop offset="25%" stop-color="#ff32b2"/><stop offset="75%" stop-color="#ff32b2"/><stop offset="100%" stop-color="#000000"/></linearGradient><rect x="873.75" y="512.325812024884" width="16" height="257.1719047593906" rx="5.190610670182364" ry="5.190610670182364" fill="url(#g43)"/><linearGradient id="g44" x1="0" y1="0" x2="0" y2="1"><stop offset="0%" stop-color="#000000"/><stop offset="25%" stop-color="#ff3299"/><stop offset="75%" stop-color="#ff3299"/><stop offset="100%" stop-color="#000000"/></linearGradient><rect x="894.0" y="516.6913524214618" width="16" height="226.61312198334562" rx="5.049134823996971" ry="5.049134823996971" fill="url(#g44)"/><linearGradient id="g45" x1="0" y1="0" x2="0" y2="1"><stop offset="0%" stop-color="#000000"/><stop offset="25%" stop-color="#ff327f"/><stop offset="75%" stop-color="#ff327f"/><stop offset="100%" stop-color="#000000"/></linearGradient><rect x="914.25" y="520.9029029159198" width="16" height="197.13226852214078" rx="4.912649391306207" ry="4.912649391306207" fill="url(#g45)"/><linearGradient id="g46" x1="0" y1="0" x2="0" y2="1"><stop offset="0%" stop-color="#000000"/><stop offset="25%" stop-color="#ff3265"/><stop offset="75%" stop-color="#ff3265"/><stop offset="100%" stop-color="#000000"/></linearGradient><rect x="934.5" y="525.1144534103776" width="16" height="167.65141506093627" rx="4.776163958615446" ry="4.776163958615446" fill="url(#g46)"/><linearGradient id="g47" x1="0" y1="0" x2="0" y2="1"><stop offset="0%" stop-color="#000000"/><stop offset="25%" stop-color="#ff324c"/><stop offset="75%" stop-color="#ff324c"/><stop offset="100%" stop-color="#000000"/></linearGradient><rect x="954.75" y="529.3260039048354" width="16" height="138.17056159973143" rx="4.639678525924682" ry="4.639678525924682" fill="url(#g47)"/></svg>